<svg xmlns="http://www.w3.org/2000/svg" version="1.2" viewBox="0 0 733 268">
  <style>
    .b{fill:#030434}.c{fill:#010237}.d{fill:#030336}.e{fill:#042e77}.f{fill:#073c87}.g{fill:#dfc434}.h{fill:#064896}.i{fill:#d1b22e}.j{fill:#352939}.k{fill:#0f0a2a}.l{fill:#0b062c}.m{fill:#01033b}.n{fill:#090c3e}.o{fill:#040a46}.p{fill:#fbf92b}.q{fill:#dd983f}.r{fill:#f7e44f}.s{fill:#702b29}.t{fill:#4de5f5}.u{fill:#301622}.v{fill:#fcc90b}.w{fill:#f7e427}.x{fill:#65eef9}.y{fill:#1487cd}.z{fill:#f7d014}.A{fill:#c02909}.B{fill:#c07036}.C{fill:#e1a34a}.D{fill:#d08941}.E{fill:#e9c03c}.F{fill:#041659}.G{fill:#050e4d}.H{fill:#37c6de}.I{fill:#bb6735}.J{fill:#05083d}.K{fill:#874735}.L{fill:#da9864}.M{fill:#5f2d34}.N{fill:#e9c123}.O{fill:#f6eb3d}.P{fill:#fbf724}.Q{fill:#f9b808}.R{fill:#f1c81a}.S{fill:#fbf223}.U{fill:#e48a0d}.V{fill:#d5680f}.W{fill:#dfe080}.Y{fill:#a06454}.Z{fill:#eee561}.a0{fill:#fdfc36}.a1{fill:#f1f8f9}.a2{fill:#f5fbfb}.a3{fill:#8ff2f9}.a4{fill:#c3f3f9}.a5{fill:#dff7f8}.a6{fill:#34d2f1}.a7{fill:#65e1f4}.a8{fill:#19a4d6}.a9{fill:#fcc109}.aa{fill:#aff2f9}.ab{fill:#43afdc}.ac{fill:#fee611}.af{fill:#fdd30c}.ag{fill:#64bcd2}.ah{fill:#020843}.ai{fill:#13b1e9}.aj{fill:#34a4d4}.ak{fill:#1cc1ed}.al{fill:#23acd6}.am{fill:#30a4d7}.an{fill:#5ed4da}.ao{fill:#96d1d9}.ap{fill:#11a1de}.aq{fill:#e4ba51}.as{fill:#80c7d2}.au{fill:#040430}.ax{fill:#070530}.ay{fill:#c9bf68}.az{fill:#52b0b3}
  </style>
  <path d="m446 239-1-1c-3-2-3-7-9-5l-2-1c-1-5-5-6-8-8-1-5 2-6 6-7s5 3 6 6c3 4 6 3 10 2 5 0 6 0 4 6l-1 2c4 0 5 0 5-4l3-6c2-2 2-4 2-7-1-3-1-5 1-8h3l2 2v5l1 3 1 1 1 1 5 1 4 1h1c3 1 5 2 9 1h5l1-1c2-2 3-4 2-6-1-6 1-13 1-19-1-9-2-18-1-26 0-15-1-30 2-45 1-2 0-3-2-4l-2-2c-1-1-2-3-1-4 1-2 3-1 5 0l5 2c6 1 7 3 6 9 3-5 7-7 12-3 1 1 2 1 2-1 0-3 2-4 4-3 5 2 6-1 7-4 1-2 3-4 5-4 4-1 7 0 7 4l1 5c1 1 3 2 4 1 2 0 1-2 0-3-1-3 0-6 3-7l2-1c2 3 6 2 10 3l13 1c5-2 10 1 16 1-3-4-8-4-7-9l4-1c6 4 10 5 16 2l4-1h1v2l1-1c6-2 11-5 18-2 2 1 3 0 3-2 0-4 8-13 11-14 3 0 6 2 5 5l-3 4c-3 2 0 2 1 3v1c0 2-2 2-1 4l1 3-3 2c-2 2-1 2 1 2 4 2 7 1 11 1 2 1 3 0 5-1l3-1c2-1 4-2 6 0s1 4-1 6h5c6-2 6-2 9 3 4-5 10-6 14-10l1-1 2-2h1l2-2 3-1c3 0 4-1 5-3v-1l1-1 1-2v-2l1-2v-1l2-2v-1l1-2c2-7-1-12-5-16-3-4-3-6 2-7l2 1 2 3 1 1h1l2 1 1 1 1 1v13c0 2 1 5-2 7-2 1 0 3 0 5l1 1-1 2v1l-1 1v1l-2 1-1 2v1l-1 1-2 3-1 1h-1c-6-1-7 0-6 4 0 3-3 3-6 5h-3l-2 1c-10 5-19 3-28 2l-20-5c-5-1-9-2-12-5-2-2-5-1-7 0l-15 5c-15 2-29 0-42-1l15 1 12 1c10 0 20-1 29-4 6-3 11 1 17 3 14 4 28 7 43 6 7 0 13-3 20-6h1c3 3 1 5 0 6l-4 3-1 1c-11 9-23 14-35 22l-6 1c-12 0-23-2-34-4l-13-2c-6 1-9 6-14 8l-9 1c-3 0-5-1-7 1v6l2 4 1 1v2l1 1c7 19 16 36 25 54l7 14c1 3 2 6 0 8l-1 1v1l-5 4-15 8c-4 2-7 2-11 1l-24-7c-4-1-8-2-13-1h-1l-2-1-1-2v-2l-4-15c-3-5-3-6-8-2l-4 2-16 14c-3 2-6 2-9 1l-60-8-5-3z" class="b"/>
  <path d="M426 224c5 0 9 2 10 8v2c-2 4-5 6-8 6l-23-1h-36l-63 1-7-1-5-4h-3l-2 6v1l-3 2c-14-2-27 1-41 2l-25 4c-2 1-5 1-8-1l-11-10-1-4-2-2c-6-2-7-1-9 4l-3 13c-1 3-2 4-6 5l-34 8c-4 1-8 1-13-2l-2-1-5-3-2-1-2-2h-2l-1-1h-1l-1-1c-3-2-6-4-6-9l1-4 5-8 4-7c3-1 4-4 6-6 3-5 4-5 8-1 1 1 2 2 1 3-4 3-3 9-5 13l-2 3-2 3c-2 2-1 3 1 4 6 1 11 4 16 0h6c5 3 7 0 9-4l1-1c3-5 6-11 6-16 2-9 12-16 20-12h5l5-4c4-3 7-1 7 3s3 6 4 8l4 11 4 2c2 1 2 2 1 3 1-1 2-3 5-3 6 0 12-3 18-5 3-3 7-4 10-2 2 2 3 1 5-1h3l17 1c3 0 3-2 2-5v-7c0-2 0-3-2-5v-7c0-3 0-5 3-6l2-1c1-2 2-4 4-4 3 1 5 2 6 4l4 4 2 5c-1 5 1 7 4 9 3 1 4 3 5 6l1 1h5l14-1 12-2c6 0 11 0 16 3h39c2 0 4 2 7 1l6-3 5 1c1 1 2 3 4 2 5 0 8 4 13 6z" class="c"/>
  <path d="M135 217c-5-2-8 0-10 6-1 4-2 2-4 1 1-6 5-10 7-16l1-2a10123 10123 0 0 0 20-48l-1-1h-3l-25-1c-3 0-7-1-10-4-3-4-7-4-12-3l-30 5-4-1h-2c-14-6-26-14-37-24l-5-5c-6-8-12-16-16-26L2 87l3 1 1 2 1 3c2 3 2 7 5 9l5 6c3 5 7 7 12 10 6 4 13 6 21 8h19c4 1 8-1 12-1h2l9-2h2l6 3c11-1 22-1 33-4-1-1-1 1-2 1l-29 3-6-3c2-3 5-3 7-3 6 0 12 1 18-1 4-1 5-2 3-6l2-2v-2l-1-2V83c0-2 1-3 2-3 2 0 3 1 3 2 1 5 4 7 8 8 3 0 3 3 4 5 1 5 3 8 6 12 3 2 6 2 10 2l6 1c2 2 3 0 6 0l1 1 2 5-1 1c-2 2-5 2-7 1-3-1-5 2-7 2-1 0-1 0 0 0 7 1 14 1 21-1h3s1 0 0 0l-1-2c0-2 2-3 3-3h6c2-1 4 0 4 2 0 3 2 3 4 2 5 0 7 1 9 6-3 2-5 2-8 1l-19 3c-3 0-3 3-4 6l-7 16c0 4-4 6-3 11l-8 5c1 2 3 5 2 8-5 7-7 15-11 22v1l-1 2v1l-1 2v1l-1 2-3 3c-2 2-5 3-4 7l-4 2z" class="d"/>
  <path d="m299 239 5-1c26-1 51-2 77-1l24 1c1 1 2 3 0 5-9 2-18 1-27 1h-51l-15 1c-5 0-9-1-13-6z" class="e"/>
  <path d="m67 153 34-6c4-1 7 0 9 3 3 3 7 4 11 4l18 1 5 2c-2 3-4 2-7 2l-16 1-5-1c-11-6-22-1-33 0h-5l-3 1h-7c-2-2-3-4-1-7zm66 109c11 2 21-4 32-6l14-3c4 0 5-1 6-5l3-14c1-4 4-3 6-4s3 0 3 2c-5 5-5 11-6 17s-3 9-10 11l-26 7c-5 1-11 1-16-2-2-1-5 0-6-3zm79-13 24-3 32-4 6-1 15 1c-1 4-3 5-6 5l-59 7c-4 0-9 0-12-5zm342 5c12-2 23 3 34 6 8 2 15 2 22-3l13-7c1 4-3 5-6 7l-11 7c-7 5-14 5-22 3l-29-8-1-2v-3zm-108-15 41 6c11 2 21 4 33 4-4 5-9 5-14 5l-50-7c-5 0-8-3-10-8z" class="f"/>
  <path d="m21 24 3-4 1-1 1-1 6-4 1-1 2-1 1-1a76 76 0 0 1 52-1c4 2 7 2 11 1h2c4 2 8 1 12 2h17c1 4-2 3-4 4l-22 1c-2 0-5 0-7 2-2 1-4 0-6-1l-18-5c-17-1-32 1-45 12l-3 1c-2 0-2-2-4-3z" class="g"/>
  <path d="M618 147c4-2 8 0 12 1l36 5c2 2 1 4-1 6-8 2-15 1-23 0l-21-3c-2-2-1-6-3-9z" class="f"/>
  <path d="m67 152 1 7c-4 1-8 0-11-2-15-7-27-17-36-30l-1-3 14 11a177 177 0 0 0 29 17h4z" class="h"/>
  <path d="m21 24 3-1v3l-1 1v2C16 40 10 50 8 62v28l-1 2-2-1-1-2-1-4C2 72 1 60 6 47v-1l2-4 1-3 12-15zm705 50h-1l-1-1-1-1-2-2-3-4-2-2-1-1-1-1-2-1-1-1v-3l1-2v-1l1-1v-1l1-2v-1l1-2c3-7 5-14 6-22l2-4c4 2 5 5 4 9-2 8-5 15-9 23v1c-2 4 2 5 3 7l5 6 1 2 1 3-2 2z" class="i"/>
  <path d="m723 21-1 4c-3 0-5-2-7-3-15-8-30-11-47-6-2-1-2-3-2-5 1-2 3-2 5-3l3-1h14c9 1 17 3 25 8l2 1c3 0 4 2 6 4l2 1z" class="g"/>
  <path d="M405 243v-5h21c3 0 7-1 10-4 3 1 2 2 0 4-2 3-5 7-9 7-7 0-14 1-22-2z" class="f"/>
  <path d="m665 159 1-5c6-1 10-5 15-8l26-14c-4 5-9 9-15 12-8 6-17 11-27 15z" class="h"/>
  <path d="M727 72v-2c5 3 4 8 5 13 1 12-2 23-9 33-4 6-8 11-14 15-1-2-1-4 2-4 2 0 1-3 2-5v-2l1-1 1-1 1-1 1-1c3-4 6-6 8-11 2-4 4-9 3-14 1-6 0-12-1-19z" class="j"/>
  <path d="M618 147c2 0 3 0 2 3l1 6c-5 0-10 0-14 3l-5 1c-2-2 0-3 2-5 5-2 8-6 14-8zm-82 88c0-2 2-3 3-3 6-5 8-4 10 3l3 15c-3-2-2-5-2-7-3-7-5-8-12-7l-2-1zm-100 3v-6c3-3 5-3 6 1 1 2 3 2 3 5-3-2-5-3-9 0z" class="h"/>
  <path d="m111 243 6 9c-3-2-8-3-6-9z" class="k"/>
  <path d="M722 20c-3 0-5-2-7-4 3 0 5 2 7 4z" class="i"/>
  <path d="M117 231c0 3-2 6-4 8 0-3 2-5 4-8z" class="k"/>
  <path d="M726 67q-3-2-5-6c3 1 4 4 5 6zm-5-6c-2-2-6-1-4-6 0 3 3 3 4 6z" class="j"/>
  <path d="M554 254v3c-2-1-3-2-2-5l1 1 1 1z" class="h"/>
  <path d="M126 257c2 0 4 0 5 3-2 0-3-1-5-3z" class="k"/>
  <path d="m587 158 2 2v3c-2-1-2-2-2-5zm4 10c-2-1-2-2-2-4 2 0 2 2 2 4z" class="h"/>
  <path d="M199 235c2 0 2 2 2 4l-2-4z" class="f"/>
  <path d="M75 160c0-2 1-2 3-1l-3 1z" class="h"/>
  <path d="m8 42-1 4c-1-1 0-3 1-4z" class="j"/>
  <path d="m122 254 2 2-2-2z" class="k"/>
  <path d="M291 235h3-3z" class="f"/>
  <path d="m9 39-1 3 1-3z" class="j"/>
  <path d="m129 206-1 2 1-2z" class="k"/>
  <path d="m593 172-1-1 1 1z" class="h"/>
  <path d="m148 157 1 1-1-1z" class="f"/>
  <path d="m592 169-1-1v1z" class="h"/>
  <path d="m26 18-1 1 1-1zm-1 1-1 1 1-1z" class="f"/>
  <path d="M119 253h1-1zm-2-1h1-1z" class="k"/>
  <path d="M624 250v-1 1zm-335-8v-1 1c1 0 0 0 0 0z" class="f"/>
  <path d="M718 53c1 0 1 0 0 0z" class="j"/>
  <path d="M426 224c-3 0-6 0-8-3-1-2-3-1-6-1l-3-3-4-1c1-6-3-11 1-17 3-5 3-12 2-19l1-21v-5c0-5 1-10-2-14-2-1-3-4-4 0-1 2-2 3-4 1l-1-17-1-1c-3-2-5-2-7-1a283 283 0 0 1-42-1h-9c-2 1-3 0-3 3 6 16 5 32 3 48l-1 14v16l-1 6v2c1 2 2 2 3 2 17-1 33 0 50 1 4 0 7-1 7-6l3-12c-6 3-12 4-19 4h-17l-4-1c-4-3-2-7-2-10v-10c0-4 2-7 7-6 5 0 11-2 17 1 2 1 3-1 3-2l-1-11c-1-2-2-1-4-1h-20l-2-1v-17c-1-2 1-4 4-4 10 1 21-3 32 0l2 1 4 4c-3 4-7 4-11 2l-11-2h-3c-3 4-7 4-12 6v4c0 3 2 2 4 3h4l-1-1c-1-1-1-3 1-4 7-4 16-1 18 7v20c0 3-1 6-5 6l-4 1c-3 2-5 1-5-3 0-2-2-3-4-4-2 0-3 1-4 3-1 4 0 8-3 12 5-2 9-1 13 1l3-1 8-1c2 1 3 1 4-1 2-5 4-5 8-2l2 1c3 1 3 3 3 6l-1 4c-1 4-2 7-1 11 1 3-2 5-4 8l-2 3c-9-4-19-2-28-2-5 0-11-3-16 1l-2-1c-4-5-9-3-14-3-4 0-8-2-11 3l-2-2c-1-1 0-2 1-3 1-3 0-4-1-5l-14-20-1-2-1-1v-1l-1-1-1-2-1-1c-1-3-1-5 1-8l1-1 2-1 1-1 1-1 1-1 1-1v-2c6-8 8-17 5-28l-2-4-1-2-1-1v-1l-1-1-1-1-3-4 1-1c3-2 5 0 6 2l6 7 2 7 1 3c4 2 4 5 0 9-1 2 0 5 2 8l5 3c1-6 4-12 2-18-1-2-1-5-3-7l-2-5 1-3v-2c-2-9 0-11 9-10l1 1h5l6-1h10c3-1 5-2 8-1 7 2 14 2 21 1 4-3 7-2 10 1l4 4 4 9c0 1 1 0 0 0 0-2 0-3 2-4h2l1 3 1 5v66l-1 5v6l1 2h16c2 0 2-3 2-4l-1-14v-36l1-5c3-1 4 2 5 4l2 2v1l8 13c3 7 6 13 10 18l3 4 1 2-1 2c-2 3-4 2-6 0-5-7-10-14-12-23 0-3-2-6-5-8-2 2-1 3 0 4 2 4 2 7 0 10-1 2-2 4-1 7l1 17c-1 4 1 6 2 9l1 3-1 4h-3c0-2-1-5-3-5-3 1-6 2-7 6z" class="l"/>
  <path d="M580 116c-5 1-10 2-14-1h-4c-2 1-3 2-4-1s-2-1-3-1c-2 1-3 2-3 4l2 2c0 1 2 3 1 5l-3 1c-2-1-5 0-5-4l-1-3c0-3 0-5-4-5-2 0-5 0-5 4 0 2-3 3-4 6-1 2-2 0-3-1l-4-1c-2 1 0 2 0 3 0 4-3 3-4 2-5-5-8-3-11 3l-3 1c-2-1-1-3 0-3 2-2 2-3 1-5s-3-3-5-2c-2 0-3 0-4-2l-5-2c-1 2 1 3 1 5-3 3-7 1-11 1-3 0-3-2-3-4l-4-4c-1-1-2-3-3 0 0 2-1 3-3 2-3 0-3 1-3 3 1 2 0 5-2 7-2 1-1 3 0 5l-2 7c-3 2-4 1-5-2-1-5-5-8-9-9-3-1-7-4-10 0l-4-3-1-1v-1l-1-1c-3-3-6 0-10-1l-3-2h-3c-4-4-7-16-5-21 3-1 5-1 6 1 4 3 9 4 14 6h1c7 4 14 4 20 3h18l4-2 2-1c2-1 4-1 4-4l1-5c0-4 1-5 5-5h6l4 3c1 8 6 11 14 12l12 1 3 3c2 2 3 1 5-1 3-3 8-4 12-4 4 1 5-1 6-5 2-2 7-1 7-6l2-2h8l1 2-1-2 1-2c3-1 5 0 7 1 3 3 1 6-1 10-1 1-3 2-2 4s2 3 4 2l2-1 2 1c1 4 2 7-1 10z" class="m"/>
  <path d="M667 15c18-6 34-3 50 6l5 4c1 8-2 15-5 23l-2 2-1 2v1l-1 2-1 2v2l2 2 1 1 1 1 3 2-1 2c-1 0-3-1-4 1l2 4c4 5 8 10 5 18h-1c-1 0-2-1-2-3l-1-5-2-5-1-1-1-2c-4-6-10-9-16-12l-17-10c-4-2-6-4-6-9 5-6 7-6 14-4 2 1 4 2 7 1l6 2c4 3 4 3 6-2l1-5c2-5 2-7-4-8l-20-5c-10 0-18 3-25 10-1 1-3 3-3 5v1c-3 2-4 4-4 6 0 4-3 5-4 9l-1 1h-1l-1-1-1-2a44 44 0 0 0-44-24h-15c-2 0-5 0-7-2-1-5 2-5 5-5 2 1 4 2 7-1h-21l-9 4h-3c-4-1-7 1-8 4h-3l-3-5c-3-2-3-4 0-7h2l6 2h10c5-3 10-2 16-3 11 0 23 0 35 2 9 1 18 5 27 10l1 1c4 4 5 4 8 0l5-6c4-3 8-7 13-7z" class="n"/>
  <path d="M651 103h-1c-2-2-6 0-6-2-1-3 3-2 5-3 1-2 3-4 1-6s-3 0-5 2l-6 6c-2 1-2 3-1 5 2 4-3 4-4 4-6-5-13 0-20 0v-1c2-4 6-3 8-5 13-4 20-13 25-25 4-5 5-12 2-16l-2-3-1-3 1-2c2-1 4-4 7-3 2 1 3 4 4 6 0 2 0 5 4 4l2 1 3 2 1 1c1 3 4 2 6 3h1l4 2h1l3 2 1 1 1 2c6 2 9 6 9 12l1 3c1 4-2 4-4 5-6 2-11 0-16-2-6-2-9-6-15-9-2 0-2 2-2 4l-5 13-2 2z" class="o"/>
  <path d="m568 139 10 24 2 6v6c-2 2-4 0-6-1l-5-1h-3l-5-1-2-1-5-19-2-2c-2 1-2 4-4 6-2 1-3 2-3 4s-2 4-4 6l-3 1c-4 0-5 3-7 5-3 0-5 0-5-3l2-7 1-2v-2l1-1v-1l1-2 1-1v-3l1-1 3-2c1 0 2 0 1-2-1-5 1-8 6-9 2 0 3-2 5-3 6-2 12-2 18 1l1 4 1 1z" class="p"/>
  <path d="m435 208-1-18c-1-3 0-6 2-8s2-5-1-8l-1-2c0-2-1-5 2-6 2-1 4 1 4 3l5 13c1 4 2 10 7 12 2 1 2 3 3 5s2 3 5 1h2l2 3-1 2-4 1c1 0 3 0 4 2l-1 5c1 5 1 9-4 12v3c1 6-3 7-7 8l-3-1 1-2c3-2 2-5 2-8-3 4-8 1-11 2-2 1-2-1-2-3 1-1 2-2 0-4v-3c2-3 6-4 8-6l-6 2c-2-1-4-2-5-5z" class="c"/>
  <path d="M702 111c0 2-1 4-3 4s-3 1-3 2c0 2-1 3-3 3s-6-3-4 3c1 1-2 1-3 1-1-1-4 0-3-3s-1-4-3-2c-4 3-8 2-12 1 0-3 2-2 3-2l2-3c-1-2-2-2-4-2l-4 3c-2 1-4 3-6 0-1-2-2-2-4-2-4-1-5-3-4-7l5-2c4-1 8 1 11 2 10 4 21 6 32 3l3 1z" class="o"/>
  <path d="M715 120h-1l-2 2c-9 4-19 8-30 7s-22-3-33-7c-1-1 0-2 1-2 9 2 18 5 28 6 7 0 14 0 21-2l2-1h1l1-1 7-4 1-1 1-1 5-3 1-1 1-2 1-1 2-2v-1l2-1 2 1c-1 4-5 7-8 11l-1 1-1 1-1 1z" class="q"/>
  <path d="M566 134c-5 0-9-2-14 0-3 1-5 0-6 4h-2c-2 0-4-2-4 0-1 3-4 6 0 8l1 3c-1 2-2-1-2-1l-6 2c-1-4 2-6 3-10 2-4-1-8 1-12 8-3 17-1 26 0 2 1 2 3 3 6z" class="r"/>
  <path d="M588 239h-7c-3-1-4-2-5-6-2-7-4-15-4-22-1-2-2-4-4-4l-26-4c-4-1-6 0-6 5-1 6-5 12-7 18-3-4-1-8 0-13l2-11c1-3 2-4 5-4 11 3 21 3 31 5 2 1 5 1 7 3 3 9 4 18 5 28 3 3 7 1 9 5z" class="s"/>
  <path d="m710 107-3 1-1 1c-10 3-20 3-29 0-3-5-6-5-10-3-3 0-6-1-8-3 3-3 6-7 12-6l3 2c1 1 3 3 5 2h2c4 2 9 2 13 1l1-1 6 2 10-4c1-1 3-1 4 1v2c-1 2-2 4-5 5z" class="t"/>
  <path d="M483 121h12c7 0 7 0 6 6l-2 8v81c1 3 0 6-4 8v-4l1-15-1-37v-31l2-10-1-2c-7 0-13-2-19-1l-3 1-3-1c3-5 5-6 12-3z" class="u"/>
  <path d="m531 213-2 13h-8c-4-1-9-1-12-3-2-4 2-7 3-6 4 0 2-1 3-3 7 0 8-6 10-11 1-3 3-4 6-2v11z" class="v"/>
  <path d="M515 214c-1 3 2 3 5 4-4 1-9-1-12 4l-4 3-2-1v-1c0-3 2-4 4-7l3-6 1-1 1-2 1-2 3-8 1-1 4-9c3 0 3 3 5 5l-1 4c-4 2-5 5-5 9s-1 7-4 9z" class="w"/>
  <path d="m650 120-1 2-2-1c-8-4-16-2-24 0-11 3-21 2-32 2l-3-1c0-2 1-2 2-2l18 1 8-1 18-6h4c3 3 7 4 12 6z" class="i"/>
  <path d="M715 101c-1-1-2-3-3-1-3 4-7 3-11 4l-1-4 1-1 2-2 1-1 1-2v-4l8-5c2-2 4 0 6 2v2l1 1h-1v4l-1 1-1 2v3l-2 1z" class="x"/>
  <path d="m659 102 8 3c3-1 6 0 8 2 10 2 20 4 31 1l-1 2h-1l-2 1c-12 3-24 2-36-3l-9-2c-2-1-3-1-3-3 1-3 3-2 5-1zm-36 2c-2 2-6 2-9 3h-4c-5 3-10 3-16 0l-5-1c-3 2-6 2-9 0h-1l-1-1c-1 2-1 0-2 0l2-14c3-1 4 2 5 4l1 4 1 2 23 2h8c2-1 5-1 7 1z" class="y"/>
  <path d="m592 198 10 23c-5 2-7 2-9-2l-5-12c-2-4-2-8-1-12 2-1 3 0 4 2l1 1z" class="z"/>
  <path d="M580 106h9c1 4 4 6 7 7 1 1 2 1 2 3 0 1-1 2-3 2h-5c-2-3-6-2-10-2v-10z" class="o"/>
  <path d="M524 192c-3 0-2-3-3-5l-1-1 1-3 1-2c0-4 1-7 3-11v-1l1-1c1 2 2 3 5 3v10c0 5-3 8-7 11z" class="z"/>
  <path d="M588 239c-3-2-6-1-10-3 0-2 2-3 4-3 3-1 5 0 7 1l6 1h4l6 2 3 1c2 0 3 1 4 3 2 2 0 1-1 2l-15-2-6-2h-2zm-92-18-1 3h-6l-9-1h-1l-4-1a129 129 0 0 1-7-2l-1-2c2-4 5-1 8-1h3l3 1 15 3z" class="A"/>
  <path d="m616 120-5 1h-22l1 1-23-1v-2c16-1 33 3 49 1z" class="B"/>
  <path d="m622 116-16 3c-2 0-3 0-4-2 0-2 2-2 3-2 4-1 9-1 13-4 2-1 5 2 4 5z" class="o"/>
  <path d="M520 225c2 0 5-1 8 1v1c-3 4-6 3-10 4l-3-1c-3-1-7 0-10-3-1-3 1-4 4-4l10 3h1v-1z" class="A"/>
  <path d="m613 241-5-2-3-1-7-1-1-1h-1l-1-1v-2c2-2 4-2 5-1l3 2v-4l1-5 9 16z" class="z"/>
  <path d="M652 107c0 3 0 6 5 5 2 0 3 1 2 4l-3 1c-3 2-6 1-8-2-1-2-1-3 1-5v-3l1-1 2 1z" class="m"/>
  <path d="M594 107h16c0 2 0 4-2 4h-10c-2 0-3-1-4-4z" class="o"/>
  <path d="M726 100c-2-1-3-2-3-4-1-1-3-4 2-4 2 0 1-1 1-2V76c3 1 2 4 3 6v8c-1 4 0 7-3 10z" class="k"/>
  <path d="M725 101c2-3 2-6 3-10h2c1 5-1 10-4 15h-3v-1l1-2 1-2z" class="C"/>
  <path d="M536 127c2 4 3 8 0 13 0-2 0-5-3-7v-3l3-3z" class="D"/>
  <path d="M730 91h-2c0-5 0-10-2-15v-1l1-3c4 6 4 12 3 19z" class="g"/>
  <path d="M711 118h-1c-2 0-4-1-3-3 0-2 3-2 5-4 1 0 3 0 4 2l-4 4-1 1z" class="m"/>
  <path d="m591 197-3-2c-2-1-2-3-2-5-1-4-4-8-4-12l1-1 8 20z" class="E"/>
  <path d="M466 234c0 2-1 3-3 3l-3-1 2-4c2-1 3-1 4 2z" class="c"/>
  <path d="M468 217v3c-2 0-2-2-2-4v-5l-1-2-2-4v-2c6 2 8 8 5 14z" class="u"/>
  <path d="m463 205 2 4-2-1-5-1c-1 0-3 0-2-2 0-1 1-2 3-1l4 1z" class="l"/>
  <path d="m649 110-1 5c-2 1-4 2-4 0-1-3 1-5 5-5z" class="o"/>
  <path d="m536 140-3 10-1 3h-1c0-5 1-9 5-13z" class="u"/>
  <path d="m579 170-1-6c3 4 4 8 5 12v1c-4-1-3-4-4-7z" class="E"/>
  <path d="M652 107h-1c-1-1-2-1-1-3v-1l2-2 2 2 2 2-4 2z" class="f"/>
  <path d="M505 227c3 2 6 1 10 3-4 0-8 1-11-3h1zm13 4c3-2 6-2 10-3-2 5-6 3-10 3z" class="k"/>
  <path d="m527 167-1 2c-1-4 1-7 2-10h1v2l-2 6zm-7 19v1l-4 9c0-4 1-7 4-10zm5-16c0 4-2 7-3 11-1-4 1-7 3-11zm-45 53 9 1c-3 2-6 0-9-1z" class="u"/>
  <path d="m710 107 5-5c0 3-1 5-5 5z" class="F"/>
  <path d="M506 216c0 3-2 5-4 7 0-3 1-5 4-7zm3-6-2 6c-1-2 0-5 2-6zm6-13c0 3-1 5-3 7 0-2 0-5 3-7z" class="u"/>
  <path d="m650 104 1 3h-2l-2-1c0-1 1-2 3-2z" class="o"/>
  <path d="M712 117c0-2 1-3 4-4h1l-5 4zm6-50 1-2 2 3v1h-2l-1-2z" class="k"/>
  <path d="M590 240c2-1 4 0 6 1l-6-1z" class="s"/>
  <path d="M466 211v5-5z" class="l"/>
  <path d="m530 158-1 1c0-2 0-4 2-6v3l-1 2z" class="u"/>
  <path d="M716 100v-1c2 0 3 1 2 2h-2v-1z" class="k"/>
  <path d="m701 123-1 1c-1-1-2-2-1-3s2 0 2 1z" class="n"/>
  <path d="M719 94v-3 3z" class="F"/>
  <path d="M567 137c-3 1-1-1-1-3l1 3z" class="r"/>
  <path d="m721 69 2 2h-2v-2zm1 38-1 2c-1-1-1-2 1-3z" class="k"/>
  <path d="M721 69v2c-1 0-2 0-2-2h2z" class="n"/>
  <path d="m614 109-1 1 1-1z" class="o"/>
  <path d="M475 223h4l-4-1zm237-101 2-2-1 2h-1z" class="u"/>
  <path d="m705 110 1-2h1l-2 2z" class="F"/>
  <path d="m719 110-1 2c-1-1 0-1 1-2z" class="k"/>
  <path d="m717 97 1-2-1 2z" class="F"/>
  <path d="m521 183-1 2 1-2z" class="u"/>
  <path d="m702 111 2-1-2 1z" class="F"/>
  <path d="m602 221 1 2-1-2z" class="z"/>
  <path d="m511 207-1 2 1-2z" class="u"/>
  <path d="m725 101-1 2 1-2z" class="k"/>
  <path d="M716 100v1l-1 1v-1l1-1z" class="F"/>
  <path d="m504 227-1-2 1 2z" class="k"/>
  <path d="m603 223 1 2-1-2z" class="z"/>
  <path d="M502 224h1v1l-1-1z" class="k"/>
  <path d="M493 224h1-1zm-25-4 1 1-1-1z" class="u"/>
  <path d="m554 254-1-1 1 1z" class="f"/>
  <path d="m592 198-1-1 1 1z" class="E"/>
  <path d="m512 205-1 1 1-1z" class="u"/>
  <path d="m724 103-1 1 1-1zm-1-31 1 1-1-1zm1 1 1 1-1-1zm-1 32v1h-1l1-1z" class="k"/>
  <path d="M720 90h1-1z" class="F"/>
  <path d="m568 139-1-1 1 1z" class="r"/>
  <path d="m720 109-1 1 1-1z" class="k"/>
  <path d="m703 122-1 1 1-1z" class="n"/>
  <path d="M293 197c-4 0-4-4-7-6-1 0-2-2-3-1-2 0-2 2-1 3l-2 2c-6-2-5 2-5 6v4c2 2 1 4 2 6v6c2 6 1 7-6 7-4 0-9 1-14-1 3-4 7-3 11-4 1 0 3 2 5-1-2-7-2-14-2-21v-51c1-8 3-10 11-11 4 0 9 0 14 3 3 0 3 3 5 5 1 6-1 11-3 17l-2 1c-4 5-9 7-14 9v2l2 3v1l7 14 3 6-1 1z" class="k"/>
  <path d="M310 122v1c-3 2-5 0-7 0h-21l-22 2c-2 0-4-1-6 1v16l-1 13-1 18v25c0 6-1 11-3 17v4l5 4c-1 2-3 4-5 2-3-3-5-1-9 0l-2-4-1-2c-1-3-4-5-2-9 9 1 9 0 11-9 1-8-1-14-2-21l1-11c2-6 3-11 3-18 2-8 2-15 0-23-1-5 0-6 6-8h3c2 1 4 0 5-1l12-1h21l3-1c5 0 9 1 12 5z" class="k"/>
  <path d="M161 239h-1l-4 2-16 3c-5 2-10-1-15-2 3-4 7-4 11-5l16-3 2-2v-3l1-2v-2l1-3 1-3 1-2v-1l1-3 1-4 3-4a101 101 0 0 1 16-2l7-1 3-1h9c2-1 4-1 6 1-3 4-7 4-11 5l-15 1c-8 2-10 4-12 11-1 7-2 13-5 20z" class="A"/>
  <path d="m161 239 3-17 4-13c0-2 2-1 3-1 10-3 20-2 29-4l3-1c4 1 4 3 5 5l3 16v4c-3 0-3-2-3-4-2-3-1-8-6-10v-4c0-1 1-3-1-4l-5 1-1 1c-3 2-5 9-11 3-2-3-7-2-10 2s-6 8-7 14c-2 4-2 9-6 12z" class="k"/>
  <path d="M409 180c3 7 0 13-1 20l-2 3c-2 2-3 4 1 6 2 0 2 1 0 3l-2 4-6 2c-2 0-2-1-1-2 4-3 5-5 3-9-1-3 1-5 1-8 1-1 3-2 1-4 0-2 2-3-1-5-2-5 0-8 7-10z" class="d"/>
  <path d="M126 241c7 3 14 2 22 0 4-2 7-2 12-2 0 3-2 4-3 6 0 3-3 3-4 1-3-3-7-3-10-1s-6 2-10 0l-7-1c-3-2-4-4 1-6 0 1 0 2-2 3z" class="k"/>
  <path d="M254 223c-2 0-5 0-6-3 4-5 9-3 14-4h7l6 2c0 4-2 3-4 3-4 0-9 0-14 2h-3z" class="A"/>
  <path d="M135 217c1-1 4-1 3-3-3-5 1-5 5-6l1 1c-3 9-6 18-14 25 0-4 2-7 1-10 0-2 0-3 2-3s2-2 2-4zm105 8c0 2-2 3-4 3-4 0-7 3-11 3l-4 1c-2-1-3-1-4 2-1 2-2 2-4 2l-1-2c0-2 3 0 3-2s-3 0-4-2v-1l26-5h2l1 1zm86-12-2 4-15 1h-4l-2-1c-2-2-1-5-4-6s-2-3-2-6c2-2 3 0 4 1l3 5c2 4 4 4 7 3 5 0 9-2 15-1z" class="k"/>
  <path d="m298 203 1 8c-4 0-7-5-5-9h3l1 1z" class="l"/>
  <path d="M297 202h-3l-1-5c3 0 4 2 4 5z" class="k"/>
  <path d="M277 211c-3-1-2-3-2-5 3 1 2 3 2 5zm0 6v-5 5z" class="l"/>
  <path d="M409 217c2 0 3 1 3 3-1 0-3-1-3-3z" class="d"/>
  <path d="m219 238 1-1 1 1h-2z" class="k"/>
  <path d="M333 219v-1h1c0 1 0 2-1 1zm-30-2 2 1c-1 1-1 1-2-1z" class="l"/>
  <path d="M129 236c-1-1-1-2 1-2 1 1 0 2-1 2zm-2 2 1-2c1 1 0 2-1 2z" class="k"/>
  <path d="M308 218h1-1z" class="l"/>
  <path d="M291 200z" class="k"/>
  <path d="M249 151c1 6 1 12-2 17-3 6-1 11-1 17 0 2 3 3 3 4-2 7 0 14-4 20-3 6-5 6-10 1l-4-10c-3-6-6-13-5-21 0-3-2-5-3-7-3-6-6-12-5-19 1-3-2-1-3-2l-1-2c-2-8-3-17-7-25l-4-2c-1-3-2-3-5-2-6 2-6 1-6-6-2 2-4 3-7 1 1-4 3-6 6-5 11 3 21 1 32 2 4 0 9 1 14-1 2-1 5-1 6 1 2 3 3 3 6 1 4-3 11 0 11 5l-2 4h-3c-4-2-7-1-7 2 1 9-2 18 1 27z" class="c"/>
  <path d="M159 111c-11 2-18-7-19-17 0-2-1-3-3-3-6 0-8-2-8-7l-1-3c-2 0-2 2-2 3 1 6-2 12 2 17 2 2-1 3-2 3-3-1-4-3-4-5V69l2-5v-7l1-4c0-1 2-1 0-2-1-3 0-5 1-7 3-3 7-3 10-5 3-1 5 0 6 2s-1 5 2 6c2 2 1 4 0 6v4l-2 3-5 2-3 1h-2c-2 1-2 2-1 4 0 1 0 2 2 3v1l2 2 1 1 1 3 8 17c2 7 7 9 14 10l12-2c4-3 4-6 3-9l1-11c0-3 1-6-1-9v-4c2-3 1-7 0-10-1-4 0-8 2-11 1-4-3-7-2-11 1-2 2-5 5-5 3 4 2 9 3 14v10c-2 15-1 28-1 42-1 1 0 2 1 3 9 1 17-1 26-1h14l6-1 1-3 1-9v-7c2-2 4-2 5-1l6 4v16c-6 4-11 9-18 11l-8-1c-4-3-8-3-12-1h-30l-14 3z" class="G"/>
  <path d="m125 112 2 4c1 0 2 1 2 3l-3 1c-10 3-19 1-29 2l-2-1c-2-2-3-4-5-1-2 2-5 1-7 2l-1 1-4 1H60c-3 0-7-2-11 0h-3l-7-7c1-4 3-5 7-5h24c3 0 5-1 8-3h2l4-1c2 0 4 2 6 0s0-4 0-6l2-6c0-5 1-10-1-16l1-4c6-1 6 4 9 6l1 3c-1 2-4 4-1 6l1 3v4c0 2-1 3-3 3-2 1-1 3-1 4 0 2 1 3 3 3h12c5-1 9-1 12 4zm55-5h22c4 1 8-2 13 1l8 1 10-4c2-2 4-1 6-1l2 1c2 2 2 6 6 3l2-2h3l4 2 4-2 3-1 4-1 4 1 8 1c7 3 13 3 20 0 5-2 7-2 10 4-2 7-8 10-13 6-4-3-6-3-9 1h-3c-2 1-4 0-7-1h-3c-3-2-6-3-8 1l-4 2h-3c0-1 2-4 0-4-4 1-6-4-9-1l-3 4c-2 1-3 1-4-1-1-5-5-7-9-3-2 2-3 1-6 0l-13-1c-7 1-14 1-21-1-4-2-6-1-9 3l-4 2c-3 2-5 2-9 0v-1l1-4 1-1h2s-1 0 0 0q1 0 0 0c0-3 2-3 4-4z" class="m"/>
  <path d="M125 62v1l-1 4c0 12-1 25 1 37v2c0 2-1 3-3 2h-21v-3l4-2h4l6-1h2c1-1 2-1 2-3l-2-9v-4c1-2 2-3 4-3v11h1v-1c-1-5 0-10-2-16-3-6 0-11 0-17l1-3v-5l1-8v-2l-1-4 2-3a12 12 0 0 1 4-1h10c5 0 8 3 10 7l-1 4-1 1-3-4c-2 0-2-3-5-3l-6 2c-2 0-4 0-4 3l-1 7v5l-1 6z" class="H"/>
  <path d="M96 121v1c2 4 5 2 7 2a755 755 0 0 0 31-3c2 3 0 3-2 4-11 0-22 3-33 2-2 0-4 0-5-3l1-3h1z" class="I"/>
  <path d="m207 124 3 2 5 23c-3 0-3-3-4-5l-3-14c-1-3-3-4-7-3-7 0-13 1-20 3-3 1-3 4-5 5-1-8-1-7 7-9s15-2 24-2z" class="k"/>
  <path d="M46 123h2c5-1 11 2 17 1 2 1 5-2 4 3H52c-9-1-16-4-23-8 2-2 4-1 6 0 4 1 8 1 11 4z" class="B"/>
  <path d="M176 111h-6c-3-1-2 2-3 4-2-2-4-5-8-4l1-3c7 0 13-3 20-1 0 2-3 2-4 4z" class="J"/>
  <path d="M166 161c-3-3-2-5 0-8 3-3 5-7 3-12-1-1 0-2 1-2 3 0 3-2 5-4 2 2 1 4 0 6-2 6-4 13-8 19l-1 1z" class="k"/>
  <path d="M102 107c8 0 15 1 23-1l2 2v3l-2 1c-4-3-9-3-14-2l-9-1v-2z" class="G"/>
  <path d="M69 127c1-3-2-1-3-2-1-3 1-1 2-1l7-1h3l4-1 3-1 6 3-8 2-2-1s0 1 0 0l1 1c-4 1-8 2-13 1z" class="I"/>
  <path d="M172 117h8l4 1c1 0 2 1 1 2s-2 3-3 0l-21 1c-2-1-4 0-6-2 5-3 11-2 17-2z" class="k"/>
  <path d="M28 119c-4-3-9-5-12-10l2-2c5 2 8 5 11 9v2l-1 1z" class="B"/>
  <path d="M148 198c2-9 6-16 11-24 1 5-3 9-4 14l-3 6v1c-1 1-2 3-4 3zm11-24v-3c-4-5-2-7 2-8l4-2c1 5-2 9-5 13h-1z" class="k"/>
  <path d="M155 119h26l-1 1c-8 2-16 2-25 1v-2z" class="K"/>
  <path d="m6 92 1-1c3-1 3 1 4 3s3 4 3 7l-2 2c-3-2-4-5-6-9v-2z" class="D"/>
  <path d="m155 121 25-1c-8 3-16 2-25 1z" class="k"/>
  <path d="m12 104 1-2c2-1 2-1 4 2l1 2v2l-2 1-4-5z" class="L"/>
  <path d="m92 124-6-1c2-3 5-4 9-2l-1 3h-2z" class="B"/>
  <path d="m148 198 2-3c3 3 2 6-3 9l-1-1v-1l1-2 1-2z" class="w"/>
  <path d="M170 111c1-3 3-3 5 0l-1 1h-3l-1-1z" class="G"/>
  <path d="M171 112h3c0 1 0 3-2 4-1-1-2-2-1-4z" class="J"/>
  <path d="M82 126c-2 0-4 1-6-1 3-1 4-1 7 1h-1z" class="B"/>
  <path d="M57 127h10-10z" class="I"/>
  <path d="M143 208c0-1 0-3 2-4l1 2-1 1-1 1h-1z" class="k"/>
  <path d="m134 121-1 1c-1-1-2-3 0-3 1 0 2 1 1 2zm-7-10v-3c2 1 3 1 0 3z" class="m"/>
  <path d="M6 92v1l-1-2 1 1z" class="M"/>
  <path d="M52 127h2-2z" class="I"/>
  <path d="m147 200-1 2 1-2zm1-2-1 2 1-2zm-2 5-1 1 1-1z" class="k"/>
  <path d="M63 152h-1 1z" class="f"/>
  <path d="M18 108v-1l-2-1-3-4-5-11-2-20c0-17 6-31 17-44v-1h1C45 8 69 9 93 18c2 1 3 2 4-1 0-2 2-1 3-1l31-2c1-2 4-2 6-2a63 63 0 0 1 21 3l1 1c4 5 7 1 10 0 7-3 14-1 21-2l31-1h32l21-1 59-1c4 0 7 1 9 4 1 1 1 2 3 1l7-5c10-2 20 0 29 1 5 1 7 5 8 10v5l-2 7c-3 7-7 13-12 18l-4 7 2 2c5 1 5 2 3 6-1 2-3 3-1 6 1 2 0 3-2 3l-6 2-4-1c-4-5-9-9-12-16l5-7c2-1 3-3 3-6 1-4 5-6 7-9 2-2 4-3 5-6 4-11 4-10-7-11-4 0-7 2-9 6-3 7-7 13-13 19l-3 1-1 2-2 2-4 4h-3l-2-1c1-9 1-18 3-26 0-4-1-6-5-6l-7 1h-7c-3-1-3 0-3 3l1 3 1 5 1 26v3c-2 3-1 6-1 10l-1 9v6l-1 9c0 3 2 2 3 2h14l3-2c1-2 0-3-1-5V80c4-3 4-8 8-10 3-1 4 1 5 4l1 2 2 3 1 2c0 3 1 5 4 6 4 3 5 7 8 11l1 2c3 3 5 4 9 1 3-2 7 0 11-1l3 4h2v-2l-1-2 2-5c5-1 13 7 12 11-1 3-3 4-6 4-5-1-9 0-13 1-9 1-18 3-26-2-3-1-6-3-4-7-3 5-7 9-13 6-1-1-3 0-3 1-3 3-7 3-11 2-3-1-7 2-11 0-3-6-3-6-9-3-7 2-13 3-20-1 2-4 5-3 8-3 8-1 8-1 8-9V81l-2-1c-9 6-20 4-31 5-4-4-4-9-1-15 2-5 5-4 9-3l8 2c2 0 4-1 4-3 1-3 2-7-1-10-4-2-8-1-11-1h-7c-2-5-2-9-1-13 0-3 3-4 5-4 8 0 16-1 24 1 2 1 3 0 3-2V25l-2-1h-5l-15 1-17-1-11 1h-2l-1 3c-2 2-1 4-2 6 0 4-1 8 4 10v7l-4 1c-2 0-3-1-3-3 0-3-3-3-5-3-3-2 0-4-1-6V25h-14l-11 1c-3 0-6-2-9 0h-18v1l1 4c-3 5-7 9-1 14v3c-6 5-2 10-1 15v3c-4 3-1 6 0 10 1 3-1 6-1 9-1 5 1 10-1 15 0 2 0 3-3 3h-1l-4-3-4-5-2-5-1-2c-3-6-8-10-11-17-1-4 2-6 4-7 3-3 7-5 9-10 1-5 3-9 0-15l-1-2a17 17 0 0 0-3-5c-5-5-11-7-18-7h-24c-1 0-1-2-2-1l-3 1c-1 0-1-2-2-1l-1 1c-4 3-2 4 0 6l1 1 1 5v4l-2 1c-3 0-4-2-5-3h-2v2c3 2 4 5 3 8s0 7-3 7c-4 1-8 4-13 0l-3-2c-4-3-7-1-7 4l-1 3c-3 2-6 1-9 2l-2 1c-4 1-6 2-6 6 0 3-4 4-7 5 2 2 4 4 2 6 0 2-1 3-2 3-2 1-3 0-4-2-1-1-1-3-3-3 2 2 3 5-1 6h-2l-1-1-3-4v-1l1-10c1-3 3-6 3-10 0-2 2-4 5-4s6-2 8-4c3-3 5-4 8 0 2-6 5-8 11-6l8-2h2l2 2c0 1 0 2 1 1l1-3 1-2v-1l2-2 1-2c0-2 1-4-1-6-15-10-43-10-56 2-6 6-10 12-14 20l-1 1v1l-1 1c-2 1-3 2-2 4l-1 10v3c-2 2-3 3-1 6l1 4c-1 13 7 20 17 27l1-1 2-1 3 1 1 1c2 5-3 6-5 9l-1 1-6-2-11-9z" class="J"/>
  <path d="M158 17c-8-2-17-4-27-3h-26c-1 0-3 1-5-2 1-1 2-2 4-1l16-2h7c8-2 16 0 24 1 5 0 8 1 12 4 1 2 2 3 1 4-2 1-3 0-5-1h-1z" class="N"/>
  <path d="m33 14 2-1-2 1z" class="f"/>
  <path d="M23 26v1-1z" class="g"/>
  <path d="M712 59v-2 2zm0-2 1-2-1 2zm2 4-2-1 2 1zm1-11 1-2-1 2zm-2 5 1-2-1 2zm1-3 1-2-1 2zm1 10-1-1 1 1zm1 1-1-1 1 1z" class="k"/>
  <path d="M667 14c-4 3-9 4-13 8-2 0-2-1-2-3 4-4 8-6 14-8 1 1 2 2 1 3z" class="O"/>
  <path d="M675 8c3-2 7-1 10-1-2 2-6 1-10 1zm-3 1 2-1-2 1z" class="i"/>
  <path d="m717 118 1-1-1 1zm-2 2 1-1-1 1zm1-1 1-1-1 1z" class="u"/>
  <path d="M640 24c2 0 2 4 4 0h3l3-3 2-2c0 1 0 2 2 3l-7 9c-3 4-5 0-7-2v-5z" class="i"/>
  <path d="m366 77 9-3c-7-3-2-5 0-8s1-4-3-4v-3l1-2 4-1 7 1 1 2q0 1 0 0v-5c0-2 0-4 3-5 2-1 4 0 5 2l1 2c-5 3-1 6-1 9v4l-1 2c-2 1-5 1-4 4 0 3 1 5 4 6h2l1 1 2 3v1l1 2v1l1 2 1 2 1 1v1l1 1 1 1 1 1 1 1 2 2c3 2 3-1 2-2 0-2 0-5 3-7 5 1 4 4 3 8-1 7 1 14 5 20 0 4-1 4-6 3-3-1-4 0-4 4l1 1c-2 3-2 5-1 7l-1 2h-1c0-5-5-7-5-12 0-2-1-3-3-4-3-1-5-4-9-2-5 1-9 2-14 0h-8l-7 1-6-1c-2 0-3 0-5 2h-6l-1-2-3-1-1 3h-4c-2-1-4-2-5 0 0 2-2 5 0 7 1 1 3 2 0 3l-1 2c0 2 0 4 2 5 5 5 5 12 3 19v7l-1 3-3-1c-1-3-4-3-6-5-3-4-3-7 1-11 2-2 2-3-1-3-3-1-1-3-3-5 3-3 1-5-1-8l-6-6c0-2-2-3-5-3l-12-4-2 2-5-1-3 1h-2l-2-4 3-1c1-4 6-5 8-2 5 5 8 5 13-2 5-2 11-2 16-1 2 0 3 0 4-2s3-3 6-2c4 3 6 2 8-2l2-3c1-1 2-3 4-3 2 2 0 3-1 4-1 3 0 5 2 6l15 2 21-3 4 1c2 1 3 0 4-1v-4c-4-2-3-9-10-7l-1-1 1-2s2-1 1-2c-1-2-2-1-3-1h-4l-1-1-1-2c2-6 2-6-5-7h-2l-2-1v-2z" class="c"/>
  <path d="M409 180c-3 3-7 4-7 10l-3-1c-1-2-3-3-5-2s0 3 0 4c0 3-2 3-4 2-4-1-7-2-11 1-1 2-2 0-4 0-3-1-6-4-10 0h-3l-1-4c6-2 2-8 5-11 1-2 1-4 4-4s6 2 8 5c1 2-2 1-2 3l1 1c3-1 5-4 9-3l2-4c0-7 1-14-1-20-1-5-5-8-10-6-2 0-6-2-7 3l-3 1-6-3v-4c0-3 3-3 5-3 3 0 5-1 7-3 4-4 9-2 14 0 4 1 8 2 13 0 1-1 2-1 2-3 0-1-2-3 0-3 2-1 4 1 5 3 0 3 2 7 1 10 0 2 1 3 3 4l-1 18-1 9z" class="c"/>
  <path d="M399 121v14l-2 4h-1c-1-2-3-2-5-2h-30c-2 0-3 1-3 3l1 18v6c0 2-2 3-4 4l-1 1-1 1-6 2c-6 2-6 2-6 8 0 8-2 15-1 23 0 3 0 5 4 6l3 1c0 2-2 2-3 2-3 0-6 2-8-1l-1-2 1-6 1-15 1-40c0-8-1-16-4-24 0-4 3-3 5-3 14 2 28 1 42 1 6 0 11-2 17-1zm38 38-3-4c0-2-1-2-2-2l-1 2c0 5-2 9-1 14l-2 4c-2 0-2-2-3-3h-2c-4 1-4 5-7 6-2-2-2-5-2-8v-20c0-1 0 0 0 0 1-14 9-20 22-23h1l2 1 1 1 1 2 1 1 3 4 14 21 6 11c-1 1-1 2-2 1-5-2-8 2-12 4-6-1-9-6-13-10l-1-2z" class="P"/>
  <path d="M336 210c3 4 6 0 10 2-1-3-3-2-4-2-3 0-4-1-4-4l1-29c0-4 1-6 5-6l9-3c3 2 1 5 3 8-1 7 2 14 0 21-1 2 1 3 3 3h28l9-2c3-2 4-1 3 3v4c-1 9-1 9-9 9-18 1-36-2-54-1-3 1-2-1-1-3h1z" class="Q"/>
  <path d="m297 203-4-6c-3-7-8-13-10-21v-1l-1 1v-3l-1-2c0-3 3-1 5-1l10 1 5 4c3 1 4 3 5 6l2 3 1 1 1 2 14 20c1 2 0 4-1 4-6 2-11 4-17 3l-3-2-5-8-1-1z" class="z"/>
  <path d="M415 147c0 9-1 19 2 29 3 0 2 3 2 5-1 0 0 0 0 0-2 1-2 1 0 4 1 5-1 10 1 15 0 2 1 4 4 5 2-12 2-24-2-36 4-4 4 0 6 3-1-8 2-15 2-23l4 5c-2 0-2 1-2 2 0 16-1 32 1 48l1 2c1 9 1 9-8 9l-12-1c-5 1-4-1-3-4 2-3 1-5 1-8v-77c2 0 2 1 3 2l1 6-1 14z" class="R"/>
  <path d="M298 172c-4 1-8 2-11-1-1-3 1-4 2-4 3-1 5-3 6-6l1-1c3-5 4-10 4-15-2-3-1-7-6-8l-1-1v-1c2-6 7-6 12-7 3 2 2 5 2 7 4-2 4-2-1-6-1-5 2-4 5-3h2v1l1 1 1 1 2 3 2 4c1 10-2 19-8 27l-7 5c-3 0-4 3-6 4z" class="S"/>
  <path d="m415 147-1-19c0-1 0-2-2-2v1l-1-2c-1-1-2-2-1-4 2-4 5-2 8-1 6 0 12-1 17 1h1l1 1 1 4c-7 2-13 4-18 9-4 4-3 8-5 12zm-16 58c-2-2 0-4 0-7-3 1-5 4-9 2-2-1 0 1 0 1 1 1 0 2-1 2-9-2-19-1-29-1-6 0-6-1-5-7v-19c-1-1 0-2 1-2 2 3 2 7 2 11s-1 8 1 12h12l10 1c7-1 14-2 21-6l-3 13z" class="O"/>
  <path fill="#fefd96" d="M399 121h-4c-6 4-14 3-20 3-12 0-24 1-36-2l-5 1c-2-2-1-3 1-3h25l39 1z"/>
  <path d="M360 197c-3 1-3-1-3-2l-1-21c-2-2 0-4 2-6h6l16 1c4 0 3-3 3-5l2-5 1 20c-6-8-15-6-22-7-3 0-5 1-5 5 1 6-1 13 1 20z" class="U"/>
  <path d="M385 159v5c-1 1-1-3-3 0s-6 2-9 2c-5 1-10 2-15-2l1-6c8-1 16 2 24-2 2-1 2 1 2 3z" class="r"/>
  <path d="M302 167c9-3 12-11 15-19l2-12c4 11 2 21-5 31h-1c-2-1-3 1-4 2-2 1-3 3-5 2s-3-2-2-4z" class="V"/>
  <path d="M359 158c-2-1-2-2-2-4v-15c0-3 1-4 3-3h26l5-1c3-2 4 0 5 4-11-3-22-1-34-1-3-1-3 1-3 3v16z" class="U"/>
  <path d="m313 126-1 1c-7-3-12-4-19-3l-21 2c-5-1-11 0-17 1l-3-2c5-3 12-2 18-3l26-1c4 0 9 0 13 2l4 3z" class="W"/>
  <path d="M303 212c8 2 14 0 21-4 2 1 5 2 2 5l-17 3c-3 1-5-1-6-4z" class="V"/>
  <path d="M438 161c5 2 8 7 13 9 3 1 6 2 8 5 0 2-1 3-3 4-4 0-5-4-8-4h-2l-8-14z" class="R"/>
  <path d="M435 208c3 2 6 6 10 1 1-1 3-2 4 0 2 2 0 3-1 3l-10 5c0-3-4-5-3-9z" class="b"/>
  <path d="M369 116c1-2 4-2 6-2 5 2 10 2 16 2l-1 1c-7 1-14 2-21-1z" class="J"/>
  <path d="M411 153c-3 2-4 1-4-2v-12c5 3 4 8 4 14z" class="d"/>
  <path d="M396 139c2-2 1-5 1-8s0-6 2-9l1 19v1c-2 0-3-1-4-3z" class="i"/>
  <path d="M304 171c3-1 4-4 6-5 1-1 3-2 3 1v1l-1 1-2 2-2 1-1 1-6 3-4-4c2-1 4-2 7-1z" class="A"/>
  <path d="M446 175h1c2 0 3 1 4 3l1 2 1 2c1 3 5 6 5 10l-1 1c-5-5-8-11-11-18z" class="u"/>
  <path d="M340 118c1-2-4-2-2-4s4-1 6-1c2 1 2 3 1 5h-5zm12 0c-1-4 1-5 4-3l6 2c-3 2-7 1-11 1z" class="J"/>
  <path d="M321 131c3 0 4 2 5 4 0 2-1 4-4 4l-1-8z" class="m"/>
  <path d="M301 177c0-4 3-4 5-4v8c-3-1-3-3-5-4z" class="u"/>
  <path d="M361 152c2 0 4-1 6 2v2c-2 0-6 2-6-4z" class="m"/>
  <path d="m368 156-1-2h3l7 1c-3 2-6 1-9 1z" class="J"/>
  <path d="M337 188v15-15z" class="B"/>
  <path fill="#724247" d="M360 120h-13c4-2 8-1 13 0z"/>
  <path d="M400 118c2 0 5 0 3 4-1-1-3-2-3-4zm-70 12c-1 0-3 0-3-2 1-2 2-1 4 0l-1 2z" class="m"/>
  <path d="M381 198h-10l10-1z" class="Y"/>
  <path d="m403 195 2 2c0 2-1 2-3 2l1-4z" class="J"/>
  <path d="M438 220c1 0 2 0 3 2 0 1-1 2-3 2v-4z" class="b"/>
  <path d="M412 202v8-8z" class="Z"/>
  <path d="M317 132c-1 0-2-1-2-3l2 3z" class="a0"/>
  <path d="m308 184-2-2c1-1 2 0 2 2zm151 12-2-3c2-1 3 0 3 2l-1 1z" class="u"/>
  <path d="M410 123c2 0 2 1 1 2-1 0-2-1-1-2z" class="R"/>
  <path d="M462 200h-2v-2c1-1 2 0 2 1v1z" class="u"/>
  <path d="M360 198v-1h4l-4 1z" class="Y"/>
  <path d="m310 171 2-2c0 1 0 2-2 2zm0 16-1-1q1-1 1 1z" class="u"/>
  <path d="m437 159 1 2-1-2z" class="R"/>
  <path d="m309 172 1-1-2 1zm151 26-1-2 1 1v1zm-148-29 1-1-1 1zm1-1v-1h1l-1 1z" class="u"/>
  <path d="M336 210h-1v-1l1 1z" class="B"/>
  <path d="m309 185-1-1 1 1z" class="u"/>
  <path d="M412 207v1-1z" class="R"/>
  <path d="m314 128-1-1 1 1zm1 1-1-1 1 1z" class="W"/>
  <path d="M361 148v1-1z" class="m"/>
  <path d="M415 97c-2-2 1-6-4-7-2 1-4 3-7 3l-2-1-1-2-2-6c-2-9-3-18-2-27 0-2 0-5 3-6 4-1 5-3 3-6l-3-4v-2l1-1 2-3v-1l1-2 1-1 2-1h3c1 1 2 2 2 0 1-1 0-2-1-3l-1-1 1-1 2-3 1-1h2l4 1c6 1 8 0 7-6 2-2 4-3 7-3l2-1h2l1 1 2 3 2-3 3-2c6 0 12 0 17 2h6l3 1c2 1 3 3 5 3l2 1v2c-1 2-3 2-5 1-2 1-5 1-7 3-4 0-6-1-9-3 1-4 0-5-4-4-3 0-6 1-8 3s-5 2-7 3c-16 4-26 14-29 31-2 13-1 24 8 34l2 4c0 2 0 3 3 4h3l4 1 1 1 1 1c1 2 3 3 2 6-5-1-11-2-15-6l-4-2zm164-7c-2 5 0 9-2 14-4 1-4-1-3-4s3-6 1-10l-1-2-2-8c-2 0-2 1-2 2v7l-1 2-1 1c-2-1-5 1-7-1-1-2 1-4 2-7l4-11c1-7 1-14-1-21-1-6-6-11-7-17 3-4 6-4 8 0 1 3 4 5 4 10 1 3 1 7 6 8 2 3 2 6 2 9l1 21v4l-1 3zm-53 17c-8 1-16-3-23-2-2 0-3-1-3-3l-2-9c4-1 5 1 7 4l1 1c-1-2 0-2 1-3h1l2 2c7 4 15 5 23 4 7 1 12-1 17-3l2 1c0 7 0 7-8 6l-11 3c-2 1-4 1-7-1zm-30-17c-3 0-6 3-9 1-2 0-2 2-2 4-3 0-4-2-4-4l-1-5v-4c1-3 4-1 5-3l-3-1-1-3c2-2 1-5 2-7 3-2 3-4 3-7 0-10 3-18 10-26l3-1 1 2-1 2v1l-1 1-1 1v1l-1 1-1 2v1l-1 2-1 1-2 8c-2 12 1 22 5 33z" class="o"/>
  <path d="M440 126c2 0 2-2 3-3s2-3 3 0l3 2c4-1 6 2 9 4s5 4 4 8c-1 1 1 1 2 1 5 2 6 6 1 9-3-4-7-5-12-7l-4-3-4-5-3-2h-1l-1-1-1-1 1-2z" class="b"/>
  <path d="M478 105c-1 3-4 4-6 3-9 0-17 2-26 1-4-1-8 0-11-4 2-5 4-4 8-4 8 2 16 5 25 0l3-1a8 8 0 0 1 4-1l1 2v1l2 3z" class="o"/>
  <path d="M483 121c-3 1-8-2-11 2v2c0 3 1 5-1 7l-5-1c-3-3-4-5 0-7s2-5 2-7v-4c2 0 3 1 3 2h2v-2c0-3 1-3 3-3 4 1 8 6 7 11z" class="b"/>
  <path d="M469 101c-1 3-3 4-6 4l-18-1h-1c-4-4-6-2-9 1h-1c0-2-3-3-3-6h33l5 2z" class="F"/>
  <path d="m564 85-3 6-2 1-2 2h-6c-2 0-5 0-4-3l6-5c3-1 5-2 6-4 1-1 2-2 4-1l1 4z" class="x"/>
  <path d="M466 131h5l1 2c-2 3-2 6 1 9v4l-5 4c-2 1-4 0-4-2 4-4 4-5 0-10l2-7z" class="c"/>
  <path d="M410 123v2l-4-4c4-2 6-5 10-2 1 0 3 0 4-2h2l3 2 6-1c2 0 4 0 5 3l-21-1c-1 0-4 0-5 3z" class="l"/>
  <path d="M574 100c0 2-1 4 2 4l2 1c0 3-2 3-4 3-3-1-3-4-3-6-1-2 1-2 3-2zm-48 7 7 1c0 1 2 3-1 4-3 0-6 0-6-5z" class="c"/>
  <path d="M481 85c2 3-1 7 4 10l-1 5h-3l-2-4 1-10 1-1z" class="F"/>
  <path d="M481 100h3c2 4-1 4-4 5-1-1-3-1-2-3 0-1 1-2 3-2zm76-6 2-1c2 6-3 5-6 6h-1c0-3 2-4 5-5z" class="o"/>
  <path d="M575 87v3c-2 2-3 0-5-1v-2c1-3 3-2 5 0z" class="c"/>
  <path d="M559 111v-1c2-2 4-1 5 0v1h-5z" class="b"/>
  <path d="m568 92 1-1 1 1c1 1 2 2 1 4l-1 1c-2-1-2-3-2-5z" class="c"/>
  <path d="m478 102 2 3h-2c-1 0-4 1-4-1-1-2 1-2 2-2h2z" class="F"/>
  <path d="M490 118c-3 0-3-1-2-3 0-1 1-2 2-1v4zm4-16h2c1 1 0 1-1 2-1 0-2-1-1-2z" class="b"/>
  <path d="M440 126v2h-1l-1-2-1-3 3 3z" class="l"/>
  <path d="M506 116h2v1c-1 1-2 0-2-1z" class="b"/>
  <path d="M425 119c-1 0-2 0-3-2 1 0 2 0 3 2z" class="c"/>
  <path d="M498 93c-1 0-2 0-2-2 2-1 2 0 2 1v1z" class="o"/>
  <path d="M496 112c0 1-1 0 0 0 0-1 1 0 0 0z" class="b"/>
  <path d="M579 106h1-1z" class="o"/>
  <path d="m437 122-1-1 1 1z" class="l"/>
  <path d="m499 37 1-2 3-5 8-4 7-3 2-1 13-1c5 1 9 1 13 5l3 1h1l2 1 3 2h1l1 2 2 3c3 5 7 9 8 15 0 6 2 11 0 17-5 3-7 7-9 12-3 5-8 9-14 12-5 3-10 4-16 3l-4-1-3-1-3-1-8-7c-1-3-4-4-3-7 2-2 3-2 5-1 4 1 5 4 8 6 10 6 16 4 25-5l3-3c8-6 7-14 5-22v-1c-1-2-1-4-3-5-2-4-6-6-10-8h-2c-1-2-3-2-5-2h-10l-3 1c-4 3-9 5-11 10-3 4-2 7-3 11-1 2-2 3 0 5l1 4 1 4v1l-1 4c-1 2-2 2-3 1l-2-1-5-5c-1-4-5-1-7-4l-1-7 4-12 1-3 1-2 1-1v-1l1-1 1-1v-1l1-1z" class="a1"/>
  <path d="m647 56 1 2v1c0 4-2 8-6 9-2 1-2 2-2 4l-2 2c-6 1-7 0-6-6 1-3 3-7-1-10l-2-3c0-3 0-5-2-7l-5-4-4-2-14-4c-2 0-4-1-6 1v9l-1 4v17c-1 2 0 5-3 5-3 1-7 0-9-3l-3-3c-3-7-2-16-4-23-1-6-2-12-6-18v-1c0-2 1-2 3-3l3 1 20 1c20 0 37 6 47 26l1 1v1l1 3z" class="a2"/>
  <path d="M655 38v-1l3-5c8-11 20-12 33-11l17 5c4 2 5 5 2 9l-1 5c-3 4-6 2-9 0-6-4-13-6-21-3h-1l-1 2-2 4c0 5 4 7 8 9l23 14c3 1 6 4 8 8l1 1v1c-4 2-8 0-12-1h-3l-4-1-2-1-1-1c-2 1-4-1-5-2l-2-1-1-1-1-1-6-2-1-2h-1l-2-1-2-1-2-1a47 47 0 0 1-14-13c1-3 0-5-2-7l1-2z" class="a1"/>
  <path d="M640 24c-1 2 3 3 0 5l-1-1c-13-9-28-12-44-12h-24c-4 0-8 0-10 2-4 3-7 2-10 0l-6-2-7-1h-1c-6-1-12-1-18 1h-2l-3 1h-2l-1 1h-1l-3 1h-1l-2 1v1h-1l-2 1-1-1v-4l3-2 3-1 1-1 2-1h1l3-1 4-1 14-1 1-1h2l2 1h5l5 1c6 4 12 4 19 1 4 1 8 1 12-1 11-1 21 0 32 2s21 5 31 12z" class="N"/>
  <path d="M578 24h-3c-2 0-4-3-5 1-2 4-2 7 1 9 2 2 3 5 3 9l-4 2c0-4-4-6-5-10-1-3-4-1-6 0l-3-3-1-1h-1l-1-5 3-4h4c4 1 6 1 8-4l23-1 1 1c-1 2-1 5-3 5l-6-1c-2-1-4-1-5 2z" class="m"/>
  <path d="M699 74h3c2 2 5 4 8 3 3 0 4 3 7 4l2 6c-5-2-8 2-12 3-2 0-2-2-2-3 0-2 0-4-2-5l-1-1h-3c-2-2-4-4-3-7h3z" class="a3"/>
  <path d="M677 37c1-3 4-3 7-3 6 0 12 0 18 5 1 1 4 3 7 1 0 3-3 5-4 8-3-3-5-6-9-7-6-2-12-4-19-4z" class="H"/>
  <path d="M546 26a94 94 0 0 1-15-5c-3 0-4-2-4-5 2-2 4-2 6-2 3 1 5 2 8 1l2 1c-1 3-1 5 2 6 2 0 2 2 1 4z" class="J"/>
  <path d="M677 37c7-3 13 0 19 4-2 1-4 2-7 0-6-3-9-2-14 2v-4l2-2z" class="h"/>
  <path d="M655 38v2l1 3-2 8c-3-1-3 5-7 3 0-3 0-5 3-6l1-4c-1-3 0-5 3-6z" class="F"/>
  <path d="m718 81-2 1c-3-6-12 0-14-8l13 2c2 1 2 3 3 5z" class="a4"/>
  <path d="M568 18c0 3 0 5-4 7-4 1-3-2-4-3 1-4 6-1 8-4z" class="o"/>
  <path d="M556 22c0 1 0 3-2 4l-1 1-3 1h-1c0-7 1-7 7-6z" class="J"/>
  <path d="M657 32c0 2 0 4-2 5 0-2 0-3 2-5z" class="e"/>
  <path d="M543 16h-2c-1 0-2 0-3-2 2 0 4 0 7 2h-2z" class="i"/>
  <path d="m647 56-1-2h1v2z" class="a5"/>
  <path d="m639 28 1 1-1-1z" class="i"/>
  <path d="m715 75-1-1 1 1z" class="a4"/>
  <path d="m646 52-1-1 1 1z" class="a5"/>
  <path d="m583 103-1-3c2-8 2-8 13-7h16l12-3c6-1 11-2 15-8 2-3 6-5 10-7v3c-4 13-11 22-24 26l-16 1c-7-2-13-5-20-3l-5 1z" class="x"/>
  <path d="m699 82 1-2h2l4 5v9c0 1 0 2-2 3l-2 2h-1c-1 1-3 3-5 3h-1c-4 2-9 2-13 1l-3-1-5-1-3-2c-2-2-4-3-8-2h-4l-1-1c-1-5 0-10 1-14 3-1 5 2 7 3 5 4 11 8 18 9 4 0 8 0 11-3l2-5 2-4z" class="a1"/>
  <path d="m696 74 3 7-1 2h-3c-2-5-8-6-11-10h-1l-3-2-5-2-1-1-4-2-2-1c0-2-3-2-4-3l-2-1-2-1-1-1-1-1v-1c-2-3-3-6-1-10 5 4 8 9 14 12l1 1 3 1 1 1 1 1 7 3 2 2 2 1 5 3h1l1 1 1 1z" class="a6"/>
  <path d="M659 96c4 0 9-3 12 3-2 0-5-2-7 2 0 2-3 1-5 1l-5 1c-1 0-2 0-2-2-2-3 2-4 2-6l5-14v15z" class="a7"/>
  <path d="M683 73c6 1 10 6 14 10 2 1 2 2 1 3l-2 4c-3 0-4-2-4-4 1-5-1-7-5-9-2 0-4-1-4-4zm-35 5v-3l-1-7 1-6 1-1c3 2 5 4 3 8v4c1 3-3 2-4 5z" class="F"/>
  <path d="M657 47c0 4 0 7 2 11h-2c0-3-3-4-3-7 0-2-1-5 1-7l2 3z" class="a8"/>
  <path d="M657 58h2l1 1 2 2v1c-4 2-5 2-5-4zm18 10v1c-3-1-7 2-8-4h2l6 3z" class="F"/>
  <path d="M668 65h-1l-3-2-2-1v-1l7 1c1 0 2 0 1 1l-2 2z" class="a8"/>
  <path d="M661 69v-2l1 1-1 1zm14 0 4 2c-1 0-3 1-4-2zm-11-6 3 2c-1 0-2 0-3-2zm16 9h3-3zm-32-13v-1l1 2v1l-1-2z" class="F"/>
  <path d="m587 189 1 6c0 4-1 8 1 12l-8 4h-3c-3 0-4-2-5-4s-3-2-5-2l-28-4c-1 0-2 0-3-2 1-7 1-7 7-6h19c2 1 5 2 7 0-1-6-3-11-6-15-1-2-1-4 2-6h2l6 1c2 0 3 2 5 3l8 13z" class="Q"/>
  <path d="m547 155 4-7c2 0 2 2 2 3 3 6 5 13 6 20h1l6 18c1 2-1 3-3 4-9 0-17-2-26-4-2-3-1-6 0-9l10-25z" class="k"/>
  <path d="M547 155c-1 8-4 15-7 23l-3 9v3c-2-1-1-3-2-4l1 3-1 2c-4 0-4-2-4-5 1-2 2-3-1-5-2 0-2-2-1-3l2-7c1-3 2-5 6-6 1 1 0 3-1 4l4-4c3-2 4-4 4-7 0-1 1-3 3-3zm16 37c1-1 4 0 2-3-3-5-4-11-5-17h6c-1 2-2 4 0 6 3 4 5 9 5 15-2 2-5 1-8-1z" class="R"/>
  <path d="M560 171c-3-1-3-4-4-7l-5-16c0-1 1-2 2 0 3 7 7 14 7 23z" class="U"/>
  <path d="M587 189c-3-4-7-7-8-13v-6l4 7c0 4 3 8 4 12z" class="z"/>
  <path d="M540 165c0 3-4 4-3 8-3-3-1-5 0-8h3z" class="O"/>
  <path d="m574 173-6-1 6 1z" class="R"/>
  <path d="M531 156v-3h1l-1 3zm-2 3h1l-1 2v-2zm1-1 1-2-1 2zm2-5 1-2-1 2z" class="r"/>
  <path d="M449 202c-1 2-3 3-4 1-1-1 0-2 1-2s3-2 3 1z" class="l"/>
  <path d="m463 203-1-2v-1c2 0 2 1 1 2v1z" class="u"/>
  <path d="M722 106h1l-1 1v-1z" class="C"/>
  <path d="m711 118 1-1-1 1z" class="k"/>
  <path d="m563 192 8 1c1 0 3 1 1 2l-5 1c-6-2-12-1-18-1l-7-1c-2-1-4-2-2 1 0 2-2 2-3 3-5 2-4 8-6 11v4c-2-4 0-7-1-12l-1-2 2-3 3-5 1-1h1l1-2 26 4z" class="w"/>
  <path d="m573 207 4 3c3 2 3 6 5 10v1l1 2v5l-1 2v2l1 2c-2 0-4 0-5 2l-5-29z" class="V"/>
  <path d="m676 107-8-2c2-3 6-2 9 0 1 1 1 1-1 2z" class="x"/>
  <path d="M696 102c1-2 3-2 5-3v5c-2 2-4 0-5-2zm-15 1 14-1c-1 2-1 3-4 2s-6 1-10-1zm-7-2c2-1 3 0 5 1-2 2-3 0-5-1z" class="a7"/>
  <path d="M499 125c-3 14-2 27-2 42l-1 6-3 4-5-4h-3c-2 3-1 7-1 10-1 2 0 5-3 6-2-2-2-4-2-6l1-5-1-3v-2c0-12-2-23-3-34l1-6 1-1c8 4 12-2 16-7 2-2 4-2 5 0z" class="S"/>
  <path d="m480 182 1 5c-2 2-3 1-4 0l-1-2 1-4v-3l-1-9v-2l-3-24v-3l-2-14 1-2h1l3 2 2 5v1c-1 7 1 14 1 21l1 21 1 1v2l-1 5z" class="V"/>
  <path d="m476 126-3-2c1-2 3-2 4-2l21 1c1 0 2 0 1 2-1-1-3-3-3 1 0 2-1 2-2 3l-7 5c-3 3-6 1-9-2v-1l-2-5z" class="a0"/>
  <path d="m496 221-16-2c2-4 6-2 8-3 6 0 6 0 6-6l1-4 1-1v16z" class="Q"/>
  <path d="M497 205h-1c-2-2-2-4-2-6v-16c0-4 0-6 2-10l1-6v38z" class="E"/>
  <path d="M530 198v3c-1 0-3-1-3 2 0 4-3 8-6 12-1 1-4 2-6-1l3-9c2-3 1-7 5-9l1-4c2-3 5-6 6-11 1 0 3-2 4 0 1 1 0 3-1 4-1 2-2 4 1 6 0 2 0 3-2 5l-2 2z" class="a9"/>
  <path d="M503 225v-1c1-1 2-2 5-2l12 2 1 3h-3c-3-2-7-2-10-3-1 0-2 0-3 2l-1 1-1-2z" class="s"/>
  <path d="M523 196c-1 3-2 6-5 9 0-4-1-8 5-9z" class="z"/>
  <path d="m704 97 2-3c2 2 1 3-2 3zm-2 2c0-1 0-2 2-2 0 1 0 2-2 2z" class="a3"/>
  <path d="M596 95h-4c-5-2-8-2-9 5l-1-4-1-21c-1-2-1-4 1-7 2 0 4-1 5 3 0 2 4 1 7 2 1 1 0-2 2-4 4 2 3 6 3 9v10l-3 7z" class="aa"/>
  <path d="m582 68 1 22-1 6c0-2-1-4-3-5v-6l-3-32-1-2c0-7-1-14-4-20 0-1-1-3 1-5 4 1 5 6 6 9 3 11 3 21 4 32z" class="ab"/>
  <path d="M584 103c6-3 13-5 20 0h5l-1 1-24-1z" class="a3"/>
  <path d="m582 228-1-5v-1c-1-4-3-7-1-11 2-3 5-5 9-4l4 10c2 3 4 6 8 4l2 2 1 2 1 5c1 3 0 5-2 6s-3 0-4-3c0-2-2 0-3 0-3 2-5 2-8 0l-6-5z" class="v"/>
  <path d="M582 228c3 0 5 0 7 3 1 3 4 2 7 2v2h-6l-7-1-2-1v-3l1-2z" class="ac"/>
  <path d="M590 235h6v1l-6-1zm15 3 3 1-3-1zm-8-2 1 1-1-1z" class="Q"/>
  <path d="M496 209c0 11 1 9-9 9l-7 1h-2l-3-1c-2 1-4-2-7 0 1-6-1-11-5-15l-1-3-1-2-2-2-2-3c-1-4-4-7-6-11 1-3 3-1 4 0l3 3 1 1 2 1c6 5 10 11 14 17 2 3 4 6 9 8 3 1 6 2 8-2l1-1h3z" class="z"/>
  <path d="M475 218h3-3z" class="Q"/>
  <path fill="#cce6cd" d="m659-172-1-1c2-3 1-7 3-10 1 2 4 0 3 3 0 3 0 7-5 8z"/>
  <path fill="#f7facd" d="m655-174-1-1 1 1z"/>
  <path d="m275 219-5-1-1-2-1-10v-9l1-35c-2-7 0-13 0-20v-6c8-5 15-4 23-2l2 2c1 1 3 1 3 3-6-3-13-3-20-2-2 1-4 2-4 4 0 25-1 50 1 74l1 3z" class="U"/>
  <path d="M279 176c3 1 3 4 3 6 0 3-2 6-5 6-3-1-2-4-2-6s-1-6 4-6z" class="c"/>
  <path d="M295 161c0 4 1 8-5 7l-3 3h-6c-3-3 1-2 2-3 4-2 8-3 12-7z" class="Z"/>
  <path d="m298 139-4-3c6 0 5 4 6 8-2-1-2-3-2-5z" class="O"/>
  <path d="m282 172 1 3c-2 0-2-1-2-3h1zm1 4s0-1 0 0z" class="S"/>
  <path d="m296 160-1 1v-1zm-14 12h-1 1z" class="Z"/>
  <path d="M293 135c-7-2-15-1-22 1-3 1-5 2-3 6 3 5 1 9-4 11-10 2-11 2-11-9v-6c1-4-1-8 1-12 13-4 27-1 40-4 6-1 12 1 17 5-1 1-4-3-5 2-4 0-7 3-11 3l-1 3h-1z" class="a0"/>
  <path d="M211 226c-3-5-3-10-5-15 0-3 0-5-2-8-5-2-9 1-14 0-2-1-1-2 0-3 4-3 17-1 19 4 3 4 5 5 9 6s5-1 4-5l-4-11c-1-2-2-4-1-6l2-1c4 0 5 3 6 5 3 10 6 19 13 27l1 1c0 2-1 2-2 2l-23 5-3-1z" class="af"/>
  <path d="M239 218c-4 1-6-3-7-5l-9-21c-1-2-1-4-3-4l-6-21-1-1-1-4v-2l-2-3c-3-10-4-20-8-29l-1-2c5-2 7 0 8 4l6 19v1c4 4 3 9 5 14 5 12 7 24 11 36 1 3 4 6 4 10 0 3 2 5 4 8z" class="U"/>
  <path d="m253 142 1 5c1 6 2 7 7 5 3-2 9-1 7-7l-1-3c-2-1-3-2-2-4s3-2 5-2v25c-2 3 0 8-3 11l-1 1-1 2c-4 1-7 0-11-1l-2-1v-18l1-13z" class="S"/>
  <path d="M252 173h2c2 2 3 4 3 7-2 6-1 12-1 18l-1 6c-1 5-1 6 4 8h6c2 1 4 1 5 4v1c-7-1-14 2-22 2l-1-1c3-5 3-11 3-16l1-28v-1z" class="z"/>
  <path d="m210 226 29-6 1 4-19 5h-9l-2-3z" class="A"/>
  <path d="M249 151c-5-4-2-10-2-14v-11c0-4 2-6 4-8 4-2 3 2 4 4-6 0-7 1-5 7 2 7 2 14-1 22z" class="m"/>
  <path d="m262 119 4-5c3-4 6-1 10 1l1 2c0 2-1 2-2 3h-12l-1-1z" class="c"/>
  <path d="M276 118v-3l8 1 2 4h-5c-1-2-3-1-5-2z" class="l"/>
  <path d="M254 126c-1 3 2 7-1 11l-2-12 3 1z" class="S"/>
  <path d="M252 173h-1l1-18v18z" class="i"/>
  <path d="M276 118c2 0 4-1 5 2h-6l1-2z" class="m"/>
  <path d="M262 119v1c0 2-2 2-4 2l1-3h3zm26 1c0-2 1-2 3-1l-3 1zm8 0c0-1 0-2 2-2 0 1 0 2-2 2z" class="l"/>
  <path d="m247 218 1 1-2-1z" class="A"/>
  <path d="M217 187c1 6 3 11 6 16l1 8c0 2-2 2-4 1-4-1-7-3-11-1 0-6-2-10-9-10-3 0-7-1-11 2h-2l-8 1c-5 1-10 0-16 2l-2 4c-4 2-5 5-6 8-1 6-10 9-15 7-2-1-2-3 0-5 3-3 3-8 5-13l1-3c4-2 4-5 5-9 4-5 6-11 8-16 1-3 2-4 5-5 5-2 6-1 7 4v3c1 4-2 7-1 11 0 2 0 3-3 3l-2 1 2-1h7c9-1 19-1 28-3h1c6 2 11 4 12-5h2z" class="v"/>
  <path d="m145 207-1 6c4 5-2 6-3 8-2 2-2 3 1 3 7 0 10-1 12-8 1-2 1-8 6-6v3l-1 3-1 3-1 3-1 2v9l-2 2-28 6c-1-1 0-2 1-3l1-1 2-3c7-7 9-17 13-25l2-2zm19-1c4-3 9-3 15-2l-16 2zm15-2c2-2 4-1 7-1l-7 1z" class="af"/>
  <path d="m158 219 1-3-1 3zm1-3 1-3-1 3z" class="R"/>
  <path d="m154 235 2-2c0 1 0 2-2 2zm2-6v-2 2zm1-5v-2 2z" class="Q"/>
  <path d="m297 203 1 1-1-1zm-62 7c-6-10-8-21-12-31l-8-29c3 2 3-2 4-2 2 1 1 2 1 3-3 10 2 17 7 24l1 3c-2 9 1 17 7 24v8z" class="k"/>
  <path d="M115 24h10l3-1h13c7 0 14 2 19 9l1 2 1 2c0 4-2 8-1 13l-2 7-2 2c-2 0-3 0-4 2l-2 2c-1 2-5-1-4 4l1 2c0 3 0 5-2 6-3 2-4-1-6-2-2-2-4-5-7-5s-4-2-1-5h2l2-1 5-2 2-2c4-4 4-10 3-16-3-2-4-6-9-5l-2-1h-9l-2 1-2 2 1 3v2c-2 2-1 5-1 8v6l-1 2-1 3-1 2-4 3c-7 2-8 1-9-5v-8l1-6v-2l1-2v-3l1-4-1-5v-1c-2-2-3-4-1-7h8zm68 1h12c4-2 6 0 9-1h12l11-1 3 1c2 3 1 6 0 10-1 3-4 4-7 3h-20c-4 0-6 1-6 5v6c0 2 0 4 3 4l14-1c3 0 6 1 6 4 1 4 0 8-1 12l-3 1c-2 0-2-1-3-2-1-4-3-4-6-3l-3 1-3-1-1 1-3 1h-1l-1 1h-1c-1 2 0 4-2 5l-4 2h-4l-3-3-1-13-1-25-2-5v-1l3-1h3z" class="a1"/>
  <path d="M230 45c7-2 7-2 8 6 3 2 2 5 3 8 0 6-1 11 1 17l1 5-1 2h-1c-2 0-5 0-6-2-1-1-2-2-4-1l-3 3-4 1h-5c-5-2-9-1-13 3h-6l-3-6v-6c4-2 8-3 11-2 5 1 8-2 11-5 2-2 2-12 0-15-1-1-2-2-3-1l-10-1c-2-1-4-1-4-3s2-2 4-2h2c-2-1-4-2-4-5 2-3 4-3 7-2l7 2c5-1 8 0 12 4z" class="m"/>
  <path d="M167 99a127 127 0 0 1 5 4c-8 3-15 1-23 0-2 0-3-2-4-4l-10-22v-3l-2-2h-1l1-2c3-1 5 0 7 2l1 1v2l3 6c2 5 3 6 9 3 4 0 4 3 6 6l2 3 2 4c0 3 0 5-4 4 2 1 3 1 4-1s2-2 4-1zm62-1c2 3 0 4-3 4h-22l-23 1-1-1-1-3v-6l2-4c2-1 3 1 4 3 1 4 4 6 8 5l2 1c8 3 13-1 18-6l4-2h5l2 1c1 3 5 3 5 7z" class="a7"/>
  <path d="M184 93c0-2-1-3-3-3l-1 3v7l1 2v1c-2 0-3 1-3-2l2-44c2 4 2 8 2 13l2 3 4-1c1 2 0 3-1 4v5c2-3 1-7 6-6 2 4 0 7 2 11l-2 6-1 2c-3 1-5 1-8-1z" class="aa"/>
  <path d="M162 97c-2 0-2-2-2-3 0-2-1-2-2-3-2-1-1-5-5-6l-1-1-1-1v-1l-2-1c-5 1-6-4-9-6l-1-1c-1-2-2-3-5-3-2 0-3-2-4-4s-4-5 2-5c-1 2-2 5 1 4 5-2 6 3 9 4 1 1 1 4 3 4 2-1 2-3 2-6 2 0 2 2 3 3l11 17 1 1 2 5c1 2 1 3-2 3z" class="a5"/>
  <path d="M230 98c-2 0-2-2-4-1-3 1-2-3-2-5v-1c1-4 3-6 5-9h2c2 1 1 3 1 5-2 2-1 6-2 9v1z" class="a3"/>
  <path d="M240 106c-3-1-6-2-9 2-2 2-5 1-8 1 1-4 6-1 8-4 0-2 3-2 4-4s3-2 5-1h1c1 0 2 0 2 2v1c-2 0-2 1-3 3zm-25 2-8 1c-1 0-3 1-5-2 4-3 10-3 13 1z" class="J"/>
  <path d="M146 42c4 3 3 11-3 15v-3c2-3 2-6 2-9l1-4z" class="a5"/>
  <path d="M127 44c-2-4-1-5 3-5h7c-2 4-6 3-10 5z" class="e"/>
  <path d="M241 100h-1c0-5-1-11 1-17h1c2 1 2 3 2 5v2c-1 3 0 7-3 10z" class="F"/>
  <path d="m233 91 1-2c0-2 1-3 3-2v3c-1 1-2 5-4 1z" class="m"/>
  <path d="M142 42c2 0 2 1 2 3v2c-4 0-6-1-2-5z" class="F"/>
  <path d="M230 96c-2-3 0-6 1-9l-1 9z" class="a7"/>
  <path d="M144 47v-2h1c0 3 1 6-1 9v-7z" class="f"/>
  <path d="M130 67c2 0 3 2 4 4l-1 1c-2-1-3-2-3-5z" class="ag"/>
  <path d="m231 82-1 1h-2c0-2 1-3 3-3v2z" class="b"/>
  <path d="m125 62 1-5-1 5z" class="e"/>
  <path d="M135 75h2c1 1-1 0-1 1l-1-1z" class="ag"/>
  <path d="m124 67 1-4-1 4z" class="e"/>
  <path d="M198 107h-2 2z" class="J"/>
  <path d="m143 57-2 2 2-2z" class="a5"/>
  <path d="M133 73c1-1 2-1 2 1l-2-1z" class="ag"/>
  <path d="m136 61-2 1 2-1z" class="a5"/>
  <path d="M126 52v-1h1l-1 1z" class="e"/>
  <path d="M134 62h-1 1z" class="a5"/>
  <path d="M108 44v2l-1 8c-1 2-2 3-1 5l-2 6-2 2 2 1c2 2 3 4 1 6s-3 1-5 1l3 5c0 1 0 2-2 3-3-1-4-5-8-6-2-2-1-4-2-7l-1-2c1-1 2-1 1-3v-2l1-1-1-1-2 1h-6c-2 0-4 1-6-1-4-6 3-8 4-12h2c1 4 6 4 9 7 1 1 3 2 4 0 1-3 3-1 6 0-1-3 0-6 1-8 0-2 1-4-2-5s-3-2-3-4 1-3 2-3c2 0 4 0 5 3l2 2 1 3z" class="ah"/>
  <path d="m81 110-2-1c-7 4-15 3-23 4-5 0-10 1-14-3-2-2-1-4 2-4 10-1 20-2 30-5h4c1 3 1 3-1 5l4 2v2z" class="ai"/>
  <path d="M81 110v-2l1-1 6-1v-3l1-3-1-20c0-4 1-7 3-10 4 1 1 4 2 7v2c3 6 2 13 0 19v9c-1 2-2 4-5 3h-7zm-39-1c7 4 14 3 21 3l16-3c-2 4-5 5-9 5-8-1-17 1-25-1-3 0-4 2-6 4-1 2-2 2-4 1 0-2 0-4 2-4 3 0 3-2 3-5h2zm62-35c2-2 0-4-1-6v-3c0-2 3-4 0-7-1-1 1-3 3-4l2-1v8l-1 5 1 2v5l-1 7-1 4c-1 4 0 8-4 11l-1-3v-9l1-3c-1-2 0-4 2-6z" class="G"/>
  <path d="m75 123-9 2c-6 0-12 1-18-1 1-3 5-3 6-2 6 2 13 1 19 0l2 1z" class="d"/>
  <path d="M102 95c2-3 1-7 3-11l2 4c-1 5-1 10-4 16l-1 1-1 2c-4-2-1-5 0-8l1-4z" class="aj"/>
  <path d="M101 99v10c-1 0-3 2-4 0-2-3-2-6-1-9 1-2 3 1 5-1z" class="G"/>
  <path d="M95 122c-3-2-5 0-9 0h-3c-1-1 0-2 2-2 1 0 5 2 3-3l2-1c2 1 6 1 6 5l-1 1zm-60-4 4-1c4-1 5 3 7 6-4 0-7-2-11-3l-1-1 1-1z" class="d"/>
  <path d="M101 86v5c-1 0-3 0-3-2l3-3z" class="ah"/>
  <path d="m102 109-1-2h1c0 1 2 1 0 2z" class="aj"/>
  <path d="m82 122-4 1 4-1z" class="d"/>
  <path d="M296 95v4c0 4 0 8-6 6l-11 2-9-1-2-1-4 1h-4c-4 1-6 1-7-3 1-2 2-2 4-2h3c9-2 17-2 26-2h6l4-4z" class="F"/>
  <path d="M250 107c-1 0-2 0-2 2-2 2-4 1-5-2v-4l1-2h5c2 2 2 4 1 6zm4-5c0 4 3 3 6 3v2l-4 2-4-2-1-5h3z" class="G"/>
  <path d="M242 106c1 3 3 3 6 3-1 3-3 2-5 2-2-1-2-2-1-5z" class="J"/>
  <path d="M252 102v4l-2 1v-5h2z" class="F"/>
  <path d="M264 110h5-5z" class="J"/>
  <path d="M240 106c-1-2-2-4 2-4v4h-2z" class="G"/>
  <path d="M176 111c2 0 3 0 3 2l-1 1c-2 0-2-1-2-3z" class="c"/>
  <path d="M252 107c1 0 3 0 4 2-1 0-3 1-4-2zm8 0v-2l4 1-4 1zm8-2 2 1c-1 1-1 1-2-1z" class="J"/>
  <path d="m103 104 2-20v-4l2 2c-1-4 1-8 5-10 3-1 2-4 4-6 0-1 1-3 3-3l1-1v-3h1v18c-2 2-1 6-3 9v4l2 10c0 1 0 3-2 3l-2 1h-6c-4-3-2-6 0-9-4 2-1 6-4 9h-3z" class="aa"/>
  <path d="M107 104v-8c1-3 4-4 6-2v3c-5 0-4 3-4 6l-3 1z" class="a3"/>
  <path d="M119 86c0-3-3-6 1-9 2 1 1 3 1 6l-2 3z" class="x"/>
  <path d="M121 84v-8c3 6 0 12 0 19V83z" class="ak"/>
  <path d="M120 100c-4-2-1-6-2-10 2 3 2 6 2 10z" class="x"/>
  <path d="M122 51c-2-3-2-5 1-8l-1 8zm0 8h-2c-1 0-2 0-1-1l3-1v2zm1-18c-2 0-2-1-1-3l1 3zm4-6c2-2 4-1 6 0h-6z" class="a5"/>
  <path d="M102 104h4l-4 1v-1z" class="a3"/>
  <path d="M135 35h2-2z" class="a5"/>
  <path d="m116 104 2-1-2 1z" class="x"/>
  <path d="m124 36 1-1-1 1z" class="a5"/>
  <path d="M213 160v1l1 4c0 3 2 5 0 8h-2c-2-1-1-4-4-5-5-4-9-3-14-2-3-5-4-10-5-16l-1-2c-1-1-1 1-1 1-4 8-7 18-13 25l-3-2c-8-3-8-3-5-12l9-24c2-2 1-5 3-7h11c4 0 8 2 12-2h1c1 0 3 0 3 2l6 27c0 2 0 3 2 4z" class="p"/>
  <path d="M190 131c-4-1-8 2-11-2 7-3 14-3 22-3l1 1h-1c-3 3-7 1-11 4z" class="Z"/>
  <path d="m34 119 1 1-6-1v-2l5 2z" class="L"/>
  <path d="M166 160v4c-1 4 0 7 5 6 3 0 3 1 3 4-1 3-1 6-3 8-2-1-2-2-2-3-1-2 2-5-1-5s-7 1-8 5c-2 5-4 11-9 16l8-20 6-14 1-1z" class="w"/>
  <path d="M160 167z" class="d"/>
  <path d="m16 106 2 1-2-1z" class="B"/>
  <path d="m146 204-1 3v-2l1-1z" class="w"/>
  <path d="M665-4h-1l1-1v1z" class="ab"/>
  <path d="M20 54v-2c5-10 10-19 20-25 13-7 27-7 42-3l11 4c1 2 0 2-1 3l-6 9c-1 2-3 3-5 0-7-6-19-6-27-2-7 3-12 8-16 15l-1 2 1 2c-3 4-4 7-2 11l2 7 1 2 1 4 1 1 1 1 1 1 2 1c8 7 17 6 27 4 2 0 3 2 3 4l-2 6-5 1h-4c-4 2-8 2-12 1l-2-1-4-1-3-2-2-1-2-1-3-2-1-1-2-3v-1c-2-5-3-9-2-13 0 1 0 3-3 4-2 0-4-2-4-4-2-3-2-6-5-8-2-1-2-3-1-5 0-3 0-5 2-8zm271-32h3c2 4 1 8 1 12 0 3-4 3-6 3l-18-1-7 1-2 2c0 5-1 10 1 15 7 0 13-2 20-1v9c-1 4-3 5-7 4h-2l-2-1h-3l-4 1c-1 0-1-2-2 0l-7 1c-3 1-5-1-7-3l-5-5c-2-3-1-7-1-10v-6c-2-7-2-13-1-19l12-1h33l4-1z" class="a1"/>
  <path d="m309 23 9-1h8c3 0 4 2 3 4l-2 26v9l-1 5-4 3-3 2c-2 1-4 2-7 1-2-2-2-5-1-7l-1-8v-4c1-6-1-11-1-17V23z" class="a2"/>
  <path d="m337 49 1-1 2-1c7-7 13-15 16-24 1-2 2-2 4-2h12c3 0 4 1 3 5l-3 6c-1 3-3 4-5 6-8 4-12 11-18 16l-2 5c-1 3 0 5-3 7l-3 1h-3l-2-1-2-3v-2c0-2-3-3-3-6a39 39 0 0 1 6-6z" class="a1"/>
  <path d="M72 90c-11 4-21 4-29-5 1-1 3 0 4-3l-4-2-1-2 2-2c2 2 5 1 6 4 0 2 0 3 2 3 1 1 2-1 2-2 1-1 1-3-1-4l-1-1-2-2 3-1c4 0 7-1 6-7-1-4 4-1 6-3 9 6 12 16 7 27z" class="ah"/>
  <path d="M275 13c-14 2-28 2-42 2-21 0-43 0-65 2-3 1-3-1-3-3l5-2h2c4-1 9 0 13-2h4l14-1 28 1 6-1h9l32-2 3 1 1 1v3h-4l-4 1c-1 0 0 0 0 0h1z" class="N"/>
  <path d="M84 44c-4 1-8 4-13 2-3-2-5 3-5 6l-1 2c-1 1-2 0-3-1-1-6-3-4-5-1s-5 5-9 5-5 3-3 6v3c-6 2-4 6-4 10l-1 3-2-2-1-5c0-9 2-16 7-23 4-7 11-11 20-12h6c6-1 10 2 14 7z" class="ah"/>
  <path d="m340 67 3-2 4 2c8 4 13 10 19 16 3 4 6 9 13 9l3 3v1c0 1 4 3 0 4l-4-2c-7 1-14-4-22-2l-10-15-6-9-1-5z" class="a3"/>
  <path d="M374 58h-1c0 2-1 2-3 2 0-6 5-9 8-13l9-13c0-3 2-4 1-7v-3c-3-11-3-11-15-11-7-1-13-2-21-1-1-4 0-6 4-6l22 1 8 1c3 1 5 2 5 5 2 8 3 15 0 23v1l-1 2-1 1-1 1-1 3-3 3-3 3-1 2-1 1v1l-5 4z" class="i"/>
  <path d="m72 90 1-14c0-3-1-6-4-6-2 0-2-1-2-2 0-2 0-3-2-5l2-1c4 2 9 4 9 10l-1 2h1c4-2 6-9 12-9 2 4-1 5-2 8l-1 2v4c1 4 1 8-1 12-4 2-4 6-8 9l-4-1c-1-3 2-6 0-9z" class="a5"/>
  <path d="M49 99h2c-1 4-4 6-8 7-3 1-5 1-7-1L18 89c-1-6-3-11-2-17v-3h1c3 1 1 7 5 7 2 7 8 8 12 13l2 2v1l3 2 2 1 2 1 3 1c1 1 1 2 3 2z" class="x"/>
  <path d="m325 66 1-4 2-1c2 1 3 2 3 4-1 4 0 9-3 14v14l1 5c-3 3-7 2-10 2-5 1-9 2-13-1l1-10 1-2v-3c3 0 2 2 3 4 1 6 1 6 5 2l1-1c7-1 5-5 4-10v-9l4-4z" class="a7"/>
  <path d="M274 12h7l1-2V9l4-1h2c2 0 2 2 3 1l1-2h35l11 1c2 0 3 0 5 2l1 1 2 3c1 0 2 1 1 2l-2 3-2 2c-2 0-1-2-1-3-1-4-4-5-8-5h-60v-1z" class="R"/>
  <path d="M84 45c-4-7-11-6-18-6-8 0-15 2-20 9s-8 14-8 23c-4-2-3-5-3-9l1-5 1-2v-1c4-11 13-18 24-20 8-1 17 0 23 8v-3c3 1 3 3 1 5h-1z" class="al"/>
  <path d="M263 54c-4-2-1-5-2-8l-1-7c-1-2 0-4 2-4 10-1 19-2 28 1 3 1 4-1 4-3V23c2-1 2 1 2 2v15c0 2-2 3-3 2-7-4-14-2-20-2-10-1-10 0-10 9v4z" class="am"/>
  <path d="M261 84c12-1 24 1 35-6 1-1 2-1 1 1-3 4-5 10-11 12l-6 1h-21l-5-1v-5c2-2 4-3 7-2z" class="a1"/>
  <path d="m261 84-6 2c-4-2-2-6-3-9 0-4-1-8 4-11 2-2 4-1 7-1h1a83 83 0 0 0 8-1h1l2 1c5 2 6 0 7-5l1-6c2 4 1 9 1 14-1 2-2 3-5 2l-13-2h-3c-2 1-3 13-2 16z" class="an"/>
  <path d="M212 40h-7c-1 2-5 2-4 6 0 2 0 5-2 8-3 0-3-2-3-4V39c0-2 1-4 4-4l24 1c3 1 4 0 5-3s2-5 1-9a1181 1181 0 0 0 2 9l-1 2v5l-3 2c-5-2-10 0-16-2z" class="ab"/>
  <path d="M379 93c-2 2-4 0-7-1-8-6-12-15-20-20-1-1-4-1-5-4 2-3-1-6 0-9h2c1 0 2 0 3 2 4 6 8 11 14 16v1l2 1c4 1 6 4 8 8v1l1 1c1 1 3 1 2 3z" class="a5"/>
  <path d="m322 79 2 6c0 3 0 6-4 5-3-1-4 2-5 4-3 4-4 1-5-1-1-3 0-6-2-9l1-20c4 2 1 6 3 10l1 3v2l1 3 8-3z" class="a3"/>
  <path d="M34 89c-5-3-12-4-12-12-5 0-3-5-5-8-1-5-1-10 2-15l1-1c1 4-1 8-1 11 0 2 0 4 3 3 2 0 2 1 2 3l1 5c1 1 1 3 3 3 2-1 2-3 2-4l1-5c1 6 0 13 3 20z" class="a4"/>
  <path d="M75 74c2-6-5-7-6-10l-2-2 10-1h9l2 1c1 0 2 1 1 4-3 1-6 0-5 4 0 2-2 2-3 2l-6 2z" class="a2"/>
  <path d="M349 59h-3c-1-5 4-7 6-10 5-6 10-11 17-15l3-1c-1 4-5 6-7 9l-5 5c-2 6-6 9-11 12z" class="a7"/>
  <path d="M328 62h-2c1-12-1-25 2-37 1-2 0-2-2-2h-8l9-1c4-1 5 1 5 4a1268 1268 0 0 0-4 36z" class="ao"/>
  <path d="m16 72 3 17c4 6 8 11 14 15 2 1 3 2 3 4 0 1 1 3-1 3-1 1-2-1-3-2-3-3-8-5-11-9l-5-11c-1-5 0-9-3-13-1-1 0-3 3-4z" class="G"/>
  <path d="M312 79v-1l-2-2V57c4 2 1 5 2 8 0 2-1 4 1 6 3 1 4-1 6-2l2-1 1 1v8c-3 2-5 5-10 2z" class="a5"/>
  <path d="M341 71c6 7 10 16 15 24 2 1 2 3 0 4l-8-11c-3-1-4-4-5-7v-1l-3-3-1-2c0-2 0-3 2-4z" class="ap"/>
  <path d="m328 62 1-3h1l2 2c1 3 4 5 3 8 0 4-4 5-3 9 1 1-2 1-4 1 0-5-1-9 1-14 1-1 0-2-1-3z" class="G"/>
  <path d="m150 71-3-3-1-1c0-3 0-3 4-5l2-1 4-4 2-1c1-1 2-2 5-1-2 6-7 9-12 12l-1 4z" class="am"/>
  <path d="M286 91c3-1 4-3 5-5 1-3 3-5 6-7l-1 11c-2 2 0 6-4 7l-1-1-5-5z" class="a3"/>
  <path d="M348 17c-1-1-1-2-3-2 1-6 4-10 10-10 7-1 15-1 23 2l1 1h-23c-3-1-4 0-4 4l-4 5z" class="aq"/>
  <path d="M242 77c-5-4-2-10-3-15l-1-11h4c2 9 3 17 0 26z" class="G"/>
  <path d="m378 101-9 1h-3c-6 4-6 4-10-2 2-2 3-2 5-2 7 1 13-1 20 1l1 1v1h-4z" class="F"/>
  <path d="m163 55-5 1 2-7c0-4 1-7 3-11 3 5 2 11 0 17z" class="an"/>
  <path d="M85 45v-6l6-8c3 2 0 5 0 9v1l-1 2-1 3h-3l-1-1z" class="ai"/>
  <path d="M212 40c5-1 11-1 16 1l3-1c4 2-1 3-1 5-1 3-3 2-4 0 0-3-3-3-5-3-3 0-6 1-9-2z" class="G"/>
  <path d="m349 59 11-11c1 4-1 6-4 9-2 0-3 2-4 4l-3-2z" class="e"/>
  <path d="m336 70-5-8c2-2 2-1 4 1l2 2 1 1h1l2 5-2 3-4-4z" class="H"/>
  <path d="M242 44c-8 0-4-5-4-9 1-1 1-2 3-2 3 3 1 6 2 9l-1 2z" class="G"/>
  <path d="M241 77c2-5 1-10 1-15V44l1 1 2 30c-1 2 0 4-2 6-2-1-2-2-2-4z" class="F"/>
  <path d="m309 22 2 12-1 1h-1l-1-6-1-2c0-2-3-4 2-5z" class="ao"/>
  <path d="M306 100h12c3-1 6-1 9 1l-18 1c-1 0-3 0-3-2z" class="ab"/>
  <path d="M378 101h4c2 1 4 1 3 4-2 2-5 1-7 1-3-1-1-3 0-5z" class="ah"/>
  <path d="M308 35h2v27c-2-8 0-17-2-27z" class="a3"/>
  <path fill="#0e91d6" d="M91 40c-2-3 1-6 0-9 0-2 1-2 2-2 5 2 1 5 0 8v1l-2 2z"/>
  <path d="m163 37-2 12c-4-5 0-8 1-13l1 1z" class="a5"/>
  <path d="M291 96c4 0 2-4 4-6l1 4-1 6h-8c0-2 2-2 4-4z" class="x"/>
  <path d="m162 98 2-4 4 4c-4 0-6 6-10 3 2 0 5 0 4-3z" class="a4"/>
  <path d="m36 108-3-3 3-1a643 643 0 0 1 8 3c-1 0-3-1-2 2h-4l-2-1z" class="al"/>
  <path d="M243 44h-1V34c-2-1-3-3-2-5l1-6h1l1 19v2z" class="as"/>
  <path d="m19 54-2 14-1 1c0-5-2-10 3-15zm88-30 1 7c-2 0-3-1-4-3 0-2 0-3 3-4z" class="G"/>
  <path d="M241 28v5c-1 1-1 2-3 2 0-2-1-5 2-7h1z" class="d"/>
  <path d="M330 59h-1v-2l2-2c1 2 4 2 4 6l-5-2z" class="a5"/>
  <path d="M271 23c-5 2-11 1-17 1l17-1z" class="as"/>
  <path d="m343 81 5 7c-4 0-5-3-5-7z" class="G"/>
  <path fill="#1e9bc7" d="M327 101c-3-2-5-1-9-1 3-2 6 0 10-2l1 1c0 1 0 2-2 2z"/>
  <path d="m204 24-8 1c2-4 5 0 8-1z" class="G"/>
  <path d="M86 46h3c0 1 1 3-1 3-2 1-2-1-2-3z" class="f"/>
  <path d="m227 23-11 1c3-2 7-1 11-1z" class="G"/>
  <path d="m370 60 3-1-1 3-1 1-1-3z" class="au"/>
  <path d="M388 28c2 2 0 3-1 5l1-6z" class="I"/>
  <path d="m329 99-1-1v-5c1 2 2 3 1 6z" class="G"/>
  <path d="m38 77 2 2v2c-3 1-2-2-2-4z" class="aa"/>
  <path d="M241 28h-1c0-2-2-3 1-5v5zM109 44c-2 0-2-1-2-3h1l1 3zm74-19h-3c1-2 2-2 3 0zm-60-1h-5l5-1z" class="G"/>
  <path d="m291 22-4 1 4-1z" class="am"/>
  <path d="m90 43 1-2 1 1-2 1z" class="ah"/>
  <path d="m108 32 1 4-1-4z" class="G"/>
  <path d="M40 82v-2c1 0 2 1 2 3l-2-1z" class="ah"/>
  <path d="M13 95h1-1zm327-18c1 0 2 1 2 3-1 0-2-1-2-3z" class="G"/>
  <path d="M62 59h-1c-1 0-1 0 0 0h1z" class="ah"/>
  <path d="m128 23-3 1 3-1z" class="G"/>
  <path d="m308 87-1 2v-2z" class="a3"/>
  <path d="M328 89v-3 3z" class="G"/>
  <path d="m307 27 1 1c-1 1 0 0-1-1z" class="a3"/>
  <path d="M388 25v1-2z" class="I"/>
  <path d="M337 49c0 1 0 2-2 2l2-2z" class="a5"/>
  <path d="M177 26v1h-1l1-1z" class="G"/>
  <path d="m340 47-1 1 1-1zM161 34l-1-1 1 1z" class="a5"/>
  <path d="M232 36v-2 2z" class="G"/>
  <path d="M93 38v-1 1z" class="ah"/>
  <path d="M158 17h1-1z" class="D"/>
  <path d="M110 24h-1 1zm5 0h-1 1zm57 79-1-1 1 1zm-134 6h1-1z" class="G"/>
  <path d="M43 84h-1v-1l1 1z" class="ah"/>
  <path d="m162 89-1-1 1 1z" class="a4"/>
  <path d="m356 100-1-1 1 1z" class="F"/>
  <path d="m20 52 1 1h-1v-1z" class="a4"/>
  <path d="m380 50 2-3c2 0 3-2 4-4l1-2 1-1v-1l1-1v-1c3 0 3 2 5 4s2 3 2 6c-1 2 0 4-2 5-2-1-4-3-6-2-2 0-2 2-1 4l-1 3h-2c-2 0-4 3-7 0-1-2 0-3 1-4v-1l1-1 1-1z" class="J"/>
  <path d="m393 53 2-6c3-2 3 0 4 2-2 8-2 16-2 24l-1 3-2-1-1-2-1-1V62c0-3-1-6 1-9z" class="D"/>
  <path d="M393 71v8c-5 0-8-5-7-10 1-3 4-1 6-2l1 4zm-17 16-8-8c3-2 6 0 8 1 4 1 2 5 0 7zm27 6c3 0 5-4 8-3v7c0 3-1 5-5 2 1-2 0-2-2-3v-1l-1-2zm-23 0-3-4h5c2-1 3-1 4 1s0 3-2 4l-2 1-2-2zm12-8c0 3 0 5-3 3-2-2-5-2-6-4l1-2c3 0 6 0 8 3z" class="J"/>
  <path fill="#95584f" d="m403 92 1 2-1 1-2-2-1-1v-1l-2-2v-3l1-2h1l2 6 1 1v1z"/>
  <path d="M393 53v9h-1l-2-4c-3-3-2-5 3-5z" class="au"/>
  <path d="m399 84-1 2h-1l-1-3-1-3v-4l1-2c3 0 2 3 2 4l1 6z" class="q"/>
  <path d="M308 118c-1-3 1-3 3-4l2 2c-1 2-3 3-5 2z" class="m"/>
  <path d="M381 69c-3 1-3 0-3-2 0-1-1-4 1-3 3 0 2 2 2 5z" class="J"/>
  <path d="M404 96c2 0 3-2 5 0 0 2-1 3-3 3l-2-3z" class="o"/>
  <path d="m378 53-1 4-3 1 4-5zm17 23v3h-2v-7h1v2l1 2z" class="au"/>
  <path d="M387 60c0 1 0 3-2 3s-2-1-1-3h3z" class="J"/>
  <path d="M387 60h-3v-3h2l1 3z" class="au"/>
  <path d="M329 156h1v1l-1-1z" class="l"/>
  <path d="m392 63 1-1v5h-1v-5zm3 17 1 3-1-3zm1 3 1 3-1-3z" class="J"/>
  <path d="m398 89 2 2-2-2zm3 4 1 2-1-2z" class="au"/>
  <path d="m368 79-2-1 2 1z" class="J"/>
  <path d="m400 92 1 1-1-1z" class="au"/>
  <path d="m377 89-1-1 1 1z" class="J"/>
  <path d="M406 161c1 0 0 1 0 0h-1 1z" class="l"/>
  <path d="M358 164c7 2 14 0 21 0 4 0 2-4 4-5l2 5c0 7 0 7-7 6h-13c-2-3-4-2-7-1l-2 5-1 2c-3-2-1-5-2-8l1-1c2 0 2-2 4-3z" class="ac"/>
  <path d="m354 167-1 1 1-1zm68 2c5 4 4 10 5 15 1 8 1 17-2 26-1-2-2-4-4-4-3 0-2-3-3-5-2-5 0-11 0-17v-2l-1-6c0-3-1-7 5-7z" class="Q"/>
  <path d="M458 175c-2-2-5-2-7-5 1-3 5-3 6-5 4-4 4 3 7 1h2l2 3v2c0 3 3 4 1 7-4 1-7-1-11-3z" class="ac"/>
  <path d="M449 136c2 0 4-1 4 3l2 4c0 3 2 4 3 7l1 3-1 2-14-21c3-1 3 2 5 2zm16 30h-1l-6-10c3 0 6-3 9 1 2 3 2 6-2 9zm-24-36h3l1 3-1 1-2-3-1-2z" class="l"/>
  <path d="M441 129v2l-1-2h1zm-3-3 1 2-1-2zm1 2h1v1l-1-1z" class="O"/>
  <path d="m392 211-5-1c3-2 6 0 8-2h1c0 3-2 3-4 3z" class="w"/>
  <path d="M418 182v2c-2 1-2-1-2-2l1-2 1 2z" class="P"/>
  <path d="M306 129h1c2 0 5 1 6 3 0 2-3 3-5 4l-4 1c-2-2 1-3 1-3l1-5z" class="a0"/>
  <path d="m304 171-7 1c1-2 2-4 5-5 0 2 0 3 2 4zm-11-35 1-1v1l-1-1z" class="z"/>
  <path d="M359 169c1-4 3-2 6 0h-6z" class="P"/>
  <path d="M458 175c4 0 7 1 11 3 3 0 3 3 5 4l2 1 1 3 4 2c2-4 1-9 1-13 0-1-1-4 3-3h3c2 0 4 1 4 4 3 5 2 10 2 15l-1 18c-2 3-5 4-9 4-5 0-7-4-9-7-5-6-9-13-15-18l-1-1c-1-3-5-4-4-9l3-3z" class="a9"/>
  <path d="M455 178c0 3 4 5 4 9-4 0-4-5-7-6l-1 1c1-1 0-2-1-3l-3-4c1-2 2-2 4-1l4 4z" class="w"/>
  <path d="M450 179c1 0 2 1 1 2l-1-2z" class="z"/>
  <path d="m511 27-6 4-4 2-4 2c1 4-4 4-5 7l-4 14c-2 2 0 4 0 7 0 2 0 5-4 5l-2 1-2-2-1-4v-2l1-2v-2 1l-1 2-11 1h-10l2 1 1 1v2c3 7 4 13 0 20-4 3-8 2-13 1h-2c-6-2-11-5-14-11l-1-2-1-14-1-3 2-4v-2l1-1 1-1 1-1c2 0 2-2 2-3l2-2c5-2 10-4 16-1 2 1 4-1 7-2l1-1 2 1 1 1 4 1c3 0 6 1 7-3l2-2 1-1 1-1h3l3 1v-1h-1l-4-1-1-2c1-1 2-1 1-2h-3l-2-1-1-1v-1c-1-2-2-4-1-6h4l2-1c3 1 2 5 6 4l5 4h1l1 1 1-1v-1l1-1h1l1-1 2 1 3-1 5-2c2-1 4-1 5 1s0 3-1 4z" class="ah"/>
  <path d="m479 36-2 3-9-2c-4-2-7-3-11-3-13-2-21 4-28 14v2l-1 2-2 5c0 4-2 6-5 7l-5 4c-3 6-3 6-7 0l-1-14c4-21 17-31 38-34 2-2 4-1 7-2h2l3 2 9 3c3-1 5 1 7 2l2 2h1l1 1h1l1 1 1 2v2l-1 2-1 1z" class="a1"/>
  <path d="M438 13h-2l-1 1-7 2-3 2-3 1h-1l-7 3-3 3h-3v-2l2-3c6-7 14-10 22-12l7-2 5-1c13-1 25 2 37 7l5 4c0 3-1 3-3 4h-1l-3-1-1-1c-1-1-4-1-5-3h-3c-7-2-15-4-23-4-3 1-6 3-9 2z" class="N"/>
  <path fill="#127ac5" d="M408 54c1 4 0 9 2 14l6 10c2 5 5 9 9 12l13 8v2c-2 1-4 0-6-1h-1l-1-1-4-1-3-1-3-3c-1-4-5-6-7-9-4-7-5-14-5-22v-8z"/>
  <path d="m399 84-3-10c0-8 0-16 2-25-1-3-1-7 2-9l3 3c2 2 4 8 2 10l-2 1c-6-3-5 2-5 4 0 9 0 17 2 26h-1z" class="k"/>
  <path d="M421 18h1l2-1 4-1 1 3c2 3 0 5-3 5s-7 1-10-2l5-4z" class="l"/>
  <path d="M458 20h-12v-2c4-2 8-4 12-3l4 2c0 2-3 2-4 3z" class="c"/>
  <path d="m408 24 3 1v1c0 2-2 4-4 5l-1 1-1 1-1 1-2 4c-3 0-2-2-3-4 0-5 4-8 9-10z" class="E"/>
  <path d="M400 34c2 1 0 3 1 4v2c-2 2-3 5-3 9-1-1-1-3-3-2v-8l2-3c1-1 1-2 3-2z" class="aq"/>
  <path d="M407 31c0-2 2-3 4-5 3 1 6 2 2 6-2 3-2 3-4 0l-2-1z" class="ax"/>
  <path d="m475 26-8-3c1-3 4-3 7-3-1 2 2 3 2 6h-1z" class="b"/>
  <path d="M446 12c8-2 16 0 24 3-8-1-15-3-24-3v-1z" class="u"/>
  <path d="M443 13v2c0 1 1 4-2 4-2 0-3-2-3-5 1-1 3-2 5-1z" class="c"/>
  <path d="m420 93 3 2v2l-5-1c-2-2 0-3 2-3z" class="d"/>
  <path d="m443 13-5 1v-1c2-2 5-2 8-2v1l-3 1z" class="k"/>
  <path d="m421 18-5 4h-1c0-3 3-3 6-4z" class="E"/>
  <path d="M473 16c2-1 3 0 5 2-2 0-4 0-5-2z" class="B"/>
  <path d="M423 97v-2l3 1c0 3-1 3-3 1z" class="F"/>
  <path d="M402 38c0-1 0-3 2-4 0 2 0 3-2 4z" class="u"/>
  <path d="m411 25 3-3c0 2-1 2-3 3z" class="E"/>
  <path d="M481 19h1v1h-4v-1l1-1 2 1z" class="ax"/>
  <path d="m435 14 1-1-1 1z" class="k"/>
  <path d="m405 33 1-1-1 1zm-1 1 1-1-1 1z" class="ax"/>
  <path d="m403 91-1-1 1 1z" class="au"/>
  <path d="m430 98 1 1-1-1z" class="F"/>
  <path d="M544 90c7-3 11-9 14-16 2-2 3-6 7-7 2 1 2 4 3 6 0 4-2 8-4 12l-2-4c-3 7-10 6-15 10h-2l-1-1z" class="a3"/>
  <path d="M568 73c-3-1-3-3-3-6 3-2 2-6 2-9v-7c2 7 3 14 1 22z" class="aa"/>
  <path d="M575 87c-1 0-3-2-5 0-2-1-5-2-1-5l3-3c3 2 2 5 3 8z" class="m"/>
  <path d="M576 51v2c-3 1-5 1-5-3l-1-5 3-2c3 2 1 5 3 8z" class="b"/>
  <path d="M572 67c-1-2-3-4-1-6 1-1 3 1 4 2 0 2 1 4-3 4z" class="m"/>
  <path d="M572 79c0 2 0 3-3 3 0-5 0-5 3-3z" class="c"/>
  <path d="M579 85v2-2z" class="y"/>
  <path d="M546 91h1c1 4 4 1 5 1 4-2 4-1 5 2l-5 5c-6 2-11 5-18 4l-6-1c-9 0-10-1-10-11h5l4 2c6 1 11-1 17-3h1l1 1z" class="t"/>
  <path d="M499 70c0 2 1 4 3 5l2 1 3 1 3 6-3 1-3 3 2 4c3 1 4 2 2 5-1 0-2 0-2 2l-7-5-2-2c-7-11-9-22-7-34v9c1 2 3 3 4 2 2 0 4 0 5 2z" class="a7"/>
  <path d="M508 96c0-1 1-3-2-4-3 0-5-2-4-5 2-4 4-6 8-4l8 7v1l2 7c-1 3 3 3 5 3 3 0 6-1 9 2-9 1-17 0-25-5l-1-2z" class="x"/>
  <path d="M506 98zm2-1h1-1z" class="a7"/>
  <path d="m482 78 3-1h2v3c-2 0-2 6-5 1-2-1-1-2 0-3z" class="b"/>
  <path d="m482 78-1 3v4h-1c-3-5-1-9-2-14l1-4 2-1v2c2 2 2 4 1 7v3z" class="F"/>
  <path d="m482 75-1-6 3-1c0 2 1 5-2 7z" class="d"/>
  <path d="m491 59-1-2 2-9c1 4 0 7-2 11z" class="a4"/>
  <path d="M497 35c0-1 1-3 3-3v3h-3z" class="ax"/>
  <path d="m494 45-1 3 1-3zm1-2-1 2 1-2zm4-6-1 1 1-1zm-1 2-1 1 1-2zm-1 1-1 1 1-1zm-1 2-1 1 1-1z" class="a4"/>
  <path d="M453 144v-5l9 2c2 0 2 3 2 6-4 1-7-2-11-3z" class="c"/>
  <path d="m445 134-1-4c3 0 3 3 5 6 0 2-1 2-2 1l-3-3z" class="m"/>
  <path d="M440 129v-1l1 1h-1z" class="l"/>
  <path d="M480 85h1v10l-4 4-2 1h-2l-1 1h-3c-10 0-20 1-31-1v-1c-2-4-1-7 2-10l10 1c5 3 9 1 14 0l2-1 1-1c3 2 6 1 8 3 2 0 3-1 3-2l2-4z" class="t"/>
  <path d="M476 100c2-2 1-5 4-5l2 5-4 2h-1v-1l-1-1z" class="a3"/>
  <path d="m476 99 1 2-2-1 1-1zm-4 2 1-1-1 1z" class="F"/>
  <path d="m471 125 3 14h-1c-2-2-3-3-2-6v-2c0-2-2-4 0-6z" class="u"/>
  <path d="M453 144c4-1 7 1 11 3 0 2 2 2 4 3 2-1 4 0 6 1 2 2 2 3 2 5 1 2-5 1-1 3l1 2v4c-1 3-2 4-5 5l-4-3-2-1c3-3 2-7-1-11-1 5-3 2-5 1l-1-3-1-2c0-3-3-4-4-7z" class="b"/>
  <path d="m474 152-6-2c0-2 1-4 4-4l2 1v5z" class="m"/>
  <path d="m471 133 2 6-1 3c-4-3-4-5-1-9z" class="b"/>
  <path d="m474 147-2-1v-2l1-5h1v8z" class="l"/>
  <path d="m473 139-1 5v-2l1-3z" class="m"/>
  <path d="M546 78c-10 12-23 12-33-1l-3-3c-3-8-5-16-2-25 2-5 6-8 12-10h8l5 1c7 2 11 6 13 13 2 5 4 9 3 15 0 4-1 6-3 10z" class="ah"/>
  <path d="M539 37c5 1 9 3 12 7l3 6v14c0 2-1 4-4 3-2-3 0-7-1-10l-3-9-8-8c-2-2-1-2 1-3z" class="x"/>
  <path d="m539 37-1 2c5 0 5 5 8 8 1 2 1 4-1 5-3-4-6-9-12-11-1-1-3-2-5-1h-3c-2-2-5-1-5-4l2-1h10c2 2 5 1 7 2z" class="ap"/>
  <path d="M512 23c-2-1-4-1-6 1-1 1-2 2-4 1l-2-1v-2l2-1 1-1h1c-1-1 1-1 2-1v-1l4-1 2-1v1c1-2 3-1 4-2h2l3-1 2 1c0 4-1 6-3 8l-2 1-6-1z" class="l"/>
  <path d="M510 49c-3 8-2 16 1 25-2 1-3 0-4-2v-1l-1-2v-5c-2-1-2-3-1-5 0-4 0-8 2-12 2 0 2 0 3 2z" class="a7"/>
  <path d="M550 67c4-2 4-6 4-10v-6c4 8 3 18-4 23l-4 4 2-10 2-1z" class="a3"/>
  <path d="m510 49-2-2c1-6 7-8 12-11 1 2 4 2 5 2 2 1 0 1-1 1l-2 1h-1c-5 1-8 4-11 9z" class="ak"/>
  <path d="m520 24 2-8c2-1 3-2 6 0 0 2 0 4 3 4 1 0 3 0 3 2l-14 2z" class="o"/>
  <path d="M499 70h-4c-4 5-4-1-5-3h6c2 0 3 0 3 3z" class="a4"/>
  <path d="M512 23c2-1 4-2 6 1l-7 3 1-4z" class="o"/>
  <path d="m507 72 4 2 2 3h-6v-5z" class="a5"/>
  <path d="M552 26h2c3 1 1 3 1 5l-3-1v-4z" class="o"/>
  <path d="M554 50c-3 0-3-2-3-5 2 1 2 3 3 5z" class="a3"/>
  <path d="M539 37c-2 0-4 1-6-2 2 0 4 0 6 2z" class="x"/>
  <path d="M505 59v5c-3-1-2-3-1-5z" class="a5"/>
  <path d="M500 35v-3l4-1-4 4z" class="o"/>
  <path d="M552 26v3l-2-1 2-2z" class="n"/>
  <path d="m527 93-3-1h3z" class="a3"/>
  <path d="m506 69 1 2c-1 0-2 0-1-2z" class="a5"/>
  <path d="M518 91v-1l3 1h-3z" class="a7"/>
  <path d="M526 35h-3 3z" class="x"/>
  <path d="M555 32h1-1z" class="o"/>
  <path d="m504 76-1-1 1 1z" class="a5"/>
  <path d="M598 90c0-7 0-14-2-21V49l1-2-1-9c4-3 8-1 11-1l11 4 4 2 4 4c3 2 3 4 4 7l1 3c2 2 3 5 2 8l-3 13c0 1-2 3-5 3-2-4 0-7 1-10 2-12-5-24-17-27-7-1-8 0-8 6 0 10-1 19 1 28l-1 11-3 1z" class="ab"/>
  <path d="M624 81c8-6 9-15 7-24 7 3 4 8 3 11-2 5 0 5 4 5l1 4c-3 6-7 12-15 14-4 2-8 2-13 3h-6l-9 1c1-2-3-4 2-5h2l4-1 5-1c6 0 10-4 15-7z" class="a5"/>
  <path d="M624 91c7-4 12-9 14-18l1-1c2-3 6-4 10-5l-1 8c-3 2-3 7-8 7l-1 1c-2 7-9 7-15 8z" class="a3"/>
  <path d="M576 51c-4-1-2-4-3-8-1-3-1-6-4-8s-2-8 1-10h2v1c2 8 5 16 4 25z" class="o"/>
  <path d="M649 66c-1 2-1 4-4 3-2-1-3 3-6 3l-2-5c6 1 9-3 11-8l1 2v5z" class="a5"/>
  <path d="M572 25h-2v-5c3 0 3 2 5 4l-3 1z" class="n"/>
  <path d="m630 54-3-7c3 1 3 4 3 7z" class="a5"/>
  <path d="M596 38c2 2 1 5 1 9-2-3-1-6-1-9z" class="aa"/>
  <path d="m622 43-3-2c1 0 2 0 3 2z" class="a5"/>
  <path d="M596 49v2-2zm0 10v2-2z" class="aa"/>
  <path d="M657 47c-2 0-2-1-2-3v-4c3 1 3 4 2 7z" class="a6"/>
  <path d="M696 74v-1l3 1h-3zm-10-6-1-1 1 1z" class="a4"/>
  <path d="m677 37-1 2 1-2z" class="H"/>
  <path d="m688 69-2-1 2 1zm6 3h-1 1z" class="a4"/>
  <path d="m672 60-1-1 1 1zm4 2-1-1 1 1zm1 1z" class="H"/>
  <path d="M499 17h2l-1 4v3h-1l-1 1h-1l-2 1v1l-1 1-1 1-1-1-6-4-1-1-1-1-1-1-1-1v-1l4-2c1-1 3-1 4 1 2 0 3 5 6 1l3-2zm23-2h-4c6-4 12-2 19-1l-1 1h-14z" class="i"/>
  <path d="M519 10h3l5-1h5c-1 3-3 2-5 2h-10l2-1z" class="E"/>
  <path d="m570 12 7-1c-4 4-8 2-12 2l3-1h2z" class="r"/>
  <path d="M536 14h2l3 1c-2 3-4 3-7 0l2-1z" class="o"/>
  <path d="M506 18c0 2-1 2-2 2-1-2 0-2 2-2z" class="i"/>
  <path d="M500 22v-1h2l-2 1z" class="ay"/>
  <path d="M512 17h-2 2zm-9 4h-1 1z" class="i"/>
  <path d="M706 85c-3 0-4-1-4-5 2 1 4 2 4 5zm-4-5h-1v-1l1 1z" class="a4"/>
  <path d="m536 14-2 1-6 1h-6v-1c4-2 9-1 14-1z" class="u"/>
  <path d="M605 94h6-6z" class="aa"/>
  <path d="M698 86v-2l1-3-1 5z" class="a3"/>
  <path d="m675 68-5-2c2-1 4-2 5 2z" class="al"/>
  <path d="m662 61-2-1c1-1 2-1 2 1zm-2-2-1-1 1 1z" class="a8"/>
  <path d="M659 96v1-1z" class="a1"/>
  <path d="m580 210 1 11-4-11h2z" class="w"/>
  <path d="M587 195s0-1 0 0z" class="z"/>
  <path d="M536 190h-1v-5l1 5zm27-15h-1 1zm1 4c0-1-1 0 0 0z" class="Q"/>
  <path d="M530 198c0-1 0-2 2-2 0 1 0 2-2 2zm51 32v2h-2l2-2z" class="v"/>
  <path d="M581 222v1-1z" class="w"/>
  <path d="m493 209-1-33c2 0 2-3 4-3v36h-3zm-5-37h-3l1-2c1-1 1 1 2 2z" class="af"/>
  <path d="m480 182 1-5-1 5zm1-7-1-1 1 1z" class="a9"/>
  <path d="m470 169 6-3 1 2 1 10v3c-4 1-4-2-6-3l-1-1-1-2-1-1-1-1-1-2v-2h3z" class="l"/>
  <path d="m477 168-1-2v-5l-1-2v-2l-1-5v-10c2 8 3 17 3 25zm-6 9c4-1 4 3 6 4v3l-2-1c-2-1-3-3-4-6zm7 1c-2-3-1-6-1-10 2 3 1 6 1 10z" class="u"/>
  <path d="M476 126c3 1 2 3 2 5-2-1-2-2-2-5z" class="S"/>
  <path d="m475 183 2 1v2q-2 0-2-3z" class="r"/>
  <path d="M584 71c0-1-1 0 0 0z" class="a2"/>
  <path d="M484 213c2-2 5-3 9-4 0 6-1 6-9 4z" class="v"/>
  <path d="m459 187 1 1c-1 1-1 0-1-1z" class="w"/>
  <path d="M270 216c-2-2-4-3-7-2s-6-1-9-2c-2-1-2-3-2-5 3-6 2-11 2-17l1-10c1-3-1-4-1-6h10c4 1 5 3 5 6l-1 19 1 6c0 3 2 7 1 11z" class="a9"/>
  <path d="M269 205c-3-2-3-5-2-8v-18l-2-5v-2c3-3 2-7 5-11v36l-1 4v4z" class="ac"/>
  <path d="M269 201v-3 3z" class="a9"/>
  <path d="M270 141c-1-1-2-2 0-3v3z" class="a0"/>
  <path d="M291 131c-1 2-6 3-7 1v-2l2-1 5 2z" class="S"/>
  <path d="M212 173c2-2 2-5 2-8 2 7 5 14 6 22h-2c-4-4-7-8-6-14zm2-8c-2-1-2-2-1-4l1 4zm-1-5c-2 0-4 0-2-3l2 3z" class="O"/>
  <path d="m265 172 1 1h-1v-1zm-53 1c0 5 4 9 6 14-2 0-3 0-3 2-2 8-4 9-12 4-4-3-4-7-5-11l-1-2v-3l-1-2-1-2-2-6 1-1c5-4 9-4 14 1l4 6z" class="a9"/>
  <path d="M170 183c2-3 1-6 4-9 4-9 10-18 12-28l1-1c2 0 3 1 3 3l-4 9v1l-1 3-14 31v1h-3c-1-4 1-7 2-10z" class="U"/>
  <path d="M198 180c3 3 2 9 5 13-5 3-10 2-16 3h-13c-1-1-5 0-2-4 3-1 5 0 7-2h2c5 1 10 1 15-1 2-3 0-6 2-9z" class="w"/>
  <path d="M173 193c-2 2-1 2 1 3h-8v-1c1 0 3 1 2-2h5z" class="r"/>
  <path d="M166 195v1l-1 2-1-1c0-1-1-3 2-2z" class="w"/>
  <path d="M116 66c0 4 0 7-4 9-5 1-3 6-5 9l-1-4v-7c2-1 3-2 1-4v-1l1-6c-1 6 4 4 8 4zm35-4c-1 2-4 2-5 5-1-1-2-1-1-3 1-3 3-3 6-2z" class="a5"/>
  <path d="m108 53-2 1 2-8v7z" class="l"/>
  <path d="m156 57-3 3c-1-2 0-3 3-3z" class="a5"/>
  <path d="M108 47v-1 1z" class="G"/>
  <path d="m120 62-1 1 1-1z" class="a5"/>
  <path d="M199 54V44c0-4 1-5 5-4 1 3 2 4 5 4 2 0 3 0 4 2-3 2-7 0-11 2l15 3c2 0 2 1 3 2 3 6 2 12-1 17s-6 5-11 4l-10 1c-3-6-1-9 5-10h6c2 0 4 0 6 2 2 1 3 2 3-1v-1c2-13 2-13-12-11h-7z" class="G"/>
  <path d="M210 67h-4c-8-1-8-1-8 8v6c0 1-1 4 2 5h1c-1 4-4 3-7 1-4-3-1-8-1-12l-1-3c2-2 0-4 2-7l1-1h1l4-1h6l3-1 4 1c1 2-2 2-3 4z" class="an"/>
  <path d="M193 72v3c-3 1-4 3-4 6v3l-4-2c-1-3-3-6 2-8l1-2 4-1 1 1z" class="a4"/>
  <path d="M210 67c-2-2 1-2 2-4h-6c4-4 7-3 9 4h-5zm-17 5-1-1c1-2-1-4 2-6l-1 7z" class="aa"/>
  <path d="M184 73c-3 1-2-1-2-3 1 0 2 1 2 3z" class="a4"/>
  <path d="M203 63h-2c0-2 0-3 2 0zm-3 0-4 1 4-1zm-5 1-1 1 1-1z" class="aa"/>
  <path d="m194 87 8-1h4c6-3 12-2 18-3h5l-5 8h-7l-3 1-6 1c-6 0-11 2-16-1 0-2-1-4 2-5z" class="a1"/>
  <path d="M243 45v-3c2 5 0 11 2 16 2 4 2 6 1 9v16c0 4 4 5 7 6 2 2 1 4 0 6-3 3-7 3-9 6v1h-1l-2-2 1-11h1l-1-6v-2c2-12 1-24 1-36z" class="a3"/>
  <path d="M224 83c-5 3-11 2-18 3 3-5 7-6 12-4l6 1zm0-9v-3c1-1 2-4 4-2 2 1-1 2-1 3-1 1 0 5-3 2zm-24 12c-5 1-2-3-2-5 2 1 1 3 2 5z" class="G"/>
  <path d="M153 84v1c-1 2-2 4-5 3-2-1-5-2-5-5s-2-5-3-8h1l9 6 2 1 1 2zm0 12v-2h1c0 1 0 2-2 2z" class="a3"/>
  <path d="M158 91c1 0 2 0 2 2-1 0-2 0-2-2z" class="a4"/>
  <path d="m139 74 1 1-1-1z" class="a3"/>
  <path d="m208 92 5-1 1 1c0 2 0 4-3 4l-2 1c-3 6-8 3-13 3l-3-1c-4 1-8-1-9-6h7l17-1zm-27 10-1-2 2 1-1 1z" class="t"/>
  <path d="M214 92v-1h3l-3 1zm9-1h1v1l-1-1z" class="aa"/>
  <path d="M208 92c-5 1-10 2-16 1v-1h16z" class="a7"/>
  <path d="m152 82-2-1 2 1zm1 2-1-2 1 2z" class="a4"/>
  <path d="M243 102h1l-1 4h-1v-4h1z" class="F"/>
  <path d="M85 74c-1-4 2-5 4-8h3l-1 2v2l-1 31c-2 1-2 0-3-2-2-7 0-14-3-21l1-4z" class="H"/>
  <path d="M104 74c0 2 0 4-2 6-3 0-3-4-5-5l-1-1 2-1 6 1zm-1-9v3c-1 1-2 3-3 1-2-2 1-3 3-4z" class="m"/>
  <path d="M91 66h-2c0-2 0-3-2-4l3-1h2v2l-1 3z" class="a5"/>
  <path d="m92 68-1-1 1-3c1 1 4 3-1 4zm0-7-2 1-1-1c1-2 2-3 3 0z" class="G"/>
  <path d="m92 64-1 3v-1c0-1-1-2 1-3v1zm-3-3h1l-3 1-1-1h3z" class="az"/>
  <path d="M85 61h-1 1z" class="G"/>
  <path d="M92 62z" class="az"/>
  <path d="m44 107-1-1c3-1 5-5 8-7h25l4 1c1 1 0 2-1 2-6 0-11 3-16 4l-19 1z" class="a3"/>
  <path d="m79 103 1-3 1-2 1-3c1-1 2-3 3-2 2 0 2 1 2 3l1 3 1 2 1 3-1 2c-2 2-4 1-7 2h-8c0-3 4-3 5-5z" class="a6"/>
  <path d="M82 108c2-2 4-1 7-2v1c-2 2-4 1-7 1z" class="am"/>
  <path d="M89 107v-1l1-2-1 3z" class="H"/>
  <path d="M107 69c1 0 3 0 3 2 0 1-1 2-3 2v-4z" class="a1"/>
  <path d="M107 68v1-1z" class="as"/>
  <path d="M245 102c0-5 3-6 7-7 2-1 3-2 5-1h28c2 0 4 0 6 2 0 2-1 3-3 4h6c-9 2-18 0-27 2h-23z" class="t"/>
  <path d="M258 102h1-1z" class="G"/>
  <path d="M185 157c2-3 1-6 4-8l5 17c-4-1-3-4-4-6-1-3-2-4-5-3z" class="M"/>
  <path d="M190 131c0-3 2-4 5-4h6c1 3 1 4-3 4h-8z" class="a0"/>
  <path d="M212 173c-2-1-4-3-4-6 3 0 4 2 4 6z" class="O"/>
  <path d="M36 57c2 3 1 5 0 8 0 2 0 4 2 6v6c-5-5-6-15-2-20z" class="aa"/>
  <path d="M39 94c-1 0-2 0-3-2 1 0 2 0 3 2z" class="a4"/>
  <path d="m49 99-3-1 3 1z" class="a3"/>
  <path d="M66 99h-2 2zm-30-8c-1 0-2 0-2-2 1 0 2 0 2 2z" class="a4"/>
  <path d="M42 83v1l-2-2 2 1z" class="aa"/>
  <path d="m43 96-2-1 2 1z" class="a3"/>
  <path d="M37 54v1l-1-1h1zm217 36c-8 0-9-3-10-11 0-6 2-13 1-20 1 1 4 1 4 4v14c1-2 3-2 5-1l1 10v2l-1 1z" class="aa"/>
  <path d="M254 76c-6 2-6 2-6-5 0-2-1-5 1-8 2 1 3 4 7 3-2 3-2 6-2 10zm18-12h-3c1-2 1-3 3 0zm-8 1h-1 1zm11 0-1-1 1 1zm36-12-1-17 1-1v18z" class="a5"/>
  <path d="m323 69-1-1 2-2c1 1 0 2-1 3z" class="a3"/>
  <path d="M346 59h2l1 5c1 2 1 4-2 4-2 0-3-1-4-3 3-1 1-4 3-6z" class="a2"/>
  <path d="m330 59 4 2 1 2c-2 0-2-2-4-1l-1-3zm8 7-1-1 1 1z" class="ao"/>
  <path d="m357 100-2-1c1-1 2-2 1-4 5-2 10-2 14 1h5c3-1 5 1 7 3l-25 1z" class="a7"/>
  <path d="M385 43c3 3 0 3-2 4l2-4zm3-3-1 1 1-1zm0-2v1-1zm-8 12-1 1 1-1zm-1 1-1 1 1-1z" class="au"/>
  <path d="M88 99c-2 0-2-2-2-4l-1-1-2 2-1-3 1-2c2-4 1-8 1-13v-3l1-1c0 3 0 6 3 9l1 2c-3 4-1 9-1 14z" class="t"/>
  <path d="M83 91v2l-1 6-2 1-4-1c2-2 1-7 7-8zm1-16v3-3z" class="a4"/>
  <path d="M75 74z" class="a2"/>
  <path d="m36 104-3 1c-7-3-11-9-14-16 7 3 12 9 17 15z" class="a6"/>
  <path d="M312 79c3 1 6-1 10-2v2c-1 2-2 4-5 3l-2 1c-1 0-1 3-3 2s0-3 0-6z" class="a4"/>
  <path d="M343 11v1-1z" class="au"/>
  <path d="M291 96c-11 0-23 1-34-1h-5c0-2 0-3 2-5h1l4 1 1-1h26c3 1 5 2 5 6z" class="x"/>
  <path d="M280 90h-2 2zm-25 0h-1l1-2v2zm8 0v1l-1-1h1zm-3 0-1 1 1-1z" class="a3"/>
  <path d="M310 76c1 0 2 0 2 2-1 0-2 0-2-2z" class="a4"/>
  <path d="M328 56z" class="J"/>
  <path d="m163 15 1-1-1 1zm407-3h-1 1z" class="N"/>
  <path d="M392 67h1v4l-1-4z" class="au"/>
  <path d="M394 74v-2 2z" class="q"/>
  <path d="m471 176 4 7c-3 1-3-3-6-5 1-2-3-4-2-7l2 1 1 2 2 2h-1z" class="r"/>
  <path d="M465 166h2v3c-1 0-2-1-2-3z" class="l"/>
  <path d="m457 151 2 1-1 1-1-2z" class="m"/>
  <path d="M467 89h-1l-5 2-10 1c-3-1-7 0-11-2l-2-1-6-4-1-1-1-1-1-1-2-3v-1c0-3 0-5 2-5 1-1 2 0 4 2 3 4 7 7 13 9h1c4 1 9 2 13 1l3-4c1-5 3-6 7-3l2 6c0 3-1 5-5 5z" class="a1"/>
  <path d="M433 75c-2-1-6-4-5 3h-2c-4-2-7-1-11 1-3-3-4-7-5-11 2 0 2 3 3 4 2-5 3-9 8-10 3 0 4-3 4-6 0-1 0-3 2-5 2-1 3-1 4 1l-1 3v3l1 5c0 3 0 7 2 10v2z" class="aa"/>
  <path d="M456 32c8 0 13 5 21 6-1 5-3 7-8 4-1-1-3 0-4-2l-2-1h-17c-2-1-3-1-3-3 0-3 2-3 4-3l9-1z" class="ak"/>
  <path d="M459 63h-2c-1-2 0-2 1-2l7-1h8c2 1 5 0 6 3s-1 5-3 7l-4 2c-6 3-7 3-9-4l-3-4-1-1z" class="a2"/>
  <path d="M456 32c-3 3-6 2-9 2-2 0-3 1-3 2l2 2c-2 2-4 4-8 5l-1 1-3 4-1 1-1 1v1l-1 2-3-2-1-1 1-2c2-7 13-15 21-16h6z" class="a6"/>
  <path d="M460 65c3-1 4 2 4 4 1 4 2 5 6 2l5-1c1 5-1 9-1 13-1 1-1 2-2 1l-1-3c-1-2-4-3-6-4-2 0-1 3-1 5l-3 3c2-7 1-13-1-20z" class="a4"/>
  <path d="M439 43c1-2 4-4 7-5 5-1 10-2 16 0-3 5-7 6-12 3h-7l-4 2z" class="F"/>
  <path d="M475 70c-1-3 5-3 3-7-2-2-5 0-8-2l-2-1h12v10l-2 1-3-1z" class="a4"/>
  <path d="M433 73c-4-4-3-9-3-15l2 2 1 13z" class="F"/>
  <path d="M486 23c3 0 5 1 6 5-4 1-5-1-6-4v-1zm-1 10 6 1c-3 2-5 4-8 1l2-2z" class="ax"/>
  <path d="M479 59v-6l2 1v5h-2zm7-37v2c-3 1-6 2-5-3l1-1h1l1 1 1 1h1z" class="o"/>
  <path d="M465 60c-2 2-6 0-8 2-1 1-3 1-3-1s2-1 3-1h8z" class="a4"/>
  <path d="M479 59h2l-1 1a456 456 0 0 0-13 0c4-2 7-1 12-1z" class="F"/>
  <path d="m485 33-2 2h-3l1-2h4zm-3-2-2-2 1-1 4 1c0 2-2 1-3 2z" class="o"/>
  <path d="M434 48c0-2 1-3 3-4 1 3 1 4-3 4z" class="F"/>
  <path d="M499 23h1l2 2c-1 1-2 3-4 1v-2l1-1z" class="o"/>
  <path d="m465 40 4 2c-2 1-4 2-4-2z" class="F"/>
  <path d="m481 28-1 1h-1c0-2 0-4 2-1z" class="b"/>
  <path d="m430 53 2-2-1 4-1-2zm35 7h-5l5-1z" class="F"/>
  <path d="M480 66v-3l1 3h-1z" class="o"/>
  <path d="m493 29 1-1s1 2-1 1z" class="ax"/>
  <path d="m463 39 2 1-2-1z" class="F"/>
  <path d="m479 36 1-1-1 1z" class="o"/>
  <path d="m433 49 1-1-1 1zm-1 1 1-1-1 1z" class="F"/>
  <path d="M475 26h1v1l-1-1z" class="o"/>
  <path d="M495 27v-1h1l-1 1z" class="ax"/>
  <path d="m478 28-1-1 1 1z" class="o"/>
  <path d="m494 28 1-1-1 1z" class="ax"/>
  <path d="M496 26h-1l1-1v1z" class="ay"/>
  <path d="M498 25v1l-1-1h1z" class="ax"/>
  <path d="M447 84h-1 1zm12-21 1 1-1-1z" class="a4"/>
  <path d="M428 48v1-1z" class="aa"/>
  <path d="M454 20h1-1z" class="o"/>
  <path d="m481 19-2-1 2 1z" class="B"/>
  <path d="m424 17-2 1 2-1z" class="E"/>
  <path d="M485 17h1-1z" class="i"/>
  <path d="M431 83h1c1 3 3 6 7 6l1 1-2 8c-5-1-9-3-13-6-4-7-4-9 4-10l2 1z" class="x"/>
  <path d="M430 83h-1c-4 1-7 2-4 8-5-2-7-7-10-11 4-6 6-6 13-2v1l2 3v1z" class="a3"/>
  <path d="M396 42c-2-1-1-2 0-3v3z" class="J"/>
  <path d="m546 91-1-1 1 1z" class="x"/>
  <path d="M477 70h2l1 14v5c-1 3-1 7-6 3-2-2-5 0-7-2l4-5 2-1c3-2 1-6 2-9l2-5zm-26 22c3-1 6 0 10-2h4c-4 3-9 4-14 2z" class="a3"/>
  <path d="M465 90h-4l5-1-1 1z" class="aa"/>
  <path d="M475 157v3l-2-1c-1 0-4 1-4-2 1-2 4 0 6 0z" class="c"/>
  <path d="m468 169-1-3c3-1 2 1 3 3h-2z" class="m"/>
  <path d="M475 160v-1l1 2-1-1z" class="l"/>
  <path d="m550 67-1 1-4-15 1-6c5 4 4 10 4 15v5z" class="ak"/>
  <path fill="#279ad1" d="M528 40c2-1 4-2 5 0h-5z"/>
  <path d="m521 40 1-1-1 1z" class="ap"/>
  <path d="M625 81c-5 7-12 9-20 9h-5l-1-42c0-6 0-7 6-6 19 2 27 19 21 34l-1 5z" class="ah"/>
  <path d="M600 90h4-4z" class="aa"/>
  <path d="M536 9z" class="D"/>
  <path d="M484 21h-1 1zm1 1-1-1 1 1z" class="ax"/>
  <path d="M499 23v1-1zm-1 2h-1l1-1v1z" class="ay"/>
  <path d="m527 9-4 1 4-1z" class="N"/>
  <path d="m472 176-2-2 2 2zm-2-2-1-2 1 2z" class="u"/>
  <path d="M185 157c4-3 6-1 7 3l2 6 2 7 1 2 1 5 1 10a78 78 0 0 1-20 2h-9c1-6 4-11 7-17l6-14c2-1 1-2 2-3v-1z" class="l"/>
  <path d="m198 180-1-5 1 5zm-1-5-1-2 1 2z" class="w"/>
  <path d="m170 193 9-1c-1 2-4 1-6 1h-3z" class="aq"/>
  <path d="m185 158-1 3 1-3z" class="M"/>
  <path d="M181 192z" class="aq"/>
  <path d="M243 89c-1 0 0 0 0 0z" class="aa"/>
  <path d="m82 99 1-6v3l-1 3z" class="a3"/>
  <path d="m325 6 1-1-1 1z" class="L"/>
  <path d="M439 89h-2c-6 0-6 0-5-5l7 5z" class="a3"/>
  <path d="M430 82c-1-1-2-1-2-3 1 0 2 1 2 3zm0 1v-1l1 1h-1z" class="aa"/>
  <path d="m440 90-1-1 1 1z" class="a3"/>
  <path d="M477 70c1 4-1 9-1 13 0 1-1 2-3 1l2-14h2z" class="aa"/>
  <path d="M498 25v-1h1l-1 1z" class="ax"/>
  <path d="m214 7-1-1h1v1z" class="K"/>
</svg>