<svg width="60" height="60" viewBox="0 0 60 60" fill="none" xmlns="http://www.w3.org/2000/svg">
<mask id="mask0_119_249" style="mask-type:alpha" maskUnits="userSpaceOnUse" x="0" y="0" width="60" height="60">
<rect width="60" height="60" fill="#D9D9D9"/>
</mask>
<g mask="url(#mask0_119_249)">
<path d="M2.17012 63.6537C-4.63011 57.9258 -2.11882 52.8656 -1.13124 52.4799C-0.143654 52.0943 0.749875 56.8535 0.749875 56.8535C0.749875 56.8535 1.82211 54.5209 3.27997 55.5932C4.73784 56.6654 2.17012 63.6537 2.17012 63.6537Z" fill="#EF5476"/>
<path d="M50.0069 43.6105C55.4527 38.1176 52.3959 34.7787 51.4365 34.6658C50.4771 34.5529 50.3643 38.2681 50.3643 38.2681C50.3643 38.2681 49.0475 36.7068 47.853 37.7696C46.6585 38.8325 50.0069 43.6105 50.0069 43.6105Z" fill="#EF5476"/>
<path d="M0.411268 35.5499C4.82248 31.0446 2.29238 28.3076 1.55875 28.2136C0.825113 28.1195 0.702841 31.1575 0.702841 31.1575C0.702841 31.1575 -0.369395 29.8878 -1.33817 30.7531C-2.30694 31.6184 0.411268 35.5499 0.411268 35.5499Z" fill="#EF5476"/>
<path d="M57.3808 59.4871C52.9884 58.1327 54.1077 55.217 54.7943 54.7843C55.4809 54.3516 56.365 56.8629 56.365 56.8629C56.365 56.8629 57.0799 55.4521 58.1521 55.8001C59.2243 56.1481 57.3808 59.4871 57.3808 59.4871Z" fill="#EF5476"/>
<path d="M41.5134 62.7508C42.501 54.8501 48.2196 33.4149 43.9683 18.1684C39.717 2.922 31.741 9.61876 31.741 9.61876C28.8535 3.67445 19.5138 3.67445 14.1808 8.43366C-3.16302 23.8118 9.80725 41.7388 9.80725 41.7388C9.80725 41.7388 5.33961 53.1477 9.5533 55.1323C13.767 57.1169 14.7076 65.3562 10.0894 73.2286C1.87836 87.2147 0.552175 97.843 2.14172 107.361C3.73126 116.88 14.7452 123.614 28.3927 111.124L39.4536 110.183C55.4713 104.577 40.5164 70.6797 41.5134 62.7508Z" fill="#CE4836"/>
<path d="M41.5134 62.7508C42.454 55.2264 47.7117 35.3054 44.5044 20.2283C45.3227 27.6586 35.6538 17.4066 29.3332 19.2877C24.6304 20.6985 17.0025 20.5104 14.717 19.0526C11.425 16.9645 12.8358 11.086 14.2843 8.3208L14.1808 8.40545C-3.16302 23.8118 9.80725 41.7388 9.80725 41.7388C9.80725 41.7388 5.33961 53.1477 9.5533 55.1323C13.767 57.1169 14.7076 65.3562 10.0894 73.2286C1.87836 87.2147 0.552175 97.843 2.14172 107.361C3.73126 116.88 14.7452 123.614 28.3927 111.124L39.4536 110.183C55.4713 104.577 40.5164 70.6797 41.5134 62.7508Z" fill="#B23124"/>
<path d="M28.3927 111.124L39.4536 110.183C55.4431 104.624 40.5164 70.7267 41.5134 62.7978C41.6827 61.3964 42.0119 59.5623 42.3975 57.4272C42.153 57.3238 41.899 57.2109 41.6451 57.1169C31.7975 53.5145 19.7677 59.995 10.5315 72.4667C10.381 72.7301 10.2493 73.0029 10.0894 73.2756C1.87836 87.2147 0.552175 97.843 2.14172 107.361C3.73126 116.88 14.7452 123.614 28.3927 111.124Z" fill="#A0231D"/>
<path d="M38.2216 42.5665C31.1298 37.5157 28.5056 32.954 28.3081 28.7685C28.2289 27.5546 27.8006 26.3894 27.0748 25.4133C26.3489 24.4371 25.3564 23.6915 24.2167 23.2662C23.6335 30.8471 28.3833 38.1176 24.4518 42.9709L38.2216 42.5665Z" fill="#FFB882"/>
<path d="M30.7347 58.6124C46.2821 73.8588 61.5379 94.9461 62.4126 103.101C63.2873 111.255 42.5951 100.58 42.5951 100.58C42.5951 100.58 39.0022 76.3795 26.3705 67.8298C22.3355 59.5529 30.7347 58.6124 30.7347 58.6124Z" fill="#FFEBC0"/>
<path d="M32.2302 59.7974C46.4514 73.7459 58.8385 93.9302 59.638 101.389C60.4375 108.847 41.5135 99.0563 41.5135 99.0563C41.5135 99.0563 38.2309 76.9626 26.6809 69.1466C22.9469 61.5939 32.2302 59.7974 32.2302 59.7974Z" fill="#F4D095"/>
<path d="M34.0078 44.6074C41.3818 59.6564 45.7177 71.6108 48.1162 73.4355C51.0225 75.627 52.2734 72.6737 51.6715 70.3223C50.8532 67.0209 43.0278 49.0187 41.0714 45.4445C37.9205 39.6695 34.0078 44.6074 34.0078 44.6074Z" fill="#FFB882"/>
<path d="M46.2821 69.5322C46.1987 66.6736 46.8462 63.8409 48.1632 61.3024C45.5673 55.0288 42.2471 47.6078 41.0714 45.4446C37.9205 39.6601 34.0078 44.5981 34.0078 44.5981C39.8393 56.4585 43.7614 66.4284 46.3385 70.9901C46.3103 70.5198 46.2821 70.0307 46.2821 69.5322Z" fill="#FF9566"/>
<path d="M45.4074 62.7414C41.7392 65.9675 43.0278 68.8738 43.0278 68.8738C43.0278 68.8738 36.378 65.7794 37.4503 61.9889C38.5225 58.1985 45.4074 62.7414 45.4074 62.7414Z" fill="#F4D095"/>
<path d="M37.441 54.7184L29.2206 61.434C34.3842 73.0217 29.4933 82.305 23.2574 95.9054C12.3752 119.654 26.0039 151.135 39.7266 204.399H40.4414C40.4414 204.399 59.6664 120.689 58.3872 108.96C56.4215 90.8734 43.8556 88.1364 37.441 54.7184Z" fill="#FFB882"/>
<path d="M26.3612 94.9178C31.9105 81.3174 34.6851 73.0311 30.0764 61.4434L37.1023 54.9912L29.2205 61.434C34.3841 73.0217 29.4932 82.305 23.2573 95.9054C13.0711 118.131 24.3672 147.138 37.1023 194.429C25.7592 147.138 17.2848 117.143 26.3612 94.9178Z" fill="#FF9566"/>
<path d="M58.3871 108.942C56.4214 90.8734 43.8555 88.1364 37.4409 54.7184C43.1501 88.1176 55.4996 91.0992 57.249 109.158C58.3589 120.943 40.0745 204.399 40.0745 204.399H40.4413C40.4413 204.399 59.6663 120.689 58.3871 108.942Z" fill="#FF9566"/>
<path d="M29.9635 79.8971C33.453 75.4201 37.2528 72.937 41.2502 72.937C41.6686 72.9368 42.0865 72.9651 42.5011 73.0217C40.2955 67.0783 38.6119 60.9541 37.4691 54.7184L29.2205 61.434C32.108 67.9239 31.8446 73.6613 29.9635 79.8971Z" fill="#FF9566"/>
<path d="M25.4958 56.2704C24.0379 46.5544 23.2479 45.2376 23.6147 43.9679C23.9815 42.6981 28.7783 37.13 29.3615 36.9325C29.9446 36.735 38.8799 42.4724 39.4631 43.4412C40.0462 44.41 44.8054 55.6684 45.0029 56.609C45.2005 57.5495 25.4958 56.2704 25.4958 56.2704Z" fill="#FFB882"/>
<path d="M36.6697 50.4389C36.9277 52.4696 37.3845 54.47 38.0335 56.4114L39.3879 56.5996L36.6697 50.4389Z" fill="#FF9566"/>
<path d="M25.4959 56.2704C25.4959 56.2704 26.5587 56.355 30.0012 56.5149C29.7378 55.2452 25.4865 44.2877 23.5396 44.7109C23.549 45.9807 24.292 48.2662 25.4959 56.2704Z" fill="#FF9566"/>
<path d="M22.7683 55.6872C22.3826 60.4464 22.1851 64.3309 26.3706 67.8298C26.3706 67.8298 32.71 61.481 45.4075 62.7414C45.4075 62.7414 49.1697 58.8005 47.9376 55.1041C46.6396 52.4141 24.9033 53.1665 22.7683 55.6872Z" fill="#FFEBC0"/>
<path d="M39.1621 60.7662C34.6663 60.7662 31.0169 55.3863 30.4432 53.7685C25.5805 53.7685 23.0692 55.3298 22.7682 55.6496C19.8055 62.5157 25.778 68.413 29.9635 71.9024C34.0585 67.3397 39.4451 64.1314 45.4074 62.7038C46.0286 62.0284 46.5742 61.2872 47.0346 60.4935C44.749 61.0766 42.0873 60.7662 39.1621 60.7662Z" fill="#FFE0AE"/>
<path d="M26.7561 58.9415L29.8599 62.083C35.4374 56.0822 45.9811 57.1169 45.9811 57.1169C45.9811 57.1169 40.4788 54.6808 26.7561 58.9415Z" fill="#FFE0AE"/>
<path d="M23.8406 43.6387C17.3319 53.9848 14.435 75.7023 16.8428 78.5239C19.2507 81.3456 20.7273 79.4645 21.4139 77.1601C22.1005 74.8558 23.502 58.8004 26.5118 52.8655C29.5215 46.9306 23.8406 43.6387 23.8406 43.6387Z" fill="#FFB882"/>
<path d="M26.2764 51.6616C23.4265 58.7064 19.6079 64.1616 16.6922 65.8264C15.7516 72.0623 15.7516 77.2447 16.8615 78.5239C19.2881 81.3456 20.746 79.4645 21.4326 77.1601C22.1192 74.8557 23.5206 58.8004 26.5304 52.8655C27.2128 51.6231 27.5045 50.2037 27.3675 48.7929C27.0383 49.7335 26.6715 50.6928 26.2764 51.6616Z" fill="#FF9566"/>
<path d="M19.9937 78.2888C25.1573 76.2102 36.8579 62.1018 43.3383 59.7034L43.2066 58.2737C43.2066 58.2737 22.8059 65.7982 18.4606 71.9494C15.2533 76.4829 19.9937 78.2888 19.9937 78.2888Z" fill="#FFB882"/>
<path d="M34.2337 64.7636C27.4241 70.0683 20.7837 72.8241 19.2318 71.0277C18.9522 71.322 18.6944 71.6364 18.4606 71.9682C15.2533 76.4829 19.514 79.8877 19.514 79.8877C24.7153 77.8185 36.8861 62.1018 43.3665 59.7034L43.2913 58.8569C40.1524 60.6359 37.1274 62.6086 34.2337 64.7636Z" fill="#FF9566"/>
<g style="mix-blend-mode:multiply" opacity="0.6">
<path d="M27.8097 45.0495C31.2855 44.5732 34.6673 43.5644 37.836 42.0586C37.14 41.5507 36.2841 40.9675 35.3906 40.375C30.4244 36.1895 28.4775 32.3332 28.3082 28.7685C28.229 27.5546 27.8008 26.3894 27.0749 25.4133C26.349 24.4371 25.3565 23.6915 24.2168 23.2662C23.6995 29.9724 27.3582 36.434 25.4771 41.2027C24.7398 42.0444 24.1081 42.973 23.596 43.9679C23.3138 44.4288 23.0317 44.9084 22.7683 45.4446C24.4555 45.4207 26.1394 45.2887 27.8097 45.0495Z" fill="#C94343"/>
</g>
<path d="M30.8947 33.8851C29.2141 33.6705 27.6534 32.9005 26.4605 31.6974C25.2676 30.4943 24.511 28.9271 24.3108 27.2448C23.944 24.1315 23.7558 19.0525 27.5181 17.8392C31.6659 16.5412 33.6975 19.9554 33.7446 24.8934C33.7916 30.7718 30.8947 33.8851 30.8947 33.8851Z" fill="#FFB882"/>
<path d="M32.6158 24.4419C32.6158 23.7647 32.202 23.2286 31.7881 23.2474C31.3743 23.2662 31.0921 23.84 31.1485 24.5266C31.205 25.2132 31.5624 25.7399 31.9668 25.7211C32.3713 25.7023 32.6816 25.1285 32.6158 24.4419Z" fill="#66423B"/>
<path d="M28.6279 24.6394C28.6279 23.8494 28.214 23.2098 27.772 23.2098C27.3299 23.2098 27.0383 23.8117 27.0383 24.63C27.0383 25.4483 27.4522 26.0597 27.8942 26.0597C28.3363 26.0597 28.6561 25.4295 28.6279 24.6394Z" fill="#66423B"/>
<path d="M26.3142 24.4231C27.0205 23.8151 27.9218 23.4813 28.8537 23.4825C28.7233 23.2865 28.532 23.1388 28.3093 23.0623C28.0866 22.9858 27.8449 22.9848 27.6216 23.0593C26.7375 23.2756 26.3142 24.4231 26.3142 24.4231Z" fill="#66423B"/>
<path d="M33.1049 23.8117C32.3924 23.3971 31.5541 23.2535 30.7441 23.4073C30.8364 23.2274 30.9811 23.0798 31.1592 22.984C31.3372 22.8883 31.5402 22.8489 31.7411 22.8712C32.5876 22.8712 33.1049 23.8117 33.1049 23.8117Z" fill="#66423B"/>
<path d="M25.9285 22.984L25.8721 22.8712C26.0565 22.4073 26.3409 21.9898 26.705 21.6484C27.0692 21.307 27.5041 21.0501 27.9789 20.896L28.0824 21.4885C27.6364 21.5668 27.2128 21.741 26.8409 21.9993C26.4689 22.2575 26.1576 22.5935 25.9285 22.984Z" fill="#C14D33"/>
<path d="M33.1614 22.3351C32.856 21.9883 32.4773 21.7139 32.0527 21.5317C31.6281 21.3495 31.1683 21.2641 30.7065 21.2816V20.6891C31.2107 20.7175 31.7014 20.8622 32.1404 21.1119C32.5793 21.3615 32.9545 21.7094 33.2366 22.1281L33.1614 22.3351Z" fill="#C14D33"/>
<path d="M30.998 26.7651C30.998 26.7651 30.998 26.8121 30.998 26.8309C30.9753 26.9304 30.9324 27.0241 30.8719 27.1062C30.8114 27.1883 30.7347 27.2571 30.6464 27.3083C30.5582 27.3595 30.4604 27.3919 30.3591 27.4036C30.2577 27.4154 30.1551 27.4061 30.0575 27.3764C29.9315 27.3336 29.8161 27.2644 29.7188 27.1736C29.6215 27.0828 29.5446 26.9724 29.4932 26.8497C29.471 27.0614 29.5212 27.2742 29.6357 27.4536C29.7502 27.633 29.9221 27.7683 30.1233 27.8373C30.2238 27.8732 30.3308 27.8873 30.4371 27.8787C30.5435 27.8701 30.6468 27.8389 30.7402 27.7873C30.8336 27.7357 30.9149 27.6649 30.9788 27.5794C31.0428 27.494 31.0878 27.396 31.1109 27.2918C31.1254 27.109 31.0862 26.9259 30.998 26.7651Z" fill="#EA7B59"/>
<path d="M28.6091 29.2106L31.4308 29.1447C31.4308 29.1447 31.1769 30.6026 30.0294 30.6026C28.8819 30.6026 28.6091 29.2106 28.6091 29.2106Z" fill="#491D2E"/>
<path d="M28.8066 29.2669L31.1862 29.2105C31.1862 29.2105 31.3743 29.8501 30.0293 29.9065C28.6843 29.963 28.8066 29.2669 28.8066 29.2669Z" fill="#FFEBEB"/>
<path d="M30.6407 31.054C30.6407 30.8753 30.3962 31.054 30.0952 31.054C29.7942 31.054 29.5591 30.8847 29.5591 31.054C29.5591 31.2233 29.8036 31.3738 30.0952 31.3738C30.3868 31.3738 30.6407 31.2327 30.6407 31.054Z" fill="#EF8F6F"/>
<path d="M15.62 35.1925C13.1558 27.3576 19.2129 23.8117 20.1535 20.7267C21.0188 17.905 21.9029 12.0736 19.2976 11.9137C16.6923 11.7538 12.5726 13.4656 13.4473 16.8422C14.2468 19.9178 17.0967 20.7173 15.2344 23.6989C12.0647 28.7591 13.7013 33.0574 15.62 35.1925Z" fill="#CE4836"/>
<path d="M22.8811 26.9344C22.74 25.185 21.5173 24.4043 21 25.5988C20.7702 25.9925 20.6977 26.4585 20.7972 26.9033C20.8966 27.3481 21.1606 27.7389 21.5361 27.9973C22.1569 28.4017 23.0034 28.3641 22.8811 26.9344Z" fill="#FFB882"/>
<path d="M22.5519 26.8215C22.4579 25.6835 21.6114 25.1662 21.3198 25.9468C21.1548 26.21 21.0989 26.5272 21.1639 26.831C21.2288 27.1347 21.4096 27.4013 21.6678 27.574C22.0722 27.7809 22.6272 27.7621 22.5519 26.8215Z" fill="#EA7B59"/>
<path d="M22.5237 27.2354C22.4579 26.4077 21.8747 26.0409 21.6396 26.6052C21.5302 26.7919 21.4956 27.013 21.5428 27.2242C21.5899 27.4353 21.7152 27.6208 21.8935 27.7433C22.1851 27.9314 22.5801 27.9126 22.5237 27.2354Z" fill="#FFB882"/>
<path d="M38.2311 61.4905C40.0182 60.8979 42.7552 61.4905 43.6487 60.8415C44.3447 60.3054 43.9497 57.5683 43.3571 57.3144C42.7646 57.0604 38.0054 60.4935 38.0054 60.4935L38.2311 61.4905Z" fill="#FFB882"/>
<path d="M39.5759 59.5529C40.3609 58.1796 41.034 56.7453 41.5887 55.2639C41.8144 54.8501 42.2659 55.2639 42.0214 56.5619C41.7768 57.8599 41.3253 58.1891 41.8238 58.6594C42.3223 59.1296 39.0962 60.1736 39.5759 59.5529Z" fill="#FFB882"/>
<path d="M42.6047 58.8005C43.5453 58.095 45.6615 56.4773 45.4264 56.1105C45.1912 55.7437 41.9087 57.9916 41.9087 57.9916L42.6047 58.8005Z" fill="#FFB882"/>
<path d="M43.197 59.7222C44.194 59.346 46.5736 58.4713 46.4043 58.095C46.235 57.7188 42.6421 58.8099 42.6421 58.8099L43.197 59.7222Z" fill="#FFB882"/>
<path d="M43.2348 61.039C44.6456 60.8791 46.7525 60.3523 46.5738 59.9573C46.3951 59.5623 42.614 60.0702 42.614 60.0702L43.2348 61.039Z" fill="#FFB882"/>
</g>
</svg>
