<svg width="60" height="60" viewBox="0 0 60 60" fill="none" xmlns="http://www.w3.org/2000/svg">
<mask id="mask0_119_100" style="mask-type:alpha" maskUnits="userSpaceOnUse" x="0" y="0" width="60" height="60">
<rect width="60" height="60" fill="#D9D9D9"/>
</mask>
<g mask="url(#mask0_119_100)">
<path d="M33.7809 36.4309C31.0409 38.8771 25.5709 38.226 25.5709 38.226L24.7609 36.8029L24.4509 37.9935C24.4509 37.9935 19.4509 41.1651 15.0609 38.1609C10.6709 35.1566 12.2809 32.3105 12.2809 32.3105C12.2809 32.3105 9.28091 29.9015 10.7509 27.4739C11.9128 25.7648 13.4005 24.2676 15.1409 23.0558L17.0809 23.1674L15.1809 22.1071C14.6474 21.3101 14.3361 20.402 14.275 19.465C14.2138 18.5279 14.4049 17.5914 14.8309 16.7403C15.1586 15.8813 15.7131 15.1125 16.4435 14.5047C17.1738 13.8969 18.0567 13.4695 19.0109 13.2617L20.2209 13.4942C20.2209 13.4942 17.7609 10.3412 20.4309 8.49952C23.1009 6.6579 28.0109 8.3228 28.0109 8.3228L28.5209 9.25292L28.9009 7.63452C28.9009 7.63452 31.3309 5.65337 33.8409 6.05332C36.3509 6.45327 38.5309 9.58776 38.5309 9.58776L38.0109 10.6481L39.8409 10.4063C41.2615 11.8566 42.1577 13.6846 42.4035 15.6333C42.6492 17.5819 42.2321 19.5532 41.2109 21.27C37.7709 27.6785 33.7809 36.4309 33.7809 36.4309Z" fill="#CC5A29"/>
<path d="M36.3711 14.5359L35.0811 13.178L35.6111 15.1684C35.3829 16.084 34.9133 16.9324 34.2447 17.6371C33.5761 18.3417 32.7295 18.8806 31.7811 19.2051C30.9004 19.5958 29.9288 19.7758 28.9543 19.7287C27.9799 19.6816 27.0335 19.4089 26.2011 18.9354L25.0111 15.7358C25.0111 15.7358 22.3911 17.5495 21.5811 17.5216C19.6678 17.5101 17.7754 17.1499 16.0111 16.4613L16.3311 15.5312L15.0711 16.2288C14.9792 16.3814 14.899 16.5399 14.8311 16.7031C14.4051 17.5542 14.214 18.4907 14.2752 19.4277C14.3363 20.3648 14.6476 21.2729 15.1811 22.0699L17.0811 23.1302L15.1411 23.0186C13.4007 24.2303 11.913 25.7276 10.7511 27.4366C9.30112 29.8642 12.2811 32.2732 12.2811 32.2732C12.2811 32.2732 10.6711 35.1194 15.0611 38.1236C19.4511 41.1279 24.4511 37.9562 24.4511 37.9562L24.7611 36.7657L25.5711 38.1888C25.5711 38.1888 31.0411 38.8398 33.7811 36.3936C33.7811 36.3936 37.7811 27.6413 41.2311 21.1863C42.439 19.1141 42.7945 16.7038 42.2311 14.4057C40.2973 14.7357 38.3196 14.7796 36.3711 14.5359Z" fill="#B24119"/>
<path d="M36.011 118.541C36.601 107.064 32.491 92.3121 32.491 92.3121C32.491 92.3121 9.01099 70.1754 9.01099 63.7669C9.01099 57.3584 44.841 33.0731 65.011 33.0731C65.011 33.0731 75.481 47.0248 73.131 70.0173C70.781 93.0097 76.131 106.561 76.131 106.561C61.571 115.556 47.621 122.029 36.011 118.541Z" fill="#FFB882"/>
<path d="M41.901 119.471C40.601 102.729 47.901 90.8426 56.711 87.643C62.611 85.5037 71.011 88.7777 74.421 97.6138C73.2641 88.2786 73.197 78.8544 74.221 69.5057C76.561 46.5598 65.011 33.0359 65.011 33.0359C44.841 33.0359 9.01099 57.3491 9.01099 63.7669C9.01099 70.1847 32.511 92.3121 32.511 92.3121C32.511 92.3121 36.621 107.064 36.011 118.541C37.9184 119.104 39.9008 119.417 41.901 119.471Z" fill="#FF9566"/>
<path d="M64.9411 33.7056L51.3711 61.7393L55.4711 78.7139C71.3311 79.1231 78.6211 70.7986 78.6211 70.7986C78.6211 70.7986 78.6011 42.1046 64.9411 33.7056Z" fill="#FFB882"/>
<path d="M44.2409 42.9509L8.16089 67.0595L31.1609 89.7729C47.0209 89.4473 54.1609 79.7369 54.1609 79.7369C54.1609 79.7369 51.8009 51.2848 44.2409 42.9509Z" fill="#FFB882"/>
<path d="M14.8511 51.9917C19.7585 46.85 24.3173 41.4294 28.5011 35.7612L27.5011 24.7765L40.2511 23.9022L48.8911 31.0362L63.5711 32.5988C50.6211 43.9648 31.7611 53.0799 14.8511 51.9917Z" fill="#FFB882"/>
<path d="M65.011 33.0359H64.321C60.781 35.138 42.011 47.6946 22.161 50.8476L21.861 50.9128C15.931 55.0704 11.431 59.0699 9.74099 61.8044C9.3258 62.3918 9.07488 63.0664 9.01099 63.7669C9.0017 63.9094 9.0017 64.0523 9.01099 64.1948C8.39099 66.4922 7.44099 70.3521 6.51099 75.3562C40.421 88.7777 67.391 69.3383 77.011 34.4497C72.391 33.7893 68.641 33.3336 65.011 33.0359Z" fill="#FF9566"/>
<path d="M6.17093 70.6776C40.7109 84.7317 66.2409 66.5572 75.6009 34.645C76.9009 30.2177 64.8009 29.148 63.6009 29.548C62.4009 29.9479 42.3509 44.2438 21.0109 47.6387C4.16093 50.3174 3.87093 69.7382 6.17093 70.6776Z" fill="#ED5693"/>
<path d="M6.50096 68.371C5.77096 68.0733 5.30096 65.9062 5.50096 63.0042C4.72096 67.013 5.22096 70.3056 6.13096 70.6777C40.711 84.7317 66.241 66.5573 75.601 34.645C75.726 34.2377 75.726 33.806 75.601 33.3987C66.011 64.6412 40.651 82.2669 6.50096 68.371Z" fill="#E03684"/>
<path d="M48.2309 70.2777C30.0209 70.2777 15.2309 61.1905 14.5609 49.8152C4.14088 55.6842 4.21088 69.8778 6.17088 70.6777C23.1709 77.5791 37.9209 76.7048 49.6809 70.2498C49.2009 70.2684 48.7209 70.2777 48.2309 70.2777Z" fill="#E03684"/>
<path d="M14.1011 64.7528L22.2011 68.371C59.1411 69.8778 68.1111 39.8351 68.1111 39.8351C61.5211 53.7961 44.1311 67.7664 14.1011 64.7528Z" fill="#E03684"/>
<path d="M63.751 30.0502C63.3623 30.2521 62.9851 30.4725 62.621 30.7106C56.621 37.1005 43.621 48.1689 23.501 51.1731C43.011 50.1965 56.631 40.8489 69.631 30.5525C67.7141 30.0852 65.7273 29.9155 63.751 30.0502Z" fill="#E03684"/>
<path d="M26.2009 59.6279C52.0109 58.8187 57.4209 44.8577 57.4209 44.8577C49.0143 52.1746 38.6076 57.098 26.2009 59.6279Z" fill="#E03684"/>
<g style="mix-blend-mode:multiply" opacity="0.6">
<path d="M48.2311 30.4502L40.2311 23.8557L27.4811 24.73L28.4811 35.7147C28.4811 35.7147 24.4811 41.1558 19.6411 46.7737C28.3611 45.5553 38.4011 40.7373 48.2311 30.4502Z" fill="#C94343"/>
</g>
<path d="M24.4509 21.5769C28.3509 29.1667 32.0509 31.2687 32.0509 31.2687C32.0509 31.2687 41.6809 31.2687 45.0509 28.2365L46.3209 26.3763C46.3209 26.3763 39.1409 12.0525 30.0709 13.9128C21.0009 15.773 24.4509 21.5769 24.4509 21.5769Z" fill="#FFB882"/>
<path d="M27.941 25.7717C28.0353 25.9528 28.1686 26.114 28.3326 26.2453C28.4966 26.3766 28.6878 26.4751 28.8945 26.5348C29.1011 26.5945 29.3187 26.6141 29.5338 26.5924C29.7489 26.5706 29.9569 26.508 30.1449 26.4085C30.3329 26.3089 30.497 26.1745 30.6269 26.0135C30.7567 25.8526 30.8497 25.6685 30.8999 25.4728C30.9502 25.2771 30.9567 25.0738 30.9191 24.8756C30.8814 24.6775 30.8004 24.4886 30.681 24.3207C29.621 23.1395 26.221 23.0465 26.221 23.0465C26.221 23.0465 21.741 20.4794 25.011 15.7358C25.011 15.7358 19.291 20.9909 25.161 25.7345L27.941 25.7717Z" fill="#B24119"/>
<path d="M29.761 26.8693C25.851 28.4411 23.661 28.3574 22.531 26.6646C21.401 24.9718 23.911 22.8233 25.701 23.3441C27.491 23.865 29.761 26.8693 29.761 26.8693Z" fill="#FFB882"/>
<path d="M28.3611 26.4601C25.9411 27.4367 24.5911 27.3902 23.8911 26.3392C23.1911 25.2881 24.7411 23.9581 25.8911 24.2743C27.0411 24.5905 28.3611 26.4601 28.3611 26.4601Z" fill="#EA7B59"/>
<path d="M28.3509 26.6182C26.9109 27.0739 26.0809 27.0181 25.6309 26.4507C25.1809 25.8834 26.0909 25.2137 26.7709 25.409C27.3849 25.7018 27.9238 26.1142 28.3509 26.6182Z" fill="#FFB882"/>
<path d="M30.781 22.2652C31.721 20.1725 34.991 18.3773 34.991 18.3773C34.991 18.3773 33.131 16.4706 31.811 16.7682C30.491 17.0659 28.911 19.5586 29.001 20.5538C29.091 21.549 30.781 22.2652 30.781 22.2652Z" fill="#CC5A29"/>
<path d="M38.721 17.3263C37.4947 17.4412 36.2998 17.7561 35.191 18.2564C35.191 18.2564 33.271 17.2054 33.701 16.2939C34.131 15.3824 36.861 15.3638 37.641 15.773C38.1584 16.1798 38.5343 16.7205 38.721 17.3263Z" fill="#CC5A29"/>
<path d="M39.8409 21.0375C38.2084 19.912 36.4943 18.8927 34.7109 17.9867L38.8409 21.0096L37.2509 22.8698L39.8409 21.0375Z" fill="#EA7B59"/>
<path d="M34.0111 20.2282C33.2411 21.27 32.1211 21.1583 32.9011 20.498C33.6811 19.8376 34.8511 19.1493 34.0111 20.2282Z" fill="#5B352D"/>
<path d="M38.0111 18.3215C37.2811 18.8703 36.5611 18.6192 37.2211 18.3215C37.8811 18.0239 38.7811 17.7542 38.0111 18.3215Z" fill="#5B352D"/>
<path d="M38.601 22.8791C37.351 24.0324 37.981 25.781 38.601 24.6742C39.221 23.5674 39.091 22.414 38.601 22.8791Z" fill="#5B352D"/>
</g>
</svg>
