<svg width="60" height="60" viewBox="0 0 60 60" fill="none" xmlns="http://www.w3.org/2000/svg">
<mask id="mask0_123_94" style="mask-type:alpha" maskUnits="userSpaceOnUse" x="0" y="0" width="60" height="60">
<rect width="60" height="60" fill="#D9D9D9"/>
</mask>
<g mask="url(#mask0_123_94)">
<path d="M24.8133 28.8882C22.4511 16.2548 25.2406 6.91073 27.5384 4.25021C29.8361 1.58969 31.8597 2.18629 30.2472 16.0129C28.6348 29.8396 24.8133 28.8882 24.8133 28.8882Z" fill="#992525"/>
<path d="M24.0072 32.5082C18.6619 20.3423 20.355 10.6919 22.7091 7.72502C25.0633 4.75814 27.6916 5.04031 28.3527 19.0121C29.0138 32.9838 24.0072 32.5082 24.0072 32.5082Z" fill="#B73434"/>
<path d="M25.1925 48.7373C21.7419 58.1136 15.1954 51.3172 14.9374 43.4002C14.2682 23.0593 19.9762 12.6107 22.798 13.3524C25.6198 14.0941 28.1916 40.5703 25.1925 48.7373Z" fill="#CC4040"/>
<path d="M8.35848 58.7747L6.45581 99.2549C-1.47738 104.713 -8.64466 121.829 -23.6161 129.44L-28.3567 119.846C-12.6032 95.9252 -18.7627 71.005 8.35848 58.7747Z" fill="#FFB882"/>
<path d="M86.4971 135.365C79.2411 106.809 70.3727 59.9437 51.8297 56.4044L50.2817 102.02C59.0695 109.583 71.9206 127.134 77.4835 137.349L86.4971 135.365Z" fill="#FFB882"/>
<path d="M52.507 56.7108C37.0034 49.1162 21.5321 50.7528 6.9315 59.6615C0.0947721 67.6592 -1.13068 84.88 3.55345 100.883C3.55345 100.883 20.0648 102.165 29.9007 95.8285C29.9007 95.8285 29.9007 86.1539 30.4408 80.0024C30.981 86.0813 34.0124 96.0623 34.0124 96.0623C43.8966 101.569 57.3927 99.9241 57.3927 99.9241C62.0607 83.5256 59.376 64.1361 52.507 56.7108Z" fill="#FFB882"/>
<path d="M36.0845 38.7886L20.5165 40.8202C20.3552 47.1571 17.7673 51.9057 13.2605 56.8237L43.6065 53.4859C37.3825 51.4865 36.0845 38.7886 36.0845 38.7886Z" fill="#FFB882"/>
<path d="M25.4906 60.3791C19.9358 59.1617 10.9303 58.8231 10.4869 60.7177C10.0435 62.6123 25.4906 60.3791 25.4906 60.3791Z" fill="#FF9566"/>
<path d="M33.4966 60.3388C38.1646 58.42 45.9688 56.9446 46.6299 58.7263C47.291 60.5081 33.4966 60.3388 33.4966 60.3388Z" fill="#FF9566"/>
<g style="mix-blend-mode:multiply" opacity="0.6">
<path d="M42.8083 53.1474C38.5837 51.0431 36.9713 43.8839 36.1651 40.4817C33.4169 40.42 30.668 40.5655 27.9417 40.917C25.3877 41.2631 22.8665 41.8186 20.4035 42.5778C19.8795 47.6812 17.6704 51.7848 14.0747 55.9207C15.4372 59.0731 20.597 52.6072 29.4412 51.3817C36.5118 50.3982 42.6955 55.7434 42.8083 53.1474Z" fill="#C94343"/>
</g>
<path d="M22.556 39.6512C19.9278 27.558 20.6775 17.8833 21.7498 14.8923C22.8221 11.9012 24.104 12.1431 24.491 26.0584C24.8779 39.9737 22.556 39.6512 22.556 39.6512Z" fill="#CC4040"/>
<path d="M19.9361 30.4845C19.7667 36.1281 21.9597 45.1819 22.4353 45.6011C23.2415 46.2622 27.6919 47.0685 30.1105 46.6573C32.5292 46.2461 36.649 43.1099 36.7376 42.1102C36.8263 41.1105 34.4399 28.727 34.4399 28.727L19.9361 30.4845Z" fill="#FFB882"/>
<path d="M19.9361 30.4845C19.7667 36.1281 21.9597 45.1819 22.4353 45.6011C22.6497 45.7506 22.8864 45.8649 23.1367 45.9397C23.2335 41.9893 24.6121 36.4264 30.167 37.3696C33.0049 35.9185 34.9398 37.8937 35.6251 43.5453C36.1241 43.1817 36.5099 42.6841 36.7376 42.1102C36.8183 41.1105 34.4399 28.727 34.4399 28.727L19.9361 30.4845Z" fill="#FF9566"/>
<path d="M29.8362 35.338C29.4483 36.437 29.2732 37.5998 29.3202 38.7644C29.6878 39.0256 30.1399 39.1399 30.5874 39.0847C31.035 39.0295 31.4458 38.8088 31.7389 38.4661C31.3438 36.4989 30.6263 35.3863 29.8362 35.338Z" fill="#FF9566"/>
<path d="M30.1265 35.6282C29.8772 36.5907 29.7981 37.5893 29.8927 38.579C30.0355 38.679 30.1966 38.7499 30.3668 38.7874C30.537 38.825 30.713 38.8285 30.8846 38.7977C31.0562 38.767 31.22 38.7027 31.3666 38.6084C31.5133 38.5141 31.6398 38.3918 31.739 38.2484C31.3842 36.5876 30.7634 35.6524 30.1265 35.6282Z" fill="#FFB882"/>
<path d="M26.821 17.4157C25.9584 16.9159 25.4504 14.3763 27.4821 14.5537C29.5138 14.731 28.2883 17.3593 28.2883 17.3593L26.821 17.4157Z" fill="#FFDD7D"/>
<path d="M18.1218 44.8352L22.8704 47.3345C22.8704 47.3345 18.5088 33.6288 30.2957 35.1445C34.488 33.3224 36.8744 34.7172 36.568 45.972L37.9467 44.9158C37.9467 44.9158 38.0031 31.2101 36.6084 27.0178C35.2136 22.8255 30.5537 17.1819 27.6029 16.2951C27.6029 16.2951 16.9366 20.3262 16.8238 29.5735C16.6968 34.6929 17.1321 39.8108 18.1218 44.8352Z" fill="#FFC34A"/>
<path d="M28.0787 16.4322C27.9238 16.3638 27.765 16.3046 27.6031 16.2548H27.5305C29.8444 22.7046 30.2555 35.0961 30.2555 35.0961C31.0169 34.7362 31.8355 34.5124 32.6742 34.435C31.7793 27.5902 30.32 20.3585 28.0787 16.4322Z" fill="#FFDA66"/>
<path d="M19.936 30.4845C20.323 22.5916 27.9982 17.6818 27.9982 17.6818C30.2717 18.488 34.4479 22.4223 36.4151 26.5502C34.8591 22.4304 30.7716 17.1658 27.6031 15.9807C24.8217 16.4483 16.7111 21.3581 16.6386 29.4445C16.5579 39.1917 18.0978 44.8594 18.0978 44.8594L21.0969 46.4718C20.5165 43.9564 19.7425 34.435 19.936 30.4845Z" fill="#FFAC3E"/>
<path d="M29.7716 34.2012C27.7722 34.0964 23.217 34.3141 23.5476 33.1451C23.8781 31.9761 25.4906 31.9841 26.8289 32.3389C27.9122 32.7808 28.9085 33.4113 29.7716 34.2012Z" fill="#FF9566"/>
<path d="M28.0062 33.9513C27.4096 33.9513 26.0632 33.9513 26.16 33.653C26.2567 33.3547 26.7324 33.3466 27.1274 33.4514C27.4464 33.5674 27.7435 33.7364 28.0062 33.9513Z" fill="#603642"/>
<path d="M30.5376 34.0722C31.892 33.8545 35.004 33.7981 34.6977 32.7339C34.3913 31.6697 33.2949 31.7584 32.4161 32.1937C31.6785 32.6975 31.0414 33.3346 30.5376 34.0722Z" fill="#FF9566"/>
<path d="M31.6746 33.7255C32.1341 33.661 33.158 33.6449 33.1258 33.3224C33.0935 32.9999 32.7307 33.0402 32.4163 33.1692C32.1413 33.3145 31.891 33.5023 31.6746 33.7255Z" fill="#603642"/>
<path d="M32.2146 40.014C31.9651 39.8094 31.6756 39.6592 31.3645 39.5731C31.0535 39.487 30.7279 39.4669 30.4087 39.5142C29.7407 39.5001 29.0933 39.7458 28.6028 40.1995C28.6028 40.3607 29.409 39.9012 30.4087 39.8447C31.4084 39.7883 32.2146 40.1672 32.2146 40.014Z" fill="#FF9566"/>
<path d="M23.4993 30.1701L23.1445 31.4197C25.5077 31.8869 27.7463 32.8455 29.7152 34.2334C29.7152 34.2334 28.9009 32.2501 23.4993 30.1701Z" fill="#C94343"/>
<path d="M35.1169 30.2346L35.383 31.5004C33.5786 31.9205 31.9128 32.7978 30.5457 34.048C30.5457 34.048 31.1261 32.097 35.1169 30.2346Z" fill="#C94343"/>
</g>
</svg>
