<svg width="60" height="60" viewBox="0 0 60 60" fill="none" xmlns="http://www.w3.org/2000/svg">
<mask id="mask0_123_214" style="mask-type:alpha" maskUnits="userSpaceOnUse" x="0" y="0" width="60" height="60">
<rect width="60" height="60" fill="#D9D9D9"/>
</mask>
<g mask="url(#mask0_123_214)">
<path d="M23.1054 40.9042C18.3365 37.9488 17.8579 32.0968 17.8579 32.0968L20.956 35.7322L20.4523 30.5435C22.2322 33.4149 23.6595 36.7817 23.1054 40.9042Z" fill="#FFE5B0"/>
<path d="M19.067 42.5833C14.2981 39.6279 13.8447 33.7759 13.8447 33.7759L16.9428 37.4114L16.4475 32.2227C18.1938 35.1109 19.6296 38.4693 19.067 42.5833Z" fill="#FFE5B0"/>
<path d="M15.3812 44.3969C10.6123 41.4331 10.1589 35.5811 10.1589 35.5811L13.257 39.2249L12.7533 34.0278C14.4997 36.8993 15.9354 40.266 15.3812 44.3969Z" fill="#FFE5B0"/>
<path d="M11.4855 45.9417C5.70903 42.9024 4.69312 36.1436 4.69312 36.1436L8.62243 40.0645L7.61491 34.0866C9.85664 37.3023 11.7961 41.0889 11.4855 45.9417Z" fill="#FFE5B0"/>
<path d="M24.5916 38.7044L24.2642 41.0805L9.42847 47.5957L7.44702 46.2272L28.4118 87.8545L31.7786 88.7612L39.4357 85.4028L41.0477 82.3047L24.5916 38.7044Z" fill="#A82D2D"/>
<path d="M24.5916 38.7044L24.2642 41.0805L9.42847 47.5957L7.44702 46.2272L9.7895 50.8786L22.8704 44.5312L14.2562 59.7447L28.4118 87.8545L31.7786 88.7612L39.4357 85.4028L41.0477 82.3047L24.5916 38.7044Z" fill="#821E1E"/>
<path d="M8.83222 49.997L6.64087 45.4799L24.8433 37.5709L26.4386 42.1551L8.83222 49.997Z" fill="#FFD04D"/>
<path d="M24.8435 37.5458L21.3172 39.0822C21.7972 39.4444 22.1214 39.9758 22.224 40.5683C22.5514 42.9864 18.1939 45.6059 12.4931 46.3699C10.7131 46.6257 8.90848 46.6623 7.11963 46.4791L8.79882 49.997L26.4304 42.1636L24.8435 37.5458Z" fill="#FFAC48"/>
<path d="M45.2373 21.8956C44.3977 17.4542 41.1232 17.1939 41.1232 17.1939C41.1232 17.1939 42.0384 13.9279 40.3844 11.4678C38.7304 9.00782 34.5072 10.8885 34.5072 10.8885C34.5072 10.8885 33.5417 8.08426 29.4696 9.31008C25.3976 10.5359 26.8249 12.5173 26.8249 12.5173C26.3287 12.0999 25.7038 11.8661 25.0554 11.8554C24.407 11.8447 23.7747 12.0577 23.265 12.4586C21.1072 13.8187 22.5513 17.7984 22.5513 17.7984C17.5725 18.5708 16.481 23.5664 16.5314 27.6721C16.5818 31.7777 20.9309 32.2059 20.9309 32.2059C19.8226 34.0866 22.2995 43.9603 30.813 38.2006L37.1268 38.5785C45.6067 37.5457 43.3314 28.5621 43.3314 28.5621C43.3314 28.5621 46.1189 26.3707 45.2373 21.8956Z" fill="#A82D2D"/>
<path d="M45.2372 21.8956C45.2041 21.7256 45.1622 21.5575 45.1113 21.3919H45.0105C44.4885 21.5615 43.9269 21.5671 43.4016 21.408C42.8762 21.2489 42.4121 20.9327 42.0719 20.5019C42.0719 20.5019 42.8612 22.2735 39.2005 22.1811C35.5399 22.0887 35.3803 19.9142 35.3803 19.9142C35.3803 19.9142 31.4594 20.2668 30.603 18.0839C30.3813 17.3572 30.3205 16.591 30.4249 15.8385C30.5293 15.086 30.7964 14.3652 31.2075 13.7264C30.4199 13.3658 29.7631 12.7704 29.3272 12.0218C28.8913 11.2733 28.6976 10.4082 28.7727 9.54517C25.5319 10.7878 26.808 12.5173 26.808 12.5173C26.3118 12.0999 25.6869 11.8661 25.0385 11.8554C24.3902 11.8447 23.7579 12.0577 23.2481 12.4586C21.0904 13.8187 22.5345 17.7984 22.5345 17.7984C17.5557 18.5708 16.4642 23.5664 16.5146 27.6721C16.565 31.7777 20.9141 32.2059 20.9141 32.2059C19.8058 34.0866 22.2826 43.9603 30.7961 38.2006L37.1099 38.5784C45.6066 37.5457 43.3313 28.562 43.3313 28.562C43.3313 28.562 46.1188 26.3707 45.2372 21.8956Z" fill="#841F1F"/>
<path d="M90.903 108.861C77.8977 86.3851 49.4353 46.3027 47.6553 45.1021C45.8754 43.9015 46.8997 59.8119 48.7972 61.8941C50.6947 63.9763 90.0634 109.273 90.0634 109.273L90.903 108.861Z" fill="#FFB882"/>
<path d="M48.0836 51.8189C47.7645 51.4327 47.0341 50.8198 46.8074 52.1715C47.076 56.2855 47.8065 60.8613 48.7636 61.9108C50.7031 63.9679 90.0634 109.273 90.0634 109.273L89.0727 107.316C79.728 95.3352 49.9475 54.069 48.0836 51.8189Z" fill="#FF9566"/>
<path d="M32.3662 25.0022L29.1925 26.7486C29.1925 26.7486 32.5509 37.7221 27.5889 44.2374L41.2995 40.9042C38.5206 39.299 36.2249 36.9755 34.6532 34.1777C33.0813 31.3798 32.2914 28.2105 32.3662 25.0022Z" fill="#FFB882"/>
<path d="M47.9073 45.354C47.4455 44.9342 37.6306 38.0159 35.9598 38.2594C34.289 38.5029 25.1877 46.1264 25.1877 46.1264L40.3005 69.1566L52.3991 65.1685C52.3991 65.1685 48.3774 45.7654 47.9073 45.354Z" fill="#FFB882"/>
<path d="M26.2539 44.8839C26.0104 45.0854 25.1541 46.1265 25.1541 46.1265L40.2668 69.1566L52.399 65.1685C52.399 65.1685 52.1051 63.7412 51.8701 62.6497L26.2539 44.8839Z" fill="#FF9566"/>
<path d="M2.08203 122.966C8.05997 96.3848 23.6681 47.4026 24.9947 45.6647C26.3212 43.9267 29.6628 60.2737 28.4538 62.9352C27.2448 65.5967 2.93003 123.185 2.93003 123.185L2.08203 122.966Z" fill="#FFB882"/>
<path d="M24.9947 45.6646C24.1674 47.4752 23.466 49.3408 22.8957 51.248C22.5346 52.2975 23.7353 64.1778 23.0216 65.8654C22.1148 68.0231 7.70733 108.979 2.23315 122.958L2.95521 123.109C2.95521 123.109 27.3035 65.5631 28.479 62.9016C29.6544 60.2401 26.3212 43.9351 24.9947 45.6646Z" fill="#FF9566"/>
<path d="M38.403 66.5286C30.7711 84.1602 29.5789 94.5712 29.5789 94.5712C38.292 91.3796 46.1891 86.2955 52.7014 79.6851C52.7014 79.6851 42.7857 71.2892 44.8679 64.2701C46.9501 57.2511 38.403 66.5286 38.403 66.5286Z" fill="#C1B036"/>
<path d="M44.0619 76.7634C45.2866 76.4625 46.5634 76.4413 47.7975 76.7014C49.0315 76.9616 50.1911 77.4965 51.1901 78.2663C48.5034 75.5628 43.3063 69.5093 44.8679 64.2702C46.9585 57.2931 38.403 66.5287 38.403 66.5287C30.7711 84.1602 29.5789 94.5713 29.5789 94.5713C29.5789 94.5713 33.5334 79.5257 44.0619 76.7634Z" fill="#AA9729"/>
<path d="M27.589 67.3263C27.9248 68.7032 34.9942 75.1597 34.9942 75.1597L46.5051 72.3471C46.5051 72.3471 53.4402 66.0249 53.2219 65.0678C53.0036 64.1106 25.6831 45.035 25.6831 45.035L25.1458 45.6059C25.1458 45.6059 27.1356 65.5128 27.589 67.3263Z" fill="#C1B036"/>
<path d="M25.5234 45.5471V49.4177C25.8302 49.5968 26.1698 49.7125 26.5222 49.758C26.8746 49.8034 27.2325 49.7775 27.5747 49.682C27.9169 49.5864 28.2364 49.4231 28.5143 49.2018C28.7922 48.9804 29.0228 48.7055 29.1925 48.3934L25.5234 45.5471Z" fill="#AA9729"/>
<path d="M26.741 48.2758C29.1338 49.5688 50.6023 65.6638 50.8122 66.5118C51.0221 67.3598 52.6006 65.815 52.6006 65.815L26.8417 47.0248L26.741 48.2758Z" fill="#AA9729"/>
<path d="M45.8251 67.6117C38.3947 69.1902 30.3345 72.6493 26.2877 48.301C26.1617 47.5454 25.4481 47.9903 25.3137 47.1843C25.7839 51.8861 26.7494 66.1844 27.1189 67.6873C27.4631 69.0391 34.6501 75.8314 34.6501 75.8314L46.7654 72.8928C46.7654 72.8928 52.1053 67.2675 53.1128 65.5295C50.7447 66.4221 48.3073 67.1186 45.8251 67.6117Z" fill="#AA9729"/>
<path d="M39.3012 15.4476C38.8777 14.7484 38.3349 14.129 37.6975 13.6172C37.4954 14.3309 37.4954 15.0866 37.6975 15.8002C37.8822 16.2872 38.6799 16.3375 38.789 16.3124C38.8982 16.2872 39.4943 15.9429 39.3012 15.4476Z" fill="#FFD04D"/>
<path d="M39.2173 23.1047C39.0094 22.3395 38.9439 21.5426 39.0242 20.7538C39.7392 20.9036 40.3684 21.325 40.779 21.9292C40.9721 22.3826 40.3004 23.0459 40.1997 23.1131C40.0989 23.1802 39.4105 23.4573 39.2173 23.1047Z" fill="#FFD04D"/>
<path d="M39.3099 20.5271C38.6948 19.949 38.171 19.281 37.7566 18.5456C38.5393 18.4647 39.3275 18.6353 40.0067 19.0326C40.4517 19.36 40.2418 20.1577 40.1914 20.2416C40.1411 20.3256 39.6877 20.7538 39.3099 20.5271Z" fill="#FFD04D"/>
<path d="M38.0083 18.0671C37.4447 17.6489 36.9564 17.1378 36.5642 16.5558C37.3642 16.3899 38.1966 16.4932 38.9319 16.8497C39.2929 17.1268 38.9319 17.7732 38.8227 17.8404C38.7136 17.9076 38.3022 18.235 38.0083 18.0671Z" fill="#FFD04D"/>
<path d="M39.5447 18.0083C39.5546 17.1194 39.7282 16.2399 40.0568 15.4139C40.623 16.0167 41.045 16.7402 41.291 17.5297C41.4254 18.151 40.7453 18.6632 40.6278 18.6968C40.5102 18.7304 39.637 18.722 39.5447 18.0083Z" fill="#FFD04D"/>
<path d="M40.4683 20.6698C40.7298 19.7938 41.1417 18.9699 41.6857 18.235C42.0535 19.0224 42.2317 19.885 42.2063 20.7538C42.1223 21.3667 41.3163 21.5934 41.2071 21.5934C41.098 21.5934 40.3927 21.2827 40.4683 20.6698Z" fill="#FFD04D"/>
<path d="M39.906 23.9191C40.5859 23.1451 41.3852 22.4846 42.2736 21.9628C42.2972 22.8839 42.0893 23.7961 41.6691 24.616C41.4959 24.8055 41.2761 24.9462 41.0315 25.0243C40.787 25.1023 40.5263 25.115 40.2754 25.0609C40.1578 25.019 39.5365 24.49 39.906 23.9191Z" fill="#FFD04D"/>
<path d="M30.1582 15.2125C30.7444 14.5271 31.4393 13.9428 32.2152 13.4829C32.2817 14.2833 32.131 15.0868 31.7786 15.8086C31.4763 16.304 30.6451 16.2452 30.5444 16.2116C30.4436 16.178 29.8475 15.7162 30.1582 15.2125Z" fill="#FFD04D"/>
<path d="M28.5545 23.3733C28.9368 22.6053 29.1784 21.775 29.2681 20.9217C28.474 20.9887 27.734 21.3512 27.1943 21.9376C26.8921 22.391 27.4462 23.1886 27.5385 23.2726C27.6309 23.3565 28.2774 23.7259 28.5545 23.3733Z" fill="#FFD04D"/>
<path d="M29.033 20.6195C29.7988 20.0827 30.4855 19.4412 31.0732 18.7136C30.2589 18.5268 29.4064 18.6032 28.6383 18.9319C28.1094 19.2257 28.143 20.0989 28.1766 20.1997C28.2102 20.3004 28.5796 20.8294 29.033 20.6195Z" fill="#FFD04D"/>
<path d="M30.9054 18.1762C31.5875 17.8042 32.2055 17.3251 32.7357 16.7573C31.9214 16.4657 31.0312 16.4657 30.2169 16.7573C29.7888 17.0008 30.0574 17.7396 30.1162 17.8236C30.175 17.9075 30.578 18.277 30.9054 18.1762Z" fill="#FFD04D"/>
<path d="M29.3354 17.9076C29.5106 16.9726 29.5106 16.0131 29.3354 15.0781C28.6205 15.6468 28.0292 16.3553 27.5974 17.1603C27.5262 17.4001 27.5289 17.6558 27.6053 17.894C27.6817 18.1322 27.8282 18.3417 28.0256 18.4953C28.2778 18.582 28.5534 18.5696 28.7967 18.4604C29.04 18.3512 29.2326 18.1536 29.3354 17.9076Z" fill="#FFD04D"/>
<path d="M27.7988 20.6195C27.7326 19.6528 27.4937 18.7059 27.0936 17.8236C26.525 18.6075 26.1378 19.508 25.9601 20.4599C25.9097 21.1232 26.6905 21.4591 26.7997 21.4675C26.9088 21.4759 27.7484 21.2828 27.7988 20.6195Z" fill="#FFD04D"/>
<path d="M27.6644 24.1542C27.1367 23.2408 26.4517 22.4279 25.641 21.7529C25.4189 22.7107 25.4363 23.7084 25.6913 24.6579C25.9432 25.3044 26.9088 25.3464 27.0347 25.3128C27.1606 25.2792 27.9331 24.8007 27.6644 24.1542Z" fill="#FFD04D"/>
<path d="M26.1365 46.9744C26.1365 46.9744 51.4923 65.0174 51.6183 66.0921C51.7106 66.7637 44.3725 70.2229 39.0663 72.6241C36.0689 73.9843 33.7264 75.0086 33.7264 75.0086L34.566 75.8482C34.566 75.8482 55.2117 68.1155 53.5074 65.1349C52.9112 64.0854 26.6402 45.5975 26.6402 45.5975L26.1365 46.9744Z" fill="#FFE5B0"/>
<path d="M30.6703 45.2868L35.4476 44.4472C28.4286 43.4985 28.4789 45.757 30.6703 45.2868Z" fill="#FF9566"/>
<path d="M40.5271 43.6077L37.1687 44.3213C41.3667 41.2316 42.0887 43.3726 40.5271 43.6077Z" fill="#FF9566"/>
<path d="M44.9182 43.1542C44.6747 42.6673 44.3977 42.5749 44.0786 42.6421C46.0097 63.632 32.6433 75.5291 32.6433 75.5291L33.6424 77.3259C33.6424 77.3259 48.1675 62.9268 44.9182 43.1542Z" fill="#A82D2D"/>
<g style="mix-blend-mode:multiply" opacity="0.6">
<path d="M40.5271 40.392L40.0485 40.1065C37.6161 38.4212 35.6406 36.1578 34.2997 33.5199C32.9587 30.882 32.2943 27.9521 32.3662 24.9938L29.1925 26.7485C29.1925 26.7485 32.4585 37.5458 27.7064 44.061L26.7493 44.8335C28.9527 44.7385 31.1358 44.3691 33.2478 43.7336C35.8362 43.0134 38.2935 41.8854 40.5271 40.392Z" fill="#C94343"/>
</g>
<path d="M36.7909 36.236C34.7466 35.5848 32.9395 34.3455 31.5956 32.6731C30.2516 31.0006 29.4304 28.9691 29.2345 26.8325C28.9407 23.9863 31.3251 19.2761 34.0706 19.2761C38.2182 19.2761 39.3769 23.8016 39.6707 27.3782C40.0234 31.7525 36.7909 36.236 36.7909 36.236Z" fill="#FFB882"/>
<path d="M28.4452 26.5638C27.6056 25.5227 26.3546 26.7905 26.6905 27.6553C27.0263 28.5201 28.9154 29.3345 29.0833 28.8223C29.1636 28.0159 28.9356 27.209 28.4452 26.5638Z" fill="#FFB882"/>
<path d="M28.227 26.95C27.6981 26.3035 26.9424 27.0928 27.1439 27.6217C27.3455 28.1507 28.5209 28.646 28.6216 28.3438C28.6741 27.8457 28.5328 27.3466 28.227 26.95Z" fill="#EA7B59"/>
<path d="M28.4536 27.4706C28.1094 27.0508 27.614 27.5629 27.7484 27.9072C27.8827 28.2514 28.6384 28.5704 28.7055 28.3689C28.7396 28.0483 28.6495 27.7267 28.4536 27.4706Z" fill="#FFB882"/>
<path d="M23.6512 46.3783C23.7705 47.0841 24.1364 47.7246 24.6837 48.1859C25.231 48.6472 25.9244 48.8992 26.6401 48.8971C26.9699 48.9148 27.2996 48.8606 27.6064 48.7385C27.9133 48.6163 28.1899 48.429 28.4174 48.1896C28.6449 47.9502 28.8177 47.6642 28.924 47.3515C29.0302 47.0389 29.0674 46.7068 29.033 46.3783C28.9121 45.6733 28.5458 45.0337 27.9988 44.5728C27.4518 44.1118 26.7594 43.8592 26.044 43.8596C25.7142 43.842 25.3845 43.8962 25.0777 44.0182C24.7708 44.1404 24.4942 44.3277 24.2667 44.5671C24.0392 44.8065 23.8664 45.0925 23.7601 45.4052C23.6538 45.7178 23.6167 46.0499 23.6512 46.3783Z" fill="#FFD04D"/>
<path d="M24.5748 45.9417C24.6604 46.466 24.9293 46.9428 25.3338 47.2873C25.7382 47.6317 26.2518 47.8214 26.783 47.8224C27.0271 47.834 27.2708 47.7922 27.4971 47.6998C27.7233 47.6075 27.9267 47.4668 28.093 47.2878C28.2593 47.1087 28.3845 46.8954 28.4598 46.6629C28.5352 46.4304 28.5589 46.1843 28.5293 45.9417C28.4435 45.4182 28.1743 44.9424 27.7697 44.5994C27.3652 44.2563 26.8517 44.0684 26.3212 44.0694C26.0779 44.058 25.835 44.0997 25.6094 44.1916C25.3838 44.2834 25.1809 44.4233 25.0147 44.6015C24.8486 44.7795 24.7232 44.9917 24.6472 45.2231C24.5712 45.4546 24.5465 45.6997 24.5748 45.9417Z" fill="#FFE780"/>
<path d="M38.0672 26.4294C37.9496 25.7494 37.5046 25.2288 37.068 25.2708C36.6314 25.3128 36.3796 25.9089 36.4971 26.5974C36.6146 27.2858 37.0596 27.798 37.4962 27.756C37.9328 27.714 38.1847 27.1179 38.0672 26.4294Z" fill="#66423B"/>
<path d="M33.8104 26.8577C33.7013 26.06 33.2311 25.4387 32.7609 25.4555C32.2907 25.4723 31.9969 26.1356 32.106 26.9332C32.2152 27.7308 32.6853 28.3521 33.1555 28.327C33.6257 28.3018 33.9279 27.6469 33.8104 26.8577Z" fill="#66423B"/>
<path d="M31.2915 26.7653C32.013 26.1078 32.944 25.7272 33.9194 25.6906C33.7562 25.4995 33.5382 25.3632 33.295 25.3001C33.0516 25.237 32.7948 25.2503 32.5593 25.338C31.6609 25.5899 31.2915 26.7653 31.2915 26.7653Z" fill="#66423B"/>
<path d="M38.5288 25.7914C37.7305 25.4135 36.8273 25.3188 35.968 25.5227C36.0516 25.318 36.1987 25.1455 36.3876 25.0307C36.5765 24.9158 36.7973 24.8646 37.0175 24.8846C37.3194 24.9199 37.6102 25.0189 37.8708 25.1753C38.1313 25.3316 38.3557 25.5417 38.5288 25.7914Z" fill="#66423B"/>
<path d="M30.7709 25.338L30.6953 25.1785C30.8663 24.6989 31.1442 24.2646 31.5079 23.9082C31.8715 23.5518 32.3114 23.2828 32.7943 23.1215L32.9622 23.7092C32.4989 23.801 32.062 23.9949 31.6829 24.2766C31.3039 24.5583 30.9924 24.9209 30.7709 25.338Z" fill="#A82D2D"/>
<path d="M38.4451 24.2801C38.0814 23.9441 37.6516 23.6877 37.1833 23.5272C36.7148 23.3668 36.2181 23.3057 35.7248 23.3481L35.666 22.752C36.2061 22.7562 36.7392 22.8752 37.2299 23.101C37.7206 23.3267 38.1577 23.6542 38.5123 24.0618L38.4451 24.2801Z" fill="#A82D2D"/>
<path d="M36.5473 28.8643C36.5473 28.8643 36.5473 28.9063 36.5473 28.9231C36.4937 29.1372 36.3578 29.3215 36.1693 29.4363C35.9807 29.5509 35.7546 29.5868 35.5398 29.536C35.4039 29.502 35.2764 29.4405 35.1652 29.3553C35.054 29.2701 34.9615 29.163 34.8933 29.0406C34.8926 29.2636 34.9693 29.48 35.1101 29.653C35.2509 29.8259 35.4472 29.9448 35.6657 29.9894C35.7716 30.0235 35.8836 30.0345 35.9941 30.0218C36.1047 30.009 36.2111 29.9728 36.3066 29.9157C36.402 29.8584 36.484 29.7814 36.5473 29.6899C36.6105 29.5984 36.6535 29.4944 36.6733 29.3849C36.6892 29.2023 36.645 29.0195 36.5473 28.8643Z" fill="#EA7B59"/>
<path d="M34.23 31.4587L37.2189 31.232C37.2189 31.232 37.0846 32.7181 35.8588 32.7769C34.633 32.8356 34.23 31.4587 34.23 31.4587Z" fill="#491D2E"/>
<path d="M34.4401 31.5007L36.9589 31.3076C36.9589 31.3076 37.2276 31.9457 35.7919 32.0716C34.3562 32.1975 34.4401 31.5007 34.4401 31.5007Z" fill="#FFEBEB"/>
<path d="M36.5725 33.1966C36.5725 33.0203 36.3206 33.1966 35.9932 33.2386C35.6657 33.2806 35.397 33.0959 35.4138 33.2806C35.4306 33.4653 35.7077 33.5913 36.0267 33.5661C36.3458 33.5409 36.5893 33.3478 36.5725 33.1966Z" fill="#EF8F6F"/>
</g>
</svg>
