<svg width="60" height="60" viewBox="0 0 60 60" fill="none" xmlns="http://www.w3.org/2000/svg">
<mask id="mask0_123_332" style="mask-type:alpha" maskUnits="userSpaceOnUse" x="0" y="0" width="60" height="60">
<rect width="60" height="60" fill="#D9D9D9"/>
</mask>
<g mask="url(#mask0_123_332)">
<path d="M50.265 56.6171C54.4972 53.1104 55.905 52.4886 57.1747 52.2985C57.5461 51.2621 59.9299 40.8199 56.1209 39.5761C54.3935 39.0061 51.3706 38.9543 50.1786 42.1673C48.2785 47.1249 50.265 56.6171 50.265 56.6171Z" fill="#6D5155"/>
<path d="M54.4456 51.7458C52.2863 51.4521 50.7576 47.6086 51.0426 43.1605C51.1041 42.1571 51.2632 41.162 51.5176 40.1894C50.8922 40.706 50.4202 41.3841 50.153 42.15C48.2788 47.125 50.2653 56.6171 50.2653 56.6171C53.4524 55.287 56.8208 53.1104 57.1749 52.2986C57.5363 51.0842 57.7963 49.842 57.9523 48.5846C57.0886 50.6402 55.8016 51.9272 54.4456 51.7458Z" fill="#594044"/>
<path d="M49.8333 54.1642C50.0405 55.6411 50.2478 56.6171 50.2478 56.6171C52.434 55.709 54.4996 54.5341 56.3974 53.1191C56.5408 52.7967 56.5945 52.4416 56.5529 52.0913C55.8187 52.6441 53.0981 53.9828 52.5539 53.9051C52.0098 53.8273 50.8956 51.2449 51.4829 50.1652C50.5329 50.6403 49.9628 53.9137 49.8333 54.1642Z" fill="#443134"/>
<path d="M56.5699 52.0568C55.7394 53.6805 54.7188 55.1998 53.5297 56.5826C53.5297 56.5826 51.6554 53.2314 51.3877 51.6335C53.642 53.0414 56.5699 52.0568 56.5699 52.0568Z" fill="#594044"/>
<path d="M57.9175 43.4715C57.8053 41.6145 57.0538 40.0858 56.1901 40.0167C55.3264 39.9476 54.765 41.4763 54.8773 43.3333C54.9896 45.1903 55.741 46.719 56.6047 46.7449C57.4684 46.7708 58.0385 45.3285 57.9175 43.4715Z" fill="#896D72"/>
<path d="M56.0606 43.4802C55.9483 41.6232 54.9119 40.0944 53.7458 40.0253C52.5798 39.9562 51.7248 41.485 51.8371 43.342C51.9493 45.1989 52.9771 46.7277 54.1432 46.7536C55.3092 46.7795 56.1729 45.3371 56.0606 43.4802Z" fill="#896D72"/>
<path d="M54.4801 42.4783C54.4801 42.2192 54.1865 41.7355 53.9187 41.7355C53.651 41.7355 53.4523 42.2192 53.4351 42.4783H54.4801Z" fill="#49383C"/>
<path d="M57.2267 42.4783C57.2267 42.2192 56.9331 41.7355 56.6653 41.7355C56.3976 41.7355 56.1989 42.2192 56.1816 42.4783H57.2267Z" fill="#49383C"/>
<path d="M51.1289 43.4456C47.3458 47.3927 49.9024 54.5096 49.9024 54.5096C49.9024 54.5096 50.7661 51.1757 52.4935 50.3466L51.1289 43.4456Z" fill="#6D5155"/>
<path d="M49.8939 47.2373C49.84 46.4528 49.8982 45.6647 50.0666 44.8966C47.415 48.6192 50.2652 56.6171 50.2652 56.6171C50.2652 56.6171 50.5762 52.4109 51.4831 51.2103C50.6885 50.8475 50.0148 49.2065 49.8939 47.2373Z" fill="#594044"/>
<path d="M52.3209 49.932C52.2763 50.7061 52.4093 51.4801 52.7096 52.1949C53.096 51.6402 53.3012 50.9794 53.2969 50.3034L52.3209 49.932Z" fill="#6D5155"/>
<path d="M51.5347 49.1115C51.4958 49.8853 51.6285 50.658 51.9234 51.3744C52.3103 50.8195 52.5183 50.1594 52.5193 49.4829L51.5347 49.1115Z" fill="#6D5155"/>
<path d="M53.055 50.4589C53.016 51.2326 53.1488 52.0054 53.4436 52.7218C53.8347 52.1688 54.043 51.5075 54.0396 50.8303L53.055 50.4589Z" fill="#6D5155"/>
<path d="M53.72 51.003C53.6862 51.7652 53.8188 52.5256 54.1087 53.2314C54.4997 52.6784 54.7081 52.0171 54.7046 51.3398L53.72 51.003Z" fill="#6D5155"/>
<path d="M54.5233 50.7871C54.4802 51.5611 54.6131 52.3348 54.912 53.05C55.2984 52.4953 55.5035 51.8345 55.4993 51.1585L54.5233 50.7871Z" fill="#6D5155"/>
<path d="M55.1883 50.1652C55.1493 50.939 55.2821 51.7117 55.577 52.4281C55.9639 51.8732 56.1718 51.2131 56.1729 50.5366L55.1883 50.1652Z" fill="#6D5155"/>
<path d="M55.9225 49.5779C55.8794 50.3519 56.0123 51.1255 56.3111 51.8408C56.6975 51.2861 56.9027 50.6253 56.8985 49.9493L55.9225 49.5779Z" fill="#6D5155"/>
<path d="M56.5704 48.6624C56.5314 49.4361 56.6641 50.2089 56.959 50.9253C57.35 50.3723 57.5584 49.711 57.555 49.0337L56.5704 48.6624Z" fill="#6D5155"/>
<path d="M51.4572 46.7277C51.5501 48.5112 51.4137 50.2993 51.0513 52.0481L51.3536 51.5385L51.5522 52.2467C51.8944 50.4196 51.8621 48.542 51.4572 46.7277Z" fill="#594044"/>
<path d="M55.6116 42.9706C55.6116 42.4869 55.3524 42.3487 55.2833 42.0291C55.1365 42.0291 55.0156 42.3746 55.007 42.8928C54.9983 43.411 55.1452 44.0243 55.3352 44.0156C55.5252 44.007 55.6547 43.5492 55.6116 42.9706Z" fill="#6D5155"/>
<path d="M55.8447 43.5924C55.7843 43.2037 55.6115 42.2364 55.2833 42.0204C54.981 42.0204 54.9119 43.0396 55.0415 43.4024L55.8447 43.5924Z" fill="#D8B5AB"/>
<path d="M22.6785 58.1718L21.4434 56.0385C20.0355 64.641 17.4444 82.0965 18.6968 82.5974C19.9491 83.0984 19.7073 80.0063 22.2639 80.9391C24.8205 81.8719 22.4107 82.8911 25.3041 83.3057C28.1975 83.7203 25.0191 80.7923 27.3166 80.8614C29.614 80.9305 24.1036 62.5335 22.6785 58.1718Z" fill="#C11E1E"/>
<path d="M17.9108 33.0552C14.4992 26.491 11.0012 17.5085 14.9224 13.3454C18.8436 9.18232 13.9896 6.52211 13.9896 6.52211C9.01465 1.57306 0.248025 3.70642 0.584871 14.71C0.921716 25.7137 12.9618 29.8163 13.9032 38.4361C14.8447 47.0559 8.43597 49.3533 9.03192 50.528C9.41196 51.2794 11.6921 50.1911 13.4714 48.2564C13.6151 48.3922 13.8011 48.4745 13.9982 48.4896C16.2093 48.7574 21.3225 39.628 17.9108 33.0552Z" fill="#E0403D"/>
<path d="M14.7236 31.4659C11.2688 24.8931 11.001 17.5257 14.9223 13.3281C15.6424 12.6358 16.1489 11.7515 16.3819 10.7802C15.5182 12.3866 13.3331 6.24569 11.1997 7.12667C7.15755 8.8109 3.42634 15.3405 2.15669 12.3607C0.887038 9.38095 3.02039 5.89157 6.77752 4.12097C3.32269 4.82057 0.35154 8.22358 0.550193 14.6927C0.895676 25.705 12.9271 29.799 13.8686 38.4188C14.81 47.0386 8.40129 49.336 8.99725 50.5107C9.37728 51.2621 11.6575 50.1738 13.4367 48.2391C13.5805 48.3749 13.7664 48.4572 13.9636 48.4723C16.2092 48.7574 18.1353 38.0387 14.7236 31.4659Z" fill="#CC2323"/>
<path d="M14.2055 7.61035C13.4108 6.47026 12.3571 6.25433 11.6143 6.78983C10.8715 7.32533 10.6643 8.40496 11.4589 9.54506C12.2535 10.6851 13.7131 11.4452 14.4818 10.9097C15.2505 10.3742 15.0087 8.75045 14.2055 7.61035Z" fill="#FFE05C"/>
<path d="M12.6767 9.72643C7.57216 26.7501 16.0019 37.201 28.6552 41.6836L37.3614 24.2626C33.5008 19.6052 28.494 16.0332 22.8339 13.8981C13.9895 10.6074 13.7822 6.0384 12.6767 9.72643Z" fill="#FFE05C"/>
<path d="M23.9135 25.5064C17.1593 20.1169 13.0135 13.5009 13.0049 8.83685C12.8736 9.11596 12.7639 9.40471 12.6767 9.70056C7.57216 26.7242 16.0019 37.1751 28.6552 41.6577L33.8375 31.2932C30.2501 29.8892 26.9023 27.937 23.9135 25.5064Z" fill="#FFBF4D"/>
<path d="M15.7169 25.8778C13.913 22.9715 12.5917 19.7922 11.8043 16.4634C11.0273 21.3289 12.0862 26.3096 14.7754 30.4382L15.7169 25.8778Z" fill="#FFDA73"/>
<path d="M17.5134 28.7539L16.6497 32.9429C18.0335 34.5566 19.5984 36.0056 21.3137 37.2614C20.228 34.3481 18.9587 31.5066 17.5134 28.7539Z" fill="#FFDA73"/>
<path d="M26.4095 17.5257C25.2176 18.8904 32.6109 23.3298 32.6109 23.3298L31.419 23.7271C31.419 23.7271 25.563 18.4931 24.0775 18.8385C22.5919 19.184 20.6226 22.7079 29.8297 26.3442L35.4611 23.6407C33.2414 20.6005 27.61 16.161 26.4095 17.5257Z" fill="#842320"/>
<path d="M33.4402 46.4427C28.8453 50.4071 27.9557 46.3736 27.9557 46.3736C27.9557 46.3736 25.3646 46.8313 24.0604 42.7719C22.9807 39.4121 22.4711 29.5399 30.4 26.7501C38.3288 23.9604 36.2559 44.0243 33.4402 46.4427Z" fill="#842320"/>
<path d="M31.4103 44.5943C35.2192 48.3946 36.3075 44.5252 36.3075 44.5252C36.3075 44.5252 38.5877 44.9657 40.0474 41.0704C41.2566 37.8228 42.4312 28.3911 35.5561 25.7137C28.681 23.0362 29.0869 42.2968 31.4103 44.5943Z" fill="#842320"/>
<path d="M47.104 50.0184C60.9233 61.7562 69.2494 72.4748 72.3156 75.0659C75.3818 77.657 73.1793 82.5715 67.712 80.0149C62.2448 77.4583 48.0454 67.0593 46.914 64.8741C45.7825 62.689 47.104 50.0184 47.104 50.0184Z" fill="#FFB882"/>
<path d="M72.3155 75.0659C72.1773 74.945 72.0132 74.8068 71.8491 74.6513C70.9669 74.9477 70.0331 75.0592 69.1058 74.9789C68.1786 74.8987 67.2778 74.6284 66.4596 74.1849C57.7534 69.0631 50.4724 52.4541 46.8103 51.7717C46.698 54.6651 46.413 63.95 46.888 64.8742C48.0454 67.0939 62.2533 77.4584 67.712 80.0063C73.1706 82.5542 75.3903 77.6225 72.3155 75.0659Z" fill="#FF9566"/>
<path d="M4.82568 86.916C7.30452 73.6926 18.645 59.0182 22.1516 56.1593C25.6583 53.3005 26.332 66.7829 26.332 66.7829C26.332 66.7829 12.5127 79.7386 9.92156 85.1281C7.33044 90.5176 4.82568 86.916 4.82568 86.916Z" fill="#FFB882"/>
<path d="M22.1515 56.168C21.5469 56.6603 21.6764 64.1486 21.6764 64.1486C21.6764 64.1486 9.01449 79.298 7.07979 84.938C6.79922 85.9533 6.27435 86.8844 5.55103 87.6501C6.5011 88.3151 8.21124 88.7297 9.92138 85.1367C12.5125 79.7558 26.7896 66.8434 26.7896 66.8434C26.7896 66.8434 25.6495 53.3091 22.1515 56.168Z" fill="#FF9566"/>
<path d="M32.2741 75.8951C26.2973 70.946 21.5555 57.3599 22.1515 56.168C22.7474 54.9761 30.849 48.3947 33.7511 48.2478C36.6531 48.101 44.1155 48.4465 46.4389 49.552C48.7623 50.6576 50.7574 57.0663 51.3275 58.3446C51.8975 59.6228 32.991 76.4997 32.2741 75.8951Z" fill="#FFB882"/>
<path d="M23.8789 57.3253C23.7939 57.0902 23.659 56.8763 23.4833 56.6985C23.3076 56.5206 23.0954 56.383 22.8614 56.2951C22.6274 56.2072 22.377 56.1712 22.1277 56.1895C21.8784 56.2078 21.636 56.28 21.4173 56.4012C20.9623 56.6914 20.6256 57.1341 20.4673 57.6501C20.309 58.166 20.3396 58.7214 20.5536 59.2168C20.6385 59.452 20.7735 59.6658 20.9492 59.8437C21.1249 60.0216 21.337 60.1592 21.5711 60.2471C21.8051 60.3349 22.0555 60.371 22.3048 60.3527C22.5541 60.3343 22.7965 60.2621 23.0152 60.141C23.4701 59.8508 23.8069 59.408 23.9652 58.8921C24.1234 58.3762 24.0928 57.8208 23.8789 57.3253Z" fill="#FF9566"/>
<path d="M44.5562 57.8004C42.9065 57.1526 21.953 55.9866 21.8493 56.2026C21.7787 56.4861 21.7787 56.7827 21.8493 57.0663C25.4686 58.0229 28.9514 59.4364 32.2138 61.2725L27.8089 65.427C27.8089 65.427 24.5355 62.2053 22.5576 59.7524C24.0691 64.5632 27.7398 72.8635 32.0583 76.4306C32.7925 77.0438 52.5368 60.5643 51.9236 59.2774C51.725 58.8628 45.0226 58.9664 44.5562 57.8004Z" fill="#FF9566"/>
<path d="M27.2646 69.8059C26.2455 73.2607 36.3077 79.8422 36.3077 79.8422C36.3077 79.8422 47.1213 73.7962 50.127 75.9469C51.2584 74.9277 56.3802 69.2359 56.1729 67.5257C55.9656 65.8156 52.2949 57.6276 51.2671 56.9453C50.2393 56.263 32.3864 56.3839 27.2646 69.8059Z" fill="#E84343"/>
<path d="M21.2358 56.263L20.6484 56.7035C29.7745 57.9668 38.5985 60.8632 46.6978 65.2542L51.2669 57.239C41.3541 55.4847 31.2415 55.156 21.2358 56.263Z" fill="#E84343"/>
<path d="M22.5488 56.8071L22.2292 56.8935C29.6212 58.7785 36.8949 61.1002 44.0119 63.8463C39.9007 60.8234 31.6437 57.8263 22.5488 56.8071Z" fill="#D62525"/>
<path d="M32.3 34.964L29.968 35.3354C29.968 35.3354 33.3105 45.0089 29.1042 50.5798L43.2086 48.982C34.8565 44.0156 32.3 34.964 32.3 34.964Z" fill="#FFB882"/>
<path d="M27.7224 34.4544C24.7081 28.9871 27.0401 23.4162 30.7972 22.2243C34.5543 21.0324 35.5735 23.9517 35.5735 23.9517C35.5735 23.9517 35.6253 22.1379 36.6531 22.017C36.9063 21.9598 37.1708 21.9784 37.4135 22.0706C37.6562 22.1628 37.8664 22.3244 38.0178 22.5352C38.0178 22.5352 37.4477 20.0823 39.892 21.0497C42.3363 22.017 42.9064 26.681 38.6396 30.3259C34.3729 33.9707 27.7224 34.4544 27.7224 34.4544Z" fill="#A83E36"/>
<path d="M31.2636 25.8518C30.9068 25.3239 30.6827 24.7177 30.6105 24.0846C30.5384 23.4515 30.6202 22.8103 30.849 22.2156C27.0919 23.4076 24.2503 29.1253 27.5324 34.9553C27.5324 34.9553 34.4421 33.9275 38.6915 30.2913C39.3248 29.7544 39.8904 29.1425 40.3757 28.4689C36.489 29.7903 32.6974 28.4861 31.2636 25.8518Z" fill="#842320"/>
<path d="M23.6975 55.7534C23.4516 55.3123 23.0421 54.9854 22.5575 54.8433C22.0728 54.7011 21.5517 54.755 21.1064 54.9933C20.6638 55.2515 20.341 55.6741 20.2083 56.169C20.0757 56.664 20.1439 57.1914 20.3982 57.6363C20.6423 58.0793 21.0524 58.4073 21.5382 58.5482C22.0241 58.6891 22.546 58.6314 22.9893 58.3877C23.4314 58.1312 23.754 57.7102 23.8867 57.2166C24.0194 56.723 23.9514 56.197 23.6975 55.7534Z" fill="#FFE05C"/>
<path d="M22.7733 56.2716C22.7263 56.1575 22.6553 56.0547 22.5652 55.9703C22.475 55.8859 22.3678 55.8218 22.2508 55.7824C22.1339 55.7429 22.0097 55.729 21.8869 55.7415C21.7641 55.7541 21.6454 55.7929 21.5388 55.8552C21.4322 55.9175 21.3402 56.002 21.269 56.1029C21.1979 56.2038 21.1491 56.3188 21.1262 56.4401C21.1032 56.5614 21.1065 56.6862 21.1359 56.8062C21.1652 56.9261 21.22 57.0383 21.2964 57.1353C21.4073 57.3312 21.5904 57.4761 21.8066 57.539C22.0228 57.6019 22.255 57.578 22.4537 57.4722C22.555 57.4158 22.6439 57.3396 22.7152 57.2481C22.7864 57.1566 22.8384 57.0517 22.8683 56.9397C22.8981 56.8277 22.9051 56.7108 22.8887 56.596C22.8724 56.4812 22.8332 56.3709 22.7733 56.2716Z" fill="#FFC248"/>
<g style="mix-blend-mode:multiply" opacity="0.6">
<path d="M24.0171 54.2678C28.0747 54.9353 32.2186 54.8768 36.2558 54.0951C41.3776 53.1277 44.2797 48.9129 42.6991 48.6969C34.753 43.6702 32.3346 34.9813 32.3346 34.9813L30.0026 35.3527C30.0026 35.3527 33.2415 44.7152 29.3116 50.3293C27.4633 51.5261 25.6948 52.8417 24.0171 54.2678Z" fill="#C94343"/>
</g>
<path d="M37.1193 42.1327C35.4377 41.7225 33.8927 40.8792 32.6381 39.6867C31.3834 38.4942 30.4628 36.994 29.9678 35.3354C29.2682 32.8738 29.2682 25.8346 33.5609 24.9709C37.8535 24.1072 38.7431 29.514 39.4254 32.8738C40.2459 36.8209 37.1193 42.1327 37.1193 42.1327Z" fill="#FFB882"/>
<path d="M28.8281 33.6339C28.7135 33.3705 28.499 33.1633 28.2318 33.058C27.9645 32.9528 27.6664 32.958 27.4029 33.0725C27.1395 33.187 26.9324 33.4015 26.8271 33.6688C26.7218 33.936 26.727 34.2342 26.8415 34.4976C27.2129 35.6031 29.0872 36.0523 29.3117 35.5254C29.5363 34.9986 29.0526 34.0139 28.8281 33.6339Z" fill="#FFB882"/>
<path d="M28.5946 34.1003C28.5282 33.9659 28.4129 33.862 28.2724 33.8098C28.1319 33.7577 27.9768 33.7612 27.8388 33.8197C27.7008 33.8782 27.5904 33.9873 27.5302 34.1245C27.47 34.2618 27.4645 34.4169 27.5149 34.558C27.7222 35.1626 28.7414 35.4217 28.8623 35.1194C28.9832 34.8171 28.7241 34.3076 28.5946 34.1003Z" fill="#EA7B59"/>
<path d="M28.8538 34.6444C28.8055 34.5553 28.7257 34.4874 28.6299 34.4542C28.5342 34.4209 28.4294 34.4247 28.3363 34.4647C28.2432 34.5048 28.1685 34.5783 28.1268 34.6706C28.0851 34.763 28.0794 34.8677 28.111 34.964C28.2492 35.3872 28.9747 35.5513 29.0438 35.3527C29.1129 35.154 28.9488 34.7913 28.8538 34.6444Z" fill="#FFB882"/>
<path d="M38.0438 32.4333C37.8883 31.6905 37.4219 31.1378 36.9987 31.1896C36.5755 31.2414 36.3509 31.8892 36.5064 32.632C36.6619 33.3748 37.1196 33.9275 37.5429 33.8671C37.9661 33.8066 38.1734 33.1675 38.0438 32.4333Z" fill="#66423B"/>
<path d="M33.8547 32.9602C33.7079 32.0965 33.2156 31.4314 32.7492 31.4659C32.2828 31.5005 32.0323 32.2087 32.1791 33.0638C32.326 33.9189 32.8269 34.5839 33.2847 34.558C33.7424 34.5321 34.0188 33.8066 33.8547 32.9602Z" fill="#66423B"/>
<path d="M31.4104 32.8997C31.4104 32.8997 32.6628 31.5351 33.9411 31.8633C33.8276 31.6264 33.6391 31.4337 33.4048 31.315C33.1705 31.1963 32.9036 31.1583 32.6455 31.2069C31.7472 31.4055 31.4104 32.8997 31.4104 32.8997Z" fill="#66423B"/>
<path d="M38.4929 31.941C38.4929 31.941 36.8691 31.1464 35.9536 31.6992C35.9854 31.4856 36.0877 31.2889 36.2442 31.1402C36.4007 30.9915 36.6024 30.8994 36.8173 30.8787C37.6897 30.775 38.4929 31.941 38.4929 31.941Z" fill="#66423B"/>
<path d="M30.4863 31.1896V31.0168C31.6479 30.3197 33.0168 30.0508 34.3557 30.2568L34.1484 30.9305C32.9343 30.5929 31.6409 30.6844 30.4863 31.1896Z" fill="#A83E36"/>
<path d="M38.5448 29.7904C38.0381 29.7153 37.521 29.7539 37.0311 29.9033C36.5411 30.0526 36.0905 30.3091 35.7119 30.6541L35.3059 30.1531C35.7515 29.814 36.2697 29.5829 36.8197 29.478C37.3697 29.3731 37.9366 29.3972 38.4757 29.5485L38.5448 29.7904Z" fill="#A83E36"/>
<path d="M36.6704 34.7653C36.6704 34.7653 36.6704 34.8085 36.6704 34.8344C36.6632 34.9466 36.6309 35.0558 36.5759 35.1539C36.5209 35.252 36.4446 35.3364 36.3525 35.4011C36.2605 35.4657 36.1552 35.5089 36.0443 35.5274C35.9334 35.546 35.8197 35.5394 35.7117 35.5081C35.5706 35.4707 35.4387 35.4046 35.3243 35.314C35.2099 35.2233 35.1153 35.11 35.0466 34.9812C35.0491 35.216 35.1292 35.4433 35.2746 35.6277C35.4199 35.8121 35.6222 35.9432 35.8499 36.0004C35.9573 36.0333 36.0707 36.0414 36.1817 36.024C36.2927 36.0067 36.3983 35.9645 36.4906 35.9005C36.5828 35.8364 36.6594 35.7523 36.7145 35.6544C36.7696 35.5566 36.8018 35.4475 36.8086 35.3354C36.816 35.1362 36.7682 34.9389 36.6704 34.7653Z" fill="#EA7B59"/>
<path d="M34.3298 37.4083L37.2664 37.1146C37.2664 37.1146 37.206 38.7298 36.0054 38.842C34.8049 38.9543 34.3298 37.4083 34.3298 37.4083Z" fill="#491D2E"/>
<path d="M34.5371 37.4514L37.0333 37.2096C37.0333 37.2096 37.3269 37.8833 35.9191 38.0733C34.5112 38.2633 34.5371 37.4514 34.5371 37.4514Z" fill="#FFEBEB"/>
<path d="M36.6962 39.5503C36.6962 39.3603 36.4457 39.5503 36.1261 39.6107C35.8066 39.6712 35.5388 39.4639 35.5647 39.6625C35.5906 39.8612 35.8584 39.9908 36.178 39.9648C36.4975 39.9389 36.7221 39.7489 36.6962 39.5503Z" fill="#EF8F6F"/>
</g>
</svg>
