<svg width="60" height="60" viewBox="0 0 60 60" fill="none" xmlns="http://www.w3.org/2000/svg">
<mask id="mask0_123_1349" style="mask-type:alpha" maskUnits="userSpaceOnUse" x="0" y="0" width="60" height="60">
<rect width="60" height="60" fill="#D9D9D9"/>
</mask>
<g mask="url(#mask0_123_1349)">
<path d="M1.70773 51.9998C1.70773 51.9998 -3.68366 49.6541 -5.53754 45.5869C-5.55646 45.5869 3.19272 46.3436 1.70773 51.9998Z" fill="#FFEFAE"/>
<path d="M3.4574 50.7513C3.4574 50.7513 3.9587 45.1329 0.856294 42.2386C0.856294 42.2102 -3.02172 50.3919 3.4574 50.7513Z" fill="#FFEFAE"/>
<path d="M-0.63808 47.0625C-0.63808 47.0625 -4.4215 45.4356 -5.68895 42.598C-5.68895 42.598 0.411821 43.1182 -0.63808 47.0625Z" fill="#FFEFAE"/>
<path d="M0.47804 47.6489C0.47804 47.6489 1.01718 43.733 -1.03533 41.5765C-1.03533 41.5765 -3.96749 47.1476 0.47804 47.6489Z" fill="#FFEFAE"/>
<path d="M7.38264 57.0791C7.38264 57.0791 3.02224 54.809 3.39112 48.1029C3.39112 48.1029 6.96646 49.7582 7.74206 53.2105C8.669 57.4291 6.83404 57.6939 7.38264 57.0791Z" fill="#FFEFAE"/>
<path d="M80.6016 101.865C61.9493 84.5279 29.8469 48.5191 29.1375 46.5612C28.4281 44.6032 43.3727 49.0677 44.9334 51.2904C46.494 53.5132 81.1597 101.194 81.1597 101.194L80.6016 101.865Z" fill="#FFB882"/>
<path d="M44.9052 51.3377C45.4254 52.0944 49.6344 57.8642 54.9785 65.2418C54.2502 68.1645 53.8246 70.8224 54.1083 71.5507C54.5813 72.7992 67.653 86.3817 81.4814 100.957L80.6018 101.903C61.9495 84.5279 29.8471 48.5191 29.1377 46.5612C28.4283 44.6032 43.3256 49.0677 44.9052 51.3377Z" fill="#FF9566"/>
<path d="M15.0157 22.1864C15.4603 16.5113 18.7992 16.9747 18.7992 16.9747C18.7992 16.9747 18.9694 10.8834 24.55 8.64175C30.1305 6.40007 30.5278 10.751 30.5278 10.751C30.5278 10.751 33.7721 9.59706 36.2029 11.2145C38.6338 12.8319 37.896 16.1519 37.896 16.1519C38.7048 16.8253 39.3381 17.6849 39.7417 18.6569C40.1453 19.6288 40.3072 20.6842 40.2134 21.7324C40.1093 25.5631 36.7799 28.2683 36.7799 28.2683C36.7799 28.2683 34.6801 33.8583 27.3213 36.8472L25.9593 36.6297C17.1155 35.0974 17.7398 30.2357 17.7398 30.2357C17.7398 30.2357 14.5806 27.6535 15.0157 22.1864Z" fill="#843D44"/>
<path d="M37.3477 17.3247C37.6206 17.029 37.8704 16.7128 38.0949 16.3788C38.2632 16.5223 38.4183 16.6806 38.5583 16.8518C38.0264 17.6283 37.3234 18.2725 36.5036 18.7348C35.6837 19.1972 34.7688 19.4655 33.8291 19.5191C35.2003 19.1683 36.4294 18.4018 37.3477 17.3247Z" fill="#6D2933"/>
<path d="M31.0292 11.678C29.3172 13.5697 28.8065 16.0289 29.601 17.722C28.7564 16.7107 28.272 15.4472 28.224 14.1305C28.1761 12.8137 28.5673 11.5184 29.3361 10.4484C29.5596 10.1085 29.8162 9.79167 30.1023 9.5025C30.3128 9.88368 30.4507 10.3006 30.509 10.7321C31.1741 10.5186 31.864 10.3914 32.5615 10.3538C31.9937 10.7245 31.4784 11.1699 31.0292 11.678Z" fill="#6D2933"/>
<path d="M15.016 22.1864C15.4606 16.5113 18.7995 16.9748 18.7995 16.9748C18.9714 14.6048 19.9494 12.3651 21.5708 10.6281C21.0313 11.6986 20.7864 12.8934 20.8614 14.0899C20.9185 15.1951 21.2226 16.2736 21.7513 17.2458C22.28 18.2181 23.0199 19.0596 23.9165 19.7083C23.9165 19.7083 23.5571 23.0093 26.2339 24.6646C28.1032 25.6546 30.2843 25.8785 32.3157 25.2888C32.3157 25.2888 32.9873 28.5993 36.9883 28.0602L36.7518 28.2683C36.7518 28.2683 34.652 33.8583 27.2932 36.8472L25.9312 36.6297C17.0875 35.0974 17.7117 30.2357 17.7117 30.2357C17.7117 30.2357 14.5809 27.6535 15.016 22.1864Z" fill="#6D2933"/>
<path d="M1.04549 68.0227C2.3224 64.1068 10.9675 52.2458 22.5164 42.9953L23.2258 53.7875C19.2059 55.7927 8.01645 66.6417 6.43687 69.4793C4.85729 72.3169 4.33707 89.7868 4.33707 89.7868L3.71281 89.9571C2.81424 87.2519 -0.184125 71.9385 1.04549 68.0227Z" fill="#FF9566"/>
<path d="M22.5165 42.9953L22.6772 45.464C22.1476 47.0341 21.5422 49.6163 20.3032 51.3378C17.2291 55.5563 12.2066 56.1711 10.4946 54.5442C14.1754 50.3685 18.1965 46.5056 22.5165 42.9953Z" fill="#FFB882"/>
<path d="M-7.69407 39.6375C5.54793 48.2731 20.9938 66.6417 34.8127 93.4851L33.8669 103.956C22.9612 91.7163 -21.3901 80.3093 -21.3901 80.3093C-29.6379 73.3667 -24.4168 42.7588 -7.69407 39.6375Z" fill="#FFEFAE"/>
<path d="M24.2286 66.1309C19.679 58.2047 19.0074 46.7787 20.4641 44.887C22.5549 42.5712 25.044 40.649 27.8134 39.2119C29.4686 38.5403 37.6976 40.8293 38.3975 42.825C39.0974 44.8208 43.5903 66.3201 24.2286 66.1309Z" fill="#FFB882"/>
<path d="M27.8418 28.2494L23.1882 23.7565C21.2303 31.9098 26.3946 38.7957 21.4005 44.5086L37.3855 41.4819C24.7394 38.4741 27.8418 28.2494 27.8418 28.2494Z" fill="#FFB882"/>
<path d="M27.3592 58.7343C31.1426 58.7343 40.5255 50.354 35.9381 40.9995C37.2056 41.5859 38.1798 42.248 38.3974 42.8912C39.0878 44.8964 43.5901 66.339 24.2095 66.1498C21.5304 61.3459 19.8781 56.0379 19.3573 50.5621C20.1234 52.5673 24.0771 58.7343 27.3592 58.7343Z" fill="#FF9566"/>
<path d="M36.4489 41.1603C41.3484 53.57 30.5656 57.1075 23.4623 64.296C23.0938 64.6706 22.852 65.1511 22.7705 65.6702C22.6891 66.1893 22.7722 66.7209 23.0082 67.1903C23.8879 68.9307 25.3634 71.5791 26.5552 72.2601C28.3807 73.3005 48.4045 68.9307 50.2016 67.6348C51.9988 66.339 53.4648 61.3733 53.4648 59.1221C53.4648 56.871 38.4636 41.5197 37.3853 41.1509C36.307 40.782 36.4489 41.1603 36.4489 41.1603Z" fill="#FFE05C"/>
<path d="M37.953 41.4913C38.6529 42.0683 39.996 43.383 41.6229 45.0005C43.647 51.8295 42.1904 55.8305 42.1904 55.8305C42.1904 55.8305 43.193 50.5621 37.953 41.4913Z" fill="#FFCB4A"/>
<path d="M47.6575 58.6965C45.0299 61.7578 41.8043 64.2498 38.1788 66.0195C34.5532 67.7891 30.6043 68.7991 26.5743 68.9874L23.68 66.9727C34.5101 67.7767 47.6575 58.6965 47.6575 58.6965Z" fill="#FFCB4A"/>
<path d="M25.2313 67.7956C27.3027 68.7415 43.0512 68.1362 52.0841 61.3922C52.6496 60.9418 53.13 60.3941 53.5029 59.7748C53.2854 62.1867 52.1409 66.566 50.4762 67.7578C48.6507 69.0631 28.1918 73.6316 26.3001 72.5817C25.1083 71.9007 23.8881 68.9307 23.0085 67.1903C22.7459 66.6631 22.6788 66.0598 22.8193 65.4878C23.433 66.4341 24.2588 67.2243 25.2313 67.7956Z" fill="#FFCB4A"/>
<path d="M32.694 39.7604C36.2505 43.2034 30.528 50.2122 22.2896 43.2223C21.8698 43.3392 21.5067 43.6048 21.2681 43.9695C21.2681 43.9695 25.9974 54.005 33.1386 50.4865C39.7596 47.2422 34.3682 40.7536 34.3682 40.7536C33.843 40.37 33.2824 40.0375 32.694 39.7604Z" fill="#FF9566"/>
<path d="M32.9209 39.8456C36.4773 43.298 30.6508 49.8906 22.4408 42.8912C22.2346 42.9086 22.039 42.99 21.8813 43.124C21.7236 43.2579 21.6117 43.4378 21.5611 43.6385C21.5611 43.6385 25.6473 53.097 33.4411 49.9473C39.75 47.3557 34.387 40.3091 34.387 40.3091C33.9366 40.0525 33.4369 39.8945 32.9209 39.8456Z" fill="#FFEFAE"/>
<path d="M22.1856 28.1359C22.9329 26.2441 21.5803 24.0403 20.5777 24.7875C20.3866 24.9711 20.2345 25.1914 20.1307 25.4352C20.0268 25.679 19.9733 25.9413 19.9733 26.2063C19.9733 26.4713 20.0268 26.7336 20.1307 26.9774C20.2345 27.2212 20.3866 27.4415 20.5777 27.6251C21.0437 27.9661 21.6083 28.1454 22.1856 28.1359Z" fill="#FFB882"/>
<path d="M30.7929 45.9369L32.2968 50.2216C33.1249 49.9389 33.9133 49.5511 34.6426 49.0677L32.0888 45.4451L30.7929 45.9369Z" fill="#FFE576"/>
<path d="M33.7439 43.6668L36.2599 44.0641C36.4213 44.713 36.4756 45.3839 36.4206 46.0504L33.4223 44.2532L33.7439 43.6668Z" fill="#FFE576"/>
<path d="M28.6458 46.0031L28.2863 50.2405C27.5117 49.9348 26.7778 49.5345 26.1014 49.0487L27.5864 45.8328L28.6458 46.0031Z" fill="#FFE576"/>
<path d="M25.042 44.8302L23.4908 46.6652L22.7246 45.6058L24.1056 44.31L25.042 44.8302Z" fill="#FFE576"/>
<path d="M34.0276 41.6427L33.81 40.9806L34.8316 40.9333L35.2383 41.7373L34.0276 41.6427Z" fill="#FFE576"/>
<g style="mix-blend-mode:multiply" opacity="0.6">
<path d="M21.3624 43.9411C21.4327 43.8514 21.5085 43.7661 21.5894 43.6858C21.6399 43.4851 21.7519 43.3052 21.9096 43.1712C22.0673 43.0373 22.2629 42.9559 22.4691 42.9385L22.592 42.8345C22.6961 42.6453 22.7907 42.4467 22.8758 42.2481C22.9515 42.0683 23.0271 41.8886 23.0934 41.7089V41.6332C23.1596 41.4535 23.2069 41.2833 23.2541 41.1036V41.0184C23.3014 40.8387 23.3393 40.6685 23.3771 40.4982C23.3727 40.4637 23.3727 40.4287 23.3771 40.3942C23.3771 40.2239 23.4339 40.0537 23.4528 39.874C23.4717 39.6942 23.4528 39.8077 23.4528 39.7699L23.5095 39.2497C23.5049 39.212 23.5049 39.1739 23.5095 39.1362C23.5095 38.9659 23.5095 38.7957 23.5095 38.616C23.5095 38.4362 23.5095 38.5403 23.5095 38.5025V37.8593C23.5095 37.6796 23.5095 37.4998 23.5095 37.3201C23.5142 37.2824 23.5142 37.2443 23.5095 37.2066V36.6675C23.5048 36.6266 23.5048 36.5854 23.5095 36.5445L23.4528 36.0149C23.4528 35.9676 23.4528 35.9203 23.4528 35.8635L23.396 35.3906C23.396 35.3244 23.396 35.2487 23.396 35.1825C23.396 35.1163 23.396 34.9839 23.396 34.8798C22.9609 31.4937 22.2232 27.8237 23.1785 23.8511L27.8321 28.344C27.3457 30.2588 27.3915 32.2702 27.9645 34.161C28.7976 36.638 30.5804 38.6828 32.9208 39.8456C33.4399 39.8941 33.9428 40.052 34.3963 40.309L34.4815 40.432C34.7558 40.5266 35.0111 40.6306 35.276 40.7347C35.6695 41.4292 35.9064 42.2013 35.9701 42.997C36.0338 43.7927 35.9228 44.5927 35.6449 45.341C34.0464 49.1244 27.4821 49.8527 20.9935 47.0814C20.2636 46.7645 19.5502 46.4109 18.8559 46.022C19.6788 45.3032 20.5301 44.5938 21.3624 43.9411Z" fill="#C94343"/>
</g>
<path d="M30.2157 35.7878C25.9688 34.4447 22.9799 30.1127 22.7339 27.6345C22.488 25.1564 23.1974 19.1218 27.9834 18.6773C32.7695 18.2327 33.3086 22.8012 33.3748 26.2441C33.4599 30.2451 30.2157 35.7878 30.2157 35.7878Z" fill="#FFB882"/>
<path d="M21.9112 27.7008C22.3274 26.6509 21.5707 25.4118 20.9653 25.8091C20.8563 25.9117 20.7693 26.0355 20.7099 26.173C20.6505 26.3104 20.6198 26.4586 20.6198 26.6083C20.6198 26.7581 20.6505 26.9062 20.7099 27.0437C20.7693 27.1811 20.8563 27.305 20.9653 27.4076C21.2363 27.6135 21.5712 27.7173 21.9112 27.7008Z" fill="#EA7B59"/>
<path d="M21.9395 27.7859C22.2138 27.0954 21.7125 26.282 21.3437 26.5563C21.2705 26.6227 21.2121 26.7038 21.1721 26.7942C21.1321 26.8846 21.1114 26.9823 21.1114 27.0812C21.1114 27.1801 21.1321 27.2778 21.1721 27.3682C21.2121 27.4586 21.2705 27.5397 21.3437 27.6062C21.5163 27.7316 21.7263 27.7949 21.9395 27.7859Z" fill="#FFB882"/>
<path d="M31.7009 25.4685C31.6063 24.7213 31.1712 24.1443 30.755 24.1822C30.3389 24.22 30.0362 24.8727 30.1308 25.6293C30.2254 26.386 30.6415 26.9157 31.0293 26.9157C31.4171 26.9157 31.7955 26.2252 31.7009 25.4685Z" fill="#66423B"/>
<path d="M27.3877 25.8753C27.3026 25.0051 26.858 24.3146 26.3756 24.3335C25.8932 24.3524 25.5811 25.0618 25.6662 25.932C25.7514 26.8022 26.2054 27.4927 26.6783 27.4832C27.1512 27.4738 27.4728 26.7454 27.3877 25.8753Z" fill="#66423B"/>
<path d="M24.8717 25.7429C25.6009 25.0471 26.5601 24.6432 27.5674 24.6078C27.4164 24.3999 27.2018 24.2468 26.9561 24.1717C26.7103 24.0966 26.4468 24.1036 26.2054 24.1917C25.25 24.4565 24.8717 25.7429 24.8717 25.7429Z" fill="#66423B"/>
<path d="M32.1926 24.7781C31.4021 24.3533 30.4826 24.2354 29.6104 24.447C29.6931 24.2327 29.8426 24.0507 30.0369 23.9281C30.2311 23.8054 30.4597 23.7486 30.6887 23.766C31.5684 23.7566 32.1926 24.7781 32.1926 24.7781Z" fill="#66423B"/>
<path d="M24.238 24.0781L24.1718 23.8984C24.3504 23.3887 24.6398 22.9249 25.0193 22.5405C25.3988 22.1562 25.8588 21.8608 26.3662 21.6757L26.5081 22.3283C26.0227 22.4312 25.5668 22.6419 25.1738 22.9448C24.7809 23.2477 24.4611 23.635 24.238 24.0781Z" fill="#843D44"/>
<path d="M32.8263 23.3309C32.6007 22.9662 32.2863 22.6647 31.9124 22.4546C31.5385 22.2446 31.1175 22.1328 30.6887 22.1297V21.4676C31.1696 21.5383 31.6254 21.7275 32.015 22.0181C32.4047 22.3086 32.716 22.6915 32.9209 23.1323L32.8263 23.3309Z" fill="#843D44"/>
<path d="M30.0832 28.1075C30.0878 28.1325 30.0878 28.1581 30.0832 28.1832C30.0664 28.2978 30.0251 28.4075 29.962 28.5047C29.8989 28.602 29.8156 28.6844 29.7176 28.7464C29.6197 28.8084 29.5096 28.8484 29.3947 28.8639C29.2798 28.8793 29.163 28.8697 29.0522 28.8358C28.9123 28.7945 28.7832 28.7231 28.6737 28.6267C28.5643 28.5304 28.4771 28.4112 28.4185 28.2777C28.396 28.5104 28.4555 28.7436 28.5868 28.9371C28.7181 29.1305 28.9128 29.272 29.1373 29.3371C29.248 29.371 29.3647 29.3809 29.4796 29.3661C29.5944 29.3513 29.7048 29.3121 29.8033 29.2512C29.9018 29.1903 29.9861 29.1091 30.0507 29.013C30.1153 28.9169 30.1586 28.8081 30.1778 28.6939C30.2044 28.4934 30.1715 28.2894 30.0832 28.1075Z" fill="#EA7B59"/>
<path d="M27.6525 30.9167L30.6792 30.6992C30.6792 30.6992 30.49 32.326 29.251 32.3733C28.0119 32.4206 27.6525 30.9167 27.6525 30.9167Z" fill="#491D2E"/>
<path d="M27.8606 30.9734L30.4333 30.7937C30.4333 30.7937 30.6792 31.4936 29.2226 31.6166C27.766 31.7396 27.8606 30.9734 27.8606 30.9734Z" fill="#FFEBEB"/>
<path d="M29.9602 32.8651C29.9602 32.6665 29.6954 32.8651 29.3738 32.8651C29.0522 32.8651 28.7779 32.6949 28.7873 32.8651C28.7968 33.0354 29.0711 33.2056 29.3927 33.1867C29.7143 33.1678 29.9697 33.0638 29.9602 32.8651Z" fill="#EF8F6F"/>
<path d="M28.4942 17.0693C31.852 18.0152 31.0386 21.1744 29.6387 22.0162C29.1871 22.2432 28.6799 22.3362 28.1771 22.2843C27.6743 22.2323 27.1968 22.0375 26.8012 21.723C28.9199 21.723 28.3334 19.1502 26.6025 18.7908C24.8716 18.4314 28.4942 17.0693 28.4942 17.0693Z" fill="#843D44"/>
<path d="M19.1209 22.9052C19.8353 22.1327 20.7381 21.5591 21.741 21.2405C21.7187 22.2981 21.3902 23.3265 20.7951 24.2011C20.6021 24.4106 20.3446 24.5495 20.0635 24.5958C19.7824 24.6421 19.4939 24.593 19.2439 24.4565C19.0554 24.2476 18.9411 23.9823 18.9188 23.7017C18.8966 23.4212 18.9677 23.1412 19.1209 22.9052Z" fill="#FFAD40"/>
<path d="M17.4185 21.6284C17.5179 20.6444 17.8698 19.7028 18.44 18.8948C19.029 19.6912 19.377 20.64 19.4426 21.6284C19.4426 21.8968 19.336 22.1542 19.1462 22.344C18.9564 22.5338 18.699 22.6404 18.4306 22.6404C18.1621 22.6404 17.9047 22.5338 17.7149 22.344C17.5251 22.1542 17.4185 21.8968 17.4185 21.6284Z" fill="#FFAD40"/>
<path d="M17.4942 25.2131C17.3261 24.4159 17.3817 23.5877 17.655 22.8201C18.3005 23.7075 18.7958 24.6949 19.1211 25.7428C19.2913 26.4522 18.7238 26.5752 18.563 26.5184C18.3079 26.3817 18.0821 26.1961 17.8988 25.9721C17.7154 25.7481 17.5779 25.4902 17.4942 25.2131Z" fill="#FFAD40"/>
<path d="M19.3951 19.7934C19.6322 18.8343 20.1109 17.9519 20.7855 17.2301C21.2558 18.0981 21.466 19.0833 21.3909 20.0677C21.3821 20.2074 21.3444 20.3437 21.2802 20.4681C21.216 20.5925 21.1267 20.7022 21.018 20.7903C20.9092 20.8784 20.7834 20.943 20.6484 20.98C20.5134 21.017 20.3722 21.0256 20.2337 21.0053C20.0952 20.985 19.9625 20.9361 19.8438 20.8618C19.7252 20.7876 19.6232 20.6895 19.5444 20.5738C19.4656 20.4581 19.4116 20.3274 19.3859 20.1898C19.3602 20.0522 19.3634 19.9108 19.3951 19.7745V19.7934Z" fill="#FFAD40"/>
<path d="M21.4666 16.2275C21.9044 15.3498 22.5547 14.5955 23.3584 14.0331C23.6403 14.987 23.6403 16.002 23.3584 16.9558C23.2383 17.1949 23.042 17.387 22.8004 17.5018C22.5588 17.6166 22.2858 17.6475 22.0247 17.5896C21.7914 17.4591 21.6092 17.2533 21.5079 17.006C21.4065 16.7586 21.392 16.4842 21.4666 16.2275Z" fill="#FFAD40"/>
<path d="M24.134 15.4235C24.8035 14.5521 25.673 13.8546 26.6689 13.39C26.7186 14.4927 26.4668 15.5882 25.9406 16.5586C25.7705 16.7921 25.5283 16.9631 25.2513 17.0451C24.9744 17.1272 24.6781 17.1157 24.4083 17.0126C24.1926 16.8158 24.0486 16.5528 23.9989 16.2651C23.9492 15.9773 23.9968 15.6813 24.134 15.4235Z" fill="#FFAD40"/>
<path d="M22.3935 18.403C23.3357 18.0921 24.3417 18.027 25.3162 18.2138C24.8259 19.0825 24.0929 19.7892 23.2069 20.2474C22.9546 20.3343 22.6804 20.334 22.4283 20.2465C22.1762 20.159 21.9608 19.9895 21.8165 19.765C21.7469 19.5062 21.7659 19.2315 21.8705 18.9847C21.975 18.7379 22.1591 18.5331 22.3935 18.403Z" fill="#FFAD40"/>
<path d="M33.9897 18.28C33.4685 17.2125 33.1479 16.0583 33.0439 14.8749C33.9531 15.2678 34.7216 15.9274 35.2477 16.7667C35.392 17.0442 35.4673 17.3524 35.4673 17.6652C35.4673 17.978 35.392 18.2862 35.2477 18.5638C35.1519 18.6434 35.039 18.7 34.9178 18.7291C34.7967 18.7582 34.6704 18.7591 34.5489 18.7317C34.4273 18.7042 34.3136 18.6493 34.2167 18.5709C34.1198 18.4926 34.0421 18.3931 33.9897 18.28Z" fill="#FFAD40"/>
<path d="M35.5033 20.1907C35.5777 19.3099 35.8703 18.4615 36.3545 17.722C36.7906 18.6772 37.0348 19.7088 37.0734 20.7582C37.0841 20.8668 37.0703 20.9765 37.0329 21.0791C36.9956 21.1817 36.9356 21.2745 36.8575 21.3508C36.7794 21.4271 36.6851 21.4849 36.5817 21.5198C36.4783 21.5548 36.3683 21.566 36.2599 21.5527C36.034 21.4029 35.8473 21.2009 35.7156 20.9639C35.5839 20.7269 35.5111 20.4617 35.5033 20.1907Z" fill="#FFAD40"/>
<path d="M35.4369 21.4297C35.1241 20.6562 34.583 19.9963 33.8857 19.538C33.7662 20.6897 33.8592 21.8534 34.16 22.9715C34.1818 23.0765 34.2315 23.1737 34.3039 23.2528C34.3762 23.3319 34.4686 23.39 34.5713 23.421C34.674 23.452 34.7831 23.4547 34.8872 23.4289C34.9912 23.403 35.0864 23.3496 35.1626 23.2742C35.4936 22.7195 35.5922 22.0567 35.4369 21.4297Z" fill="#FFAD40"/>
<path d="M35.3139 23.9457C35.6898 23.2012 36.258 22.5709 36.9597 22.1202C36.9415 23.2174 36.7302 24.3028 36.3355 25.3266C36.0328 26.0076 35.4842 25.7712 35.3896 25.6293C35.2661 25.3677 35.1959 25.0841 35.1829 24.7951C35.1699 24.5061 35.2144 24.2173 35.3139 23.9457Z" fill="#FFAD40"/>
<path d="M35.068 27.2183C35.1221 26.4273 35.0192 25.6333 34.7654 24.8821C34.412 25.7019 34.1641 26.5632 34.0276 27.4454C33.9519 28.1075 34.2924 28.3912 34.3965 28.3912C34.5983 28.2683 34.7657 28.0963 34.8832 27.8912C35.0006 27.6861 35.0642 27.4546 35.068 27.2183Z" fill="#FFAD40"/>
<path d="M15.8386 66.0269C15.8386 66.0269 17.6263 62.1961 16.0184 59.4059C16.0184 59.368 11.0526 64.1351 15.8386 66.0269Z" fill="#FFEFAE"/>
<path d="M13.6726 62.3948C13.6726 62.3948 11.2417 60.3045 10.9864 57.9871C10.9864 57.9871 15.4508 59.8883 13.6726 62.3948Z" fill="#FFEFAE"/>
<path d="M14.3727 63.0853C14.3727 63.0853 15.7631 60.4842 14.7511 58.4411C14.7511 58.4411 11.119 61.6097 14.3727 63.0853Z" fill="#FFEFAE"/>
<path d="M13.5498 60.3234C13.5498 60.3234 14.2781 58.2992 13.2945 56.9372C13.2945 56.9372 10.9676 59.5856 13.5498 60.3234Z" fill="#FFEFAE"/>
<path d="M-15.2609 69.4793C-16.0633 68.6567 -16.5144 67.5544 -16.5188 66.4052C-16.7332 67.0587 -17.0054 67.6918 -17.3323 68.297C-17.8329 67.6315 -18.1582 66.8509 -18.2781 66.0269C-18.4853 66.6045 -18.7253 67.1698 -18.997 67.72C-19.9974 66.5264 -20.6052 65.0532 -20.7374 63.5015L-20.4631 63.4069L-20.7468 63.4542C-20.8081 62.9646 -20.8428 62.472 -20.8509 61.9786C-21.5957 61.5693 -22.267 61.0387 -22.8372 60.4085C-22.5584 60.6183 -22.3016 60.856 -22.071 61.1179C-22.2347 60.499 -22.3361 59.8653 -22.3737 59.2262C-21.5925 59.3564 -20.8661 59.7114 -20.2834 60.2477C-20.3672 59.9109 -20.4335 59.5699 -20.482 59.2262C-20.6313 59.1697 -20.7766 59.1033 -20.9171 59.0276L-20.5482 58.8005V58.5452L-20.1415 58.6019L-19.6118 58.3655C-19.9858 57.866 -20.2384 57.2863 -20.3496 56.6724C-19.9515 56.6916 -19.5623 56.7961 -19.2081 56.9789C-18.854 57.1616 -18.5433 57.4184 -18.2971 57.7317C-18.3698 57.4642 -18.4267 57.1926 -18.4673 56.9183C-18.8753 56.8374 -19.2744 56.717 -19.6591 56.5589C-18.7281 55.8808 -17.7181 55.3186 -16.6513 54.8847C-18.1013 55.3407 -19.6563 55.3407 -21.1062 54.8847C-20.6479 54.5564 -20.164 54.2654 -19.6591 54.0145C-20.1459 53.5225 -20.4977 52.9133 -20.6806 52.2458C-20.2211 52.2172 -19.7608 52.2868 -19.3303 52.4499C-18.8997 52.613 -18.5088 52.8658 -18.1836 53.1916C-18.3649 52.7084 -18.4949 52.2075 -18.5714 51.6972C-17.9838 51.7239 -17.4133 51.9032 -16.9161 52.2174L-16.7931 52.0755C-16.8499 51.9053 -16.8972 51.7445 -16.935 51.6026C-17.3075 51.6383 -17.6833 51.5865 -18.0322 51.4512C-17.6725 50.9891 -17.2805 50.5529 -16.8594 50.146C-17.2383 50.335 -17.656 50.4334 -18.0795 50.4334C-18.503 50.4334 -18.9207 50.335 -19.2997 50.146C-18.7866 49.5853 -18.1699 49.1293 -17.4836 48.8028C-17.7238 48.376 -17.9202 47.926 -18.0701 47.4597C-17.4293 47.4768 -16.7988 47.624 -16.2167 47.8923C-15.6346 48.1606 -15.1131 48.5444 -14.6839 49.0204C-15.2494 48.2081 -15.6894 47.3153 -15.9892 46.372C-15.0418 46.3268 -14.1009 46.5497 -13.2746 47.0152C-12.8658 46.8708 -12.4489 46.7508 -12.026 46.6557C-12.4281 45.8824 -12.6542 45.0297 -12.6881 44.1587C-12.1561 44.2904 -11.6579 44.5329 -11.226 44.8703C-10.7941 45.2077 -10.4382 45.6323 -10.1816 46.1166C-10.2426 45.4654 -10.2426 44.8099 -10.1816 44.1587C-9.43239 44.4483 -8.77774 44.9393 -8.28989 45.5775C-8.34685 44.9929 -8.36581 44.4052 -8.34664 43.8182C-6.68097 44.4126 -5.2911 45.5972 -4.44025 47.1476C-3.39351 47.9106 -2.3373 48.7555 -1.27163 49.6825C-1.18983 48.9539 -1.00513 48.2405 -0.723036 47.5638C0.06936 48.3983 0.509741 49.506 0.506581 50.6567C0.724738 50.0032 1.0001 49.3702 1.32947 48.765C1.83446 49.4279 2.16021 50.2097 2.27533 51.0351C2.48383 50.4596 2.72705 49.8974 3.00364 49.3514C3.93179 50.5101 4.49182 51.92 4.6116 53.3997L4.31838 53.5038L4.62106 53.4565C4.69287 54.0087 4.73392 54.5644 4.74402 55.1212C5.19394 55.3633 5.61312 55.6586 5.99255 56.0008C6.13076 56.547 6.22253 57.1039 6.26685 57.6655C5.48279 57.5385 4.75115 57.1907 4.15758 56.6629C4.25217 57.0413 4.31838 57.3912 4.37513 57.675C4.52132 57.7315 4.66352 57.7979 4.80076 57.8736L4.44134 58.1006V58.356C4.29946 58.356 4.16704 58.356 4.03462 58.2992C3.86013 58.3922 3.68008 58.4743 3.49548 58.5452C3.88085 59.0365 4.14058 59.6144 4.25217 60.2288C3.85362 60.2151 3.46281 60.115 3.10678 59.9353C2.75075 59.7557 2.43801 59.5008 2.1902 59.1884C2.26844 59.4546 2.32537 59.7266 2.36046 60.0018C2.76949 60.0738 3.16921 60.1912 3.55223 60.3518C2.6287 61.0359 1.62494 61.6045 0.56333 62.0448C2.00827 61.5722 3.56366 61.5557 5.01831 61.9975C4.56982 62.3229 4.09528 62.6108 3.59953 62.8583C4.08764 63.3434 4.44268 63.946 4.63051 64.6081C4.17297 64.6436 3.71311 64.5818 3.28112 64.427C2.84914 64.2721 2.4548 64.0276 2.124 63.7095C2.31116 64.1922 2.44747 64.6931 2.53071 65.204C1.94227 65.1808 1.3694 65.0083 0.866004 64.7027L0.743045 64.8351C0.799796 65.0054 0.847084 65.1662 0.884918 65.308C1.25665 65.2733 1.63144 65.3218 1.98212 65.4499C1.62884 65.9176 1.23987 66.3571 0.818708 66.7647C1.19994 66.5776 1.61895 66.4804 2.0436 66.4804C2.46824 66.4804 2.88725 66.5776 3.26848 66.7647C2.75553 67.3303 2.1391 67.7926 1.45244 68.1267C1.69857 68.5485 1.89836 68.9956 2.04832 69.4604C1.40647 69.4494 0.77356 69.3079 0.188154 69.0445C-0.397252 68.7811 -0.922895 68.4012 -1.35676 67.9281C-0.779121 68.7339 -0.32928 69.624 -0.0231039 70.567C-0.9712 70.6127 -1.9136 70.3968 -2.74717 69.9427C-3.15654 70.0877 -3.5733 70.2108 -3.9957 70.3116C-3.58631 71.0798 -3.35364 71.9297 -3.31468 72.7992C-3.84338 72.6753 -4.34071 72.4432 -4.77534 72.1176C-5.20997 71.792 -5.5725 71.38 -5.84013 70.9075C-5.76051 71.557 -5.74151 72.2125 -5.78337 72.8654C-6.53121 72.578 -7.18563 72.0904 -7.67508 71.4561C-7.61824 72.0439 -7.59613 72.6345 -7.60887 73.2249C-9.28406 72.6236 -10.6806 71.4289 -11.5342 69.8671C-12.5841 69.1104 -13.6529 68.278 -14.7217 67.3606C-14.7997 68.0888 -14.9813 68.8023 -15.2609 69.4793ZM-4.71455 68.5334C-4.96993 68.2875 -5.17802 68.0794 -5.32936 67.9092C-5.88791 68.0658 -6.45684 68.1828 -7.0319 68.2591C-6.25175 68.2656 -5.47466 68.3576 -4.71455 68.5334ZM-10.7491 49.0393C-10.1909 48.8857 -9.62171 48.775 -9.04658 48.7083C-9.82704 48.6981 -10.6041 48.603 -11.3639 48.4245C-11.0991 48.6704 -10.9005 48.8596 -10.7491 49.0298V49.0393Z" fill="#FFF4C5"/>
</g>
</svg>
