<svg width="60" height="60" viewBox="0 0 60 60" fill="none" xmlns="http://www.w3.org/2000/svg">
<mask id="mask0_123_1350" style="mask-type:alpha" maskUnits="userSpaceOnUse" x="0" y="0" width="60" height="60">
<rect width="60" height="60" fill="#D9D9D9"/>
</mask>
<g mask="url(#mask0_123_1350)">
<path d="M20.093 13.2713C20.6792 12.4864 21.792 13.2017 21.792 13.2017C21.792 13.2017 20.5997 11.463 19.1194 12.1684C17.2117 13.1023 17.4899 16.2221 19.5863 17.3845L23.3817 14.9007C20.709 15.6756 19.4572 14.1356 20.093 13.2713Z" fill="#723F35"/>
<path d="M39.0696 25.8396C37.9271 24.5281 36.4367 23.9518 35.7413 24.5579C35.0458 25.164 35.3935 26.7238 36.5262 28.0353C37.6588 29.3468 39.159 29.933 39.8545 29.3269C40.55 28.7209 40.2023 27.161 39.0696 25.8396Z" fill="#592923"/>
<path d="M28.8958 17.4243C34.2907 14.0661 34.1715 20.1565 34.1715 20.1565C34.1715 20.1565 41.1263 23.9916 35.473 26.4556C29.8198 28.9196 22.9345 21.1202 28.8958 17.4243Z" fill="#592923"/>
<path d="M52.2837 45.6509C68.6871 51.1154 92.2043 73.5993 91.638 84.727C91.0915 95.5268 60.4009 91.6818 55.4432 88.1547L52.2837 45.6509Z" fill="#FFB882"/>
<path d="M52.2837 45.78L55.4432 88.1746C60.4109 91.6818 91.0915 95.5467 91.638 84.7468C91.7175 83.0777 80.709 83.0678 79.7949 80.9912C76.2381 68.3434 58.553 47.8963 52.2837 45.78Z" fill="#FF9566"/>
<path d="M12.8003 49.1283C17.3209 41.5972 19.0994 38.1993 19.0994 38.1993L17.1818 31.2445C17.1818 31.2445 25.2097 17.8018 31.0914 20.5341C36.9732 23.2663 39.6359 29.8734 39.6359 29.8734L41.7621 39.7393L50.247 44.7865L12.8003 49.1283Z" fill="#FFB882"/>
<path d="M25.7462 132.348C17.321 116.113 9.72034 85.5218 9.72034 85.5218L0.72876 57.5535C0.72876 57.5535 15.473 41.319 30.2668 41.319C45.0607 41.319 53.8933 46.4557 53.8933 46.4557L69.1045 106.873L25.7462 132.348Z" fill="#FFB882"/>
<path d="M30.8134 91.6718C24.5739 90.9366 24.0374 75.5863 12.8104 60.9514C10.1226 60.0137 7.20167 59.9823 4.49438 60.862L9.72043 85.5218C9.72043 85.5218 17.321 116.133 25.7463 132.367L26.3623 132C26.3623 131.92 32.1149 130.013 32.1149 130.013C32.1149 106.972 41.8417 85.8993 56.0891 85.8993C61.4841 85.8993 62.5472 92.7647 66.6903 97.3449L62.5472 80.8918C52.2541 80.2262 35.95 92.2779 30.8134 91.6718Z" fill="#FF9566"/>
<path d="M53.8934 46.4556C53.8934 46.4556 54.1715 46.4556 52.5223 45.7701C50.873 45.0845 52.711 58.4278 53.2774 65.1541C54.3802 77.6529 56.7945 102.333 55.5426 105.979C52.9396 113.51 41.8814 118.011 37.5893 118.031C30.9524 118.07 18.1456 87.5089 17.3011 70.6186C17.1322 67.2008 5.67664 76.4706 5.09045 73.4999C3.4511 98.0504 21.9807 125.105 25.7462 132.367L69.1045 106.893L53.8934 46.4556Z" fill="#FF9566"/>
<path d="M25.7464 201.389C64.584 207.35 104.644 173.858 104.644 173.858L92.5225 142.621L92.9398 136.043L82.0406 103.406L82.4579 93.957C82.4579 93.957 59.8548 54.3245 54.0823 45.8396C53.4861 44.9752 52.274 44.5778 52.3336 45.5018C52.9099 54.1655 61.5239 103.416 56.9735 108.92C51.1016 116.034 38.275 123.922 24.7131 126.804C22.5869 127.251 25.7464 201.389 25.7464 201.389Z" fill="#F9D58C"/>
<path d="M2.3088 55.934C-9.94161 65.482 -22.2516 95.954 -19.0524 106.764C-15.8532 117.574 13.2676 96.2521 16.7152 90.8671C25.8459 76.6594 10.6645 49.4561 2.3088 55.934Z" fill="#FFB882"/>
<path d="M15.9502 32.4169C12.0455 26.396 14.1022 20.8421 17.6193 19.3418C17.6193 19.3418 18.5036 14.7517 22.1995 15.0199C22.1995 15.0199 23.3024 11.6617 26.3824 12.4168C29.4624 13.1719 29.2537 17.5535 29.2537 17.5535L15.9502 32.4169Z" fill="#723F35"/>
<path d="M22.6465 20.4745C21.2258 22.8292 18.2153 22.7993 17.8278 18.4874C17.7314 18.7528 17.655 19.0252 17.5993 19.3021C14.1021 20.8023 12.0454 26.3562 15.95 32.3771L26.4816 20.6334C25.8855 20.7228 22.9744 19.9479 22.6465 20.4745Z" fill="#592923"/>
<path d="M33.774 22.0443C36.9236 16.5599 31.3597 11.6319 28.1903 13.6389C26.8689 14.4734 21.3647 18.5172 18.2549 34.9504L18.5033 35.8346C21.7919 27.0418 28.6871 18.4774 33.774 22.0443Z" fill="#723F35"/>
<path d="M34.8571 48.6911C27.2764 52.8342 20.9475 52.4864 22.9346 50.6086C24.9217 48.7308 34.8571 48.6911 34.8571 48.6911Z" fill="#FF9566"/>
<path d="M38.6028 47.7671C44.8323 47.1909 46.7697 45.4721 46.114 44.9653C45.2496 44.2699 38.6028 47.7671 38.6028 47.7671Z" fill="#FF9566"/>
<path d="M62.3883 77.3449C56.735 65.8397 55.0957 50.9465 55.0957 50.9465C59.5769 59.0467 62.076 68.0931 62.3883 77.3449Z" fill="#F2C679"/>
<g style="mix-blend-mode:multiply" opacity="0.6">
<path d="M5.19971 53.2217C10.237 54.6325 17.8674 54.4139 26.0641 52.2281C34.8173 49.9231 41.9609 46.0085 45.6171 42.0244L41.7323 39.6697L39.7452 30.2012C26.3721 40.5639 29.1938 29.7939 22.7656 31.3239C20.9971 31.7412 19.2882 32.2281 17.6389 32.7844L19.1093 38.1595C19.1093 38.1595 17.7382 40.8123 14.3801 46.4656C11.1287 48.4454 8.05681 50.706 5.19971 53.2217Z" fill="#C94343"/>
</g>
<path d="M20.5403 33.1322C24.5144 35.934 20.739 35.8247 18.732 38.865C18.732 38.865 16.4965 40.3454 15.2248 37.5833C13.9531 34.8212 13.6451 27.0021 18.0763 26.5947C22.5075 26.1873 20.5403 33.1322 20.5403 33.1322Z" fill="#592923"/>
<path d="M19.6062 28.5818C20.2917 40.2261 25.4284 42.2132 28.5481 42.9683C31.6678 43.7234 33.6251 40.8123 33.6251 40.8123C33.6251 40.8123 37.1125 43.3458 40.3315 40.8123C40.3315 40.8123 43.4115 43.624 46.1537 40.8819C47.1593 39.9977 47.8883 38.8421 48.2531 37.5537C48.6179 36.2654 48.6031 34.8992 48.2103 33.619C48.7488 33.1381 49.0992 32.4818 49.1992 31.7669C49.2993 31.0519 49.1425 30.3247 48.7568 29.7144C47.4552 27.32 45.8854 28.1446 45.8854 28.1446C45.8854 28.1446 42.2888 24.24 39.8149 28.0055C36.5983 28.2293 33.5051 29.3325 30.873 31.1948C29.8794 31.8803 27.6937 29.5455 26.253 23.8326C24.0175 14.9802 19.6062 28.5818 19.6062 28.5818Z" fill="#723F35"/>
<path d="M42.6068 36.8978C39.2387 39.1829 35.5924 36.3712 35.5924 36.3712C34.9923 37.1679 34.1662 37.7656 33.2217 38.0863C32.2772 38.4071 31.258 38.4361 30.2968 38.1695C27.1672 37.2256 21.7225 33.9569 20.6098 23.7532C20.0335 25.3024 19.6984 26.9309 19.6162 28.5818C20.3018 40.2261 24.9615 42.6206 28.111 43.3757C31.2606 44.1308 33.7941 41.3886 33.7941 41.3886C34.765 42.0161 35.9079 42.3239 37.0626 42.2686C38.2173 42.2134 39.3257 41.7979 40.2323 41.0806C40.2323 41.0806 43.7593 43.7234 46.5015 40.9812C47.2919 40.0761 47.8571 38.9969 48.1508 37.8317C45.4384 39.5704 42.6068 36.8978 42.6068 36.8978Z" fill="#592923"/>
<path d="M21.8914 31.0458C19.7155 32.5758 17.6589 31.4134 18.6723 29.6151C18.7906 29.3645 18.9755 29.1514 19.2068 28.9989C19.4381 28.8465 19.7069 28.7606 19.9838 28.7507C20.4452 28.7537 20.889 28.9283 21.2287 29.2405C21.5685 29.5527 21.7799 29.9802 21.8218 30.4397L21.8914 31.0458Z" fill="#FFB882"/>
<path d="M49.2137 31.2147C48.6176 33.3806 46.2331 33.6389 44.1367 32.2082C44.4774 33.1122 45.0743 33.8972 45.8542 34.4672C46.6342 35.0372 47.5634 35.3674 48.5282 35.4174C48.5028 34.7902 48.396 34.169 48.2102 33.5694C48.5419 33.276 48.804 32.9125 48.9776 32.5052C49.1512 32.0979 49.2319 31.657 49.2137 31.2147Z" fill="#592923"/>
<path d="M31.3301 34.3741C35.9501 34.3741 34.887 37.9708 33.5159 39.163L37.3907 37.6031C37.3112 33.8575 34.0126 33.2415 31.3301 34.3741Z" fill="#592923"/>
<path d="M27.7632 31.5723C25.5874 35.6558 22.9147 33.0229 22.5074 31.2444L22.0603 35.4074C25.3688 37.0865 27.495 34.4834 27.7632 31.5723Z" fill="#592923"/>
<path d="M25.1104 25.7999C20.8481 27.6081 20.5401 24.4983 21.3747 23.0676L18.394 25.7502C19.7651 28.4924 23.0339 27.6876 25.1104 25.7999Z" fill="#592923"/>
<path d="M21.0468 30.6583C19.9241 31.4531 18.871 30.857 19.3876 29.9231C19.4485 29.7946 19.5439 29.6857 19.6633 29.6085C19.7826 29.5313 19.9211 29.4888 20.0632 29.4859C20.2972 29.4956 20.5202 29.5877 20.6929 29.7459C20.8656 29.904 20.9768 30.1181 21.0071 30.3503L21.0468 30.6583Z" fill="#EA7B59"/>
<path d="M21.2455 30.8768C20.5202 31.3836 19.8346 30.9961 20.1724 30.3999C20.213 30.3173 20.2749 30.2471 20.3518 30.1964C20.4287 30.1457 20.5177 30.1165 20.6096 30.1118C20.763 30.1138 20.9101 30.1729 21.0222 30.2777C21.1343 30.3824 21.2033 30.5252 21.2156 30.6781L21.2455 30.8768Z" fill="#FFB882"/>
<path d="M31.0121 20.1565C29.025 20.1565 26.5511 21.1501 26.1636 23.6339C28.6276 21.4183 31.5983 20.7427 33.8635 22.1138C34.1814 21.5336 34.3779 20.8947 34.4412 20.2362C34.5044 19.5776 34.433 18.9131 34.2313 18.2829C34.0296 17.6528 33.7019 17.0703 33.268 16.5709C32.8342 16.0714 32.3033 15.6654 31.7076 15.3776C33.5158 16.4903 33.4165 20.1565 31.0121 20.1565Z" fill="#592923"/>
<path d="M36.1288 25.9092C35.5028 26.0085 35.0359 26.4556 35.2048 26.5351C35.3737 26.6146 36.8243 26.4159 36.8938 26.1476C36.7965 26.0469 36.6755 25.9722 36.5418 25.9306C36.4081 25.8889 36.2661 25.8815 36.1288 25.9092Z" fill="#3D2522"/>
<path d="M33.2673 26.0482C33.5834 27.1565 33.9991 28.2339 34.5093 29.2673C35.537 29.418 36.5833 29.3844 37.5992 29.168C38.3145 28.8898 38.2847 27.7273 38.2847 27.7273L34.0224 24.9156L33.2673 26.0482Z" fill="#EA7B59"/>
<path d="M32.3933 25.6806C32.6665 26.8023 33.0423 27.8965 33.516 28.9494C34.5347 29.1306 35.5773 29.1306 36.596 28.9494C37.3312 28.7109 37.3412 27.5485 37.3412 27.5485L33.1981 24.3195L32.3933 25.6806Z" fill="#FFB882"/>
<path d="M29.1643 27.3299C30.9693 27.341 32.708 26.6498 34.0128 25.4024C34.0128 25.4024 33.6849 23.6737 32.7311 23.4948C31.7773 23.316 28.5483 25.0944 28.3893 25.4819C28.2303 25.8694 29.1643 27.3299 29.1643 27.3299Z" fill="#723F35"/>
<path d="M34.6783 25.323C34.6087 25.2733 33.6847 24.1108 33.8139 23.6041C33.9484 23.4048 34.1224 23.2351 34.3251 23.1057C34.5278 22.9762 34.7549 22.8898 34.9924 22.8516C35.2298 22.8134 35.4726 22.8243 35.7057 22.8837C35.9387 22.9431 36.1572 23.0496 36.3474 23.1968C37.2515 24.0214 37.4801 25.1143 37.0727 25.2733C36.2776 25.3613 35.4763 25.3779 34.6783 25.323Z" fill="#723F35"/>
<path d="M32.3237 26.9027C31.5488 27.1113 30.9824 27.6478 31.1911 27.6975C31.3997 27.7472 33.1782 27.2802 33.2477 27.002C33.1135 26.9114 32.9591 26.855 32.7981 26.8377C32.637 26.8203 32.4742 26.8427 32.3237 26.9027Z" fill="#3D2522"/>
</g>
</svg>
