<svg width="60" height="60" viewBox="0 0 60 60" fill="none" xmlns="http://www.w3.org/2000/svg">
<mask id="mask0_123_1351" style="mask-type:alpha" maskUnits="userSpaceOnUse" x="0" y="0" width="60" height="60">
<rect width="60" height="60" fill="#D9D9D9"/>
</mask>
<g mask="url(#mask0_123_1351)">
<path d="M12.3161 68.59C-0.000445807 75.1779 -7.30442 75.0347 -9.52426 75.1779C-11.7441 75.3211 -21.3395 69.5925 -21.6259 68.3036C-21.8408 67.0863 -7.66245 41.8804 7.08872 37.7272C21.8399 33.5739 12.3161 68.59 12.3161 68.59Z" fill="#D1C5DD"/>
<path d="M12.3159 68.59C-0.000567213 75.1779 -7.30454 75.0347 -9.52438 75.1779C-10.3121 75.2495 -12.1022 74.4619 -14.1073 73.4594C-8.73669 65.3677 0.357473 54.3401 9.66646 51.7623C12.1011 51.0462 13.8913 51.4758 15.1086 52.6215C14.679 57.9921 13.6765 63.3627 12.3159 68.59Z" fill="#BDB0CC"/>
<path d="M4.51092 99.9542C4.51092 99.9542 11.242 84.3437 7.87647 71.7408L37.9517 53.6241C32.7243 68.8049 18.188 97.8776 4.51092 99.9542Z" fill="#D1C5DD"/>
<path d="M19.9782 80.1189C16.2546 78.4719 11.7433 80.9782 8.30612 86.2055C9.0222 81.6227 9.16541 76.4669 7.87647 71.7408L37.9517 53.6241C34.1565 64.222 29.2155 74.2471 23.2721 83.3412C22.4844 81.9091 21.3387 80.7634 19.9782 80.1189Z" fill="#BDB0CC"/>
<path d="M6.73075 73.1013C7.44683 73.8174 23.2721 74.3186 24.1314 73.6742C24.9907 73.0297 26.7093 61.2861 26.7093 61.2861C26.7093 61.2861 26.5661 73.1013 27.2105 73.6026C27.7834 74.1754 45.1124 73.7458 45.9717 72.8865C46.831 72.0272 49.6953 46.2485 48.9076 44.3867C45.6137 36.5814 29.7884 29.9935 27.7118 29.9935C25.6352 29.9935 5.87146 36.9395 3.86645 39.8754C2.72073 41.5224 6.01468 72.3852 6.73075 73.1013Z" fill="#D1C5DD"/>
<path d="M59.2905 85.561C55.1373 66.227 53.3471 47.0362 46.974 41.594C40.6009 36.1518 39.67 82.2671 46.0431 92.5786C52.4162 102.89 59.2905 85.561 59.2905 85.561Z" fill="#D1C5DD"/>
<path d="M43.2505 39.3741C47.6902 41.594 52.1299 76.1088 58.9326 83.8424C59.219 89.7859 53.1324 89.8575 52.8459 94.9416C50.8409 96.4454 48.4063 96.3738 45.9 92.4354C39.3121 82.4103 37.7367 39.2309 43.2505 39.3741Z" fill="#BDB0CC"/>
<path d="M19.62 85.9907C30.934 68.4469 30.6475 46.893 30.6475 46.893L39.7417 42.8113C39.7417 42.8113 39.5985 51.5475 34.7292 64.0788C29.8599 76.6101 19.62 85.9907 19.62 85.9907Z" fill="#BDB0CC"/>
<path d="M67.7402 203.785H20.4792C20.4792 203.785 5.29841 203.141 2.86375 196.982C0.42909 190.824 -3.07968 179.295 -5.51434 178.866C-7.949 178.508 -20.1223 203.714 -20.1223 203.714H-26.8534L-28.7868 199.847L-20.7668 192.256C-20.7668 192.256 -8.59347 157.527 -7.87739 149.507C-7.16132 141.487 -2.65003 129.6 -2.65003 129.6C-2.65003 129.6 -5.58594 112.772 1.36 97.3763C1.36 97.3763 15.3235 102.317 28.2128 68.8049C41.1022 35.2925 38.8108 31.9986 38.8108 31.9986C40.4577 31.1393 42.3911 32.0702 43.1788 34.0036C43.2504 34.2184 43.322 34.4332 43.322 34.648C44.4678 38.9445 50.1964 69.1629 50.1964 71.0247C50.1964 72.8865 48.263 75.3212 48.263 75.3212C48.263 75.3212 52.631 90.7168 52.273 93.4379C52.0582 95.0133 51.6285 96.517 51.0557 97.9492C51.0557 97.9492 57.7868 139.052 58.2164 141.487C58.5745 143.993 56.1398 169.414 56.1398 169.414C56.1398 169.414 61.1523 179.224 62.0832 182.733C63.1573 186.814 63.3006 195.479 63.3006 195.479C63.3006 195.479 65.95 195.694 66.5945 196.338C67.239 196.982 67.7402 203.785 67.7402 203.785Z" fill="#9D7CA5"/>
<path d="M32.2229 125.805C36.0181 113.345 38.8824 100.455 40.8874 87.4229C41.0306 86.6352 34.7291 91.5761 34.8723 90.7884C39.3836 69.8074 44.7542 46.1053 43.0356 34.0036C43.1072 34.2184 43.1788 34.4332 43.2504 34.7197C44.5394 38.9445 50.1964 69.2345 50.1964 71.0247C50.1964 72.8865 48.263 75.3212 48.263 75.3212C48.263 75.3212 52.631 90.7168 52.273 93.4379C52.0582 95.0133 51.6285 96.517 51.0557 97.9492C51.0557 97.9492 57.7868 139.052 58.2164 141.487C58.5745 143.993 56.1398 169.414 56.1398 169.414C56.1398 169.414 61.1523 179.224 62.0832 182.733C63.1573 186.814 63.3006 195.479 63.3006 195.479C63.3006 195.479 65.95 195.694 66.5945 196.338C67.239 196.982 67.7402 203.785 67.7402 203.785H20.4792C20.4792 203.785 5.29841 203.141 2.86375 196.982C2.79214 196.839 2.72053 196.624 2.64892 196.41C10.0961 183.162 16.6124 169.27 22.1262 154.806C42.0331 152.443 39.5268 133.109 32.2229 125.805Z" fill="#92709B"/>
<path d="M53.9201 114.491C57.8585 141.558 5.0121 135.472 2.14779 135.472C-1.86223 135.472 -3.72403 132.607 -3.4376 131.748C-2.93635 130.387 -2.72153 129.6 -2.72153 129.6L-2.79313 129.313C12.6741 130.674 43.2506 84.4153 42.8209 33.4307C43.0357 33.7888 43.1789 34.2184 43.2506 34.6481C43.537 35.5073 43.9666 37.584 44.5395 40.2334C44.2531 55.0562 37.0923 83.198 36.8775 86.6352C36.6627 90.0723 42.5345 83.2696 49.9101 68.4468C50.0533 69.3061 50.1965 70.1654 50.2681 71.0247C50.2681 72.8865 48.3347 75.3212 48.3347 75.3212C48.3347 75.3212 48.6211 76.2521 48.9792 77.7558C32.2946 104.967 17.1138 120.148 19.5484 120.291C21.7683 120.362 42.1764 106.9 52.2015 94.0824C51.9867 95.3713 51.6286 96.6602 51.0558 97.8776C51.199 97.9492 52.4163 105.611 53.9201 114.491Z" fill="#8A6393"/>
<path opacity="0.6" d="M26.4227 50.5449C26.1363 51.4042 25.0621 51.5474 24.2029 51.5474C23.4868 51.619 22.7707 51.5474 22.0546 51.4042C21.4102 51.261 20.8373 50.6165 20.6225 49.8289C19.978 49.6856 19.4051 49.3276 18.8323 48.898C18.331 48.4683 18.1162 47.6806 18.4026 47.0362C17.4717 47.3942 16.4692 47.1794 15.7532 46.5349C15.0371 45.8904 14.4642 45.1028 14.0346 44.1719C13.5333 43.3842 13.1753 42.4533 12.9605 41.4508C12.7456 40.4483 12.9605 39.4458 13.6049 38.7297C13.8198 38.4432 14.1778 38.2284 14.1778 37.8704C14.1778 37.5123 13.963 37.2259 13.8914 36.9395C13.8198 36.5815 14.2494 36.2234 14.4642 36.4382C13.963 36.1518 13.4617 35.6506 13.1753 35.0777C19.4052 32.643 26.4227 30.2084 27.64 30.2084C28.8574 30.2084 33.7983 31.9986 38.7392 34.8629C39.0972 32.4998 38.7392 32.0702 38.7392 32.0702C39.3837 31.7837 40.0997 31.7121 40.8158 31.8554C41.2455 31.9986 41.5319 32.5714 41.3887 33.0727C41.3887 33.1443 41.3171 33.2159 41.3171 33.2875C41.6751 33.0011 42.1048 32.9295 42.5344 33.0011C42.6776 33.2159 42.8208 33.4307 42.8924 33.7171L42.964 33.932L43.0357 34.0752L43.1073 34.2184C43.1073 34.3616 43.1789 34.4332 43.1789 34.5764C43.1789 34.7197 43.1789 34.7197 43.2505 34.7913V34.8629V35.0061V35.0777C43.2505 35.1493 43.2505 35.1493 43.3221 35.2209V35.3641L43.5369 35.5789V35.5073C43.5369 35.5789 43.5369 35.6506 43.5369 35.6506L43.6085 35.937C43.6085 36.0086 43.6085 36.0086 43.6085 36.0802L43.6801 36.295V36.4382L43.7517 36.7247V36.8679C43.7517 36.9395 43.8233 37.0827 43.8233 37.1543V37.2259C43.8949 37.4407 43.8949 37.6556 43.9666 37.8704C43.8949 38.1568 43.7517 38.4432 43.6801 38.6581C43.6085 38.8013 43.5369 39.0161 43.4653 39.1593C43.2505 39.3741 42.964 39.5174 42.7492 39.589L41.4603 40.0186C42.1048 40.0186 42.4628 40.8779 42.4628 41.594C42.606 42.4533 42.4628 43.3842 42.1764 44.1719C41.8183 45.0311 41.1023 45.604 40.243 45.5324C40.5294 46.1769 39.7417 46.7497 39.0972 46.8213C38.4528 46.8929 37.6651 46.8213 37.2354 47.3942C37.0206 47.8238 36.949 48.2535 36.949 48.7547C36.7342 49.7572 36.0897 50.5449 35.2304 50.8314C34.3711 51.1178 33.2254 50.3301 32.6526 50.6165C32.4377 53.9105 26.3511 54.3401 26.4227 50.5449Z" fill="#86628C"/>
<path d="M14.2495 36.9395C14.4643 36.6531 14.7507 36.3667 14.8223 36.0802C14.8223 35.7222 14.6075 35.4358 14.5359 35.0777C14.4643 34.7197 14.8223 34.29 15.0372 34.5765C13.963 33.8604 13.3902 32.4999 13.4618 31.0677C13.605 29.6355 14.4643 28.4898 15.61 28.0602C15.252 27.6305 15.3236 26.9145 15.6816 26.4848C15.7532 26.4132 15.8248 26.3416 15.8964 26.3416C15.3236 25.1243 15.1088 23.6921 15.252 22.3316C15.252 21.9735 15.3236 21.6155 15.5384 21.3291C15.7532 21.0426 16.1113 20.8278 16.4693 20.6846L18.4743 19.8253C18.8324 19.2524 19.1188 18.608 19.1904 17.9635C19.3336 17.319 19.7633 16.5314 20.4077 16.603C20.2645 15.8153 20.5509 15.0276 21.1238 14.598C21.6967 14.1683 22.4843 14.0967 23.0572 14.5263C23.5585 12.5929 24.8474 11.0892 26.4944 10.4447C28.213 9.87185 30.0031 9.94346 31.6501 10.6595C32.7958 11.0892 33.87 11.8769 34.6576 12.951C35.4453 14.0251 35.8034 15.4572 35.6601 16.8894C35.9466 16.8894 36.1614 16.961 36.3762 17.0326C36.4478 17.3906 36.3046 17.8203 36.0182 17.9635C36.233 17.9635 36.5194 18.1067 36.5194 18.3932C36.5194 18.6796 36.3762 18.8944 36.1614 18.966C36.3046 19.1092 36.3762 19.2524 36.3762 19.4673C36.9491 18.7512 38.0232 19.1808 38.7393 19.7537C39.885 20.5414 40.7443 21.6871 41.2455 23.1193C41.6752 24.5514 41.3171 26.1268 40.3146 27.0577L40.8159 27.4157C40.7443 27.7021 40.6011 27.917 40.3862 28.1318C40.8159 28.4182 40.9591 28.9911 40.7443 29.4923C40.6727 29.6355 40.5295 29.7788 40.3862 29.922C40.8875 30.1368 41.1023 30.7097 40.9591 31.2825C40.9591 31.3541 40.9591 31.3541 40.8875 31.4257C41.532 30.9245 42.3913 30.9961 42.9641 31.569C43.6086 32.285 43.9666 33.2875 43.895 34.29C43.8234 35.2925 43.6086 36.2951 43.2505 37.226C43.1789 37.4408 43.1073 37.584 43.0357 37.7272C42.8209 37.942 42.6061 38.0852 42.3197 38.1569L41.1023 38.5865C41.7468 38.5865 42.0332 39.4458 42.1048 40.2335C42.248 41.0928 42.1764 42.0237 41.89 42.883C41.6036 43.7422 40.8875 44.3151 40.0998 44.3151C40.3862 44.9596 39.5986 45.604 39.0257 45.6756C38.3812 45.7473 37.6652 45.6756 37.2355 46.2485C37.0207 46.6782 36.9491 47.1794 36.9491 47.6091C36.8059 48.6116 36.1614 49.4709 35.3021 49.7573C34.586 50.0437 33.4403 49.256 32.8674 49.5425C32.6526 52.9796 26.7808 53.3377 26.7808 49.3992C26.4944 50.2585 25.4919 50.4018 24.7042 50.4734C23.9881 50.545 23.3436 50.4734 22.6276 50.2585C21.9831 50.0437 21.4102 49.3992 21.267 48.6116C20.6225 48.3967 20.0497 48.1103 19.5484 47.6091C19.0472 47.1794 18.8324 46.3201 19.1188 45.6756C18.2595 46.0337 17.257 45.8189 16.5409 45.1744C15.8248 44.5299 15.252 43.6706 14.8223 42.7397C14.3211 41.8804 13.963 40.9495 13.7482 39.8754C13.3902 38.8013 13.605 37.7272 14.2495 36.9395Z" fill="#342635"/>
<path d="M16.1112 31.1393C16.326 30.8528 16.5409 30.638 16.6125 30.28C16.6125 29.9219 16.4693 29.6355 16.3977 29.3491C16.326 28.991 16.6841 28.633 16.8273 28.8478C16.1828 28.275 15.7532 27.4873 15.5384 26.5564C15.61 26.4132 15.7532 26.3416 15.8964 26.27C15.7532 25.9119 15.61 25.6255 15.5384 25.2675C15.6816 24.0501 16.3977 23.0476 17.4002 22.618C17.1137 22.1167 17.1853 21.4006 17.615 21.0426L17.6866 20.971C17.615 20.6846 17.4718 20.3981 17.4002 20.1117L18.4027 19.6821C18.7607 19.1092 19.0471 18.4647 19.1187 17.8203C19.262 17.1758 19.6916 16.3881 20.3361 16.4597C20.1929 15.672 20.4793 14.8843 21.0521 14.4547C21.625 14.0251 22.4127 13.9535 22.9856 14.3831C23.4868 12.4497 24.7757 10.9459 26.4227 10.3015C28.1413 9.7286 29.9315 9.80021 31.5785 10.5163C32.7242 10.9459 33.7983 11.8052 34.586 12.8793C34.8008 13.1658 35.0156 13.5238 35.1588 13.8818C35.0872 13.8818 35.0872 13.9534 35.0156 13.9534C35.1588 14.0967 35.2305 14.2399 35.1588 14.4547C35.2305 14.3831 35.2304 14.3115 35.3021 14.3115C35.5885 15.0992 35.6601 15.9585 35.5169 16.8178C35.8033 16.8178 36.0181 16.8894 36.233 16.961C36.3046 17.319 36.1613 17.7487 35.8749 17.8919C36.0897 17.8919 36.3762 18.0351 36.3762 18.3215C36.3762 18.6079 36.233 18.8228 36.0181 18.8944C36.1613 19.0376 36.233 19.1808 36.233 19.3956C36.8058 18.6796 37.8799 19.1092 38.596 19.6821C38.8108 19.8253 39.0257 19.9685 39.1689 20.1833C39.0257 20.7562 38.7392 21.2574 38.3096 21.6155L38.7392 21.9735C38.6676 22.2599 38.5244 22.4748 38.3812 22.6896C38.7392 23.0476 38.8824 23.6921 38.596 24.1217C38.5244 24.1933 38.4528 24.2649 38.3812 24.3366C38.8108 24.5514 39.0257 25.1958 38.8108 25.6971C38.8108 25.6971 38.8108 25.6971 38.8108 25.7687C39.3837 25.3391 40.0998 25.4107 40.601 25.9119C40.6726 25.9835 40.7442 26.0551 40.8158 26.1983C40.6726 26.4848 40.3862 26.7712 40.1714 26.986L40.6726 27.3441C40.601 27.6305 40.4578 27.8453 40.243 28.0601C40.6726 28.3466 40.8158 28.9194 40.601 29.4207C40.5294 29.5639 40.3862 29.7071 40.243 29.8503C40.7442 30.0652 40.9591 30.638 40.8158 31.2109C40.8158 31.2825 40.8158 31.2825 40.7442 31.3541L40.8875 31.2825V31.4257C40.8158 31.5689 40.8158 31.7837 40.6726 31.927C40.5294 32.1418 40.3146 32.285 40.0998 32.3566L39.0256 32.7862C39.5985 32.7146 39.8133 33.6455 39.8849 34.29C39.9566 35.1493 39.8849 36.0086 39.6701 36.8679C39.4553 37.6556 38.8108 38.2284 38.0948 38.2284C38.3096 38.8729 37.6651 39.4458 37.1639 39.5174C36.6626 39.589 35.9465 39.5174 35.6601 40.0902C35.5169 40.5199 35.3737 40.9495 35.3737 41.4508C35.2304 42.3817 34.7292 43.1693 33.9415 43.5274C33.297 43.8138 32.2945 43.0261 31.8649 43.3126C31.6501 46.5349 26.6375 46.9646 26.6375 43.1693C26.4227 43.957 25.5634 44.1719 24.8473 44.1719C24.2745 44.2435 23.7016 44.1719 23.1288 44.0286C22.5559 43.8138 22.1263 43.1693 21.983 42.4533C21.4102 42.2385 20.9805 41.952 20.5509 41.5224C20.1212 41.0211 19.978 40.305 20.1928 39.6606C19.4768 40.0186 18.6175 39.8038 17.973 39.1593C17.3286 38.5149 16.8273 37.7272 16.5409 36.7963C16.1112 35.937 15.8248 35.0777 15.6816 34.1468C15.3951 32.9295 15.61 31.927 16.1112 31.1393Z" fill="#4B394C"/>
<path d="M21.3387 18.1067C21.2671 18.1067 21.1955 17.9635 21.1955 17.8918C21.1955 17.8202 21.2671 17.677 21.2671 17.6054C21.5535 17.1758 21.9116 16.7461 22.2696 16.5313C22.556 16.3881 22.7709 16.3165 23.0573 16.3165C23.5585 16.2449 24.0598 16.2449 24.561 16.2449C25.1339 16.1733 25.7068 16.2449 26.2796 16.3165C26.8525 16.3881 27.4254 16.6029 27.9982 16.7461C28.6427 16.8177 29.2871 16.8177 29.86 16.7461C30.7193 16.7461 31.5786 16.6029 32.4379 16.4597C33.0107 16.2449 33.5836 16.1733 34.1565 16.3165C34.2997 16.3881 34.3713 16.4597 34.4429 16.5313C34.5861 16.7461 34.5145 17.0326 34.2997 17.1758C34.2281 17.1758 34.1565 17.2474 34.1565 17.2474C34.5145 17.3906 34.6577 17.8918 34.6577 18.3215C34.6577 18.6795 34.5861 18.966 34.3713 19.1808C34.1565 19.324 33.9416 19.324 33.7268 19.1808L33.5836 19.1092C33.512 19.1092 33.3688 19.0376 33.2972 18.966L33.2256 18.8944L33.0823 18.7511H33.154C33.0823 18.6079 33.0824 18.5363 33.0107 18.4647C32.9391 18.3931 32.8675 18.3215 32.7243 18.2499C32.3663 18.0351 31.9366 17.8918 31.5786 17.7486C30.6477 17.3906 29.7168 17.2474 28.7859 17.2474C28.2846 17.2474 27.7834 17.4622 27.2821 17.4622C26.7809 17.3906 26.208 17.3906 25.7068 17.4622C25.1339 17.6054 24.561 17.9635 23.9882 18.0351C23.7734 18.0351 23.6301 18.1067 23.4153 18.1783C23.2005 18.3931 23.1289 18.7511 22.9857 19.0376C22.7709 19.324 22.4844 19.4672 22.198 19.4672C22.4128 19.6104 22.2696 19.9685 22.0548 20.0401C21.84 20.0401 21.6251 19.8969 21.4819 19.7536C21.2671 19.2524 21.1239 18.6079 21.3387 18.1067Z" fill="#342635"/>
<path d="M31.9365 16.8177H24.3461L24.4177 17.1042C24.7042 18.4647 25.7067 19.1092 26.566 18.4647L27.8549 17.6054H28.4277L29.7883 18.4647C30.7192 19.0376 31.7217 18.2499 31.9365 16.8177Z" fill="#AEA0BA"/>
<path d="M26.2795 18.1067L27.4968 16.6745L24.9189 16.4597L26.2795 18.1067Z" fill="#342635"/>
<path d="M26.2796 17.3906L27.1389 16.8178L25.2771 16.7462L26.2796 17.3906Z" fill="#A5EFE1"/>
<path d="M29.7883 17.9635L31.0056 16.603L28.4277 16.3165L29.7883 17.9635Z" fill="#342635"/>
<path d="M29.7882 17.5339L30.5759 16.6746H28.8573L29.7882 17.5339Z" fill="#A5EFE1"/>
<path d="M35.5168 9.29896L35.0872 13.7386L20.6225 14.7411L20.8373 5.50376C20.8373 5.50376 22.6991 10.6595 25.3486 10.0866C27.9981 9.51378 29.4302 4 29.4302 4C29.4302 4 30.1463 10.3731 32.5093 10.8027C34.7292 11.1608 35.5168 9.29896 35.5168 9.29896Z" fill="#8FA7BC"/>
<path d="M28.5711 16.8177L28.7859 18.8944L27.855 19.5388L27.1389 18.8944L27.7118 16.8177H28.5711Z" fill="#917EA5"/>
<path d="M28.4278 16.6746L28.6426 18.7512L27.8549 19.324L27.282 18.7512L27.7117 16.7462L28.4278 16.6746Z" fill="#AEA0BA"/>
<path d="M35.3738 15.7436C32.4379 17.3906 27.4969 16.8178 27.4969 16.8178C27.7118 16.2449 28.0698 15.8869 28.5711 15.672C29.0007 15.4572 29.4303 15.6004 29.7168 16.0301C29.7168 16.0301 30.5045 14.4547 31.3638 14.6695C31.865 14.7411 32.223 15.1708 32.2947 15.7436C33.9416 14.3115 35.0157 14.0251 35.3738 15.7436Z" fill="#4B394C"/>
<path d="M20.4793 15.7436C23.2004 17.3906 27.7117 16.8178 27.7117 16.8178C27.5685 16.3165 27.2104 15.8869 26.7092 15.672C26.3511 15.5288 25.9215 15.6004 25.6351 16.0301C25.6351 16.0301 24.919 14.4547 24.0597 14.6695C23.63 14.7411 23.272 15.2424 23.2004 15.7436C21.8399 14.3115 20.8373 14.0251 20.4793 15.7436Z" fill="#4B394C"/>
<path d="M22.1262 45.246C22.4126 44.0287 23.3435 43.1694 24.4176 43.241C25.5634 43.241 26.351 44.1003 26.2794 45.246C25.993 46.4633 25.0621 47.3226 23.988 47.251C22.7707 47.251 21.983 46.3917 22.1262 45.246Z" fill="#4B394C"/>
<path d="M28.6426 34.5764C28.571 34.648 28.4994 34.7196 28.4994 34.7912C28.571 34.7196 28.6426 34.648 28.6426 34.5764Z" fill="#342635"/>
<path d="M26.9956 38.8013C26.9956 39.2309 26.924 39.6606 26.7808 40.0902C26.8524 39.6606 26.924 39.2309 26.9956 38.8013Z" fill="#342635"/>
<path d="M25.7782 35.0777C26.6375 35.5789 27.7116 35.4357 28.4993 34.7913C27.998 35.4357 27.9264 36.4382 28.4277 37.1543C27.7832 37.1543 27.2819 37.6556 26.9955 38.8013C27.0671 37.4407 26.6375 36.0802 25.7782 35.0777Z" fill="#342635"/>
<path d="M19.1187 31.3541L18.9754 31.2825C19.047 31.2825 19.1187 31.2825 19.1187 31.3541Z" fill="#342635"/>
<path d="M16.6125 30.7097C16.3977 30.7097 16.1113 30.7097 15.8965 30.7097C16.1113 30.638 16.3261 30.638 16.6125 30.7097Z" fill="#342635"/>
<path d="M18.4743 29.2059C18.331 29.9219 18.5459 30.7096 19.0471 31.2109C18.6175 30.9245 18.0446 31.0677 17.7582 31.4973C17.6866 30.9961 17.3285 30.7096 16.6841 30.638C17.3285 30.4948 18.0446 29.9936 18.4743 29.2059Z" fill="#342635"/>
<path d="M38.5959 38.7297C38.8824 39.0161 39.1688 39.3025 39.312 39.6606C39.0972 39.3741 38.8824 39.0877 38.5959 38.7297Z" fill="#342635"/>
<path d="M35.3736 37.5123C36.2329 37.0111 36.8058 36.0086 36.8774 34.8629C37.0206 35.7221 37.6651 36.3666 38.3811 36.4382C37.9515 37.0827 38.0231 37.7988 38.5959 38.8013C37.7367 37.7988 36.5909 37.3691 35.3736 37.5123Z" fill="#342635"/>
<path d="M33.5835 39.4457C33.5835 39.4457 35.7317 37.5839 35.9465 41.3075L34.4428 43.0977C35.7317 40.8063 34.4428 39.0877 33.5835 39.4457Z" fill="#342635"/>
<path d="M32.8675 44.9595L34.4429 43.0977C34.0132 43.8138 33.512 44.4583 32.8675 44.9595Z" fill="#342635"/>
<path d="M1.36005 97.3763C1.36005 97.3763 15.3235 102.317 28.2129 68.8049C29.8599 64.5084 31.2204 60.7848 32.4377 57.4193C32.4377 57.7773 32.4377 58.1353 32.4377 58.4934C31.292 79.6176 13.1753 109.908 -1.36104 105.11C-0.71657 102.389 0.21433 99.8109 1.36005 97.3763Z" fill="#A686AD"/>
<path d="M20.7658 5.8618V5.50376C20.7658 5.50376 22.6276 10.6595 25.2771 10.0866C27.9266 9.51378 29.3587 4 29.3587 4C29.3587 4 30.0748 10.3731 32.4379 10.8027C32.8675 10.8743 33.2972 10.8743 33.7268 10.8027C33.0823 12.0917 32.1514 13.2374 31.0773 14.0967L25.4919 14.4547C23.0573 13.0226 21.2671 9.80022 20.7658 5.8618Z" fill="#BACEDD"/>
<path d="M29.3586 13.2374L28.929 9.29895L27.8549 13.5238L29.3586 13.2374Z" fill="#8FA7BC"/>
</g>
</svg>
