<svg width="60" height="60" viewBox="0 0 60 60" fill="none" xmlns="http://www.w3.org/2000/svg">
<mask id="mask0_123_1352" style="mask-type:alpha" maskUnits="userSpaceOnUse" x="0" y="0" width="60" height="60">
<rect width="60" height="60" fill="#D9D9D9"/>
</mask>
<g mask="url(#mask0_123_1352)">
<path d="M15.4689 29.4743C12.6383 26.5935 12.1777 21.6861 12.9565 20.3545C13.7354 19.023 16.8255 18.5122 16.8255 18.5122C16.8255 18.5122 15.2093 17.0048 16.4236 15.7988C17.6378 14.5929 21.0462 15.0954 21.0462 15.0954C21.0462 15.0954 23.6088 20.7146 22.3694 23.6122C21.13 26.5097 15.4689 29.4743 15.4689 29.4743Z" fill="#512A28"/>
<path d="M9.80903 38.6023C7.2967 35.4619 7.2967 30.5377 8.19277 29.2899C9.08883 28.0421 12.1874 27.7993 12.1874 27.7993C12.1874 27.7993 10.7135 26.1244 12.0366 25.0609C13.3598 23.9973 16.7012 24.8012 16.7012 24.8012C16.7012 24.8012 18.6943 30.6633 17.2204 33.4353C15.7465 36.2072 9.80903 38.6023 9.80903 38.6023Z" fill="#512A28"/>
<path d="M31.9159 17.6581C35.7012 15.9832 37.1332 16.3768 38.1214 17.1975C38.7433 17.6745 39.1848 18.3486 39.3734 19.1093C39.5621 19.8701 39.4868 20.6723 39.1598 21.3847C39.5484 21.2769 39.9636 21.3241 40.3181 21.5162C40.6727 21.7083 40.9389 22.0304 41.0608 22.4147C41.4712 23.8133 39.3859 26.6019 39.3859 26.6019C39.3859 26.6019 33.4568 27.1965 31.6731 25.3207C29.8893 23.4448 31.9159 17.6581 31.9159 17.6581Z" fill="#512A28"/>
<path d="M45.6611 69.3533C60.2075 79.8883 89.4761 94.8701 89.4761 94.8701L97.0968 88.606C81.7716 74.4365 66.1868 41.6172 53.2819 34.0216C47.4198 30.5713 45.6611 69.3533 45.6611 69.3533Z" fill="#FFB882"/>
<path d="M50.5933 40.9221C49.4208 50.1925 45.4011 70.2828 45.4011 70.2828C59.9475 80.8178 89.4757 94.8701 89.4757 94.8701L92.6412 92.8099C86.0171 86.973 58.214 60.4596 50.5933 40.9221Z" fill="#FF9566"/>
<path d="M52.0084 86.4204C52.0084 81.3371 54.437 71.2962 54.437 71.2962L38.2828 56.775L11.4846 70.509L14.2566 91.7549L52.0084 86.4204Z" fill="#FF9566"/>
<path d="M11.1863 35.4702C5.45818 39.9254 9.905 72.2087 11.1193 73.0713C12.3336 73.9338 31.9716 75.6506 36.6278 72.3511C38.4785 71.0447 39.6761 54.6057 38.8973 48.9027C38.4032 45.218 34.1573 35.7717 26.1681 33.1421C21.7381 31.6682 13.5311 33.6613 11.1863 35.4702Z" fill="#FFB882"/>
<path d="M0.98879 89.9711C-6.72405 77.0745 -6.67381 45.7793 10.9292 41.4664C14.0529 40.7043 19.8564 66.5897 15.9539 77.5518C11.4819 90.281 0.98879 89.9711 0.98879 89.9711Z" fill="#FF9566"/>
<path d="M50.7685 35.1188C60.9016 42.4799 59.0173 69.6466 58.3055 70.7101C56.9153 72.7954 42.8044 74.8973 39.7729 71.9244C38.9355 71.1456 37.6877 54.4302 38.299 48.7189C38.6926 45.0425 48.6833 33.603 50.7685 35.1188Z" fill="#FFB882"/>
<path d="M-2.75023 89.5525C-8.89706 75.0899 -6.66946 40.1435 11.4863 35.2863C14.6937 34.4489 19.5425 61.0125 12.441 74.7801C5.33946 88.5476 -2.75023 89.5525 -2.75023 89.5525Z" fill="#FFB882"/>
<path d="M0.906216 43.2922C-7.69432 55.8036 -8.44802 78.7998 -3.77509 89.7703C-1.79511 89.3406 0.161503 88.8096 2.08701 88.1792C-2.51055 77.2505 -6.10318 56.3898 0.906216 43.2922Z" fill="#FF9566"/>
<path d="M30.9397 30.6633C23.8769 30.909 16.936 32.5752 10.5312 35.5624C10.9085 36.8101 11.747 37.8672 12.8761 38.5186C12.9682 46.4826 20.5052 56.3226 27.7742 57.5955C27.7742 57.5955 32.1875 62.0423 41.5585 59.2704C50.9295 56.4984 50.8457 51.5408 50.8457 51.5408C50.8457 51.5408 55.728 48.3669 55.8704 43.091C56.0797 36.1737 52.7383 33.6614 52.7383 33.6614C52.7383 33.6614 39.3644 30.4456 30.9397 30.6633Z" fill="#FF9566"/>
<path d="M14.9154 36.5088C14.9992 44.4729 22.1007 54.2626 28.9426 55.4685C28.9426 55.4685 33.1298 59.8902 41.9313 57.0346C50.7328 54.1789 50.6826 49.238 50.6826 49.238C52.0225 48.446 53.1337 47.3195 53.9073 45.9689C54.681 44.6183 55.0906 43.09 55.0959 41.5335C55.0122 36.2492 52.5836 33.4773 52.5836 33.4773C52.5836 33.4773 52.5166 30.7891 51.2018 29.4743C45.3983 23.6122 39.754 23.6792 39.754 23.6792C39.754 23.6792 38.5062 19.9024 35.684 19.8605C35.684 19.8605 36.2535 18.7299 34.8466 17.2979C33.9876 16.441 32.8739 15.8857 31.6727 15.7151L20.4593 17.1137C20.4593 17.1137 17.344 18.6713 16.9923 20.2625C16.6406 21.8536 18.1815 24.2989 18.1815 24.2989C18.1815 24.2989 14.1952 25.5132 14.7145 29.064C14.2189 29.4148 13.8015 29.8646 13.4887 30.3849C13.1759 30.9053 12.9745 31.4849 12.8972 32.0871C12.8386 34.499 14.9154 36.5088 14.9154 36.5088Z" fill="#683A36"/>
<path d="M28.7898 21.0997C29.175 22.2805 29.6272 23.0426 30.9755 22.8918C32.0726 22.7746 31.612 20.9155 31.612 20.9155L28.7898 21.0997Z" fill="#592F2D"/>
<path d="M44.2821 25.287C45.068 25.4347 45.8409 25.6447 46.5934 25.9151C44.5289 24.6302 42.1783 23.8764 39.7515 23.721C39.6503 23.4341 39.53 23.1544 39.3914 22.8835C39.3462 23.5337 39.1726 24.1684 38.8806 24.751C38.7717 24.9604 38.6461 25.153 38.5205 25.3456C40.4156 24.9212 42.3788 24.9012 44.2821 25.287Z" fill="#592F2D"/>
<path d="M52.5848 33.4774C52.5557 32.9641 52.4828 32.4542 52.3671 31.9532C52.3749 32.0592 52.3749 32.1655 52.3671 32.2715C52.2849 32.6881 52.1197 33.084 51.8814 33.4355C53.6903 36.1069 53.2297 40.604 50.575 44.2385C49.8657 45.195 49.0191 46.0416 48.0626 46.7508C48.348 46.9401 48.5907 47.1868 48.7752 47.4752C48.9598 47.7636 49.0822 48.0873 49.1346 48.4257C49.3691 50.7203 45.2907 53.0065 40.0316 53.5425C36.0705 53.9444 32.57 53.2326 30.9788 51.8676C24.4468 51.072 19.531 47.6804 19.531 43.6858C19.531 41.6006 20.8542 39.6996 23.0399 38.234C19.3384 37.3966 16.8512 35.9478 16.8512 34.2478C16.9091 33.7699 17.0847 33.3139 17.3625 32.9207C17.6402 32.5275 18.0113 32.2094 18.4423 31.9951C17.9709 31.6281 17.5846 31.1633 17.3099 30.6328C17.0353 30.1022 16.8788 29.5185 16.8512 28.9217C16.8512 27.2468 18.1827 25.6724 20.2931 24.6424C19.0149 23.7303 17.9115 22.5957 17.0354 21.2926C17.2517 22.3505 17.6393 23.366 18.1827 24.299C18.1827 24.299 14.1965 25.5133 14.7157 29.0641C14.2201 29.4148 13.8028 29.8646 13.49 30.385C13.1772 30.9054 12.9757 31.485 12.8985 32.0872C12.8147 34.5158 14.8916 36.5089 14.8916 36.5089C14.9753 44.473 22.0768 54.2627 28.9187 55.4686C28.9187 55.4686 33.1059 59.8903 41.9075 57.0346C50.709 54.1789 50.6587 49.238 50.6587 49.238C51.9986 48.446 53.1098 47.3196 53.8835 45.969C54.6571 44.6184 55.0667 43.09 55.072 41.5336C55.0302 36.2493 52.5848 33.4774 52.5848 33.4774Z" fill="#592F2D"/>
<path d="M53.8005 40.5203C53.7813 40.8534 53.7194 41.1827 53.6163 41.5001C52.603 44.4646 48.2399 45.6873 43.8768 44.1715C42.0688 43.5838 40.4461 42.5328 39.1704 41.1232C40.1838 43.0649 41.7799 44.6404 43.7345 45.6287C47.8044 47.7976 52.3015 47.3035 53.7838 44.5484C54.0851 43.9202 54.2429 43.2329 54.2458 42.5362C54.2487 41.8395 54.0966 41.1509 53.8005 40.5203Z" fill="#592F2D"/>
<path d="M23.2637 49.1793C23.4531 49.4308 23.6662 49.6636 23.9001 49.8744C26.1863 51.8591 30.2647 51.5492 33.0115 49.1039C34.1486 48.1468 34.9352 46.8388 35.2475 45.3857C35.4286 47.1015 34.9261 48.8196 33.8489 50.1675C31.68 53.0148 27.8445 53.9443 25.2987 52.2527C24.7727 51.9009 24.3219 51.448 23.9725 50.9203C23.6232 50.3927 23.3822 49.8009 23.2637 49.1793Z" fill="#592F2D"/>
<path d="M16.7948 26.7106C16.7203 26.9839 16.6782 27.265 16.6692 27.5481C16.6692 30.3954 19.7426 32.7486 23.3687 32.5727C24.7515 32.5438 26.0845 32.0513 27.1539 31.1742C26.2438 32.5803 24.8342 33.5889 23.2096 33.9964C19.55 34.9845 15.9992 33.2008 15.6726 30.1525C15.6155 29.5326 15.6856 28.9076 15.8785 28.3158C16.0715 27.7239 16.3833 27.1777 16.7948 26.7106Z" fill="#592F2D"/>
<path d="M19.5746 16.0166C17.4559 14.8945 17.8998 13.6634 18.218 12.9013C18.5362 12.1393 19.8929 12.0639 19.8929 12.0639C19.7594 11.7097 19.7409 11.3224 19.8401 10.957C19.9394 10.5917 20.1512 10.267 20.4456 10.0289C20.8016 9.8074 21.2052 9.67365 21.6231 9.6387C22.041 9.60376 22.4611 9.66862 22.849 9.82794C22.8096 9.38186 22.9222 8.93555 23.1685 8.56154C23.4148 8.18753 23.7803 7.90781 24.2057 7.76783C24.8165 7.59693 25.4693 7.66337 26.0332 7.95384C26.597 8.24431 27.0302 8.73729 27.2456 9.33385C27.2456 9.33385 29.0712 5.65748 31.8934 6.02596C34.7156 6.39443 33.4511 9.79444 33.4511 9.79444C33.4511 9.79444 35.0506 8.47966 35.5279 10.8747C36.0052 13.2698 34.3722 15.8408 32.1781 15.8073C29.984 15.7738 19.5746 16.0166 19.5746 16.0166Z" fill="#683A36"/>
<path d="M30.7877 13.5629C30.7877 13.5629 27.4379 16.0083 25.1433 14.4004C22.8487 12.7925 25.4281 10.3304 25.4281 10.3304C25.4281 10.3304 23.4182 10.7826 24.0547 8.4378C24.1185 8.20095 24.2054 7.97094 24.3143 7.7511H24.1719C23.7465 7.89107 23.381 8.17079 23.1347 8.5448C22.8884 8.91881 22.7758 9.36512 22.8152 9.8112C22.4274 9.65188 22.0072 9.58702 21.5893 9.62197C21.1714 9.65691 20.7678 9.79066 20.4118 10.0122C20.1157 10.2508 19.9027 10.577 19.8034 10.9441C19.7041 11.3111 19.7236 11.7002 19.8591 12.0555C19.8591 12.0555 18.5359 12.1393 18.1842 12.893C17.8325 13.6467 17.4221 14.8861 19.5409 16.0083C19.5409 16.0083 28.8783 15.8157 31.7256 15.824C31.3895 15.5584 31.1268 15.2112 30.9626 14.8154C30.7985 14.4197 30.7383 13.9885 30.7877 13.5629Z" fill="#592F2D"/>
<path d="M34.329 16.8291L34.0861 15.3217L18.7944 15.5143L19.054 17.9512L34.329 16.8291Z" fill="#FFEBC0"/>
<path d="M33.1033 16.2428C33.0911 16.5004 32.9905 16.7458 32.8186 16.9379L34.326 16.8291L34.0915 15.3217H32.626C32.7678 15.4312 32.884 15.5704 32.9664 15.7295C33.0489 15.8886 33.0956 16.0638 33.1033 16.2428Z" fill="#F7CDA9"/>
<path d="M22.9398 16.2426C22.955 15.9439 23.0838 15.6623 23.2999 15.4554L18.7944 15.5141L19.0205 17.951L24.0452 17.5825C23.3669 17.2141 22.9398 16.7535 22.9398 16.2426Z" fill="#F7CDA9"/>
<path d="M25.2906 20.6394L30.6335 21.3679L33.6148 20.2625C33.6148 20.2625 33.4808 18.3364 32.7773 18.5458C30.4415 19.0229 28.0456 19.1331 25.6758 18.8724C25.0561 18.8054 25.2906 20.6394 25.2906 20.6394Z" fill="#FFB882"/>
<path d="M25.4751 19.5757C26.748 19.7264 29.5618 20.1117 30.3574 19.0732C30.7897 19.3103 31.2692 19.449 31.7613 19.4794C32.2535 19.5098 32.7464 19.4312 33.2047 19.2491C33.2785 19.2279 33.3569 19.2279 33.4308 19.2491C33.3051 18.8304 33.0958 18.4535 32.7608 18.554C30.425 19.0311 28.0291 19.1413 25.6593 18.8806C25.3829 18.8806 25.2824 19.2323 25.2573 19.6427C25.2868 19.6167 25.3214 19.5973 25.359 19.5857C25.3965 19.5742 25.4361 19.5707 25.4751 19.5757Z" fill="#FF9566"/>
<path d="M21.9429 19.7265C21.6666 18.2275 19.7153 18.3866 19.506 19.2157C19.2966 20.0447 20.2932 22.1635 21.1809 21.4935C21.4682 21.3072 21.694 21.0399 21.8296 20.7255C21.9652 20.411 22.0047 20.0634 21.9429 19.7265Z" fill="#FFB882"/>
<path d="M21.5305 19.9609C21.3379 19.0146 19.998 19.1235 19.8556 19.6343C19.7133 20.1452 20.4 21.4934 21.0113 21.0663C21.2044 20.9616 21.359 20.7978 21.4524 20.5989C21.5458 20.4 21.5732 20.1765 21.5305 19.9609Z" fill="#EA7B59"/>
<path d="M21.5357 20.4047C21.4017 19.7431 20.4637 19.8185 20.3549 20.1786C20.246 20.5387 20.7401 21.4766 21.1923 21.1835C21.3239 21.106 21.4279 20.9892 21.4895 20.8494C21.5511 20.7097 21.5673 20.5541 21.5357 20.4047Z" fill="#FFB882"/>
<path d="M43.1802 36.5675C46.2955 30.7054 53.0452 35.3532 53.0452 35.3532L52.3585 32.8409C51.5047 32.2757 50.5419 31.8958 49.5322 31.7256C48.5225 31.5554 47.4884 31.5987 46.4964 31.8527C44.2772 32.464 43.1802 36.5675 43.1802 36.5675Z" fill="#592F2D"/>
<path d="M30.3253 19.0482C30.1293 19.8015 30.0142 20.5735 29.9819 21.3512C29.9819 21.3512 30.4425 22.5822 31.28 22.5655C32.4775 22.5655 32.2933 20.7566 31.6401 20.1369C31.2317 19.7393 30.7921 19.3752 30.3253 19.0482Z" fill="#FFB882"/>
<path d="M31.6368 20.1369C31.2285 19.7393 30.7888 19.3752 30.322 19.0482C30.322 19.1487 30.322 19.2325 30.2634 19.3162C30.4812 19.4921 30.7575 19.7265 31.1009 20.028C31.729 20.6226 31.9383 22.3059 30.8664 22.4482C30.9981 22.5264 31.1487 22.5669 31.3019 22.5655C32.4743 22.5487 32.29 20.7566 31.6368 20.1369Z" fill="#EA7B59"/>
<path d="M19.084 16.9126L18.9081 16.3934C14.453 18.2777 16.0525 25.2703 16.3121 27.9083C16.5717 30.5462 12.418 33.0167 12.418 33.0167L16.2283 36.132C16.2283 36.132 18.9081 32.4975 18.5648 28.3437C18.2214 24.19 14.8298 19.0146 19.084 16.9126Z" fill="#F7CDA9"/>
<path d="M18.3797 17.457C18.8422 17.457 19.2171 17.1008 19.2171 16.6614C19.2171 16.222 18.8422 15.8658 18.3797 15.8658C17.9172 15.8658 17.5422 16.222 17.5422 16.6614C17.5422 17.1008 17.9172 17.457 18.3797 17.457Z" fill="#F7CDA9"/>
<path d="M12.418 32.9998L16.2283 36.115C16.2283 36.115 18.9081 32.4805 18.5648 28.3268C18.388 26.9063 18.0824 25.5048 17.652 24.1396C17.2411 23.3576 16.6091 22.7139 15.8347 22.2889C15.8691 24.1538 16.0286 26.0143 16.3121 27.8579C16.5717 30.5293 12.418 32.9998 12.418 32.9998Z" fill="#FFEBC0"/>
<path d="M18.1165 16.8625L18.1835 16.4521C13.3347 15.7654 11.7938 20.8822 10.8977 22.666C10.0016 24.4497 5.17798 24.2571 5.17798 24.2571L7.29671 27.8581C7.29671 27.8581 11.2829 26.6857 12.7568 23.897C14.2307 21.1083 13.3682 16.4019 18.1165 16.8625Z" fill="#F7CDA9"/>
<path d="M5.17798 24.257L7.29671 27.858C7.29671 27.858 11.2829 26.6856 12.7568 23.8969C13.1892 22.9296 13.5068 21.9149 13.7031 20.8737C13.643 20.1497 13.3491 19.4649 12.8657 18.9225C12.1055 20.1099 11.4525 21.3627 10.9145 22.6659C10.0016 24.4496 5.17798 24.257 5.17798 24.257Z" fill="#FFEBC0"/>
<path d="M28.4117 19.7266C28.4117 19.5256 28.0851 19.6429 27.6329 19.6429C27.1806 19.6429 26.7954 19.5256 26.7954 19.7266C26.7954 19.9276 27.1639 20.0951 27.6329 20.0951C28.1018 20.0951 28.4117 19.936 28.4117 19.7266Z" fill="#512A28"/>
<path d="M32.9588 19.4249C32.9588 19.224 32.6573 19.3579 32.2386 19.4249C31.8198 19.4919 31.4011 19.3663 31.4011 19.5673C31.4011 19.7683 31.7361 19.9107 32.1548 19.8855C32.5735 19.8604 32.9588 19.6259 32.9588 19.4249Z" fill="#512A28"/>
</g>
</svg>
