<svg width="60" height="60" viewBox="0 0 60 60" fill="none" xmlns="http://www.w3.org/2000/svg">
<mask id="mask0_123_1443" style="mask-type:alpha" maskUnits="userSpaceOnUse" x="0" y="0" width="60" height="60">
<rect width="60" height="60" fill="#D9D9D9"/>
</mask>
<g mask="url(#mask0_123_1443)">
<path d="M26.0857 43.619C27.1333 83.0857 22.9333 99.1523 20.5904 105.752C18.4571 111.781 14.9333 121.886 14.9333 121.886C14.9333 121.886 13.1904 84.019 12.8666 70.6762C12.4476 54.8285 26.0857 43.619 26.0857 43.619Z" fill="#F48938"/>
<path d="M70.5807 44.6953C75.5045 71.981 74.5903 95.981 60.0093 96.3714C45.4284 96.7619 35.4855 84.3619 32.9236 69.8095C30.3617 55.2572 45.5712 48.1238 45.5712 48.1238C45.5712 48.1238 45.8664 71.9333 59.5426 77.2762C67.876 80.5143 67.7903 66.0476 67.2379 55.6095C66.6379 45.0476 70.5807 44.6953 70.5807 44.6953Z" fill="#F9C553"/>
<path d="M60.8951 95.2953C46.3237 95.6857 36.3713 83.2762 33.819 68.7048C33.3576 66.2047 33.4403 63.6346 34.0616 61.1695C34.6828 58.7043 35.8279 56.4019 37.419 54.4191C35.5319 56.463 34.1441 58.9162 33.3641 61.5865C32.5842 64.2567 32.4335 67.0713 32.9237 69.8095C35.4856 84.381 45.438 96.7905 60.0094 96.3905C61.6941 96.3791 63.3516 95.9641 64.8429 95.1804C66.3342 94.3966 67.616 93.2668 68.5809 91.8857C67.6047 92.9541 66.4179 93.8086 65.0951 94.3954C63.7723 94.9822 62.3422 95.2886 60.8951 95.2953Z" fill="#F48938"/>
<path d="M59.8571 78.2572C68.1904 81.4953 68.1047 67.0286 67.5523 56.5905C67.0762 47.4857 69.9047 45.9714 70.7238 45.7333C70.6571 45.381 70.6 45.0476 70.5428 44.6953C70.5428 44.6953 66.6 45 67.1619 55.6095C67.7142 66.0857 67.5142 80.1524 59.1809 76.9048C54.1428 74.9429 51.2095 70.7619 49.1523 65.8857C51.1809 71.1619 54.4952 76.1524 59.8571 78.2572Z" fill="#F48938"/>
<path d="M33.3238 70.7619C30.9904 57.5047 43.3428 50.4381 45.5714 49.2762C45.5714 48.5428 45.5238 48.1238 45.5238 48.1238C45.5238 48.1238 30.3333 55.2095 32.9238 69.8095C33.4479 72.7473 34.2844 75.6208 35.419 78.3809C34.479 75.9139 33.7774 73.3626 33.3238 70.7619Z" fill="#F48938"/>
<path d="M56.7808 92.1333C57.4958 87.1241 58.9766 82.2545 61.1713 77.6952C60.6002 77.6268 60.0401 77.486 59.5046 77.2762C45.8284 71.9523 45.5713 48.1238 45.5713 48.1238C45.5713 48.1238 30.3332 55.2095 32.9237 69.8095C35.2665 83.1428 43.7522 94.5714 56.2856 96.2095C56.3998 94.8571 56.5618 93.5047 56.7808 92.1333Z" fill="#F48938"/>
<path d="M18.3427 46.8381C9.42842 67.2952 2.05698 110.276 -0.352539 116.162L0.228414 116.857C0.228414 116.857 23.0856 70.2952 24.9903 59.7809C26.8951 49.2666 18.3427 46.8381 18.3427 46.8381Z" fill="#FFB882"/>
<path d="M18.3429 46.8381C16.1873 51.996 14.3427 57.2785 12.8191 62.6571C15.6762 64.8571 18.0858 69.0571 19.7334 74.5143C22.4381 68.0666 24.4953 62.619 25.0191 59.7809C27.0096 49.2666 18.3429 46.8381 18.3429 46.8381Z" fill="#FF9566"/>
<path d="M18.3429 46.8381C18.2381 47.0952 18.1238 47.3619 18.0095 47.619C20.4286 48.9809 21.9524 53.019 20.5524 60.4285C19.0286 68.5143 0.361914 115.562 -0.0380859 116.543L0.22858 116.857C0.22858 116.857 23.6667 70.7619 25.6762 60.2857C27.6857 49.8095 18.3429 46.8381 18.3429 46.8381Z" fill="#FF9566"/>
<path d="M77.2857 38.6953C67.5333 45.8095 58.238 60.6 58.238 60.6C58.238 60.6 59.9618 69 62.3999 69C64.838 69 71.5714 45.1905 78.0285 39.4L77.2857 38.6953Z" fill="#FFB882"/>
<path d="M77.2857 38.6953C74.8345 40.5325 72.5524 42.5851 70.4666 44.8286C66.1428 53.8 62.3523 65.0476 60.6476 65.0476C60.3738 65.0755 60.0976 65.0292 59.848 64.9136C59.5983 64.7979 59.3843 64.6173 59.2285 64.3905C59.9618 66.6286 61.0666 69.0381 62.3714 69.0381C64.8095 69.0381 71.5428 45.2286 78 39.4381L77.2857 38.6953Z" fill="#FF9566"/>
<path d="M39.5238 41.9048C52.2285 49.781 59.3238 58.8572 60.6 60.9524C61.8762 63.0476 64.5428 69.6191 61.8857 68.9238C59.2285 68.2286 40.9619 58.2953 39.6857 56.4762C38.4095 54.6572 39.5238 41.9048 39.5238 41.9048Z" fill="#FFB882"/>
<path d="M61.762 63.9524C59.0477 63 44.8096 47.5429 40.6762 44.181C40.6762 47.0381 39.1239 55.6095 39.6572 56.4286C40.9334 58.3334 59.1905 68.2095 61.8572 68.8953C63.6382 69.3619 63.8191 66.8 62.8096 64.2667C62.781 64.2572 61.8953 63.981 61.762 63.9524Z" fill="#FF9566"/>
<path d="M21.7048 44.8666C25.9334 39.9428 29.381 38.0762 30.6667 37.7809C31.9524 37.4857 38.2191 41.7428 39.4953 43.1143C40.7715 44.4857 48.2953 53.0476 48.4858 55.1143C48.6763 57.1809 30.0763 56.7904 26.8191 54.2285C23.562 51.6666 21.7048 44.8666 21.7048 44.8666Z" fill="#FFB882"/>
<path d="M44.0952 44.9428L42.2857 43.5619L31.1238 53.619L36.1143 55.9238C36.1143 55.9238 42.0381 49.619 44.0952 44.9428Z" fill="#FF9566"/>
<path d="M40.6096 22.6381C40.6096 22.6381 42.962 20.1334 39.3144 18.1143C39.0858 17.9905 38.8668 17.8857 38.6477 17.7905V17.6953C38.5029 16.5971 37.9484 15.5943 37.0953 14.8878C36.2422 14.1813 35.1536 13.8234 34.0477 13.8857C34.0477 13.8857 34.5525 11.2191 31.0954 11.3619C30.2415 11.398 29.4045 11.6121 28.6382 11.9905C28.4996 11.94 28.3559 11.9049 28.2096 11.8857C27.6018 11.7837 26.979 11.8161 26.385 11.9806C25.791 12.1452 25.2403 12.4379 24.7715 12.8381C24.2473 12.6709 23.6865 12.6555 23.1539 12.7937C22.6214 12.9319 22.1388 13.2181 21.762 13.6191C20.8979 14.5422 20.371 15.7303 20.2668 16.9905C20.2668 16.9905 17.9525 16.8857 17.8573 20.4191C17.8293 21.1541 17.9865 21.8844 18.3144 22.5429C17.8448 22.8893 17.4925 23.3712 17.3049 23.9238C16.9006 25.301 16.9406 26.7706 17.4192 28.1238C17.4192 28.1238 15.1049 28.9429 16.6858 32.6C17.0178 33.5692 17.6709 34.3959 18.5369 34.9432C19.4029 35.4905 20.4299 35.7256 21.4477 35.6095C21.4477 35.6095 21.362 37.8762 24.362 37.5143C24.9177 37.4569 25.4609 37.3123 25.9715 37.0857C27.4072 37.5493 28.9649 37.454 30.3334 36.8191C30.9392 37.2006 31.6367 37.4117 32.3524 37.4301C33.0681 37.4485 33.7755 37.2736 34.4001 36.9238C35.9131 36.0437 37.1122 34.7114 37.8287 33.1143C37.8287 33.1143 40.8858 33.9714 42.6954 29.3048C44.6192 24.4953 40.6096 22.6381 40.6096 22.6381Z" fill="#843D44"/>
<path d="M42.0001 25.6285C41.726 26.1218 41.3757 26.5686 40.962 26.9524C38.743 29.0095 37.4668 27.1428 37.4668 27.1428C36.7163 27.8297 35.7559 28.2429 34.7411 28.3155C33.7264 28.3881 32.7169 28.1158 31.8763 27.5428C28.4192 25.5428 29.8001 23.5143 29.8001 23.5143C28.6049 22.7204 27.6941 21.5661 27.2001 20.219C27.0183 19.6621 27.0183 19.0617 27.2001 18.5047C26.3144 18.9238 24.8573 19.0285 24.343 18.3047C22.2858 15.4476 25.3811 12.7238 25.2954 12.5905C25.115 12.705 24.9432 12.8323 24.7811 12.9714C24.2677 12.7858 23.7125 12.748 23.1787 12.8625C22.645 12.977 22.1541 13.2391 21.762 13.619C20.8979 14.5422 20.371 15.7302 20.2668 16.9905C20.2668 16.9905 17.9525 16.8857 17.8573 20.419C17.8293 21.1541 17.9865 21.8844 18.3144 22.5428C17.8448 22.8893 17.4925 23.3712 17.3049 23.9238C16.9006 25.301 16.9406 26.7706 17.4192 28.1238C17.4192 28.1238 15.1049 28.9428 16.6858 32.6C17.0178 33.5691 17.6709 34.3958 18.5369 34.9432C19.4029 35.4905 20.4299 35.7256 21.4477 35.6095C21.4477 35.6095 21.362 37.8762 24.362 37.5143C24.9177 37.4569 25.4609 37.3123 25.9715 37.0857C27.4072 37.5492 28.9649 37.454 30.3334 36.819C30.9392 37.2005 31.6367 37.4116 32.3524 37.4301C33.0681 37.4485 33.7755 37.2736 34.4001 36.9238C35.9131 36.0436 37.1122 34.7113 37.8287 33.1143C37.8287 33.1143 40.8858 33.9714 42.6954 29.3047C43.2861 28.0108 43.3677 26.5418 42.9239 25.1905C42.6299 25.3643 42.3207 25.5109 42.0001 25.6285Z" fill="#662932"/>
<path d="M30.9238 26.419L27.9714 21.7429C25.2381 29.7238 29.7523 37.1238 24.1619 42.3714L40.2 42.5714C37 39.2571 29.0571 37.581 30.9238 26.419Z" fill="#EA7B59"/>
<path d="M60.0096 127C58.8287 134.686 38.4763 136.191 16.5525 161.41C16.5525 161.41 6.82865 154.743 11.9525 124.838C17.0763 94.9334 28.4953 74.981 33.4191 67.6953C40.9048 56.6857 54.8858 97.8572 60.0096 127Z" fill="#FFEFAE"/>
<path d="M24.8191 60.4285C30.4 68.5714 29.6572 72.5333 29.6572 72.5333C33.7905 68.8095 38.0667 66.819 41.4 69.2666L44.381 56.619L24.8191 60.4285Z" fill="#F2C37E"/>
<path d="M17.4666 47.5619C23.1142 57.6762 24.8189 64.1048 26.7904 65.9429C28.7618 67.781 50.0285 59.2762 50.0285 59.2762C50.0285 59.2762 49.8665 54.3238 49.0761 53.2667C48.2856 52.2095 40.5808 52.4476 34.2761 49.0381C29.7808 46.6 25.4761 41.0286 23.2475 41.8095C21.0189 42.5905 17.4666 47.5619 17.4666 47.5619Z" fill="#FFEFAE"/>
<path d="M40.0667 51.2476L37 50.1524L23.9048 58L28.7715 61.0095C28.7715 61.0095 36.8381 55.1143 40.0667 51.2476Z" fill="#F9DCA0"/>
<path d="M30.857 61.419C28.7713 59.6952 26.9427 54.6381 20.0951 44.3238C19.1596 45.3536 18.2821 46.4346 17.4666 47.5619C22.0666 57.3428 24.6189 64.7619 26.5904 66.6095C28.5618 68.4571 50.0285 59.2571 50.0285 59.2571C50.0285 59.2571 50.0285 58.8952 50.0285 58.3619C43.7237 60.2857 32.3713 62.6571 30.857 61.419Z" fill="#F9DCA0"/>
<path d="M14.1428 58.4857C31.8666 63.3524 43.2857 45.4095 43.9143 43.8762C44.5428 42.3428 38.7047 37.4762 36.4095 37.9238C34.1142 38.3714 27.4762 42.0381 22.1619 41.0762C16.7047 40.0762 14.1428 58.4857 14.1428 58.4857Z" fill="#FFE05C"/>
<path d="M18.0573 56.4762C16.8763 40.8476 29.8763 49.8095 35.3239 38.2667C32.6382 39.0857 24.9049 41.2 22.0477 40.6857C16.5811 39.7333 13.5239 58.8571 13.5239 58.8571C16.9899 59.8656 20.6485 60.0207 24.1874 59.3093C27.7263 58.5978 31.0407 57.0409 33.8477 54.7714C28.6382 57.6095 18.2382 58.7714 18.0573 56.4762Z" fill="#F9C553"/>
<g style="mix-blend-mode:overlay" opacity="0.6">
<path d="M41.5524 40.4476C40.9193 39.9032 40.2441 39.4096 39.5333 38.9714C35.7238 43.8952 27.2667 52.1619 15.6571 50.9048C15.419 51.8572 15.2 52.7238 15.019 53.5619C28.7048 56.0667 38.2952 45.1524 41.5524 40.4476Z" fill="#FFEFAE"/>
</g>
<path d="M49.857 56.7333L37.7046 57.4762L49.6855 55.3143L49.857 56.7333Z" fill="#F9DCA0"/>
<path d="M26.9434 17.0763C24.1718 19.5813 21.5429 18.2288 22.0287 15.5714C22.0287 15.5714 19.0189 19.6099 22.8097 21.2862C23.5659 21.5965 24.3866 21.7171 25.2001 21.6374C26.0136 21.5577 26.7952 21.2802 27.4768 20.8291L26.9434 17.0763Z" fill="#843D44"/>
<path d="M42.2099 26.5526C42.189 25.9784 41.9728 25.4285 41.597 24.9938C41.2211 24.5591 40.7083 24.2656 40.1431 24.1619C41.0289 24.8572 42.048 26.2859 40.705 29.0195L42.2099 26.5526Z" fill="#662932"/>
<path d="M33.0094 33.2667C31.3928 32.7815 29.9292 31.8863 28.7609 30.668C27.5927 29.4497 26.7597 27.9499 26.3428 26.3143C25.9237 24.0381 26.7142 17.7429 31.1047 17.219C35.4951 16.6952 35.7428 21.7143 36.0285 24.8381C36.3904 29.3333 33.0094 33.2667 33.0094 33.2667Z" fill="#FFB882"/>
<path d="M25.8193 26.3144C25.105 25.2095 23.7334 25.5333 23.8382 27.2668C23.943 29.0003 25.9051 29.7623 26.2003 29.2765C26.648 28.505 26.1813 26.8668 25.8193 26.3144Z" fill="#FFB882"/>
<path d="M25.686 27.0762C25.2764 26.4476 24.4954 26.6286 24.5525 27.6096C24.6097 28.5907 25.7336 29.0383 25.905 28.7621C25.9872 28.4812 26.0101 28.1864 25.9724 27.8962C25.9347 27.606 25.8372 27.3268 25.686 27.0762Z" fill="#EA7B59"/>
<path d="M25.8094 27.9048C25.5427 27.4952 25.0379 27.6095 25.076 28.2477C25.1141 28.8858 25.8475 29.2001 25.9523 28.9906C26.0061 28.8097 26.0212 28.6195 25.9966 28.4324C25.9719 28.2454 25.9082 28.0656 25.8094 27.9048Z" fill="#FFB882"/>
<path d="M34.5333 23.8287C34.419 23.0667 33.9904 22.4857 33.5808 22.5238C33.1713 22.5619 32.9331 23.2096 33.057 23.9716C33.1808 24.7335 33.5999 25.305 34.0094 25.2669C34.419 25.2288 34.6571 24.5811 34.5333 23.8287Z" fill="#66423B"/>
<path d="M30.524 24.1906C30.4097 23.3144 29.9621 22.6191 29.5144 22.6286C29.0667 22.6381 28.8 23.362 28.9048 24.2383C29.0096 25.1145 29.4668 25.8098 29.9144 25.8003C30.3621 25.7908 30.6288 25.0479 30.524 24.1906Z" fill="#66423B"/>
<path d="M28.1619 24.0383C28.48 23.6967 28.8626 23.4215 29.2876 23.2285C29.7127 23.0356 30.1717 22.9289 30.6383 22.9144C30.5033 22.7167 30.3073 22.5688 30.0802 22.4931C29.8532 22.4174 29.6076 22.4182 29.381 22.4953C28.4286 22.7524 28.1619 24.0383 28.1619 24.0383Z" fill="#66423B"/>
<path d="M34.9718 23.143C34.2384 22.7153 33.3677 22.5889 32.543 22.7905C32.6024 22.5863 32.7284 22.4078 32.901 22.2835C33.0736 22.1592 33.2829 22.0963 33.4954 22.1048C34.3527 22.0952 34.9718 23.143 34.9718 23.143Z" fill="#66423B"/>
<path d="M27.6189 22.4574L27.5522 22.2764C27.6823 21.7771 27.9287 21.3156 28.2714 20.9299C28.6141 20.5441 29.0433 20.2451 29.5239 20.0571L29.6763 20.7048C29.2192 20.8135 28.7945 21.029 28.4368 21.3337C28.0792 21.6383 27.7989 22.0234 27.6189 22.4574Z" fill="#843D44"/>
<path d="M34.8766 21.4573C34.5591 21.0897 34.1609 20.8004 33.7132 20.6121C33.2655 20.4237 32.7802 20.3414 32.2954 20.3715L32.2383 19.7143C32.7743 19.7449 33.2961 19.8983 33.7634 20.1625C34.2308 20.4267 34.6312 20.7948 34.9338 21.2382L34.8766 21.4573Z" fill="#843D44"/>
<path d="M33.1241 26.4667C33.1288 26.4919 33.1288 26.5177 33.1241 26.5429C33.1186 26.6541 33.0872 26.7626 33.0324 26.8595C32.9775 26.9565 32.9008 27.0393 32.8082 27.1013C32.7157 27.1633 32.6099 27.2028 32.4994 27.2167C32.3888 27.2305 32.2766 27.2183 32.1716 27.181C32.036 27.1358 31.9116 27.0624 31.8065 26.9655C31.7014 26.8686 31.6181 26.7506 31.562 26.6191C31.5508 26.8525 31.6152 27.0833 31.7456 27.2772C31.876 27.4711 32.0655 27.6177 32.2859 27.6954C32.3917 27.7307 32.5041 27.7412 32.6145 27.726C32.725 27.7107 32.8304 27.6702 32.9226 27.6075C33.0148 27.5448 33.0913 27.4616 33.146 27.3645C33.2008 27.2674 33.2324 27.159 33.2384 27.0477C33.2581 26.847 33.2183 26.645 33.1241 26.4667Z" fill="#EA7B59"/>
<path d="M30.9524 29.2667L33.8098 29.0952C33.8098 29.0952 33.6574 30.762 32.5049 30.762C31.3524 30.762 30.9524 29.2667 30.9524 29.2667Z" fill="#491D2E"/>
<path d="M31.1524 29.3238L33.5526 29.1714C33.5526 29.1714 33.8098 29.8763 32.4477 29.9906C31.0857 30.1049 31.1524 29.3238 31.1524 29.3238Z" fill="#FFEBEB"/>
<path d="M33.1906 31.2476C33.1906 31.0476 32.9429 31.2476 32.6381 31.2476C32.3334 31.2476 32.0762 31.0762 32.0952 31.2476C32.1143 31.4191 32.3714 31.5905 32.6667 31.5715C32.962 31.5524 33.1906 31.4477 33.1906 31.2476Z" fill="#EF8F6F"/>
<path d="M32.505 15.9333C32.8841 16.0496 33.2215 16.273 33.4767 16.5766C33.7318 16.8801 33.8938 17.251 33.9431 17.6444C33.9924 18.0379 33.927 18.4373 33.7546 18.7944C33.5823 19.1516 33.3104 19.4513 32.9717 19.6575C31.2286 20.7338 30.1143 18.6288 30.1143 18.6288C30.1143 18.6288 32.1716 20.0195 32.2383 18.3812C32.324 16.9239 30.2286 17.2954 30.2286 17.2954L32.505 15.9333Z" fill="#843D44"/>
<path d="M-7.15255 16.6381H-8.3335L3.48555 205.981H5.32365L-7.15255 16.6381Z" fill="#FFE05C"/>
</g>
</svg>
