<svg width="60" height="60" viewBox="0 0 60 60" fill="none" xmlns="http://www.w3.org/2000/svg">
<mask id="mask0_123_1444" style="mask-type:alpha" maskUnits="userSpaceOnUse" x="0" y="0" width="60" height="60">
<rect width="60" height="60" fill="#D9D9D9"/>
</mask>
<g mask="url(#mask0_123_1444)">
<path d="M47.5348 18.35C49.5147 19.7513 47.5348 21.4781 47.5348 21.4781C47.6935 21.9054 47.7539 22.3629 47.7116 22.8168C47.6694 23.2706 47.5255 23.7091 47.2908 24.0998C46.6852 24.7682 45.8958 25.2431 45.0216 25.4649L40.5013 24.145C40.4797 22.4136 41.0153 20.7211 42.0292 19.3174C44.886 15.7464 47.5348 18.35 47.5348 18.35Z" fill="#683A36"/>
<path d="M49.144 64.8094C66.6194 45.761 93.4426 9.77059 93.4426 9.77059L90.8118 3.72247L46.6488 32.3629L49.144 64.8094Z" fill="#FFB882"/>
<path d="M92.8186 8.39642L93.4153 9.77059C93.4153 9.77059 66.6191 46.5475 49.1167 65.5959L48.2126 53.5539C65.2179 37.8234 85.4867 16.2888 92.8186 8.39642Z" fill="#FF9566"/>
<path d="M9.73605 103.295C14.5999 88.7125 13.0178 82.0135 10.1338 76.101C8.42517 72.6204 10.3418 59.5839 19.5902 47.994C26.0181 39.9298 36.93 36.9555 47.4351 31.4407C47.4351 31.4407 57.2893 54.693 46.3864 74.6545C35.4835 94.616 9.73605 103.295 9.73605 103.295Z" fill="#FFB882"/>
<path d="M15.6757 78.2707C20.1327 80.6303 30.1405 79.1748 37.8431 66.1564C45.3467 53.4996 47.5978 38.9625 43.9726 33.1675C45.1297 32.616 46.2869 32.0465 47.4351 31.4407C47.4351 31.4407 57.2893 54.693 46.3864 74.6545C35.4835 94.616 9.73605 103.295 9.73605 103.295C12.5386 94.8872 16.1729 82.8 15.6757 78.2707Z" fill="#FF9566"/>
<path d="M58.4737 90.2946C52.6877 105.79 32.446 125.083 29.1733 127.469C19.4547 134.557 -15.8757 150.188 -15.8757 150.188C-15.8757 150.188 -10.8853 135.723 -4.97282 126.023C-4.97282 126.023 -9.15858 125.932 -1.6911 117.217C2.25057 112.625 3.82363 112.625 3.43488 110.889C3.04614 109.153 -0.506791 111.151 1.85279 105.899C2.85629 103.675 3.6609 101.731 4.32086 100.122C5.22491 97.9067 1.47309 99.7058 5.27915 94.4171C5.27915 94.4171 54.6405 74.1573 45.9616 32.6522C45.9074 32.4088 45.9228 32.1552 46.0059 31.9202C46.089 31.6852 46.2366 31.4783 46.4317 31.3232L46.9922 30.9706C47.3402 30.7393 47.7657 30.6552 48.1756 30.7365C48.5855 30.8178 48.9466 31.058 49.18 31.4046C52.8957 36.9102 65.5072 59.602 42.3453 85.9552L42.9691 88.0254C42.9691 88.0254 47.173 84.7347 46.513 90.1228C46.513 90.159 59.893 86.4705 58.4737 90.2946Z" fill="#FFEBC0"/>
<path d="M50.8522 54.5755C51.6234 46.779 49.9285 38.9371 46.0065 32.1549C46.0661 31.8407 46.2321 31.5566 46.4766 31.3503L46.9919 30.9706C47.3149 30.7593 47.7036 30.6725 48.0858 30.7265C52.0004 39.4506 51.8376 48.4279 50.8522 54.5755Z" fill="#F4D8A2"/>
<path d="M-4.97257 125.996C-4.97257 125.996 5.65006 117.597 13.1085 108.882C17.0502 104.289 3.81483 112.598 3.42609 110.889C3.03735 109.18 -0.515584 111.151 1.844 105.899L2.6034 104.199C12.3129 106.342 30.1318 95.4116 41.0528 82.5017C55.7798 65.171 55.4182 49.567 52.5252 37.6335C56.7381 47.343 60.7341 65.5687 42.8247 85.9552L43.1683 87.5825C43.1683 87.5825 47.571 84.364 46.9111 89.7522C46.9111 89.7522 55.1832 87.7723 57.823 88.8481C49.795 89.3725 33.6124 96.2704 21.8869 106.369C10.1613 116.467 -7.04285 132.867 -14.1035 149.42L-15.9116 150.206C-15.9116 150.206 -10.867 135.741 -4.97257 125.996Z" fill="#F4D8A2"/>
<path d="M27.1028 41.3582C32.7531 36.9555 33.8651 32.1007 33.7385 28.4212C33.6119 24.7417 46.9919 34.6863 46.9919 34.6863C46.9919 34.6863 41.866 36.2684 42.1914 40.5445C35.9444 44.8388 29.8149 43.5912 27.1028 41.3582Z" fill="#FFB882"/>
<path d="M26.4883 41.9187L18.8038 75.224C0.668512 83.3605 -10.9214 91.6417 -19.1664 99.3894L-25.7931 92.5367C-25.7931 92.5367 3.76942 53.1742 26.4883 41.9187Z" fill="#FFB882"/>
<g style="mix-blend-mode:multiply" opacity="0.6">
<path d="M13.7409 50.4801C17.6702 47.1769 21.9439 44.3065 26.488 41.9187L27.1932 41.4667L27.0756 41.3853C31.6863 37.7691 33.2775 33.8997 33.63 30.5909C36.3251 30.2979 39.0501 30.4537 41.6942 31.052C42.7158 31.7029 43.6921 32.3629 44.5239 32.9324L45.1567 32.6069C45.9184 33.1517 46.546 33.8628 46.9919 34.6863C45.5014 35.2081 44.1435 36.0506 43.0141 37.1543C42.1824 43.4918 33.3136 55.4795 13.7409 50.4801Z" fill="#C94343"/>
</g>
<path d="M39.0275 16.7499C34.4078 12.8353 33.2777 8.61338 32.5635 8.35121C31.8493 8.08903 18.6411 16.343 12.4122 17.1115C6.18326 17.8799 16.0284 19.9321 21.7511 16.8855C21.7511 16.8855 11.5262 23.5935 28.8569 16.8855C28.8569 16.8855 16.6251 22.4454 32.88 17.681C35.1311 17.0211 37.563 17.003 38.5393 17.681C39.5157 18.3591 40.0582 17.6268 39.0275 16.7499Z" fill="#FFEBC0"/>
<path d="M38.0147 16.9578C33.3859 13.0432 32.4186 10.313 31.6863 10.0598C30.954 9.80671 18.6228 16.3882 12.3938 17.1115C6.1649 17.8347 16.01 19.9321 21.7327 16.8855C21.7327 16.8855 11.5078 23.5935 28.8386 16.8855C28.8386 16.8855 16.6067 22.4454 32.8616 17.681C35.1127 17.0211 37.5446 17.003 38.521 17.681C39.4973 18.3591 39.0453 17.8347 38.0147 16.9578Z" fill="#F4D8A2"/>
<path d="M46.9919 34.6863C44.4335 35.4095 37.5265 37.516 35.3568 34.4331C33.187 31.3503 33.1961 27.1465 33.1238 26.4232C33.0514 25.7 44.4425 18.2867 45.1477 19.1275C46.3862 20.5378 46.9919 34.6863 46.9919 34.6863Z" fill="#FFB882"/>
<path d="M44.0269 24.7869L45.835 24.0365C45.8052 23.9492 45.7562 23.8696 45.6915 23.8038C45.6268 23.738 45.5481 23.6875 45.4612 23.6563C45.3744 23.625 45.2816 23.6137 45.1898 23.6232C45.098 23.6327 45.0095 23.6627 44.9309 23.7111C44.5807 24.0256 44.2763 24.3877 44.0269 24.7869Z" fill="#664239"/>
<path d="M43.6383 28.9817L45.9436 27.5081C45.9436 27.5081 43.8552 24.145 43.3761 24.0184C42.8969 23.8919 43.6383 28.9817 43.6383 28.9817Z" fill="#FF9566"/>
<path d="M43.0416 28.828L45.374 27.3544C45.374 27.3544 43.2495 23.9642 42.7432 23.8286C42.237 23.693 43.0416 28.828 43.0416 28.828Z" fill="#FFB882"/>
<path d="M40.9171 26.9024L42.6438 25.9169C42.6024 25.8394 42.5449 25.7716 42.4751 25.7181C42.4053 25.6646 42.3248 25.6268 42.2391 25.6071C42.1534 25.5874 42.0645 25.5863 41.9784 25.6039C41.8922 25.6214 41.8109 25.6573 41.7397 25.709C41.4087 26.0645 41.1315 26.4665 40.9171 26.9024Z" fill="#664239"/>
<path d="M40.0583 25.8989L42.8699 24.5971L42.7795 24.0456L39.9136 24.9406L40.0583 25.8989Z" fill="#683A36"/>
<path d="M43.5836 23.8286L45.8618 22.7437L45.7895 22.1923L43.4661 22.8522L43.5836 23.8286Z" fill="#683A36"/>
<path d="M32.5907 37.1634C30.1588 38.2121 30.2944 35.5903 30.2944 35.5903C30.2944 35.5903 28.6491 35.2559 28.4863 33.945C28.4343 32.9623 28.6599 31.9848 29.1372 31.1243L33.4315 27.9692C34.6496 28.9813 35.4512 30.4074 35.6826 31.9741C35.8818 33.0667 35.6783 34.1945 35.1099 35.1486C34.5414 36.1027 33.6464 36.8185 32.5907 37.1634Z" fill="#512927"/>
<path d="M37.4182 24.6874C39.4975 26.1611 37.2193 27.6527 37.2193 27.6527C37.3695 28.0753 37.4059 28.53 37.325 28.9711C37.2441 29.4122 37.0486 29.8243 36.7582 30.166C36.0043 30.7684 35.1016 31.1557 34.1455 31.287L29.2184 29.7049C29.3472 28.0269 30.0756 26.4512 31.2706 25.266C34.6789 22.0295 37.4182 24.6874 37.4182 24.6874Z" fill="#683A36"/>
<path d="M36.5503 31.4769C36.2791 29.0992 34.5523 27.8064 33.8381 29.497C32.7713 32.1368 36.5503 31.4769 36.5503 31.4769Z" fill="#FFB882"/>
<path d="M35.9446 30.8893C35.7999 29.5874 34.8507 28.8823 34.471 29.8044C33.8743 31.2509 35.9446 30.8893 35.9446 30.8893Z" fill="#EA7B59"/>
<path d="M36.1433 31.0068C36.0439 30.1931 35.4562 29.7502 35.2393 30.3288C34.8596 31.2328 36.1433 31.0068 36.1433 31.0068Z" fill="#FFB882"/>
<g style="mix-blend-mode:multiply" opacity="0.6">
<path d="M33.2507 28.1138C33.1603 27.264 33.1422 26.6221 33.1151 26.3871C33.1151 25.926 37.6353 22.7709 41.2063 20.7367C41.4178 20.2299 41.6944 19.7528 42.029 19.3174C44.8858 15.7012 47.5347 18.3229 47.5347 18.3229C47.9359 18.5681 48.2346 18.9503 48.3755 19.3988C44.1445 24.0637 36.0261 32.6341 30.3667 36.2865C30.3121 36.0494 30.2878 35.8064 30.2944 35.5632C30.2944 35.5632 28.649 35.2287 28.4863 33.9179C28.4343 32.9352 28.6599 31.9577 29.1372 31.0972L33.2507 28.1138Z" fill="#C94343"/>
</g>
<path d="M47.8964 17.238C36.207 25.2299 35.8273 30.7988 27.736 34.1981C24.6894 35.4818 29.3091 31.9741 28.0073 24.8231C26.7054 17.672 32.1297 12.7901 36.5958 12.8805C41.4686 12.989 43.8282 16.9759 46.5946 16.1261C48.7372 15.4661 48.8005 16.6052 47.8964 17.238Z" fill="#FFE05C"/>
<path d="M40.1486 14.0739C41.7036 14.7609 42.9512 15.6921 44.1174 16.1803C43.7862 16.3305 43.4951 16.5566 43.2676 16.8403C42.3636 16.3521 41.3329 15.6831 40.1486 15.1406V14.0739Z" fill="#FFEB99"/>
<path d="M36.6316 13.2602C37.2408 13.2753 37.8468 13.3541 38.4397 13.4952V14.5349C37.8019 14.3671 37.1463 14.276 36.4869 14.2637C33.0877 14.1914 29.1099 17.1115 28.2058 21.7402C28.694 16.5329 32.9973 13.1879 36.6316 13.2602Z" fill="#FFEB99"/>
<path d="M28.0071 24.823C27.4555 22.1548 27.9715 19.3766 29.4445 17.0843C29.3751 17.3817 29.3751 17.691 29.4445 17.9884C30.0231 20.3932 35.122 21.243 40.8356 19.8688C43.6138 19.2883 46.2232 18.0825 48.4658 16.343C48.4579 16.5292 48.4021 16.7101 48.304 16.8685C48.2058 17.0268 48.0685 17.1572 47.9053 17.2471C36.2159 25.2389 35.8362 30.8079 27.7449 34.2071C24.6892 35.4818 29.3089 31.9741 28.0071 24.823Z" fill="#FFC550"/>
<path d="M28.0073 24.823C27.9205 24.3631 27.8632 23.898 27.8355 23.4308C27.8355 23.6116 27.8355 23.7924 27.9078 23.9823C27.9892 24.4614 28.0525 24.8863 28.0886 25.3655L28.0073 24.823Z" fill="#FFE05C"/>
<path d="M27.6362 33.3664C35.7727 29.949 35.7727 24.3258 47.426 16.2978C47.5977 16.1893 48.095 16.1532 48.1944 16.0176C48.6645 16.2436 48.4837 16.8403 47.8961 17.2381C36.2067 25.2299 35.827 30.7989 27.7357 34.1981C26.5604 34.6953 26.5243 34.4784 26.8316 33.6195C27.1098 33.5709 27.3803 33.4858 27.6362 33.3664Z" fill="#FFE05C"/>
<path d="M33.0247 21.026C33.1179 20.6702 33.3264 20.3553 33.6175 20.1305C33.9087 19.9058 34.2661 19.7839 34.6339 19.7839C35.0018 19.7839 35.3592 19.9058 35.6504 20.1305C35.9415 20.3553 36.15 20.6702 36.2432 21.026C36.15 21.3818 35.9415 21.6967 35.6504 21.9215C35.3592 22.1462 35.0018 22.2681 34.6339 22.2681C34.2661 22.2681 33.9087 22.1462 33.6175 21.9215C33.3264 21.6967 33.1179 21.3818 33.0247 21.026Z" fill="#FFE05C"/>
<path d="M32.8438 22.8613C33.1549 22.0737 33.705 21.4034 34.4169 20.9447C34.7514 20.7639 35.0045 20.7729 35.0949 20.9447C35.1859 21.2389 35.2104 21.5497 35.1666 21.8546C35.1229 22.1595 35.0119 22.4508 34.8418 22.7076C33.8563 24.136 32.3014 24.4253 32.8438 22.8613Z" fill="#FFC550"/>
<path d="M34.3352 20.3389C28.4679 17.9974 26.7502 13.6942 25.9637 13.6942C25.1771 13.6942 13.8403 27.4358 7.88259 30.5186C1.92488 33.6014 12.4029 32.1007 17.1491 26.8391C17.1491 26.8391 9.0669 37.5521 24.2369 24.2173C24.2369 24.2173 13.7951 34.4783 28.5131 23.5574C30.493 22.0295 32.9249 21.1255 34.1001 21.46C35.2754 21.7945 35.6099 20.8633 34.3352 20.3389Z" fill="#FFEBC0"/>
<path d="M6.08355 31.7481C8.55162 31.8928 13.8042 29.0359 19.0748 24.5157C19.8613 23.8376 20.6027 23.1596 21.3078 22.4725C21.2467 22.5666 21.1803 22.6571 21.1089 22.7437C18.5143 26.3599 16.5887 28.4121 17.9357 28.1681C19.2827 27.924 22.8628 25.0852 25.9456 21.8397C27.3469 20.3751 28.5312 19.1998 27.8622 20.1491C25.2676 23.7653 23.3419 25.8085 24.689 25.5734C26.036 25.3384 30.8275 20.6915 33.2865 20.9356C34.6968 21.0803 35.2845 21.8397 34.1002 21.5142C32.9159 21.1888 30.484 22.1018 28.4589 23.6116C13.7409 34.5326 24.1827 24.2716 24.1827 24.2716C9.01268 37.6064 17.0949 26.8933 17.0949 26.8933C13.2165 31.1514 5.45976 32.9415 6.08355 31.7481Z" fill="#FFDCAE"/>
<path d="M44.9578 29.4699L44.3068 30.0756C43.2039 30.3016 40.7991 30.7537 40.7991 30.7537C42.2077 30.4018 43.596 29.9733 44.9578 29.4699Z" fill="#FF9566"/>
<path d="M39.6153 54.3947L39.326 65.8219L41.6855 61.4915L39.6153 54.3947Z" fill="#FF9566"/>
</g>
</svg>
