<svg width="60" height="60" viewBox="0 0 60 60" fill="none" xmlns="http://www.w3.org/2000/svg">
<mask id="mask0_123_1445" style="mask-type:alpha" maskUnits="userSpaceOnUse" x="0" y="0" width="60" height="60">
<rect width="60" height="60" fill="#D9D9D9"/>
</mask>
<g mask="url(#mask0_123_1445)">
<path d="M29.1825 6.56152C26.92 4.92204 29.2218 3.93835 29.2218 3.93835C29.2218 3.93835 27.7266 5.00729 29.5497 5.94507C30.8088 6.60087 33.2746 8.20755 30.5924 11.0012L27.0708 10.4635C29.5694 10.3979 31.2154 8.03049 29.1825 6.56152Z" fill="#495D6D"/>
<path d="M42.9773 16.2018C43.7708 15.546 45.0103 17.9199 43.4233 18.1691C40.964 18.5954 41.4165 15.2509 36.5309 13.9655L39.6459 19.6971C39.6459 19.6971 42.7675 24.5959 45.0955 21.2054C47.6072 17.5461 43.9085 14.8443 42.9773 16.2018Z" fill="#232D35"/>
<path d="M25.2637 13.5066C20.5616 13.3492 20.0829 16.6806 18.0041 15.5789C16.6925 14.8641 18.3975 12.9557 18.9287 13.7951C18.4566 12.2278 14.4234 13.7623 15.7088 18.0119C16.8892 21.9466 20.9551 18.1168 20.9551 18.1168L25.2637 13.5066Z" fill="#232D35"/>
<path d="M34.1028 10.949C30.4041 8.41763 28.4105 11.6572 27.276 9.46034C26.5415 8.04383 28.863 6.8962 28.8761 8.07006C29.2499 6.1945 25.2758 5.76824 24.2856 10.8441C23.3478 15.5133 28.463 13.5984 28.463 13.5984L34.1028 10.949Z" fill="#495D6D"/>
<path d="M27.1071 10.0833C30.4779 8.21425 32.3535 10.5095 33.3896 8.9225C34.0454 7.89291 32.8125 7.38139 31.8879 7.94537C32.3207 5.87963 38.0261 6.8502 36.4784 12.0047C35.4882 15.3361 32.3797 11.9063 32.3797 11.9063L27.1071 10.0833Z" fill="#495D6D"/>
<path d="M19.8525 17.6448C13.0258 19.3892 12.547 25.0553 10.0157 23.324C7.48432 21.5927 9.68123 19.8286 10.8748 20.55C9.41891 19.0351 4.61852 22.3731 8.31062 25.3504C12.5274 28.7539 15.944 24.4257 15.944 24.4257L19.8525 17.6448Z" fill="#232D35"/>
<path d="M-41.4214 73.5176C-22.5608 51.0961 2.57564 31.4682 10.8845 27.0547L7.03503 59.6738L-35.152 80.1017L-41.4214 73.5176Z" fill="#FFB882"/>
<path d="M8.65991 48.4799L8.22053 60.5136L-35.1272 80.1021L-39.0685 76.974L8.65991 48.4799Z" fill="#FF9566"/>
<path d="M6.60861 38.7738C10.9499 29.5534 18.8785 14.6014 25.3839 11.3093C31.8894 8.01724 23.4165 34.8588 23.4165 34.8588L6.60861 38.7738Z" fill="#232D35"/>
<path d="M51.3206 39.036C46.8743 29.8156 41.2279 14.975 34.5651 11.683C27.9023 8.39088 36.2636 34.8586 36.2636 34.8586L51.3206 39.036Z" fill="#232D35"/>
<path d="M58.5532 67.629C58.8155 51.9753 54.0413 36.315 44.4864 29.685L41.2993 64.5796C41.2993 64.5796 48.5982 80.1022 54.7037 81.4334C60.8091 82.7647 58.481 71.6162 58.5532 67.629Z" fill="#FFB882"/>
<path d="M44.4861 29.685C46.4928 31.0687 48.4668 43.3255 48.4668 48.2636C48.4668 61.0843 51.9687 71.4786 56.2969 71.4786C57.2057 71.436 58.062 71.0407 58.684 70.3768C59.0447 75.2297 59.707 82.5155 54.7034 81.4335C48.5979 80.1219 41.299 64.5796 41.299 64.5796L44.4861 29.685Z" fill="#FF9566"/>
<path d="M6.6713 87.8013C8.50446 82.8454 9.17748 77.5353 8.63867 72.2788C8.63867 72.2788 2.00862 48.8342 0.415045 41.2271C0.415045 41.2271 3.7727 26.1898 22.7119 22.1239C41.6512 18.058 50.6618 37.8629 50.6618 37.8629C50.6618 37.8629 53.1538 50.4278 42.3594 69.1834C31.5651 87.9391 6.6713 87.8013 6.6713 87.8013Z" fill="#FFB882"/>
<path d="M24.5363 60.3891C36.3405 58.7955 46.8332 40.3416 41.8754 27.5996C39.6064 21.7565 37.9931 17.6709 35.9733 15.0084C35.2781 11.1655 30.8975 10.6933 28.3071 10.6933C26.6938 10.6933 22.641 12.1557 23.1526 14.628C19.7884 19.3301 16.8373 27.3569 16.7193 33.7247C16.5422 43.3451 28.8383 50.8998 25.0347 55.2149C21.2311 59.53 17.6964 55.2149 19.29 51.5294C16.129 55.5363 17.9062 61.2941 24.5363 60.3891Z" fill="#FF9566"/>
<path d="M15.64 24.3269C15.7711 24.6286 16.2957 24.4384 16.7089 24.6417C18.6107 25.5532 18.3156 20.5627 23.0701 16.9689L20.7223 24.4515C20.7223 24.4515 19.2402 28.5633 16.0006 26.5697C15.6616 26.4076 15.366 26.1673 15.1379 25.8686C14.9099 25.5699 14.7561 25.2213 14.6891 24.8515L15.64 24.3269Z" fill="#FF9566"/>
<path d="M22.3708 17.7431C14.7309 27.7898 18.0164 37.8628 13.5767 37.5086C9.13699 37.1545 10.7306 31.9213 12.7766 31.9213C9.84524 30.8589 6.73679 39.2793 13.5767 40.5187C21.3806 41.9352 22.0364 33.2526 22.0364 33.2526L22.3708 17.7431Z" fill="#FF9566"/>
<path d="M8.73709 72.2788C8.73709 72.2788 2.37591 55.825 1.75947 46.6242C4.14655 55.2938 8.97318 60.5795 10.593 61.5304C12.8423 62.842 25.6762 60.068 29.2634 58.3432C32.8505 56.6185 30.7192 36.971 30.5553 22.7862C30.5553 22.7862 29.8208 22.2812 28.6535 21.5927C39.5265 22.0386 41.9726 55.038 44.8056 59.5368C51.1537 49.654 44.5433 64.0486 42.3464 69.1835C41.3431 71.5246 39.6118 73.3346 38.0116 75.0462C37.0673 68.226 33.0145 60.7172 26.8632 61.6615C19.5708 62.7764 12.3767 74.0626 11.7341 83.0535C11.6256 84.5004 11.685 85.955 11.9111 87.3883C10.1943 87.6318 8.46411 87.7698 6.73037 87.8014C8.57301 82.8476 9.25938 77.5383 8.73709 72.2788Z" fill="#FF9566"/>
<path d="M49.7093 52.3754C50.9684 42.2172 46.9943 31.7246 46.9943 31.7246L43.8924 28.9244L46.2598 63.2878L49.7093 52.3754Z" fill="#FF9566"/>
<path d="M8.21876 84.2206C18.095 74.6658 47.14 46.7094 42.8904 26.3668L44.9824 28.4915C53.3306 50.0867 37.2572 102.189 48.8647 136.651C55.1013 155.138 72.5256 139.812 72.5256 139.812C72.5256 139.812 66.8203 148.993 52.8912 148.993C43.7102 148.993 40.6148 134.126 6.42845 131.824C-16.6357 130.277 -7.19233 148.987 -37.0898 148.987C-10.7139 148.613 -1.69024 93.7689 8.21876 84.2206Z" fill="#557999"/>
<path d="M8.21875 84.2206C18.095 74.6658 47.14 46.7094 42.8904 26.3668L44.543 28.0194L44.884 37.2529C44.884 37.2529 45.5398 41.9811 47.376 53.5952C46.3661 78.6333 40.6017 112.111 48.8647 136.625C55.1013 155.138 72.5256 139.812 72.5256 139.812C72.5256 139.812 66.8202 148.993 52.8912 148.993C47.3039 148.993 43.9725 143.524 34.5881 138.704C35.0013 137.93 35.4013 137.11 35.7948 136.251C45.6972 114.485 44.9234 52.7099 43.2446 51.9295C41.5657 51.1491 12.6388 78.5218 2.75601 100.268C-2.81166 112.525 -5.44139 124.532 -5.05447 133.418C-14.3536 137.773 -13.947 148.967 -37.0702 148.967C-10.7139 148.613 -1.69026 93.7689 8.21875 84.2206Z" fill="#436E8E"/>
<path d="M56.0311 80.5679C64.4449 79.4792 74.0982 65.5699 74.9179 53.6805C75.095 51.1163 67.3566 47.3717 65.7368 49.8965C63.0612 54.1592 51.6242 54.1198 49.5847 66.593C47.5452 79.0661 52.5685 81.0204 56.0311 80.5679Z" fill="#FFB882"/>
<path d="M49.0657 66.9666C49.3149 65.6139 49.6702 64.283 50.1281 62.986C51.3413 67.2945 54.7186 68.6651 56.9549 68.37C62.7652 67.6159 68.3919 63.8451 70.2478 54.2574C70.3658 53.6016 73.5267 52.8999 74.917 53.7C74.0973 65.5698 64.5686 80.4169 56.1548 81.5055C52.6922 81.9515 47.0328 79.4398 49.0657 66.9666Z" fill="#FF9566"/>
<path d="M22.1069 16.4116C14.467 26.4321 17.7525 36.5313 13.3128 36.1772C8.87306 35.823 10.4666 30.5964 12.5127 30.5964C9.58132 29.534 6.46631 37.9544 13.3128 39.1938C21.1101 40.6103 21.7528 31.9276 21.7528 31.9276L22.1069 16.4116Z" fill="#3C4956"/>
<path d="M23.3101 14.674C18.2014 18.4841 18.3982 23.855 16.2865 23.0615C14.1749 22.268 15.6832 19.9531 16.6735 20.2351C15.4012 19.3169 12.7387 22.9763 15.8668 24.5239C19.4671 26.2946 20.982 22.1631 20.982 22.1631L23.3101 14.674Z" fill="#3C4956"/>
<path d="M38.6795 16.9884C43.9914 21.9527 43.0209 27.9795 45.5457 27.3696C48.0705 26.7597 46.6802 23.9463 45.4997 24.13C47.0933 23.2578 49.6509 27.7368 45.8211 29.0746C41.4535 30.6026 40.2993 25.7432 40.2993 25.7432L38.6795 16.9884Z" fill="#3C4956"/>
<path d="M25.3163 58.2971C37.1206 56.7298 47.3247 38.4398 42.3669 25.8814C40.1044 20.1301 38.7535 16.2478 36.7664 13.6312C36.0647 9.84726 31.6906 9.38165 29.1002 9.38165C27.487 9.38165 23.4276 10.8244 23.9457 13.2443C20.5815 17.8348 17.6304 25.7633 17.5124 32.0261C17.3353 41.4958 29.6314 48.9259 25.8278 53.1688C22.0242 57.4118 18.483 53.1688 20.0765 49.5423C16.896 53.523 18.66 59.1824 25.3163 58.2971Z" fill="#495D6D"/>
<path d="M33.0854 19.6974C31.9247 20.4843 30.4623 20.5237 28.5867 19.6515L29.6557 17.3956H32.0427L33.0854 19.6974Z" fill="#3C4956"/>
<path d="M35.5974 17.3888C35.5974 17.3888 32.9742 17.5724 30.6265 17.579C28.9756 17.5779 27.3294 17.4043 25.7146 17.0609C25.7146 17.0609 26.495 19.848 30.7773 18.4774C35.3744 20.1759 35.5974 17.3888 35.5974 17.3888Z" fill="#3C4956"/>
<path d="M22.1475 16.0837C22.6843 15.1007 23.2822 14.1523 23.9378 13.2441C31.1515 14.8902 36.6536 13.0736 36.7585 13.6311C37.3366 14.409 37.8561 15.2288 38.3127 16.0837H22.1475Z" fill="#3C4956"/>
<path d="M25.8247 53.1685C29.6283 48.9255 16.847 41.6725 17.024 32.1832C17.0896 28.5632 18.3356 23.4743 20.0931 20.4511C19.7837 22.2533 19.6301 24.0788 19.6341 25.9073C19.6341 36.459 24.5656 45.0105 30.6448 45.0105C36.724 45.0105 41.6555 36.4852 41.6555 25.9073C41.6555 25.0154 41.6555 24.1367 41.5506 23.2841C41.8982 24.1432 42.2523 25.0482 42.6327 25.9991C47.6101 38.5772 37.1175 56.7294 25.3132 58.2968C18.6766 59.1821 16.9125 53.5226 20.0669 49.542C18.4799 53.1685 22.0343 57.418 25.8247 53.1685Z" fill="#3C4956"/>
<path d="M35.6121 17.2315C35.6121 17.2315 32.943 17.1659 30.6084 17.2315C28.9662 17.3262 27.3187 17.2581 25.6899 17.0282C25.6899 17.0282 26.5359 19.3825 30.8313 17.9266C35.435 19.5596 35.6121 17.2315 35.6121 17.2315Z" fill="#FFB882"/>
<path d="M30.8248 17.5786C29.3129 18.071 27.6873 18.0939 26.1621 17.6442C25.9578 17.4635 25.7965 17.2395 25.6899 16.9884C27.3187 17.2183 28.9662 17.2864 30.6084 17.1917C32.943 17.1589 35.6121 17.1917 35.6121 17.1917C35.5789 17.4008 35.4957 17.5988 35.3694 17.7688C34.7136 18.0639 32.4577 17.9524 30.8248 17.5786Z" fill="#FF9566"/>
<path d="M32.2532 19.422C31.5187 20.0777 30.5875 20.0777 29.4202 19.3826L30.0759 17.5464H31.5974L32.2532 19.422Z" fill="#FF9566"/>
<path d="M31.8403 19.2645C31.3419 19.7498 30.6993 19.776 29.873 19.2645L30.3386 17.8611C30.4936 17.7633 30.6733 17.7113 30.8566 17.7113C31.04 17.7113 31.2197 17.7633 31.3747 17.8611L31.8403 19.2645Z" fill="#FFB882"/>
<path d="M42.4031 26.0582C46.9149 37.8625 40.7833 46.5583 45.1968 47.5288C49.6102 48.4994 49.5774 43.0432 47.6101 42.4399C50.771 42.2891 51.3415 51.2472 44.3311 50.4078C36.3305 49.4306 38.2388 40.9709 38.2388 40.9709L42.4031 26.0582Z" fill="#3C4956"/>
<path d="M21.2487 38.8725C23.3144 32.0785 19.4977 27.5404 21.9569 26.7862C24.4162 26.0321 24.6195 29.075 23.5177 29.5078C25.308 29.4422 25.2687 24.4254 21.3471 25.2255C16.868 26.137 18.2911 30.7669 18.2911 30.7669L21.2487 38.8725Z" fill="#3C4956"/>
<path d="M39.8883 35.4758C42.2622 28.2948 41.1146 24.065 38.6882 23.6715C36.2618 23.278 36.4585 26.3537 37.5405 26.6095C35.8355 26.8128 35.2453 21.8681 39.0685 22.0583C43.4361 22.2812 42.6688 27.062 42.6688 27.062C42.5377 29.2523 41.2458 32.3411 39.8883 35.4758Z" fill="#3C4956"/>
<path d="M23.309 7.0142C23.309 7.0142 23.2631 12.5884 24.5025 12.9491C24.9223 13.0329 25.3474 13.0877 25.7747 13.1131C25.8693 10.7886 26.2302 8.48262 26.8502 6.24037C26.9516 8.57711 27.1815 10.9065 27.5388 13.218L29.1062 13.2639C29.5128 11.7097 30.0308 9.78164 30.0308 9.78164C30.3003 10.9349 30.4931 12.1048 30.6079 13.2836C31.3621 13.2836 32.1031 13.2836 32.7917 13.2508C33.6115 9.76197 34.018 6.36497 34.018 6.36497C34.38 8.61492 34.4769 10.8996 34.3066 13.1721C34.9143 13.1755 35.5173 13.0643 36.0838 12.8442C36.9888 12.1884 36.9232 5.9715 36.9232 5.9715C37.9584 8.84511 38.2384 11.9364 37.7364 14.9493L22.3515 15.4149C22.2859 12.431 22.2663 9.6636 23.309 7.0142Z" fill="#9DC6C0"/>
<path d="M37.1848 59.5364C19.2161 77.6822 11.045 93.7688 11.045 93.7688C20.8486 83.2334 29.6032 71.7685 37.1848 59.5364Z" fill="#436E8E"/>
<path d="M28.8998 36.1837C26.2767 31.4751 30.6246 29.416 30.6246 29.416C30.6246 29.416 27.4636 31.8948 29.8901 34.859C31.746 37.1149 35.5561 43.0302 28.6309 46.801L24.1847 43.0826C27.4374 44.7418 31.4836 40.9054 28.8998 36.1837Z" fill="#3C4956"/>
<path d="M34.5356 45.0762C40.018 39.0626 37.2309 35.6984 36.6538 35.2393C36.0767 34.7802 34.0307 35.3246 34.0307 35.3246C34.0307 35.3246 38.2736 31.5406 39.9984 37.0493C40.8575 39.8561 34.5356 45.0762 34.5356 45.0762Z" fill="#3C4956"/>
<path d="M27.3882 17.7098C27.4799 17.5879 27.6003 17.4905 27.7388 17.4265C27.8772 17.3624 28.0294 17.3336 28.1817 17.3426C28.3367 17.3348 28.4912 17.3641 28.6326 17.4279C28.7741 17.4918 28.8982 17.5884 28.9949 17.7098C28.9949 17.795 28.608 17.7623 28.162 17.7623C27.7161 17.7623 27.3882 17.795 27.3882 17.7098Z" fill="#232D35"/>
<path d="M32.9092 17.7098C33.0009 17.5879 33.1213 17.4905 33.2598 17.4265C33.3982 17.3624 33.5504 17.3336 33.7027 17.3426C33.8577 17.3348 34.0122 17.3641 34.1536 17.4279C34.295 17.4918 34.4192 17.5884 34.5159 17.7098C34.5159 17.795 34.129 17.7623 33.6896 17.7623C33.2502 17.7623 32.9092 17.795 32.9092 17.7098Z" fill="#232D35"/>
<path d="M10.344 59.6739C10.344 59.1099 11.4129 58.6509 12.7311 58.6509C14.0492 58.6509 15.1182 59.1099 15.1182 59.6739C15.1182 60.2379 14.0492 60.6904 12.7311 60.6904C11.4129 60.6904 10.344 60.2313 10.344 59.6739Z" fill="#E87446"/>
<path d="M36.7397 14.9815L29.4736 15.1979C29.1129 14.5421 28.7653 13.8863 28.4374 13.2305H29.0932C29.4998 11.6763 30.0179 9.74829 30.0179 9.74829C30.2874 10.9016 30.4802 12.0714 30.595 13.2502C31.3491 13.2502 32.0902 13.2502 32.7788 13.2174C33.1198 11.7681 33.3887 10.3385 33.5854 9.15808C33.8543 9.5909 34.1166 10.0368 34.3855 10.4697C34.4093 11.3451 34.3787 12.2212 34.2936 13.0928C34.7791 13.0668 35.2617 13.001 35.7364 12.8961C36.0971 13.6502 36.4578 14.3192 36.7397 14.9815Z" fill="#BDE0DA"/>
<path d="M27.1917 10.6009C26.8681 9.86639 26.5796 9.15813 26.326 8.47611C26.5883 7.16453 26.8506 6.23987 26.8506 6.23987C26.8506 6.23987 26.9162 8.15478 27.1917 10.6009Z" fill="#BDE0DA"/>
</g>
</svg>
