<svg width="60" height="60" viewBox="0 0 60 60" fill="none" xmlns="http://www.w3.org/2000/svg">
<mask id="mask0_123_1446" style="mask-type:alpha" maskUnits="userSpaceOnUse" x="0" y="0" width="60" height="60">
<rect width="60" height="60" fill="#D9D9D9"/>
</mask>
<g mask="url(#mask0_123_1446)">
<path d="M54.6345 31.7084L50.468 65.6703C66.0796 85.1043 87.4688 109.503 87.4688 109.503L97.9473 105.783C97.9473 105.783 73.9294 51.2302 54.6345 31.7084Z" fill="#FFB882"/>
<path d="M60.6531 48.3892C58.9543 44.1275 50.1819 66.3148 50.1819 66.3148C65.7862 85.7854 85.5278 111.077 85.5278 111.077L92.118 108.881C77.9489 87.7991 64.7318 58.6188 60.6531 48.3892Z" fill="#FF9566"/>
<path d="M41.7844 18.0959C43.9812 17.7371 43.4759 14.852 42.275 14.5518C42.275 14.5518 43.0073 11.8425 40.276 11.9377C40.276 11.9377 40.8618 9.46266 38.1451 10.1949C35.4285 10.9272 38.1232 18.6451 41.7844 18.0959Z" fill="#F4D5B0"/>
<path d="M47.1375 26.7438C50.2056 26.2239 49.5027 22.5626 47.8697 22.2111C47.8697 22.2111 48.9022 18.7402 45.1458 18.9379C45.1458 18.9379 45.9805 15.76 42.2168 16.7851C38.453 17.8103 42.1289 27.5932 47.1375 26.7438Z" fill="#F4D5B0"/>
<path d="M14.1774 26.3263C11.1092 25.8064 11.8122 22.1451 13.4451 21.7936C13.4451 21.7936 12.42 18.3227 16.1691 18.5278C16.1691 18.5278 15.3417 15.3498 19.0981 16.3676C22.8546 17.3854 19.186 27.1757 14.1774 26.3263Z" fill="#F4D5B0"/>
<path d="M20.3354 17.6199C18.1387 17.7224 18.0728 14.9105 19.1638 14.3906C19.1638 14.3906 17.9263 11.9889 20.5478 11.5422C20.5478 11.5422 19.4933 9.34542 22.2393 9.48455C24.9852 9.62368 23.9308 17.4441 20.3354 17.6199Z" fill="#F4D5B0"/>
<path d="M38.591 15.2986C40.2752 15.0057 40.5095 13.1018 39.8798 12.5453C39.25 11.9888 38.1883 11.7398 37.8588 12.4501C37.5293 13.1604 38.0345 15.4011 38.591 15.2986Z" fill="#FF9566"/>
<path d="M38.3126 14.5736C39.4183 14.3905 39.5941 13.3581 39.1913 13.0432C38.7886 12.7283 38.093 12.6185 37.8733 13.0432C37.6536 13.4679 37.9465 14.6322 38.3126 14.5736Z" fill="#DB5B3E"/>
<path d="M22.1517 16.097C20.6066 15.7674 20.2039 13.9002 20.6872 13.2924C21.1705 12.6847 22.1517 12.5162 22.4958 13.2412C22.84 13.9661 22.6569 16.2068 22.1517 16.097Z" fill="#FF9566"/>
<path d="M22.3049 15.4452C22.1306 15.407 21.9669 15.3307 21.8255 15.2217C21.6842 15.1127 21.5688 14.9737 21.4876 14.8148C21.4063 14.6558 21.3613 14.4809 21.3558 14.3025C21.3503 14.1241 21.3843 13.9467 21.4555 13.783C21.7484 13.4388 22.3049 13.3217 22.5246 13.783C22.7443 14.2443 22.6052 15.5038 22.3049 15.4452Z" fill="#DB5B3E"/>
<path d="M-11.8965 71.6382C-10.9372 56.3487 -0.978587 33.0924 9.60979 28.8087C20.1982 24.525 15.5117 85.6901 -3.95153 93.8328C-17.0442 99.31 -12.3212 78.5067 -11.8965 71.6382Z" fill="#FFB882"/>
<path d="M8.63589 31.0129C-8.20593 51.0986 5.70687 78.6093 -5.07189 84.4674C-6.67552 85.3387 -13.8589 79.9127 -15.0891 79.7883C-15.0891 88.2165 -12.9363 97.5966 -3.95154 93.8402C15.5117 85.6902 9.06059 30.7786 8.63589 31.0129Z" fill="#FF9566"/>
<path d="M10.6778 99.31C10.9194 93.8328 9.88692 81.3845 8.62745 76.4637C-5.17552 52.065 3.66277 35.8383 5.17121 33.8905C11.2123 25.9675 23.3531 21.8449 31.3859 21.1347C39.4187 20.4244 54.547 27.2343 59.8486 38.2621C63.1071 45.0427 64.2787 63.5248 57.2637 75.6875C54.3347 81.9336 53.9905 90.6182 55.4184 99.5443L10.6778 99.31Z" fill="#FFB882"/>
<path d="M7.09651 30.1489C6.81749 30.6188 6.57277 31.1082 6.36426 31.6134C4.8485 34.5424 7.90931 37.4129 7.90931 37.4129C5.63201 41.4256 10.5381 43.9079 10.5381 43.9079C8.75141 47.8182 13.8259 49.6708 13.8259 49.6708C13.5989 53.0977 18.6368 53.376 18.6368 53.376C18.8199 57.0372 25.0294 56.7663 25.0294 56.7663C25.0294 56.7663 25.5127 60.2591 30.3382 60.1054C33.1647 60.0175 33.9336 56.3636 33.9336 56.3636C38.2466 57.9818 39.4108 53.9691 39.4108 53.9691C43.4895 54.3572 45.2689 52.7828 45.3641 49.7513C49.8235 49.1069 51.4271 46.9468 50.9585 43.6736C54.0266 42.751 55.579 38.438 53.8216 36.1021C54.3343 35.7366 54.7441 35.2449 55.0114 34.6747C55.2786 34.1045 55.3943 33.475 55.3472 32.847C55.3 32.2191 55.0917 31.6139 54.7424 31.0899C54.3931 30.566 53.9145 30.141 53.3529 29.856C48.1247 26.041 39.6378 23.998 30.6531 24.0859C21.1558 24.1591 12.8008 26.1947 7.09651 30.1489Z" fill="#FF9566"/>
<path d="M8.21812 76.7126C9.46295 81.626 11.3961 93.8327 11.1471 99.3099L55.4045 99.5442C55.1263 97.7868 54.9212 96.0465 54.7894 94.3233C46.9104 93.408 6.04332 104.978 18.2646 24.708C18.2646 24.5835 18.2646 24.459 18.3012 24.3419C17.7667 24.5469 17.2248 24.7519 16.6903 24.9716L15.8409 25.3597C11.1618 43.3804 6.41677 56.4438 5.46484 73.4175C5.64058 73.7323 8.03505 76.3904 8.21812 76.7126Z" fill="#FF9566"/>
<path d="M54.9654 96.447C51.3042 93.3788 3.81757 111.824 16.9469 26.4582C17.2983 24.159 15.8997 23.3828 15.3579 26.7218C5.44317 87.7625 -0.905464 103.894 -9.12866 176.409C27.8135 154.397 48.9536 165.293 69.7569 135C69.7569 135 58.3265 99.2881 54.9654 96.447Z" fill="#FCF0D9"/>
<path d="M15.6799 67.5669C14.0762 57.6449 14.1568 44.3325 16.91 26.4582C17.2615 24.159 15.2405 23.5292 14.7133 26.8463C11.1472 48.7627 8.67951 64.7771 5.79443 79.7956C10.6786 65.8388 10.7005 52.7022 12.5238 50.9375C13.9591 49.5828 12.9119 59.3291 15.6799 67.5669Z" fill="#F4E1C1"/>
<path d="M29.9666 57.0224C25.456 57.0664 25.1484 54.8843 25.1484 54.8843C25.1484 54.8843 19.349 55.038 19.1586 51.3109C19.1586 51.3109 14.4429 50.9154 14.6259 47.4592C14.6259 47.4592 9.87361 45.4675 11.5212 41.5499C11.5212 41.5499 7.3986 39.0237 9.50016 35.0109C9.50016 35.0109 7.3034 31.5766 8.68004 28.633C9.03746 27.8062 9.56827 27.0659 10.2366 26.462C10.9048 25.8582 11.695 25.4049 12.5537 25.1328C12.5537 25.1328 13.2127 22.3795 14.7504 21.3031C15.8891 20.5918 17.1634 20.1254 18.4922 19.9338C18.4922 19.9338 18.873 16.8803 22.5929 14.6543C22.5929 14.6543 21.1283 13.6364 21.8606 12.5674C22.2713 11.9305 22.8255 11.3988 23.4789 11.015C23.4789 11.015 21.5018 10.5903 23.4789 9.05987C23.3479 8.95165 23.2411 8.81718 23.1652 8.66512C23.0894 8.51307 23.0464 8.34681 23.0388 8.17708C23.0312 8.00734 23.0592 7.8379 23.1212 7.67969C23.1831 7.52147 23.2775 7.378 23.3983 7.25853C23.7 6.98167 24.0711 6.79186 24.4722 6.70933C24.8732 6.6268 25.2892 6.65464 25.6756 6.78988C25.6018 6.64973 25.5596 6.49508 25.552 6.33684C25.5443 6.1786 25.5715 6.02062 25.6315 5.87401C25.6916 5.72741 25.783 5.59575 25.8995 5.48831C26.0159 5.38087 26.1544 5.30026 26.3054 5.25215C26.6086 5.12571 26.9376 5.07368 27.265 5.10044C27.5924 5.12719 27.9086 5.23194 28.1873 5.40593C28.1873 5.40593 28.6046 4 29.7689 4C30.1407 4.01703 30.501 4.13422 30.8116 4.33916C31.1223 4.54411 31.3717 4.8292 31.5337 5.16428C31.5337 5.16428 32.3172 4 33.2911 4.73225C34.265 5.46451 34.0233 6.02834 34.0233 6.02834C34.0233 6.02834 35.4366 4.9739 36.1029 5.79402C36.5075 6.34855 36.7045 7.02757 36.6594 7.71252C36.6594 7.71252 37.9995 7.40498 38.2777 8.55461C38.3605 8.87366 38.3333 9.21131 38.2004 9.51295C38.0675 9.8146 37.8368 10.0626 37.5455 10.2168C37.6936 10.1953 37.8446 10.2041 37.9892 10.2427C38.1339 10.2813 38.2692 10.3488 38.387 10.4413C38.5048 10.5337 38.6025 10.6491 38.6744 10.7804C38.7462 10.9118 38.7906 11.0563 38.8049 11.2054C38.8183 11.59 38.7339 11.9717 38.5598 12.3149C38.3856 12.658 38.1274 12.9515 37.8091 13.1678C38.4025 13.2603 38.9663 13.4897 39.4556 13.838C39.945 14.1863 40.3465 14.6438 40.6282 15.1742C41.1649 16.1915 41.4392 17.3266 41.4264 18.4766C43.9746 18.3961 46.6181 20.3439 48.1631 23.3461C49.5544 22.98 51.5754 25.3305 51.4949 28.5964C54.5044 30.6394 53.2962 33.6636 51.905 34.6228C53.5672 37.0319 52.1466 41.3595 49.2835 42.2163C49.7448 45.5407 48.2583 47.6935 44.0991 48.2427C44.0332 51.3109 42.3783 52.8632 38.5633 52.38C38.5633 52.38 37.5015 56.4147 33.4375 54.6792C33.1505 55.3657 32.669 55.9533 32.0523 56.3696C31.4356 56.786 30.7107 57.0129 29.9666 57.0224Z" fill="#FCF0D9"/>
<path d="M38.6933 40.6125C38.5908 40.737 38.4663 40.8542 38.3491 40.9787C38.8134 40.9256 39.2804 40.8987 39.7477 40.8981C39.3889 40.7883 39.0301 40.6931 38.6933 40.6125Z" fill="#FCE7CA"/>
<path d="M51.5015 28.5963C51.582 25.3305 49.561 22.98 48.1697 23.3461C46.6246 20.3439 43.9812 18.3961 41.433 18.4766C41.4458 17.3265 41.1715 16.1914 40.6348 15.1741C40.547 14.9995 40.4441 14.8329 40.3273 14.6762C40.5273 15.1823 40.6316 15.7211 40.6348 16.2652C40.6196 17.2791 40.281 18.2617 39.6682 19.0697C39.8537 19.0697 40.0368 19.0697 40.2174 19.0697C43.8787 19.0697 46.9102 20.9589 46.9102 23.2948C46.8652 23.9245 46.6582 24.5318 46.3092 25.0579C45.9602 25.5839 45.4811 26.0108 44.9185 26.2971C49.1436 27.3881 52.0799 30.0023 51.6772 32.5432C51.5471 33.14 51.2813 33.6989 50.9003 34.1763C50.5193 34.6538 50.0335 35.0371 49.4804 35.2965C49.5711 35.6007 49.618 35.9163 49.6196 36.2337C49.6196 38.8918 46.3903 41.052 42.3629 41.1325C44.6476 41.6012 46.2439 42.6849 46.2439 43.9371C46.2439 45.6286 43.3149 48.3306 39.8 48.3306C36.2852 48.3306 33.4221 45.6286 33.4221 43.9371C33.4238 43.7283 33.4661 43.5219 33.5466 43.3293C32.688 43.4986 31.815 43.5844 30.9398 43.5856C29.1258 43.5996 27.33 43.2224 25.6749 42.4799C25.6825 42.5431 25.6825 42.607 25.6749 42.6703C25.6434 42.9855 25.5294 43.2869 25.3443 43.5441C25.1591 43.8012 24.9095 44.005 24.6204 44.1348C25.5724 43.7054 26.6078 43.4928 27.652 43.5123C30.0318 43.5123 31.9649 44.4716 31.9649 45.6578C31.9649 46.8441 30.0025 49.1653 27.6227 49.1653C25.2429 49.1653 23.339 46.8368 23.339 45.6578C23.3787 45.3532 23.4986 45.0645 23.6865 44.8214C23.8743 44.5782 24.1233 44.3893 24.4081 44.2739C23.6758 44.6254 22.7312 45.7384 21.6987 45.7384C19.502 45.7384 17.7739 43.8712 17.7739 42.6922C17.7739 41.5133 19.5459 40.5467 21.728 40.5467C22.2202 40.5479 22.7109 40.5995 23.1925 40.7005C22.9294 40.3983 22.71 40.0606 22.5408 39.6973C21.643 40.1093 20.6656 40.3193 19.6777 40.3124C16.9977 40.3124 14.8302 38.8992 14.8302 37.1564C14.8498 36.6151 15.0568 36.0974 15.416 35.6919C11.9012 34.8132 9.41886 32.7043 9.41886 30.2366C9.41886 28.1204 11.2348 26.2751 13.9588 25.2353C13.8317 24.9338 13.7646 24.6105 13.7611 24.2834C13.7611 22.0866 16.6462 20.3585 20.2123 20.3585C22.1909 20.253 24.138 20.8873 25.6749 22.1379C25.7671 22.0396 25.8649 21.9467 25.9678 21.8596C23.0388 20.7319 21.1129 18.6523 21.1129 16.2652C21.1164 16.0693 21.131 15.8737 21.1569 15.6794C19.7996 16.7447 18.8548 18.2486 18.4842 19.9338C17.1553 20.1254 15.881 20.5917 14.7423 21.3031C13.2046 22.3795 12.5456 25.1328 12.5456 25.1328C11.687 25.4049 10.8968 25.8581 10.2285 26.462C9.56019 27.0659 9.02938 27.8062 8.67196 28.633C7.28068 31.562 9.49208 35.0109 9.49208 35.0109C7.39052 39.0236 11.5131 41.5499 11.5131 41.5499C9.86553 45.4675 14.3762 47.6789 14.3762 47.6789C14.1931 51.1424 19.1505 51.3401 19.1505 51.3401C19.3409 55.0673 25.1403 54.9135 25.1403 54.9135C25.1403 54.9135 25.4479 57.1103 29.9586 57.0517C30.7076 57.0479 31.4389 56.8236 32.0613 56.4069C32.6838 55.9902 33.1698 55.3996 33.4587 54.7085C37.5008 56.4439 38.5845 52.4092 38.5845 52.4092C42.3995 52.8925 44.0544 51.3401 44.1203 48.272C48.2795 47.7228 49.766 45.57 49.3047 42.2456C52.1678 41.3888 53.5884 37.0612 51.9262 34.6521C53.3028 33.6635 54.511 30.6393 51.5015 28.5963Z" fill="#FCE7CA"/>
<path d="M37.5512 10.2169C37.8425 10.0627 38.0733 9.81467 38.2061 9.51303C38.339 9.21139 38.3663 8.87373 38.2834 8.55469C37.9979 7.40505 36.6578 7.7126 36.6578 7.7126C36.6785 7.20805 36.5781 6.70588 36.3649 6.24809L36.2624 6.19683C36.3186 6.34697 36.3412 6.50758 36.3287 6.66739C36.3161 6.82719 36.2688 6.98232 36.1899 7.12188C36.1111 7.26144 36.0026 7.38205 35.8722 7.47525C35.7418 7.56844 35.5926 7.63196 35.435 7.66134C35.1175 7.74522 34.7846 7.75244 34.4638 7.68242C34.143 7.6124 33.8434 7.46713 33.5897 7.2586C33.5897 7.2586 32.9893 8.58398 31.803 8.43753C31.4391 8.37139 31.0997 8.20873 30.8202 7.96657C30.5407 7.72441 30.3313 7.41162 30.214 7.06089C30.214 7.06089 29.2767 8.0714 28.4053 7.25128C27.534 6.43116 27.8708 5.87464 27.8708 5.87464C27.8708 5.87464 26.3257 6.72406 25.7766 5.82338C25.7766 5.7648 25.718 5.70622 25.6887 5.64764C25.5958 5.82324 25.546 6.01841 25.5435 6.21703C25.5409 6.41566 25.5857 6.61204 25.674 6.78996C25.2896 6.65756 24.8765 6.6312 24.4784 6.71367C24.0802 6.79614 23.7116 6.98438 23.4114 7.2586C23.2897 7.37708 23.1942 7.51975 23.1311 7.6774C23.0679 7.83504 23.0385 8.00418 23.0447 8.17389C23.0509 8.34361 23.0926 8.51014 23.1671 8.66275C23.2416 8.81537 23.3473 8.95067 23.4773 9.05994C21.5002 10.5904 23.4773 11.0151 23.4773 11.0151C22.8133 11.3952 22.2487 11.9272 21.8297 12.5674C21.7081 12.7549 21.6433 12.9737 21.6433 13.1972C21.6433 13.4207 21.7081 13.6394 21.8297 13.8269C23.2942 11.4617 26.7797 9.79952 30.8657 9.79952C33.6475 9.71476 36.3718 10.603 38.569 12.3112C38.7702 11.9799 38.8504 11.5892 38.796 11.2054C38.7816 11.0578 38.7376 10.9146 38.6667 10.7844C38.5957 10.6541 38.4993 10.5395 38.3832 10.4473C38.267 10.355 38.1335 10.2871 37.9906 10.2475C37.8477 10.208 37.6982 10.1975 37.5512 10.2169Z" fill="#FCE7CA"/>
<path d="M30.1488 13.7681C29.724 13.7864 29.3184 13.9509 29.0009 14.2338C28.6833 14.5167 28.4732 14.9006 28.4061 15.3205L28.2377 16.2578C28.2177 16.3557 28.218 16.4566 28.2385 16.5544C28.259 16.6522 28.2993 16.7448 28.3569 16.8264C28.4145 16.908 28.4883 16.977 28.5735 17.0291C28.6588 17.0811 28.7538 17.1152 28.8528 17.1292C29.7623 17.2389 30.6818 17.2389 31.5914 17.1292C31.6972 17.1141 31.7985 17.0761 31.888 17.0177C31.9776 16.9594 32.0533 16.8822 32.1098 16.7914C32.1663 16.7007 32.2023 16.5987 32.2152 16.4926C32.2281 16.3865 32.2176 16.2789 32.1845 16.1772L31.8843 15.1374C31.7871 14.7494 31.5641 14.4046 31.2501 14.1568C30.9361 13.909 30.5488 13.7723 30.1488 13.7681Z" fill="#F4E1C1"/>
<path d="M23.9978 13.7315C25.2939 12.8601 27.8568 13.7828 30.3904 13.7315C32.924 13.6803 35.4722 12.6039 36.5193 13.5778C36.5193 13.5778 35.1354 15.2912 30.222 14.9324C25.001 15.8404 23.9978 13.7315 23.9978 13.7315Z" fill="#FFB882"/>
<path d="M24.4506 14.2517C25.8272 13.7244 28.0166 14.7276 30.3086 14.6617C32.4614 14.5958 34.7021 13.5926 35.9762 13.9295C36.1569 13.8182 36.3305 13.6959 36.4961 13.5633C35.449 12.5894 32.9227 13.6439 30.3672 13.7171C27.8116 13.7903 25.2414 12.875 23.9746 13.7171C24.0912 13.9287 24.2538 14.1114 24.4506 14.2517Z" fill="#FF9566"/>
<path d="M30.1349 13.9734C29.7762 13.9788 29.4312 14.1125 29.1626 14.3502C28.8939 14.588 28.7193 14.9141 28.6704 15.2695L28.5239 16.053C28.5081 16.1343 28.5087 16.218 28.5256 16.2991C28.5425 16.3802 28.5755 16.4571 28.6226 16.5254C28.6696 16.5936 28.7298 16.6517 28.7997 16.6963C28.8695 16.7409 28.9475 16.7712 29.0292 16.7852C29.7757 16.8767 30.5306 16.8767 31.2772 16.7852C31.3644 16.7714 31.4476 16.7389 31.5211 16.6901C31.5946 16.6412 31.6568 16.5771 31.7034 16.502C31.7499 16.427 31.7797 16.3428 31.7909 16.2552C31.802 16.1676 31.7941 16.0787 31.7678 15.9944L31.5188 15.1157C31.4475 14.7988 31.2728 14.5145 31.0223 14.3077C30.7718 14.101 30.4596 13.9833 30.1349 13.9734Z" fill="#FF9566"/>
<path d="M30.1331 13.8999C29.847 13.9388 29.5836 14.0765 29.3884 14.2891C29.1932 14.5017 29.0784 14.7759 29.064 15.0642L28.9614 15.7598C28.9391 15.8295 28.9311 15.903 28.9379 15.9759C28.9447 16.0487 28.9662 16.1194 29.0011 16.1838C29.036 16.2481 29.0836 16.3047 29.141 16.3501C29.1983 16.3955 29.2643 16.4289 29.3349 16.4481C29.891 16.5286 30.4557 16.5286 31.0118 16.4481C31.0851 16.4259 31.1531 16.3889 31.2116 16.3395C31.2702 16.2901 31.3181 16.2293 31.3523 16.1608C31.3866 16.0922 31.4065 16.0174 31.4109 15.941C31.4153 15.8645 31.4041 15.7879 31.3779 15.7159L31.1948 14.9324C31.1612 14.6654 31.0378 14.4177 30.8449 14.2301C30.6519 14.0425 30.4009 13.926 30.1331 13.8999Z" fill="#FFB882"/>
<path d="M26.8083 10.9343C28.0721 11.1036 29.284 11.5458 30.3597 12.2304C30.3597 12.2304 34.5702 10.0337 37.9752 10.1874L34.1748 8.84009L22.6638 9.85792C22.6638 9.85792 22.1951 10.0922 22.1878 10.4657C22.1793 10.5791 22.1951 10.6931 22.2342 10.7999C22.2733 10.9067 22.3347 11.004 22.4145 11.0851C22.4942 11.1662 22.5904 11.2294 22.6965 11.2703C22.8027 11.3112 22.9163 11.329 23.0299 11.3224C23.0299 11.3224 23.9306 10.5902 26.8083 10.9343Z" fill="#FCE7CA"/>
<path d="M38.3269 6.29933C38.261 6.10895 37.2432 7.33913 36.467 8.30571H34.8634C34.7389 7.35378 34.5412 6.42382 34.3508 6.33595C34.1604 6.24808 33.6185 7.35378 33.2378 8.2691H31.041C30.9155 7.5262 30.6307 6.81926 30.2062 6.19682C29.9426 6.08698 29.5545 7.31717 29.3202 8.18855H27.7752C27.2626 7.11946 26.5889 5.92589 26.3106 5.83069C26.0324 5.7355 25.8933 7.18536 25.864 8.15194H24.1212C23.389 7.11946 22.3638 5.64763 22.2906 5.85998C21.8878 7.00962 22.1881 8.6279 22.5762 9.98257L37.9022 10.2681H37.9535C38.3782 8.89883 38.7004 7.37575 38.3269 6.29933Z" fill="#F7B42F"/>
<path d="M31.7366 30.178C32.7395 29.4202 33.9159 28.9249 35.1588 28.7369C36.4017 28.5489 37.6719 28.6743 38.8541 29.1016C38.8541 29.1016 35.8225 25.9529 37.309 22.2038C35.5296 25.8138 35.8445 26.6193 31.7366 30.178Z" fill="#FCE7CA"/>
<path d="M33.2374 8.23962H31.0406C30.9111 7.50692 30.6265 6.81037 30.2059 6.19663C29.9422 6.08679 29.5541 7.31698 29.3198 8.18836H27.7748C27.6503 7.92475 27.5185 7.66114 27.3794 7.40485C26.5812 8.2982 25.7977 9.16226 25.0728 9.98971L32.6442 10.1362C32.798 9.95309 32.9445 9.76271 33.0982 9.58697C33.6322 8.9708 34.1968 8.38182 34.7898 7.82223C34.7644 7.30564 34.6136 6.80299 34.3504 6.35773C34.1307 6.19663 33.6108 7.3243 33.2374 8.23962Z" fill="#FFCB48"/>
<path d="M34.059 14.0683C33.923 13.9405 33.7579 13.8477 33.578 13.798C33.3981 13.7482 33.2088 13.743 33.0265 13.7828C32.47 13.8487 32.016 14.2221 32.0306 14.3246C32.0453 14.4272 32.4993 14.3246 33.0558 14.2368C33.6123 14.1489 34.0663 14.1709 34.059 14.0683Z" fill="#603642"/>
<path d="M28.1272 14.4419C28.1272 14.3394 27.7684 13.9733 27.2119 13.8927C27.0185 13.8508 26.8181 13.8527 26.6255 13.8983C26.4329 13.9439 26.2529 14.0321 26.0989 14.1563C26.0989 14.2589 26.5602 14.2589 27.1167 14.3394C27.6732 14.42 28.1126 14.5444 28.1272 14.4419Z" fill="#603642"/>
</g>
</svg>
