<svg width="74" height="200" viewBox="0 0 74 200" fill="none" xmlns="http://www.w3.org/2000/svg">
<path d="M6.17012 58.6537C-0.63011 52.9257 1.88118 47.8655 2.86876 47.4799C3.85635 47.0943 4.74988 51.8535 4.74988 51.8535C4.74988 51.8535 5.82211 49.5209 7.27997 50.5931C8.73784 51.6654 6.17012 58.6537 6.17012 58.6537Z" fill="#EF5476"/>
<path d="M54.0069 38.6105C59.4527 33.1176 56.3959 29.7786 55.4365 29.6658C54.4771 29.5529 54.3643 33.2681 54.3643 33.2681C54.3643 33.2681 53.0475 31.7068 51.853 32.7696C50.6585 33.8324 54.0069 38.6105 54.0069 38.6105Z" fill="#EF5476"/>
<path d="M4.41127 30.5499C8.82248 26.0446 6.29238 23.3076 5.55875 23.2135C4.82511 23.1195 4.70284 26.1575 4.70284 26.1575C4.70284 26.1575 3.63061 24.8877 2.66183 25.753C1.69306 26.6183 4.41127 30.5499 4.41127 30.5499Z" fill="#EF5476"/>
<path d="M61.3808 54.4871C56.9884 53.1327 58.1077 50.2169 58.7943 49.7843C59.4809 49.3516 60.365 51.8629 60.365 51.8629C60.365 51.8629 61.0799 50.4521 62.1521 50.8001C63.2243 51.1481 61.3808 54.4871 61.3808 54.4871Z" fill="#EF5476"/>
<path d="M45.5134 57.7508C46.501 49.8501 52.2196 28.4148 47.9683 13.1684C43.717 -2.07803 35.741 4.61873 35.741 4.61873C32.8535 -1.32559 23.5138 -1.32558 18.1808 3.43363C0.836976 18.8117 13.8073 36.7388 13.8073 36.7388C13.8073 36.7388 9.33961 48.1477 13.5533 50.1323C17.767 52.1169 18.7076 60.3561 14.0894 68.2286C5.87836 82.2147 4.55218 92.843 6.14172 102.361C7.73126 111.88 18.7452 118.614 32.3927 106.124L43.4536 105.183C59.4713 99.5773 44.5164 65.6797 45.5134 57.7508Z" fill="#CE4836"/>
<path d="M45.5134 57.7508C46.454 50.2263 51.7117 30.3053 48.5044 15.2282C49.3227 22.6586 39.6538 12.4065 33.3332 14.2877C28.6304 15.6985 21.0025 15.5104 18.717 14.0525C15.425 11.9645 16.8358 6.08601 18.2843 3.32077L18.1808 3.40542C0.836976 18.8117 13.8073 36.7388 13.8073 36.7388C13.8073 36.7388 9.33961 48.1477 13.5533 50.1323C17.767 52.1169 18.7076 60.3561 14.0894 68.2286C5.87836 82.2147 4.55218 92.843 6.14172 102.361C7.73126 111.88 18.7452 118.614 32.3927 106.124L43.4536 105.183C59.4713 99.5774 44.5164 65.6797 45.5134 57.7508Z" fill="#B23124"/>
<path d="M32.3927 106.124L43.4536 105.183C59.4431 99.6244 44.5164 65.7267 45.5134 57.7978C45.6827 56.3964 46.0119 54.5623 46.3975 52.4272C46.153 52.3238 45.899 52.2109 45.6451 52.1169C35.7975 48.5145 23.7677 54.995 14.5315 67.4667C14.381 67.7301 14.2493 68.0029 14.0894 68.2756C5.87836 82.2147 4.55218 92.843 6.14172 102.361C7.73126 111.88 18.7452 118.614 32.3927 106.124Z" fill="#A0231D"/>
<path d="M29.2795 134.848C15.1711 125.132 8.5872 105.399 7.95703 97.367L24.793 101.524C22.1971 104.177 23.4104 128.17 29.2795 134.848Z" fill="#A0231D"/>
<path d="M42.2216 37.5665C35.1298 32.5157 32.5056 27.954 32.3081 23.7685C32.2289 22.5546 31.8006 21.3894 31.0748 20.4133C30.3489 19.4371 29.3564 18.6915 28.2167 18.2662C27.6335 25.8471 32.3833 33.1176 28.4518 37.9709L42.2216 37.5665Z" fill="#FFB882"/>
<path d="M34.7347 53.6123C50.2821 68.8588 65.5379 89.946 66.4126 98.1007C67.2873 106.255 46.5951 95.58 46.5951 95.58C46.5951 95.58 43.0022 71.3795 30.3705 62.8298C26.3355 54.5529 34.7347 53.6123 34.7347 53.6123Z" fill="#FFEBC0"/>
<path d="M36.2302 54.7975C50.4514 68.7459 62.8385 88.9303 63.638 96.3889C64.4375 103.847 45.5135 94.0563 45.5135 94.0563C45.5135 94.0563 42.2309 71.9626 30.6809 64.1466C26.9469 56.5939 36.2302 54.7975 36.2302 54.7975Z" fill="#F4D095"/>
<path d="M25.1694 177.427C26.5308 179.699 28.3921 181.63 30.6119 183.074C32.8317 184.518 35.3515 185.437 37.9798 185.761C42.5133 186.41 47.1032 194.875 42.6073 196.887L71.8304 200.001C71.8304 200.001 61.7383 177.333 43.8583 171.521C22.7992 164.683 26.4109 154.007 29.3925 152.578L24.4546 145.712L25.1694 177.427Z" fill="#F4D095"/>
<path d="M38.0078 39.6074C45.3818 54.6564 49.7177 66.6108 52.1162 68.4355C55.0225 70.627 56.2734 67.6737 55.6715 65.3223C54.8532 62.0209 47.0278 44.0187 45.0714 40.4445C41.9205 34.6695 38.0078 39.6074 38.0078 39.6074Z" fill="#FFB882"/>
<path d="M50.2821 64.5322C50.1987 61.6735 50.8462 58.8409 52.1632 56.3023C49.5673 50.0288 46.2471 42.6078 45.0714 40.4445C41.9205 34.6601 38.0078 39.598 38.0078 39.598C43.8393 51.4585 47.7614 61.4284 50.3385 65.9901C50.3103 65.5198 50.2821 65.0307 50.2821 64.5322Z" fill="#FF9566"/>
<path d="M49.4074 57.7414C45.7392 60.9675 47.0278 63.8738 47.0278 63.8738C47.0278 63.8738 40.378 60.7794 41.4503 56.9889C42.5225 53.1985 49.4074 57.7414 49.4074 57.7414Z" fill="#F4D095"/>
<path d="M41.441 49.7184L33.2206 56.434C38.3842 68.0217 33.4933 77.305 27.2574 90.9054C16.3752 114.654 30.0039 146.135 43.7266 199.399H44.4414C44.4414 199.399 63.6664 115.689 62.3872 103.96C60.4215 85.8734 47.8556 83.1364 41.441 49.7184Z" fill="#FFB882"/>
<path d="M30.3612 89.9178C35.9105 76.3174 38.6851 68.0311 34.0764 56.4434L41.1023 49.9912L33.2205 56.434C38.3841 68.0217 33.4932 77.305 27.2573 90.9054C17.0711 113.131 28.3672 142.138 41.1023 189.429C29.7592 142.138 21.2848 112.143 30.3612 89.9178Z" fill="#FF9566"/>
<path d="M62.3871 103.942C60.4214 85.8734 47.8555 83.1364 41.4409 49.7184C47.1501 83.1176 59.4996 86.0992 61.249 104.158C62.3589 115.943 44.0745 199.399 44.0745 199.399H44.4413C44.4413 199.399 63.6663 115.689 62.3871 103.942Z" fill="#FF9566"/>
<path d="M54.9661 94.9968C56.947 95.0086 58.9016 95.4516 60.6941 96.2948C59.1046 91.6673 56.6873 87.8298 54.0067 83.3339C47.1971 89.3441 30.775 94.2726 25.6301 95.1097C21.4353 107.835 23.3728 122.837 28.1038 142.015C30.7656 115.106 41.7795 94.9968 54.9661 94.9968Z" fill="#FF9566"/>
<path d="M33.9635 74.8971C37.453 70.4201 41.2528 67.937 45.2502 67.937C45.6686 67.9368 46.0865 67.9651 46.5011 68.0217C44.2955 62.0783 42.6119 55.9541 41.4691 49.7184L33.2205 56.434C36.108 62.9239 35.8446 68.6613 33.9635 74.8971Z" fill="#FF9566"/>
<path d="M44.2251 121.812L43.7266 197.499L44.2251 197.63L46.1062 119.564L44.2251 121.812Z" fill="#FF9566"/>
<path d="M62.3871 103.942C61.202 93.0499 53.7904 88.7233 52.9815 91.0841C46.4729 109.782 31.2735 114.805 24.1723 109.829C23.8796 109.625 23.6029 109.399 23.3446 109.152C22.9683 124.549 28.1884 143.229 35.0263 167.467C35.3649 166.05 35.7317 164.62 36.1267 163.178C42.3626 140.379 52.9251 122.555 60.5248 121.455C61.898 113.121 62.6786 106.641 62.3871 103.942Z" fill="#FF9566"/>
<path d="M0.761963 200.001H73.0814L65.6792 192.73C65.6792 192.73 47.1032 200.386 29.938 192.222C12.7729 184.058 12.6788 180.588 12.6788 180.588C12.6788 180.588 2.90643 188.601 0.761963 200.001Z" fill="#FFEBC0"/>
<path d="M60.7693 200.001H73.0812C70.9238 195.86 68.2189 192.029 65.0394 188.61C64.6774 190.206 63.8414 191.654 62.6411 192.765C61.4409 193.876 59.9327 194.599 58.3145 194.837C59.3036 196.472 60.126 198.202 60.7693 200.001Z" fill="#FFE0AE"/>
<path d="M12.66 180.588C12.2273 180.954 2.82178 188.874 0.761963 200.001H18.1999C12.7917 193.172 10.5626 185.845 12.66 180.588Z" fill="#FFE0AE"/>
<path d="M64.8983 112.002C32.6184 144.047 27.878 160.676 29.0443 181.472C29.0443 181.472 19.9115 176.769 22.8272 157.958C22.8272 157.958 19.9209 156.697 22.4322 141.639C23.5985 134.641 13.2994 134.641 15.632 124.145C17.9645 113.648 24.9152 87.2937 59.3208 86.2497C65.7354 86.0521 67.4943 109.387 64.8983 112.002Z" fill="#FFEBC0"/>
<path d="M49.3604 97.668C49.4638 96.671 48.9089 95.1473 48.7772 93.7365C49.4638 91.7989 50.2915 89.3535 51.1004 86.7293L47.5451 87.8392C47.4699 90.0801 47.2278 92.3122 46.8209 94.5171L46.708 94.7617C45.4125 95.8781 44.0526 96.9177 42.6354 97.8749C42.2216 98.2418 42.7389 98.5709 44.1309 97.8749C45.0056 97.4517 45.4289 97.0943 45.7675 96.9344C45.5887 97.367 45.4477 97.7715 45.3442 98.1007C44.8269 99.3234 43.9428 101.496 44.272 101.581C44.6012 101.665 45.3348 100.377 45.9744 99.1823C46.1873 99.196 46.401 99.196 46.614 99.1823C46.5105 100.396 46.4258 101.948 46.708 102.004C46.9902 102.06 47.4605 100.311 47.7144 99.0036C47.9061 98.9523 48.0946 98.8894 48.2787 98.8155C48.3916 100.019 48.5985 101.524 48.8901 101.562C49.3792 101.618 49.5015 99.1729 49.3604 97.6586V97.668Z" fill="#FFE0AE"/>
<path d="M29.0255 171.332C28.7802 171.261 28.5412 171.17 28.3107 171.06C22.8555 168.313 22.5733 148.308 30.0507 133.437C31.7415 130.159 33.8022 127.086 36.1926 124.276C28.7622 128.612 22.2629 129.76 19.6482 126.581C16.6196 122.884 19.4036 110.732 26.2321 100.668C19.2813 108.926 16.8265 118.689 15.5756 124.182C13.243 134.679 23.5421 134.679 22.3758 141.677C19.8645 156.726 22.7708 157.995 22.7708 157.995C19.8551 176.806 28.9879 181.509 28.9879 181.509C28.7823 178.12 28.7949 174.72 29.0255 171.332Z" fill="#FFE0AE"/>
<path d="M59.321 86.2497C58.3805 86.2497 57.4399 86.3343 56.4994 86.4002C57.9731 86.9015 59.2897 87.7803 60.318 88.9491C63.4595 92.7771 59.9794 101.684 52.4268 110.497C56.5934 108.165 60.1958 107.224 62.0769 108.165C63.3466 108.804 63.8639 110.563 63.8263 113.056L64.8985 112.002C67.4945 109.387 65.7356 86.0521 59.321 86.2497Z" fill="#FFE0AE"/>
<path d="M29.4958 51.2703C28.0379 41.5544 27.2479 40.2376 27.6147 38.9679C27.9815 37.6981 32.7783 32.13 33.3615 31.9325C33.9446 31.735 42.8799 37.4724 43.4631 38.4412C44.0462 39.4099 48.8054 50.6684 49.0029 51.6089C49.2005 52.5495 29.4958 51.2703 29.4958 51.2703Z" fill="#FFB882"/>
<path d="M40.6697 45.4389C40.9277 47.4696 41.3845 49.47 42.0335 51.4114L43.3879 51.5996L40.6697 45.4389Z" fill="#FF9566"/>
<path d="M29.4959 51.2704C29.4959 51.2704 30.5587 51.355 34.0012 51.5149C33.7378 50.2452 29.4865 39.2877 27.5396 39.7109C27.549 40.9807 28.292 43.2662 29.4959 51.2704Z" fill="#FF9566"/>
<path d="M26.7683 50.6872C26.3826 55.4464 26.1851 59.3309 30.3706 62.8298C30.3706 62.8298 36.71 56.481 49.4075 57.7414C49.4075 57.7414 53.1697 53.8005 51.9376 50.1041C50.6396 47.4141 28.9033 48.1665 26.7683 50.6872Z" fill="#FFEBC0"/>
<path d="M43.1621 55.7662C38.6663 55.7662 35.0169 50.3862 34.4432 48.7685C29.5805 48.7685 27.0692 50.3298 26.7682 50.6496C23.8055 57.5156 29.778 63.4129 33.9635 66.9024C38.0585 62.3397 43.4451 59.1313 49.4074 57.7038C50.0286 57.0284 50.5742 56.2872 51.0346 55.4934C48.749 56.0766 46.0873 55.7662 43.1621 55.7662Z" fill="#FFE0AE"/>
<path d="M30.7561 53.9415L33.8599 57.083C39.4374 51.0822 49.9811 52.1169 49.9811 52.1169C49.9811 52.1169 44.4788 49.6808 30.7561 53.9415Z" fill="#FFE0AE"/>
<path d="M27.8406 38.6387C21.3319 48.9848 18.435 70.7023 20.8428 73.5239C23.2507 76.3456 24.7273 74.4645 25.4139 72.1601C26.1005 69.8558 27.502 53.8004 30.5118 47.8655C33.5215 41.9306 27.8406 38.6387 27.8406 38.6387Z" fill="#FFB882"/>
<path d="M30.2764 46.6616C27.4265 53.7064 23.6079 59.1616 20.6922 60.8264C19.7516 67.0623 19.7516 72.2448 20.8615 73.5239C23.2881 76.3456 24.746 74.4645 25.4326 72.1601C26.1192 69.8558 27.5206 53.8005 30.5304 47.8655C31.2128 46.6231 31.5045 45.2038 31.3675 43.7929C31.0383 44.7335 30.6715 45.6929 30.2764 46.6616Z" fill="#FF9566"/>
<path d="M50.0471 62.0774C48.4387 67.7207 50.5268 88.0179 47.6863 94.5078L48.8244 95.4483C48.8244 95.4483 57.1765 74.1165 55.7939 66.7801C54.7781 61.2873 50.0471 62.0774 50.0471 62.0774Z" fill="#FFB882"/>
<path d="M48.3541 95.0909C50.9312 86.9645 49.8872 64.551 51.2228 58.475C50.4703 58.4092 49.3981 61.6259 49.3981 61.6259C47.7803 67.2692 50.5268 88.0555 47.6863 94.5454L48.3541 95.0909Z" fill="#FF9566"/>
<path d="M23.9937 73.2888C29.1573 71.2102 40.8579 57.1018 47.3383 54.7034L47.2066 53.2737C47.2066 53.2737 26.8059 60.7982 22.4606 66.9494C19.2533 71.4829 23.9937 73.2888 23.9937 73.2888Z" fill="#FFB882"/>
<path d="M38.2337 59.7636C31.4241 65.0683 24.7837 67.8241 23.2318 66.0277C22.9522 66.322 22.6944 66.6364 22.4606 66.9682C19.2533 71.4829 23.514 74.8877 23.514 74.8877C28.7153 72.8185 40.8861 57.1018 47.3665 54.7034L47.2913 53.8569C44.1524 55.6359 41.1274 57.6086 38.2337 59.7636Z" fill="#FF9566"/>
<path d="M43.6324 83.8512C43.6324 83.6255 43.3879 83.5597 42.974 83.7007C42.5602 83.8418 42.184 84.1428 42.1369 84.3685C42.0899 84.5943 42.3909 84.6695 42.7953 84.5284C43.1998 84.3874 43.5854 84.0864 43.6324 83.8512Z" fill="#FF9566"/>
<path d="M10.8258 121.436C2.27616 105.08 4.37361 89.3535 7.63734 82.8448L18.2468 98.4957C14.1084 99.6996 10.1486 110.394 10.8258 121.436Z" fill="#A0231D"/>
<path d="M0 103.706C0.545523 85.6383 12.895 69.0375 18.971 64.203L11.4466 89.3253C8.04176 88.3377 2.32318 94.7711 0 103.706Z" fill="#A0231D"/>
<g style="mix-blend-mode:multiply" opacity="0.6">
<path d="M31.8097 40.0495C35.2855 39.5732 38.6673 38.5644 41.836 37.0586C41.14 36.5507 40.2841 35.9675 39.3906 35.375C34.4244 31.1895 32.4775 27.3332 32.3082 23.7685C32.229 22.5546 31.8008 21.3894 31.0749 20.4133C30.349 19.4371 29.3565 18.6915 28.2168 18.2662C27.6995 24.9724 31.3582 31.434 29.4771 36.2027C28.7398 37.0444 28.1081 37.973 27.596 38.9679C27.3138 39.4288 27.0317 39.9084 26.7683 40.4446C28.4555 40.4207 30.1394 40.2887 31.8097 40.0495Z" fill="#C94343"/>
</g>
<path d="M34.8947 28.8851C33.2141 28.6705 31.6534 27.9005 30.4605 26.6974C29.2676 25.4943 28.511 23.9271 28.3108 22.2448C27.944 19.1315 27.7558 14.0525 31.5181 12.8392C35.6659 11.5413 37.6975 14.9555 37.7446 19.8934C37.7916 25.7719 34.8947 28.8851 34.8947 28.8851Z" fill="#FFB882"/>
<path d="M36.6158 19.4419C36.6158 18.7647 36.202 18.2286 35.7881 18.2474C35.3743 18.2662 35.0921 18.8399 35.1485 19.5266C35.205 20.2132 35.5624 20.7399 35.9668 20.7211C36.3713 20.7023 36.6816 20.1285 36.6158 19.4419Z" fill="#66423B"/>
<path d="M32.6279 19.6394C32.6279 18.8494 32.214 18.2098 31.772 18.2098C31.3299 18.2098 31.0383 18.8117 31.0383 19.63C31.0383 20.4483 31.4522 21.0597 31.8942 21.0597C32.3363 21.0597 32.6561 20.4295 32.6279 19.6394Z" fill="#66423B"/>
<path d="M30.3142 19.4231C31.0205 18.8151 31.9218 18.4813 32.8537 18.4826C32.7233 18.2865 32.532 18.1388 32.3093 18.0623C32.0866 17.9858 31.8449 17.9848 31.6216 18.0593C30.7375 18.2756 30.3142 19.4231 30.3142 19.4231Z" fill="#66423B"/>
<path d="M37.1049 18.8117C36.3924 18.3971 35.5541 18.2535 34.7441 18.4073C34.8364 18.2274 34.9811 18.0798 35.1592 17.984C35.3372 17.8883 35.5402 17.8489 35.7411 17.8712C36.5876 17.8712 37.1049 18.8117 37.1049 18.8117Z" fill="#66423B"/>
<path d="M29.9285 17.9841L29.8721 17.8712C30.0565 17.4073 30.3409 16.9899 30.705 16.6485C31.0692 16.3071 31.5041 16.0501 31.9789 15.896L32.0824 16.4886C31.6364 16.5668 31.2128 16.7411 30.8409 16.9993C30.4689 17.2575 30.1576 17.5935 29.9285 17.9841Z" fill="#C14D33"/>
<path d="M37.1614 17.3351C36.856 16.9883 36.4773 16.7139 36.0527 16.5317C35.6281 16.3495 35.1683 16.2641 34.7065 16.2816V15.6891C35.2107 15.7175 35.7014 15.8622 36.1404 16.1119C36.5793 16.3615 36.9545 16.7094 37.2366 17.1281L37.1614 17.3351Z" fill="#C14D33"/>
<path d="M34.998 21.7651C34.998 21.7651 34.998 21.8121 34.998 21.8309C34.9753 21.9304 34.9324 22.0241 34.8719 22.1062C34.8114 22.1883 34.7347 22.2571 34.6464 22.3083C34.5582 22.3595 34.4604 22.3919 34.3591 22.4036C34.2577 22.4154 34.1551 22.4061 34.0575 22.3764C33.9315 22.3336 33.8161 22.2644 33.7188 22.1736C33.6215 22.0828 33.5446 21.9724 33.4932 21.8497C33.471 22.0614 33.5212 22.2742 33.6357 22.4536C33.7502 22.633 33.9221 22.7683 34.1233 22.8373C34.2238 22.8732 34.3308 22.8873 34.4371 22.8787C34.5435 22.8701 34.6468 22.8389 34.7402 22.7873C34.8336 22.7357 34.9149 22.6649 34.9788 22.5794C35.0428 22.494 35.0878 22.396 35.1109 22.2918C35.1254 22.109 35.0862 21.9259 34.998 21.7651Z" fill="#EA7B59"/>
<path d="M32.6091 24.2106L35.4308 24.1447C35.4308 24.1447 35.1769 25.6026 34.0294 25.6026C32.8819 25.6026 32.6091 24.2106 32.6091 24.2106Z" fill="#491D2E"/>
<path d="M32.8066 24.267L35.1862 24.2105C35.1862 24.2105 35.3743 24.8501 34.0293 24.9066C32.6843 24.963 32.8066 24.267 32.8066 24.267Z" fill="#FFEBEB"/>
<path d="M34.6407 26.054C34.6407 25.8753 34.3962 26.054 34.0952 26.054C33.7942 26.054 33.5591 25.8847 33.5591 26.054C33.5591 26.2233 33.8036 26.3738 34.0952 26.3738C34.3868 26.3738 34.6407 26.2327 34.6407 26.054Z" fill="#EF8F6F"/>
<path d="M19.62 30.1925C17.1558 22.3576 23.2129 18.8117 24.1535 15.7267C25.0188 12.905 25.9029 7.0736 23.2976 6.9137C20.6923 6.75381 16.5726 8.46562 17.4473 11.8422C18.2468 14.9178 21.0967 15.7173 19.2344 18.6989C16.0647 23.7591 17.7013 28.0574 19.62 30.1925Z" fill="#CE4836"/>
<path d="M26.8811 21.9344C26.74 20.185 25.5173 19.4043 25 20.5988C24.7702 20.9924 24.6977 21.4584 24.7972 21.9033C24.8966 22.3481 25.1606 22.7389 25.5361 22.9972C26.1569 23.4017 27.0034 23.364 26.8811 21.9344Z" fill="#FFB882"/>
<path d="M26.5519 21.8215C26.4579 20.6835 25.6114 20.1662 25.3198 20.9468C25.1548 21.21 25.0989 21.5272 25.1639 21.831C25.2288 22.1347 25.4096 22.4013 25.6678 22.574C26.0722 22.7809 26.6272 22.7621 26.5519 21.8215Z" fill="#EA7B59"/>
<path d="M26.5237 22.2354C26.4579 21.4077 25.8747 21.0409 25.6396 21.6052C25.5302 21.7919 25.4956 22.013 25.5428 22.2242C25.5899 22.4353 25.7152 22.6208 25.8935 22.7433C26.1851 22.9314 26.5801 22.9126 26.5237 22.2354Z" fill="#FFB882"/>
<path d="M29.3171 122.734C35.901 112.811 54.4112 104.054 54.4112 104.054C54.4112 104.054 42.9364 108.165 38.6569 110.864C34.3773 113.563 29.3171 122.734 29.3171 122.734Z" fill="#FFE0AE"/>
<path d="M67.8048 35.0834C66.1494 30.7944 69.131 29.8727 69.8834 30.1549C70.6359 30.437 69.225 32.6755 69.225 32.6755C69.225 32.6755 70.7676 32.3652 71.172 33.4186C71.5764 34.472 67.8048 35.0834 67.8048 35.0834Z" fill="#EF5476"/>
<path d="M42.2311 56.4905C44.0182 55.8979 46.7552 56.4905 47.6487 55.8415C48.3447 55.3054 47.9497 52.5683 47.3571 52.3144C46.7646 52.0604 42.0054 55.4935 42.0054 55.4935L42.2311 56.4905Z" fill="#FFB882"/>
<path d="M43.5759 54.5529C44.3609 53.1796 45.034 51.7453 45.5887 50.264C45.8144 49.8501 46.2659 50.264 46.0214 51.5619C45.7768 52.8599 45.3253 53.1891 45.8238 53.6594C46.3223 54.1297 43.0962 55.1737 43.5759 54.5529Z" fill="#FFB882"/>
<path d="M46.6047 53.8005C47.5453 53.095 49.6615 51.4773 49.4264 51.1105C49.1912 50.7437 45.9087 52.9916 45.9087 52.9916L46.6047 53.8005Z" fill="#FFB882"/>
<path d="M47.197 54.7222C48.194 54.346 50.5736 53.4713 50.4043 53.095C50.235 52.7188 46.6421 53.8099 46.6421 53.8099L47.197 54.7222Z" fill="#FFB882"/>
<path d="M47.2348 56.039C48.6456 55.8791 50.7525 55.3524 50.5738 54.9573C50.3951 54.5623 46.614 55.0702 46.614 55.0702L47.2348 56.039Z" fill="#FFB882"/>
<path d="M50.395 90.1154C50.1317 91.9965 51.4108 94.4889 50.8465 95.627C50.4044 96.5676 47.2536 97.019 46.868 96.4829C46.4823 95.9468 49.2664 90.2282 49.2664 90.2282L50.395 90.1154Z" fill="#FFB882"/>
<path d="M48.5515 92.0059C47.201 93.2237 45.7645 94.3427 44.2532 95.3543C43.8487 95.7211 44.3566 96.0503 45.7487 95.3543C47.1407 94.6582 47.4135 94.1315 48.0154 94.4701C48.6174 94.8087 49.1817 91.3475 48.5515 92.0059Z" fill="#FFB882"/>
<path d="M48.3634 95.2226C47.7708 96.3794 46.3412 99.2105 45.8897 99.0977C45.4383 98.9848 47.3288 94.8087 47.3288 94.8087L48.3634 95.2226Z" fill="#FFB882"/>
<path d="M49.5109 95.5235C49.2946 96.6898 48.8055 99.5397 48.3352 99.4833C47.8649 99.4269 48.3916 95.2602 48.3916 95.2602L49.5109 95.5235Z" fill="#FFB882"/>
<path d="M50.9781 95.1379C51.1192 96.6616 50.9781 99.0977 50.5078 99.0412C50.0375 98.9848 49.7742 94.8181 49.7742 94.8181L50.9781 95.1379Z" fill="#FFB882"/>
</svg>
