<svg width="179" height="200" viewBox="0 0 179 200" fill="none" xmlns="http://www.w3.org/2000/svg">
<path d="M21.8522 115.527C21.0222 110.532 21.2322 108.365 22.5222 107.686C23.8122 107.007 27.2322 108.319 27.2322 108.319L21.8522 115.527Z" fill="#FF9566"/>
<path d="M36.2423 119.582C34.5223 122.726 32.1123 123.628 29.3523 121.768C29.3523 121.768 25.3523 122.28 24.3523 120.224C24.3523 120.224 19.4823 121.573 20.8823 116.569C22.2823 111.565 26.0923 110.681 26.0923 110.681L36.2423 119.582Z" fill="#FF9566"/>
<path d="M61.8622 30.4309C59.1222 32.8771 53.6522 32.226 53.6522 32.226L52.8422 30.8029L52.5322 31.9935C52.5322 31.9935 47.5322 35.1651 43.1422 32.1609C38.7522 29.1566 40.3622 26.3105 40.3622 26.3105C40.3622 26.3105 37.3622 23.9015 38.8322 21.4739C39.9941 19.7648 41.4818 18.2676 43.2222 17.0558L45.1622 17.1674L43.2622 16.1071C42.7287 15.3101 42.4174 14.402 42.3563 13.465C42.2951 12.5279 42.4862 11.5914 42.9122 10.7403C43.2399 9.88125 43.7944 9.11251 44.5248 8.50469C45.2551 7.89687 46.138 7.46946 47.0922 7.26171L48.3022 7.49424C48.3022 7.49424 45.8422 4.34115 48.5122 2.49952C51.1822 0.657897 56.0922 2.3228 56.0922 2.3228L56.6022 3.25292L56.9822 1.63452C56.9822 1.63452 59.4122 -0.346627 61.9222 0.0533227C64.4322 0.453272 66.6122 3.58776 66.6122 3.58776L66.0922 4.64809L67.9222 4.40626C69.3428 5.85662 70.239 7.68464 70.4847 9.63329C70.7305 11.5819 70.3134 13.5532 69.2922 15.27C65.8522 21.6785 61.8622 30.4309 61.8622 30.4309Z" fill="#CC5A29"/>
<path d="M64.4524 8.53595L63.1624 7.17798L63.6924 9.16842C63.4642 10.084 62.9946 10.9324 62.326 11.6371C61.6574 12.3417 60.8108 12.8806 59.8624 13.2051C58.9817 13.5958 58.0101 13.7758 57.0356 13.7287C56.0612 13.6816 55.1148 13.4089 54.2824 12.9354L53.0924 9.73579C53.0924 9.73579 50.4724 11.5495 49.6624 11.5216C47.7491 11.5101 45.8567 11.1499 44.0924 10.4613L44.4124 9.53117L43.1524 10.2288C43.0605 10.3814 42.9803 10.5399 42.9124 10.7031C42.4864 11.5542 42.2953 12.4907 42.3565 13.4277C42.4176 14.3648 42.7289 15.2729 43.2624 16.0699L45.1624 17.1302L43.2224 17.0186C41.482 18.2303 39.9943 19.7276 38.8324 21.4366C37.3824 23.8642 40.3624 26.2732 40.3624 26.2732C40.3624 26.2732 38.7524 29.1194 43.1424 32.1236C47.5324 35.1279 52.5324 31.9562 52.5324 31.9562L52.8424 30.7657L53.6524 32.1888C53.6524 32.1888 59.1224 32.8398 61.8624 30.3936C61.8624 30.3936 65.8624 21.6413 69.3124 15.1863C70.5203 13.1141 70.8758 10.7038 70.3124 8.40573C68.3786 8.73569 66.4009 8.77964 64.4524 8.53595Z" fill="#B24119"/>
<path d="M105.882 33.1282C114.512 60.8642 119.022 69.9049 120.672 70.5095C122.322 71.1141 127.852 65.6822 129.292 64.4823C130.732 63.2825 142.092 25.2315 142.092 25.2315L152.092 21.8738C152.092 21.8738 149.622 68.9004 149.422 70.3049C149.222 71.7093 141.622 90.4046 138.542 92.0044C136.852 92.9345 119.542 97.427 115.412 97.8083C111.992 98.1153 96.6623 92.0044 93.4123 88.7955C90.2623 85.7541 105.882 33.1282 105.882 33.1282Z" fill="#D83688"/>
<path d="M116.922 95.7156C113.392 95.8086 98.9224 89.0001 95.4724 85.5773C92.7524 82.8428 90.2624 85.754 93.3624 88.7955C96.6524 92.0044 111.982 98.0967 115.362 97.8083C119.452 97.4363 136.572 92.9438 138.442 92.0323C133.092 93.288 120.412 95.6226 116.922 95.7156Z" fill="#BC1E74"/>
<path d="M118.632 84.6379C127.322 68.826 140.512 58.4087 150.082 59.1156C150.882 44.8011 152.082 21.911 152.082 21.911L142.082 25.2687C142.082 25.2687 130.732 63.2453 129.292 64.4823C127.852 65.7194 122.292 71.1141 120.672 70.5095C119.052 69.9049 114.512 60.8642 105.882 33.1282C105.882 33.1282 90.2622 85.7541 93.3622 88.7955C96.1522 91.5208 107.642 96.3481 113.132 97.5386C114.506 93.081 116.348 88.7599 118.632 84.6379Z" fill="#BC1E74"/>
<path d="M93.0923 27.0359C107.732 28.2358 134.792 33.4816 134.792 33.4816L136.982 51.8328C132.382 53.5721 102.322 55.1998 98.2123 52.9117C94.2823 50.7073 93.0923 27.0359 93.0923 27.0359Z" fill="#FFB882"/>
<path d="M94.6323 42.42C95.4323 47.4519 96.6323 51.9909 98.2123 52.8931C102.322 55.1812 132.382 53.5535 136.982 51.8142L135.842 42.2154C128.032 43.7129 99.0923 44.5779 94.6323 42.42Z" fill="#FF9566"/>
<path d="M31.9524 93.5577C32.3761 80.8079 34.3452 68.1434 37.8224 55.8044L63.2324 81.9406C63.2324 81.9406 55.8924 101.473 50.4524 107.891C45.0124 114.309 31.6624 101.38 31.9524 93.5577Z" fill="#FFB882"/>
<path d="M33.4323 80.2571L32.3523 83.8659C38.0631 86.3708 42.6592 90.6457 45.3523 95.9574L49.6723 89.4466C49.6723 89.4466 36.7623 80.4059 33.4323 80.2571Z" fill="#FF9566"/>
<path d="M37.8222 55.8044C37.8222 55.8044 37.4422 57.0135 36.8722 59.1993C36.8722 59.1993 46.6022 72.7138 47.3622 78.2201C48.2122 84.2938 44.2222 93.846 38.7922 100.273C38.3823 100.785 37.8541 101.204 37.2465 101.5C36.639 101.796 35.9677 101.962 35.2822 101.985C39.5322 107.751 46.7922 112.216 50.4522 107.909C55.8922 101.473 63.2322 81.9406 63.2322 81.9406L37.8222 55.8044Z" fill="#FF9566"/>
<path d="M64.0923 112.541C64.6823 101.064 60.5723 86.3121 60.5723 86.3121C60.5723 86.3121 37.0923 64.1754 37.0923 57.7669C37.0923 51.3584 72.9223 27.0732 93.0923 27.0732C93.0923 27.0732 103.562 41.0249 101.212 64.0173C98.8623 87.0097 104.212 100.561 104.212 100.561C89.6523 109.556 75.7023 116.029 64.0923 112.541Z" fill="#FFB882"/>
<path d="M100.002 63.5615C98.2424 85.5866 102.002 99.6778 102.592 101.51L104.202 100.524C104.202 100.524 99.9524 86.4516 102.302 63.5057C104.652 40.5598 93.0924 27.0359 93.0924 27.0359C92.4024 27.0359 91.6824 27.0359 90.9524 27.1196C93.6124 30.9052 101.572 43.8617 100.002 63.5615Z" fill="#FF9566"/>
<path d="M69.9823 113.471C68.6823 96.7294 75.9823 84.8425 84.7923 81.6429C90.6923 79.5037 99.0923 82.7777 102.502 91.6138C101.345 82.2786 101.278 72.8543 102.302 63.5057C104.642 40.5598 93.0923 27.0359 93.0923 27.0359C72.9223 27.0359 37.0923 51.3491 37.0923 57.7669C37.0923 64.1847 60.5923 86.3121 60.5923 86.3121C60.5923 86.3121 64.7023 101.064 64.0923 112.541C65.9997 113.104 67.9821 113.417 69.9823 113.471Z" fill="#FF9566"/>
<path d="M93.0224 27.7056L79.4524 55.7393L83.5524 72.7139C99.4124 73.1231 106.702 64.7986 106.702 64.7986C106.702 64.7986 106.682 36.1046 93.0224 27.7056Z" fill="#FFB882"/>
<path d="M72.3222 36.951L36.2422 61.0595L59.2422 83.7729C75.1022 83.4474 82.2422 73.737 82.2422 73.737C82.2422 73.737 79.8822 45.2848 72.3222 36.951Z" fill="#FFB882"/>
<path d="M93.6023 123.387C106.421 145.994 120.819 167.796 136.702 188.653L137.702 188.606L104.602 105.007L93.6023 123.387Z" fill="#FFB882"/>
<path d="M114.392 129.767L104.602 105.007L93.6023 123.387C99.6023 134.046 105.772 144.007 111.472 152.787C110.432 142.184 111.442 133.748 114.392 129.767Z" fill="#FF9566"/>
<path d="M81.9322 113.909C79.5776 142.604 74.7284 171.075 67.4322 199.042L66.8122 197.87L64.2622 122.661L81.9322 113.909Z" fill="#FFB882"/>
<path d="M74.9022 165.809C78.1838 148.631 80.5202 131.308 81.9022 113.909L64.2322 122.652L65.9822 174.459C68.7422 170.45 71.8322 167.418 74.9022 165.809Z" fill="#FF9566"/>
<path d="M61.5122 157.522C85.8022 157.801 109.512 131.478 110.512 118.838L105.432 103.956L63.3022 116.866L61.5122 157.522Z" fill="#FFE5B0"/>
<path d="M87.9822 142.045C93.0622 138.213 101.452 130.455 106.712 128.856C108.942 125.135 110.292 121.638 110.522 118.838L105.442 103.956L63.3022 116.866L61.5122 157.522C67.3204 157.48 73.0419 156.208 78.2422 153.801C76.4222 150.89 81.9222 146.621 87.9822 142.045Z" fill="#F4D090"/>
<path d="M58.9223 150.388C74.0523 152.025 104.502 133.032 109.922 114.727C109.922 114.727 106.982 98.3385 103.622 98.1804C102.472 98.1804 83.7423 114.057 63.6223 110.765C58.6823 109.946 58.9223 150.388 58.9223 150.388Z" fill="#ED5693"/>
<path d="M108.092 119.285C108.851 117.818 109.473 116.293 109.952 114.727C109.952 114.727 107.012 98.3385 103.652 98.1804C102.74 98.5969 101.881 99.1087 101.092 99.7057C105.012 99.1198 107.092 111.462 108.092 119.285Z" fill="#E03684"/>
<path d="M66.6622 132.464C66.7044 125.229 67.9803 118.047 70.4422 111.183C68.176 111.265 65.9069 111.124 63.6722 110.765C58.6722 109.946 58.9222 150.388 58.9222 150.388C62.6053 150.624 66.3007 150.142 69.7722 148.974C67.6021 143.708 66.5461 138.103 66.6622 132.464Z" fill="#E03684"/>
<path d="M106.262 103.166C100.742 122.094 82.6523 139.44 82.6523 139.44C82.6523 139.44 100.492 125.684 108.782 112.039C108.153 109.033 107.311 106.069 106.262 103.166Z" fill="#E03684"/>
<path d="M62.9223 135.952L59.3223 143.049C78.0423 140.101 91.7323 120.28 91.7323 120.28C91.7323 120.28 78.3323 136.222 62.9223 135.952Z" fill="#E03684"/>
<path d="M136.492 50.512C144.112 46.3451 160.432 27.5661 160.432 27.5661L153.092 17.6697C153.092 17.6697 132.342 28.645 128.892 33.0631C125.442 37.4811 136.492 50.512 136.492 50.512Z" fill="#FFB882"/>
<path d="M153.092 17.6697C153.092 17.6697 147.642 20.5623 141.862 23.9666L139.762 33.8072C136.385 37.2554 132.802 40.5252 129.032 43.6013C131.472 48.2518 136.532 51.9723 136.532 51.9723C144.162 47.8054 160.432 27.5754 160.432 27.5754L153.092 17.6697Z" fill="#FF9566"/>
<path d="M155.662 27.9009C156.348 27.6293 157.087 27.4892 157.832 27.4892C158.578 27.4892 159.316 27.6293 160.002 27.9009C161.072 28.3846 166.482 27.9009 167.182 27.4173C168.304 26.7844 169.186 25.843 169.708 24.7232C170.229 23.6035 170.363 22.3608 170.092 21.1669C169.432 17.5953 167.202 16.3489 165.092 16.6745C162.982 17 159.162 13.0749 158.342 12.954C156.342 12.582 155.822 15.6885 152.512 18.0789C143.802 24.3944 147.492 30.6262 155.662 27.9009Z" fill="#FFB882"/>
<path d="M153.092 18.5998C153.302 17.3348 158.372 11.4286 159.902 10.7775C161.432 10.1265 164.342 7.43843 165.092 6.82455C165.842 6.21067 167.862 8.47085 167.322 9.14984C166.782 9.82882 162.832 12.6099 162.322 13.5958C161.322 15.5397 163.722 16.3303 164.322 16.8047C163.452 18.0975 152.482 22.1714 153.092 18.5998Z" fill="#FFB882"/>
<path d="M161.002 16.2094C163.432 16.0978 166.642 16.2838 167.342 16.0048C168.872 15.4095 171.862 10.8054 172.642 10.824C173.422 10.8426 175.722 11.5681 175.052 12.6843C174.382 13.8004 170.972 18.5347 169.822 18.9811C167.842 19.5612 165.811 19.9783 163.752 20.2275C163.322 20.1624 160.172 16.2466 161.002 16.2094Z" fill="#FFB882"/>
<path d="M164.682 18.8602C167.242 19.13 171.032 20.0229 171.742 19.5764C172.452 19.13 176.362 15.5025 176.872 15.2793C177.382 15.0561 179.462 17.0744 178.772 17.9394C178.082 18.8044 174.182 22.7481 172.942 23.1202C170.966 23.4701 168.952 23.6043 166.942 23.5201C166.462 23.3899 163.792 18.7672 164.682 18.8602Z" fill="#FFB882"/>
<path d="M165.092 22.7109C167.572 23.641 170.452 24.813 171.232 24.5711C172.012 24.3293 175.782 22.5714 176.332 22.4877C176.882 22.404 178.442 24.7013 177.602 25.3431C176.762 25.9849 171.852 28.1893 170.542 28.2265C169.232 28.2637 166.362 27.7893 164.452 27.9939C163.952 28.0312 164.212 22.3947 165.092 22.7109Z" fill="#FFB882"/>
<path d="M32.0223 119.638C42.6923 118.801 51.4023 111.36 53.0223 103.761C54.6423 96.162 37.4223 87.0841 31.8123 92.2091C26.2023 97.334 23.2123 111.211 22.9523 112.504C22.5223 114.616 30.5123 119.759 32.0223 119.638Z" fill="#FFB882"/>
<path d="M43.4624 92.423C43.4624 92.6462 43.4624 92.8694 43.4624 93.0926C43.1424 103.259 41.4624 105.379 35.4624 107.547C32.1124 108.756 28.3424 107.854 24.6024 106.031C24.0124 108.179 22.4724 111.9 22.3824 112.3C21.9524 114.411 30.1124 120.392 31.6224 120.28C42.2924 119.433 52.3324 110.356 53.9124 102.757C54.8324 98.5338 48.9624 94.8692 43.4624 92.423Z" fill="#FF9566"/>
<path d="M42.9324 45.9916C47.8398 40.85 52.3986 35.4293 56.5824 29.7611L55.5824 18.7765L68.3324 17.9022L76.9724 25.0362L91.6524 26.5988C78.7024 37.9648 59.8424 47.0799 42.9324 45.9916Z" fill="#FFB882"/>
<path d="M93.0923 27.0359H92.4023C88.8623 29.138 70.0923 41.6945 50.2423 44.8476L49.9423 44.9127C44.0123 49.0703 39.5123 53.0698 37.8223 55.8044C37.4071 56.3918 37.1562 57.0664 37.0923 57.7669C37.083 57.9094 37.083 58.0523 37.0923 58.1948C36.4723 60.4921 35.5223 64.3521 34.5923 69.3561C68.5023 82.7777 95.4723 63.3383 105.092 28.4497C100.472 27.7893 96.7223 27.3336 93.0923 27.0359Z" fill="#FF9566"/>
<path d="M34.2522 64.6777C68.7922 78.7317 94.3222 60.5573 103.682 28.645C104.982 24.2177 92.8822 23.1481 91.6822 23.548C90.4822 23.948 70.4322 38.2438 49.0922 41.6387C32.2422 44.3175 31.9522 63.7383 34.2522 64.6777Z" fill="#ED5693"/>
<path d="M34.5823 62.371C33.8523 62.0733 33.3823 59.9062 33.5823 57.0042C32.8023 61.013 33.3023 64.3056 34.2123 64.6777C68.7923 78.7317 94.3223 60.5573 103.682 28.645C103.807 28.2377 103.807 27.806 103.682 27.3987C94.0923 58.6412 68.7323 76.2669 34.5823 62.371Z" fill="#E03684"/>
<path d="M76.3122 64.2777C58.1022 64.2777 43.3122 55.1905 42.6422 43.8152C32.2222 49.6842 32.2922 63.8778 34.2522 64.6777C51.2522 71.5791 66.0022 70.7048 77.7622 64.2498C77.2822 64.2684 76.8022 64.2777 76.3122 64.2777Z" fill="#E03684"/>
<path d="M103.182 30.2821C103.352 29.7333 103.522 29.1938 103.682 28.645C104.982 24.2177 92.8824 23.1481 91.6824 23.548C91.4171 23.6715 91.163 23.8146 90.9224 23.9759C95.4314 25.2722 99.6049 27.4189 103.182 30.2821Z" fill="#E03684"/>
<path d="M143.552 21.2227C143.552 21.2227 139.692 39.2762 139.842 39.3972C139.992 39.5181 142.682 42.1875 142.892 42.2433C143.102 42.2991 149.292 43.0153 149.292 43.0153L152.752 47.145L156.922 48.2798L159.092 45.7126L156.562 12.8703C156.562 12.8703 144.402 18.823 143.552 21.2227Z" fill="#ED5693"/>
<path d="M27.1922 78.3131L26.0122 80.5547C28.3022 81.2523 31.3522 80.8244 33.6522 81.8011C50.3722 88.9443 54.3022 100.003 49.7622 107.695C45.2222 115.388 33.7622 119.647 17.0122 112.504C14.7122 111.574 12.0122 108.867 10.0122 107.723L9.01221 109.453C12.5134 111.874 16.2812 113.941 20.2522 115.62C38.5022 123.414 51.9422 119.954 57.2522 110.895C62.5622 101.836 57.1922 90.2186 38.9422 82.4615C34.7522 80.6756 31.3022 79.1781 27.1922 78.3131Z" fill="#F99426"/>
<path d="M0.772353 109.667C-0.737647 112.216 0.842353 115.49 4.29235 116.959C4.73319 117.15 5.19175 117.302 5.66235 117.415C5.19196 116.849 4.90688 116.169 4.84126 115.457C4.77563 114.744 4.93225 114.029 5.29235 113.397C6.51235 111.332 9.76235 110.607 12.5624 111.816C13.0094 112.007 13.432 112.244 13.8224 112.523C13.6523 111.46 13.1875 110.457 12.4738 109.612C11.7602 108.767 10.8222 108.11 9.75235 107.705C6.29235 106.235 2.27235 107.109 0.772353 109.667Z" fill="#F99426"/>
<path d="M4.95231 117.192C5.54799 117.494 6.24225 117.581 6.90257 117.437C7.56289 117.292 8.14305 116.927 8.5323 116.411C8.66392 116.131 8.73074 115.83 8.72839 115.525C8.72604 115.22 8.65458 114.919 8.51868 114.642C8.38278 114.364 8.18549 114.117 7.93971 113.915C7.69392 113.713 7.40517 113.562 7.09231 113.471C6.49662 113.17 5.80237 113.083 5.14204 113.227C4.48172 113.371 3.90156 113.736 3.51231 114.253C3.38069 114.532 3.31387 114.834 3.31622 115.139C3.31857 115.443 3.39003 115.744 3.52593 116.022C3.66183 116.299 3.85912 116.547 4.1049 116.748C4.35069 116.95 4.63944 117.101 4.95231 117.192Z" fill="#F99426"/>
<path d="M22.2824 73.151C23.7924 70.5932 27.8124 69.7189 31.2824 71.1885C31.7177 71.3767 32.1357 71.5975 32.5324 71.8488C31.7264 71.8702 30.9387 72.0778 30.2404 72.4529C29.5421 72.828 28.9552 73.3587 28.5324 73.9974C27.3224 76.0716 28.5924 78.7131 31.3924 79.9036C31.848 80.1033 32.3283 80.2501 32.8224 80.3408C31.7451 80.8647 30.551 81.1468 29.3355 81.1646C28.12 81.1823 26.9169 80.9352 25.8224 80.4431C22.3624 78.9735 20.7824 75.7088 22.2824 73.151Z" fill="#F99426"/>
<path d="M31.8724 71.5047C32.1767 71.6003 32.4566 71.7531 32.6946 71.9537C32.9326 72.1542 33.1238 72.3982 33.256 72.6704C33.3883 72.9426 33.4589 73.2373 33.4634 73.536C33.468 73.8347 33.4063 74.1311 33.2824 74.4067C32.8917 74.9216 32.3116 75.2856 31.6519 75.4295C30.9922 75.5735 30.2986 75.4876 29.7024 75.1879C29.396 75.0937 29.1139 74.9412 28.8742 74.7403C28.6344 74.5393 28.4422 74.2942 28.3096 74.0205C28.177 73.7468 28.1071 73.4505 28.1041 73.1503C28.1011 72.8501 28.1653 72.5526 28.2924 72.2767C28.6846 71.7633 29.2653 71.4012 29.9249 71.259C30.5846 71.1167 31.2774 71.2042 31.8724 71.5047Z" fill="#F99426"/>
<path d="M45.8724 111.388L17.9324 97.9944L18.2824 97.334L46.2324 110.728L45.8724 111.388Z" fill="#825160"/>
<path d="M49.2622 108.607L18.0022 93.5391L18.3622 92.8787L49.6222 107.947L49.2622 108.607Z" fill="#825160"/>
<path d="M50.9823 105.193L22.3623 91.3627L22.7223 90.7023L51.3423 104.533L50.9823 105.193Z" fill="#825160"/>
<path d="M39.4523 81.8476C36.8875 80.7576 34.2485 79.8255 31.5523 79.0572L31.2523 78.9456C28.5323 77.783 27.2523 75.2252 28.3123 73.2161C28.6249 73.664 29.0692 74.0191 29.5923 74.2392C30.188 74.5409 30.8822 74.628 31.5426 74.4839C32.2029 74.3398 32.783 73.9746 33.1723 73.4579C33.3956 73.0139 33.4376 72.5095 33.2904 72.0388C33.1432 71.5682 32.8168 71.1634 32.3723 70.9001C31.9756 70.6488 31.5575 70.4279 31.1223 70.2397C27.6723 68.7702 23.6523 69.6445 22.1223 72.2023C20.5923 74.7601 22.1923 78.0248 25.6423 79.4944C25.7138 79.5263 25.7872 79.5543 25.8623 79.5781L26.1423 79.6525C27.3817 80.1026 28.7202 80.2654 30.0423 80.1269C31.2263 80.177 32.3928 80.4128 33.4923 80.8244C50.2223 87.9677 54.1423 99.0268 49.6123 106.719C45.0823 114.411 32.3123 118.355 15.6123 111.211C14.5098 110.673 13.5206 109.955 12.6923 109.091C12.1687 108.35 11.4881 107.717 10.6923 107.23C10.4464 107.043 10.1894 106.869 9.92229 106.71L9.87229 106.793L9.66229 106.691C6.21229 105.212 2.19229 106.096 0.662293 108.653C-0.867707 111.211 0.732293 114.476 4.19229 115.946C4.6291 116.137 5.08447 116.29 5.55229 116.401C6.08417 116.543 6.65074 116.524 7.1702 116.347C7.68965 116.17 8.13513 115.843 8.44229 115.415C8.56418 115.141 8.62388 114.846 8.61767 114.549C8.61145 114.253 8.53945 113.96 8.40617 113.69C8.27288 113.421 8.08119 113.179 7.84307 112.982C7.60495 112.784 7.32553 112.634 7.02229 112.541C6.48828 112.312 5.89714 112.222 5.31229 112.281C6.60229 110.346 9.73229 109.695 12.4523 110.858C12.8993 111.049 13.322 111.286 13.7123 111.565C13.7123 111.565 13.7123 111.518 13.7123 111.49C15.7728 112.645 17.903 113.688 20.0923 114.615C38.3523 122.41 51.7823 118.95 57.0923 109.891C62.4023 100.831 57.7123 89.6047 39.4523 81.8476Z" fill="#FFCE31"/>
<path d="M145.482 199.721L141.732 200C140.59 198.714 139.585 197.328 138.732 195.861C137.872 194.14 134.572 195.098 134.652 192.485C134.732 190.038 135.482 189.694 134.902 186.086L136.092 185.323C136.092 185.323 140.672 193.433 142.742 197.944C142.742 197.944 145.782 198.112 145.482 199.721Z" fill="#FFB882"/>
<path d="M54.1924 199.721H67.5324C67.5324 199.721 69.2624 196.307 67.2024 195.833C65.1424 195.359 54.1924 199.721 54.1924 199.721Z" fill="#FFB882"/>
<path d="M64.8222 80.4338C64.5222 79.699 63.2022 79.2897 61.8222 79.5037C60.4422 79.7176 59.6522 80.5454 59.9522 81.2895C60.2522 82.0336 61.5622 82.4335 62.9522 82.2196C64.3422 82.0057 65.0922 81.1779 64.8222 80.4338Z" fill="#E87446"/>
<path d="M103.082 65.8939C104.29 65.3038 104.954 64.2687 104.566 63.582C104.178 62.8954 102.885 62.8172 101.677 63.4074C100.47 63.9976 99.8054 65.0326 100.193 65.7193C100.581 66.4059 101.875 66.4841 103.082 65.8939Z" fill="#E87446"/>
<path d="M84.7922 103.705C84.6422 103.296 85.3822 102.691 86.4722 102.366C87.5622 102.04 88.5523 102.115 88.7123 102.524C88.8723 102.933 88.0922 103.538 87.0922 103.863C86.0922 104.189 84.9522 104.115 84.7922 103.705Z" fill="#FF9566"/>
<path d="M84.5324 85.9308C85.0624 94.9157 76.7124 93.6972 76.7124 93.6972C76.7124 93.6972 83.3524 94.6274 84.9524 91.4836C86.1724 89.0653 84.5324 85.9308 84.5324 85.9308Z" fill="#FF9566"/>
<path d="M84.4923 85.7076C86.9823 94.4878 93.5923 89.428 93.5923 89.428C93.5923 89.428 88.3223 93.4368 85.9523 91.1766C84.1423 89.4466 84.4923 85.7076 84.4923 85.7076Z" fill="#FF9566"/>
<path d="M85.2823 90.3953C85.6923 100.822 77.3623 99.4081 77.3623 99.4081C77.3623 99.4081 83.9923 100.506 85.6323 96.8317C86.8823 94.0228 85.2823 90.3953 85.2823 90.3953Z" fill="#FF9566"/>
<path d="M85.2523 90.1256C87.6223 100.357 94.2523 94.4413 94.2523 94.4413C94.2523 94.4413 88.9323 99.0919 86.5823 96.469C84.8423 94.4692 85.2523 90.1256 85.2523 90.1256Z" fill="#FF9566"/>
<path d="M56.9524 110.207C55.8955 107.701 54.5154 105.325 52.8424 103.129C52.3757 102.509 51.8857 101.888 51.3724 101.268C51.2274 103.163 50.6441 105.007 49.6624 106.672C47.2324 110.802 42.4324 113.844 35.9224 114.681C37.2424 116.187 38.5424 117.601 39.8224 118.903C47.8224 118.662 53.7424 115.388 56.9524 110.207Z" fill="#FFE771"/>
<path d="M30.9923 79.42C31.4983 79.4175 32.0033 79.377 32.5023 79.2991L31.5523 79.0572L31.2523 78.9456C28.5323 77.783 27.2523 75.2252 28.3123 73.2161C28.6249 73.6641 29.0692 74.0192 29.5923 74.2392C30.188 74.5409 30.8822 74.628 31.5426 74.4839C32.2029 74.3398 32.783 73.9746 33.1723 73.458C33.3956 73.014 33.4376 72.5095 33.2904 72.0389C33.1432 71.5682 32.8168 71.1634 32.3723 70.9001C31.9756 70.6488 31.5575 70.4279 31.1223 70.2398C28.0423 68.9283 24.5023 69.4957 22.7123 71.4582C22.6451 71.8052 22.6083 72.1567 22.6023 72.5092C22.6323 76.2669 26.3723 79.42 30.9923 79.42Z" fill="#FFE771"/>
<path d="M42.1824 58.7528L50.2824 62.371C87.2224 63.8778 96.1924 33.8351 96.1924 33.8351C89.6024 47.7961 72.2124 61.7664 42.1824 58.7528Z" fill="#E03684"/>
<path d="M91.8323 24.0503C91.4436 24.2521 91.0664 24.4725 90.7023 24.7107C84.7023 31.1005 71.7023 42.1689 51.5823 45.1732C71.0923 44.1966 84.7123 34.8489 97.7123 24.5525C95.7954 24.0852 93.8086 23.9155 91.8323 24.0503Z" fill="#E03684"/>
<path d="M13.9624 111.035L33.4324 80.2571L35.9124 81.057L16.4724 112.402L13.9624 111.035Z" fill="#FFCE31"/>
<path d="M18.4124 94.2646C19.0972 94.2646 19.6524 93.7483 19.6524 93.1113C19.6524 92.4743 19.0972 91.9579 18.4124 91.9579C17.7275 91.9579 17.1724 92.4743 17.1724 93.1113C17.1724 93.7483 17.7275 94.2646 18.4124 94.2646Z" fill="#825160"/>
<path d="M17.2224 97.7898C17.2224 98.0201 17.296 98.2452 17.4338 98.4366C17.5716 98.628 17.7674 98.777 17.9964 98.8648C18.2254 98.9525 18.4772 98.9749 18.72 98.9293C18.9627 98.8837 19.1854 98.7721 19.3598 98.6085C19.5342 98.445 19.6525 98.237 19.6996 98.0108C19.7467 97.7847 19.7205 97.5506 19.6244 97.3384C19.5282 97.1261 19.3665 96.9451 19.1596 96.8185C18.9527 96.6919 18.7101 96.6253 18.4624 96.6271C18.1326 96.6296 17.8172 96.7531 17.585 96.9709C17.3527 97.1887 17.2224 97.483 17.2224 97.7898Z" fill="#825160"/>
<path d="M21.6524 91.2045C21.6504 91.4353 21.7223 91.6613 21.8589 91.8539C21.9955 92.0465 22.1906 92.197 22.4194 92.2861C22.6482 92.3753 22.9004 92.3991 23.1438 92.3545C23.3872 92.31 23.6108 92.1991 23.7862 92.0359C23.9616 91.8727 24.0809 91.6647 24.1288 91.4383C24.1767 91.2119 24.1511 90.9774 24.0553 90.7646C23.9594 90.5518 23.7977 90.3703 23.5906 90.2432C23.3835 90.1162 23.1405 90.0493 22.8924 90.0512C22.5635 90.0512 22.2481 90.1727 22.0156 90.389C21.783 90.6053 21.6524 90.8986 21.6524 91.2045Z" fill="#825160"/>
<path d="M14.0923 110.281C13.6017 109.899 13.1343 109.493 12.6923 109.063C12.1686 108.323 11.4881 107.69 10.6923 107.202C10.4464 107.015 10.1893 106.842 9.92227 106.682L9.87227 106.765L9.66227 106.663C6.21227 105.184 2.19227 106.068 0.662266 108.626C0.52615 108.864 0.412395 109.113 0.322266 109.37C0.777208 110.781 1.7126 112.016 2.98766 112.89C4.26272 113.764 5.80846 114.229 7.39227 114.216C7.79092 114.213 8.18877 114.182 8.58227 114.123C8.46273 113.769 8.26103 113.444 7.99145 113.17C7.72187 112.897 7.391 112.682 7.02227 112.541C6.48826 112.312 5.89712 112.222 5.31227 112.281C6.60227 110.346 9.73227 109.695 12.4523 110.858C12.8001 111.013 13.1344 111.194 13.4523 111.397C13.7088 111.048 13.9234 110.674 14.0923 110.281Z" fill="#FFE771"/>
<path d="M21.7422 103.91L28.7422 92.6276L27.8022 89.149L20.7622 100.273L21.7422 103.91Z" fill="#FFE771"/>
<path d="M54.2822 53.6279C80.0922 52.8187 85.5022 38.8577 85.5022 38.8577C77.0956 46.1746 66.6889 51.098 54.2822 53.6279Z" fill="#E03684"/>
<g style="mix-blend-mode:multiply" opacity="0.6">
<path d="M76.3124 24.4502L68.3124 17.8557L55.5624 18.73L56.5624 29.7147C56.5624 29.7147 52.5624 35.1558 47.7224 40.7737C56.4424 39.5553 66.4824 34.7373 76.3124 24.4502Z" fill="#C94343"/>
</g>
<path d="M52.5322 15.5769C56.4322 23.1667 60.1322 25.2687 60.1322 25.2687C60.1322 25.2687 69.7622 25.2687 73.1322 22.2365L74.4022 20.3763C74.4022 20.3763 67.2222 6.05255 58.1522 7.91278C49.0822 9.77301 52.5322 15.5769 52.5322 15.5769Z" fill="#FFB882"/>
<path d="M56.0223 19.7717C56.1166 19.9529 56.2499 20.1141 56.4139 20.2453C56.5779 20.3766 56.7691 20.4751 56.9758 20.5348C57.1824 20.5945 57.4 20.6141 57.6151 20.5924C57.8302 20.5707 58.0382 20.5081 58.2262 20.4085C58.4142 20.3089 58.5783 20.1745 58.7081 20.0136C58.838 19.8526 58.931 19.6686 58.9812 19.4728C59.0315 19.2771 59.038 19.0738 59.0004 18.8757C58.9627 18.6775 58.8817 18.4886 58.7623 18.3208C57.7023 17.1395 54.3023 17.0465 54.3023 17.0465C54.3023 17.0465 49.8223 14.4794 53.0923 9.73581C53.0923 9.73581 47.3723 14.991 53.2423 19.7345L56.0223 19.7717Z" fill="#B24119"/>
<path d="M57.8423 20.8693C53.9323 22.4412 51.7423 22.3575 50.6123 20.6647C49.4823 18.9718 51.9923 16.8233 53.7823 17.3441C55.5723 17.865 57.8423 20.8693 57.8423 20.8693Z" fill="#FFB882"/>
<path d="M56.4424 20.46C54.0224 21.4367 52.6724 21.3901 51.9724 20.3391C51.2724 19.2881 52.8224 17.958 53.9724 18.2743C55.1224 18.5905 56.4424 20.46 56.4424 20.46Z" fill="#EA7B59"/>
<path d="M56.4322 20.6182C54.9922 21.0739 54.1622 21.0181 53.7122 20.4507C53.2622 19.8834 54.1722 19.2137 54.8522 19.409C55.4662 19.7018 56.0051 20.1142 56.4322 20.6182Z" fill="#FFB882"/>
<path d="M63.0322 125.563C68.7013 118.674 76.9526 114.025 86.1422 112.541L66.1422 114.55L63.0322 125.563Z" fill="#E03684"/>
<path d="M147.182 50.2237C147.182 50.8933 146.462 69.5142 146.462 69.5142L136.382 88.1165L143.432 68.0167L141.852 53.5535L147.182 50.2237Z" fill="#BC1E74"/>
<path d="M116.502 84.9728C116.502 84.9728 131.412 81.2523 132.702 79.6525C133.992 78.0527 139.262 68.2958 139.262 68.2958C139.262 68.2958 132.492 76.8715 131.342 78.2109C130.192 79.5502 111.892 81.8476 111.892 81.8476L116.502 84.9728Z" fill="#BC1E74"/>
<path d="M156.532 12.8703L156.272 13.0005L157.912 38.1136L155.972 41.2574L152.242 41.3318L149.162 38.2717C149.162 38.2717 143.612 39.3321 143.422 39.3414C142.481 38.7461 141.574 38.1066 140.702 37.4253C140.602 37.3695 142.702 26.143 143.702 21.0088C143.658 21.0905 143.618 21.1744 143.582 21.2599C143.582 21.2599 139.722 39.3135 139.872 39.4344C140.022 39.5553 142.712 42.2247 142.922 42.2805C143.132 42.3363 149.322 43.0525 149.322 43.0525L152.782 47.1822L156.952 48.317L159.092 45.7126L156.532 12.8703Z" fill="#D83688"/>
<path d="M153.882 44.0849C153.552 43.6757 149.882 36.4487 149.882 36.4487L149.452 20.2647L146.862 35.8441L145.342 40.4947L153.882 44.0849Z" fill="#D83688"/>
<path d="M58.8623 16.2652C59.8023 14.1725 63.0723 12.3773 63.0723 12.3773C63.0723 12.3773 61.2123 10.4706 59.8923 10.7682C58.5723 11.0659 56.9923 13.5586 57.0823 14.5538C57.1723 15.549 58.8623 16.2652 58.8623 16.2652Z" fill="#CC5A29"/>
<path d="M66.8023 11.3263C65.576 11.4412 64.3811 11.7561 63.2723 12.2564C63.2723 12.2564 61.3523 11.2054 61.7823 10.2939C62.2123 9.38235 64.9423 9.36375 65.7223 9.773C66.2397 10.1798 66.6156 10.7205 66.8023 11.3263Z" fill="#CC5A29"/>
<path d="M67.9222 15.0375C66.2897 13.912 64.5756 12.8927 62.7922 11.9867L66.9222 15.0096L65.3322 16.8698L67.9222 15.0375Z" fill="#EA7B59"/>
<path d="M62.0924 14.2283C61.3224 15.27 60.2024 15.1584 60.9824 14.498C61.7624 13.8376 62.9324 13.1493 62.0924 14.2283Z" fill="#5B352D"/>
<path d="M66.0924 12.3215C65.3624 12.8703 64.6424 12.6192 65.3024 12.3215C65.9624 12.0239 66.8624 11.7542 66.0924 12.3215Z" fill="#5B352D"/>
<path d="M66.6823 16.8791C65.4323 18.0324 66.0623 19.7811 66.6823 18.6742C67.3023 17.5674 67.1723 16.414 66.6823 16.8791Z" fill="#5B352D"/>
<path d="M21.7524 108.3C22.4724 105.593 28.6824 108.188 29.7524 109.23C29.9676 109.486 30.1072 109.789 30.1573 110.111C30.2073 110.432 30.1661 110.76 30.0377 111.062C29.9093 111.364 29.6981 111.629 29.4253 111.831C29.1524 112.034 28.8274 112.166 28.4824 112.216C26.5624 112.727 21.1724 110.486 21.7524 108.3Z" fill="#FFB882"/>
<path d="M22.0924 119.052C19.2724 118.122 21.8124 111.741 23.3324 111.611C24.8524 111.481 26.6424 111.49 26.9924 113.285C27.3424 115.081 24.3924 119.843 22.0924 119.052Z" fill="#FFB882"/>
<path d="M26.5922 120.996C23.7822 120.066 27.1422 114.011 28.6622 113.881C30.1822 113.751 31.1422 113.425 31.4922 115.229C31.8422 117.034 28.8722 121.768 26.5922 120.996Z" fill="#FFB882"/>
<path d="M31.7624 121.889C28.9524 120.959 32.3124 114.904 33.8324 114.774C35.3524 114.643 36.3124 114.327 36.6624 116.122C37.0124 117.917 34.0924 122.661 31.7624 121.889Z" fill="#FFB882"/>
</svg>
