<svg width="146" height="200" viewBox="0 0 146 200" fill="none" xmlns="http://www.w3.org/2000/svg">
<path d="M117.371 133.244C118.177 135.413 118.983 137.525 118.983 137.525L128.988 137.243L126.763 131.801L117.371 133.244Z" fill="#FFB882"/>
<path d="M118.484 133.131C124.933 137.582 127.207 137.912 129.819 137.912C132.431 137.912 135.14 140.025 136.382 141.943C137.188 143.12 139.389 141.194 139.292 139.839C139.292 139.218 136.067 136.816 134.084 133.841C132.875 132.027 128.747 131.003 127.417 128.544C126.949 127.665 118.484 133.131 118.484 133.131Z" fill="#FFB882"/>
<path d="M65.7245 25.8882C63.3623 13.2548 66.1518 3.91073 68.4495 1.25021C70.7472 -1.41031 72.7708 -0.813713 71.1584 13.0129C69.5459 26.8396 65.7245 25.8882 65.7245 25.8882Z" fill="#992525"/>
<path d="M64.9183 29.5081C59.5731 17.3423 61.2661 7.69187 63.6203 4.72499C65.9744 1.75811 68.6027 2.04028 69.2638 16.012C69.9249 29.9838 64.9183 29.5081 64.9183 29.5081Z" fill="#B73434"/>
<path d="M62.0967 96.9241C56.4532 104.43 51.366 120.861 51.366 120.861L56.5983 121.183L62.0967 96.9241Z" fill="#841E1E"/>
<path d="M66.1036 45.7373C62.653 55.1136 56.1065 48.3172 55.8485 40.4002C55.1794 20.0593 60.8874 9.61069 63.7091 10.3524C66.5309 11.0941 69.1027 37.5703 66.1036 45.7373Z" fill="#CC4040"/>
<path d="M7.3557 117.544L3.27417 118.836L8.15355 134.255L12.2351 132.963L7.3557 117.544Z" fill="#843C43"/>
<path d="M12.9739 132.607L7.99951 134.179L23.5273 189.913L30.1705 195.605L32.3312 187.132L12.9739 132.607Z" fill="#B6F2F2"/>
<path d="M13.1029 132.744L7.99951 134.179L23.5273 189.913L30.1705 195.605L12.4256 140.242L14.2316 136.251L13.1029 132.744Z" fill="#91E2E8"/>
<path d="M9.58766 131.704L3.7587 133.551C3.43529 133.646 3.14629 133.833 2.92619 134.089C2.7061 134.345 2.5642 134.658 2.51745 134.992C2.4707 135.326 2.52107 135.667 2.66254 135.973C2.80401 136.279 3.03061 136.538 3.31528 136.719C3.74997 136.974 4.23653 137.129 4.73893 137.171C5.24133 137.212 5.74671 137.141 6.21767 136.961L15.0054 134.179C15.8996 133.895 16.6666 133.308 17.1742 132.519C17.3532 132.211 17.4349 131.856 17.4086 131.501C17.3823 131.146 17.2493 130.807 17.0269 130.529C16.8046 130.251 16.5033 130.046 16.1627 129.942C15.8221 129.838 15.458 129.84 15.1183 129.947L9.58766 131.704Z" fill="#FF9B40"/>
<path d="M14.9733 132.365L4.99236 135.526C4.56223 135.662 4.11915 135.754 3.67017 135.8C3.786 135.979 3.9402 136.131 4.12165 136.243C4.50811 136.47 4.94045 136.607 5.3869 136.645C5.83335 136.683 6.28257 136.62 6.70155 136.461L14.4977 133.994C15.2925 133.742 15.9741 133.22 16.4245 132.519C16.6097 132.229 16.6868 131.884 16.6422 131.543C16.1374 131.911 15.5728 132.189 14.9733 132.365Z" fill="#FFD15F"/>
<path d="M14.4976 131.688C14.4976 131.904 14.5616 132.115 14.6816 132.294C14.8015 132.473 14.972 132.612 15.1713 132.695C15.3707 132.777 15.5899 132.798 15.8013 132.755C16.0126 132.712 16.2065 132.608 16.3584 132.455C16.5103 132.302 16.6133 132.107 16.6544 131.896C16.6955 131.684 16.6728 131.465 16.5892 131.266C16.5055 131.067 16.3648 130.898 16.1848 130.779C16.0047 130.661 15.7935 130.598 15.5779 130.6C15.2906 130.602 15.0159 130.718 14.8135 130.921C14.6111 131.125 14.4976 131.401 14.4976 131.688Z" fill="#843C43"/>
<path d="M3.45218 135.187C3.45058 135.403 3.51326 135.615 3.63224 135.795C3.75122 135.975 3.92112 136.116 4.12032 136.199C4.31953 136.283 4.53903 136.305 4.75091 136.263C4.96278 136.221 5.15746 136.118 5.31015 135.965C5.46285 135.812 5.56668 135.618 5.60841 135.406C5.65015 135.194 5.62792 134.974 5.54454 134.775C5.46117 134.576 5.32042 134.406 5.1402 134.287C4.95999 134.168 4.74845 134.105 4.53251 134.107C4.24599 134.107 3.9712 134.221 3.7686 134.423C3.566 134.626 3.45218 134.901 3.45218 135.187Z" fill="#843C43"/>
<path d="M9.24923 123.554L7.34655 117.547L3.26709 118.837L6.24203 128.23C6.7177 125.698 7.87059 123.836 9.24923 123.554Z" fill="#5E272F"/>
<path d="M6.82853 121.985C8.57109 121.258 9.39482 119.257 8.6684 117.514C7.94197 115.772 5.94046 114.948 4.19791 115.674C2.45535 116.401 1.63161 118.402 2.35804 120.145C3.08446 121.887 5.08597 122.711 6.82853 121.985Z" fill="#FFD15F"/>
<path d="M4.16185 119.256C4.24702 119.524 4.40964 119.76 4.62913 119.935C4.84861 120.11 5.1151 120.216 5.39486 120.24C5.67463 120.263 5.95509 120.203 6.20076 120.067C6.44643 119.932 6.64626 119.726 6.77497 119.476C6.90368 119.227 6.95547 118.945 6.9238 118.666C6.89213 118.387 6.77842 118.124 6.59706 117.909C6.41569 117.695 6.17483 117.539 5.90495 117.462C5.63506 117.384 5.3483 117.389 5.08093 117.475C4.72299 117.589 4.42518 117.841 4.25286 118.175C4.08055 118.509 4.04782 118.898 4.16185 119.256Z" fill="#843C43"/>
<path d="M4.1215 132.704C6.37891 133.833 12.9899 132.623 21.6971 123.344C21.6971 123.344 16.0535 114.854 14.82 115.653C11.1598 118.023 4.04894 115.773 1.0095 121.022C0.251655 122.288 4.1215 132.704 4.1215 132.704Z" fill="#FFB882"/>
<path d="M17.2708 127.464L15.094 129.229C15.094 129.229 11.595 122.61 11.1516 116.813L13.9411 115.798L17.2708 127.464Z" fill="#FF9566"/>
<path d="M137.793 170.389C142.203 154.035 138.079 138.702 128.582 136.142C119.086 133.581 107.812 144.762 103.403 161.116C98.9933 177.47 103.117 192.803 112.614 195.364C122.111 197.924 133.384 186.743 137.793 170.389Z" fill="#774A55"/>
<path d="M135.519 170.101C139.546 155.166 135.781 141.164 127.11 138.826C118.439 136.488 108.145 146.699 104.118 161.634C100.091 176.569 103.856 190.572 112.527 192.91C121.198 195.248 131.492 185.036 135.519 170.101Z" fill="#603642"/>
<path d="M124.587 138.485C113.88 138.485 105.81 150.739 103.173 165.856C102.924 167.283 102.738 168.678 102.601 170.048C106.205 158.285 113.348 149.602 122.361 149.602C132.036 149.602 136.067 159.656 134.809 172.781C135.493 170.509 136.032 168.196 136.422 165.856C139.091 150.755 135.301 138.485 124.587 138.485Z" fill="#4C2934"/>
<path d="M126.868 152.876C129.529 159.003 123.845 169.508 119.225 175.829L118.822 175.337C126.771 161.518 124.522 152.674 124.522 152.674L126.868 152.876Z" fill="#4C2934"/>
<path d="M120.459 152.311C123.119 158.447 117.435 169.04 112.816 175.361L112.405 174.91C120.354 161.091 118.113 152.118 118.113 152.118L120.459 152.311Z" fill="#4C2934"/>
<path d="M118.097 152.086C112.09 157.423 111.316 168.371 112.09 175.151L112.896 175.369C113.227 160.922 120.467 152.311 120.467 152.311L118.097 152.086Z" fill="#995E52"/>
<path d="M124.482 152.585C118.484 157.923 117.702 168.871 118.484 175.651L119.241 175.877C119.58 161.422 126.82 152.811 126.82 152.811L124.482 152.585Z" fill="#995E52"/>
<path d="M49.2696 55.7747L47.3669 96.2549C39.4338 101.713 32.2665 118.829 17.295 126.44L12.5544 116.846C28.3079 92.9252 22.1484 68.005 49.2696 55.7747Z" fill="#FFB882"/>
<path d="M15.8923 124.835L17.2952 126.448C32.2666 118.877 40.5787 103.527 48.5119 98.0689L46.0449 73.9469C38.7244 84.6454 32.1376 111.847 15.8923 124.835Z" fill="#FF9566"/>
<path d="M14.2153 114.185C14.8039 118.265 18.8269 125.351 18.8269 125.351L27.6147 117.241L16.0051 110.872L14.2153 114.185Z" fill="#FF9566"/>
<path d="M127.408 132.365C120.152 103.809 111.284 56.9437 92.7408 53.4044L91.1929 99.0203C99.9806 106.583 112.832 124.134 118.395 134.349L127.408 132.365Z" fill="#FFB882"/>
<path d="M121.233 133.728C120.717 131.204 120.12 128.633 119.443 126.045C112.937 101.052 96.361 83.0007 92.0316 74.5032L91.2253 99.0203C100.013 106.583 112.864 124.134 118.427 134.349L121.233 133.728Z" fill="#FF9566"/>
<path d="M107.116 102.011C104.786 88.0073 104.947 62.9098 104.947 62.9098L103.028 62.3293L98.7795 92.756L107.116 102.011Z" fill="#FF9566"/>
<path d="M105.85 65.9492C106.269 64.627 105.133 62.6518 103.303 61.5473C101.472 60.4428 99.6585 60.6282 99.2715 61.9584C98.8845 63.2887 99.9971 65.2559 101.819 66.3604C103.641 67.4649 105.431 67.2795 105.85 65.9492Z" fill="#FF9566"/>
<path d="M79.6882 139.371C89.0739 158.678 99.453 177.485 110.784 195.718L111.534 195.67L88.8469 125.972L79.6882 139.371Z" fill="#FFB882"/>
<path d="M99.7389 166.702C100.463 166.487 101.201 166.322 101.948 166.21L88.8469 125.972L79.6882 139.371C84.8964 150.175 90.2981 160.373 95.1112 169.04C96.5091 168.003 98.0742 167.212 99.7389 166.702Z" fill="#FF9566"/>
<path d="M66.2728 131.575C54.1795 163.155 39.5628 195.267 39.5628 195.267L38.8291 195.218L54.7922 122.417L66.2728 131.575Z" fill="#FFB882"/>
<path d="M53.9297 162.236C57.8963 152.771 62.2257 142.145 66.2729 131.6L54.7923 122.417L46.4802 160.309C49.0143 160.735 51.5067 161.38 53.9297 162.236Z" fill="#FF9566"/>
<path d="M45.1743 91.0064C49.2054 103.68 54.0427 116.346 53.6799 123.682L85.0257 117.015L95.6919 85.1694L70.022 79.8081L45.1743 91.0064Z" fill="#FFB882"/>
<path d="M55.7197 123.247C55.7197 122.675 55.6632 122.102 55.6632 121.522C55.6632 109.824 62.9192 100.068 71.5054 100.068C78.2857 100.068 83.7196 106.3 85.8238 114.58L95.6758 85.1614L70.5218 73.834L45.1743 91.0065C49.2054 103.68 54.0427 116.346 53.6799 123.683L55.7197 123.247Z" fill="#FF9566"/>
<path d="M79.0999 101.012C79.0999 101.012 69.0624 114.016 54.5908 118.434L55.397 119.934C65.0717 119.853 83.3244 104.761 83.3244 104.761L79.0999 101.012Z" fill="#FF9566"/>
<path d="M93.4181 53.7108C77.9146 46.1162 62.4432 47.7529 47.8426 56.6616C41.0059 64.6593 39.7805 81.8801 44.4646 97.8835C44.4646 97.8835 60.9759 99.1654 70.8118 92.8285C70.8118 92.8285 70.8118 83.1539 71.352 77.0025C71.8921 83.0813 74.9235 93.0623 74.9235 93.0623C84.8077 98.5688 98.3038 96.9241 98.3038 96.9241C102.972 80.5256 100.287 61.1361 93.4181 53.7108Z" fill="#FFB882"/>
<path d="M45.0613 97.6174C40.4014 81.6462 42.3605 76.5026 42.4008 69.3272C40.7884 77.7683 41.2802 88.2572 44.1745 98.1657C44.1745 98.1657 61.105 99.4556 70.9732 93.1268C70.9732 93.1268 70.8119 92.8124 70.8119 92.8043C60.8874 98.5526 45.0613 97.6174 45.0613 97.6174Z" fill="#FF9566"/>
<path d="M97.8604 96.5613C97.8604 96.5613 83.0179 97.3675 73.1256 92.2158C73.1303 92.4382 73.0624 92.6562 72.9321 92.8366C82.8164 98.343 98.5296 97.3433 98.5296 97.3433C101.144 87.7948 101.522 77.7718 99.6341 68.0534C98.4006 61.9181 102.399 80.7111 97.8604 96.5613Z" fill="#FF9566"/>
<path d="M101.754 60.1606C101.754 60.1606 87.8875 92.1997 75.4395 98.4237L86.9684 101.286C97.4492 91.9497 104.197 63.3935 104.197 63.3935L101.754 60.1606Z" fill="#FF9566"/>
<path d="M49.6727 140.274L48.7617 147.031C48.7617 147.031 77.4389 161.115 100.11 159.535L98.6989 153.779L49.6727 140.274Z" fill="#FFD15F"/>
<path d="M50.0759 144.693C64.0396 151.255 80.172 154.875 97.3283 157.116L97.9249 159.64C98.6586 159.64 99.3842 159.583 100.102 159.535L98.6908 153.779L49.6727 140.274L48.7617 147.031L49.7211 147.482L50.0759 144.693Z" fill="#FFB24D"/>
<path d="M70.3928 145.982C71.2249 149.459 72.3025 152.873 73.6177 156.197C78.1375 157.444 82.735 158.389 87.3798 159.027C85.4246 155.458 83.1955 152.045 80.7124 148.82L70.3928 145.982Z" fill="#FFB24D"/>
<path d="M48.8423 142.419C48.8423 142.419 80.0429 154.698 99.368 155.367L90.3867 123.465L88.8307 121.796L88.4921 120.57C97.7959 115.467 105.423 81.7269 103.81 60.1525L102.811 59.4914C102.811 59.4914 91.1365 107.453 52.0188 120.57C52.0107 120.57 49.7614 128.02 48.8423 142.419Z" fill="#CC4040"/>
<path d="M103.786 60.1525L102.787 59.4914C101.831 63.2576 100.633 66.9578 99.199 70.5688C101.916 69.4401 102.754 73.9066 103.141 80.2434C103.982 73.5812 104.198 66.8549 103.786 60.1525Z" fill="#B52D2D"/>
<path d="M52.0671 121.651C77.2453 122.602 91.0317 104.591 97.6104 89.1118C97.6104 89.1118 94.6113 110.638 78.116 120.369C68.6188 125.988 52.0671 121.651 52.0671 121.651Z" fill="#B52D2D"/>
<path d="M88.8146 121.796L88.476 120.57C91.0397 119.168 94.3372 115.258 95.9174 110.025C82.389 117.579 61.25 122.667 52.0107 120.57C51.269 120.627 51.3819 120.893 51.3093 121.07C51.2368 121.248 51.8575 121.288 51.8253 121.361C51.6721 121.764 51.4061 122.167 51.1803 122.812C51.1803 122.917 50.7127 122.949 50.6805 123.062C49.5518 126.488 49.0197 132.994 48.8423 142.411C48.8423 142.411 49.8097 142.733 50.624 143.072C52.18 131.575 58.5088 127.399 67.603 127.262C75.1008 127.149 90.8624 138.63 97.7717 155.27C98.3118 155.27 99.9243 155.423 100.448 155.439L90.3867 123.465L88.8146 121.796Z" fill="#B52D2D"/>
<path d="M88.855 120.353C84.0594 122.218 78.9916 123.288 73.8513 123.521L74.1899 124.473C80.3333 124.69 89.0002 121.989 89.0002 121.989L88.855 120.353Z" fill="#E87446"/>
<path d="M51.7367 121.28C58.0643 122.743 64.5433 123.45 71.0376 123.384V124.368C63.4027 124.94 51.1965 122.755 51.1965 122.755L51.7367 121.28Z" fill="#E87446"/>
<path d="M76.9957 35.7886L61.4276 37.8203C61.2663 44.1571 58.6784 48.9058 54.1716 53.8237L84.5177 50.486C78.2937 48.4865 76.9957 35.7886 76.9957 35.7886Z" fill="#FFB882"/>
<path d="M119.733 195.718H110.341C110.341 195.718 109.123 192.88 110.566 192.493C112.01 192.106 119.733 195.718 119.733 195.718Z" fill="#FFB882"/>
<path d="M29.856 195.718H40.1514C40.1514 195.718 41.4816 192.88 39.8934 192.493C38.3051 192.106 29.856 195.718 29.856 195.718Z" fill="#FFB882"/>
<path d="M105.753 62.6598C105.761 61.8067 105.462 60.9791 104.912 60.327C104.362 59.6748 103.596 59.2411 102.754 59.1044C102.36 59.0652 101.963 59.1119 101.589 59.2415C101.215 59.371 100.873 59.5803 100.588 59.8547C100.303 60.1292 100.081 60.4624 99.9367 60.8312C99.7929 61.2 99.7309 61.5956 99.7551 61.9907C99.746 62.8452 100.044 63.6747 100.594 64.3286C101.144 64.9824 101.911 65.4173 102.754 65.5542C103.149 65.5922 103.546 65.5443 103.92 65.4137C104.294 65.2832 104.636 65.0732 104.921 64.7981C105.206 64.523 105.428 64.1894 105.572 63.8203C105.715 63.4512 105.777 63.0553 105.753 62.6598Z" fill="#FFB24D"/>
<path d="M75.8749 123.562C75.8749 122.57 74.6253 121.772 73.0854 121.772C71.5455 121.772 70.2959 122.578 70.2959 123.562C70.2959 124.545 71.5455 125.351 73.0854 125.351C74.6253 125.351 75.8749 124.553 75.8749 123.562Z" fill="#FFB24D"/>
<path d="M75.2056 123.981C75.2056 123.416 74.2221 123.852 73.0208 123.852C71.8195 123.852 70.8359 123.416 70.8359 123.981C70.8359 124.545 71.8437 124.956 73.0208 124.956C74.1979 124.956 75.2056 124.537 75.2056 123.981Z" fill="#FFD15F"/>
<path d="M66.4018 57.3791C60.8469 56.1617 51.8415 55.8231 51.398 57.7177C50.9546 59.6123 66.4018 57.3791 66.4018 57.3791Z" fill="#FF9566"/>
<path d="M74.4077 57.3388C79.0757 55.42 86.8799 53.9446 87.541 55.7264C88.2021 57.5081 74.4077 57.3388 74.4077 57.3388Z" fill="#FF9566"/>
<path d="M52.5348 94.844C52.43 94.1588 51.1481 93.6589 49.6727 93.7153C48.1973 93.7718 47.0928 94.3764 47.2057 95.0617C47.3186 95.747 48.6004 96.2469 50.0678 96.1904C51.5351 96.134 52.6477 95.5293 52.5348 94.844Z" fill="#E87446"/>
<g style="mix-blend-mode:multiply" opacity="0.6">
<path d="M83.7195 50.1474C79.4949 48.0431 77.8824 40.8839 77.0762 37.4817C74.328 37.42 71.5791 37.5655 68.8528 37.917C66.2988 38.2631 63.7776 38.8186 61.3147 39.5778C60.7906 44.6812 58.5816 48.7848 54.9858 52.9207C56.3483 56.0731 61.5081 49.6072 70.3524 48.3817C77.4229 47.3982 83.6066 52.7434 83.7195 50.1474Z" fill="#C94343"/>
</g>
<path d="M63.4672 36.6513C60.8389 24.558 61.5887 14.8834 62.6609 11.8923C63.7332 8.90124 65.0151 9.1431 65.4021 23.0584C65.7891 36.9737 63.4672 36.6513 63.4672 36.6513Z" fill="#CC4040"/>
<path d="M60.8472 27.4845C60.6779 33.1281 62.8708 42.1819 63.3465 42.6011C64.1527 43.2622 68.603 44.0685 71.0217 43.6573C73.4403 43.2461 77.5601 40.1099 77.6488 39.1102C77.7375 38.1105 75.3511 25.727 75.3511 25.727L60.8472 27.4845Z" fill="#FFB882"/>
<path d="M60.8472 27.4845C60.6779 33.1281 62.8708 42.1819 63.3465 42.6011C63.5608 42.7505 63.7976 42.8649 64.0479 42.9397C64.1446 38.9893 65.5233 33.4264 71.0781 34.3696C73.916 32.9185 75.8509 34.8937 76.5362 40.5453C77.0353 40.1817 77.4211 39.6841 77.6488 39.1102C77.7294 38.1105 75.3511 25.727 75.3511 25.727L60.8472 27.4845Z" fill="#FF9566"/>
<path d="M70.7473 32.338C70.3595 33.437 70.1843 34.5998 70.2313 35.7644C70.5989 36.0256 71.051 36.1399 71.4986 36.0847C71.9462 36.0295 72.3569 35.8088 72.65 35.4661C72.255 33.4989 71.5374 32.3863 70.7473 32.338Z" fill="#FF9566"/>
<path d="M71.0377 32.6282C70.7884 33.5906 70.7092 34.5893 70.8039 35.579C70.9466 35.679 71.1077 35.7498 71.278 35.7874C71.4482 35.8249 71.6242 35.8284 71.7957 35.7977C71.9673 35.767 72.1311 35.7026 72.2778 35.6084C72.4244 35.5141 72.5509 35.3918 72.6501 35.2484C72.2954 33.5876 71.6746 32.6524 71.0377 32.6282Z" fill="#FFB882"/>
<path d="M67.7321 14.4158C66.8695 13.9159 66.3616 11.3763 68.3932 11.5537C70.4249 11.7311 69.1995 14.3593 69.1995 14.3593L67.7321 14.4158Z" fill="#FFDD7D"/>
<path d="M59.0329 41.8352L63.7815 44.3345C63.7815 44.3345 59.4199 30.6288 71.2068 32.1445C75.3991 30.3224 77.7855 31.7172 77.4792 42.972L78.8578 41.9158C78.8578 41.9158 78.9142 28.2101 77.5195 24.0178C76.1247 19.8255 71.4648 14.1819 68.514 13.2951C68.514 13.2951 57.8478 17.3262 57.7349 26.5735C57.6079 31.6929 58.0432 36.8108 59.0329 41.8352Z" fill="#FFC34A"/>
<path d="M68.9899 13.4322C68.8349 13.3638 68.6761 13.3046 68.5142 13.2548H68.4417C70.7555 19.7045 71.1667 32.0961 71.1667 32.0961C71.9281 31.7361 72.7467 31.5124 73.5853 31.435C72.6904 24.5902 71.2312 17.3584 68.9899 13.4322Z" fill="#FFDA66"/>
<path d="M60.8471 27.4845C61.2341 19.5917 68.9093 14.6818 68.9093 14.6818C71.1828 15.488 75.3591 19.4224 77.3262 23.5502C75.7702 19.4304 71.6827 14.1658 68.5143 12.9807C65.7328 13.4483 57.6222 18.3582 57.5497 26.4445C57.4691 36.1917 59.0089 41.8594 59.0089 41.8594L62.0081 43.4718C61.4276 40.9564 60.6536 31.435 60.8471 27.4845Z" fill="#FFAC3E"/>
<path d="M69.3526 137.695C69.3526 137.695 68.9978 141.814 71.4729 150.014C75.4637 151.166 79.6722 152.263 83.8322 153.166C76.4312 142.097 69.3526 137.695 69.3526 137.695Z" fill="#B52D2D"/>
<path d="M70.6827 31.2012C68.6833 31.0964 64.1282 31.3141 64.4587 30.1451C64.7893 28.976 66.4017 28.9841 67.74 29.3388C68.8233 29.7807 69.8197 30.4113 70.6827 31.2012Z" fill="#FF9566"/>
<path d="M68.9174 30.9513C68.3208 30.9513 66.9744 30.9513 67.0711 30.653C67.1679 30.3547 67.6435 30.3466 68.0386 30.4514C68.3575 30.5674 68.6546 30.7364 68.9174 30.9513Z" fill="#603642"/>
<path d="M71.4487 31.0722C72.8032 30.8545 75.9152 30.7981 75.6088 29.7339C75.3024 28.6697 74.206 28.7584 73.3272 29.1937C72.5896 29.6975 71.9525 30.3346 71.4487 31.0722Z" fill="#FF9566"/>
<path d="M78.3582 127.939C85.1949 133.438 92.0639 143.112 92.8701 141.113C93.6763 139.114 89.879 134.147 86.2027 131.608C83.8566 129.995 78.3582 127.939 78.3582 127.939Z" fill="#CC4040"/>
<path d="M105.197 62.0713C105.171 61.4693 104.941 60.8941 104.543 60.4411C104.146 59.988 103.606 59.6843 103.012 59.5801C102.752 59.5063 102.479 59.4929 102.212 59.541C101.946 59.5891 101.695 59.6974 101.477 59.8577C101.259 60.018 101.081 60.2259 100.956 60.4656C100.83 60.7054 100.762 60.9706 100.755 61.2409C100.791 61.8344 101.027 62.3984 101.423 62.8416C101.82 63.2848 102.354 63.5815 102.94 63.6837C103.196 63.7568 103.466 63.7712 103.728 63.7257C103.991 63.6803 104.24 63.5762 104.457 63.4213C104.674 63.2664 104.853 63.0645 104.981 62.8308C105.109 62.5971 105.183 62.3375 105.197 62.0713Z" fill="#FFE05C"/>
<path d="M11.6274 115.491C12.216 119.579 17.0775 128.52 17.0775 128.52L27.2519 121.433L15.0781 111.251L11.6274 115.491Z" fill="#FFD15F"/>
<path d="M24.0271 118.982L15.1587 111.541L11.9338 115.467C12.2934 117.214 12.8478 118.915 13.5866 120.538C14.7713 120.895 16.0016 121.077 17.2388 121.078C19.6649 121.106 22.0387 120.373 24.0271 118.982Z" fill="#FFE576"/>
<path d="M71.2955 103.454C71.239 106.236 70.8521 110.122 70.8521 110.122L72.2387 108.679L71.2955 103.454Z" fill="#FF9566"/>
<path d="M65.7407 110.622C67.681 110.498 69.5736 109.968 71.2956 109.066L71.4084 107.179C70.312 108.711 68.4174 109.856 65.7407 110.622Z" fill="#FF9566"/>
<path d="M72.5857 30.7255C73.0452 30.661 74.0691 30.6449 74.0369 30.3224C74.0046 29.9999 73.6418 30.0403 73.3274 30.1693C73.0525 30.3146 72.8022 30.5023 72.5857 30.7255Z" fill="#603642"/>
<path d="M73.1258 37.014C72.8763 36.8094 72.5867 36.6592 72.2757 36.5731C71.9647 36.487 71.6391 36.4669 71.3198 36.5142C70.6518 36.5001 70.0044 36.7458 69.5139 37.1995C69.5139 37.3607 70.3201 36.9012 71.3198 36.8447C72.3196 36.7883 73.1258 37.1672 73.1258 37.014Z" fill="#FF9566"/>
<path d="M64.4104 27.1701L64.0557 28.4198C66.4189 28.8869 68.6575 29.8455 70.6263 31.2335C70.6263 31.2335 69.8121 29.2502 64.4104 27.1701Z" fill="#C94343"/>
<path d="M76.028 27.2346L76.2941 28.5004C74.4898 28.9205 72.8239 29.7978 71.4568 31.048C71.4568 31.048 72.0373 29.097 76.028 27.2346Z" fill="#C94343"/>
<path d="M128.336 129.302C126.465 132.527 117.589 135.824 117.589 135.824L110.841 125.287L125.248 122.384L128.336 129.302Z" fill="#FFD15F"/>
<path d="M114.573 124.698L125.127 122.578L127.989 129.197C127.02 130.573 125.719 131.683 124.208 132.422C120.797 130.842 115.702 126.472 114.573 124.698Z" fill="#FFE576"/>
</svg>
