<svg width="170" height="200" viewBox="0 0 170 200" fill="none" xmlns="http://www.w3.org/2000/svg">
<path d="M33.3886 112.506C34.0267 111.817 34.3877 110.826 34.1023 110.532C33.8168 110.239 32.4231 110.642 31.8185 111.372C31.214 112.103 31.2056 112.522 31.4827 112.783C31.7825 112.967 32.1376 113.04 32.4859 112.989C32.8341 112.939 33.1536 112.767 33.3886 112.506Z" fill="#FFB882"/>
<path d="M160.235 84.421C162.813 83.6318 165.323 84.0599 167.136 88.1152C165.944 87.2756 164.45 86.3688 163.409 86.7802C158.657 88.6525 158.094 97.0233 158.287 101.171C158.598 108.14 162.485 112.858 167.749 111.49C168.562 111.246 169.303 110.808 169.907 110.213C169.194 111.893 166.616 112.967 164.76 113.244C158.497 114.185 154.333 107.023 153.728 102.33C152.695 94.2359 153.77 86.4108 160.235 84.421Z" fill="#FFDBBB"/>
<path d="M169.613 110.826C169.781 110.6 170.109 110.146 169.933 110.171C169.249 110.685 168.518 111.132 167.75 111.506C162.46 112.875 158.598 108.148 158.287 101.188C158.128 97.8294 158.598 91.6835 161.318 88.5014C161.918 87.9204 162.668 87.5191 163.484 87.3428C162.334 85.4453 160.563 85.9743 159.597 86.6123C156.356 88.7449 154.165 96.0998 154.853 102.246C155.374 106.956 155.953 112.094 162.183 113.236C163.524 113.511 164.913 113.433 166.216 113.011C167.519 112.589 168.689 111.836 169.613 110.826Z" fill="#EFC09A"/>
<path d="M86.2077 144.041C85.2757 145.3 85.2757 147.895 89.7256 148.491L90.8591 146.895C90.1874 142.513 87.1312 142.781 86.2077 144.041Z" fill="#A5311E"/>
<path d="M102.504 145.905C101.74 165.702 103.025 176.071 108.977 199.589H109.758C109.12 186.298 112.756 169.842 116.106 160.589L102.504 145.905Z" fill="#A5311E"/>
<path d="M132.713 144.872C134.845 168.238 137.658 178.893 145.122 199.992H145.76C144.148 188.707 144.728 156.055 147.204 145.241L132.713 144.872Z" fill="#B73C20"/>
<path d="M130.127 127.031C110.455 129.289 88.3653 147.659 88.3653 147.659C83.714 160.421 89.3896 184.174 95.2416 199.992H96.0393C95.2416 189.757 100.422 168.624 100.422 168.624C111.404 161.572 124.619 163.788 139.195 165.266L147.204 145.25L144.148 132.219L130.127 127.031Z" fill="#CC5632"/>
<path d="M148.413 102.959C149.371 103.665 150.983 107.031 154.744 107.048C158.505 107.065 161.956 103.589 163.417 98.4422C164.189 95.7387 164.257 89.8028 160.537 88.1572C160.965 86.4024 164.089 84.7316 165.306 85.3613C168.95 88.3671 169.764 94.3534 168.606 99.6345C166.985 107.082 161.604 112.38 156.129 112.606C149.01 112.909 144.954 110.087 144.182 107.653C143.275 104.832 146.625 101.65 148.413 102.959Z" fill="#FFDBBB"/>
<path d="M163.828 95.5457C163.87 95.4029 163.921 95.2686 163.963 95.1259C164.609 92.8505 165.189 87.645 162.359 86.2513C160.982 85.5628 160.126 87.4099 160.537 88.1572C163.19 89.341 163.912 92.7246 163.828 95.5457Z" fill="#EFC09A"/>
<path d="M156.667 109.332C149.614 109.634 145.576 106.863 144.753 104.454C144.422 104.917 144.199 105.449 144.1 106.01C144.001 106.57 144.03 107.146 144.182 107.695C144.954 110.121 149.01 112.951 156.129 112.648C161.604 112.422 166.985 107.124 168.606 99.6765C168.809 98.7378 168.949 97.7874 169.026 96.8302C167.288 104.026 162.023 109.147 156.667 109.332Z" fill="#EFC09A"/>
<path d="M147.003 145.174C144.912 130.901 142.586 122.547 145.676 114.369L140.487 105.789L123.36 132.715L147.003 145.174Z" fill="#CC5632"/>
<path d="M88.2729 147.937C93.7807 149.549 105.275 154.175 113.285 151.48C125.811 147.282 132.646 132.303 132.889 117.736C131.747 119.34 128.187 125.116 126.592 127.601C107.903 131.413 88.3653 147.659 88.3653 147.659C88.3653 147.659 88.3065 147.844 88.2729 147.937Z" fill="#E25C3D"/>
<path d="M145.676 114.369L140.488 105.789L135.173 114.185C135.173 114.185 130.278 128.357 142.217 144.746L147.003 145.216C144.912 130.918 142.587 122.581 145.676 114.369Z" fill="#B73C20"/>
<path d="M145.366 137.416C142.058 145.644 131.092 155.669 116.106 161.513C110.371 163.755 104.477 164.468 99.2213 165.257C97.8301 172.276 97.0635 179.404 96.9292 186.558C97.8519 180.604 99.1533 174.715 100.825 168.926C111.807 161.874 125.022 164.435 139.589 165.938L147.204 145.25L145.366 137.416Z" fill="#B73C20"/>
<path d="M96.9712 155.804C98.7024 159.912 99.2969 164.409 98.6924 168.826L101.95 166.962C100.959 162.336 99.406 158.473 96.9712 155.804Z" fill="#B73C20"/>
<path d="M117.592 151.967C118.524 171.773 120.891 176.474 128.658 200H129.422C127.675 186.709 127.936 173.972 130.404 164.737C133.737 136.56 126.139 145.334 117.592 151.967Z" fill="#CC5632"/>
<path d="M146.869 101.02C149.06 100.608 153.451 106.502 153.451 106.502C150.454 116.964 151.856 133.21 151.856 133.21H148.766C148.766 133.21 138.8 121.649 138.095 106.628C138.095 106.628 141.772 101.969 146.869 101.02Z" fill="#CC5632"/>
<path d="M143.199 118.299C142.209 111.582 147.7 112.422 144.551 101.725C142.063 102.85 139.857 104.517 138.095 106.603C138.8 121.649 148.766 133.21 148.766 133.21H148.825C146.272 130.028 144.131 124.612 143.199 118.299Z" fill="#C14629"/>
<path d="M150.898 134.226C150.123 134.044 149.396 133.698 148.766 133.21C148.766 133.21 149.429 130.935 150.269 131.052C151.108 131.17 151.856 133.21 151.856 133.21L150.898 134.226Z" fill="#6B2C20"/>
<path d="M144.971 117.593C144.072 114.73 144.904 113.924 145.34 114.193C145.777 114.462 145.55 115.864 144.971 117.593Z" fill="#6B2C20"/>
<path d="M150.655 117.627C150.009 114.47 150.823 113.815 151.209 114.193C151.596 114.571 151.302 115.981 150.655 117.627Z" fill="#6B2C20"/>
<path d="M141.042 104.454C137.683 106.402 136.483 106.284 133.88 105.864C129.883 105.226 127.759 100.197 128.045 94.5885C128.196 91.6331 129.967 86.562 133.796 86.0666C133.972 84.1775 131.378 81.793 130.773 81.2893C126.088 83.0272 123.536 88.4175 122.881 94.1015C121.958 102.053 125.081 109.097 130.513 111.196C137.583 113.933 142.629 112.514 144.232 110.356C146.13 107.829 143.057 103.27 141.042 104.454Z" fill="#FFDBBB"/>
<path d="M128.263 92.9345C129.749 87.326 132.948 86.2177 133.796 86.0666C133.846 85.4873 131.689 82.5235 131.361 81.919C130.79 82.5067 125.274 85.1514 125.417 89.8028C127.323 87.5947 128.465 89.1479 128.263 92.9345Z" fill="#EFC09A"/>
<path d="M132.108 108.467C126.676 106.368 123.922 99.4918 125.031 91.566C125.593 87.5023 127.784 86.2093 128.339 84.782C128.893 83.3547 129.833 82.2128 127.549 83.3379C124.888 85.8567 123.351 89.8952 122.881 94.1015C121.958 102.053 125.081 109.097 130.513 111.196C137.583 113.933 142.629 112.514 144.232 110.356C144.64 109.794 144.844 109.11 144.812 108.417C140.741 110.067 136.191 110.085 132.108 108.467Z" fill="#EFC09A"/>
<path d="M134.275 80.7351C131.546 80.2817 128.716 82.0113 126.366 85.1682C127.692 83.9676 129.531 83.3547 130.631 83.6485C135.668 84.9751 135.92 95.2434 135.5 100.18C134.803 108.484 130.412 114.789 124.787 114.168C123.938 114.038 123.151 113.652 122.529 113.06C123.209 114.94 125.929 115.696 127.919 115.679C134.636 115.62 139.363 109.441 140.655 101.406C142.209 91.6163 141.126 81.877 134.275 80.7351Z" fill="#FFDBBB"/>
<path d="M124.745 114.546C123.906 114.437 123.2 113.647 122.529 113.06C123.209 114.94 125.929 115.696 127.919 115.679C134.182 115.629 138.758 110.197 140.37 102.884C138.473 108.425 132.36 115.604 124.745 114.546Z" fill="#F4C9A8"/>
<path d="M130.463 84.0096C135.5 85.3362 135.92 95.2434 135.5 100.18C135.41 101.275 135.249 102.363 135.022 103.438C135.693 101.498 136.117 99.4809 136.281 97.4348C136.693 92.5651 136.424 82.5151 131.605 80.9619C130.462 81.1988 129.392 81.7026 128.481 82.4322C127.571 83.1618 126.846 84.0961 126.365 85.1598C126.905 84.6527 127.559 84.2825 128.273 84.0826C128.987 83.8823 129.737 83.8572 130.463 84.0096Z" fill="#F4C9A8"/>
<path d="M53.883 31.9041C49.1141 28.9487 48.6355 23.0967 48.6355 23.0967L51.7336 26.7322L51.2299 21.5435C53.0098 24.4149 54.4371 27.7817 53.883 31.9041Z" fill="#FFE5B0"/>
<path d="M49.8446 33.5833C45.0757 30.6279 44.6223 24.7759 44.6223 24.7759L47.7204 28.4114L47.2251 23.2227C48.9714 26.1109 50.4071 29.4693 49.8446 33.5833Z" fill="#FFE5B0"/>
<path d="M46.1588 35.3969C41.3899 32.4331 40.9365 26.5811 40.9365 26.5811L44.0346 30.2249L43.5309 25.0278C45.2772 27.8993 46.713 31.266 46.1588 35.3969Z" fill="#FFE5B0"/>
<path d="M42.263 36.9417C36.4866 33.9024 35.4707 27.1436 35.4707 27.1436L39.4 31.0645L38.3925 25.0866C40.6342 28.3023 42.5737 32.0889 42.263 36.9417Z" fill="#FFE5B0"/>
<path d="M55.3692 29.7044L55.0417 32.0804L40.2061 38.5957L38.2246 37.2272L59.1894 78.8544L62.5562 79.7612L70.2133 76.4028L71.8253 73.3047L55.3692 29.7044Z" fill="#A82D2D"/>
<path d="M55.3692 29.7044L55.0417 32.0804L40.2061 38.5957L38.2246 37.2272L40.5671 41.8785L53.648 35.5312L45.0337 50.7447L59.1894 78.8544L62.5562 79.7612L70.2133 76.4028L71.8253 73.3047L55.3692 29.7044Z" fill="#821E1E"/>
<path d="M39.6098 40.997L37.4185 36.4799L55.6209 28.5709L57.2162 33.1551L39.6098 40.997Z" fill="#FFD04D"/>
<path d="M55.6211 28.5457L52.0948 30.0822C52.5748 30.4444 52.899 30.9758 53.0016 31.5683C53.329 33.9863 48.9715 36.6059 43.2706 37.3699C41.4907 37.6257 39.6861 37.6623 37.8972 37.4791L39.5764 40.997L57.208 33.1635L55.6211 28.5457Z" fill="#FFAC48"/>
<path d="M76.0149 12.8956C75.1753 8.45417 71.9008 8.1939 71.9008 8.1939C71.9008 8.1939 72.816 4.92786 71.162 2.46784C69.508 0.00782347 65.2848 1.88852 65.2848 1.88852C65.2848 1.88852 64.3193 -0.915737 60.2472 0.310079C56.1752 1.53589 57.6025 3.51734 57.6025 3.51734C57.1063 3.09988 56.4814 2.86613 55.8329 2.85543C55.1846 2.84472 54.5523 3.05772 54.0426 3.45857C51.8848 4.81872 53.3289 8.79841 53.3289 8.79841C48.3501 9.57084 47.2586 14.5664 47.309 18.6721C47.3594 22.7777 51.7085 23.2059 51.7085 23.2059C50.6002 25.0866 53.077 34.9603 61.5906 29.2006L67.9043 29.5785C76.3843 28.5457 74.109 19.5621 74.109 19.5621C74.109 19.5621 76.8964 17.3707 76.0149 12.8956Z" fill="#A82D2D"/>
<path d="M76.0148 12.8956C75.9817 12.7256 75.9397 12.5575 75.8889 12.3919H75.7881C75.266 12.5615 74.7045 12.5671 74.1792 12.408C73.6538 12.2489 73.1897 11.9327 72.8495 11.5019C72.8495 11.5019 73.6387 13.2735 69.9781 13.1811C66.3174 13.0887 66.1579 10.9142 66.1579 10.9142C66.1579 10.9142 62.237 11.2668 61.3806 9.08387C61.1589 8.35723 61.0981 7.591 61.2024 6.83848C61.3069 6.08596 61.574 5.36521 61.9851 4.72636C61.1975 4.3658 60.5407 3.77041 60.1048 3.02183C59.6688 2.27325 59.4751 1.40816 59.5503 0.545166C56.3094 1.78777 57.5856 3.51734 57.5856 3.51734C57.0894 3.09989 56.4645 2.86613 55.8161 2.85543C55.1678 2.84472 54.5355 3.05772 54.0257 3.45857C51.868 4.81872 53.3121 8.7984 53.3121 8.7984C48.3333 9.57083 47.2418 14.5664 47.2922 18.6721C47.3425 22.7777 51.6917 23.2059 51.6917 23.2059C50.5834 25.0866 53.0602 34.9603 61.5737 29.2006L67.8875 29.5784C76.3842 28.5457 74.1089 19.562 74.1089 19.562C74.1089 19.562 76.8964 17.3707 76.0148 12.8956Z" fill="#841F1F"/>
<path d="M121.681 99.8612C108.675 77.3851 80.2129 37.3027 78.4329 36.1021C76.653 34.9015 77.6773 50.8119 79.5748 52.8941C81.4723 54.9763 120.841 100.273 120.841 100.273L121.681 99.8612Z" fill="#FFB882"/>
<path d="M78.8611 42.8189C78.5421 42.4327 77.8117 41.8198 77.585 43.1715C77.8536 47.2856 78.5841 51.8614 79.5412 52.9109C81.4807 54.9679 120.841 100.273 120.841 100.273L119.85 98.3163C110.506 86.3353 80.7251 45.069 78.8611 42.8189Z" fill="#FF9566"/>
<path d="M63.1438 16.0022L59.9701 17.7485C59.9701 17.7485 63.3285 28.7221 58.3665 35.2374L72.0771 31.9041C69.2982 30.2989 67.0025 27.9755 65.4307 25.1776C63.8589 22.3798 63.069 19.2104 63.1438 16.0022Z" fill="#FFB882"/>
<path d="M78.6848 36.354C78.2231 35.9342 68.4082 29.0159 66.7374 29.2594C65.0666 29.5029 55.9653 37.1264 55.9653 37.1264L71.0781 60.1566L83.1767 56.1685C83.1767 56.1685 79.155 36.7654 78.6848 36.354Z" fill="#FFB882"/>
<path d="M57.0315 35.8839C56.788 36.0854 55.9316 37.1265 55.9316 37.1265L71.0444 60.1566L83.1766 56.1685C83.1766 56.1685 82.8827 54.7412 82.6476 53.6497L57.0315 35.8839Z" fill="#FF9566"/>
<path d="M32.8596 113.966C38.8376 87.3848 54.4457 38.4026 55.7722 36.6646C57.0988 34.9267 60.4404 51.2736 59.2314 53.9352C58.0224 56.5967 33.7076 114.185 33.7076 114.185L32.8596 113.966Z" fill="#FFB882"/>
<path d="M55.7722 36.6646C54.945 38.4752 54.2436 40.3408 53.6732 42.248C53.3122 43.2975 54.5128 55.1778 53.7992 56.8654C52.8924 59.0231 38.4849 99.9787 33.0107 113.958L33.7328 114.109C33.7328 114.109 58.0811 56.5631 59.2566 53.9016C60.432 51.2401 57.0988 34.9351 55.7722 36.6646Z" fill="#FF9566"/>
<path d="M59.4329 120.457L44.4041 199.79H45.0002L76.5187 104.907L59.4329 120.457Z" fill="#FFB882"/>
<path d="M58.2994 159.766L76.5186 104.949L59.4328 120.457L50.8018 166.021C52.9347 163.533 55.4688 161.419 58.2994 159.766Z" fill="#FF9566"/>
<path d="M98.0375 113.076L119.556 199.79H118.952L83.2773 108.694L98.0375 113.076Z" fill="#FFB882"/>
<path d="M102.42 130.742L98.0375 113.11L83.2773 108.727L98.3481 147.215C99.1264 141.597 100.492 136.076 102.42 130.742Z" fill="#FF9566"/>
<path d="M52.103 148.163C72.3121 145.367 100.262 116.703 100.262 116.703L94.8134 96.931L57.6444 113.673L52.103 148.163Z" fill="#FFE5B0"/>
<path d="M67.5264 132.58C75.7965 117.711 89.9857 109.332 99.4312 113.656L94.8134 96.931L57.6444 113.673L52.103 148.163C55.7878 147.555 59.367 146.424 62.7323 144.805C63.7529 140.526 65.3666 136.412 67.5264 132.58Z" fill="#F9D391"/>
<path d="M78.7434 68.6785L65.5701 75.0679C54.2691 99.2063 54.1096 127.434 54.1096 127.434C54.1096 127.434 79.7929 121.346 96.0055 98.8872C96.0055 98.9124 90.523 75.6052 78.7434 68.6785Z" fill="#C1B036"/>
<path d="M63.6308 124.092C65.0833 123.471 66.6533 122.749 68.3073 121.917C62.1531 104.21 69.827 91.6499 69.827 91.6499C63.8155 100.407 62.8499 111.38 63.6308 124.092Z" fill="#AA9729"/>
<path d="M60.0036 120.49C60.6417 101.322 69.5414 83.3967 80.2631 82.1457C87.6348 81.3061 93.2852 88.5182 95.5606 99.5002L96.0055 98.9124C96.0055 98.9124 90.523 75.6052 78.7434 68.6869L65.5701 75.0679C54.2691 99.2063 54.1096 127.434 54.1096 127.434C56.1207 126.904 58.1022 126.268 60.0456 125.528C59.9616 123.89 59.9532 122.211 60.0036 120.49Z" fill="#AA9729"/>
<path d="M61.4228 82.1792L59.7437 89.022C59.7437 89.022 74.2267 84.1103 84.5957 72.9437L81.1702 68.7457L61.4228 82.1792Z" fill="#FFE5B0"/>
<path d="M73.6138 79.5849C77.476 76.9821 80.6832 74.9083 82.9837 74.6061C83.5379 74.0687 84.0752 73.5146 84.6125 72.9269L81.187 68.7289L61.4228 82.1624L59.7437 89.0052C59.7437 89.0052 61.6495 88.3587 64.5713 86.9985C66.1918 84.6896 69.7601 82.1876 73.6138 79.5849Z" fill="#F9D391"/>
<path d="M69.1806 57.5287C61.5487 75.1602 60.3564 85.5712 60.3564 85.5712C69.0696 82.3796 76.9667 77.2956 83.479 70.6852C83.479 70.6852 73.5633 62.2892 75.6455 55.2702C77.7277 48.2511 69.1806 57.5287 69.1806 57.5287Z" fill="#C1B036"/>
<path d="M74.8395 67.7634C76.0642 67.4625 77.341 67.4413 78.575 67.7014C79.8091 67.9616 80.9687 68.4965 81.9677 69.2662C79.281 66.5627 74.0839 60.5092 75.6455 55.2701C77.7361 48.2931 69.1806 57.5287 69.1806 57.5287C61.5487 75.1602 60.3564 85.5712 60.3564 85.5712C60.3564 85.5712 64.311 70.5256 74.8395 67.7634Z" fill="#AA9729"/>
<path d="M58.3666 58.3263C58.7024 59.7032 65.7718 66.1597 65.7718 66.1597L77.2827 63.3471C77.2827 63.3471 84.2178 57.0249 83.9995 56.0677C83.7812 55.1106 56.4607 36.0349 56.4607 36.0349L55.9233 36.6059C55.9233 36.6059 57.9132 56.5127 58.3666 58.3263Z" fill="#C1B036"/>
<path d="M56.301 36.5471V40.4176C56.6078 40.5968 56.9474 40.7125 57.2998 40.7579C57.6522 40.8033 58.0101 40.7775 58.3523 40.6819C58.6945 40.5864 59.014 40.4231 59.2919 40.2018C59.5698 39.9804 59.8004 39.7055 59.9701 39.3933L56.301 36.5471Z" fill="#AA9729"/>
<path d="M57.5186 39.2758C59.9114 40.5688 81.3799 56.6639 81.5898 57.5119C81.7997 58.3599 83.3782 56.815 83.3782 56.815L57.6193 38.0248L57.5186 39.2758Z" fill="#AA9729"/>
<path d="M76.6027 58.6117C69.1722 60.1902 61.1121 63.6493 57.0652 39.301C56.9393 38.5454 56.2256 38.9903 56.0913 38.1843C56.5615 42.8861 57.527 57.1844 57.8964 58.6873C58.2407 60.0391 65.4276 66.8314 65.4276 66.8314L77.543 63.8928C77.543 63.8928 82.8829 58.2675 83.8904 56.5295C81.5223 57.4221 79.0849 58.1186 76.6027 58.6117Z" fill="#AA9729"/>
<path d="M70.0788 6.44754C69.6553 5.74841 69.1125 5.12893 68.4751 4.61722C68.2729 5.33083 68.2729 6.08656 68.4751 6.80017C68.6598 7.28714 69.4574 7.33751 69.5666 7.31233C69.6757 7.28714 70.2719 6.9429 70.0788 6.44754Z" fill="#FFD04D"/>
<path d="M69.9949 14.1047C69.787 13.3396 69.7215 12.5426 69.8018 11.7538C70.5168 11.9036 71.1459 12.325 71.5566 12.9293C71.7497 13.3826 71.078 14.0459 70.9773 14.1131C70.8765 14.1803 70.188 14.4573 69.9949 14.1047Z" fill="#FFD04D"/>
<path d="M70.0874 11.5271C69.4724 10.949 68.9486 10.281 68.5342 9.54564C69.3169 9.4647 70.1051 9.63531 70.7843 10.0326C71.2293 10.36 71.0194 11.1577 70.969 11.2416C70.9186 11.3256 70.4653 11.7538 70.0874 11.5271Z" fill="#FFD04D"/>
<path d="M68.7859 9.06707C68.2223 8.64887 67.734 8.13781 67.3418 7.5558C68.1418 7.38983 68.9742 7.49315 69.7095 7.84966C70.0705 8.12673 69.7095 8.77321 69.6003 8.84038C69.4912 8.90755 69.0798 9.23499 68.7859 9.06707Z" fill="#FFD04D"/>
<path d="M70.3223 9.0083C70.3322 8.1194 70.5058 7.23994 70.8344 6.41394C71.4006 7.01675 71.8225 7.74018 72.0686 8.52973C72.203 9.15103 71.5229 9.66318 71.4053 9.69677C71.2878 9.73035 70.4146 9.72196 70.3223 9.0083Z" fill="#FFD04D"/>
<path d="M71.2459 11.6698C71.5074 10.7938 71.9193 9.96992 72.4633 9.23502C72.831 10.0225 73.0093 10.8851 72.9839 11.7538C72.8999 12.3667 72.0939 12.5934 71.9847 12.5934C71.8756 12.5934 71.1703 12.2828 71.2459 11.6698Z" fill="#FFD04D"/>
<path d="M70.6835 14.9191C71.3635 14.145 72.1628 13.4846 73.0512 12.9628C73.0748 13.8838 72.8669 14.7961 72.4467 15.6159C72.2735 15.8054 72.0537 15.9461 71.8091 16.0242C71.5646 16.1023 71.3039 16.115 71.053 16.0609C70.9354 16.0189 70.3141 15.49 70.6835 14.9191Z" fill="#FFD04D"/>
<path d="M60.9357 6.21245C61.5219 5.52709 62.2169 4.94277 62.9928 4.48288C63.0593 5.28328 62.9085 6.08681 62.5562 6.80856C62.2539 7.30393 61.4227 7.24516 61.322 7.21157C61.2212 7.17799 60.6251 6.71621 60.9357 6.21245Z" fill="#FFD04D"/>
<path d="M59.332 14.3733C59.7144 13.6053 59.956 12.775 60.0457 11.9217C59.2516 11.9887 58.5116 12.3513 57.9719 12.9376C57.6696 13.391 58.2238 14.1886 58.3161 14.2726C58.4085 14.3566 59.055 14.726 59.332 14.3733Z" fill="#FFD04D"/>
<path d="M59.8105 11.6195C60.5764 11.0827 61.2631 10.4412 61.8508 9.71358C61.0365 9.52677 60.184 9.60317 59.4159 9.93187C58.887 10.2257 58.9206 11.0989 58.9542 11.1997C58.9877 11.3004 59.3572 11.8294 59.8105 11.6195Z" fill="#FFD04D"/>
<path d="M61.683 9.17621C62.3651 8.80419 62.983 8.32512 63.5133 7.75729C62.699 7.46575 61.8088 7.46575 60.9945 7.75729C60.5663 8.00078 60.835 8.73962 60.8938 8.82358C60.9526 8.90754 61.3556 9.27696 61.683 9.17621Z" fill="#FFD04D"/>
<path d="M60.113 8.90756C60.2881 7.97255 60.2881 7.01313 60.113 6.07812C59.3981 6.64678 58.8068 7.3553 58.375 8.16033C58.3038 8.40011 58.3064 8.65577 58.3828 8.89396C58.4592 9.13215 58.6058 9.34172 58.8032 9.49528C59.0554 9.58201 59.331 9.56958 59.5743 9.46044C59.8175 9.3512 60.0102 9.15356 60.113 8.90756Z" fill="#FFD04D"/>
<path d="M58.5764 11.6194C58.5102 10.6528 58.2713 9.70591 57.8711 8.82358C57.3026 9.60751 56.9154 10.508 56.7377 11.4599C56.6873 12.1232 57.4681 12.459 57.5773 12.4674C57.6864 12.4758 58.526 12.2827 58.5764 11.6194Z" fill="#FFD04D"/>
<path d="M58.442 15.1541C57.9143 14.2407 57.2293 13.4279 56.4186 12.7529C56.1965 13.7107 56.2139 14.7084 56.4689 15.6579C56.7208 16.3044 57.6864 16.3464 57.8123 16.3128C57.9382 16.2792 58.7107 15.8006 58.442 15.1541Z" fill="#FFD04D"/>
<path d="M36.6631 199.992H45.0591C45.0591 199.992 46.1505 197.683 44.8576 197.364C43.5646 197.045 36.6631 199.992 36.6631 199.992Z" fill="#FFB882"/>
<path d="M127.071 199.992H118.675C118.675 199.992 117.583 197.683 118.876 197.364C120.169 197.045 127.071 199.992 127.071 199.992Z" fill="#FFB882"/>
<path d="M71.4222 71.021C71.4222 71.021 64.7894 75.1098 60.3899 85.2942C60.3899 85.4789 60.3899 85.5712 60.3899 85.5712C61.9894 85.0196 63.5563 84.3773 65.0832 83.6485C66.6449 77.1752 69.0881 73.4978 71.4222 71.021Z" fill="#AA9729"/>
<path d="M56.9141 37.9744C56.9141 37.9744 82.2699 56.0174 82.3959 57.0921C82.4882 57.7638 75.1501 61.2229 69.8439 63.6242C66.8465 64.9843 64.504 66.0086 64.504 66.0086L65.3436 66.8482C65.3436 66.8482 85.9893 59.1155 84.2849 56.1349C83.6888 55.0854 57.4178 36.5975 57.4178 36.5975L56.9141 37.9744Z" fill="#FFE5B0"/>
<path d="M84.3941 56.3196C83.798 56.5379 83.1179 56.773 82.3707 57.0165C82.463 57.6882 75.1249 61.1473 69.8187 63.5486C66.8297 64.9087 64.4788 65.933 64.4788 65.933C64.0422 66.3109 64.7643 67.352 65.3184 67.0581C65.3772 67.1001 85.1329 59.4345 84.3941 56.3196Z" fill="#F9D391"/>
<path d="M61.4479 36.2868L66.2252 35.4472C59.2062 34.4985 59.2565 36.757 61.4479 36.2868Z" fill="#FF9566"/>
<path d="M71.3047 34.6077L67.9463 35.3213C72.1443 32.2316 72.8663 34.3726 71.3047 34.6077Z" fill="#FF9566"/>
<path d="M75.6958 34.1543C75.4523 33.6673 75.1753 33.575 74.8562 33.6421C76.7873 54.6321 63.4209 66.5292 63.4209 66.5292L64.42 68.3259C64.42 68.3259 78.9451 53.9268 75.6958 34.1543Z" fill="#A82D2D"/>
<path d="M69.0881 59.3338C67.5413 61.9762 65.6433 64.3966 63.446 66.5291L64.4452 68.3259C66.9893 65.6073 69.1708 62.5706 70.9353 59.2918C70.3428 59.5188 69.6902 59.5336 69.0881 59.3338Z" fill="#821E1E"/>
<g style="mix-blend-mode:multiply" opacity="0.6">
<path d="M71.3047 31.392L70.8261 31.1065C68.3937 29.4212 66.4182 27.1578 65.0773 24.5199C63.7363 21.882 63.0719 18.9521 63.1438 15.9938L59.9701 17.7485C59.9701 17.7485 63.2361 28.5458 58.484 35.061L57.5269 35.8335C59.7303 35.7385 61.9133 35.3691 64.0253 34.7336C66.6138 34.0134 69.0711 32.8854 71.3047 31.392Z" fill="#C94343"/>
</g>
<path d="M67.5685 27.236C65.5242 26.5848 63.7171 25.3454 62.3732 23.673C61.0292 22.0006 60.208 19.9691 60.0121 17.8325C59.7183 14.9862 62.1027 10.2761 64.8482 10.2761C68.9958 10.2761 70.1545 14.8015 70.4483 18.3782C70.801 22.7525 67.5685 27.236 67.5685 27.236Z" fill="#FFB882"/>
<path d="M59.2228 17.5638C58.3832 16.5227 57.1322 17.7905 57.4681 18.6553C57.8039 19.5201 59.693 20.3345 59.8609 19.8223C59.9412 19.0159 59.7132 18.209 59.2228 17.5638Z" fill="#FFB882"/>
<path d="M59.0046 17.95C58.4757 17.3035 57.72 18.0928 57.9215 18.6217C58.123 19.1507 59.2985 19.646 59.3992 19.3438C59.4517 18.8457 59.3104 18.3466 59.0046 17.95Z" fill="#EA7B59"/>
<path d="M59.2312 18.4706C58.887 18.0508 58.3916 18.5629 58.526 18.9072C58.6603 19.2514 59.4159 19.5705 59.4831 19.369C59.5172 19.0483 59.4271 18.7268 59.2312 18.4706Z" fill="#FFB882"/>
<path d="M54.4288 37.3783C54.5481 38.0841 54.914 38.7246 55.4613 39.1859C56.0086 39.6472 56.702 39.8992 57.4177 39.8971C57.7475 39.9147 58.0771 39.8606 58.384 39.7384C58.6909 39.6163 58.9675 39.4289 59.195 39.1896C59.4225 38.9501 59.5953 38.6642 59.7016 38.3515C59.8078 38.0388 59.845 37.7068 59.8106 37.3783C59.6897 36.6733 59.3234 36.0337 58.7764 35.5728C58.2294 35.1118 57.5369 34.8592 56.8216 34.8595C56.4918 34.842 56.1621 34.8961 55.8553 35.0182C55.5484 35.1404 55.2718 35.3277 55.0443 35.5671C54.8168 35.8065 54.644 36.0925 54.5377 36.4051C54.4314 36.7178 54.3942 37.0499 54.4288 37.3783Z" fill="#FFD04D"/>
<path d="M55.3524 36.9417C55.438 37.466 55.7069 37.9428 56.1113 38.2873C56.5158 38.6317 57.0294 38.8214 57.5606 38.8224C57.8046 38.834 58.0484 38.7922 58.2747 38.6998C58.5009 38.6075 58.7043 38.4668 58.8706 38.2878C59.0369 38.1087 59.1621 37.8954 59.2374 37.6629C59.3128 37.4304 59.3365 37.1843 59.3069 36.9417C59.2211 36.4182 58.9519 35.9424 58.5473 35.5994C58.1427 35.2563 57.6293 35.0684 57.0988 35.0694C56.8555 35.058 56.6126 35.0997 56.387 35.1916C56.1614 35.2834 55.9585 35.4233 55.7923 35.6015C55.6261 35.7795 55.5008 35.9917 55.4248 36.2231C55.3488 36.4546 55.3241 36.6997 55.3524 36.9417Z" fill="#FFE780"/>
<path d="M5.26656 90.278L5.10791 90.7473L67.3615 111.794L67.5201 111.325L5.26656 90.278Z" fill="#6D2E2E"/>
<path d="M73.5297 110.029C73.3053 109.979 73.0838 109.918 72.8664 109.844C65.4191 107.325 60.0961 121.775 32.3978 112.556C5.03525 103.455 9.27524 89.0891 2.02111 86.2933C0.476243 87.1329 0.274739 87.9725 1.96233 88.5014C9.30882 90.9446 8.51958 108.047 31.449 115.671C54.3784 123.294 64.0674 109.147 71.3047 111.574C73.58 112.321 74.1845 111.666 73.5297 110.029Z" fill="#A82D2D"/>
<path d="M21.5669 107.879C22.2806 109.365 23.0866 110.902 23.9933 112.464C26.3773 113.754 28.8726 114.828 31.449 115.671C36.5616 117.478 41.992 118.213 47.4013 117.829C47.0067 117.073 46.5617 116.309 46.1503 115.545C41.4596 115.107 36.839 114.103 32.3893 112.556C28.6399 111.349 25.0157 109.783 21.5669 107.879Z" fill="#CC4242"/>
<path d="M68.8447 17.4295C68.7272 16.7494 68.2822 16.2289 67.8456 16.2708C67.409 16.3128 67.1571 16.9089 67.2747 17.5974C67.3922 18.2859 67.8372 18.798 68.2738 18.756C68.7104 18.7141 68.9623 18.1179 68.8447 17.4295Z" fill="#66423B"/>
<path d="M64.588 17.8577C64.4788 17.06 64.0087 16.4387 63.5385 16.4555C63.0683 16.4723 62.7745 17.1356 62.8836 17.9332C62.9928 18.7308 63.4629 19.3521 63.9331 19.327C64.4033 19.3018 64.7055 18.6469 64.588 17.8577Z" fill="#66423B"/>
<path d="M62.0691 17.7653C62.7906 17.1078 63.7216 16.7272 64.697 16.6906C64.5338 16.4995 64.3158 16.3632 64.0725 16.3001C63.8292 16.237 63.5724 16.2503 63.3369 16.338C62.4385 16.5899 62.0691 17.7653 62.0691 17.7653Z" fill="#66423B"/>
<path d="M69.3064 16.7914C68.5081 16.4135 67.6049 16.3188 66.7456 16.5227C66.8291 16.318 66.9762 16.1455 67.1652 16.0307C67.3541 15.9158 67.5749 15.8646 67.7951 15.8846C68.0969 15.9199 68.3878 16.0189 68.6484 16.1753C68.9089 16.3316 69.1333 16.5417 69.3064 16.7914Z" fill="#66423B"/>
<path d="M61.5485 16.338L61.4729 16.1785C61.6439 15.6989 61.9217 15.2646 62.2855 14.9082C62.6491 14.5518 63.089 14.2828 63.5719 14.1215L63.7398 14.7092C63.2765 14.801 62.8396 14.9949 62.4605 15.2766C62.0815 15.5583 61.7699 15.9209 61.5485 16.338Z" fill="#A82D2D"/>
<path d="M69.2227 15.2801C68.859 14.9441 68.4292 14.6877 67.9608 14.5272C67.4924 14.3668 66.9956 14.3057 66.5024 14.3481L66.4436 13.752C66.9837 13.7562 67.5168 13.8752 68.0075 14.101C68.4982 14.3267 68.9353 14.6542 69.2898 15.0618L69.2227 15.2801Z" fill="#A82D2D"/>
<path d="M67.3249 19.8643C67.3249 19.8643 67.3249 19.9063 67.3249 19.9231C67.2713 20.1372 67.1354 20.3214 66.9468 20.4362C66.7583 20.5509 66.5322 20.5868 66.3174 20.536C66.1815 20.502 66.054 20.4405 65.9428 20.3553C65.8316 20.2701 65.7391 20.163 65.6709 20.0406C65.6702 20.2636 65.7469 20.48 65.8877 20.6529C66.0285 20.8259 66.2248 20.9448 66.4433 20.9893C66.5492 21.0234 66.6612 21.0344 66.7717 21.0218C66.8823 21.009 66.9887 20.9728 67.0842 20.9156C67.1796 20.8584 67.2616 20.7814 67.3249 20.6899C67.3881 20.5983 67.431 20.4943 67.4509 20.3848C67.4668 20.2022 67.4226 20.0194 67.3249 19.8643Z" fill="#EA7B59"/>
<path d="M65.0076 22.4587L67.9965 22.232C67.9965 22.232 67.8622 23.7181 66.6364 23.7768C65.4106 23.8356 65.0076 22.4587 65.0076 22.4587Z" fill="#491D2E"/>
<path d="M65.2177 22.5006L67.7365 22.3075C67.7365 22.3075 68.0052 22.9456 66.5695 23.0716C65.1338 23.1975 65.2177 22.5006 65.2177 22.5006Z" fill="#FFEBEB"/>
<path d="M67.3501 24.1966C67.3501 24.0203 67.0982 24.1966 66.7707 24.2386C66.4433 24.2806 66.1746 24.0959 66.1914 24.2806C66.2082 24.4653 66.4853 24.5912 66.8043 24.566C67.1234 24.5408 67.3669 24.3477 67.3501 24.1966Z" fill="#EF8F6F"/>
<path d="M117.718 95.5372C118.557 97.2836 118.255 100.054 119.094 101.003C119.766 101.75 122.629 101.322 122.797 100.692C122.965 100.063 118.725 95.3273 118.725 95.3273L117.718 95.5372Z" fill="#FFB882"/>
<path d="M119.909 96.847C121.445 97.6287 123.036 98.2995 124.669 98.8537C125.14 99.0887 124.812 99.5505 123.393 99.2986C121.974 99.0468 121.58 98.5934 121.168 99.0971C120.757 99.6009 119.162 96.3768 119.909 96.847Z" fill="#FFB882"/>
<path d="M121.101 99.9115C121.983 100.86 124.124 103.194 124.46 102.951C124.796 102.707 121.849 99.2063 121.849 99.2063L121.101 99.9115Z" fill="#FFB882"/>
<path d="M120.219 100.524C120.774 101.582 122.109 104.202 122.495 104.009C122.881 103.816 121.093 99.9116 121.093 99.9116L120.219 100.524Z" fill="#FFB882"/>
<path d="M118.826 100.566C119.195 102.078 120.085 104.403 120.505 104.21C120.925 104.017 119.783 99.9116 119.783 99.9116L118.826 100.566Z" fill="#FFB882"/>
<path d="M31.533 115.209C31.8185 114.311 31.7597 113.53 31.3987 113.379C31.0377 113.228 30.5591 113.891 30.2232 114.789C29.8874 115.688 30.1645 116.091 30.5255 116.208C30.8865 116.326 31.2475 116.099 31.533 115.209Z" fill="#FFB882"/>
<path d="M32.9687 115.654C33.2542 114.764 33.1954 113.975 32.8344 113.824C32.4734 113.673 31.9444 114.336 31.659 115.234C31.3735 116.133 31.5918 116.536 31.9528 116.653C32.3138 116.771 32.6833 116.552 32.9687 115.654Z" fill="#FFB882"/>
<path d="M34.6227 116.015C34.9165 115.117 34.8578 114.336 34.4967 114.185C34.1357 114.034 33.6068 114.697 33.3213 115.595C33.0358 116.494 33.2541 116.897 33.6152 117.014C33.9762 117.132 34.3624 116.905 34.6227 116.015Z" fill="#FFB882"/>
<path d="M32.1375 113.228C32.9771 113.597 33.8167 113.605 33.9678 113.228C34.119 112.85 33.5229 112.329 32.6833 111.96C31.8437 111.59 31.3903 111.783 31.2475 112.128C31.1048 112.472 31.2643 112.858 32.1375 113.228Z" fill="#FFB882"/>
</svg>
