<svg width="144" height="200" viewBox="0 0 144 200" fill="none" xmlns="http://www.w3.org/2000/svg">
<path d="M128.026 83.0887C127.724 82.3113 126.005 83.0369 122.948 82.225L123.319 84.5743C123.319 84.5743 125.522 86.5435 126.636 86.7767C127.75 87.0099 128.32 83.866 128.026 83.0887Z" fill="#FFC248"/>
<path d="M81.2479 52.6171C85.4801 49.1105 86.8879 48.4886 88.1576 48.2986C88.529 47.2621 90.9128 36.8199 87.1039 35.5762C85.3764 35.0061 82.3535 34.9543 81.1616 38.1673C79.2614 43.125 81.2479 52.6171 81.2479 52.6171Z" fill="#6D5155"/>
<path d="M85.4285 47.7458C83.2693 47.4522 81.7405 43.6087 82.0255 39.1606C82.0871 38.1571 82.2461 37.162 82.5006 36.1894C81.8751 36.706 81.4031 37.3841 81.1359 38.15C79.2617 43.125 81.2482 52.6171 81.2482 52.6171C84.4353 51.287 87.8037 49.1105 88.1578 48.2986C88.5192 47.0842 88.7792 45.842 88.9352 44.5847C88.0715 46.6403 86.7845 47.9272 85.4285 47.7458Z" fill="#594044"/>
<path d="M80.8162 50.1642C81.0235 51.6411 81.2307 52.6171 81.2307 52.6171C83.4169 51.709 85.4825 50.5341 87.3803 49.1191C87.5237 48.7967 87.5774 48.4416 87.5358 48.0913C86.8017 48.6441 84.081 49.9828 83.5368 49.9051C82.9927 49.8273 81.8785 47.2449 82.4658 46.1652C81.5158 46.6403 80.9457 49.9137 80.8162 50.1642Z" fill="#443134"/>
<path d="M87.5528 48.0567C86.7223 49.6805 85.7017 51.1997 84.5126 52.5826C84.5126 52.5826 82.6384 49.2314 82.3706 47.6335C84.6249 49.0414 87.5528 48.0567 87.5528 48.0567Z" fill="#594044"/>
<path d="M88.9002 39.4715C88.7879 37.6145 88.0365 36.0858 87.1728 36.0167C86.3091 35.9476 85.7477 37.4763 85.86 39.3333C85.9722 41.1903 86.7237 42.719 87.5874 42.7449C88.4511 42.7708 89.0211 41.3285 88.9002 39.4715Z" fill="#896D72"/>
<path d="M87.0435 39.4801C86.9312 37.6232 85.8948 36.0944 84.7288 36.0253C83.5628 35.9562 82.7077 37.485 82.82 39.3419C82.9322 41.1989 83.9601 42.7277 85.1261 42.7536C86.2921 42.7795 87.1558 41.3371 87.0435 39.4801Z" fill="#896D72"/>
<path d="M85.4631 38.4782C85.4631 38.2191 85.1694 37.7354 84.9016 37.7354C84.6339 37.7354 84.4352 38.2191 84.418 38.4782H85.4631Z" fill="#49383C"/>
<path d="M88.2096 38.4782C88.2096 38.2191 87.916 37.7354 87.6482 37.7354C87.3805 37.7354 87.1818 38.2191 87.1646 38.4782H88.2096Z" fill="#49383C"/>
<path d="M82.1118 39.4456C78.3288 43.3927 80.8853 50.5097 80.8853 50.5097C80.8853 50.5097 81.749 47.1758 83.4764 46.3466L82.1118 39.4456Z" fill="#6D5155"/>
<path d="M80.8768 43.2373C80.823 42.4528 80.8811 41.6647 81.0495 40.8966C78.3979 44.6192 81.2482 52.6171 81.2482 52.6171C81.2482 52.6171 81.5591 48.4109 82.466 47.2103C81.6714 46.8475 80.9977 45.2065 80.8768 43.2373Z" fill="#594044"/>
<path d="M83.3038 45.932C83.2592 46.7061 83.3922 47.4801 83.6925 48.1949C84.0789 47.6402 84.2841 46.9794 84.2798 46.3034L83.3038 45.932Z" fill="#6D5155"/>
<path d="M82.5176 45.1115C82.4787 45.8853 82.6114 46.658 82.9063 47.3744C83.2932 46.8195 83.5012 46.1594 83.5023 45.4829L82.5176 45.1115Z" fill="#6D5155"/>
<path d="M84.0379 46.4589C83.9989 47.2326 84.1317 48.0054 84.4266 48.7218C84.8176 48.1689 85.0259 47.5075 85.0225 46.8303L84.0379 46.4589Z" fill="#6D5155"/>
<path d="M84.7029 47.003C84.6691 47.7652 84.8017 48.5257 85.0916 49.2314C85.4826 48.6784 85.691 48.0171 85.6876 47.3399L84.7029 47.003Z" fill="#6D5155"/>
<path d="M85.506 46.7871C85.4629 47.5611 85.5958 48.3347 85.8946 49.05C86.281 48.4953 86.4862 47.8345 86.482 47.1585L85.506 46.7871Z" fill="#6D5155"/>
<path d="M86.1712 46.1652C86.1322 46.939 86.265 47.7117 86.5599 48.4281C86.9468 47.8732 87.1547 47.2131 87.1558 46.5366L86.1712 46.1652Z" fill="#6D5155"/>
<path d="M86.9054 45.5779C86.8623 46.3519 86.9952 47.1256 87.2941 47.8408C87.6804 47.2861 87.8856 46.6253 87.8814 45.9493L86.9054 45.5779Z" fill="#6D5155"/>
<path d="M87.553 44.6624C87.5141 45.4361 87.6468 46.2089 87.9417 46.9253C88.3327 46.3724 88.5411 45.711 88.5377 45.0338L87.553 44.6624Z" fill="#6D5155"/>
<path d="M82.4401 42.7277C82.533 44.5112 82.3966 46.2993 82.0342 48.0481L82.3365 47.5385L82.5351 48.2467C82.8773 46.4196 82.845 44.542 82.4401 42.7277Z" fill="#594044"/>
<path d="M86.5947 38.9706C86.5947 38.4869 86.3356 38.3487 86.2665 38.0291C86.1197 38.0291 85.9987 38.3746 85.9901 38.8928C85.9815 39.411 86.1283 40.0243 86.3183 40.0156C86.5083 40.007 86.6379 39.5492 86.5947 38.9706Z" fill="#6D5155"/>
<path d="M86.8274 39.5924C86.7669 39.2038 86.5942 38.2364 86.266 38.0205C85.9637 38.0205 85.8946 39.0397 86.0241 39.4024L86.8274 39.5924Z" fill="#D8B5AB"/>
<path d="M53.6614 54.1718L52.4263 52.0384C51.0184 60.6409 48.4273 78.0965 49.6797 78.5974C50.9321 79.0984 50.6902 76.0063 53.2468 76.9391C55.8034 77.8719 53.3936 78.8911 56.287 79.3057C59.1805 79.7202 56.002 76.7923 58.2995 76.8614C60.5969 76.9305 55.0865 58.5335 53.6614 54.1718Z" fill="#C11E1E"/>
<path d="M48.8937 29.0552C45.4821 22.491 41.9841 13.5085 45.9053 9.34539C49.8265 5.18232 44.9725 2.52211 44.9725 2.52211C39.9976 -2.42694 31.2309 -0.29358 31.5678 10.71C31.9046 21.7137 43.9447 25.8163 44.8861 34.4361C45.8276 43.0559 39.4189 45.3533 40.0148 46.528C40.3949 47.2794 42.6751 46.1911 44.4543 44.2564C44.598 44.3922 44.784 44.4745 44.9812 44.4896C47.1922 44.7574 52.3054 35.628 48.8937 29.0552Z" fill="#E0403D"/>
<path d="M45.7065 27.466C42.2517 20.8932 41.984 13.5257 45.9052 9.32812C46.6253 8.63579 47.1318 7.75156 47.3649 6.78018C46.5011 8.38668 44.316 2.24572 42.1826 3.1267C38.1405 4.81093 34.4092 11.3406 33.1396 8.36077C31.8699 5.38098 34.0033 1.8916 37.7604 0.121002C34.3056 0.820605 31.3345 4.22361 31.5331 10.6928C31.8786 21.705 43.91 25.799 44.8515 34.4188C45.7929 43.0386 39.3842 45.3361 39.9802 46.5107C40.3602 47.2621 42.6404 46.1739 44.4196 44.2392C44.5634 44.3749 44.7493 44.4572 44.9465 44.4724C47.1921 44.7574 49.1182 34.0388 45.7065 27.466Z" fill="#CC2323"/>
<path d="M45.1884 3.61038C44.3938 2.47029 43.34 2.25436 42.5972 2.78986C41.8545 3.32536 41.6472 4.40499 42.4418 5.54509C43.2364 6.68518 44.6961 7.44524 45.4648 6.90974C46.2335 6.37425 45.9916 4.75048 45.1884 3.61038Z" fill="#FFE05C"/>
<path d="M43.6596 5.72646C38.5551 22.7501 46.9848 33.201 59.6382 37.6836L68.3443 20.2627C64.4837 15.6052 59.4769 12.0332 53.8168 9.89817C44.9724 6.60744 44.7651 2.03843 43.6596 5.72646Z" fill="#FFE05C"/>
<path d="M54.8964 21.5064C48.1422 16.1169 43.9964 9.50087 43.9878 4.83685C43.8565 5.11596 43.7468 5.40471 43.6596 5.70056C38.5551 22.7242 46.9848 33.1751 59.6382 37.6577L64.8204 27.2932C61.233 25.8892 57.8852 23.937 54.8964 21.5064Z" fill="#FFBF4D"/>
<path d="M46.6998 21.8778C44.8959 18.9715 43.5746 15.7922 42.7872 12.4634C42.0102 17.3289 43.0691 22.3096 45.7583 26.4382L46.6998 21.8778Z" fill="#FFDA73"/>
<path d="M48.4963 24.7539L47.6326 28.9429C49.0164 30.5566 50.5813 32.0057 52.2966 33.2614C51.2109 30.3481 49.9416 27.5066 48.4963 24.7539Z" fill="#FFDA73"/>
<path d="M57.3924 13.5257C56.2005 14.8904 63.5938 19.3298 63.5938 19.3298L62.4019 19.7272C62.4019 19.7272 56.5459 14.4931 55.0604 14.8386C53.5748 15.1841 51.6055 18.708 60.8127 22.3442L66.444 19.6408C64.2243 16.6005 58.5929 12.1611 57.3924 13.5257Z" fill="#842320"/>
<path d="M137.717 28.2951H139.091L103.99 193.108H102.616L137.717 28.2951Z" fill="#A83E36"/>
<path d="M143.366 4.97504L134.202 29.5648L136.508 37.174L142.062 29.5648L143.366 4.97504Z" fill="#EFD9B1"/>
<path d="M143.366 4.97504L134.202 29.5648L136.508 37.174L137.104 29.4352L143.366 4.97504Z" fill="#DDC699"/>
<path d="M139.082 33.6415L135.463 33.7278L135.376 38.3314L136.871 39.6702L139.082 33.6415Z" fill="#DDC699"/>
<path d="M64.4231 42.4427C59.8282 46.4071 58.9386 42.3736 58.9386 42.3736C58.9386 42.3736 56.3475 42.8313 55.0433 38.7719C53.9636 35.4121 53.4541 25.5399 61.3829 22.7501C69.3117 19.9604 67.2388 40.0243 64.4231 42.4427Z" fill="#842320"/>
<path d="M62.3932 40.5943C66.2022 44.3946 67.2904 40.5252 67.2904 40.5252C67.2904 40.5252 69.5706 40.9657 71.0303 37.0704C72.2395 33.8229 73.4141 24.3912 66.539 21.7137C59.6639 19.0362 60.0698 38.2969 62.3932 40.5943Z" fill="#842320"/>
<path d="M78.0869 46.0184C91.9062 57.7562 100.232 68.4748 103.299 71.0659C106.365 73.657 104.162 78.5715 98.695 76.015C93.2277 73.4584 79.0284 63.0593 77.8969 60.8742C76.7654 58.689 78.0869 46.0184 78.0869 46.0184Z" fill="#FFB882"/>
<path d="M103.298 71.0659C103.16 70.945 102.996 70.8068 102.832 70.6513C101.95 70.9477 101.016 71.0592 100.089 70.9789C99.1615 70.8987 98.2607 70.6284 97.4425 70.1849C88.7363 65.0631 81.4553 48.4541 77.7932 47.7717C77.6809 50.6651 77.3959 59.95 77.8709 60.8742C79.0283 63.0939 93.2363 73.4584 98.6949 76.0063C104.154 78.5542 106.373 73.6225 103.298 71.0659Z" fill="#FF9566"/>
<path d="M35.8086 82.916C38.2874 69.6926 49.6279 55.0182 53.1346 52.1593C56.6412 49.3005 57.3149 62.7829 57.3149 62.7829C57.3149 62.7829 43.4956 75.7386 40.9045 81.1281C38.3133 86.5176 35.8086 82.916 35.8086 82.916Z" fill="#FFB882"/>
<path d="M38.7366 78.8911C38.0488 78.8897 37.3656 79.0036 36.7155 79.2279C36.3495 80.4407 36.0468 81.6717 35.8086 82.916C35.8086 82.916 38.3997 86.5003 40.9304 81.1281C41.1875 80.6295 41.476 80.1478 41.7941 79.6857C40.8668 79.1461 39.8092 78.8713 38.7366 78.8911Z" fill="#FF9566"/>
<path d="M53.1344 52.168C52.5298 52.6603 52.6593 60.1486 52.6593 60.1486C52.6593 60.1486 39.9974 75.2981 38.0627 80.9381C37.7821 81.9533 37.2573 82.8844 36.5339 83.6501C37.484 84.3152 39.1942 84.7298 40.9043 81.1367C43.4954 75.7558 57.7725 62.8434 57.7725 62.8434C57.7725 62.8434 56.6324 49.3091 53.1344 52.168Z" fill="#FF9566"/>
<path d="M63.257 71.8951C57.2802 66.946 52.5384 53.3599 53.1344 52.168C53.7303 50.9761 61.8319 44.3946 64.734 44.2478C67.636 44.101 75.0985 44.4464 77.4218 45.552C79.7452 46.6575 81.7404 53.0662 82.3104 54.3445C82.8805 55.6228 63.9739 72.4996 63.257 71.8951Z" fill="#FFB882"/>
<path d="M54.8618 53.3254C54.7768 53.0902 54.6419 52.8764 54.4662 52.6985C54.2905 52.5206 54.0784 52.383 53.8443 52.2951C53.6103 52.2073 53.3599 52.1712 53.1106 52.1895C52.8613 52.2079 52.6189 52.2801 52.4002 52.4012C51.9453 52.6914 51.6085 53.1342 51.4502 53.6501C51.292 54.166 51.3225 54.7214 51.5365 55.2169C51.6215 55.452 51.7564 55.6659 51.9321 55.8437C52.1078 56.0216 52.3199 56.1592 52.554 56.2471C52.788 56.335 53.0384 56.371 53.2877 56.3527C53.537 56.3344 53.7794 56.2622 53.9981 56.141C54.453 55.8508 54.7898 55.4081 54.9481 54.8921C55.1063 54.3762 55.0757 53.8208 54.8618 53.3254Z" fill="#FF9566"/>
<path d="M75.5391 53.8004C73.8894 53.1526 52.9359 51.9866 52.8322 52.2025C52.7617 52.4861 52.7617 52.7827 52.8322 53.0662C56.4515 54.0229 59.9343 55.4364 63.1967 57.2725L58.7918 61.4269C58.7918 61.4269 55.5184 58.2053 53.5405 55.7524C55.052 60.5632 58.7227 68.8634 63.0413 72.4306C63.7754 73.0438 83.5197 56.5643 82.9065 55.2773C82.7079 54.8627 76.0055 54.9664 75.5391 53.8004Z" fill="#FF9566"/>
<path d="M90.723 112.239L103.057 193.047H102.53L77.0505 109.259L90.723 112.239Z" fill="#FFB882"/>
<path d="M99.386 168.734L90.7489 112.282L77.0505 109.259L97.0885 175.143C97.5711 172.915 98.3435 170.761 99.386 168.734Z" fill="#FF9566"/>
<path d="M56.9088 112.239L47.7881 193.047H48.2977L70.1926 109.259L56.9088 112.239Z" fill="#FFB882"/>
<path d="M50.0424 186.379L70.1927 109.259L56.9089 112.239L48.5137 186.613L50.0424 186.379Z" fill="#FF9566"/>
<path d="M43.2449 181.733C84.0205 171.014 100.396 157.195 100.396 157.195L97.1575 142.348L46.812 159.38L43.2449 181.733Z" fill="#FFE05C"/>
<path d="M79.1319 160.65C87.0607 156.167 95.1709 154.543 100.137 155.994L97.1575 142.348L46.812 159.38L43.2449 181.733C51.3205 179.599 58.4288 177.354 64.6562 175.108C66.4354 170.332 71.7472 164.769 79.1319 160.65Z" fill="#FFC248"/>
<path d="M43.2449 172.862C55.1899 171.662 99.7227 147.435 99.7227 147.435C99.7227 147.435 94.5404 99.0673 88.4081 87.079L53.9894 111.263C50.4482 120.124 45.9224 148.558 43.2449 172.862Z" fill="#E84343"/>
<path d="M64.7339 163.128C66.0986 143.263 77.1022 115.581 86.8016 111.539C89.5309 110.399 92.6057 110.175 95.2659 114.839C93.3485 103.351 90.9474 92.054 88.3563 87.079L53.9376 111.263C50.4482 120.124 45.9224 148.558 43.2449 172.862C47.4511 172.439 55.7168 169.148 64.6562 165.089C64.6648 164.441 64.6907 163.802 64.7339 163.128Z" fill="#D62525"/>
<path d="M51.7612 114.269C67.4634 122.344 94.8861 103.688 94.8861 103.688C94.8861 103.688 86.9227 76.7232 78.3893 68.7598C71.7474 62.5238 65.166 62.4979 66.6688 72.6292C67.1733 76.8212 67.2109 81.0563 66.7811 85.2566C60.3724 95.3188 54.8619 105.122 51.7612 114.269Z" fill="#E84343"/>
<path d="M92.6664 104.595C90.6799 88.9533 84.6426 83.866 84.6426 83.866C86.9746 87.4072 88.9611 95.6297 90.2394 104.595H92.6664Z" fill="#D62525"/>
<path d="M75.4095 107.748C72.2052 93.7382 74.2522 81.3181 79.9958 79.9966C82.4056 79.4438 85.083 80.9467 87.6137 83.9006C84.9103 77.7855 81.6887 71.8087 78.3893 68.7598C71.7474 62.5238 65.166 62.4979 66.6688 72.6292C67.1733 76.8212 67.2109 81.0563 66.7811 85.2566C60.3724 95.3188 54.8619 105.122 51.7612 114.269C58.9214 117.948 68.5171 116.074 76.8087 112.947C76.3078 111.289 75.8241 109.544 75.4095 107.748Z" fill="#D62525"/>
<path d="M83.6665 75.9459C82.4803 73.7949 81.0797 71.7693 79.4862 69.8999L66.807 73.7175C67.1868 77.5545 67.1868 81.4196 66.807 85.2566L66.7292 85.3775C74.5631 75.9372 80.4536 75.2376 83.6665 75.9459Z" fill="#C11E1E"/>
<path d="M72.4813 112.282C70.4672 104.429 69.9255 96.2699 70.8835 88.2191C70.8835 88.2191 66.9363 95.6643 70.0198 112.317L72.4813 112.282Z" fill="#C11E1E"/>
<path d="M58.2476 65.8059C57.2284 69.2607 67.2906 75.8422 67.2906 75.8422C67.2906 75.8422 78.1042 69.7962 81.1099 71.9469C82.2413 70.9277 87.3631 65.2359 87.1558 63.5257C86.9485 61.8156 83.2778 53.6276 82.25 52.9453C81.2222 52.263 63.3693 52.3839 58.2476 65.8059Z" fill="#E84343"/>
<path d="M73.9065 69.0189C67.4978 69.0189 61.9528 66.8337 59.2235 63.6467C58.8494 64.3459 58.5177 65.0669 58.2302 65.8059C57.2111 69.2608 67.0228 77.2932 67.0228 77.2932C67.0228 77.2932 76.774 71.4373 81.1012 71.9469C83.0405 70.0287 84.7771 67.9158 86.2835 65.6418C83.3123 67.7061 78.8642 69.0189 73.9065 69.0189Z" fill="#D62525"/>
<path d="M52.2187 52.263L51.6313 52.7035C60.7574 53.9668 69.5814 56.8632 77.6808 61.2542L82.2498 53.239C72.337 51.4847 62.2244 51.156 52.2187 52.263Z" fill="#E84343"/>
<path d="M53.5317 52.8071L53.2122 52.8935C60.6041 54.7785 67.8778 57.1002 74.9949 59.8463C70.8836 56.8234 62.6266 53.8263 53.5317 52.8071Z" fill="#D62525"/>
<path d="M105.112 70.4526C96.9501 70.4526 89.4272 77.0514 89.4272 77.0514C89.4272 77.0514 108.178 83.0369 124.511 85.0147L125.297 83.8487C125.297 83.8487 109.975 70.444 105.112 70.4526Z" fill="#FFE05C"/>
<path d="M113.818 82.4323C104.128 80.1003 96.7947 76.0063 96.1987 72.7242C93.7741 73.8826 91.5001 75.3329 89.4272 77.0427C89.4272 77.0427 108.178 83.0282 124.511 85.0061L125.176 84.0215C121.346 83.8841 117.539 83.3516 113.818 82.4323Z" fill="#FFC248"/>
<path d="M63.2829 30.964L60.9509 31.3354C60.9509 31.3354 64.2934 41.0089 60.0872 46.5798L74.1915 44.982C65.8394 40.0156 63.2829 30.964 63.2829 30.964Z" fill="#FFB882"/>
<path d="M58.7053 30.4544C55.691 24.9871 58.023 19.4162 61.7801 18.2243C65.5372 17.0324 66.5564 19.9517 66.5564 19.9517C66.5564 19.9517 66.6082 18.1379 67.636 18.017C67.8893 17.9598 68.1537 17.9784 68.3964 18.0706C68.6391 18.1628 68.8493 18.3244 69.0007 18.5352C69.0007 18.5352 68.4306 16.0823 70.8749 17.0497C73.3192 18.017 73.8893 22.681 69.6226 26.3259C65.3558 29.9707 58.7053 30.4544 58.7053 30.4544Z" fill="#A83E36"/>
<path d="M62.2465 21.8519C61.8897 21.324 61.6656 20.7177 61.5934 20.0846C61.5213 19.4515 61.6031 18.8103 61.8319 18.2157C58.0748 19.4076 55.2332 25.1253 58.5153 30.9553C58.5153 30.9553 65.425 29.9275 69.6744 26.2913C70.3077 25.7545 70.8733 25.1425 71.3586 24.4689C67.472 25.7904 63.6803 24.4862 62.2465 21.8519Z" fill="#842320"/>
<path d="M80.6868 111.591C81.9737 111.047 83.2088 110.494 84.3749 109.933C79.1926 101.736 77.1543 94.7746 77.0765 90.0674C77.0765 90.0934 75.4096 99.0154 80.6868 111.591Z" fill="#D62525"/>
<path d="M52.789 111.418C52.4263 112.368 52.0808 113.31 51.7612 114.243C67.4634 122.318 95.2834 103.878 95.2834 103.878C94.7751 102.932 94.3558 101.94 94.0311 100.916C89.3929 103.921 66.9452 117.525 52.789 111.418Z" fill="#FFE05C"/>
<path d="M76.8 112.429C76.4891 111.608 76.2041 110.788 75.9363 109.967C68.2234 112.757 59.5259 114.355 52.7717 111.444C52.4089 112.394 52.0635 113.336 51.7439 114.269C58.9127 117.957 68.6035 116.117 77.0246 113.033C76.9296 112.835 76.8778 112.636 76.8 112.429Z" fill="#FFC248"/>
<path d="M82.725 107.16C81.6972 107.635 80.6262 108.11 79.5293 108.568C79.8748 109.553 80.2548 110.555 80.6867 111.591C81.9736 111.047 83.2087 110.494 84.3747 109.941C83.7874 108.991 83.2346 108.067 82.725 107.16Z" fill="#FFC248"/>
<path d="M70.616 115.029C71.4279 114.821 72.2398 114.597 73.043 114.355C72.7321 113.301 72.447 112.247 72.1793 111.194C71.4365 111.41 70.6937 111.617 69.9509 111.798C70.1582 112.835 70.3741 113.914 70.616 115.029Z" fill="#FFB03E"/>
<path d="M90.5245 106.763C91.3882 106.288 92.1224 105.899 92.7701 105.467C92.632 104.267 92.4678 103.118 92.2865 102.013C91.6473 102.401 90.8959 102.876 90.0581 103.317C90.2251 104.463 90.3806 105.611 90.5245 106.763Z" fill="#FFC248"/>
<path d="M61.2311 154.503C69.2599 129.376 65.5358 105.737 52.9131 101.703C40.2904 97.6701 23.5491 114.77 15.5203 139.897C7.49153 165.025 11.2156 188.664 23.8383 192.697C36.461 196.73 53.2023 179.63 61.2311 154.503Z" fill="#51202A"/>
<path d="M59.5621 153.619C67.2439 129.578 63.6806 106.96 51.6031 103.101C39.5257 99.242 23.5077 115.603 15.8259 139.644C8.14407 163.685 11.7074 186.303 23.7849 190.162C35.8623 194.021 51.8803 177.66 59.5621 153.619Z" fill="#6B2F38"/>
<path d="M12.0911 170.099C12.7302 176.067 14.3453 181.111 16.8415 184.712C23.112 174.469 31.844 158.62 41.5176 141.743C48.4272 129.72 54.7409 118.984 59.6554 110.356C57.5566 106.512 54.6545 103.887 51.0183 102.928C50.6403 102.826 50.2568 102.745 49.8696 102.686C41.8404 111.269 34.8562 120.773 29.0629 130.999C22.0547 143.403 16.3663 156.508 12.0911 170.099Z" fill="#823D4A"/>
<path d="M52.4071 150.077C58.9101 128.925 56.1278 109.302 46.1927 106.248C36.2575 103.193 22.9318 117.864 16.4288 139.015C9.92578 160.167 12.7081 179.79 22.6432 182.844C32.5783 185.899 45.9041 171.228 52.4071 150.077Z" fill="#A55966"/>
<path d="M46.8468 105.251C36.1454 102.436 22.1879 117.818 15.6756 139.618C9.16323 161.418 12.5576 181.379 23.2589 184.186C33.9603 186.993 47.9178 171.619 54.4733 149.819C61.0288 128.019 57.5481 108.067 46.8468 105.251ZM49.697 148.178C44.1261 166.825 32.181 179.988 23.0257 177.544C13.8704 175.099 10.9684 158.058 16.5393 139.446C22.1102 120.833 34.0553 107.627 43.2106 110.08C52.3659 112.532 55.2679 129.556 49.697 148.178Z" fill="#C1818F"/>
<path d="M40.8697 133.287C43.9703 128.056 46.2291 122.37 47.5634 116.436C46.2506 114.001 44.4454 112.351 42.1998 111.764C34.2796 109.674 23.8201 121.532 18.8797 138.236C17.2699 143.509 16.3979 148.979 16.2886 154.491C23.5783 154.155 33.6577 145.777 40.8697 133.287Z" fill="#C98194"/>
<path d="M18.7071 181.594C19.5708 180.143 20.4863 178.606 21.4277 177C17.5929 175.117 15.0968 170.375 14.1294 163.992C13.663 165.305 13.2657 166.583 12.7993 167.87C13.6544 173.907 15.6582 178.727 18.7071 181.594Z" fill="#D3ABB6"/>
<path d="M47.4167 105.372C46.1039 106.832 44.7651 108.378 43.4177 110.028C48.0299 111.332 51.027 116.359 52.1239 123.415C53.5692 120.951 54.9482 118.59 56.261 116.333C54.5768 110.693 51.5798 106.728 47.4167 105.372Z" fill="#D3ABB6"/>
<path d="M25.8327 184.833C24.9353 184.835 24.0413 184.722 23.1725 184.497C20.115 183.685 17.593 181.551 15.6842 178.148C10.8992 169.632 10.7783 154.828 15.356 139.506C21.9115 117.568 36.0849 102.047 46.9331 104.958C49.9906 105.761 52.5126 107.894 54.4214 111.297C59.2064 119.814 59.3273 134.617 54.7496 149.94C48.721 170.099 36.2404 184.833 25.8327 184.833ZM44.2297 105.234C34.1243 105.234 21.9374 119.796 15.9951 139.696C11.5384 154.621 11.6766 169.58 16.2629 177.82C18.0853 181.059 20.4605 183.089 23.3453 183.866C33.8566 186.63 47.6586 171.316 54.1105 149.724C58.5672 134.807 58.429 119.839 53.8428 111.6C52.0203 108.361 49.6365 106.331 46.7604 105.554C45.9333 105.345 45.0827 105.243 44.2297 105.251V105.234Z" fill="#51202A"/>
<path d="M102.504 193.28H108.887C108.887 193.28 103.195 190.888 102.34 191.061C101.485 191.233 102.504 193.28 102.504 193.28Z" fill="#FFB882"/>
<path d="M49.3859 193.28H41.6125C41.6125 193.28 47.3044 190.344 48.4272 190.551C49.55 190.758 49.3859 193.28 49.3859 193.28Z" fill="#FFB882"/>
<path d="M78.1043 158.629C76.0832 136.889 85.1003 122.232 85.1003 122.232C81.4123 125.117 73.0084 140.456 68.6294 163.223C71.8165 161.729 75.0208 160.166 78.1043 158.629Z" fill="#D62525"/>
<path d="M54.6804 51.7534C54.4345 51.3123 54.025 50.9854 53.5404 50.8433C53.0557 50.7011 52.5346 50.755 52.0893 50.9933C51.6467 51.2515 51.3239 51.6741 51.1912 52.169C51.0586 52.664 51.1268 53.1914 51.3811 53.6363C51.6253 54.0793 52.0353 54.4073 52.5211 54.5482C53.007 54.6891 53.5289 54.6314 53.9722 54.3877C54.4143 54.1312 54.7369 53.7102 54.8696 53.2166C55.0023 52.723 54.9343 52.197 54.6804 51.7534Z" fill="#FFE05C"/>
<path d="M62.6267 64.2685C69.1736 68.708 74.4077 69.8394 81.1187 68.4748C74.7356 68.3216 68.448 66.8914 62.6267 64.2685Z" fill="#D62525"/>
<path d="M76.0657 64.4931C79.3823 68.2675 82.0425 68.8721 85.4455 66.8251C82.1344 67.3006 78.7686 66.4638 76.0657 64.4931Z" fill="#D62525"/>
<path d="M53.7562 52.2716C53.7092 52.1575 53.6382 52.0547 53.5481 51.9703C53.4579 51.8859 53.3508 51.8218 53.2338 51.7824C53.1168 51.7429 52.9927 51.729 52.8698 51.7415C52.747 51.7541 52.6283 51.7929 52.5217 51.8552C52.4151 51.9175 52.3231 52.002 52.2519 52.1029C52.1808 52.2038 52.132 52.3188 52.1091 52.4401C52.0861 52.5614 52.0894 52.6862 52.1188 52.8062C52.1481 52.9261 52.2029 53.0383 52.2793 53.1353C52.3902 53.3312 52.5733 53.4761 52.7895 53.539C53.0057 53.6019 53.2379 53.578 53.4367 53.4722C53.538 53.4158 53.6269 53.3396 53.6981 53.2481C53.7693 53.1566 53.8214 53.0517 53.8512 52.9397C53.881 52.8277 53.888 52.7108 53.8716 52.596C53.8553 52.4812 53.8161 52.3709 53.7562 52.2716Z" fill="#FFC248"/>
<path d="M41.4484 82.0523C34.4351 78.7183 26.1436 81.9659 26.1436 81.9659C26.1436 81.9659 40.5675 95.3793 54.0413 103.947L55.0346 103.144C55.0346 103.144 45.6201 84.0042 41.4484 82.0523Z" fill="#FFE05C"/>
<path d="M46.6998 96.8994C40.507 90.7671 35.9725 84.4793 34.6079 80.5494C31.7254 80.5243 28.8608 81.0036 26.1436 81.9659C26.1436 81.9659 40.5675 95.3792 54.0413 103.947L54.4731 103.645C51.7317 101.576 49.1346 99.3219 46.6998 96.8994Z" fill="#FFC248"/>
<g style="mix-blend-mode:multiply" opacity="0.6">
<path d="M55 50.2678C59.0576 50.9353 63.2015 50.8768 67.2387 50.0951C72.3605 49.1277 75.2626 44.9129 73.682 44.6969C65.7359 39.6702 63.3175 30.9813 63.3175 30.9813L60.9855 31.3527C60.9855 31.3527 64.2244 40.7152 60.2945 46.3293C58.4462 47.5261 56.6777 48.8417 55 50.2678Z" fill="#C94343"/>
</g>
<path d="M68.1022 38.1327C66.4206 37.7225 64.8756 36.8792 63.621 35.6867C62.3664 34.4942 61.4458 32.994 60.9507 31.3354C60.2511 28.8738 60.2511 21.8346 64.5438 20.9709C68.8364 20.1072 69.726 25.514 70.4083 28.8738C71.2289 32.8209 68.1022 38.1327 68.1022 38.1327Z" fill="#FFB882"/>
<path d="M59.811 29.6339C59.6964 29.3704 59.4819 29.1633 59.2147 29.058C58.9474 28.9527 58.6493 28.9579 58.3858 29.0725C58.1224 29.187 57.9153 29.4015 57.81 29.6687C57.7047 29.936 57.7099 30.2341 57.8244 30.4976C58.1958 31.6031 60.0701 32.0522 60.2946 31.5254C60.5192 30.9985 60.0355 30.0139 59.811 29.6339Z" fill="#FFB882"/>
<path d="M59.5775 30.1003C59.5111 29.9659 59.3958 29.862 59.2553 29.8098C59.1148 29.7577 58.9597 29.7612 58.8217 29.8197C58.6837 29.8782 58.5733 29.9873 58.5131 30.1245C58.4529 30.2618 58.4474 30.4169 58.4979 30.558C58.7051 31.1626 59.7243 31.4217 59.8452 31.1194C59.9662 30.8171 59.707 30.3076 59.5775 30.1003Z" fill="#EA7B59"/>
<path d="M59.8367 30.6444C59.7884 30.5553 59.7086 30.4874 59.6128 30.4541C59.5171 30.4209 59.4124 30.4247 59.3192 30.4647C59.2261 30.5048 59.1514 30.5782 59.1097 30.6706C59.068 30.763 59.0623 30.8676 59.0939 30.964C59.2321 31.3872 59.9576 31.5513 60.0267 31.3526C60.0958 31.154 59.9317 30.7912 59.8367 30.6444Z" fill="#FFB882"/>
<path d="M69.0267 28.4333C68.8713 27.6905 68.4048 27.1378 67.9816 27.1896C67.5584 27.2414 67.3339 27.8892 67.4893 28.632C67.6448 29.3748 68.1025 29.9275 68.5258 29.8671C68.949 29.8066 69.1563 29.1675 69.0267 28.4333Z" fill="#66423B"/>
<path d="M64.8376 28.9602C64.6908 28.0965 64.1985 27.4314 63.7321 27.4659C63.2657 27.5005 63.0152 28.2087 63.162 29.0638C63.3089 29.9189 63.8098 30.5839 64.2676 30.558C64.7253 30.5321 65.0017 29.8066 64.8376 28.9602Z" fill="#66423B"/>
<path d="M62.3933 28.8997C62.3933 28.8997 63.6457 27.5351 64.924 27.8633C64.8105 27.6264 64.622 27.4336 64.3877 27.3149C64.1534 27.1962 63.8865 27.1582 63.6284 27.2068C62.7302 27.4055 62.3933 28.8997 62.3933 28.8997Z" fill="#66423B"/>
<path d="M69.4758 27.941C69.4758 27.941 67.8521 27.1464 66.9365 27.6992C66.9683 27.4856 67.0706 27.2889 67.2271 27.1402C67.3836 26.9915 67.5854 26.8994 67.8002 26.8787C68.6726 26.775 69.4758 27.941 69.4758 27.941Z" fill="#66423B"/>
<path d="M61.4692 27.1896V27.0168C62.6308 26.3197 63.9997 26.0508 65.3386 26.2568L65.1314 26.9305C63.9172 26.5929 62.6238 26.6844 61.4692 27.1896Z" fill="#A83E36"/>
<path d="M69.5277 25.7904C69.021 25.7153 68.504 25.7539 68.014 25.9033C67.524 26.0526 67.0734 26.3091 66.6948 26.6541L66.2888 26.1531C66.7344 25.814 67.2526 25.5829 67.8026 25.478C68.3526 25.3731 68.9195 25.3972 69.4586 25.5485L69.5277 25.7904Z" fill="#A83E36"/>
<path d="M67.6533 30.7653C67.6533 30.7653 67.6533 30.8085 67.6533 30.8344C67.6461 30.9466 67.6138 31.0558 67.5588 31.1539C67.5038 31.252 67.4275 31.3364 67.3355 31.4011C67.2435 31.4657 67.1381 31.5089 67.0272 31.5274C66.9163 31.546 66.8026 31.5394 66.6946 31.5081C66.5535 31.4707 66.4216 31.4046 66.3072 31.314C66.1928 31.2233 66.0982 31.11 66.0295 30.9812C66.032 31.216 66.1121 31.4433 66.2575 31.6277C66.4028 31.8121 66.6051 31.9432 66.8328 32.0004C66.9402 32.0333 67.0536 32.0414 67.1646 32.024C67.2756 32.0067 67.3812 31.9645 67.4735 31.9005C67.5658 31.8364 67.6423 31.7523 67.6974 31.6544C67.7525 31.5566 67.7847 31.4475 67.7915 31.3354C67.7989 31.1362 67.7511 30.9389 67.6533 30.7653Z" fill="#EA7B59"/>
<path d="M65.3127 33.4083L68.2493 33.1146C68.2493 33.1146 68.1889 34.7298 66.9883 34.842C65.7878 34.9543 65.3127 33.4083 65.3127 33.4083Z" fill="#491D2E"/>
<path d="M65.5201 33.4515L68.0162 33.2096C68.0162 33.2096 68.3098 33.8833 66.902 34.0733C65.4941 34.2633 65.5201 33.4515 65.5201 33.4515Z" fill="#FFEBEB"/>
<path d="M67.6791 35.5503C67.6791 35.3603 67.4286 35.5503 67.109 35.6107C66.7895 35.6712 66.5217 35.4639 66.5476 35.6625C66.5735 35.8612 66.8413 35.9908 67.1609 35.9648C67.4804 35.9389 67.705 35.7489 67.6791 35.5503Z" fill="#EF8F6F"/>
<path d="M52.4348 100.32C53.1431 102.22 52.5644 105.001 53.3676 106.089C54.0068 106.953 57.0729 106.953 57.3061 106.322C57.5393 105.692 53.5144 100.276 53.5144 100.276L52.4348 100.32Z" fill="#FFE05C"/>
<path d="M54.6199 101.978C56.1515 103.046 57.737 104.035 59.3703 104.94C59.8539 105.251 59.543 105.476 58.0661 105.001C56.5891 104.526 56.2264 104.008 55.7341 104.457C55.2417 104.906 53.8771 101.391 54.6199 101.978Z" fill="#FFE05C"/>
<path d="M55.5874 105.269C56.4511 106.366 58.4635 109.069 58.8609 108.87C59.2582 108.672 56.4597 104.673 56.4597 104.673L55.5874 105.269Z" fill="#FFE05C"/>
<path d="M54.594 105.77C55.0777 106.936 56.2437 109.795 56.6669 109.656C57.0901 109.518 55.5786 105.338 55.5786 105.338L54.594 105.77Z" fill="#FFE05C"/>
<path d="M53.1257 105.606C53.3676 107.195 54.0844 109.7 54.5249 109.561C54.9654 109.423 54.1708 105.079 54.1708 105.079L53.1257 105.606Z" fill="#FFE05C"/>
<path d="M128.588 83.3996C128.588 83.1146 128.026 82.8814 127.327 82.8814C126.627 82.8814 126.057 83.1146 126.057 83.3996C126.057 83.6847 126.627 83.9265 127.327 83.9265C128.026 83.9265 128.588 83.6933 128.588 83.3996Z" fill="#FFE05C"/>
<path d="M124.978 85.0407C125.263 85.0407 125.548 84.3497 125.617 83.4773C125.686 82.605 125.617 82.2854 125.34 82.2768C125.064 82.2682 124.632 82.5618 124.572 83.4342C124.511 84.3065 124.693 85.032 124.978 85.0407Z" fill="#FFE05C"/>
<path d="M128.208 84.7729C128.208 84.4879 127.638 84.2547 126.938 84.2547C126.239 84.2547 125.677 84.4879 125.677 84.7729C125.677 85.0579 126.239 85.2911 126.938 85.2911C127.638 85.2911 128.208 85.0579 128.208 84.7729Z" fill="#FFE05C"/>
<path d="M126.644 86.3621C127.341 86.3621 127.905 86.1301 127.905 85.8439C127.905 85.5577 127.341 85.3257 126.644 85.3257C125.948 85.3257 125.383 85.5577 125.383 85.8439C125.383 86.1301 125.948 86.3621 126.644 86.3621Z" fill="#FFE05C"/>
</svg>
