<svg width="139" height="200" viewBox="0 0 139 200" fill="none" xmlns="http://www.w3.org/2000/svg">
<path d="M117.415 94.1592C117.552 94.0578 117.718 94.0031 117.888 94.0031C118.058 94.0031 118.224 94.0578 118.361 94.1592C118.433 94.197 118.496 94.2503 118.544 94.3153C118.593 94.3803 118.627 94.4553 118.643 94.535C118.66 94.6147 118.658 94.6969 118.639 94.7759C118.619 94.8549 118.583 94.9285 118.531 94.9915C118.396 95.0959 118.229 95.1524 118.058 95.1524C117.887 95.1524 117.721 95.0959 117.585 94.9915C117.515 94.9525 117.453 94.8986 117.405 94.8336C117.357 94.7685 117.324 94.6938 117.308 94.6147C117.292 94.5355 117.293 94.4538 117.311 94.3752C117.33 94.2965 117.365 94.2228 117.415 94.1592Z" fill="#FF9566"/>
<path d="M116.866 95.2469C117.003 95.1456 117.169 95.0908 117.339 95.0908C117.51 95.0908 117.675 95.1456 117.812 95.2469C117.884 95.2847 117.947 95.338 117.996 95.403C118.045 95.468 118.079 95.5431 118.095 95.6227C118.111 95.7024 118.11 95.7847 118.09 95.8636C118.071 95.9426 118.034 96.0163 117.983 96.0793C117.848 96.1851 117.681 96.2427 117.51 96.2427C117.338 96.2427 117.172 96.1851 117.037 96.0793C116.963 96.0428 116.899 95.9901 116.849 95.9252C116.8 95.8603 116.765 95.7848 116.749 95.7046C116.732 95.6244 116.734 95.5415 116.755 95.4622C116.775 95.3829 116.813 95.3093 116.866 95.2469Z" fill="#FF9566"/>
<path d="M117.916 93.0715C118.053 92.9701 118.219 92.9154 118.389 92.9154C118.56 92.9154 118.725 92.9701 118.862 93.0715C118.934 93.1096 118.996 93.1629 119.045 93.2276C119.094 93.2922 119.128 93.3668 119.145 93.446C119.162 93.5252 119.162 93.6072 119.144 93.6862C119.126 93.7653 119.091 93.8396 119.042 93.9038C118.906 94.0081 118.74 94.0647 118.569 94.0647C118.398 94.0647 118.232 94.0081 118.096 93.9038C118.022 93.8682 117.957 93.8162 117.906 93.7517C117.855 93.6872 117.82 93.6119 117.802 93.5316C117.785 93.4513 117.786 93.3681 117.806 93.2883C117.826 93.2086 117.864 93.1344 117.916 93.0715Z" fill="#FF9566"/>
<path d="M114.322 91.577C115.221 92.5229 116.214 95.7482 117.16 95.9658C117.86 96.136 118.493 93.8944 118.635 93.1755C118.777 92.4567 115.467 90.9906 115.467 90.9906L114.322 91.577Z" fill="#FF9566"/>
<path d="M16.1704 67.155C16.1704 67.155 10.2872 67.4009 6.83481 64.5539C6.83481 64.5728 15.007 61.4798 16.1704 67.155Z" fill="#FFEFAE"/>
<path d="M17.2017 65.2633C17.2017 65.2633 15.1775 59.9854 11.0914 58.7179C11.0914 58.7369 11.2238 67.7792 17.2017 65.2633Z" fill="#FFEFAE"/>
<path d="M11.9048 63.7499C11.9048 63.7499 7.79976 63.9296 5.39729 61.9338C5.39729 61.9338 11.1008 59.7489 11.9048 63.7499Z" fill="#FFEFAE"/>
<path d="M13.1155 63.7877C13.1155 63.7877 11.8764 60.0043 9.08613 58.9828C9.12397 58.9828 8.92533 65.2633 13.1155 63.7877Z" fill="#FFEFAE"/>
<path d="M9.83325 61.8676C9.83325 61.8676 8.5658 59.276 6.42816 58.8504C6.42816 58.8504 6.89164 63.4851 9.83325 61.8676Z" fill="#FFEFAE"/>
<path d="M18.9985 60.9596C18.9985 60.9596 13.2477 62.3027 9.39809 60.1367C9.39809 60.1367 16.9744 55.5115 18.9985 60.9596Z" fill="#FFEFAE"/>
<path d="M19.7363 58.8977C19.7363 58.8977 16.8988 54.0738 12.7086 53.5819C12.6897 53.5819 14.2314 62.473 19.7363 58.8977Z" fill="#FFEFAE"/>
<path d="M14.2598 58.3774C14.2598 58.3774 10.2493 59.3233 7.57255 57.8099C7.57255 57.8099 12.8504 54.5845 14.2598 58.3774Z" fill="#FFEFAE"/>
<path d="M15.5085 58.1788C15.5085 58.1788 13.702 54.717 10.7793 54.2062C10.7887 54.2062 11.5643 60.4489 15.5085 58.1788Z" fill="#FFEFAE"/>
<path d="M11.9331 56.9114C11.9331 56.9114 10.2873 54.5845 8.14968 54.5751C8.11184 54.5751 9.28471 59.0584 11.9331 56.9114Z" fill="#FFEFAE"/>
<path d="M18.4878 50.3471C18.4878 50.3471 12.7559 51.8037 8.87789 49.7134C8.87789 49.7134 16.3691 44.9368 18.4878 50.3471Z" fill="#FFEFAE"/>
<path d="M19.1782 48.2378C19.1782 48.2378 16.2839 43.5086 12.0654 43.064C12.0654 43.1018 13.7585 51.9551 19.1782 48.2378Z" fill="#FFEFAE"/>
<path d="M13.7112 47.869C13.7112 47.869 9.71966 48.8905 7.01451 47.4244C7.01451 47.4244 12.2356 44.095 13.7112 47.869Z" fill="#FFEFAE"/>
<path d="M14.9504 47.642C14.9504 47.642 13.0587 44.2085 10.1644 43.7639C10.1644 43.7639 11.0535 49.9877 14.9504 47.642Z" fill="#FFEFAE"/>
<path d="M11.3655 46.4407C11.3655 46.4407 9.6724 44.1612 7.49693 44.1801C7.49693 44.1801 8.74545 48.6351 11.3655 46.4407Z" fill="#FFEFAE"/>
<path d="M20.1714 45.7313C20.1714 45.7313 15.9623 46.8096 13.1153 45.2679C13.1153 45.2679 18.6202 41.7587 20.1714 45.7313Z" fill="#FFEFAE"/>
<path d="M20.6824 44.2085C20.6824 44.2085 18.5542 40.7088 15.4518 40.4251C15.4518 40.4062 16.7003 46.9137 20.6824 44.2085Z" fill="#FFEFAE"/>
<path d="M16.6624 43.9058C16.6624 43.9058 13.7302 44.6625 11.7439 43.5842C11.7439 43.5842 15.5841 41.1345 16.6624 43.9058Z" fill="#FFEFAE"/>
<path d="M17.5798 43.745C17.5798 43.745 16.2083 41.2196 14.0612 40.9075C14.0612 40.8885 14.7139 45.4759 17.5798 43.745Z" fill="#FFEFAE"/>
<path d="M14.9409 42.8654C14.9409 42.8654 13.7018 41.1818 12.1033 41.2007C12.1033 41.2007 13.0208 44.4544 14.9409 42.8654Z" fill="#FFEFAE"/>
<path d="M21.0701 40.8602C21.0701 40.8602 16.284 42.4965 12.8506 41.0966C12.8506 41.0966 18.923 36.6133 21.0701 40.8602Z" fill="#FFEFAE"/>
<path d="M21.5334 39.1103C21.5334 39.1103 18.7526 35.4499 15.13 35.4499C15.13 35.4499 17.1447 42.5627 21.5334 39.1103Z" fill="#FFEFAE"/>
<path d="M16.842 39.2049C16.842 39.2049 13.5126 40.3494 11.1102 39.3752C11.1102 39.3752 15.3476 36.2444 16.842 39.2049Z" fill="#FFEFAE"/>
<path d="M17.8447 38.9306C17.8447 38.9306 16.0381 36.2728 13.5127 36.093C13.56 36.1309 14.7139 41.1534 17.8447 38.9306Z" fill="#FFEFAE"/>
<path d="M14.7517 38.2307C14.7517 38.2307 13.1627 36.4903 11.3183 36.6795C11.3183 36.6795 12.6708 40.2264 14.7517 38.2307Z" fill="#FFEFAE"/>
<path d="M22.2334 33.9554C22.2334 33.9554 19.2256 30.6165 15.8772 30.7584C15.8772 30.7584 18.5729 37.3605 22.2334 33.9554Z" fill="#FFEFAE"/>
<path d="M21.7888 35.8377C21.7888 35.8377 17.9014 38.4388 15.0543 37.143C15.007 37.143 19.9255 30.8814 21.7888 35.8377Z" fill="#FFEFAE"/>
<path d="M18.1379 34.05C18.1379 34.05 16.0476 31.7327 13.7113 31.8272C13.7113 31.8272 15.5841 36.4336 18.1379 34.05Z" fill="#FFEFAE"/>
<path d="M18.7905 34.7026C18.7905 34.7026 16.1327 36.67 14.0612 35.9039C14.1275 35.9417 17.3717 31.3732 18.7905 34.7026Z" fill="#FFEFAE"/>
<path d="M16.0381 34.2675C16.0381 34.2675 13.9856 35.4026 12.6235 34.5513C12.6235 34.5513 15.3287 31.5529 16.0381 34.2675Z" fill="#FFEFAE"/>
<path d="M19.2161 55.4264C19.2161 55.4264 14.7895 56.4668 11.8289 54.7926C11.8289 54.7926 17.6554 51.2362 19.2161 55.4264Z" fill="#FFEFAE"/>
<path d="M19.7363 53.8468C19.7363 53.8468 17.5609 50.139 14.326 49.7607C14.3639 49.7607 15.5556 56.5898 19.7363 53.8468Z" fill="#FFEFAE"/>
<path d="M15.5747 53.4495C15.5747 53.4495 12.4818 54.1684 10.4292 53.005C10.4292 52.9671 14.487 50.5268 15.5747 53.4495Z" fill="#FFEFAE"/>
<path d="M16.5298 53.2982C16.5298 53.2982 15.1394 50.6214 12.8977 50.2336C12.8977 50.2336 13.4936 55.0386 16.5298 53.2982Z" fill="#FFEFAE"/>
<path d="M13.7776 52.3145C13.7776 52.3145 12.5101 50.5268 10.836 50.5174C10.836 50.5174 11.744 53.9603 13.7776 52.3145Z" fill="#FFEFAE"/>
<path d="M15.8867 70.0777C15.8867 70.0777 10.6278 72.7261 6.51329 71.5438C6.49437 71.5438 12.8789 65.32 15.8867 70.0777Z" fill="#FFE094"/>
<path d="M16.1799 67.9306C16.1799 67.9306 12.5289 63.958 8.39552 64.4877C8.38606 64.4877 11.6114 72.6504 16.1799 67.9306Z" fill="#FFE094"/>
<path d="M10.8357 68.7156C10.8357 68.7156 7.17522 70.6074 4.29982 69.7466C4.29982 69.7466 8.73589 65.4051 10.8357 68.7156Z" fill="#FFE094"/>
<path d="M11.99 68.2333C11.99 68.2333 9.58751 65.3295 6.68373 65.5281C6.68373 65.5281 8.66057 71.3451 11.99 68.2333Z" fill="#FFE094"/>
<path d="M8.31982 67.8549C8.31982 67.8549 6.27678 66.0105 4.18643 66.5118C4.18643 66.5118 6.19165 70.5411 8.31982 67.8549Z" fill="#FFE094"/>
<path d="M23.7942 72.9531C23.7942 72.9531 18.7244 76.2257 14.4586 75.5069C14.4586 75.5069 20.304 68.4886 23.7942 72.9531Z" fill="#FFE094"/>
<path d="M23.8887 70.7492C23.8887 70.7492 19.8215 67.155 15.6881 68.1481C15.6881 68.1481 19.7364 76.046 23.8887 70.7492Z" fill="#FFE094"/>
<path d="M18.5635 72.1586C18.5635 72.1586 15.026 74.4381 12.056 73.9368C12.056 73.9368 16.1326 69.0467 18.5635 72.1586Z" fill="#FFE094"/>
<path d="M19.689 71.5343C19.689 71.5343 16.9744 68.867 14.0138 69.4061C14.0611 69.4061 16.6055 75.0623 19.689 71.5343Z" fill="#FFE094"/>
<path d="M15.9529 71.5627C15.9529 71.5627 13.7207 69.9358 11.6492 70.683C11.6303 70.683 14.0612 74.5232 15.9529 71.5627Z" fill="#FFE094"/>
<path d="M20.1335 70.9384C20.1335 70.9384 14.2882 70.2006 11.2709 66.7956C11.2236 66.7483 19.793 65.0268 20.1335 70.9384Z" fill="#FFE094"/>
<path d="M21.4202 69.198C21.4202 69.198 20.1527 63.6459 16.2936 61.7068C16.2936 61.7068 15.1775 70.6641 21.4202 69.198Z" fill="#FFE094"/>
<path d="M16.3879 66.7956C16.3879 66.7956 12.3113 66.2753 10.2115 63.9107C10.2115 63.9107 16.1515 62.7 16.3879 66.7956Z" fill="#FFE094"/>
<path d="M17.6272 67.0509C17.6272 67.0509 16.9273 63.1256 14.3072 61.6217C14.3072 61.6217 13.2384 67.8171 17.6272 67.0509Z" fill="#FFE094"/>
<path d="M14.6099 64.5822C14.6099 64.5822 13.7208 61.8109 11.6682 61.0353C11.6682 61.0353 11.4791 65.6889 14.6099 64.5822Z" fill="#FFE094"/>
<path d="M29.1951 36.5754C29.1951 36.5754 23.3213 37.0105 19.7932 34.2675C19.8216 34.2675 27.9182 30.8719 29.1951 36.5754Z" fill="#FFEFAE"/>
<path d="M30.1978 34.6459C30.1978 34.6459 28.0317 29.4437 23.9267 28.2992C23.9267 28.2992 24.3051 37.3321 30.1978 34.6459Z" fill="#FFEFAE"/>
<path d="M24.8628 33.2933C24.8628 33.2933 20.7672 33.596 18.3175 31.6853C18.3175 31.6853 23.9548 29.3207 24.8628 33.2933Z" fill="#FFEFAE"/>
<path d="M26.1208 33.2838C26.1208 33.2838 24.7777 29.5761 21.9591 28.6208C21.9591 28.6208 21.9307 34.9202 26.1208 33.2838Z" fill="#FFEFAE"/>
<path d="M22.7441 31.4678C22.7441 31.4678 21.4199 28.9235 19.2634 28.564C19.2634 28.564 19.8498 33.1798 22.7441 31.4678Z" fill="#FFEFAE"/>
<path d="M37.7077 44.0004C37.7077 44.0004 32.3163 41.6547 30.4625 37.5875C30.4435 37.5875 39.1927 38.3442 37.7077 44.0004Z" fill="#FFEFAE"/>
<path d="M39.4574 42.7519C39.4574 42.7519 39.9587 37.1335 36.8563 34.2392C36.8563 34.2108 32.9783 42.3925 39.4574 42.7519Z" fill="#FFEFAE"/>
<path d="M35.3619 39.063C35.3619 39.063 31.5785 37.4362 30.311 34.5986C30.311 34.5986 36.4118 35.1188 35.3619 39.063Z" fill="#FFEFAE"/>
<path d="M36.478 39.6495C36.478 39.6495 37.0172 35.7336 34.9647 33.5771C34.9647 33.5771 32.0325 39.1482 36.478 39.6495Z" fill="#FFEFAE"/>
<path d="M34.3403 36.4714C34.3403 36.4714 34.3403 33.6338 32.6094 32.2812C32.6094 32.2812 30.9731 36.6417 34.3403 36.4714Z" fill="#FFEFAE"/>
<path d="M43.3826 49.0797C43.3826 49.0797 39.0222 46.8096 39.3911 40.1035C39.3911 40.1035 42.9665 41.7587 43.7421 45.2111C44.669 49.4296 42.834 49.6945 43.3826 49.0797Z" fill="#FFEFAE"/>
<path d="M116.602 93.866C97.9493 76.5284 65.8469 40.5197 65.1375 38.5617C64.4281 36.6038 79.3727 41.0682 80.9333 43.291C82.494 45.5138 117.16 93.1944 117.16 93.1944L116.602 93.866Z" fill="#FFB882"/>
<path d="M80.9052 43.3383C81.4254 44.095 85.6344 49.8647 90.9785 57.2424C90.2502 60.1651 89.8246 62.823 90.1083 63.5513C90.5813 64.7998 103.653 78.3823 117.481 92.958L116.602 93.9038C97.9495 76.5284 65.8471 40.5197 65.1377 38.5617C64.4283 36.6038 79.3256 41.0682 80.9052 43.3383Z" fill="#FF9566"/>
<path d="M135.273 17.8758C134.63 22.1889 131.111 25.2441 127.422 24.686C123.733 24.1279 121.265 20.1837 121.908 15.8706C122.551 11.5575 126.079 8.51185 129.768 9.05099C133.457 9.59013 135.925 13.5533 135.273 17.8758Z" fill="#FFAD40"/>
<path d="M126.353 17.5732C129.73 18.0745 132.974 15.549 133.977 11.8034C135.154 13.5941 135.616 15.7609 135.273 17.8758C134.63 22.1889 131.111 25.2441 127.422 24.686C123.733 24.128 121.265 20.1837 121.908 15.8706C121.966 15.5133 122.045 15.1596 122.144 14.8113C122.614 15.5398 123.232 16.1619 123.957 16.6375C124.681 17.1132 125.498 17.4319 126.353 17.5732Z" fill="#FC8A35"/>
<path d="M128.245 12.5223C127.981 11.541 127.462 10.647 126.741 9.93065C127.54 9.56741 128.426 9.43945 129.295 9.56176C130.273 9.72166 131.177 10.1849 131.877 10.886C131.524 11.5616 131.041 12.1604 130.455 12.6475C129.869 13.1347 129.191 13.5004 128.463 13.7235C128.427 13.3173 128.354 12.9152 128.245 12.5223Z" fill="#FFDD7D"/>
<path d="M125.966 10.4036C126.415 11.1983 126.695 12.0775 126.789 12.9858C126.808 13.3007 126.808 13.6166 126.789 13.9316H126.543C125.564 13.7717 124.661 13.3085 123.96 12.6074C124.436 11.7181 125.125 10.9609 125.966 10.4036Z" fill="#FFDD7D"/>
<path d="M116.545 22.2552C121.274 21.3093 134.299 23.2861 138.527 25.5562C139.34 25.9818 138.763 29.491 137.855 29.6423L133.75 29.6991L126.978 38.4577L122.835 60.1084L121.482 59.9003L123.781 37.9753L119.903 27.6182L115.987 26.3602C115.173 25.944 115.646 22.4349 116.545 22.2552Z" fill="#FFAD40"/>
<path d="M121.057 24.4023C119.419 24.2472 117.774 24.1778 116.129 24.1942C116.28 23.4375 116.573 22.7659 116.952 22.6997C118.405 22.4907 119.875 22.4337 121.34 22.5295L121.057 24.4023Z" fill="#FFDD7D"/>
<path d="M123.544 22.6997C128.879 23.1443 135.311 24.4495 137.968 25.8589C138.299 26.0291 138.394 26.7101 138.328 27.4479C133.372 26.0784 128.309 25.1292 123.194 24.6103L123.544 22.6997Z" fill="#FFDD7D"/>
<path d="M115.117 51.5483C118.673 50.6025 128.425 52.0497 131.546 54.017C131.674 54.1235 131.772 54.262 131.83 54.4185C131.887 54.575 131.902 54.7439 131.873 54.908C131.845 55.0722 131.773 55.2259 131.666 55.3534C131.558 55.481 131.419 55.5779 131.262 55.6344L128.188 55.7101L123.242 61.4798L101.771 199.878L100.759 199.726L120.868 61.1204L117.831 54.1589L114.918 53.2131C114.776 53.1154 114.662 52.9807 114.591 52.8233C114.52 52.666 114.493 52.4921 114.513 52.3205C114.534 52.149 114.601 51.9863 114.707 51.8502C114.814 51.7141 114.955 51.6097 115.117 51.5483Z" fill="#FFAD40"/>
<path d="M123.298 54.8588C126.093 55.3139 128.931 55.4346 131.754 55.2183C131.705 55.3167 131.636 55.4038 131.551 55.4739C131.467 55.5439 131.368 55.5954 131.262 55.625L128.188 55.7007L123.241 61.4798L121.671 71.5532C121.444 69.9358 121.075 69.0278 120.565 68.9521C120.29 68.9521 119.978 69.1224 119.619 69.548L120.839 61.1204L117.803 54.1589L114.89 53.2131C114.772 53.1357 114.676 53.0303 114.61 52.9064C114.544 52.7825 114.51 52.6441 114.511 52.5037C117.321 53.6798 120.277 54.472 123.298 54.8588Z" fill="#FC8A35"/>
<path d="M118.683 53.0333C117.292 52.7401 116.072 52.4375 115.126 52.1442C115.174 52.0644 115.237 51.9949 115.311 51.9397C115.386 51.8845 115.471 51.8447 115.561 51.8226C116.661 51.6424 117.778 51.5853 118.891 51.6524L118.683 53.0333Z" fill="#FFDD7D"/>
<path d="M121 51.7943C124.783 52.1631 129.163 53.0995 131.045 54.1495C131.121 54.1931 131.188 54.2515 131.242 54.3214C131.295 54.3912 131.335 54.471 131.357 54.5562C128.587 54.51 125.824 54.2635 123.09 53.8184C122.286 53.6954 121.501 53.5725 120.754 53.4401L121 51.7943Z" fill="#FFDD7D"/>
<path d="M137.855 29.6423L133.75 29.6991L126.978 38.4577L126.552 40.6332C126.211 39.6022 125.748 38.959 125.171 38.8739C124.594 38.7887 124.15 39.1293 123.61 39.7724L123.781 37.9753L119.903 27.6182L115.987 26.3602C121.889 24.7806 134.431 26.9939 137.855 29.6423Z" fill="#FC8A35"/>
<path d="M51.0157 14.187C51.4603 8.51186 54.7992 8.97533 54.7992 8.97533C54.7992 8.97533 54.9694 2.88401 60.55 0.642329C66.1305 -1.59935 66.5278 2.75159 66.5278 2.75159C66.5278 2.75159 69.7721 1.59764 72.2029 3.21506C74.6338 4.83248 73.896 8.15243 73.896 8.15243C74.7048 8.8259 75.3381 9.68547 75.7417 10.6574C76.1453 11.6294 76.3072 12.6847 76.2134 13.733C76.1093 17.5637 72.7799 20.2689 72.7799 20.2689C72.7799 20.2689 70.6801 25.8589 63.3213 28.8478L61.9593 28.6302C53.1155 27.0979 53.7398 22.2362 53.7398 22.2362C53.7398 22.2362 50.5806 19.6541 51.0157 14.187Z" fill="#843D44"/>
<path d="M73.3477 9.3253C73.6206 9.0296 73.8704 8.71339 74.0949 8.37944C74.2632 8.52287 74.4183 8.68115 74.5583 8.85237C74.0264 9.62886 73.3234 10.2731 72.5036 10.7354C71.6837 11.1978 70.7688 11.4661 69.8291 11.5197C71.2003 11.1689 72.4294 10.4024 73.3477 9.3253Z" fill="#6D2933"/>
<path d="M67.0292 3.67854C65.3172 5.57025 64.8065 8.02948 65.601 9.72256C64.7564 8.71125 64.272 7.44781 64.224 6.13106C64.1761 4.8143 64.5673 3.51898 65.3361 2.44892C65.5596 2.10907 65.8162 1.79223 66.1023 1.50307C66.3128 1.88424 66.4507 2.30117 66.509 2.73268C67.1741 2.51916 67.864 2.392 68.5615 2.35434C67.9937 2.72508 67.4784 3.17047 67.0292 3.67854Z" fill="#6D2933"/>
<path d="M51.016 14.187C51.4606 8.51186 54.7994 8.97533 54.7994 8.97533C54.9714 6.60537 55.9494 4.36566 57.5708 2.62863C57.0313 3.69916 56.7864 4.89401 56.8614 6.09047C56.9185 7.19573 57.2226 8.27414 57.7513 9.24643C58.28 10.2187 59.0199 11.0601 59.9165 11.7089C59.9165 11.7089 59.5571 15.0099 62.2339 16.6651C64.1032 17.6552 66.2843 17.8791 68.3157 17.2894C68.3157 17.2894 68.9873 20.5999 72.9883 20.0608L72.7518 20.2689C72.7518 20.2689 70.652 25.8589 63.2932 28.8478L61.9312 28.6302C53.0875 27.0979 53.7117 22.2362 53.7117 22.2362C53.7117 22.2362 50.5809 19.6541 51.016 14.187Z" fill="#6D2933"/>
<path d="M37.0455 60.0232C38.3224 56.1074 46.9675 44.2463 58.5164 34.9958L59.2258 45.7881C55.2059 47.7933 44.0165 58.6423 42.4369 61.4798C40.8573 64.3174 40.3371 81.7874 40.3371 81.7874L39.7128 81.9576C38.8142 79.2525 35.8159 63.9391 37.0455 60.0232Z" fill="#FF9566"/>
<path d="M58.5165 34.9958L58.6772 37.4645C58.1476 39.0347 57.5422 41.6168 56.3032 43.3383C53.2291 47.5568 48.2066 48.1716 46.4946 46.5448C50.1754 42.369 54.1965 38.5061 58.5165 34.9958Z" fill="#FFB882"/>
<path d="M28.3059 31.6381C41.5479 40.2737 56.9938 58.6423 70.8127 85.4857L69.8669 95.9563C58.9612 83.7169 14.6099 72.3099 14.6099 72.3099C6.36206 65.3673 11.5832 34.7594 28.3059 31.6381Z" fill="#FFEFAE"/>
<path d="M54.5913 67.6941C55.8651 66.1991 56.7951 64.4426 57.3154 62.5487C62.2674 69.9186 66.7746 77.578 70.8127 85.4857L69.8669 95.9563C58.9612 83.7169 14.6099 72.3099 14.6099 72.3099C14.1012 71.8765 13.6527 71.3771 13.2763 70.8249C30.4057 78.0229 47.6676 75.8758 54.5913 67.6941Z" fill="#FFE094"/>
<path d="M60.2286 58.1315C55.679 50.2052 55.0074 38.7793 56.4641 36.8876C58.5549 34.5717 61.044 32.6496 63.8134 31.2124C65.4686 30.5409 73.6976 32.8298 74.3975 34.8256C75.0974 36.8214 79.5903 58.3207 60.2286 58.1315Z" fill="#FFB882"/>
<path d="M63.8418 20.2499L59.1882 15.7571C57.2303 23.9104 62.3946 30.7962 57.4005 36.5092L73.3855 33.4825C60.7394 30.4747 63.8418 20.2499 63.8418 20.2499Z" fill="#FFB882"/>
<path d="M63.3592 50.7349C67.1426 50.7349 76.5255 42.3546 71.9381 33.0001C73.2056 33.5865 74.1798 34.2486 74.3974 34.8918C75.0878 36.897 79.5901 58.3396 60.2095 58.1504C57.5304 53.3465 55.8781 48.0385 55.3573 42.5627C56.1234 44.5679 60.0771 50.7349 63.3592 50.7349Z" fill="#FF9566"/>
<path d="M103.473 156.576C103.473 161.419 99.9356 199.953 99.9356 199.953H53.4752L103.473 156.576Z" fill="#FFE05C"/>
<path d="M101.912 156.576C101.912 161.419 97.1831 199.953 97.1831 199.953H51.8954L101.912 156.576Z" fill="#E2632B"/>
<path d="M98.2427 103.448C100.626 130.054 94.866 166.924 87.4032 199.925H86.8924L82.7779 108.111L98.2427 103.448Z" fill="#FFB882"/>
<path d="M86.1829 184.101L82.7778 108.139L98.2709 103.41C100.011 122.8 97.4196 147.628 93.0025 172.457C90.2107 176.01 87.9163 179.928 86.1829 184.101Z" fill="#FF9566"/>
<path d="M53.4749 199.953H2.89993C2.89993 199.953 1.3298 198.194 2.11486 197.608C2.89993 197.021 21.9779 192.122 24.1344 187.203C26.291 182.285 39.2019 147.893 42.5219 138.7C45.8418 129.506 48.5186 77.1716 64.5603 68.9521L60.408 57.5451C60.408 57.5451 68.9869 53.7617 79.7035 59.1057C85.0098 61.7541 90.4295 67.382 94.5724 75.5447C107.096 100.184 103.899 155.545 103.312 157.305C102.726 159.064 53.4749 199.953 53.4749 199.953Z" fill="#FFE05C"/>
<path d="M59.3489 150.854C77.9255 131.681 81.6427 100.383 81.6427 100.383C82.8156 130.896 64.8916 180.516 45.9744 199.953L59.3489 150.854Z" fill="#FFCB4A"/>
<path d="M71.8721 181.471C90.8743 158.146 95.8685 119.177 95.8685 119.177C96.4171 133.185 93.3809 151.194 88.3016 168.854C81.4536 175.692 71.8721 181.471 71.8721 181.471Z" fill="#FFCB4A"/>
<path d="M1.12196 196.539C1.89757 195.952 23.1604 188.111 25.3075 183.221C27.4546 178.331 39.2022 147.922 42.5221 138.766C45.8421 129.61 47.8094 76.9446 63.8417 68.7724L59.6705 57.2235C66.3582 55.2478 73.55 55.9253 79.751 59.1152C83.5952 61.1807 86.9426 64.06 89.5596 67.5522C87.2233 66.4551 80.9901 66.124 78.4552 67.7887C51.1483 85.6465 72.8463 153.408 48.3108 199.963H2.90964C2.90964 199.963 0.336906 197.125 1.12196 196.539Z" fill="#FFCB4A"/>
<path d="M61.0798 70.6641C61.9072 69.8863 62.8363 69.2245 63.8417 68.6967L59.6705 57.2235C66.3582 55.2478 73.55 55.9253 79.751 59.1152C83.1926 60.9458 86.2295 63.4519 88.6799 66.4834C79.8362 63.1351 75.1447 66.4456 61.0798 70.6641Z" fill="#FFAC3E"/>
<path d="M72.4489 33.1609C77.3484 45.5705 66.5656 49.108 59.4623 56.2965C59.0938 56.6712 58.852 57.1517 58.7705 57.6708C58.6891 58.1899 58.7722 58.7214 59.0082 59.1909C59.8879 60.9312 61.3634 63.5796 62.5552 64.2607C64.3807 65.3011 84.4045 60.9312 86.2016 59.6354C87.9988 58.3396 89.4648 53.3738 89.4648 51.1227C89.4648 48.8716 74.4636 33.5203 73.3853 33.1514C72.307 32.7825 72.4489 33.1609 72.4489 33.1609Z" fill="#FFE05C"/>
<path d="M73.953 33.4919C74.6529 34.0689 75.996 35.3837 77.6229 37.0011C79.647 43.8302 78.1904 47.8311 78.1904 47.8311C78.1904 47.8311 79.193 42.5627 73.953 33.4919Z" fill="#FFCB4A"/>
<path d="M83.6575 50.6971C81.0299 53.7584 77.8043 56.2504 74.1788 58.0201C70.5532 59.7897 66.6043 60.7997 62.5743 60.988L59.68 58.9733C70.5101 59.7773 83.6575 50.6971 83.6575 50.6971Z" fill="#FFCB4A"/>
<path d="M61.2313 59.7962C63.3027 60.7421 79.0512 60.1367 88.0841 53.3928C88.6496 52.9424 89.13 52.3946 89.5029 51.7754C89.2854 54.1873 88.1409 58.5666 86.4762 59.7584C84.6507 61.0637 64.1918 65.6322 62.3001 64.5823C61.1083 63.9012 59.8881 60.9312 59.0085 59.1909C58.7459 58.6636 58.6788 58.0603 58.8193 57.4883C59.433 58.4347 60.2588 59.2249 61.2313 59.7962Z" fill="#FFCB4A"/>
<path d="M45.9744 199.953H2.11499C2.11499 199.953 -0.817162 197.702 0.223282 196.718C1.26372 195.735 21.2591 197.608 21.2591 197.608L55.887 193.692L45.9744 199.953Z" fill="#FCDD9A"/>
<path d="M103.748 153.029C103.697 154.46 103.567 155.888 103.36 157.305C102.773 159.064 53.4753 199.953 53.4753 199.953H45.9746C57.9965 190.419 97.5995 158.903 103.748 153.029Z" fill="#FFF1AB"/>
<path d="M68.694 31.761C72.2505 35.204 66.528 42.2128 58.2896 35.2229C57.8698 35.3398 57.5067 35.6054 57.2681 35.9701C57.2681 35.9701 61.9974 46.0056 69.1386 42.487C75.7596 39.2428 70.3682 32.7542 70.3682 32.7542C69.843 32.3706 69.2824 32.0381 68.694 31.761Z" fill="#FF9566"/>
<path d="M68.9209 31.8461C72.4773 35.2985 66.6508 41.8911 58.4408 34.8918C58.2346 34.9092 58.039 34.9906 57.8813 35.1245C57.7236 35.2585 57.6117 35.4384 57.5611 35.639C57.5611 35.639 61.6473 45.0976 69.4411 41.9479C75.75 39.3562 70.387 32.3096 70.387 32.3096C69.9366 32.0531 69.4369 31.8951 68.9209 31.8461Z" fill="#FFEFAE"/>
<path d="M58.1856 20.1364C58.9329 18.2447 57.5803 16.0409 56.5777 16.7881C56.3866 16.9717 56.2345 17.192 56.1307 17.4358C56.0268 17.6796 55.9733 17.9419 55.9733 18.2069C55.9733 18.4719 56.0268 18.7342 56.1307 18.978C56.2345 19.2218 56.3866 19.4421 56.5777 19.6257C57.0437 19.9667 57.6083 20.146 58.1856 20.1364Z" fill="#FFB882"/>
<path d="M66.7929 37.9375L68.2968 42.2222C69.1249 41.9395 69.9133 41.5517 70.6426 41.0682L68.0888 37.4456L66.7929 37.9375Z" fill="#FFE576"/>
<path d="M69.7439 35.6674L72.2599 36.0647C72.4213 36.7136 72.4756 37.3845 72.4206 38.051L69.4223 36.2538L69.7439 35.6674Z" fill="#FFE576"/>
<path d="M64.6458 38.0037L64.2863 42.2411C63.5117 41.9353 62.7778 41.5351 62.1014 41.0493L63.5864 37.8334L64.6458 38.0037Z" fill="#FFE576"/>
<path d="M61.042 36.8308L59.4908 38.6658L58.7246 37.6064L60.1056 36.3106L61.042 36.8308Z" fill="#FFE576"/>
<path d="M70.0276 33.6433L69.81 32.9812L70.8316 32.9339L71.2383 33.7379L70.0276 33.6433Z" fill="#FFE576"/>
<g style="mix-blend-mode:multiply" opacity="0.6">
<path d="M57.3624 35.9417C57.4327 35.852 57.5085 35.7667 57.5894 35.6863C57.6399 35.4857 57.7519 35.3058 57.9096 35.1718C58.0673 35.0378 58.2629 34.9565 58.4691 34.9391L58.592 34.835C58.6961 34.6459 58.7907 34.4472 58.8758 34.2486C58.9515 34.0689 59.0271 33.8892 59.0934 33.7095V33.6338C59.1596 33.4541 59.2069 33.2838 59.2541 33.1041V33.019C59.3014 32.8393 59.3393 32.669 59.3771 32.4988C59.3727 32.4642 59.3727 32.4293 59.3771 32.3947C59.3771 32.2245 59.4339 32.0542 59.4528 31.8745C59.4717 31.6948 59.4528 31.8083 59.4528 31.7705L59.5095 31.2502C59.5049 31.2126 59.5049 31.1744 59.5095 31.1367C59.5095 30.9665 59.5095 30.7962 59.5095 30.6165C59.5095 30.4368 59.5095 30.5409 59.5095 30.503V29.8598C59.5095 29.6801 59.5095 29.5004 59.5095 29.3207C59.5142 29.283 59.5142 29.2449 59.5095 29.2072V28.6681C59.5048 28.6272 59.5048 28.586 59.5095 28.5451L59.4528 28.0154C59.4528 27.9681 59.4528 27.9208 59.4528 27.8641L59.396 27.3912C59.396 27.3249 59.396 27.2493 59.396 27.1831C59.396 27.1169 59.396 26.9844 59.396 26.8804C58.9609 23.4942 58.2232 19.8243 59.1785 15.8517L63.8321 20.3445C63.3457 22.2594 63.3915 24.2708 63.9645 26.1615C64.7976 28.6386 66.5804 30.6833 68.9208 31.8461C69.4399 31.8946 69.9428 32.0526 70.3963 32.3096L70.4815 32.4326C70.7558 32.5272 71.0111 32.6312 71.276 32.7352C71.6695 33.4298 71.9064 34.2019 71.9701 34.9976C72.0338 35.7933 71.9228 36.5933 71.6449 37.3416C70.0464 41.125 63.4821 41.8533 56.9935 39.0819C56.2636 38.765 55.5502 38.4114 54.8559 38.0226C55.6788 37.3037 56.5301 36.5943 57.3624 35.9417Z" fill="#C94343"/>
</g>
<path d="M66.2157 27.7884C61.9688 26.4453 58.9799 22.1133 58.7339 19.6351C58.488 17.157 59.1974 11.1224 63.9834 10.6779C68.7695 10.2333 69.3086 14.8018 69.3748 18.2447C69.4599 22.2457 66.2157 27.7884 66.2157 27.7884Z" fill="#FFB882"/>
<path d="M57.9112 19.7013C58.3274 18.6514 57.5707 17.4124 56.9653 17.8096C56.8563 17.9122 56.7693 18.0361 56.7099 18.1735C56.6505 18.311 56.6198 18.4591 56.6198 18.6089C56.6198 18.7586 56.6505 18.9068 56.7099 19.0442C56.7693 19.1817 56.8563 19.3055 56.9653 19.4081C57.2363 19.6141 57.5712 19.7179 57.9112 19.7013Z" fill="#EA7B59"/>
<path d="M57.9395 19.7865C58.2138 19.096 57.7125 18.2826 57.3437 18.5569C57.2705 18.6234 57.2121 18.7044 57.1721 18.7948C57.1321 18.8852 57.1114 18.983 57.1114 19.0818C57.1114 19.1807 57.1321 19.2784 57.1721 19.3688C57.2121 19.4592 57.2705 19.5403 57.3437 19.6068C57.5163 19.7322 57.7263 19.7955 57.9395 19.7865Z" fill="#FFB882"/>
<path d="M92.7944 164.739C102.48 151.44 102.47 127.132 102.792 109.208C105.213 132.429 103.738 156.113 103.36 157.305L102.054 157.569L92.7944 164.739Z" fill="#FFF1AB"/>
<path d="M91.8865 73.776C87.318 68.0441 77.8594 67.155 72.0235 71.4302C66.1875 75.7055 65.1376 88.6448 65.1376 88.6448C65.1376 88.6448 70.8128 73.4544 77.9824 71.4302C85.152 69.4061 91.8865 73.776 91.8865 73.776Z" fill="#FFCB4A"/>
<path d="M67.7009 17.4691C67.6063 16.7219 67.1712 16.1449 66.755 16.1828C66.3389 16.2206 66.0362 16.8732 66.1308 17.6299C66.2254 18.3866 66.6415 18.9163 67.0293 18.9163C67.4171 18.9163 67.7955 18.2258 67.7009 17.4691Z" fill="#66423B"/>
<path d="M63.3877 17.8758C63.3026 17.0056 62.858 16.3152 62.3756 16.3341C61.8932 16.353 61.5811 17.0624 61.6662 17.9326C61.7514 18.8028 62.2054 19.4933 62.6783 19.4838C63.1512 19.4743 63.4728 18.746 63.3877 17.8758Z" fill="#66423B"/>
<path d="M60.8717 17.7434C61.6009 17.0477 62.5601 16.6438 63.5674 16.6084C63.4164 16.4004 63.2018 16.2473 62.9561 16.1722C62.7103 16.0971 62.4468 16.1041 62.2054 16.1922C61.25 16.4571 60.8717 17.7434 60.8717 17.7434Z" fill="#66423B"/>
<path d="M68.1926 16.7786C67.4021 16.3539 66.4826 16.236 65.6104 16.4476C65.6931 16.2333 65.8426 16.0513 66.0369 15.9286C66.2311 15.806 66.4597 15.7491 66.6887 15.7666C67.5684 15.7571 68.1926 16.7786 68.1926 16.7786Z" fill="#66423B"/>
<path d="M60.238 16.0787L60.1718 15.899C60.3504 15.3893 60.6398 14.9255 61.0193 14.5411C61.3988 14.1567 61.8588 13.8614 62.3662 13.6762L62.5081 14.3289C62.0227 14.4318 61.5668 14.6425 61.1738 14.9454C60.7809 15.2483 60.4611 15.6356 60.238 16.0787Z" fill="#843D44"/>
<path d="M68.8263 15.3315C68.6007 14.9668 68.2863 14.6653 67.9124 14.4552C67.5385 14.2451 67.1175 14.1333 66.6887 14.1303V13.4682C67.1696 13.5389 67.6254 13.728 68.015 14.0186C68.4047 14.3092 68.716 14.6921 68.9209 15.1329L68.8263 15.3315Z" fill="#843D44"/>
<path d="M66.0832 20.1081C66.0878 20.1331 66.0878 20.1587 66.0832 20.1837C66.0664 20.2984 66.0251 20.4081 65.962 20.5053C65.8989 20.6025 65.8156 20.685 65.7176 20.7469C65.6197 20.8089 65.5096 20.849 65.3947 20.8645C65.2798 20.8799 65.163 20.8703 65.0522 20.8364C64.9123 20.795 64.7832 20.7237 64.6737 20.6273C64.5643 20.5309 64.4771 20.4118 64.4185 20.2783C64.396 20.511 64.4555 20.7442 64.5868 20.9377C64.7181 21.1311 64.9128 21.2726 65.1373 21.3377C65.248 21.3716 65.3647 21.3815 65.4796 21.3667C65.5944 21.3519 65.7048 21.3127 65.8033 21.2518C65.9018 21.1909 65.9861 21.1097 66.0507 21.0136C66.1153 20.9175 66.1586 20.8087 66.1778 20.6945C66.2044 20.494 66.1715 20.29 66.0832 20.1081Z" fill="#EA7B59"/>
<path d="M63.6525 22.9173L66.6792 22.6997C66.6792 22.6997 66.49 24.3266 65.251 24.3739C64.0119 24.4212 63.6525 22.9173 63.6525 22.9173Z" fill="#491D2E"/>
<path d="M63.8606 22.974L66.4333 22.7943C66.4333 22.7943 66.6792 23.4942 65.2226 23.6172C63.766 23.7402 63.8606 22.974 63.8606 22.974Z" fill="#FFEBEB"/>
<path d="M65.9602 24.8657C65.9602 24.6671 65.6954 24.8657 65.3738 24.8657C65.0522 24.8657 64.7779 24.6955 64.7873 24.8657C64.7968 25.036 65.0711 25.2062 65.3927 25.1873C65.7143 25.1684 65.9697 25.0644 65.9602 24.8657Z" fill="#EF8F6F"/>
<path d="M64.4942 9.06992C67.852 10.0158 67.0386 13.1749 65.6387 14.0167C65.1871 14.2438 64.6799 14.3368 64.1771 14.2848C63.6743 14.2329 63.1968 14.0381 62.8012 13.7235C64.9199 13.7235 64.3334 11.1508 62.6025 10.7914C60.8716 10.4319 64.4942 9.06992 64.4942 9.06992Z" fill="#843D44"/>
<path d="M86.8922 200.001H93.1917C93.1917 200.001 88.9448 197.948 87.9611 198.109C86.9774 198.27 86.8922 200.001 86.8922 200.001Z" fill="#FFB882"/>
<path d="M55.1209 14.9058C55.8353 14.1333 56.7381 13.5597 57.741 13.2411C57.7187 14.2987 57.3902 15.3271 56.7951 16.2017C56.6021 16.4112 56.3446 16.5501 56.0635 16.5964C55.7824 16.6427 55.4939 16.5936 55.2439 16.457C55.0554 16.2482 54.9411 15.9829 54.9188 15.7023C54.8966 15.4218 54.9677 15.1418 55.1209 14.9058Z" fill="#FFAD40"/>
<path d="M53.4185 13.6289C53.5179 12.645 53.8698 11.7034 54.44 10.8954C55.029 11.6918 55.377 12.6406 55.4426 13.6289C55.4426 13.8974 55.336 14.1548 55.1462 14.3446C54.9564 14.5344 54.699 14.641 54.4306 14.641C54.1621 14.641 53.9047 14.5344 53.7149 14.3446C53.5251 14.1548 53.4185 13.8974 53.4185 13.6289Z" fill="#FFAD40"/>
<path d="M53.4942 17.2137C53.3261 16.4165 53.3817 15.5883 53.655 14.8207C54.3005 15.7081 54.7958 16.6955 55.1211 17.7434C55.2913 18.4528 54.7238 18.5758 54.563 18.519C54.3079 18.3823 54.0821 18.1967 53.8988 17.9727C53.7154 17.7487 53.5779 17.4908 53.4942 17.2137Z" fill="#FFAD40"/>
<path d="M55.3951 11.794C55.6322 10.8349 56.1109 9.95249 56.7855 9.23071C57.2558 10.0987 57.466 11.0839 57.3909 12.0683C57.3821 12.208 57.3444 12.3443 57.2802 12.4687C57.216 12.5931 57.1267 12.7028 57.018 12.7909C56.9092 12.879 56.7834 12.9436 56.6484 12.9806C56.5134 13.0177 56.3722 13.0263 56.2337 13.0059C56.0952 12.9856 55.9625 12.9367 55.8438 12.8624C55.7252 12.7882 55.6232 12.6901 55.5444 12.5744C55.4656 12.4588 55.4116 12.328 55.3859 12.1904C55.3602 12.0528 55.3634 11.9114 55.3951 11.7751V11.794Z" fill="#FFAD40"/>
<path d="M57.4666 8.22811C57.9044 7.35039 58.5547 6.59606 59.3584 6.03372C59.6403 6.98755 59.6403 8.00259 59.3584 8.95642C59.2383 9.19545 59.042 9.38759 58.8004 9.50239C58.5588 9.61718 58.2858 9.64807 58.0247 9.59014C57.7914 9.45964 57.6092 9.25392 57.5079 9.00656C57.4065 8.7592 57.392 8.48479 57.4666 8.22811Z" fill="#FFAD40"/>
<path d="M60.134 7.42413C60.8035 6.55268 61.673 5.85518 62.6689 5.39053C62.7186 6.49331 62.4668 7.58878 61.9406 8.55915C61.7705 8.79265 61.5283 8.96364 61.2513 9.0457C60.9744 9.12776 60.6781 9.11633 60.4083 9.01316C60.1926 8.81636 60.0486 8.55336 59.9989 8.26564C59.9492 7.97792 59.9968 7.68185 60.134 7.42413Z" fill="#FFAD40"/>
<path d="M58.3935 10.4036C59.3357 10.0927 60.3417 10.0276 61.3162 10.2144C60.8259 11.083 60.0929 11.7897 59.2069 12.248C58.9546 12.3348 58.6804 12.3345 58.4283 12.247C58.1762 12.1596 57.9608 11.9901 57.8165 11.7656C57.7469 11.5067 57.7659 11.232 57.8705 10.9852C57.975 10.7384 58.1591 10.5337 58.3935 10.4036Z" fill="#FFAD40"/>
<path d="M69.9897 10.2806C69.4685 9.21313 69.1479 8.05893 69.0439 6.87553C69.9531 7.26836 70.7216 7.92804 71.2477 8.76725C71.392 9.0448 71.4673 9.35301 71.4673 9.66581C71.4673 9.97862 71.392 10.2868 71.2477 10.5644C71.1519 10.644 71.039 10.7006 70.9178 10.7297C70.7967 10.7588 70.6704 10.7597 70.5489 10.7323C70.4273 10.7048 70.3136 10.6498 70.2167 10.5715C70.1198 10.4932 70.0421 10.3937 69.9897 10.2806Z" fill="#FFAD40"/>
<path d="M71.5033 12.1913C71.5777 11.3105 71.8703 10.4621 72.3545 9.72256C72.7906 10.6778 73.0348 11.7094 73.0734 12.7588C73.0841 12.8674 73.0703 12.9771 73.0329 13.0797C72.9956 13.1823 72.9356 13.2751 72.8575 13.3514C72.7794 13.4277 72.6851 13.4854 72.5817 13.5204C72.4783 13.5553 72.3683 13.5666 72.2599 13.5533C72.034 13.4034 71.8473 13.2015 71.7156 12.9645C71.5839 12.7275 71.5111 12.4623 71.5033 12.1913Z" fill="#FFAD40"/>
<path d="M71.4369 13.4303C71.1241 12.6567 70.583 11.9969 69.8857 11.5386C69.7662 12.6902 69.8592 13.854 70.16 14.9721C70.1818 15.0771 70.2315 15.1743 70.3039 15.2534C70.3762 15.3325 70.4686 15.3906 70.5713 15.4216C70.674 15.4526 70.7831 15.4553 70.8872 15.4295C70.9912 15.4036 71.0864 15.3502 71.1626 15.2747C71.4936 14.7201 71.5922 14.0572 71.4369 13.4303Z" fill="#FFAD40"/>
<path d="M71.3139 15.9463C71.6898 15.2018 72.258 14.5715 72.9597 14.1208C72.9415 15.218 72.7302 16.3034 72.3355 17.3272C72.0328 18.0083 71.4842 17.7718 71.3896 17.6299C71.2661 17.3683 71.1959 17.0847 71.1829 16.7957C71.1699 16.5067 71.2144 16.218 71.3139 15.9463Z" fill="#FFAD40"/>
<path d="M71.068 19.219C71.1221 18.4279 71.0192 17.6339 70.7654 16.8827C70.412 17.7025 70.1641 18.5638 70.0276 19.446C69.9519 20.1081 70.2924 20.3918 70.3965 20.3918C70.5983 20.2689 70.7657 20.0969 70.8832 19.8918C71.0006 19.6867 71.0642 19.4552 71.068 19.219Z" fill="#FFAD40"/>
<path d="M25.2224 73.076C25.2224 73.076 21.1174 75.1569 17.9015 74.23C17.9015 74.23 22.8767 69.3494 25.2224 73.076Z" fill="#FFE094"/>
<path d="M25.4116 71.3924C25.4116 71.3924 22.574 68.2805 19.3203 68.6967C19.3676 68.6967 21.8836 75.1002 25.4116 71.3924Z" fill="#FFE094"/>
<path d="M21.2781 72.0167C21.2781 72.0167 18.4405 73.4638 16.1704 72.8207C16.1704 72.8301 19.6417 69.4156 21.2781 72.0167Z" fill="#FFE094"/>
<path d="M22.186 71.6383C22.186 71.6383 20.2943 69.3588 18.0337 69.5102C18.0337 69.5102 19.5755 74.0692 22.186 71.6383Z" fill="#FFE094"/>
<path d="M19.3108 71.3357C19.3108 71.3357 17.7217 69.8885 16.0854 70.2858C16.0854 70.2858 17.6461 73.4449 19.3108 71.3357Z" fill="#FFE094"/>
<path d="M20.2378 71.0235C20.2378 71.0235 16.1328 73.1044 12.9169 72.1775C12.9169 72.1775 17.8448 67.2969 20.2378 71.0235Z" fill="#FFE094"/>
<path d="M20.4648 69.3399C20.4648 69.3399 17.6273 66.228 14.383 66.6348C14.383 66.6348 16.899 73.0477 20.4648 69.3399Z" fill="#FFE094"/>
<path d="M16.2935 69.9926C16.2935 69.9926 13.4559 71.4397 11.1858 70.7965C11.2237 70.7682 14.6571 67.3631 16.2935 69.9926Z" fill="#FFE094"/>
<path d="M17.1921 69.5858C17.1921 69.5858 15.3004 67.3063 13.0493 67.4577C13.0493 67.4577 14.591 72.0167 17.1921 69.5858Z" fill="#FFE094"/>
<path d="M14.3262 69.2832C14.3262 69.2832 12.7277 67.836 11.1008 68.2333C11.1008 68.2333 12.6615 71.383 14.3262 69.2832Z" fill="#FFE094"/>
<path d="M42.929 75.3272C42.929 75.3272 38.8239 77.4081 35.608 76.4811C35.608 76.4811 40.5454 71.6005 42.929 75.3272Z" fill="#FFE094"/>
<path d="M43.1558 73.6436C43.1558 73.6436 40.3182 70.5317 37.0739 70.9384C37.0739 70.9384 39.5993 77.3513 43.1558 73.6436Z" fill="#FFE094"/>
<path d="M38.9844 74.2678C38.9844 74.2678 36.1468 75.715 33.8767 75.0718C33.8767 75.0718 37.348 71.6667 38.9844 74.2678Z" fill="#FFE094"/>
<path d="M39.8833 73.8895C39.8833 73.8895 37.9916 71.61 35.7404 71.7613C35.7404 71.7613 37.2822 76.3203 39.8833 73.8895Z" fill="#FFE094"/>
<path d="M37.0173 73.5868C37.0173 73.5868 35.4188 72.1397 33.792 72.5369C33.792 72.5369 35.3526 75.6677 37.0173 73.5868Z" fill="#FFE094"/>
<path d="M48.3203 74.911C48.3203 74.911 43.7235 74.6556 41.4061 72.2437C41.4061 72.2437 48.1122 70.5033 48.3203 74.911Z" fill="#FFE094"/>
<path d="M49.3608 73.5679C49.3608 73.5679 48.415 69.4439 45.445 68.186C45.445 68.186 44.414 74.9867 49.3608 73.5679Z" fill="#FFE094"/>
<path d="M45.4353 72.0167C45.4353 72.0167 42.2288 71.837 40.6114 70.125C40.6114 70.1533 45.2745 68.9426 45.4353 72.0167Z" fill="#FFE094"/>
<path d="M46.4094 72.1396C46.4094 72.1396 45.9176 69.2264 43.884 68.2238C43.884 68.2238 42.9287 72.9436 46.4094 72.1396Z" fill="#FFE094"/>
<path d="M44.0732 70.4371C44.0732 70.4371 43.4206 68.3941 41.8032 67.9117C41.8032 67.9117 41.5762 71.4303 44.0732 70.4371Z" fill="#FFE094"/>
<path d="M56.341 67.9968C56.341 67.9968 52.3116 65.7551 51.2806 62.577C51.2806 62.577 58.1097 63.958 56.341 67.9968Z" fill="#FFE094"/>
<path d="M57.8638 67.2401C57.8638 67.2401 58.8096 63.1351 56.6909 60.6853C56.6909 60.6853 52.794 66.3605 57.8638 67.2401Z" fill="#FFE094"/>
<path d="M55.0074 64.1282C55.0074 64.1282 52.1699 62.5676 51.4794 60.3448C51.4794 60.3543 56.237 61.3191 55.0074 64.1282Z" fill="#FFE094"/>
<path d="M55.8303 64.6674C55.8303 64.6674 56.6627 61.8298 55.2628 60.0421C55.2628 60.0421 52.3496 63.8729 55.8303 64.6674Z" fill="#FFE094"/>
<path d="M54.4682 62.1136C54.4682 62.1136 54.7709 59.9948 53.5224 58.8504C53.5318 58.8504 51.7914 61.9244 54.4682 62.1136Z" fill="#FFE094"/>
<path d="M56.0383 73.1233C56.0383 73.1233 51.432 73.1233 48.9539 70.9289C48.9539 70.9384 55.5749 68.7346 56.0383 73.1233Z" fill="#FFE094"/>
<path d="M56.9937 71.714C56.9937 71.714 55.8019 67.6563 52.7184 66.6064C52.7184 66.6064 52.1509 73.4638 56.9937 71.714Z" fill="#FFE094"/>
<path d="M52.9644 70.4276C52.9644 70.4276 49.7579 70.4276 48.027 68.8953C48.027 68.8953 52.6428 67.3725 52.9644 70.4276Z" fill="#FFE094"/>
<path d="M53.948 70.4844C53.948 70.4844 53.2575 67.6468 51.1104 66.701C51.1577 66.7483 50.5335 71.5248 53.948 70.4844Z" fill="#FFE094"/>
<path d="M51.4983 68.9521C51.4983 68.9521 50.7038 66.9564 49.0674 66.578C49.058 66.578 49.058 70.1061 51.4983 68.9521Z" fill="#FFE094"/>
<path d="M50.1931 58.4531C50.1931 58.4531 46.7123 55.4453 46.334 52.1253C46.334 52.1253 52.7469 54.8588 50.1931 58.4531Z" fill="#FFEFAE"/>
<path d="M51.8386 58.0275C51.8386 58.0275 53.6263 54.1967 52.0184 51.4065C52.0184 51.3686 47.0526 56.1358 51.8386 58.0275Z" fill="#FFEFAE"/>
<path d="M49.6726 54.3954C49.6726 54.3954 47.2418 52.305 46.9864 49.9877C46.9864 49.9877 51.4508 51.8889 49.6726 54.3954Z" fill="#FFEFAE"/>
<path d="M50.3727 55.0859C50.3727 55.0859 51.7631 52.4847 50.7511 50.4417C50.7511 50.4417 47.119 53.6103 50.3727 55.0859Z" fill="#FFEFAE"/>
<path d="M49.5498 52.3239C49.5498 52.3239 50.2781 50.2998 49.2945 48.9378C49.2945 48.9378 46.9676 51.5862 49.5498 52.3239Z" fill="#FFEFAE"/>
<path d="M35.7024 76.9635C35.7024 76.9635 31.7487 79.5362 28.4098 78.9782C28.4098 78.9782 32.9783 73.4638 35.7024 76.9635Z" fill="#FFE094"/>
<path d="M35.8159 75.2421C35.8159 75.2421 32.6473 72.4045 29.4125 73.199C29.3746 73.199 32.5243 79.3944 35.8159 75.2421Z" fill="#FFE094"/>
<path d="M31.6165 76.3392C31.6165 76.3392 28.8546 78.1364 26.5372 77.7391C26.5372 77.7391 29.7153 73.8989 31.6165 76.3392Z" fill="#FFE094"/>
<path d="M32.4961 75.8569C32.4961 75.8569 30.3774 73.7665 28.1073 74.1827C28.1073 74.1827 30.0936 78.6188 32.4961 75.8569Z" fill="#FFE094"/>
<path d="M29.5637 75.8852C29.5637 75.8852 27.8139 74.6083 26.2059 75.1853C26.2059 75.1853 28.0882 78.2026 29.5637 75.8852Z" fill="#FFE094"/>
<path d="M28.9111 75.7717C28.9111 75.7717 24.3426 75.1948 21.9875 72.5274C21.9875 72.5274 28.6463 71.1749 28.9111 75.7717Z" fill="#FFE094"/>
<path d="M29.9138 74.4475C29.9138 74.4475 28.9207 70.0871 25.9128 68.5643C25.9128 68.5643 25.0427 75.592 29.9138 74.4475Z" fill="#FFE094"/>
<path d="M25.9883 72.5558C25.9883 72.5558 22.8007 72.1586 21.1644 70.2952C21.1644 70.2952 25.7991 69.3494 25.9883 72.5558Z" fill="#FFE094"/>
<path d="M26.9531 72.7544C26.9531 72.7544 26.4045 69.6804 24.3615 68.4981C24.3615 68.4981 23.5197 73.3598 26.9531 72.7544Z" fill="#FFE094"/>
<path d="M24.5981 70.8249C24.5981 70.8249 23.8982 68.6494 22.2997 68.0441C22.2997 68.0441 22.1484 71.6951 24.5981 70.8249Z" fill="#FFE094"/>
<path d="M20.7391 61.4798C19.9367 60.6573 19.4856 59.5549 19.4812 58.4058C19.2668 59.0593 18.9946 59.6924 18.6677 60.2975C18.1671 59.6321 17.8418 58.8515 17.7219 58.0275C17.5147 58.6051 17.2747 59.1704 17.003 59.7205C16.0026 58.527 15.3948 57.0538 15.2626 55.502L15.5369 55.4074L15.2532 55.4547C15.1919 54.9651 15.1572 54.4726 15.1491 53.9792C14.4043 53.5699 13.733 53.0392 13.1628 52.4091C13.4417 52.6189 13.6984 52.8566 13.929 53.1185C13.7653 52.4996 13.6639 51.8658 13.6263 51.2268C14.4075 51.357 15.1339 51.7119 15.7166 52.2483C15.6328 51.9114 15.5665 51.5705 15.518 51.2268C15.3687 51.1702 15.2234 51.1039 15.0829 51.0281L15.4518 50.8011V50.5457L15.8585 50.6025L16.3882 50.366C16.0142 49.8666 15.7616 49.2869 15.6504 48.6729C16.0485 48.6921 16.4377 48.7967 16.7919 48.9794C17.146 49.1622 17.4567 49.419 17.7029 49.7323C17.6302 49.4648 17.5733 49.1931 17.5327 48.9189C17.1247 48.8379 16.7256 48.7175 16.3409 48.5594C17.2719 47.8814 18.2819 47.3192 19.3487 46.8853C17.8987 47.3413 16.3437 47.3413 14.8938 46.8853C15.3521 46.5569 15.836 46.2659 16.3409 46.0151C15.8541 45.523 15.5023 44.9139 15.3194 44.2463C15.7789 44.2178 16.2392 44.2874 16.6697 44.4504C17.1003 44.6135 17.4912 44.8664 17.8164 45.1922C17.6351 44.709 17.5051 44.2081 17.4286 43.6977C18.0162 43.7244 18.5867 43.9037 19.0839 44.218L19.2069 44.0761C19.1501 43.9058 19.1028 43.745 19.065 43.6031C18.6925 43.6388 18.3167 43.587 17.9678 43.4518C18.3275 42.9896 18.7194 42.5535 19.1406 42.1465C18.7617 42.3356 18.344 42.434 17.9205 42.434C17.497 42.434 17.0793 42.3356 16.7003 42.1465C17.2134 41.5859 17.8301 41.1298 18.5164 40.8034C18.2762 40.3766 18.0798 39.9266 17.9299 39.4603C18.5707 39.4774 19.2012 39.6246 19.7833 39.8928C20.3654 40.1611 20.8869 40.5449 21.3161 41.021C20.7506 40.2086 20.3106 39.3158 20.0108 38.3726C20.9582 38.3273 21.8991 38.5503 22.7254 39.0157C23.1342 38.8714 23.5511 38.7514 23.974 38.6563C23.5719 37.8829 23.3458 37.0302 23.3119 36.1592C23.8439 36.291 24.3421 36.5335 24.774 36.8709C25.2059 37.2082 25.5618 37.6329 25.8184 38.1172C25.7574 37.466 25.7574 36.8105 25.8184 36.1592C26.5676 36.4489 27.2223 36.9399 27.7101 37.578C27.6531 36.9934 27.6342 36.4058 27.6534 35.8187C29.319 36.4131 30.7089 37.5977 31.5597 39.1482C32.6065 39.9111 33.6627 40.7561 34.7284 41.6831C34.8102 40.9544 34.9949 40.2411 35.277 39.5643C36.0694 40.3988 36.5097 41.5065 36.5066 42.6573C36.7247 42.0038 37.0001 41.3707 37.3295 40.7656C37.8345 41.4285 38.1602 42.2103 38.2753 43.0356C38.4838 42.4602 38.7271 41.898 39.0036 41.352C39.9318 42.5106 40.4918 43.9206 40.6116 45.4003L40.3184 45.5043L40.6211 45.457C40.6929 46.0092 40.7339 46.565 40.744 47.1217C41.1939 47.3639 41.6131 47.6592 41.9925 48.0014C42.1308 48.5476 42.2225 49.1044 42.2668 49.6661C41.4828 49.539 40.7512 49.1913 40.1576 48.6635C40.2522 49.0418 40.3184 49.3918 40.3751 49.6755C40.5213 49.7321 40.6635 49.7985 40.8008 49.8742L40.4413 50.1012V50.3566C40.2995 50.3566 40.167 50.3566 40.0346 50.2998C39.8601 50.3928 39.6801 50.4749 39.4955 50.5457C39.8808 51.0371 40.1406 51.615 40.2522 52.2294C39.8536 52.2157 39.4628 52.1155 39.1068 51.9359C38.7507 51.7562 38.438 51.5014 38.1902 51.1889C38.2684 51.4551 38.3254 51.7271 38.3605 52.0024C38.7695 52.0744 39.1692 52.1918 39.5522 52.3523C38.6287 53.0364 37.6249 53.605 36.5633 54.0454C38.0083 53.5728 39.5637 53.5563 41.0183 53.9981C40.5698 54.3235 40.0953 54.6114 39.5995 54.8588C40.0876 55.344 40.4427 55.9466 40.6305 56.6087C40.173 56.6441 39.7131 56.5824 39.2811 56.4275C38.8491 56.2727 38.4548 56.0282 38.124 55.7101C38.3112 56.1928 38.4475 56.6936 38.5307 57.2046C37.9423 57.1814 37.3694 57.0089 36.866 56.7033L36.743 56.8357C36.7998 57.0059 36.8471 57.1667 36.8849 57.3086C37.2566 57.2739 37.6314 57.3224 37.9821 57.4505C37.6288 57.9181 37.2399 58.3577 36.8187 58.7652C37.1999 58.5782 37.619 58.4809 38.0436 58.4809C38.4682 58.4809 38.8872 58.5782 39.2685 58.7652C38.7555 59.3309 38.1391 59.7932 37.4524 60.1273C37.6986 60.549 37.8984 60.9962 38.0483 61.4609C37.4065 61.45 36.7736 61.3085 36.1882 61.0451C35.6027 60.7816 35.0771 60.4018 34.6432 59.9286C35.2209 60.7344 35.6707 61.6246 35.9769 62.5676C35.0288 62.6133 34.0864 62.3973 33.2528 61.9433C32.8435 62.0882 32.4267 62.2114 32.0043 62.3122C32.4137 63.0803 32.6464 63.9302 32.6853 64.7998C32.1566 64.6758 31.6593 64.4437 31.2247 64.1182C30.79 63.7926 30.4275 63.3806 30.1599 62.9081C30.2395 63.5576 30.2585 64.213 30.2166 64.866C29.4688 64.5785 28.8144 64.091 28.3249 63.4567C28.3818 64.0444 28.4039 64.6351 28.3911 65.2254C26.7159 64.6241 25.3194 63.4295 24.4658 61.8676C23.4159 61.111 22.3471 60.2786 21.2783 59.3611C21.2003 60.0894 21.0187 60.8028 20.7391 61.4798ZM31.2854 60.534C31.0301 60.2881 30.822 60.08 30.6706 59.9097C30.1121 60.0664 29.5432 60.1833 28.9681 60.2597C29.7483 60.2662 30.5253 60.3582 31.2854 60.534ZM25.2509 41.0399C25.8091 40.8863 26.3783 40.7756 26.9534 40.7088C26.173 40.6987 25.3959 40.6035 24.6361 40.4251C24.9009 40.671 25.0995 40.8602 25.2509 41.0304V41.0399Z" fill="#FFF4C5"/>
<path d="M25.3548 47.4339C24.9917 46.9731 24.7951 46.4031 24.7968 45.8165C24.702 46.142 24.5786 46.4586 24.4279 46.7623C24.1973 46.406 24.0517 46.0015 24.0023 45.58C23.9111 45.8788 23.8038 46.1725 23.6807 46.4596C23.2192 45.8123 22.9473 45.0491 22.8956 44.2558C22.8823 44.0006 22.8823 43.7449 22.8956 43.4896C22.5356 43.2715 22.2156 42.9931 21.9497 42.6668C22.0808 42.7752 22.1983 42.8991 22.2997 43.0356C22.2259 42.7249 22.1784 42.4085 22.1578 42.0898C22.5203 42.1642 22.8508 42.3493 23.1037 42.6195C23.0633 42.4446 23.0317 42.2678 23.0091 42.0898L22.8105 41.9857L22.9807 41.8628C22.9807 41.7776 22.9807 41.7304 22.9807 41.7304H23.1699L23.4064 41.6074C23.234 41.3414 23.1211 41.0414 23.0753 40.7277C23.2655 40.7363 23.4508 40.7906 23.6155 40.8861C23.7801 40.9816 23.9193 41.1155 24.0212 41.2763C24.0212 41.1155 23.9644 40.9737 23.9455 40.8507C23.7629 40.8061 23.5854 40.7427 23.4158 40.6615C23.8248 40.3131 24.276 40.0175 24.7589 39.7819C24.1156 40.0236 23.4065 40.0236 22.7632 39.7819C22.9668 39.6114 23.1852 39.4595 23.4158 39.3279C23.1902 39.0527 23.0315 38.7289 22.9523 38.382C23.1645 38.3697 23.3766 38.4069 23.572 38.4906C23.7673 38.5743 23.9405 38.7023 24.0779 38.8644C23.9958 38.6083 23.9357 38.3457 23.8982 38.0793C24.167 38.0968 24.4256 38.1885 24.6454 38.3442L24.7022 38.278C24.7022 38.1834 24.7022 38.1077 24.636 38.0321C24.4674 38.0482 24.2975 38.0188 24.1441 37.9469C24.3039 37.7073 24.4809 37.4797 24.6738 37.2659C24.5083 37.3661 24.3186 37.419 24.1252 37.419C23.9318 37.419 23.7421 37.3661 23.5766 37.2659C23.7988 36.9811 24.0753 36.7432 24.39 36.566C24.2841 36.3397 24.1956 36.1057 24.1252 35.866C24.4239 35.8783 24.7159 35.9578 24.9796 36.0987C25.2433 36.2395 25.4718 36.438 25.648 36.6795C25.3893 36.2453 25.192 35.7774 25.0616 35.2891C25.4936 35.2749 25.9195 35.3937 26.2818 35.6296C26.4637 35.555 26.6501 35.4918 26.8398 35.4404C26.6563 35.0287 26.5535 34.5856 26.5371 34.1351C26.7869 34.2151 27.0165 34.3476 27.2107 34.5239C27.4048 34.7001 27.559 34.9158 27.6627 35.1566C27.6376 34.8166 27.6376 34.4752 27.6627 34.1351C28.0092 34.2983 28.3014 34.5577 28.5045 34.8823C28.5045 34.3527 28.5045 33.9365 28.5045 33.9365C29.2474 34.3114 29.8289 34.9433 30.1409 35.7147C30.6138 36.1246 31.0867 36.5691 31.5596 37.0484C31.6076 36.6691 31.7029 36.2973 31.8434 35.9417C32.2106 36.4003 32.4077 36.9717 32.4015 37.5591C32.4982 37.2342 32.6216 36.9179 32.7703 36.6133C33.0001 36.9734 33.1456 37.3808 33.196 37.805C33.2871 37.5062 33.3945 37.2125 33.5176 36.9254C33.9596 37.5452 34.2215 38.2752 34.2743 39.0347L34.1418 39.0914H34.2837C34.2837 39.3941 34.331 39.6968 34.3405 39.9616C34.5425 40.0957 34.7296 40.251 34.8985 40.4251C34.9619 40.7115 35.0031 41.0025 35.0215 41.2953C34.659 41.2265 34.3278 41.0443 34.0756 40.775C34.0756 40.9737 34.1513 41.1534 34.1702 41.3047L34.3594 41.4088L34.1986 41.5223C34.1986 41.6074 34.1986 41.6641 34.1986 41.6641H34.0094C33.9351 41.7158 33.8559 41.7602 33.7729 41.7966C33.9465 42.0628 34.0625 42.3625 34.1135 42.6762C33.9243 42.6679 33.7399 42.6147 33.5754 42.521C33.4109 42.4272 33.2711 42.2956 33.1676 42.1371C33.1676 42.2884 33.2244 42.4397 33.2433 42.5627C33.4302 42.5982 33.6115 42.6587 33.7824 42.7424C33.3726 43.097 32.9178 43.396 32.4298 43.6315C33.076 43.3875 33.7889 43.3875 34.4351 43.6315C34.2347 43.8047 34.0195 43.9598 33.7919 44.095C34.0175 44.3702 34.1761 44.6939 34.2553 45.0409C34.0436 45.0573 33.831 45.023 33.6353 44.9407C33.4395 44.8585 33.2662 44.7307 33.1298 44.5679C33.2128 44.8238 33.2729 45.0865 33.3095 45.353C33.0407 45.3355 32.7821 45.2438 32.5623 45.0881L32.5055 45.1544C32.5055 45.2395 32.5055 45.3246 32.5717 45.4003C32.7393 45.3868 32.9077 45.4127 33.0636 45.4759C32.908 45.719 32.734 45.9498 32.5433 46.1664C32.7098 46.0692 32.8991 46.0179 33.0919 46.0179C33.2847 46.0179 33.4741 46.0692 33.6405 46.1664C33.4196 46.4549 33.143 46.6962 32.8271 46.8758C32.9389 47.1028 33.0276 47.3405 33.0919 47.5852C32.794 47.5696 32.5031 47.4887 32.2399 47.3481C31.9767 47.2075 31.7477 47.0108 31.5691 46.7718C31.8289 47.2066 32.0293 47.6742 32.165 48.1622C31.7334 48.1843 31.3061 48.0683 30.9448 47.8311C30.76 47.9092 30.5705 47.9755 30.3773 48.0298C30.5674 48.4363 30.6736 48.8771 30.6895 49.3256C30.4405 49.2446 30.2111 49.1128 30.0158 48.9386C29.8204 48.7644 29.6633 48.5516 29.5544 48.3135C29.5792 48.6536 29.5792 48.995 29.5544 49.335C29.2039 49.1788 28.9077 48.922 28.7032 48.5973C28.7032 49.127 28.7032 49.5431 28.7032 49.5431C27.9168 49.2092 27.2853 48.5911 26.9344 47.8122C26.4615 47.415 25.9885 46.9799 25.5062 46.5069C25.4866 46.8202 25.4359 47.1307 25.3548 47.4339ZM30.0841 46.9326C29.9706 46.8096 29.876 46.6961 29.8098 46.611C29.5601 46.6929 29.3038 46.7531 29.0437 46.7907C29.3979 46.7979 29.7501 46.8455 30.0936 46.9326H30.0841ZM27.379 36.7268C27.6254 36.6448 27.8786 36.5847 28.1356 36.5471C27.7838 36.5407 27.4342 36.4898 27.0952 36.3957C27.2276 36.5187 27.3033 36.6416 27.3884 36.7268H27.379Z" fill="#FFEFAE"/>
<path d="M28.1922 71.2978C27.8291 70.8371 27.6325 70.2671 27.6342 69.6804C27.5394 70.006 27.416 70.3225 27.2653 70.6263C27.0347 70.27 26.8891 69.8655 26.8396 69.444C26.7483 69.744 26.6377 70.0378 26.5086 70.3236C26.054 69.6734 25.7858 68.9113 25.733 68.1198C25.701 67.8655 25.6821 67.6098 25.6762 67.3536C25.3344 67.1329 25.0336 66.8545 24.7871 66.5307C24.9182 66.6392 25.0357 66.763 25.1371 66.8996C25.0633 66.5889 25.0158 66.2725 24.9952 65.9537C25.3591 66.0245 25.6906 66.2101 25.9411 66.4834C25.9411 66.2848 25.8749 66.1051 25.856 65.9537L25.6573 65.8497L25.8276 65.7267C25.8276 65.6416 25.8276 65.5943 25.8276 65.5943H26.0167C26.0911 65.5426 26.1703 65.4983 26.2532 65.4619C26.0809 65.1959 25.968 64.8959 25.9222 64.5823C26.1123 64.5908 26.2976 64.6451 26.4623 64.7406C26.627 64.8362 26.7662 64.97 26.868 65.1309C26.868 64.9795 26.8113 64.8282 26.7924 64.7052C26.6097 64.6606 26.4322 64.5972 26.2627 64.516C26.6706 64.1687 27.1221 63.8762 27.6058 63.6459C26.9617 63.8833 26.2541 63.8833 25.61 63.6459C25.8136 63.4754 26.0321 63.3235 26.2627 63.1918C26.037 62.9167 25.8784 62.5929 25.7992 62.246C26.0114 62.2337 26.2235 62.2709 26.4188 62.3546C26.6141 62.4383 26.7874 62.5663 26.9248 62.7284C26.8427 62.4723 26.7825 62.2096 26.7451 61.9433C27.0138 61.9608 27.2725 62.0525 27.4923 62.2081L27.549 62.1419C27.549 62.0568 27.549 61.9717 27.4828 61.896C27.3142 61.9122 27.1443 61.8828 26.991 61.8109C27.1507 61.5713 27.3278 61.3437 27.5207 61.1299C27.3552 61.23 27.1655 61.283 26.9721 61.283C26.7787 61.283 26.5889 61.23 26.4235 61.1299C26.6457 60.8451 26.9222 60.6072 27.2369 60.4299C27.1244 60.2065 27.0357 59.9719 26.9721 59.73C27.2707 59.7423 27.5628 59.8218 27.8265 59.9626C28.0901 60.1035 28.3186 60.302 28.4949 60.5434C28.2371 60.1122 28.0398 59.6475 27.9085 59.1625C28.34 59.1404 28.7674 59.2564 29.1286 59.4935C29.3105 59.4189 29.4969 59.3558 29.6867 59.3044C29.5031 58.8927 29.4003 58.4496 29.384 57.9991C29.6321 58.0823 29.8602 58.216 30.0539 58.3918C30.2476 58.5677 30.4028 58.7818 30.5096 59.0206C30.4818 58.6807 30.4818 58.339 30.5096 57.9991C30.8604 58.1593 31.1565 58.4192 31.3608 58.7463C31.3608 58.2166 31.3608 57.8005 31.3608 57.8005C32.0994 58.1799 32.6744 58.8154 32.9783 59.5881C33.4417 59.9854 33.9241 60.4299 34.397 60.9123C34.4328 60.5347 34.5154 60.1629 34.643 59.8057C35.011 60.2632 35.2053 60.8361 35.1916 61.4231C35.2937 61.0987 35.4202 60.7825 35.5699 60.4772C35.7997 60.8374 35.9452 61.2448 35.9955 61.669C36.0867 61.3702 36.194 61.0765 36.3171 60.7894C36.7569 61.4139 37.0185 62.1463 37.0738 62.9081C37.1103 63.1967 37.1293 63.4873 37.1306 63.7783C37.334 63.9144 37.524 64.0696 37.6981 64.2417C37.7561 64.5292 37.7971 64.8197 37.821 65.1119C37.4586 65.0432 37.1274 64.861 36.8752 64.5917C36.8752 64.7903 36.9414 64.9701 36.9698 65.1214L37.1589 65.2254L36.9981 65.3389C36.9981 65.4241 36.9981 65.4808 36.9981 65.4808H36.8184L36.582 65.6038C36.7556 65.87 36.8715 66.1697 36.9225 66.4834C36.7332 66.4759 36.5484 66.423 36.3838 66.3292C36.2192 66.2354 36.0795 66.1034 35.9766 65.9443C35.9766 66.0956 36.0334 66.247 36.0523 66.3699C36.2358 66.4069 36.4138 66.4673 36.582 66.5496C36.1765 66.9053 35.7247 67.2044 35.2389 67.4387C35.885 67.1947 36.5979 67.1947 37.2441 67.4387C37.0416 67.6092 36.8266 67.7641 36.6009 67.9022C36.8265 68.1774 36.9852 68.5012 37.0644 68.8481C36.8526 68.8645 36.6401 68.8302 36.4443 68.748C36.2485 68.6657 36.0752 68.5379 35.9388 68.3751C36.0218 68.631 36.0819 68.8937 36.1185 69.1602C35.8497 69.1427 35.5911 69.051 35.3713 68.8954L35.3145 68.9616C35.3145 69.0562 35.3145 69.1318 35.3807 69.2075C35.5483 69.194 35.7168 69.2199 35.8726 69.2832C35.717 69.5262 35.5431 69.757 35.3524 69.9736C35.5178 69.8735 35.7075 69.8205 35.9009 69.8205C36.0944 69.8205 36.2841 69.8735 36.4495 69.9736C36.2273 70.2584 35.9508 70.4963 35.6361 70.6736C35.743 70.9027 35.8315 71.1399 35.9009 71.383C35.6023 71.3707 35.3102 71.2912 35.0465 71.1503C34.7829 71.0095 34.5544 70.811 34.3781 70.5695C34.636 71.0053 34.8363 71.4727 34.974 71.9599C34.5396 71.9808 34.1096 71.865 33.7444 71.6289C33.5629 71.7071 33.3765 71.7734 33.1863 71.8275C33.3767 72.2373 33.4828 72.6812 33.4985 73.1328C33.2487 73.0508 33.0187 72.9175 32.8233 72.7417C32.6279 72.5658 32.4713 72.3511 32.3634 72.1113C32.3912 72.4512 32.3912 72.7929 32.3634 73.1328C32.019 72.9716 31.7247 72.7199 31.5122 72.4045C31.5289 72.7196 31.5289 73.0353 31.5122 73.3503C30.7258 73.0164 30.0943 72.3984 29.7434 71.6194C29.2705 71.2316 28.7976 70.7871 28.3152 70.3141C28.31 70.6455 28.2688 70.9754 28.1922 71.2978ZM32.9215 70.7965C32.808 70.6736 32.7134 70.5601 32.6472 70.4749C32.3973 70.556 32.141 70.6161 31.8811 70.6547C32.2353 70.662 32.5875 70.7096 32.931 70.7965H32.9215ZM30.2164 60.5907C30.4628 60.5088 30.716 60.4487 30.973 60.411C30.6212 60.4047 30.2716 60.3538 29.9326 60.2597C30.065 60.3826 30.1407 60.534 30.2258 60.5907H30.2164Z" fill="#FFEFAE"/>
<path d="M42.5976 74.0976C42.3093 73.7497 42.1549 73.3102 42.1625 72.8585C42.0864 73.1142 41.9916 73.364 41.8788 73.6057C41.692 73.3218 41.5753 72.9977 41.5383 72.6599C41.4683 72.8941 41.3862 73.1246 41.2923 73.3503C40.9376 72.8459 40.7282 72.2537 40.687 71.6383C40.6735 71.4399 40.6735 71.2409 40.687 71.0425C40.4209 70.8702 40.1872 70.6525 39.9965 70.3993C40.0948 70.4875 40.1835 70.5858 40.2614 70.6925C40.2031 70.4409 40.1683 70.1844 40.1573 69.9263C40.4388 69.9825 40.6944 70.1285 40.8856 70.3425C40.8856 70.1817 40.8289 70.0398 40.81 69.9263C40.7557 69.9053 40.7048 69.8766 40.6586 69.8412L40.791 69.7561C40.7888 69.7214 40.7888 69.6867 40.791 69.652H40.9329L41.1126 69.5575C40.9802 69.3511 40.8932 69.119 40.8572 68.8764C41.0017 68.8876 41.1416 68.9318 41.2662 69.0056C41.3908 69.0794 41.4969 69.1808 41.5761 69.3021C41.5761 69.1791 41.5288 69.0656 41.5099 68.971C41.3685 68.9423 41.2317 68.8946 41.1032 68.8291C41.4195 68.5587 41.7692 68.3298 42.1436 68.1481C41.6463 68.3329 41.0992 68.3329 40.6019 68.1481C40.7566 68.019 40.921 67.902 41.0937 67.7982C40.9248 67.5877 40.8052 67.3421 40.7437 67.0793C40.9082 67.0704 41.0725 67.0999 41.2236 67.1656C41.3746 67.2313 41.5083 67.3313 41.6139 67.4577C41.5488 67.2572 41.5013 67.0515 41.4721 66.8428C41.6821 66.8548 41.8834 66.9307 42.049 67.0604V67.0036C42.0458 66.9406 42.0458 66.8775 42.049 66.8145C41.9162 66.8257 41.7828 66.8029 41.6612 66.7483C41.7853 66.5631 41.9211 66.3862 42.0679 66.2186C41.941 66.2954 41.7954 66.3359 41.647 66.3359C41.4987 66.3359 41.3531 66.2954 41.2261 66.2186C41.3974 66.0002 41.6094 65.8171 41.8504 65.6794C41.7671 65.5032 41.7006 65.3195 41.6518 65.1308C41.8821 65.1427 42.1069 65.2057 42.3097 65.3153C42.5126 65.4249 42.6885 65.5784 42.8246 65.7646C42.6292 65.4287 42.4766 65.0696 42.3706 64.6958C42.7052 64.6765 43.0371 64.7661 43.3165 64.9511C43.4571 64.8912 43.6027 64.8437 43.7516 64.8093C43.6062 64.491 43.5258 64.1469 43.5151 63.7972C43.7098 63.8595 43.8889 63.9626 44.0406 64.0996C44.1923 64.2366 44.313 64.4044 44.3948 64.5917C44.3725 64.3273 44.3725 64.0616 44.3948 63.7972C44.6635 63.9223 44.8902 64.1227 45.0474 64.3742C45.0474 63.9674 45.0474 63.6553 45.0474 63.6553C45.6551 63.9192 46.1413 64.402 46.4094 65.0079C46.7688 65.32 47.1377 65.6605 47.5066 66.0294C47.5345 65.739 47.5981 65.4531 47.6958 65.1781C47.9778 65.5332 48.1312 65.9733 48.1309 66.4267C48.207 66.171 48.3018 65.9212 48.4146 65.6794C48.5984 65.964 48.7118 66.2882 48.7457 66.6253C48.8168 66.3933 48.9021 66.1658 49.0011 65.9443C49.3367 66.4281 49.536 66.9933 49.578 67.5806H49.4835H49.5875C49.6011 67.8043 49.6011 68.0285 49.5875 68.2522C49.7464 68.3505 49.8925 68.468 50.0226 68.6021C50.0741 68.8259 50.1057 69.0538 50.1172 69.2832C49.8381 69.2265 49.5835 69.0843 49.3889 68.8764C49.3889 69.0278 49.4456 69.1697 49.4645 69.2832L49.6064 69.3683L49.4835 69.4629C49.486 69.4975 49.486 69.5323 49.4835 69.5669H49.3416L49.1619 69.671C49.2956 69.8766 49.3828 70.1091 49.4172 70.352C49.2745 70.3394 49.1364 70.2946 49.0136 70.2208C48.8907 70.1471 48.7861 70.0464 48.7079 69.9263C48.7336 70.0354 48.7526 70.146 48.7646 70.2574C48.909 70.2861 49.0489 70.3338 49.1808 70.3993C48.8633 70.6709 48.5139 70.9028 48.1403 71.0897C48.6365 70.8989 49.1859 70.8989 49.6821 71.0897C49.5291 71.2238 49.3645 71.3441 49.1902 71.4492C49.3613 71.656 49.484 71.8983 49.5497 72.1586C49.3858 72.1701 49.2215 72.1428 49.0703 72.0786C48.919 72.0145 48.7851 71.9155 48.6795 71.7897C48.7437 71.9865 48.7881 72.1893 48.8119 72.395C48.6039 72.3886 48.4028 72.3193 48.2349 72.1964C48.2349 72.2721 48.2349 72.3383 48.2349 72.395C48.3638 72.3799 48.4945 72.3995 48.6133 72.4518C48.4944 72.6381 48.3616 72.8152 48.216 72.9815C48.3437 72.9066 48.489 72.8672 48.6369 72.8672C48.7849 72.8672 48.9302 72.9066 49.0578 72.9815C48.8905 73.2061 48.6778 73.393 48.4336 73.5301C48.5174 73.7071 48.587 73.8905 48.6416 74.0787C48.4106 74.0687 48.1847 74.0075 47.9802 73.8995C47.7758 73.7916 47.5978 73.6395 47.4593 73.4544C47.6619 73.7878 47.8178 74.1475 47.9228 74.5232C47.5882 74.5425 47.2564 74.4529 46.9769 74.2678C46.8351 74.3271 46.6898 74.3776 46.5418 74.4192C46.6823 74.7391 46.7625 75.0822 46.7783 75.4312C46.5851 75.3689 46.407 75.2669 46.2555 75.1317C46.104 74.9965 45.9825 74.8311 45.8987 74.6462C45.9208 74.9074 45.9208 75.17 45.8987 75.4312C45.6291 75.3079 45.3996 75.1113 45.2366 74.8637C45.2498 75.1031 45.2498 75.3431 45.2366 75.5826C44.6291 75.3198 44.1405 74.8413 43.8651 74.2394C43.5056 73.9368 43.1368 73.5963 42.7584 73.2274C42.7403 73.5229 42.6863 73.8151 42.5976 74.0976ZM46.2203 73.7192L46.0122 73.4638C45.8178 73.5277 45.6185 73.5752 45.4163 73.6057C45.6878 73.612 45.9576 73.6501 46.2203 73.7192ZM44.1299 65.8119C44.3213 65.7513 44.5175 65.707 44.7163 65.6794C44.4446 65.6688 44.1749 65.6275 43.9124 65.5565L44.1299 65.8119Z" fill="#FFEFAE"/>
<path d="M117.16 94.0457C117.907 91.7 117.945 91.2081 117.671 90.8771C117.396 90.546 115.268 90.5744 115.268 90.5744C115.268 90.5744 114.738 92.731 115.599 92.8445C116.46 92.958 116.885 92.0216 116.885 92.0216C116.885 92.0216 116.545 95.9469 117.16 94.0457Z" fill="#FFB882"/>
<path d="M119.25 93.1755C118.721 92.5512 118.304 92.2296 118.115 92.7877C117.926 93.3458 118.522 94.2254 118.919 93.9889C119.316 93.7525 119.477 93.4403 119.25 93.1755Z" fill="#FFB882"/>
<path d="M118.682 94.1592C117.926 93.7619 117.349 93.6201 117.358 94.1592C117.368 94.6983 118.238 95.2942 118.588 94.9915C118.938 94.6889 119.004 94.3294 118.682 94.1592Z" fill="#FFB882"/>
<path d="M118.2 95.2186C117.5 94.7645 116.952 94.5754 116.914 95.0956C116.876 95.6158 117.68 96.3252 118.049 96.0415C118.418 95.7577 118.503 95.4266 118.2 95.2186Z" fill="#FFB882"/>
<path d="M40.5454 81.9955C41.7655 81.4374 42.1722 80.6902 41.321 80.0376C40.4697 79.3849 39.4955 78.0229 38.7104 79.0917C37.9253 80.1605 38.578 82.8751 40.5454 81.9955Z" fill="#FF9566"/>
<path d="M39.2966 80.1132C40.4127 77.8905 41.491 76.6135 40.5451 76.9446C39.5993 77.2756 38.5872 79.3187 38.5872 79.3187L39.2966 80.1132Z" fill="#FF9566"/>
<path d="M40.0156 80.4726C42.0397 79.0444 43.572 78.458 42.5788 78.2688C41.5857 78.0796 39.7413 79.4227 39.7413 79.4227L40.0156 80.4726Z" fill="#FF9566"/>
<path d="M40.7912 81.8252C42.768 80.3119 44.2814 79.6498 43.2693 79.5079C42.2572 79.366 40.479 80.7942 40.479 80.7942L40.7912 81.8252Z" fill="#FF9566"/>
</svg>
