<svg width="174" height="200" viewBox="0 0 174 200" fill="none" xmlns="http://www.w3.org/2000/svg">
<path d="M62.0088 1.27183C62.595 0.486931 63.7078 1.20228 63.7078 1.20228C63.7078 1.20228 62.5155 -0.53642 61.0351 0.168997C59.1275 1.10293 59.4057 4.22266 61.5021 5.3851L65.2974 2.90124C62.6248 3.67621 61.3729 2.13621 62.0088 1.27183Z" fill="#723F35"/>
<path d="M80.9854 13.8402C79.8428 12.5287 78.3525 11.9524 77.657 12.5585C76.9615 13.1646 77.3093 14.7244 78.4419 16.0359C79.5746 17.3474 81.0748 17.9336 81.7703 17.3275C82.4658 16.7214 82.118 15.1616 80.9854 13.8402Z" fill="#592923"/>
<path d="M153.355 51.5154C156.624 48.4254 157.33 47.6107 157.667 46.3589C158.005 45.107 157.936 42.186 158.472 41.7488C158.699 41.6083 158.953 41.518 159.217 41.4843C159.481 41.4505 159.75 41.474 160.004 41.5532C160.259 41.6324 160.493 41.7653 160.692 41.9431C160.89 42.1208 161.048 42.3392 161.155 42.5834C161.731 43.9247 160.976 47.4816 160.887 48.4056C160.797 49.3296 157.071 54.0588 157.071 54.0588L153.355 51.5154Z" fill="#FF9566"/>
<path d="M152.094 44.9182C154.419 41.0633 154.915 40.0697 154.915 38.7483C154.915 37.4269 158.413 38.947 158.572 39.8512C158.731 40.7553 156.406 46.3291 156.406 46.3291L152.094 44.9182Z" fill="#FF9566"/>
<path d="M148.1 45.3852C150.266 41.411 150.723 40.4175 150.623 39.1457C150.524 37.874 149.63 35.102 149.967 34.5158C150.305 33.9296 151.299 32.4791 152.263 33.5223C153.226 34.5655 154.111 39.1557 154.309 40.0598C154.508 40.9639 152.412 46.6172 152.412 46.6172L148.1 45.3852Z" fill="#FF9566"/>
<path d="M144.056 48.6838C142.635 45.0474 142.198 43.7161 142.257 42.3748C142.317 41.0335 142.019 37.0494 142.168 36.4135C142.311 36.1645 142.505 35.9482 142.737 35.7787C142.969 35.6092 143.234 35.4902 143.515 35.4293C143.796 35.3685 144.086 35.3672 144.368 35.4254C144.649 35.4837 144.915 35.6003 145.149 35.7677C146.52 36.9301 145.794 41.262 147.136 42.8517C148.4 44.5337 149.405 46.3958 150.116 48.3758L144.056 48.6838Z" fill="#FF9566"/>
<path d="M146.291 46.3787C149.709 41.719 152.779 39.9704 154.835 41.5501C156.892 43.1299 158.889 53.3634 156.823 54.1185C154.756 54.8735 149.292 58.8477 149.292 58.8477L146.291 46.3787Z" fill="#FF9566"/>
<path d="M153.544 46.5874H152.123C152.243 43.2888 152.779 41.4806 153.872 40.7354C154.965 39.9903 156.614 40.4374 158.581 41.103C160.834 42.0463 163.283 42.4216 165.715 42.1959C169.004 41.719 171.935 38.3012 172.928 34.9232C173.743 32.181 173.425 29.0811 172.352 28.1472C171.656 27.5411 170.136 27.5312 168.755 28.1472C165.029 29.8164 164.125 32.1214 164.096 33.0454C164.167 33.5232 164.358 33.9755 164.649 34.3608C164.941 34.7461 165.324 35.0522 165.765 35.2511C165.998 35.3872 166.265 35.453 166.535 35.4407C166.805 35.4283 167.065 35.3383 167.285 35.1815C167.285 35.1815 166.768 36.175 165.397 35.3703C164.404 34.8139 163.718 34.2873 163.758 33.0553C163.797 31.8233 164.473 29.6971 168.586 27.8491C170.693 26.8556 171.915 27.3822 172.56 27.9485C173.912 29.1209 174.17 31.8035 173.246 34.9033C172.252 38.2615 169.62 42.0966 165.725 42.6728C163.226 42.9997 160.686 42.7132 158.323 41.8383C156.574 41.2421 155.581 41.0533 154.726 41.6395C153.872 42.2257 153.663 43.6068 153.544 46.5874Z" fill="#8B933F"/>
<path d="M2.63452 127.273C2.63452 127.273 2.70407 130.095 2.87297 131.029C3.14603 132.041 3.47777 133.036 3.86652 134.009L5.57541 134.526L7.5625 133.791L8.41695 131.694L8.12882 129.757C7.28174 129.114 6.3958 128.523 5.47606 127.988C4.54732 127.682 3.59768 127.443 2.63452 127.273Z" fill="#797C31"/>
<path d="M16.4946 127.392C15.2229 127.157 13.9393 126.991 12.6496 126.896C11.5777 127.018 10.5155 127.214 9.47024 127.482L8.62573 129.36L9.01321 131.794L11.0003 133.215H12.9874C13.7997 132.36 14.5595 131.458 15.2626 130.512C15.7404 129.5 16.152 128.458 16.4946 127.392Z" fill="#797C31"/>
<path d="M4.27393 141.968C5.15609 142.228 6.05595 142.424 6.96643 142.554C7.73916 142.468 8.50348 142.318 9.25158 142.107L9.96693 140.378L9.85765 138.103L8.56604 136.702L7.14527 136.593C6.50763 137.394 5.91394 138.23 5.36682 139.096C4.95232 140.034 4.58752 140.992 4.27393 141.968Z" fill="#797C31"/>
<path d="M70.8115 5.42484C76.2065 2.06666 76.0873 8.15709 76.0873 8.15709C76.0873 8.15709 83.0421 11.9922 77.3888 14.4562C71.7355 16.9201 64.8503 9.12082 70.8115 5.42484Z" fill="#592923"/>
<path d="M94.1995 33.6514C110.603 39.1159 134.12 61.5998 133.554 72.7275C133.007 83.5274 102.317 79.6823 97.3589 76.1553L94.1995 33.6514Z" fill="#FFB882"/>
<path d="M94.1995 33.7806L97.3589 76.1751C102.327 79.6824 133.007 83.5472 133.554 72.7474C133.633 71.0783 122.625 71.0683 121.711 68.9918C118.154 56.344 100.469 35.8969 94.1995 33.7806Z" fill="#FF9566"/>
<path d="M87.8409 130.562C87.056 167.194 75.7296 199.047 75.7296 199.047H74.6665L63.7375 128.217L87.8409 130.562Z" fill="#FF9566"/>
<path d="M103.807 132.877C122.168 170.353 153.137 199.047 153.137 199.047H154.13L130.673 126.578L103.807 132.877Z" fill="#FFB882"/>
<path d="M144.881 170.403L130.673 126.578L103.847 132.877C114.587 154.884 129.709 173.87 140.36 185.793C140.271 179.345 141.94 173.761 144.881 170.403Z" fill="#FF9566"/>
<path d="M54.7161 37.1288C59.2367 29.5978 61.0151 26.1999 61.0151 26.1999L59.0976 19.245C59.0976 19.245 67.1254 5.80239 73.0072 8.53463C78.889 11.2669 81.5517 17.874 81.5517 17.874L83.6779 27.7398L92.1627 32.7871L54.7161 37.1288Z" fill="#FFB882"/>
<path d="M67.662 120.348C59.2367 104.114 51.6361 73.5224 51.6361 73.5224L42.6445 45.5541C42.6445 45.5541 57.3887 29.3196 72.1826 29.3196C86.9765 29.3196 95.8091 34.4562 95.8091 34.4562L111.02 94.8736L67.662 120.348Z" fill="#FFB882"/>
<path d="M72.7291 79.6724C66.4897 78.9372 65.9532 63.5869 54.7261 48.952C52.0384 48.0143 49.1174 47.9829 46.4102 48.8626L51.6362 73.5224C51.6362 73.5224 59.2368 104.133 67.6621 120.368L68.2781 120C68.2781 119.921 74.0307 118.013 74.0307 118.013C74.0307 94.973 83.7575 73.8999 98.0049 73.8999C103.4 73.8999 104.463 80.7653 108.606 85.3456L104.463 68.8925C94.1698 68.2268 77.8658 80.2785 72.7291 79.6724Z" fill="#FF9566"/>
<path d="M95.8091 34.4562C95.8091 34.4562 96.0873 34.4562 94.438 33.7707C92.7887 33.0851 94.6268 46.4284 95.1931 53.1547C96.296 65.6535 98.7103 90.3332 97.4584 93.9795C94.8553 101.511 83.7972 106.011 79.5051 106.031C72.8682 106.071 60.0614 75.5095 59.2169 58.6192C59.048 55.2014 47.5924 64.4712 47.0062 61.5005C45.3669 86.051 63.8965 113.105 67.662 120.368L111.02 94.8935L95.8091 34.4562Z" fill="#FF9566"/>
<path d="M55.7793 93.9397C59.5984 93.9397 62.6944 85.6615 62.6944 75.4499C62.6944 65.2382 59.5984 56.96 55.7793 56.96C51.9602 56.96 48.8643 65.2382 48.8643 75.4499C48.8643 85.6615 51.9602 93.9397 55.7793 93.9397Z" fill="#FC8456"/>
<path d="M126.629 91.1677C143.718 88.1871 153.346 54.4066 153.346 54.4066L146.262 47.0345C146.262 47.0345 124.404 60.0599 119.962 65.2362C115.521 70.4126 112.561 93.6118 126.629 91.1677Z" fill="#FFB882"/>
<path d="M132.59 69.1806C126.519 70.2337 123.221 68.8229 120.26 64.8785C120.161 64.9878 118.71 64.5606 118.621 64.6699C114.219 69.8463 112.56 93.6118 126.629 91.1677C143.718 88.1871 153.345 54.4066 153.345 54.4066L150.673 51.6644C146.132 60.8447 141.601 67.6207 132.59 69.1806Z" fill="#FF9566"/>
<path d="M67.6622 189.39C106.5 195.351 146.56 161.858 146.56 161.858L134.438 130.621L134.856 124.044L123.956 91.4062L124.374 81.9576C124.374 81.9576 101.771 42.3251 95.998 33.8402C95.4019 32.9758 94.1898 32.5784 94.2494 33.5024C94.8257 42.1661 103.44 91.4161 98.8893 96.9203C93.0174 104.034 80.1908 111.923 66.6289 114.804C64.5027 115.251 67.6622 189.39 67.6622 189.39Z" fill="#F9D58C"/>
<path d="M74.2593 148.565L84.8405 163.259C79.9722 137.179 92.0139 119.822 92.0139 119.822C92.0139 119.822 77.4187 132.141 74.2593 148.565Z" fill="#F2C679"/>
<path d="M94.7361 150.651C94.7361 150.651 103.589 150.105 107.165 144.452C111.912 136.896 117.687 130.038 124.324 124.074C124.324 124.074 105.069 135.48 94.7361 150.651Z" fill="#F2C679"/>
<path d="M83.5488 120.269C90.1261 111.148 116.117 97.7649 124.701 93.6118L123.956 91.4062L124.344 82.6332C123.211 90.0351 107.454 100.447 99.2071 96.4633C86.7679 107.303 77.9154 110.095 65.8141 115.112C64.3337 122.613 67.6621 189.39 67.6621 189.39C69.93 189.733 72.2154 189.948 74.5076 190.035C75.8787 167.81 70.8116 137.944 83.5488 120.269Z" fill="#F2C679"/>
<path d="M134.806 124.71C131.696 129.181 125.586 133.652 120.737 136.165C99.6442 147.243 81.1842 155.679 74.8652 143.617C72.8782 139.841 71.7455 128.237 71.6064 113.522C69.51 113.88 68.1986 114.466 66.6387 114.804C64.5423 115.241 67.6322 189.39 67.6322 189.39C73.3188 190.224 79.0893 190.321 84.8007 189.678C84.2741 189.072 75.2329 162.852 117.011 140.606C123.281 137.268 129.043 133.791 134.766 131.535L134.408 130.621L134.806 124.71Z" fill="#F2C679"/>
<path d="M75.5308 138.103C74.4873 137.605 73.4119 137.177 72.3117 136.821C71.4632 136.77 70.6119 136.797 69.7683 136.901L69.1721 138.58L69.4304 140.676L70.6426 142.077L71.9242 142.504C72.6027 142.012 73.2467 141.474 73.8517 140.895C74.461 139.995 75.0215 139.063 75.5308 138.103Z" fill="#797C31"/>
<path d="M65.4166 108.078L30.1856 100.05C11.6063 120.815 -2.97895 155.917 4.7707 199.871H65.8936C77.3193 166.578 72.0734 128.535 65.4166 108.078Z" fill="#914343"/>
<path d="M66.4896 121.759C62.2969 117.427 57.0311 114.804 51.4573 114.804C39.2069 114.804 30.1359 127.492 31.2188 143.16C32.3018 158.828 43.1413 171.516 55.3619 171.516C61.5021 171.516 66.8473 168.316 70.5036 163.17C70.8627 149.254 69.5146 135.347 66.4896 121.759Z" fill="#A84E4E"/>
<path d="M23.032 109.091C28.1885 111.466 37.6172 113.065 48.3972 113.065C54.4464 113.112 60.4849 112.546 66.4201 111.376C66.0922 110.234 65.7544 109.131 65.4265 108.088L30.1855 100.05C27.6265 102.921 25.2379 105.94 23.032 109.091Z" fill="#752F2F"/>
<path d="M59.6443 196.99C66.0129 169.658 66.0129 132.887 61.7009 113.771C62.615 144.7 62.3269 173.225 59.6443 196.99Z" fill="#752F2F"/>
<path d="M52.1232 114.824C56.6538 141.65 54.2295 176.791 48.6855 194.506C51.5867 165.097 53.226 137.835 52.1232 114.824Z" fill="#752F2F"/>
<path d="M16.8125 188.585C17.9451 160.04 26.2313 123.428 33.9412 105.326C26.271 135.907 20.0713 164.372 16.8125 188.585Z" fill="#752F2F"/>
<path d="M34.875 194.079C35.1135 166.747 39.644 129.32 44.1348 109.568C41.9888 140.994 38.2332 169.896 34.875 194.079Z" fill="#752F2F"/>
<path d="M47.4533 188.227C32.0931 188.227 13.345 174.119 16.2262 135.212C16.8695 126.314 19.0864 117.602 22.7737 109.479C7.9997 130.701 -1.90594 161.948 4.77067 199.871H65.8935C70.0134 187.434 72.2472 174.45 72.5205 161.352C67.98 180.517 58.3923 188.227 47.4533 188.227Z" fill="#752F2F"/>
<path d="M44.2246 43.9346C31.9742 53.4826 19.6642 83.9546 22.8634 94.7644C26.0626 105.574 55.1834 84.2527 58.631 78.8676C67.7616 64.66 52.5803 37.4567 44.2246 43.9346Z" fill="#FFB882"/>
<path d="M25.337 93.3933C23.1611 86.0708 27.2644 69.0812 34.5074 55.3902C26.0126 68.7236 19.4452 87.6307 21.7801 95.5592C23.2306 100.457 30.2252 98.5994 37.7662 94.5657C31.3181 97.6059 26.6087 97.745 25.337 93.3933Z" fill="#FF9566"/>
<path d="M52.8285 77.3277C45.7446 87.273 37.677 94.5458 30.7222 97.904C40.8265 95.0922 56.0178 84.3123 58.5414 80.6262C61.9195 75.7579 62.5156 69.0713 61.373 62.6033C59.0086 67.7767 56.147 72.708 52.8285 77.3277Z" fill="#FF9566"/>
<path d="M23.7674 99.1161C38.0347 108.982 70.8216 110.909 70.8216 110.909L75.2429 96.9204C75.2429 96.9204 54.5772 82.0172 48.0794 80.0301C41.5816 78.043 14.1697 92.4593 23.7674 99.1161Z" fill="#FFB882"/>
<path d="M26.0822 93.0157C25.5556 92.6779 24.8502 91.1677 24.7608 87.7499C24.7608 87.0644 23.1413 88.9124 22.2471 90.2139C20.7667 92.5587 21.2536 97.3873 23.7871 99.1558C38.0544 109.022 70.8414 110.949 70.8414 110.949C70.8414 110.949 38.8691 101.342 26.0822 93.0157Z" fill="#FF9566"/>
<path d="M57.8659 20.4174C53.9613 14.3966 56.0179 8.84265 59.5351 7.34239C59.5351 7.34239 60.4193 2.75222 64.1153 3.02048C64.1153 3.02048 65.2182 -0.337703 68.2981 0.417391C71.3781 1.17248 71.1695 5.55402 71.1695 5.55402L57.8659 20.4174Z" fill="#723F35"/>
<path d="M64.5623 8.47503C63.1415 10.8297 60.1311 10.7999 59.7436 6.48795C59.6472 6.75342 59.5708 7.02576 59.5151 7.30265C56.0178 8.8029 53.9612 14.3568 57.8658 20.3777L68.3974 8.634C67.8013 8.72342 64.8902 7.94846 64.5623 8.47503Z" fill="#592923"/>
<path d="M75.6898 10.0448C78.8394 4.56047 73.2755 -0.367511 70.1061 1.63945C68.7847 2.47403 63.2804 6.51775 60.1707 22.951L60.419 23.8352C63.7077 15.0424 70.6029 6.47801 75.6898 10.0448Z" fill="#723F35"/>
<path d="M67.1156 116.92L23.9958 107.76C23.1811 108.833 22.3862 109.946 21.6013 111.078L68.8543 121.014C68.5463 119.673 67.4832 118.232 67.1156 116.92Z" fill="#752F2F"/>
<path d="M10.0565 143.975C10.0565 143.975 2.72419 161.461 7.78133 199.871H27.9105C10.3049 165.107 9.24184 154.993 10.0565 143.975Z" fill="#7F3636"/>
<path d="M67.7415 116.245L25.0191 106.309C23.9759 106.379 22.5153 108.157 22.6743 109.558L68.6853 120.219C69.202 120.219 68.5363 116.523 67.7415 116.245Z" fill="#FFC248"/>
<path d="M68.3476 191.645L3.42943 190.323C3.05981 190.894 2.90395 191.577 2.9894 192.252C3.07486 192.926 3.39613 193.549 3.8964 194.01L67.3541 195.311C68.4172 194.208 69.0332 193.026 68.3476 191.645Z" fill="#FFC248"/>
<path d="M65.7545 199.852C65.9568 197.925 65.7155 195.978 65.0491 194.159C64.3752 192.371 63.4339 190.696 62.2573 189.191C59.8394 186.183 57.0521 183.493 53.9612 181.183C47.831 176.404 41.1345 172.35 34.5374 168.068C31.2189 165.932 27.9005 163.766 24.6715 161.421C23.0619 160.239 21.4723 159.017 19.9323 157.725C18.3923 156.434 16.902 155.033 15.4812 153.562C12.5282 150.581 10.2452 147.004 8.7847 143.07C8.09819 141.054 7.78835 138.929 7.87063 136.801C7.99267 134.687 8.4906 132.611 9.34108 130.671L9.50005 130.731C8.22734 134.626 8.35739 138.844 9.86766 142.653C11.4525 146.296 13.7612 149.578 16.6536 152.301C18.0346 153.701 19.505 155.033 21.0152 156.275C22.5254 157.517 24.0654 158.788 25.6352 159.981C28.7649 162.385 32.0038 164.64 35.2527 166.866C41.7505 171.277 48.4072 175.122 54.4877 180.08C57.7113 182.634 60.6167 185.566 63.1415 188.813C64.3006 190.4 65.2149 192.151 65.8539 194.01C66.4751 195.887 66.6652 197.88 66.4103 199.842L65.7545 199.852Z" fill="#8B933F"/>
<path d="M160.946 200.001H152.004C152.004 200.001 151.458 196.781 152.481 196.235C153.504 195.689 160.946 200.001 160.946 200.001Z" fill="#FFB882"/>
<path d="M68.4768 200.001H77.2796C77.2796 200.001 76.9517 196.652 75.7893 196.086C74.6268 195.52 68.4768 200.001 68.4768 200.001Z" fill="#FFB882"/>
<path d="M97.6969 71.1279C95.7407 67.4028 93.2615 63.9768 90.3347 60.954C90.3347 60.954 93.2359 67.7101 92.4808 72.6679L97.6969 71.1279Z" fill="#FF9566"/>
<path d="M121.294 88.4255C120.37 79.9009 105.566 55.9664 105.566 55.9664C105.566 55.9664 118.005 87.3724 116.167 96.1056L121.294 88.4255Z" fill="#F2C679"/>
<path d="M114.438 151.377C114.438 151.377 123.757 170.413 117.717 179.802C122.374 177.587 126.914 175.133 131.318 172.45C123.897 162.196 114.438 151.377 114.438 151.377Z" fill="#F2C679"/>
<path d="M62.3863 115.003L28.1587 107.055C27.5626 108.137 26.9863 109.26 26.4299 110.442L63.2507 118.987C62.9924 117.616 62.7042 116.245 62.3863 115.003Z" fill="#FFDB80"/>
<path d="M56.1668 191.396L18.124 190.622C18.4221 191.893 18.74 193.135 19.1176 194.327L54.6169 195.053C55.1236 193.87 55.6502 192.658 56.1668 191.396Z" fill="#FFDB80"/>
<path d="M0.915771 145.962C2.05673 145.293 3.23428 144.69 4.44285 144.153C5.50699 143.932 6.58647 143.793 7.67187 143.736L9.04296 145.505L9.43045 148.287L7.98981 150.492L6.0822 151.218C5.04586 150.542 4.05056 149.805 3.10157 149.012C2.31052 148.041 1.58051 147.023 0.915771 145.962Z" fill="#AAAF4E"/>
<path d="M26.3704 171.655L26.132 171.267C25.5527 172.237 24.7398 173.047 23.7673 173.622L24.7609 174.248C24.7609 174.248 25.2378 172.241 26.3704 171.655Z" fill="#8B933F"/>
<path d="M37.965 187.571L38.3525 187.333C37.4008 186.733 36.6123 185.907 36.0574 184.929L35.4116 185.922C35.4116 185.922 37.3987 186.419 37.965 187.571Z" fill="#8B933F"/>
<path d="M30.3644 188.903L29.9272 189.032C30.6998 189.849 31.2564 190.846 31.5467 191.933L32.421 191.158C32.421 191.158 30.6227 190.155 30.3644 188.903Z" fill="#8B933F"/>
<path d="M27.0659 185.028C27.0659 185.028 29.4008 185.535 30.136 185.833C30.9017 186.242 31.6387 186.704 32.3417 187.214V188.774L31.219 190.383L29.2319 190.8L27.7416 190.254C27.4186 189.404 27.1498 188.535 26.9368 187.651C26.9196 186.775 26.9627 185.898 27.0659 185.028Z" fill="#8B933F"/>
<path d="M41.373 192.549C41.373 192.549 41.4525 190.025 41.373 189.191C41.1791 188.3 40.9336 187.421 40.6378 186.558L39.207 186.121L37.4982 186.816L36.6636 188.704L36.8225 190.423C37.513 190.987 38.2399 191.504 38.9984 191.973C39.7732 192.228 40.5673 192.421 41.373 192.549Z" fill="#AAAF4E"/>
<path d="M31.1691 168.793C31.1691 168.793 28.6356 168.724 27.801 168.793C26.9121 168.991 26.0361 169.243 25.178 169.548L24.7607 171.019L25.4662 172.728L27.3539 173.542L29.0827 173.374C29.6418 172.684 30.153 171.957 30.6127 171.198C30.8616 170.412 31.0476 169.608 31.1691 168.793Z" fill="#AAAF4E"/>
<path d="M15.5806 137.109C14.5221 137.603 13.4996 138.171 12.5205 138.808C11.8362 139.553 11.2116 140.35 10.6526 141.193L11.2885 143.518L13.1663 145.703L15.4911 145.992L16.9616 144.909C16.9763 143.582 16.92 142.255 16.7927 140.934C16.4554 139.639 16.0508 138.362 15.5806 137.109Z" fill="#AAAF4E"/>
<path d="M55.2328 181.511C43.6382 168.803 38.7499 158.182 39.8428 149.509C40.023 147.732 40.5972 146.019 41.5237 144.492C42.4501 142.966 43.7054 141.666 45.198 140.686C50.7321 137.109 57.4385 139.096 62.7639 140.09C66.3705 140.775 69.6194 141.272 71.8052 140.189C72.292 140.378 72.3615 140.666 71.8648 141.103C69.4405 142.296 66.3605 141.6 62.6149 140.875C57.4385 139.881 51.5667 138.768 46.3108 142.216C44.915 143.13 43.7433 144.347 42.8832 145.776C42.0231 147.206 41.4966 148.811 41.3431 150.472C40.28 158.898 45.973 170.443 57.369 182.981L55.2328 181.511Z" fill="#8B933F"/>
<path d="M76.7729 36.6917C69.1922 40.8348 62.8633 40.487 64.8504 38.6092C66.8375 36.7314 76.7729 36.6917 76.7729 36.6917Z" fill="#FF9566"/>
<path d="M80.5186 35.7677C86.7481 35.1914 88.6855 33.4726 88.0297 32.9659C87.1654 32.2704 80.5186 35.7677 80.5186 35.7677Z" fill="#FF9566"/>
<path d="M104.304 65.3455C98.6508 53.8403 97.0115 38.947 97.0115 38.947C101.493 47.0473 103.992 56.0936 104.304 65.3455Z" fill="#F2C679"/>
<path d="M78.7203 74.0887C78.4123 73.433 76.7332 73.3932 75.0144 74.0092C73.2956 74.6252 72.1132 75.6486 72.451 76.3043C72.7888 76.96 74.4381 76.9998 76.157 76.3838C77.8758 75.7678 79.0382 74.7444 78.7203 74.0887Z" fill="#FC8456"/>
<g style="mix-blend-mode:multiply" opacity="0.6">
<path d="M47.1155 41.2223C52.1527 42.6331 59.7832 42.4145 67.9799 40.2287C76.733 37.9237 83.8766 34.0091 87.5329 30.025L83.6481 27.6703L81.661 18.2018C68.2879 28.5645 71.1096 17.7945 64.6813 19.3245C62.9128 19.7418 61.2039 20.2287 59.5547 20.785L61.0251 26.1601C61.0251 26.1601 59.654 28.8129 56.2958 34.4661C53.0444 36.446 49.9726 38.7066 47.1155 41.2223Z" fill="#C94343"/>
</g>
<path d="M62.456 21.1328C66.4302 23.9346 62.6547 23.8253 60.6478 26.8655C60.6478 26.8655 58.4123 28.3459 57.1406 25.5839C55.8688 22.8218 55.5608 15.0026 59.992 14.5953C64.4232 14.1879 62.456 21.1328 62.456 21.1328Z" fill="#592923"/>
<path d="M61.522 16.5824C62.2075 28.2267 67.3441 30.2138 70.4639 30.9689C73.5836 31.724 75.5409 28.8129 75.5409 28.8129C75.5409 28.8129 79.0282 31.3464 82.2473 28.8129C82.2473 28.8129 85.3273 31.6246 88.0695 28.8824C89.0751 27.9983 89.804 26.8427 90.1688 25.5543C90.5337 24.266 90.5188 22.8997 90.1261 21.6196C90.6646 21.1387 91.015 20.4824 91.115 19.7675C91.2151 19.0525 91.0583 18.3252 90.6726 17.715C89.371 15.3206 87.8012 16.1452 87.8012 16.1452C87.8012 16.1452 84.2046 12.2406 81.7307 16.0061C78.5141 16.2298 75.4209 17.3331 72.7888 19.1954C71.7952 19.8809 69.6094 17.5461 68.1688 11.8332C65.9333 2.98073 61.522 16.5824 61.522 16.5824Z" fill="#723F35"/>
<path d="M84.5226 24.8983C81.1545 27.1835 77.5082 24.3717 77.5082 24.3717C76.9081 25.1685 76.082 25.7661 75.1375 26.0869C74.193 26.4076 73.1738 26.4366 72.2126 26.1701C69.0829 25.2262 63.6383 21.9574 62.5255 11.7537C61.9493 13.303 61.6142 14.9315 61.532 16.5823C62.2175 28.2267 66.8773 30.6211 70.0268 31.3762C73.1763 32.1313 75.7099 29.3891 75.7099 29.3891C76.6807 30.0167 77.8237 30.3244 78.9784 30.2692C80.1331 30.2139 81.2415 29.7985 82.148 29.0811C82.148 29.0811 85.6751 31.724 88.4173 28.9818C89.2077 28.0767 89.7728 26.9974 90.0666 25.8322C87.3542 27.571 84.5226 24.8983 84.5226 24.8983Z" fill="#592923"/>
<path d="M63.8072 19.0463C61.6313 20.5764 59.5747 19.4139 60.5881 17.6156C60.7064 17.3651 60.8913 17.152 61.1226 16.9995C61.3539 16.8471 61.6227 16.7612 61.8995 16.7513C62.361 16.7543 62.8047 16.9289 63.1445 17.2411C63.4842 17.5533 63.6957 17.9808 63.7376 18.4403L63.8072 19.0463Z" fill="#FFB882"/>
<path d="M91.1295 19.2152C90.5334 21.3812 88.1489 21.6395 86.0525 20.2088C86.3932 21.1128 86.99 21.8978 87.77 22.4678C88.55 23.0377 89.4792 23.3679 90.444 23.4179C90.4186 22.7907 90.3117 22.1695 90.126 21.5699C90.4577 21.2766 90.7198 20.9131 90.8934 20.5058C91.067 20.0985 91.1476 19.6576 91.1295 19.2152Z" fill="#592923"/>
<path d="M73.2458 22.3747C77.8658 22.3747 76.8027 25.9713 75.4316 27.1636L79.3065 25.6037C79.227 21.8581 75.9284 21.2421 73.2458 22.3747Z" fill="#592923"/>
<path d="M69.679 19.5729C67.5032 23.6564 64.8305 21.0235 64.4232 19.2451L63.9761 23.408C67.2846 25.0871 69.4108 22.484 69.679 19.5729Z" fill="#592923"/>
<path d="M67.0262 13.8004C62.7639 15.6087 62.4559 12.4989 63.2904 11.0682L60.3098 13.7507C61.6809 16.4929 64.9497 15.6882 67.0262 13.8004Z" fill="#592923"/>
<path d="M62.9626 18.6589C61.8399 19.4537 60.7867 18.8576 61.3034 17.9236C61.3643 17.7952 61.4597 17.6863 61.5791 17.6091C61.6984 17.5318 61.8369 17.4894 61.979 17.4865C62.2129 17.4962 62.4359 17.5883 62.6086 17.7464C62.7813 17.9046 62.8926 18.1187 62.9228 18.3509L62.9626 18.6589Z" fill="#EA7B59"/>
<path d="M63.1612 18.8774C62.4359 19.3841 61.7504 18.9967 62.0882 18.4005C62.1288 18.3179 62.1907 18.2476 62.2676 18.197C62.3444 18.1463 62.4334 18.1171 62.5254 18.1124C62.6788 18.1144 62.8259 18.1735 62.938 18.2783C63.0501 18.383 63.1191 18.5258 63.1314 18.6787L63.1612 18.8774Z" fill="#FFB882"/>
<path d="M4.39318 199.871C2.52531 189.32 4.24414 181.163 8.80451 176.781C12.4011 173.324 17.7464 172.34 24.7012 173.86C32.8085 175.629 35.5209 179.961 36.0972 182.355C36.4585 184.097 36.3459 185.903 35.7709 187.586C35.1959 189.269 34.1797 190.767 32.8284 191.923C31.9476 192.623 30.8902 193.066 29.7733 193.203C28.6563 193.34 27.5233 193.165 26.4995 192.698C21.5318 190.403 21.2536 185.992 22.277 183.587C23.0519 181.779 24.5224 180.895 25.8537 181.411L25.7643 181.64C24.7012 181.213 23.1215 182.435 22.6247 183.627C21.5418 186.161 22.6247 190.065 26.8373 191.993C27.6792 192.357 28.6091 192.467 29.5128 192.31C30.4165 192.153 31.2546 191.735 31.9243 191.108C33.1353 190.072 34.0408 188.725 34.5432 187.213C35.0457 185.7 35.1261 184.079 34.7758 182.524C33.8617 178.699 30.2154 175.917 24.5323 174.675C17.8557 173.225 12.7489 174.129 9.3609 177.397C4.99924 181.58 4.64156 189.618 6.45975 199.901L4.39318 199.871Z" fill="#8B933F"/>
<path d="M14.1796 171.466C11.8348 171.466 8.85417 170.562 7.56257 168.227C6.92288 166.908 6.66042 165.438 6.8042 163.979C6.94798 162.52 7.4924 161.129 8.37727 159.961C11.3579 156.632 16.3256 156.444 24.9198 159.822L26.3505 161.878C14.6664 157.258 10.4538 159.643 9.13237 161.093C7.68179 162.743 7.56257 165.703 8.76476 167.879C10.5035 171.019 15.0141 171.108 17.5974 169.976C18.1935 169.717 20.4985 168.634 19.9918 167.114C19.3162 165.127 18.0047 163.379 16.8721 163.011C16.4714 162.926 16.0573 162.926 15.6568 163.012C15.2563 163.098 14.8782 163.267 14.5472 163.508L14.3485 163.229C14.7247 162.941 15.1643 162.746 15.6308 162.661C16.0974 162.577 16.5774 162.605 17.031 162.743C18.4121 163.2 19.5845 164.73 20.3395 166.975C20.8264 168.416 19.8925 169.847 17.9252 170.711C16.7396 171.21 15.466 171.467 14.1796 171.466Z" fill="#8B933F"/>
<path d="M40.7273 156.175C38.005 149.608 39.7337 143.587 41.0949 138.749C42.1679 134.963 43.082 131.704 41.691 129.23C40.6975 127.412 38.3328 126.041 34.617 125.048C30.3547 123.925 27.2846 124.72 26.152 127.641C24.6617 131.506 26.9766 137.904 29.5201 139.225C31.0402 140.02 32.2225 139.981 33.0472 139.126C34.5276 137.566 34.8157 133.662 33.9612 132.171C33.8165 131.969 33.6232 131.807 33.3992 131.699C33.1752 131.592 32.9277 131.542 32.6796 131.555L32.5603 131.088C32.9379 130.999 33.6632 130.989 34.2593 132.012C34.7801 133.2 34.963 134.509 34.7877 135.794C34.6124 137.079 34.0857 138.29 33.2658 139.295C32.5107 140.08 31.388 140.775 29.0531 139.563C26.142 138.053 23.5588 131.516 25.2479 127.134C25.993 125.216 28.5961 121.978 34.8753 123.637C38.8495 124.7 41.1744 126.756 42.3368 128.803C43.9066 131.565 42.9429 134.983 41.8102 138.937C40.3994 143.905 38.8296 149.529 41.4228 155.828L40.7273 156.175Z" fill="#8B933F"/>
<path d="M41.7006 120.269C40.9202 120.256 40.1449 120.139 39.3956 119.921C34.0603 118.411 28.0792 112.38 26.9763 103.786C27.0657 102.484 27.4135 102.216 27.9699 102.792C29.023 111.039 34.6167 117.199 39.7036 118.689C41.9192 119.315 43.7871 119.454 44.7409 118.272C46.5193 116.066 46.3008 113.632 45.1482 112.579C44.7093 112.179 44.1371 111.958 43.5437 111.958C42.9502 111.958 42.3781 112.179 41.9391 112.579L41.6112 112.41C41.8558 112.139 42.1519 111.92 42.4822 111.765C42.8126 111.61 43.1705 111.522 43.5351 111.508C43.8997 111.493 44.2635 111.551 44.6053 111.679C44.9472 111.806 45.2601 112.001 45.5258 112.251C46.9565 113.562 47.3042 116.225 45.2178 118.848C44.7768 119.335 44.2313 119.716 43.6222 119.962C43.013 120.208 42.3561 120.313 41.7006 120.269Z" fill="#8B933F"/>
<path d="M57.4683 139.881H56.7431L56.7927 139.076C62.1082 139.374 64.9597 136.046 65.7943 133.115C66.6288 130.184 65.6651 127.472 63.4396 126.28C60.4589 124.66 57.2299 124.551 55.3322 125.991C54.6971 126.502 54.2311 127.193 53.9953 127.973C53.7595 128.753 53.7649 129.586 54.0108 130.363C54.197 130.97 54.5721 131.501 55.0814 131.88C55.5907 132.259 56.2077 132.466 56.8424 132.469C58.452 132.618 59.823 132.012 60.1211 131.376C60.2602 131.068 60.1211 130.721 59.6541 130.383L59.8529 130.005C60.8464 130.84 60.7272 131.237 60.5682 131.615C60.0714 132.787 58.3625 133.065 56.7331 132.916C54.8355 132.748 53.7525 131.923 53.4445 130.313C52.9577 128.138 53.1762 126.071 54.7162 124.908C56.8623 123.269 60.6775 123.269 63.9959 125.038C66.5593 126.419 67.4833 130.105 66.5692 133.373C65.9965 135.319 64.7893 137.016 63.14 138.195C61.4907 139.375 59.4941 139.968 57.4683 139.881Z" fill="#8B933F"/>
<path d="M61.7107 177.845C57.0808 177.845 51.0202 173.87 45.0987 166.916L44.4529 164.769C50.901 172.34 58.6705 177.874 63.1514 176.861C64.1692 176.616 65.094 176.081 65.8136 175.321C66.5332 174.561 67.0166 173.608 67.205 172.579C67.7217 170.846 67.7011 168.998 67.1459 167.277C66.5907 165.557 65.5271 164.045 64.0953 162.941C62.3963 161.799 60.4887 161.59 58.9984 162.713C56.5543 164.541 56.0773 167.939 57.1007 169.668C57.7664 170.78 58.899 171.049 60.2999 170.413L60.4291 170.691C58.6606 171.496 57.5379 171.049 56.6635 169.578C55.4415 167.502 55.7594 164.352 58.5811 162.236C59.441 161.591 60.4868 161.242 61.5617 161.242C62.6366 161.242 63.6825 161.591 64.5424 162.236C66.1438 163.438 67.334 165.106 67.9495 167.011C68.565 168.916 68.5757 170.965 67.98 172.877C67.7499 174.046 67.1897 175.125 66.3657 175.986C65.5417 176.847 64.4883 177.454 63.3302 177.735C62.7963 177.833 62.253 177.87 61.7107 177.845Z" fill="#8B933F"/>
<path d="M11.974 148.396C10.6655 148.419 9.35792 148.316 8.06934 148.088L8.31772 148.227C10.167 148.629 11.9001 149.448 13.3848 150.621L11.974 148.396Z" fill="#8B933F"/>
<path d="M12.8384 148.704C12.8384 148.704 13.0967 145.246 13.1861 143.945L13.4842 144.372C12.8781 148.187 14.0306 149.638 14.0306 149.638L12.8384 148.704Z" fill="#8B933F"/>
<path d="M75.9086 149.28C76.138 148.035 76.3005 146.778 76.3954 145.515C76.2622 144.508 76.0597 143.512 75.7894 142.534L73.8718 141.888L71.3979 142.464L69.9573 144.452V146.439C70.833 147.161 71.7557 147.825 72.7193 148.426C73.7624 148.781 74.8278 149.066 75.9086 149.28Z" fill="#AAAF4E"/>
<path d="M69.9075 141.193C69.9075 141.193 71.7456 142.623 72.441 143.18L72.0039 143.249C70.1857 141.441 68.606 141.779 68.606 141.779L69.9075 141.193Z" fill="#8B933F"/>
<path d="M46.5393 120.537C46.804 121.773 47.1357 122.993 47.5329 124.193C48.0553 125.081 48.6396 125.931 49.2815 126.737L51.2686 126.588L53.3153 125.087L53.8518 122.673L53.1364 120.865C52.0479 120.546 50.9393 120.301 49.818 120.13C48.7175 120.195 47.6224 120.331 46.5393 120.537Z" fill="#AAAF4E"/>
<path d="M55.213 125.644L52.123 124.829L52.5006 124.591C54.8851 125.584 56.1966 124.591 56.1966 124.591L55.213 125.644Z" fill="#8B933F"/>
<path d="M56.4051 149.568C57.0989 148.51 57.7357 147.416 58.3127 146.29C58.5875 145.295 58.7901 144.283 58.9187 143.259L57.4085 141.928L54.9048 141.501L52.7985 142.802L52.0037 144.571C52.5338 145.572 53.1279 146.537 53.7821 147.462C54.6103 148.22 55.4864 148.923 56.4051 149.568Z" fill="#AAAF4E"/>
<path d="M54.0108 139.792L55.5607 142.574L55.1335 142.464C54.1797 140.09 52.5801 139.792 52.5801 139.792H54.0108Z" fill="#8B933F"/>
<path d="M31.2686 154.854C32.2712 154.14 33.3091 153.477 34.3783 152.867C35.355 152.555 36.3506 152.306 37.359 152.122L38.6705 153.443L39.197 155.708L38.0247 157.695L36.3257 158.54C35.3288 158.119 34.3598 157.634 33.4245 157.089C32.6574 156.393 31.9372 155.646 31.2686 154.854Z" fill="#AAAF4E"/>
<path d="M40.9357 156.424L38.1438 155.162L38.263 155.549C40.6277 156.285 40.9953 157.715 40.9953 157.715L40.9357 156.424Z" fill="#8B933F"/>
<path d="M67.4236 156.613C66.6214 157.024 65.842 157.478 65.0888 157.974C64.5576 158.502 64.063 159.067 63.6084 159.663L64.0058 161.004L65.3272 162.127L67.056 162.027L68.1787 161.183C68.2275 160.382 68.2275 159.579 68.1787 158.778C67.9747 158.041 67.7224 157.317 67.4236 156.613Z" fill="#AAAF4E"/>
<path d="M65.2278 163.538C65.2278 163.538 65.2973 161.888 65.3271 161.262L65.5358 161.481C65.4091 161.914 65.3909 162.372 65.4827 162.813C65.5746 163.255 65.7736 163.668 66.0624 164.014L65.2278 163.538Z" fill="#8B933F"/>
<path d="M50.3645 164.571C50.3645 164.571 51.9442 165.922 52.5801 166.23C53.2685 166.524 53.9754 166.773 54.6964 166.975L55.7992 166.111L56.3456 164.471L55.5607 162.941L54.3685 162.206C53.6015 162.448 52.8514 162.74 52.1231 163.08C51.5031 163.536 50.9155 164.034 50.3645 164.571Z" fill="#AAAF4E"/>
<path d="M57.6172 164.064L55.4612 164.809L55.5903 164.531C57.3787 164.144 57.7463 163.11 57.7463 163.11L57.6172 164.064Z" fill="#8B933F"/>
<path d="M60.896 168.197C60.2758 167.809 59.6817 167.381 59.1176 166.916C58.7465 166.447 58.4142 165.948 58.124 165.425L58.6407 164.253L59.9025 163.259L61.3431 163.369L62.1777 164.124C62.1128 164.831 62.0067 165.535 61.8597 166.23C61.5784 166.905 61.2566 167.561 60.896 168.197Z" fill="#AAAF4E"/>
<path d="M59.9819 162.107C59.9819 162.107 59.823 163.557 59.7534 164.094L59.9621 163.905C59.9239 163.501 59.9744 163.093 60.11 162.711C60.2455 162.328 60.4629 161.98 60.747 161.69L59.9819 162.107Z" fill="#8B933F"/>
<path d="M24.4726 145.574C25.4339 145.405 26.3856 145.186 27.3241 144.918C28.0148 144.544 28.6788 144.123 29.3112 143.657V142.107L28.2183 140.467L26.3802 139.971L24.9595 140.467C24.6788 141.294 24.4498 142.136 24.2739 142.991C24.2826 143.856 24.349 144.719 24.4726 145.574Z" fill="#AAAF4E"/>
<path d="M28.735 139.096L28.0097 141.451L27.8408 141.143C28.0923 140.716 28.2372 140.235 28.2631 139.74C28.2891 139.246 28.1953 138.752 27.9899 138.301L28.735 139.096Z" fill="#8B933F"/>
<path d="M20.2103 121.362C20.1761 122.339 20.196 123.317 20.2699 124.292C20.4885 125.057 20.7642 125.804 21.0946 126.528L22.6246 126.796L24.4428 126.071L25.3072 124.362L25.1184 122.872C24.3619 122.43 23.5789 122.035 22.7737 121.689C21.9273 121.524 21.071 121.415 20.2103 121.362Z" fill="#AAAF4E"/>
<path d="M25.7546 126.826L23.5886 125.634L23.9264 125.534C24.2934 125.867 24.735 126.107 25.214 126.233C25.693 126.359 26.1953 126.368 26.6785 126.26L25.7546 126.826Z" fill="#8B933F"/>
<path d="M31.6162 132.599C30.6908 132.672 29.7622 132.695 28.8343 132.668C28.0899 132.481 27.3595 132.242 26.6485 131.953L26.261 130.452L26.7975 128.614L28.3474 127.68L29.7682 127.81C30.2533 128.534 30.6945 129.288 31.0896 130.065C31.3208 130.897 31.4967 131.743 31.6162 132.599Z" fill="#AAAF4E"/>
<path d="M25.9629 127.382L27.2843 129.469L27.3539 129.141C27.0023 128.792 26.736 128.367 26.5757 127.898C26.4155 127.429 26.3656 126.93 26.4299 126.439L25.9629 127.382Z" fill="#8B933F"/>
<path d="M39.7436 112.161C39.3153 112.982 38.841 113.778 38.3229 114.546C37.7691 115.081 37.1782 115.575 36.5544 116.026L35.074 115.559L33.8022 114.119V112.32L34.6666 111.168C35.5386 111.147 36.4111 111.177 37.2797 111.257C38.1188 111.508 38.9417 111.81 39.7436 112.161Z" fill="#AAAF4E"/>
<path d="M32.3218 114.178H34.7858L34.5374 113.94C34.0567 114.05 33.557 114.05 33.0766 113.938C32.5962 113.826 32.1477 113.606 31.7654 113.294L32.3218 114.178Z" fill="#8B933F"/>
<path d="M52.58 133.135C51.7569 133.383 50.9477 133.675 50.1557 134.009C49.5786 134.403 49.0308 134.838 48.5164 135.311L48.7151 136.672L49.8278 137.984L51.497 138.232L52.6892 137.656C52.8506 136.906 52.9601 136.145 53.0171 135.38C52.9216 134.623 52.7755 133.873 52.58 133.135Z" fill="#AAAF4E"/>
<path d="M49.5198 139.295L49.9172 137.159L50.096 137.407C49.9173 137.806 49.8384 138.243 49.8661 138.679C49.8938 139.115 50.0273 139.538 50.255 139.911L49.5198 139.295Z" fill="#8B933F"/>
<path d="M75.0043 123.418C73.8123 122.987 72.5986 122.619 71.368 122.315C70.34 122.277 69.3106 122.313 68.288 122.425L67.2944 124.193L67.4534 126.737L69.202 128.485L71.1196 128.853C71.9683 128.107 72.7681 127.307 73.514 126.458C74.0779 125.479 74.5758 124.464 75.0043 123.418Z" fill="#AAAF4E"/>
<path d="M66.0327 127.998L68.3874 125.823V126.27C66.301 127.77 66.4003 129.37 66.4003 129.37L66.0327 127.998Z" fill="#8B933F"/>
<path d="M152.153 56.801C148.129 43.9744 154.14 45.2262 153.763 43.4975C153.524 42.4344 146.689 42.2059 143.499 47.6107C141.264 51.3862 138.591 64.342 145.834 66.4086C149.341 67.4121 154.041 62.802 152.153 56.801Z" fill="#7D358E"/>
<path d="M143.986 64.2228C144.011 63.9433 143.952 63.663 143.817 63.417C143.682 63.171 143.477 62.9705 143.229 62.8406C142.98 62.7108 142.698 62.6575 142.42 62.6873C142.141 62.7172 141.877 62.829 141.661 63.0085C141.446 63.1881 141.288 63.4275 141.209 63.6964C141.129 63.9654 141.131 64.2519 141.214 64.5198C141.296 64.7878 141.457 65.0253 141.674 65.2023C141.892 65.3792 142.157 65.4879 142.436 65.5144C142.623 65.5322 142.812 65.5128 142.991 65.4573C143.17 65.4019 143.336 65.3116 143.48 65.1915C143.625 65.0714 143.743 64.924 143.83 64.7577C143.917 64.5915 143.97 64.4097 143.986 64.2228Z" fill="#7D358E"/>
<path d="M143.171 61.5999C143.2 61.3176 143.144 61.0332 143.01 60.7829C142.877 60.5326 142.672 60.3277 142.421 60.1942C142.171 60.0606 141.887 60.0045 141.604 60.0329C141.322 60.0614 141.055 60.1731 140.836 60.3538C140.617 60.5346 140.458 60.7763 140.377 61.0482C140.296 61.3202 140.297 61.61 140.382 61.8809C140.466 62.1518 140.629 62.3916 140.849 62.5698C141.07 62.7479 141.339 62.8565 141.621 62.8815C141.808 62.9007 141.996 62.8826 142.175 62.8283C142.354 62.774 142.521 62.6846 142.665 62.5653C142.809 62.4461 142.928 62.2993 143.015 62.1335C143.102 61.9677 143.155 61.7863 143.171 61.5999Z" fill="#7D358E"/>
<path d="M142.993 59.0762C143.017 58.7968 142.958 58.5164 142.823 58.2705C142.688 58.0245 142.484 57.8239 142.235 57.6941C141.986 57.5642 141.705 57.5109 141.426 57.5408C141.147 57.5707 140.883 57.6824 140.668 57.862C140.452 58.0416 140.295 58.2809 140.215 58.5499C140.135 58.8188 140.137 59.1053 140.22 59.3733C140.303 59.6413 140.463 59.8787 140.681 60.0557C140.898 60.2327 141.164 60.3413 141.443 60.3679C141.63 60.3856 141.818 60.3662 141.997 60.3108C142.176 60.2554 142.343 60.165 142.487 60.0449C142.631 59.9248 142.75 59.7774 142.837 59.6112C142.923 59.4449 142.977 59.2631 142.993 59.0762Z" fill="#7D358E"/>
<path d="M143.152 56.1354C143.178 55.8557 143.12 55.5745 142.987 55.3274C142.853 55.0803 142.65 54.8783 142.401 54.7469C142.153 54.6155 141.871 54.5607 141.592 54.5894C141.313 54.618 141.048 54.7288 140.832 54.9078C140.615 55.0868 140.457 55.326 140.376 55.595C140.295 55.8641 140.296 56.151 140.379 56.4196C140.461 56.6881 140.621 56.9261 140.839 57.1037C141.057 57.2812 141.322 57.3903 141.602 57.417C141.977 57.4503 142.35 57.3344 142.64 57.0945C142.93 56.8546 143.114 56.5099 143.152 56.1354Z" fill="#7D358E"/>
<path d="M143.43 53.6515C143.456 53.3718 143.399 53.0907 143.266 52.8435C143.132 52.5964 142.928 52.3944 142.68 52.263C142.432 52.1317 142.15 52.0769 141.871 52.1055C141.591 52.1341 141.327 52.2449 141.11 52.4239C140.894 52.6029 140.735 52.8421 140.654 53.1112C140.574 53.3802 140.575 53.6672 140.657 53.9357C140.74 54.2042 140.9 54.4423 141.117 54.6198C141.335 54.7974 141.601 54.9064 141.88 54.9332C142.255 54.9664 142.628 54.8505 142.918 54.6106C143.208 54.3707 143.392 54.0261 143.43 53.6515Z" fill="#7D358E"/>
<path d="M143.986 51.0583C144.013 50.7763 143.955 50.4927 143.82 50.2435C143.685 49.9944 143.479 49.7909 143.229 49.6589C142.978 49.5269 142.694 49.4722 142.412 49.5019C142.13 49.5316 141.864 49.6443 141.646 49.8257C141.428 50.007 141.269 50.2489 141.189 50.5207C141.109 50.7925 141.112 51.0819 141.196 51.3523C141.281 51.6227 141.444 51.8618 141.665 52.0394C141.886 52.217 142.154 52.3251 142.436 52.3499C142.813 52.3831 143.187 52.2659 143.478 52.0239C143.768 51.7818 143.951 51.4347 143.986 51.0583Z" fill="#7D358E"/>
<path d="M144.98 48.4751C145.006 48.1931 144.948 47.9095 144.814 47.6603C144.679 47.4112 144.473 47.2077 144.222 47.0757C143.972 46.9437 143.687 46.889 143.406 46.9187C143.124 46.9484 142.857 47.0611 142.64 47.2424C142.422 47.4238 142.263 47.6657 142.183 47.9375C142.103 48.2093 142.105 48.4987 142.19 48.7691C142.275 49.0394 142.438 49.2786 142.659 49.4562C142.879 49.6338 143.148 49.7419 143.43 49.7667C143.807 49.7999 144.181 49.6827 144.471 49.4406C144.762 49.1986 144.945 48.8515 144.98 48.4751Z" fill="#7D358E"/>
<path d="M146.569 46.5278C146.596 46.2457 146.538 45.9621 146.403 45.713C146.268 45.4639 146.062 45.2604 145.812 45.1284C145.561 44.9963 145.277 44.9417 144.995 44.9714C144.713 45.0011 144.447 45.1137 144.229 45.2951C144.011 45.4765 143.852 45.7184 143.772 45.9902C143.692 46.2619 143.695 46.5514 143.779 46.8217C143.864 47.0921 144.027 47.3313 144.248 47.5089C144.469 47.6865 144.737 47.7945 145.019 47.8194C145.396 47.8526 145.77 47.7353 146.061 47.4933C146.351 47.2513 146.534 46.9042 146.569 46.5278Z" fill="#7D358E"/>
<path d="M148.517 44.9878C148.541 44.7083 148.482 44.428 148.347 44.182C148.212 43.936 148.008 43.7355 147.759 43.6056C147.511 43.4758 147.229 43.4224 146.95 43.4523C146.671 43.4822 146.407 43.594 146.192 43.7735C145.976 43.9531 145.819 44.1924 145.739 44.4614C145.66 44.7303 145.661 45.0169 145.744 45.2848C145.827 45.5528 145.987 45.7902 146.205 45.9672C146.423 46.1442 146.688 46.2528 146.967 46.2794C147.154 46.2971 147.342 46.2777 147.521 46.2223C147.7 46.1669 147.867 46.0765 148.011 45.9565C148.155 45.8364 148.274 45.689 148.361 45.5227C148.448 45.3565 148.501 45.1746 148.517 44.9878Z" fill="#7D358E"/>
<path d="M152.153 48.5645C152.179 48.2825 152.122 47.9989 151.987 47.7498C151.852 47.5006 151.646 47.2971 151.395 47.1651C151.145 47.0331 150.86 46.9784 150.579 47.0081C150.297 47.0378 150.03 47.1505 149.813 47.3319C149.595 47.5132 149.436 47.7551 149.356 48.0269C149.276 48.2987 149.279 48.5881 149.363 48.8585C149.448 49.1289 149.611 49.368 149.832 49.5456C150.052 49.7232 150.321 49.8313 150.603 49.8562C150.98 49.8893 151.354 49.7721 151.644 49.5301C151.935 49.288 152.118 48.9409 152.153 48.5645Z" fill="#7D358E"/>
<path d="M152.362 51.4061C152.394 51.1259 152.342 50.8425 152.212 50.5919C152.083 50.3414 151.882 50.135 151.635 49.9991C151.388 49.8631 151.106 49.8038 150.825 49.8287C150.544 49.8536 150.277 49.9615 150.057 50.1387C149.838 50.3159 149.676 50.5543 149.593 50.8238C149.509 51.0932 149.508 51.3813 149.589 51.6514C149.67 51.9216 149.829 52.1616 150.047 52.3408C150.265 52.5201 150.531 52.6305 150.812 52.6579C151.182 52.6917 151.551 52.5798 151.84 52.3461C152.13 52.1124 152.317 51.7753 152.362 51.4061Z" fill="#7D358E"/>
<path d="M153.186 53.8601C153.213 53.5781 153.155 53.2945 153.02 53.0453C152.885 52.7962 152.679 52.5927 152.428 52.4607C152.178 52.3287 151.894 52.274 151.612 52.3037C151.33 52.3334 151.063 52.4461 150.846 52.6275C150.628 52.8088 150.469 53.0507 150.389 53.3225C150.309 53.5943 150.312 53.8837 150.396 54.1541C150.481 54.4245 150.644 54.6636 150.865 54.8412C151.086 55.0188 151.354 55.1269 151.636 55.1517C152.013 55.1849 152.387 55.0677 152.678 54.8256C152.968 54.5836 153.151 54.2365 153.186 53.8601Z" fill="#7D358E"/>
<path d="M153.653 56.5725C153.68 56.2904 153.622 56.0069 153.487 55.7577C153.352 55.5086 153.146 55.3051 152.896 55.1731C152.645 55.041 152.361 54.9864 152.079 55.0161C151.797 55.0458 151.531 55.1585 151.313 55.3398C151.095 55.5212 150.937 55.7631 150.857 56.0349C150.777 56.3067 150.779 56.5961 150.864 56.8665C150.948 57.1368 151.111 57.376 151.332 57.5536C151.553 57.7312 151.821 57.8393 152.104 57.8641C152.48 57.8973 152.855 57.78 153.145 57.538C153.435 57.296 153.618 56.9489 153.653 56.5725Z" fill="#7D358E"/>
<path d="M153.743 59.2551C153.771 58.9728 153.715 58.6885 153.582 58.4382C153.448 58.1879 153.243 57.9829 152.993 57.8494C152.743 57.7158 152.458 57.6597 152.176 57.6881C151.894 57.7166 151.626 57.8283 151.408 58.0091C151.189 58.1899 151.029 58.4316 150.948 58.7035C150.867 58.9754 150.869 59.2652 150.953 59.5361C151.037 59.807 151.2 60.0468 151.421 60.225C151.642 60.4032 151.91 60.5117 152.193 60.5368C152.568 60.57 152.941 60.4541 153.231 60.2142C153.521 59.9743 153.705 59.6297 153.743 59.2551Z" fill="#7D358E"/>
<path d="M153.166 61.8184C153.183 61.6325 153.162 61.4452 153.106 61.2671C153.05 61.0891 152.96 60.9238 152.84 60.7808C152.72 60.6378 152.573 60.5198 152.407 60.4336C152.242 60.3474 152.061 60.2947 151.875 60.2784C151.499 60.2442 151.126 60.3605 150.836 60.6018C150.546 60.8431 150.364 61.1896 150.33 61.5651C150.296 61.9406 150.412 62.3143 150.653 62.604C150.895 62.8938 151.241 63.0758 151.616 63.11C151.993 63.1432 152.367 63.026 152.658 62.7839C152.948 62.5419 153.131 62.1948 153.166 61.8184Z" fill="#7D358E"/>
<path d="M152.153 64.0142C152.169 63.8282 152.149 63.6409 152.093 63.4628C152.037 63.2848 151.946 63.1196 151.826 62.9765C151.706 62.8335 151.559 62.7155 151.394 62.6293C151.228 62.5431 151.047 62.4904 150.861 62.4742C150.486 62.4399 150.112 62.5562 149.822 62.7975C149.533 63.0388 149.351 63.3853 149.316 63.7608C149.282 64.1363 149.398 64.51 149.64 64.7998C149.881 65.0895 150.228 65.2715 150.603 65.3058C150.98 65.3389 151.354 65.2217 151.644 64.9797C151.935 64.7377 152.118 64.3905 152.153 64.0142Z" fill="#7D358E"/>
<path d="M150.196 65.574C150.224 65.2918 150.168 65.0074 150.035 64.7571C149.901 64.5068 149.696 64.3019 149.446 64.1683C149.196 64.0348 148.911 63.9786 148.629 64.0071C148.347 64.0355 148.079 64.1472 147.861 64.328C147.642 64.5088 147.482 64.7505 147.401 65.0224C147.32 65.2943 147.322 65.5841 147.406 65.8551C147.49 66.126 147.653 66.3658 147.874 66.5439C148.095 66.7221 148.363 66.8306 148.646 66.8557C148.832 66.8748 149.02 66.8568 149.2 66.8025C149.379 66.7482 149.545 66.6588 149.69 66.5395C149.834 66.4202 149.953 66.2734 150.04 66.1077C150.127 65.9419 150.18 65.7605 150.196 65.574Z" fill="#7D358E"/>
<path d="M148.099 66.6471C148.126 66.365 148.068 66.0814 147.933 65.8323C147.798 65.5831 147.592 65.3796 147.342 65.2476C147.091 65.1156 146.807 65.061 146.525 65.0906C146.243 65.1203 145.977 65.233 145.759 65.4144C145.541 65.5957 145.382 65.8377 145.302 66.1094C145.222 66.3812 145.225 66.6706 145.31 66.941C145.394 67.2114 145.557 67.4505 145.778 67.6281C145.999 67.8057 146.267 67.9138 146.549 67.9387C146.926 67.9718 147.3 67.8546 147.591 67.6126C147.881 67.3706 148.064 67.0234 148.099 66.6471Z" fill="#7D358E"/>
<path d="M145.973 65.6436C145.998 65.3641 145.939 65.0837 145.804 64.8378C145.669 64.5918 145.464 64.3913 145.216 64.2614C144.967 64.1316 144.686 64.0782 144.407 64.1081C144.128 64.138 143.864 64.2497 143.648 64.4293C143.433 64.6089 143.275 64.8482 143.196 65.1172C143.116 65.3861 143.118 65.6726 143.201 65.9406C143.284 66.2086 143.444 66.446 143.661 66.623C143.879 66.8 144.144 66.9086 144.423 66.9352C144.61 66.9529 144.799 66.9335 144.978 66.8781C145.157 66.8227 145.323 66.7323 145.468 66.6123C145.612 66.4922 145.731 66.3448 145.817 66.1785C145.904 66.0122 145.957 65.8304 145.973 65.6436Z" fill="#7D358E"/>
<path d="M148.079 64.8189C148.069 64.5746 147.988 64.3386 147.847 64.139C147.706 63.9394 147.51 63.7847 147.283 63.6935C147.056 63.6023 146.808 63.5784 146.568 63.6247C146.328 63.671 146.106 63.7855 145.93 63.9545C145.753 64.1236 145.629 64.3399 145.572 64.5777C145.515 64.8155 145.528 65.0647 145.609 65.2953C145.69 65.526 145.836 65.7284 146.029 65.8782C146.223 66.0281 146.455 66.1191 146.698 66.1403C146.876 66.1443 147.052 66.1133 147.218 66.049C147.383 65.9847 147.534 65.8885 147.663 65.7658C147.791 65.643 147.894 65.4963 147.965 65.3338C148.037 65.1713 148.076 64.9964 148.079 64.8189Z" fill="#9347A5"/>
<path d="M148.815 61.3217C148.845 61.0392 148.791 60.7541 148.659 60.5027C148.527 60.2512 148.323 60.0448 148.073 59.9097C147.823 59.7747 147.538 59.7171 147.256 59.7442C146.973 59.7714 146.704 59.8821 146.485 60.0623C146.265 60.2425 146.104 60.484 146.022 60.756C145.941 61.028 145.941 61.3183 146.025 61.5898C146.109 61.8612 146.271 62.1016 146.492 62.2804C146.713 62.4591 146.982 62.5681 147.265 62.5934C147.639 62.6294 148.012 62.5159 148.302 62.2775C148.593 62.0392 148.777 61.6955 148.815 61.3217Z" fill="#9347A5"/>
<path d="M151.935 61.7886C151.961 61.5065 151.903 61.223 151.768 60.9738C151.634 60.7247 151.428 60.5212 151.177 60.3892C150.926 60.2572 150.642 60.2025 150.36 60.2322C150.079 60.2619 149.812 60.3746 149.594 60.5559C149.377 60.7373 149.218 60.9792 149.138 61.251C149.058 61.5228 149.06 61.8122 149.145 62.0826C149.23 62.3529 149.393 62.5921 149.613 62.7697C149.834 62.9473 150.103 63.0554 150.385 63.0802C150.761 63.1134 151.136 62.9961 151.426 62.7541C151.717 62.5121 151.899 62.165 151.935 61.7886Z" fill="#9347A5"/>
<path d="M151.934 56.9898C151.855 56.777 151.717 56.5909 151.536 56.4528C151.356 56.3147 151.14 56.2301 150.914 56.2086C150.688 56.1872 150.46 56.2298 150.257 56.3316C150.053 56.4334 149.883 56.5903 149.765 56.7843C149.646 56.9784 149.585 57.2018 149.587 57.429C149.59 57.6563 149.656 57.8782 149.779 58.0696C149.902 58.2609 150.076 58.4139 150.281 58.5111C150.487 58.6083 150.715 58.6457 150.941 58.6192C151.114 58.5785 151.277 58.5038 151.42 58.3996C151.564 58.2953 151.686 58.1636 151.778 58.0121C151.871 57.8605 151.932 57.6921 151.959 57.5166C151.986 57.3411 151.977 57.1621 151.934 56.9898Z" fill="#9347A5"/>
<path d="M145.258 63.3385C145.291 62.962 145.174 62.5876 144.932 62.2972C144.69 62.0067 144.342 61.8239 143.966 61.7886C143.78 61.7695 143.592 61.7876 143.413 61.8418C143.233 61.8961 143.067 61.9855 142.923 62.1048C142.778 62.2241 142.659 62.3709 142.572 62.5366C142.485 62.7024 142.432 62.8838 142.416 63.0703C142.408 63.432 142.537 63.7835 142.777 64.0539C143.018 64.3243 143.352 64.4935 143.712 64.5276C144.072 64.5616 144.432 64.4578 144.719 64.2372C145.006 64.0166 145.198 63.6955 145.258 63.3385Z" fill="#9347A5"/>
<path d="M144.155 56.0857C144.181 55.806 144.124 55.5249 143.991 55.2777C143.857 55.0306 143.653 54.8286 143.405 54.6972C143.157 54.5659 142.875 54.511 142.596 54.5397C142.316 54.5683 142.052 54.6791 141.835 54.8581C141.619 55.0371 141.46 55.2763 141.38 55.5453C141.299 55.8144 141.3 56.1013 141.382 56.3699C141.465 56.6384 141.625 56.8765 141.843 57.054C142.06 57.2315 142.326 57.3406 142.605 57.3673C142.791 57.3865 142.98 57.3684 143.159 57.3141C143.338 57.2598 143.504 57.1705 143.649 57.0512C143.793 56.9319 143.912 56.7851 143.999 56.6193C144.086 56.4536 144.139 56.2722 144.155 56.0857Z" fill="#9347A5"/>
<path d="M142.992 58.7981C142.991 58.5113 142.883 58.2352 142.69 58.0238C142.496 57.8124 142.23 57.6808 141.945 57.6547C141.659 57.6286 141.374 57.71 141.145 57.8828C140.917 58.0556 140.76 58.3076 140.707 58.5894C140.697 58.7354 140.715 58.882 140.762 59.0207C140.809 59.1593 140.883 59.2871 140.981 59.3964C141.078 59.5057 141.196 59.5944 141.329 59.6572C141.461 59.72 141.604 59.7555 141.751 59.7618C142.043 59.7984 142.338 59.7174 142.571 59.5367C142.804 59.3561 142.955 59.0904 142.992 58.7981Z" fill="#9347A5"/>
<path d="M145.844 58.8378C145.834 58.6147 145.759 58.3993 145.63 58.2174C145.5 58.0355 145.321 57.8948 145.114 57.8121C144.906 57.7294 144.679 57.7081 144.46 57.751C144.241 57.7938 144.039 57.8988 143.878 58.0535C143.717 58.2082 143.604 58.4061 143.552 58.6233C143.5 58.8406 143.512 59.0682 143.587 59.2788C143.661 59.4894 143.795 59.6741 143.971 59.8108C144.148 59.9476 144.36 60.0306 144.582 60.0499C144.91 60.0553 145.227 59.9308 145.463 59.7038C145.699 59.4767 145.836 59.1655 145.844 58.8378Z" fill="#9347A5"/>
<path d="M147.573 54.2377C147.479 54.0206 147.325 53.8353 147.128 53.7042C146.931 53.5732 146.701 53.502 146.464 53.4994C146.228 53.4967 145.996 53.5627 145.796 53.6893C145.596 53.8159 145.438 53.9977 145.339 54.2127C145.241 54.4276 145.207 54.6665 145.242 54.9003C145.276 55.1342 145.378 55.353 145.534 55.5302C145.691 55.7074 145.895 55.8355 146.123 55.8988C146.351 55.9621 146.592 55.958 146.818 55.887C146.976 55.8284 147.121 55.7392 147.244 55.6246C147.367 55.5099 147.467 55.3721 147.537 55.2189C147.607 55.0657 147.647 54.9002 147.653 54.7318C147.659 54.5635 147.632 54.3955 147.573 54.2377Z" fill="#9347A5"/>
<path d="M148.715 57.5263C148.622 57.3092 148.467 57.1239 148.271 56.9929C148.074 56.8618 147.843 56.7907 147.607 56.788C147.37 56.7854 147.138 56.8513 146.939 56.9779C146.739 57.1045 146.58 57.2863 146.482 57.5013C146.384 57.7162 146.35 57.9551 146.384 58.189C146.419 58.4228 146.521 58.6416 146.677 58.8188C146.834 58.9961 147.038 59.1241 147.266 59.1874C147.494 59.2507 147.735 59.2466 147.96 59.1756C148.118 59.117 148.263 59.0278 148.387 58.9132C148.51 58.7985 148.61 58.6607 148.68 58.5075C148.75 58.3543 148.789 58.1888 148.795 58.0205C148.801 57.8521 148.774 57.6842 148.715 57.5263Z" fill="#9347A5"/>
<path d="M150.762 52.7672C150.668 52.5501 150.514 52.3648 150.317 52.2338C150.12 52.1027 149.89 52.0316 149.653 52.0289C149.417 52.0263 149.185 52.0923 148.985 52.2189C148.786 52.3455 148.627 52.5273 148.529 52.7422C148.43 52.9572 148.396 53.196 148.431 53.4299C148.466 53.6638 148.567 53.8825 148.724 54.0598C148.88 54.237 149.085 54.365 149.312 54.4283C149.54 54.4917 149.781 54.4875 150.007 54.4165C150.165 54.3579 150.31 54.2687 150.433 54.1541C150.557 54.0395 150.656 53.9016 150.726 53.7484C150.797 53.5952 150.836 53.4297 150.842 53.2614C150.848 53.093 150.821 52.9251 150.762 52.7672Z" fill="#9347A5"/>
<path d="M146.47 48.6142C146.497 48.3321 146.439 48.0486 146.304 47.7994C146.169 47.5503 145.963 47.3468 145.712 47.2148C145.462 47.0828 145.178 47.0281 144.896 47.0578C144.614 47.0875 144.347 47.2002 144.13 47.3815C143.912 47.5629 143.753 47.8048 143.673 48.0766C143.593 48.3484 143.596 48.6378 143.68 48.9082C143.765 49.1785 143.928 49.4177 144.149 49.5953C144.369 49.7729 144.638 49.881 144.92 49.9058C145.297 49.939 145.671 49.8217 145.962 49.5797C146.252 49.3377 146.435 48.9906 146.47 48.6142Z" fill="#9347A5"/>
<path d="M147.692 51.3564C147.714 51.0772 147.654 50.7976 147.517 50.5528C147.381 50.308 147.176 50.1089 146.927 49.9806C146.678 49.8523 146.396 49.8004 146.118 49.8315C145.84 49.8626 145.577 49.9753 145.362 50.1555C145.148 50.3356 144.991 50.5751 144.912 50.8439C144.834 51.1127 144.836 51.3988 144.919 51.6663C145.003 51.9337 145.163 52.1705 145.381 52.347C145.598 52.5234 145.863 52.6316 146.142 52.6579C146.33 52.677 146.52 52.6583 146.7 52.6028C146.88 52.5473 147.048 52.4561 147.192 52.3348C147.337 52.2134 147.455 52.0643 147.541 51.8962C147.627 51.7282 147.678 51.5446 147.692 51.3564Z" fill="#9347A5"/>
<path d="M144.284 51.4756C144.298 51.3184 144.282 51.1599 144.235 51.0092C144.188 50.8584 144.112 50.7184 144.011 50.5971C143.91 50.4757 143.786 50.3755 143.646 50.3021C143.506 50.2286 143.353 50.1835 143.196 50.1691C143.039 50.1548 142.88 50.1715 142.73 50.2184C142.579 50.2653 142.439 50.3415 142.317 50.4425C142.196 50.5435 142.096 50.6675 142.022 50.8072C141.949 50.947 141.904 51.0998 141.889 51.257C141.875 51.4143 141.892 51.5728 141.939 51.7235C141.986 51.8743 142.062 52.0143 142.163 52.1356C142.264 52.2569 142.388 52.3572 142.528 52.4306C142.667 52.504 142.82 52.5492 142.977 52.5636C143.135 52.5779 143.293 52.5612 143.444 52.5143C143.595 52.4673 143.735 52.3912 143.856 52.2902C143.977 52.1892 144.078 52.0652 144.151 51.9255C144.224 51.7857 144.27 51.6329 144.284 51.4756Z" fill="#9347A5"/>
<path d="M149.242 38.6887L148.666 38.3807C149.527 39.2754 150.229 40.3102 150.742 41.4408L152.213 42.5437L149.242 38.6887Z" fill="#8B933F"/>
<path d="M156.624 52.7772C157.225 51.2152 157.746 49.6235 158.184 48.0082C158.259 46.6473 158.239 45.2828 158.124 43.9247L155.799 42.6232L152.451 42.7622L150.077 45.0275L149.54 47.5511C150.505 48.6944 151.544 49.773 152.65 50.7802C153.928 51.5345 155.256 52.2017 156.624 52.7772Z" fill="#8B933F"/>
<path d="M150.812 40.805L153.624 43.9644H153.027C151.11 41.1626 148.994 41.2223 148.994 41.2223L150.812 40.805Z" fill="#8B933F"/>
<path d="M153.584 46.9252C155.186 47.1327 156.813 46.8302 158.234 46.0608C158.234 44.9878 158.125 43.9247 158.125 43.9247L155.8 42.6232L152.452 42.7622L150.077 45.0275L149.918 45.7926C151.04 46.4391 152.293 46.8261 153.584 46.9252Z" fill="#AAAF4E"/>
<path d="M138.581 46.3589C139.065 44.756 139.635 43.1805 140.29 41.6395C141.074 40.5254 141.937 39.4695 142.873 38.4801L145.556 38.9172L148.149 41.1527L148.636 44.4314L147.503 46.6967C146.017 46.9832 144.514 47.1724 143.003 47.263C141.51 47.0607 140.033 46.7587 138.581 46.3589Z" fill="#8B933F"/>
<path d="M146.549 35.0822C146.549 35.0822 148.537 35.6981 149.143 36.0161C149.797 36.4408 150.427 36.9018 151.03 37.3971V38.7881L150.166 40.1294L148.546 40.3579L147.295 39.7419C146.996 38.9684 146.741 38.179 146.53 37.3772C146.487 36.6126 146.494 35.846 146.549 35.0822Z" fill="#8B933F"/>
<path d="M150.683 40.6559C150.683 40.6559 147.622 41.1726 146.47 41.3514L146.967 41.729C150.245 40.7354 151.934 42.1363 151.934 42.1363L150.683 40.6559Z" fill="#8B933F"/>
<path d="M150.742 39.3246L151.08 38.7881V37.3971C150.477 36.9018 149.847 36.4408 149.192 36.0161C148.566 35.6981 146.599 35.0822 146.599 35.0822C146.55 35.8464 146.55 36.613 146.599 37.3772C146.612 37.4616 146.632 37.5447 146.659 37.6256C146.96 37.9258 147.293 38.1923 147.652 38.4205C148.556 39.0511 149.641 39.3686 150.742 39.3246Z" fill="#AAAF4E"/>
<path d="M148.387 44.9282L148.636 44.4314L148.149 41.1527L145.556 38.9172L142.873 38.4801C141.937 39.4695 141.074 40.5254 140.29 41.6395C140.292 41.656 140.292 41.6727 140.29 41.6892C140.931 42.6204 141.752 43.4142 142.704 44.024C144.821 45.4051 147.155 45.7031 148.387 44.9282Z" fill="#AAAF4E"/>
<path d="M154.418 44.8388L153.653 45.425L155.968 50.9987L154.418 44.8388Z" fill="#AAAF4E"/>
<path d="M144.115 43.0206L143.45 42.7921L139.227 45.8522L144.115 43.0206Z" fill="#AAAF4E"/>
<path d="M143.539 43.0702L143.191 42.5635L139.575 43.3484L143.539 43.0702Z" fill="#AAAF4E"/>
<path d="M143.847 42.8715L143.321 43.1696L143.807 46.8358L143.847 42.8715Z" fill="#AAAF4E"/>
<path d="M154.229 46.0409L154.219 46.5973L157.578 47.5313L154.229 46.0409Z" fill="#AAAF4E"/>
<path d="M153.991 46.2595L153.554 45.9018L150.732 47.9585L153.991 46.2595Z" fill="#AAAF4E"/>
<path d="M72.9281 8.15709C70.941 8.15709 68.4671 9.15064 68.0796 11.6345C70.5436 9.41889 73.5143 8.74328 75.7796 10.1144C76.0974 9.53414 76.2939 8.89532 76.3572 8.23675C76.4204 7.57818 76.349 6.91364 76.1473 6.28353C75.9457 5.65342 75.6179 5.07092 75.1841 4.57145C74.7502 4.07198 74.2193 3.66598 73.6236 3.37814C75.4318 4.49091 75.3325 8.15709 72.9281 8.15709Z" fill="#592923"/>
<path d="M71.9343 100.06C71.9343 101.669 77.9949 107.73 81.4922 109.677C84.6914 111.456 87.066 106.697 84.5325 103.15C83.4197 101.58 78.5712 97.6556 76.4152 96.9402C74.2592 96.2249 71.9343 100.06 71.9343 100.06Z" fill="#FF9566"/>
<path d="M74.438 105.693C74.3486 107.333 76.9616 111.078 80.1012 113.155C82.9626 115.053 86.3804 111.068 85.9035 109.181C85.4266 107.293 80.6576 103.428 78.7103 102.643C76.7629 101.858 74.438 105.693 74.438 105.693Z" fill="#FF9566"/>
<path d="M69.9571 108.197C69.7485 109.658 72.282 113.085 75.3222 115.221C78.3625 117.358 82.3565 114.516 81.9989 112.807C81.6412 111.098 76.584 106.548 74.6069 105.733C72.6297 104.918 69.9571 108.197 69.9571 108.197Z" fill="#FF9566"/>
<path d="M65.6949 110.284C65.4862 111.744 68.0297 115.172 71.06 117.308C74.0903 119.444 78.1042 116.602 77.7366 114.894C77.369 113.185 72.3218 108.634 70.3446 107.82C68.3675 107.005 65.6949 110.284 65.6949 110.284Z" fill="#FF9566"/>
<path d="M75.1337 96.9502C78.1143 98.6889 85.5659 105.783 85.8441 108.147C86.1223 110.512 75.6305 117.844 71.7755 116.583C69.858 115.957 63.8272 108.714 63.241 106.568C62.6548 104.422 75.1337 96.9502 75.1337 96.9502Z" fill="#FFB882"/>
<path d="M153.654 39.2252C153.964 38.779 154.362 38.4002 154.823 38.1116C155.284 37.8231 155.799 37.6307 156.336 37.5461C156.813 37.6455 158.591 39.3345 158.433 39.9605C157.971 40.7765 157.235 41.4029 156.356 41.729C155.611 41.9674 153.316 39.881 153.654 39.2252Z" fill="#FFB882"/>
<path d="M78.0445 13.9097C77.4186 14.0091 76.9516 14.4562 77.1206 14.5356C77.2895 14.6151 78.74 14.4164 78.8096 14.1482C78.7123 14.0474 78.5913 13.9728 78.4576 13.9311C78.3239 13.8894 78.1818 13.8821 78.0445 13.9097Z" fill="#3D2522"/>
<path d="M75.1831 14.0488C75.4992 15.1571 75.9149 16.2345 76.425 17.2679C77.4527 17.4186 78.4991 17.3849 79.515 17.1685C80.2303 16.8903 80.2005 15.7279 80.2005 15.7279L75.9382 12.9162L75.1831 14.0488Z" fill="#EA7B59"/>
<path d="M74.3091 13.6812C74.5823 14.8029 74.9581 15.8971 75.4318 16.95C76.4505 17.1312 77.4931 17.1312 78.5118 16.95C79.247 16.7115 79.2569 15.5491 79.2569 15.5491L75.1139 12.3201L74.3091 13.6812Z" fill="#FFB882"/>
<path d="M71.08 15.3305C72.8851 15.3415 74.6238 14.6504 75.9285 13.403C75.9285 13.403 75.6007 11.6742 74.6469 11.4954C73.6931 11.3166 70.464 13.095 70.3051 13.4825C70.1461 13.87 71.08 15.3305 71.08 15.3305Z" fill="#723F35"/>
<path d="M76.594 13.3235C76.5245 13.2738 75.6005 12.1114 75.7296 11.6047C75.8642 11.4053 76.0382 11.2357 76.2409 11.1062C76.4436 10.9768 76.6707 10.8903 76.9082 10.8521C77.1456 10.814 77.3884 10.8249 77.6215 10.8843C77.8545 10.9436 78.0729 11.0502 78.2632 11.1973C79.1673 12.022 79.3958 13.1149 78.9885 13.2738C78.1934 13.3618 77.3921 13.3784 76.594 13.3235Z" fill="#723F35"/>
<path d="M74.2395 14.9033C73.4645 15.1119 72.8982 15.6484 73.1069 15.6981C73.3155 15.7478 75.0939 15.2808 75.1635 15.0026C75.0292 14.912 74.8749 14.8556 74.7138 14.8382C74.5528 14.8209 74.3899 14.8432 74.2395 14.9033Z" fill="#3D2522"/>
</svg>
