<svg width="178" height="200" viewBox="0 0 178 200" fill="none" xmlns="http://www.w3.org/2000/svg">
<path d="M1.008 30.8634C1.15121 30.7202 1.29443 30.577 1.43765 30.4338C1.58086 30.1474 1.72407 29.8609 1.72407 29.5029C1.79568 27.9275 1.86729 26.3522 2.01051 24.7768C2.15372 22.6286 2.29694 22.9866 3.37105 21.0532C4.44516 19.1198 6.45018 17.7593 6.87983 15.611C7.5959 15.3962 8.09715 14.7517 8.38358 13.9641C8.5984 13.1764 8.81322 12.4603 8.88483 11.6726C9.31448 9.81082 10.0306 8.16384 11.1047 6.73169C10.675 7.66259 10.5318 8.7367 10.6034 9.81082C10.675 11.3146 10.8899 12.8899 10.2454 14.2505C10.675 14.6801 11.0331 15.0382 11.3911 15.4678C11.1763 16.1123 11.0331 16.6851 10.8182 17.258C10.675 17.6877 10.5318 18.1889 10.5318 18.6186C10.5318 18.9766 10.675 19.3346 10.8182 19.6927C11.0331 20.3371 11.3195 21.0532 11.5343 21.6977C11.6059 21.9841 11.7491 22.3421 12.0356 22.4138C12.1788 22.4138 12.322 22.4854 12.4652 22.4854C12.9665 22.557 13.1813 23.273 13.3961 23.8459C13.6109 24.4188 14.0406 24.9916 14.4702 24.7768C14.6134 24.7052 14.6851 24.562 14.7567 24.4188C15.4727 23.2014 15.4727 21.6261 15.1147 20.1939C16.4752 22.1989 17.7642 24.6336 17.4061 27.2831C17.2629 28.7868 16.6185 30.577 17.4061 31.6511C17.5494 31.866 17.8358 32.0808 17.979 32.2956C18.1938 32.7969 18.337 33.3697 18.2654 33.9426C18.2654 34.5154 18.337 35.0883 18.6235 35.5179C18.9815 35.9476 19.4828 35.9476 19.8408 35.5896L19.9124 35.5179C19.984 35.3031 20.0556 35.0167 20.0556 34.8019C20.0556 34.3006 19.984 33.7278 19.8408 33.2981C20.5569 35.2315 20.7717 37.3797 20.4137 39.4564C19.7692 42.5355 17.6926 45.0418 15.4727 47.1184C14.6851 47.7628 13.969 48.5505 13.3245 49.4098C13.8974 51.1284 13.6825 53.205 13.3961 55.1384C13.1097 57.4299 12.7516 56.1409 12.4652 58.4324L12.1788 57.7163C12.1788 57.3583 12.1072 57.0002 11.964 56.6422C11.6059 55.9977 10.8182 55.9261 10.1738 55.7829C8.88483 55.4249 7.88233 54.2791 7.45268 52.847C7.09464 51.4148 7.30946 49.7679 6.7366 48.4073C6.30696 47.3332 5.51928 46.5455 4.8032 45.7578C3.8723 44.6837 3.08462 40.8885 2.44015 39.528C2.22532 39.1699 2.08211 38.6687 2.08211 38.1674C2.15372 37.5946 2.58337 37.0933 2.58337 36.5204C2.65498 35.9476 2.22533 35.5179 1.9389 35.0883C1.29443 34.1574 0.86479 33.0833 0.793182 31.866C0.793182 31.3647 0.86478 31.0783 1.008 30.8634Z" fill="#A4EDC5"/>
<path d="M26.3569 80.2011C20.1987 82.8506 17.1912 81.9913 17.1912 81.9913L16.4035 84.5691C16.4035 84.5691 18.6233 86.8606 18.8381 87.7915C19.053 88.7224 18.5517 90.8706 17.1195 90.5126C15.6874 90.1545 11.749 85.5717 11.8922 83.7099C12.0354 81.8481 14.7565 77.48 14.7565 77.48L26.2853 78.3393L26.3569 80.2011Z" fill="#BDB0CC"/>
<path d="M30.5818 77.6948C24.4235 80.3443 21.416 79.485 21.416 79.485L20.6283 81.9913C20.6283 81.9913 22.8482 84.2827 23.063 85.2136C23.2778 86.1445 22.7766 88.2927 21.3444 87.9347C19.9123 87.5767 15.9738 82.9938 16.1171 81.132C16.2603 79.2702 19.053 74.9021 19.053 74.9021L30.5818 75.7614V77.6948Z" fill="#BDB0CC"/>
<path d="M22.9915 71.3933C17.4777 72.9687 13.4677 72.6107 12.6084 73.47C11.7491 74.3293 8.74158 82.1345 9.02801 83.6383C9.31444 85.142 14.1837 92.5176 15.043 92.3744C15.9023 92.2312 16.8332 90.7274 16.7616 89.2236C16.69 87.7199 12.8948 83.9963 12.8232 83.3518C12.7516 82.6357 14.4702 78.8405 14.5418 78.5541C14.685 78.2677 23.5643 81.9913 26.4286 79.843C29.3646 77.6948 22.9915 71.3933 22.9915 71.3933Z" fill="#D1C5DD"/>
<path d="M136.06 109.847C137.492 110.348 142.791 110.634 143.65 111.422C144.51 112.21 147.231 118.01 147.517 118.44C147.875 118.869 146.515 121.304 145.727 120.015C144.939 118.798 142.505 115.432 142.003 114.788C141.502 114.143 139.783 115.504 137.492 114.501C136.919 114.215 134.628 109.345 136.06 109.847Z" fill="#BDB0CC"/>
<path d="M140.142 112.926C140.643 113.642 143.292 118.44 143.077 118.869C142.863 119.299 141.574 120.516 141.072 119.943C140.571 119.37 139.354 116.148 138.853 115.575C137.779 114.716 136.633 113.857 135.487 113.141L140.142 112.926Z" fill="#BDB0CC"/>
<path d="M13.5393 55.0668L13.969 50.0543C13.8974 50.1975 13.8258 50.4123 13.6826 50.5555C13.1097 51.9877 13.3245 53.5631 13.5393 55.0668Z" fill="#A4EDC5"/>
<path d="M3.44266 32.582L3.29945 31.2215C3.15623 30.2906 3.15623 29.3597 3.22784 28.4288C3.51427 26.6386 4.51678 25.2781 5.44768 23.8459C6.30697 22.4854 7.09464 21.1248 7.81072 19.6211C8.5268 18.2605 9.02806 16.8284 9.3861 15.253C9.81574 13.1764 9.5293 10.9565 10.1738 8.95153C10.317 8.52189 10.4602 8.02063 10.675 7.59099C10.5318 8.23546 10.4602 8.95153 10.5318 9.66761C10.6034 11.1714 10.8182 12.7467 10.1738 14.1073C10.6034 14.5369 10.9615 14.895 11.3195 15.3246C11.1047 15.9691 10.9615 16.5419 10.7466 17.1148C10.6034 17.5444 10.4602 18.0457 10.4602 18.4753C10.4602 18.8334 10.6034 19.1914 10.7466 19.5495C10.9615 20.1939 11.2479 20.91 11.4627 21.5545C11.5343 21.8409 11.6775 22.1989 11.964 22.2705C12.1072 22.2705 12.2504 22.3422 12.3936 22.3422C12.8949 22.4138 13.1097 23.1298 13.3245 23.7027C13.5393 24.2756 13.969 24.8484 14.3986 24.6336C14.5418 24.562 14.6134 24.4188 14.6851 24.2756C15.4011 23.0582 15.4011 21.4829 15.0431 20.0507C15.616 20.91 16.1888 21.8409 16.6185 22.7718C16.5468 22.915 16.5469 23.1298 16.4752 23.2731C16.332 24.562 17.0481 25.9941 16.5469 27.1399C16.2604 27.7843 15.6876 28.1424 15.2579 28.6436C14.4702 29.6461 14.3986 31.2215 14.6851 32.582C14.9715 33.9426 15.5443 35.1599 15.9024 36.5205C16.332 38.0242 16.332 39.5996 15.974 41.1033C15.616 42.6071 14.6851 43.896 13.4677 44.5405C13.0381 44.7553 12.5368 44.8985 12.1072 45.185C11.6775 45.3998 11.3195 45.9011 11.2479 46.4739C10.8182 45.8294 10.3886 45.185 10.0306 44.5405C10.1022 45.3998 9.17126 45.9727 8.5268 45.6862C7.88233 45.3282 7.38107 44.6837 7.09464 43.896C6.37857 42.2491 5.80571 40.5305 5.37607 38.7403C5.30446 38.3106 5.16124 37.881 5.01803 37.4514C4.87481 37.2365 4.73159 37.0217 4.58838 36.8069C3.80069 35.7328 3.58588 34.0858 3.44266 32.582Z" fill="#B9F9D4"/>
<path d="M13.0379 57.3583L30.3669 199.141H28.6484L12.107 57.4299L13.0379 57.3583Z" fill="#564D60"/>
<path d="M70.1093 64.5906C57.7928 71.1785 50.4888 71.0353 48.269 71.1785C46.0491 71.3217 36.4537 65.5931 36.1673 64.3042C35.9525 63.0869 50.1308 37.881 64.8819 33.7278C79.6331 29.5745 70.1093 64.5906 70.1093 64.5906Z" fill="#D1C5DD"/>
<path d="M70.1092 64.5906C57.7926 71.1785 50.4887 71.0353 48.2688 71.1785C47.4812 71.2501 45.691 70.4625 43.686 69.4599C49.0565 61.3683 58.1507 50.3407 67.4597 47.7628C69.8943 47.0468 71.6845 47.4764 72.9019 48.6221C72.4722 53.9927 71.4697 59.3633 70.1092 64.5906Z" fill="#BDB0CC"/>
<path d="M75.05 76.6923C67.03 84.6408 59.2248 93.3053 59.2248 93.3053L64.3805 102.185L72.2573 90.8706L75.05 76.6923Z" fill="#684770"/>
<path d="M49.1999 171.214L70.1093 171.859L82.6406 199.786H35.5944L49.1999 171.214Z" fill="#463756"/>
<path d="M77.0552 123.739L48.8418 196.778L48.1257 196.277L59.2965 122.736L77.0552 123.739Z" fill="#D1C5DD"/>
<path d="M62.3041 95.9548C62.3041 95.9548 69.0352 80.3443 65.6697 67.7414L95.7449 49.6246C90.5175 64.8055 75.9812 93.8781 62.3041 95.9548Z" fill="#D1C5DD"/>
<path d="M77.7714 76.1195C74.0478 74.4725 69.5365 76.9788 66.0993 82.2061C66.8154 77.6232 66.9586 72.4675 65.6697 67.7414L95.7449 49.6246C91.9497 60.2226 87.0087 70.2476 81.0653 79.3418C80.2776 77.9096 79.1319 76.7639 77.7714 76.1195Z" fill="#BDB0CC"/>
<path d="M81.7098 74.186C71.9712 88.2211 69.8945 89.7249 66.8154 90.9422C63.7363 92.1595 69.6797 99.1055 69.6797 99.1055L83.2852 79.3418L81.7098 74.186Z" fill="#BDB0CC"/>
<path d="M72.7588 97.1005C65.7412 85.9297 66.4573 79.5566 66.4573 79.5566L62.4473 96.6708L72.7588 97.1005Z" fill="#BDB0CC"/>
<path d="M64.524 69.1019C65.24 69.818 81.0653 70.3192 81.9246 69.6748C82.7839 69.0303 84.5025 57.2867 84.5025 57.2867C84.5025 57.2867 84.3593 69.1019 85.0037 69.6032C85.5766 70.176 102.906 69.7464 103.765 68.8871C104.624 68.0278 107.489 42.2491 106.701 40.3873C103.407 32.582 87.5816 25.9941 85.505 25.9941C83.4284 25.9941 63.6647 32.9401 61.6597 35.876C60.5139 37.523 63.8079 68.3858 64.524 69.1019Z" fill="#D1C5DD"/>
<path d="M53.9975 66.0944C48.8417 76.1195 47.7676 76.2627 47.7676 76.2627C47.7676 76.2627 31.8707 77.7664 27.5743 79.7714C23.2778 81.8481 19.6258 74.0428 21.3444 72.6823C25.426 69.6032 29.078 57.2867 42.8267 55.3533C56.5753 53.4198 53.9975 66.0944 53.9975 66.0944Z" fill="#D1C5DD"/>
<path d="M52.4937 58.2892C54.5704 55.5681 55 66.524 55 66.524C49.6294 76.1195 47.9825 76.4775 47.9825 76.4775C47.9825 76.4775 32.0856 77.838 27.6459 79.9147C25.2112 80.9888 44.3305 69.0303 52.4937 58.2892Z" fill="#BDB0CC"/>
<path d="M117.084 81.5616C112.931 62.2276 111.14 43.0367 104.767 37.5946C98.3942 32.1524 97.4633 78.2677 103.836 88.5792C110.209 98.8907 117.084 81.5616 117.084 81.5616Z" fill="#D1C5DD"/>
<path d="M101.044 35.3747C105.483 37.5946 109.923 72.1094 116.726 79.843C117.012 85.7865 110.926 85.8581 110.639 90.9422C108.634 92.446 106.199 92.3744 103.693 88.436C97.1053 78.4109 95.5299 35.2315 101.044 35.3747Z" fill="#BDB0CC"/>
<path d="M106.271 88.5792L111.427 75.2602C111.427 75.2602 120.951 82.0629 124.674 85.2852C128.398 88.5076 130.904 94.2362 136.633 107.555L132.05 113.284C127.61 106.553 119.089 105.049 114.148 103.402C109.135 101.755 106.271 88.5792 106.271 88.5792Z" fill="#D1C5DD"/>
<path d="M104.982 87.4335L111.427 75.2602C111.427 75.2602 114.578 77.48 117.943 79.9863C115.222 79.4134 113.217 79.7714 112.286 81.2752C110.21 84.784 115.151 93.1621 123.314 99.9648C128.04 103.903 132.838 106.409 136.49 107.197L136.633 107.555L132.05 113.284C127.61 106.553 119.089 105.049 114.148 103.402C109.135 101.755 104.982 87.4335 104.982 87.4335Z" fill="#BDB0CC"/>
<path d="M77.4132 81.9913C88.7272 64.4474 88.4408 42.8935 88.4408 42.8935L97.5349 38.8119C97.5349 38.8119 97.3917 47.548 92.5224 60.0794C87.6531 72.6107 77.4132 81.9913 77.4132 81.9913Z" fill="#BDB0CC"/>
<path d="M125.533 199.786H78.2724C78.2724 199.786 63.0916 199.141 60.657 192.983C58.2223 186.825 54.7135 175.296 52.2789 174.866C49.8442 174.508 37.6709 199.714 37.6709 199.714H30.9398L29.0064 195.847L37.0265 188.257C37.0265 188.257 49.1997 153.527 49.9158 145.507C50.6319 137.487 55.1432 125.6 55.1432 125.6C55.1432 125.6 52.2073 108.773 59.1532 93.3769C59.1532 93.3769 73.1167 98.3178 86.0061 64.8055C98.8954 31.2931 96.604 27.9991 96.604 27.9991C98.251 27.1399 100.184 28.0708 100.972 30.0042C101.044 30.219 101.115 30.4338 101.115 30.6486C102.261 34.9451 107.99 65.1635 107.99 67.0253C107.99 68.8871 106.056 71.3217 106.056 71.3217C106.056 71.3217 110.424 86.7174 110.066 89.4385C109.851 91.0138 109.422 92.5176 108.849 93.9497C108.849 93.9497 115.58 135.053 116.01 137.487C116.368 139.993 113.933 165.414 113.933 165.414C113.933 165.414 118.946 175.224 119.876 178.733C120.951 182.815 121.094 191.479 121.094 191.479C121.094 191.479 123.743 191.694 124.388 192.339C125.032 192.983 125.533 199.786 125.533 199.786Z" fill="#9D7CA5"/>
<path d="M90.0161 121.805C93.8113 109.345 96.6756 96.456 98.6806 83.4234C98.8238 82.6357 92.5223 87.5767 92.6656 86.789C97.1768 65.808 102.547 42.1058 100.829 30.0042C100.9 30.219 100.972 30.4338 101.044 30.7202C102.333 34.9451 107.99 65.2351 107.99 67.0253C107.99 68.8871 106.056 71.3217 106.056 71.3217C106.056 71.3217 110.424 86.7174 110.066 89.4385C109.851 91.0138 109.422 92.5176 108.849 93.9497C108.849 93.9497 115.58 135.053 116.01 137.487C116.368 139.993 113.933 165.414 113.933 165.414C113.933 165.414 118.946 175.224 119.876 178.733C120.951 182.815 121.094 191.479 121.094 191.479C121.094 191.479 123.743 191.694 124.388 192.339C125.032 192.983 125.533 199.786 125.533 199.786H78.2724C78.2724 199.786 63.0916 199.141 60.657 192.983C60.5854 192.84 60.5137 192.625 60.4421 192.41C67.8893 179.163 74.4056 165.271 79.9194 150.806C99.8263 148.443 97.32 129.109 90.0161 121.805Z" fill="#92709B"/>
<path d="M42.6119 171.644C46.5504 169.782 51.4913 167.634 53.5679 167.562C56.289 167.419 77.9145 188.687 89.0137 199.857H78.2725C75.8379 199.714 73.4748 199.428 71.1118 198.998C57.7212 175.582 54.2124 171.644 52.8518 172.002C51.4913 172.36 40.3921 184.533 37.0982 188.185C37.5278 186.682 39.9625 179.664 42.6119 171.644Z" fill="#8A6393"/>
<path d="M111.713 110.491C115.652 137.559 62.8053 131.472 59.941 131.472C55.931 131.472 54.0692 128.608 54.3556 127.749C54.8569 126.388 55.0717 125.6 55.0717 125.6L55.0001 125.314C70.4673 126.674 101.044 80.4159 100.614 29.4313C100.829 29.7893 100.972 30.219 101.044 30.6486C101.33 31.5079 101.76 33.5845 102.333 36.234C102.046 51.0568 94.8855 79.1986 94.6707 82.6357C94.4559 86.0729 100.328 79.2702 107.703 64.4474C107.846 65.3067 107.99 66.166 108.061 67.0253C108.061 68.8871 106.128 71.3217 106.128 71.3217C106.128 71.3217 106.414 72.2526 106.772 73.7564C90.0878 100.967 74.907 116.148 77.3417 116.291C79.5615 116.363 99.9697 102.901 109.995 90.0829C109.78 91.3719 109.422 92.6608 108.849 93.8781C108.992 93.9498 110.21 101.612 111.713 110.491Z" fill="#8A6393"/>
<path d="M50.059 144.218C58.9384 139.277 57.9359 139.134 60.2273 138.919C62.5188 138.704 112.429 166.989 116.224 138.203C116.224 143.001 114.076 165.486 114.076 165.486C114.076 165.486 119.089 175.296 120.02 178.876C121.094 182.958 121.237 191.623 121.237 191.623C121.237 191.623 123.886 191.837 124.531 192.482C125.175 193.126 125.533 199.786 125.533 199.786H90.8754C70.324 174.15 62.0891 146.366 58.4371 145.149C55.9309 144.29 51.9208 147.154 49.1997 149.589C49.5578 148.3 49.7726 146.939 49.9158 145.579C49.9158 145.149 49.9874 144.648 50.059 144.218Z" fill="#8A6393"/>
<path d="M49.3431 200.001H35.4513C34.95 197.351 40.5354 198.354 42.97 196.778C45.4047 195.203 48.5554 193.055 49.3431 194.2C50.0592 195.346 49.3431 200.001 49.3431 200.001Z" fill="#D1C5DD"/>
<path opacity="0.6" d="M84.2159 46.5455C83.9295 47.4048 82.8554 47.548 81.9961 47.548C81.28 47.6196 80.5639 47.548 79.8478 47.4048C79.2034 47.2616 78.6305 46.6171 78.4157 45.8294C77.7712 45.6862 77.1984 45.3282 76.6255 44.8985C76.1242 44.4689 75.9094 43.6812 76.1959 43.0367C75.265 43.3948 74.2624 43.18 73.5464 42.5355C72.8303 41.891 72.2574 41.1033 71.8278 40.1724C71.3265 39.3848 70.9685 38.4539 70.7537 37.4513C70.5389 36.4488 70.7537 35.4463 71.3981 34.7303C71.613 34.4438 71.971 34.229 71.971 33.871C71.971 33.5129 71.7562 33.2265 71.6846 32.9401C71.613 32.582 72.0426 32.224 72.2574 32.4388C71.7562 32.1524 71.2549 31.6511 70.9685 31.0783C77.1984 28.6436 84.2159 26.209 85.4332 26.209C86.6506 26.209 91.5915 27.9991 96.5324 30.8634C96.8905 28.5004 96.5324 28.0708 96.5324 28.0708C97.1769 27.7843 97.893 27.7127 98.609 27.8559C99.0387 27.9991 99.3251 28.572 99.1819 29.0733C99.1819 29.1449 99.1103 29.2165 99.1103 29.2881C99.4683 29.0017 99.898 28.93 100.328 29.0017C100.471 29.2165 100.614 29.4313 100.686 29.7177L100.757 29.9325L100.829 30.0758L100.9 30.219C100.9 30.3622 100.972 30.4338 100.972 30.577C100.972 30.7202 100.972 30.7202 101.044 30.7918V30.8634V31.0067V31.0783C101.044 31.1499 101.044 31.1499 101.115 31.2215V31.3647L101.33 31.5795V31.5079C101.33 31.5795 101.33 31.6511 101.33 31.6511L101.402 31.9376C101.402 32.0092 101.402 32.0092 101.402 32.0808L101.473 32.2956V32.4388L101.545 32.7252V32.8685C101.545 32.9401 101.617 33.0833 101.617 33.1549V33.2265C101.688 33.4413 101.688 33.6561 101.76 33.871C101.688 34.1574 101.545 34.4438 101.473 34.6587C101.402 34.8019 101.33 35.0167 101.259 35.1599C101.044 35.3747 100.757 35.5179 100.542 35.5896L99.2535 36.0192C99.898 36.0192 100.256 36.8785 100.256 37.5946C100.399 38.4539 100.256 39.3848 99.9696 40.1724C99.6115 41.0317 98.8955 41.6046 98.0362 41.533C98.3226 42.1774 97.5349 42.7503 96.8905 42.8219C96.246 42.8935 95.4583 42.8219 95.0287 43.3948C94.8138 43.8244 94.7422 44.2541 94.7422 44.7553C94.5274 45.7578 93.8829 46.5455 93.0236 46.8319C92.1643 47.1184 91.0186 46.3307 90.4458 46.6171C90.2309 49.9111 84.1443 50.3407 84.2159 46.5455Z" fill="#86628C"/>
<path d="M72.0427 32.9401C72.2575 32.6536 72.5439 32.3672 72.6155 32.0808C72.6155 31.7227 72.4007 31.4363 72.3291 31.0783C72.2575 30.7202 72.6155 30.2906 72.8304 30.577C71.7563 29.8609 71.1834 28.5004 71.255 27.0682C71.3982 25.6361 72.2575 24.4904 73.4032 24.0607C73.0452 23.6311 73.1168 22.915 73.4748 22.4854C73.5464 22.4138 73.618 22.3421 73.6897 22.3421C73.1168 21.1248 72.902 19.6927 73.0452 18.3321C73.0452 17.9741 73.1168 17.616 73.3316 17.3296C73.5464 17.0432 73.9045 16.8284 74.2625 16.6851L76.2675 15.8259C76.6256 15.253 76.912 14.6085 76.9836 13.9641C77.1268 13.3196 77.5565 12.5319 78.2009 12.6035C78.0577 11.8158 78.3442 11.0281 78.917 10.5985C79.4899 10.1689 80.2776 10.0972 80.8504 10.5269C81.3517 8.59349 82.6406 7.08973 84.2876 6.44526C86.0062 5.8724 87.7964 5.94401 89.4433 6.66008C90.5891 7.08973 91.6632 7.87741 92.4508 8.95153C93.2385 10.0256 93.5966 11.4578 93.4534 12.8899C93.7398 12.8899 93.9546 12.9616 94.1694 13.0332C94.241 13.3912 94.0978 13.8208 93.8114 13.9641C94.0262 13.9641 94.3126 14.1073 94.3126 14.3937C94.3126 14.6801 94.1694 14.895 93.9546 14.9666C94.0978 15.1098 94.1694 15.253 94.1694 15.4678C94.7423 14.7517 95.8164 15.1814 96.5325 15.7542C97.6782 16.5419 98.5375 17.6877 99.0388 19.1198C99.4684 20.552 99.1104 22.1273 98.1079 23.0582L98.6091 23.4163C98.5375 23.7027 98.3943 23.9175 98.1795 24.1323C98.6091 24.4188 98.7523 24.9916 98.5375 25.4929C98.4659 25.6361 98.3227 25.7793 98.1795 25.9225C98.6807 26.1374 98.8955 26.7102 98.7523 27.2831C98.7523 27.3547 98.7523 27.3547 98.6807 27.4263C99.3252 26.925 100.184 26.9966 100.757 27.5695C101.402 28.2856 101.76 29.2881 101.688 30.2906C101.617 31.2931 101.402 32.2956 101.044 33.2265C100.972 33.4413 100.901 33.5845 100.829 33.7278C100.614 33.9426 100.399 34.0858 100.113 34.1574L98.8955 34.587C99.54 34.587 99.8264 35.4463 99.898 36.234C100.041 37.0933 99.9696 38.0242 99.6832 38.8835C99.3968 39.7428 98.6807 40.3157 97.893 40.3157C98.1795 40.9601 97.3918 41.6046 96.8189 41.6762C96.1744 41.7478 95.4584 41.6762 95.0287 42.2491C94.8139 42.6787 94.7423 43.18 94.7423 43.6096C94.5991 44.6121 93.9546 45.4714 93.0953 45.7578C92.3792 46.0443 91.2335 45.2566 90.6607 45.543C90.4458 48.9802 84.574 49.3382 84.574 45.3998C84.2876 46.2591 83.2851 46.4023 82.4974 46.4739C81.7813 46.5455 81.1369 46.4739 80.4208 46.2591C79.7763 46.0443 79.2034 45.3998 79.0602 44.6121C78.4158 44.3973 77.8429 44.1109 77.3416 43.6096C76.8404 43.18 76.6256 42.3207 76.912 41.6762C76.0527 42.0342 75.0502 41.8194 74.3341 41.1749C73.6181 40.5305 73.0452 39.6712 72.6155 38.7403C72.1143 37.881 71.7563 36.9501 71.5414 35.876C71.1834 34.8019 71.3982 33.7278 72.0427 32.9401Z" fill="#342635"/>
<path d="M73.9044 27.1399C74.1193 26.8534 74.3341 26.6386 74.4057 26.2806C74.4057 25.9225 74.2625 25.6361 74.1909 25.3497C74.1193 24.9916 74.4773 24.6336 74.6205 24.8484C73.976 24.2756 73.5464 23.4879 73.3316 22.557C73.4032 22.4138 73.5464 22.3421 73.6896 22.2705C73.5464 21.9125 73.4032 21.6261 73.3316 21.268C73.4748 20.0507 74.1909 19.0482 75.1934 18.6185C74.9069 18.1173 74.9785 17.4012 75.4082 17.0432L75.4798 16.9716C75.4082 16.6851 75.265 16.3987 75.1934 16.1123L76.1959 15.6826C76.5539 15.1098 76.8403 14.4653 76.9119 13.8208C77.0552 13.1764 77.4848 12.3887 78.1293 12.4603C77.9861 11.6726 78.2725 10.8849 78.8454 10.4553C79.4182 10.0256 80.2059 9.95403 80.7788 10.3837C81.28 8.45027 82.569 6.94651 84.2159 6.30204C85.9345 5.72918 87.7247 5.80079 89.3717 6.51687C90.5174 6.94651 91.5915 7.8058 92.3792 8.87992C92.594 9.16635 92.8088 9.52438 92.9521 9.88242C92.8804 9.88242 92.8804 9.95403 92.8088 9.95403C92.9521 10.0972 93.0237 10.2405 92.9521 10.4553C93.0237 10.3837 93.0237 10.3121 93.0953 10.3121C93.3817 11.0998 93.4533 11.959 93.3101 12.8183C93.5965 12.8183 93.8113 12.8899 94.0262 12.9615C94.0978 13.3196 93.9546 13.7492 93.6681 13.8924C93.883 13.8924 94.1694 14.0357 94.1694 14.3221C94.1694 14.6085 94.0262 14.8233 93.8113 14.895C93.9546 15.0382 94.0262 15.1814 94.0262 15.3962C94.599 14.6801 95.6731 15.1098 96.3892 15.6826C96.604 15.8259 96.8189 15.9691 96.9621 16.1839C96.8189 16.7568 96.5324 17.258 96.1028 17.616L96.5324 17.9741C96.4608 18.2605 96.3176 18.4753 96.1744 18.6902C96.5324 19.0482 96.6756 19.6927 96.3892 20.1223C96.3176 20.1939 96.246 20.2655 96.1744 20.3371C96.604 20.552 96.8189 21.1964 96.604 21.6977C96.604 21.6977 96.604 21.6977 96.604 21.7693C97.1769 21.3396 97.893 21.4112 98.3942 21.9125C98.4658 21.9841 98.5374 22.0557 98.6091 22.1989C98.4658 22.4854 98.1794 22.7718 97.9646 22.9866L98.4658 23.3447C98.3942 23.6311 98.251 23.8459 98.0362 24.0607C98.4658 24.3472 98.6091 24.92 98.3942 25.4213C98.3226 25.5645 98.1794 25.7077 98.0362 25.8509C98.5374 26.0657 98.7523 26.6386 98.6091 27.2115C98.6091 27.2831 98.6091 27.2831 98.5374 27.3547L98.6807 27.2831V27.4263C98.6091 27.5695 98.6091 27.7843 98.4658 27.9275C98.3226 28.1424 98.1078 28.2856 97.893 28.3572L96.8189 28.7868C97.3917 28.7152 97.6065 29.6461 97.6782 30.2906C97.7498 31.1499 97.6782 32.0092 97.4633 32.8685C97.2485 33.6561 96.604 34.229 95.888 34.229C96.1028 34.8735 95.4583 35.4463 94.9571 35.5179C94.4558 35.5895 93.7397 35.5179 93.4533 36.0908C93.3101 36.5204 93.1669 36.9501 93.1669 37.4513C93.0237 38.3822 92.5224 39.1699 91.7347 39.528C91.0903 39.8144 90.0877 39.0267 89.6581 39.3131C89.4433 42.5355 84.4307 42.9651 84.4307 39.1699C84.2159 39.9576 83.3566 40.1724 82.6406 40.1724C82.0677 40.244 81.4948 40.1724 80.922 40.0292C80.3491 39.8144 79.9195 39.1699 79.7763 38.4539C79.2034 38.239 78.7737 37.9526 78.3441 37.523C77.9145 37.0217 77.7712 36.3056 77.9861 35.6612C77.27 36.0192 76.4107 35.8044 75.7662 35.1599C75.1218 34.5154 74.6205 33.7278 74.3341 32.7969C73.9044 31.9376 73.618 31.0783 73.4748 30.1474C73.1884 28.93 73.4032 27.9275 73.9044 27.1399Z" fill="#4B394C"/>
<path d="M79.1319 14.1073C79.0603 14.1073 78.9887 13.9641 78.9887 13.8925C78.9887 13.8208 79.0603 13.6776 79.0603 13.606C79.3467 13.1764 79.7048 12.7467 80.0628 12.5319C80.3492 12.3887 80.5641 12.3171 80.8505 12.3171C81.3517 12.2455 81.853 12.2455 82.3543 12.2455C82.9271 12.1739 83.5 12.2455 84.0728 12.3171C84.6457 12.3887 85.2186 12.6035 85.7914 12.7467C86.4359 12.8183 87.0804 12.8183 87.6532 12.7467C88.5125 12.7467 89.3718 12.6035 90.2311 12.4603C90.804 12.2455 91.3768 12.1739 91.9497 12.3171C92.0929 12.3887 92.1645 12.4603 92.2361 12.5319C92.3793 12.7467 92.3077 13.0332 92.0929 13.1764C92.0213 13.1764 91.9497 13.248 91.9497 13.248C92.3077 13.3912 92.4509 13.8925 92.4509 14.3221C92.4509 14.6801 92.3793 14.9666 92.1645 15.1814C91.9497 15.3246 91.7349 15.3246 91.52 15.1814L91.3768 15.1098C91.3052 15.1098 91.162 15.0382 91.0904 14.9666L91.0188 14.895L90.8756 14.7517H90.9472C90.8756 14.6085 90.8756 14.5369 90.804 14.4653C90.7323 14.3937 90.6607 14.3221 90.5175 14.2505C90.1595 14.0357 89.7298 13.8925 89.3718 13.7492C88.4409 13.3912 87.51 13.248 86.5791 13.248C86.0779 13.248 85.5766 13.4628 85.0753 13.4628C84.5741 13.3912 84.0012 13.3912 83.5 13.4628C82.9271 13.606 82.3543 13.9641 81.7814 14.0357C81.5666 14.0357 81.4234 14.1073 81.2085 14.1789C80.9937 14.3937 80.9221 14.7517 80.7789 15.0382C80.5641 15.3246 80.2776 15.4678 79.9912 15.4678C80.206 15.611 80.0628 15.9691 79.848 16.0407C79.6332 16.0407 79.4183 15.8975 79.2751 15.7543C79.0603 15.253 78.9171 14.6085 79.1319 14.1073Z" fill="#342635"/>
<path d="M89.7297 12.8183H82.1393L82.2109 13.1048C82.4974 14.4653 83.4999 15.1098 84.3592 14.4653L85.6481 13.606H86.221L87.5815 14.4653C88.5124 15.0382 89.5149 14.2505 89.7297 12.8183Z" fill="#AEA0BA"/>
<path d="M84.0727 14.1073L85.29 12.6751L82.7122 12.4603L84.0727 14.1073Z" fill="#342635"/>
<path d="M84.0728 13.3912L84.9321 12.8183L83.0703 12.7467L84.0728 13.3912Z" fill="#A5EFE1"/>
<path d="M87.5815 13.9641L88.7988 12.6035L86.221 12.3171L87.5815 13.9641Z" fill="#342635"/>
<path d="M87.5815 13.5344L88.3691 12.6751H86.6506L87.5815 13.5344Z" fill="#A5EFE1"/>
<path d="M93.3101 5.29954L92.8804 9.73921L78.4157 10.7417L78.6305 1.50434C78.6305 1.50434 80.4923 6.66009 83.1418 6.08723C85.7913 5.51436 87.2234 0.000579834 87.2234 0.000579834C87.2234 0.000579834 87.9395 6.37366 90.3025 6.8033C92.5224 7.16134 93.3101 5.29954 93.3101 5.29954Z" fill="#8FA7BC"/>
<path d="M12.0354 48.9086C12.0354 48.9086 16.4034 42.3923 16.2602 41.3898C16.117 40.3873 13.3959 27.4263 13.0379 27.5695C12.6798 27.7127 13.3243 39.0983 13.3243 39.0983C13.3243 39.0983 11.3193 42.0342 10.6032 42.2491C9.88715 42.4639 6.5932 39.6712 6.5932 39.6712C6.5932 39.6712 4.51658 26.8534 4.30176 26.7102C4.08694 26.567 4.08694 41.9626 4.08694 41.9626L11.8206 50.5555L12.0354 48.9086Z" fill="#564D60"/>
<path d="M131.262 111.136C134.27 116.936 135.917 119.012 135.917 119.514C135.917 119.943 135.415 124.455 136.919 126.46C136.919 126.46 139.282 125.958 139.139 125.171C138.996 124.383 138.423 122.163 139.139 120.731C139.855 119.299 138.853 115.575 139.855 114.358C141.216 112.639 136.418 109.918 133.769 109.417C130.833 108.987 131.262 111.136 131.262 111.136Z" fill="#D1C5DD"/>
<path d="M134.556 104.333C136.561 106.911 138.852 108.701 140.571 109.059C142.29 109.417 145.082 109.059 146.156 109.703C147.231 110.348 150.596 116.435 151.026 116.793C151.455 117.151 149.88 120.015 148.878 118.798C147.875 117.58 145.727 114.358 145.154 113.785C144.509 113.212 139.927 113.713 138.781 115.289C138.28 115.933 132.05 111.708 131.763 111.422C131.62 111.207 134.556 104.333 134.556 104.333Z" fill="#D1C5DD"/>
<path d="M139.211 107.197L135.917 101.827L129.042 111.78L133.196 116.005L139.211 107.197Z" fill="#564D60"/>
<path d="M66.0275 66.2376C66.0275 65.4499 66.9584 64.8055 68.1757 64.8055C69.3931 64.8055 70.324 65.4499 70.324 66.2376C70.324 67.0253 69.3931 67.6698 68.1757 67.6698C66.9584 67.6698 66.0275 67.0253 66.0275 66.2376Z" fill="#9D7CA5"/>
<path d="M67.1018 66.2376C67.1018 65.808 67.603 65.5215 68.1759 65.5215C68.7487 65.5215 69.25 65.808 69.25 66.2376C69.25 66.6673 68.7487 66.9537 68.1759 66.9537C67.603 66.9537 67.1018 66.5956 67.1018 66.2376Z" fill="#BDB0CC"/>
<path d="M86.3643 12.8183L86.5791 14.895L85.6482 15.5394L84.9321 14.895L85.505 12.8183H86.3643Z" fill="#917EA5"/>
<path d="M86.221 12.6751L86.4358 14.7517L85.6481 15.3246L85.0753 14.7517L85.5049 12.7467L86.221 12.6751Z" fill="#AEA0BA"/>
<path d="M93.167 11.7442C90.2311 13.3912 85.2902 12.8183 85.2902 12.8183C85.505 12.2455 85.863 11.8874 86.3643 11.6726C86.7939 11.4578 87.2236 11.601 87.51 12.0307C87.51 12.0307 88.2977 10.4553 89.157 10.6701C89.6582 10.7417 90.0163 11.1714 90.0879 11.7442C91.7348 10.3121 92.809 10.0256 93.167 11.7442Z" fill="#4B394C"/>
<path d="M78.2725 11.7442C80.9936 13.3912 85.5049 12.8183 85.5049 12.8183C85.3617 12.3171 85.0036 11.8874 84.5024 11.6726C84.1443 11.5294 83.7147 11.601 83.4283 12.0307C83.4283 12.0307 82.7122 10.4553 81.8529 10.6701C81.4233 10.7417 81.0652 11.243 80.9936 11.7442C79.6331 10.3121 78.6306 10.0256 78.2725 11.7442Z" fill="#4B394C"/>
<path d="M79.9194 41.2465C80.2058 40.0292 81.1367 39.1699 82.2108 39.2415C83.3566 39.2415 84.1442 40.1008 84.0726 41.2465C83.7862 42.4639 82.8553 43.3232 81.7812 43.2516C80.5639 43.2516 79.7762 42.3923 79.9194 41.2465Z" fill="#4B394C"/>
<path d="M86.4358 30.577C86.3642 30.6486 86.2926 30.7202 86.2926 30.7918C86.3642 30.7202 86.4358 30.6486 86.4358 30.577Z" fill="#342635"/>
<path d="M84.7888 34.8019C84.7888 35.2315 84.7172 35.6612 84.574 36.0908C84.6456 35.6612 84.7172 35.2315 84.7888 34.8019Z" fill="#342635"/>
<path d="M83.5714 31.0783C84.4307 31.5795 85.5048 31.4363 86.2925 30.7918C85.7912 31.4363 85.7196 32.4388 86.2209 33.1549C85.5764 33.1549 85.0751 33.6561 84.7887 34.8019C84.8603 33.4413 84.4307 32.0808 83.5714 31.0783Z" fill="#342635"/>
<path d="M76.9119 27.3547L76.7687 27.2831C76.8403 27.2831 76.9119 27.2831 76.9119 27.3547Z" fill="#342635"/>
<path d="M74.4058 26.7102C74.1909 26.7102 73.9045 26.7102 73.6897 26.7102C73.9045 26.6386 74.1193 26.6386 74.4058 26.7102Z" fill="#342635"/>
<path d="M76.2675 25.2065C76.1243 25.9225 76.3391 26.7102 76.8403 27.2115C76.4107 26.925 75.8378 27.0682 75.5514 27.4979C75.4798 26.9966 75.1217 26.7102 74.4773 26.6386C75.1217 26.4954 75.8378 25.9941 76.2675 25.2065Z" fill="#342635"/>
<path d="M96.3891 34.7303C96.6756 35.0167 96.962 35.3031 97.1052 35.6612C96.8904 35.3747 96.6756 35.0883 96.3891 34.7303Z" fill="#342635"/>
<path d="M93.1668 33.5129C94.0261 33.0117 94.599 32.0092 94.6706 30.8634C94.8138 31.7227 95.4583 32.3672 96.1743 32.4388C95.7447 33.0833 95.8163 33.7994 96.3892 34.8019C95.5299 33.7994 94.3841 33.3697 93.1668 33.5129Z" fill="#342635"/>
<path d="M91.3767 35.4463C91.3767 35.4463 93.5249 33.5845 93.7397 37.3081L92.236 39.0983C93.5249 36.8069 92.236 35.0883 91.3767 35.4463Z" fill="#342635"/>
<path d="M90.6607 40.9601L92.2361 39.0983C91.8064 39.8144 91.3052 40.4589 90.6607 40.9601Z" fill="#342635"/>
<path d="M74.6206 154.315C80.564 159.9 111.713 165.557 111.713 165.557C113.002 161.905 114.076 158.182 115.007 154.387C114.506 160.33 114.005 165.486 114.005 165.486C114.005 165.486 119.017 175.296 119.948 178.805C121.022 182.886 121.166 191.551 121.166 191.551C122.168 191.623 123.242 191.837 124.245 192.195C101.044 189.259 68.892 148.873 74.6206 154.315Z" fill="#7E5987"/>
<path d="M59.1533 93.3769C59.1533 93.3769 73.1167 98.3178 86.0061 64.8055C87.6531 60.509 89.0136 56.7854 90.231 53.4198C90.231 53.7779 90.231 54.1359 90.231 54.494C89.0852 75.6182 70.9685 105.908 56.4322 101.111C57.0766 98.3894 58.0075 95.8115 59.1533 93.3769Z" fill="#A686AD"/>
<path d="M31.083 76.8355C28.8632 79.9863 25.8557 82.2061 22.4185 83.2086C19.9838 83.9247 17.6924 89.0804 16.6183 89.8681C15.3293 90.7274 13.3243 88.5076 13.4675 87.3618C13.6824 86.0013 16.5467 82.779 18.0504 78.9121C18.6949 77.122 20.9147 73.47 24.4235 73.1835C27.8607 72.8971 31.083 76.8355 31.083 76.8355Z" fill="#D1C5DD"/>
<path d="M48.6985 58.7904C49.2713 60.7954 49.2713 62.872 48.8417 64.8771L38.5302 72.3959C48.1972 61.6547 48.6985 58.7904 48.6985 58.7904Z" fill="#BDB0CC"/>
<path d="M94.957 122.092C78.2009 127.963 61.5879 126.173 61.5879 126.173L74.2624 116.435C67.6029 125.457 77.3416 125.887 94.957 122.092Z" fill="#7E5987"/>
<path d="M176.16 125.099C177.019 121.447 176.948 117.58 175.802 114.071C175.802 114.071 173.153 118.225 172.15 120.158C171.148 122.092 176.16 125.099 176.16 125.099Z" fill="#342E3D"/>
<path d="M124.316 133.692C123.171 132.689 122.24 131.472 121.524 130.04L121.166 124.741L124.245 128.465C124.173 128.536 124.746 131.973 124.316 133.692Z" fill="#564D60"/>
<path d="M118.516 173.005H118.802C124.173 172.718 125.748 169.209 127.252 165.199C128.756 161.189 129.973 157.609 135.917 156.105L135.773 153.67C129.329 155.317 127.682 160.402 126.106 164.555C124.674 168.35 123.457 171.644 118.731 171.859C116.439 172.002 114.291 170.355 113.575 167.777C111.713 162.55 112.93 152.525 118.659 146.366C127.538 136.771 124.03 131.114 122.741 128.393L122.454 128.751C123.743 131.401 126.464 136.986 118.229 145.937C112.214 152.453 110.639 162.55 112.644 168.207C113.79 171.286 115.866 173.005 118.516 173.005Z" fill="#564D60"/>
<path d="M160.836 178.232C164.488 168.636 167.925 162.12 166.923 155.747C165.92 149.374 155.68 165.199 155.322 172.002C155.179 174.938 158.401 175.797 156.54 182.385C157.256 189.474 157.9 199.499 157.9 199.499H159.332C159.332 199.499 158.401 184.677 160.836 178.232Z" fill="#312C3A"/>
<path d="M142.576 171.214C142.505 170.355 141.216 159.471 143.077 156.32C144.939 153.169 151.169 149.66 152.172 153.169C153.102 156.678 153.461 167.061 144.223 181.168C143.006 183.03 143.149 195.131 145.512 200.001H142.791C142.361 191.264 139.712 177.301 139.712 177.301C139.712 177.301 142.648 172.145 142.576 171.214Z" fill="#312C3A"/>
<path d="M157.829 199.929H161.409C161.409 199.929 160.12 196.993 159.117 196.42C158.043 195.847 157.829 199.929 157.829 199.929Z" fill="#312C3A"/>
<path d="M142.791 199.929H146.371C146.371 199.929 145.584 197.279 144.653 196.778C143.722 196.277 142.791 199.929 142.791 199.929Z" fill="#312C3A"/>
<path d="M135.702 153.527C138.996 152.525 142.361 151.737 145.798 151.307C146.228 146.438 147.231 141.64 148.806 137.129L167.352 138.919C167.639 145.221 167.567 151.522 167.137 157.824C166.35 162.335 164.774 166.56 162.483 170.212C160.406 173.721 157.327 176.298 153.818 177.373C152.53 176.943 137.42 171.143 135.272 168.207C133.124 165.271 135.702 153.527 135.702 153.527Z" fill="#564D60"/>
<path d="M135.702 153.527C138.853 152.238 142.146 151.379 145.44 150.949C145.798 146.152 146.944 141.426 148.734 137.129L153.962 139.134C154.033 144.433 149.164 166.918 157.184 170.856C160.621 172.503 164.774 165.915 167.066 157.537C167.066 157.609 167.066 157.752 166.994 157.824C166.207 162.335 164.631 166.56 162.34 170.212C160.263 173.721 157.184 176.298 153.675 177.373C152.386 176.943 137.277 171.143 135.129 168.207C132.981 165.271 135.702 153.527 135.702 153.527Z" fill="#443C4F"/>
<path d="M135.702 153.527C137.492 152.811 139.282 152.238 141.072 151.737C141.86 155.532 143.006 159.184 144.51 162.621C146.729 168.135 149.88 173.076 153.604 177.301C151.527 176.585 137.349 171.071 135.201 168.207C133.124 165.343 135.702 153.527 135.702 153.527Z" fill="#342E3D"/>
<path d="M174.585 129.252C168.212 137.129 167.281 141.354 167.424 148.3C167.424 148.3 160.048 142.285 160.192 135.124C160.335 127.963 167.639 123.237 169.93 122.664C172.293 122.02 174.585 129.252 174.585 129.252Z" fill="#564D60"/>
<path d="M164.416 151.021C162.411 148.586 160.12 139.063 160.192 135.053C160.335 127.892 167.639 123.166 169.93 122.593C172.293 122.02 174.585 129.252 174.585 129.252C171.076 133.549 169.214 136.771 168.283 139.922C167.925 139.063 164.416 139.206 164.416 151.021Z" fill="#443C4F"/>
<path d="M167.496 136.843C165.133 136.771 162.698 139.564 161.409 143.359C160.693 140.638 160.263 137.845 160.192 135.053C160.335 127.892 167.639 123.166 169.93 122.593C172.293 122.02 174.585 129.252 174.585 129.252C172.508 131.687 170.646 134.48 169.214 137.487C168.713 137.058 168.14 136.843 167.496 136.843Z" fill="#342E3D"/>
<path d="M145.799 150.878C146.801 141.998 146.801 135.052 144.438 130.613L146.586 120.874C146.586 120.874 153.103 121.017 154.964 138.776C154.964 138.776 154.463 151.164 145.799 150.878Z" fill="#443C4F"/>
<path d="M144.438 130.613V130.47L149.665 124.598L150.525 123.81C152.028 125.958 153.604 129.61 154.535 135.983L153.747 144.361C149.665 136.341 146.729 137.058 147.446 144.934L146.371 142.428C146.515 137.63 145.942 133.549 144.438 130.613Z" fill="#342E3D"/>
<path d="M174.728 144.791L176.661 144.72C176.661 144.72 181.316 125.027 173.009 119.657C171.291 118.511 166.421 121.519 165.133 125.887C164.774 128.823 174.728 144.791 174.728 144.791Z" fill="#564D60"/>
<path d="M165.204 125.815C166.493 121.519 170.36 119.012 172.15 120.158C172.866 120.659 169.071 129.037 169.071 129.037C169.071 129.037 173.869 140.638 175.73 144.791L174.8 144.863C174.728 144.863 164.775 128.823 165.204 125.815Z" fill="#443C4F"/>
<path d="M173.224 121.877C172.794 118.368 171.506 115.074 169.644 112.281C169.644 112.281 169.357 117.58 169.357 119.943C169.214 122.306 173.224 121.877 173.224 121.877Z" fill="#564D60"/>
<path d="M172.078 122.02C171.864 119.514 171.147 117.151 170.002 115.074C170.002 115.074 169.787 118.798 169.787 120.445C169.715 122.02 172.078 122.02 172.078 122.02Z" fill="#443C4F"/>
<path d="M148.949 123.524C148.949 119.8 148.233 116.148 146.729 112.926C146.729 112.926 145.655 118.082 145.226 120.373C144.796 122.664 148.949 123.524 148.949 123.524Z" fill="#443C4F"/>
<path d="M145.799 122.45C144.366 119.156 142.218 116.363 139.569 114.286C139.569 114.286 140.714 119.442 141.287 121.662C141.86 123.882 145.799 122.45 145.799 122.45Z" fill="#342E3D"/>
<path d="M150.883 178.16C154.248 168.493 151.097 163.624 149.88 157.179C148.734 150.735 140.571 149.589 143.149 165.128C143.579 167.992 148.376 175.654 146.729 182.314C147.66 189.403 148.52 199.499 148.52 199.499H149.952C149.952 199.571 148.663 184.605 150.883 178.16Z" fill="#564D60"/>
<path d="M149.952 157.179V157.251C148.376 158.898 147.016 162.908 146.658 167.777C146.3 172.145 149.737 175.153 152.172 173.076C152.386 174.293 151.312 177.158 150.525 179.736C148.949 186.753 150.023 199.428 150.023 199.428H148.591C148.591 199.428 147.732 189.331 146.801 182.242C148.52 175.654 143.65 167.992 143.221 165.056C140.643 149.589 148.734 150.806 149.952 157.179Z" fill="#443C4F"/>
<path d="M142.934 162.478C144.653 171 148.09 177.373 150.596 176.657C151.026 176.513 151.384 176.227 151.67 175.797C151.456 176.585 151.384 177.516 151.098 178.303C150.023 181.311 149.594 185.965 149.594 190.334C149.164 189.474 148.734 189.045 148.233 189.116C147.947 189.188 147.66 189.403 147.517 189.689C147.231 187.183 146.944 184.605 146.658 182.314C148.376 175.726 143.364 168.422 142.934 165.557C142.791 164.197 142.719 162.836 142.719 161.404L142.934 162.478Z" fill="#342E3D"/>
<path d="M147.231 199.929H150.811C150.811 199.929 150.095 196.635 149.164 196.062C148.233 195.489 147.231 199.929 147.231 199.929Z" fill="#564D60"/>
<path d="M131.334 171.214C131.262 170.355 129.902 159.471 131.835 156.32C133.768 153.098 140.428 151.594 141.43 155.103C142.361 158.611 142.218 167.061 132.981 181.168C131.763 183.03 131.907 195.131 134.27 200.001H131.549C131.119 191.264 128.469 177.301 128.469 177.301C128.469 177.301 131.405 172.145 131.334 171.214Z" fill="#443C4F"/>
<path d="M131.334 171.214C131.262 170.355 129.901 159.471 131.835 156.32C132.265 155.675 132.766 155.174 133.339 154.745C132.694 156.75 132.193 158.898 131.906 161.046C130.832 168.923 132.265 175.726 135.057 176.298C135.344 176.37 135.63 176.37 135.917 176.298C135.057 177.874 134.055 179.449 132.909 181.168C131.692 183.03 131.835 195.131 134.198 200.001H131.477C131.047 191.264 128.398 177.301 128.398 177.301C128.398 177.301 131.405 172.145 131.334 171.214Z" fill="#342E3D"/>
<path d="M131.62 199.929H135.2C135.2 199.929 134.484 197.279 133.482 196.778C132.479 196.277 131.62 199.929 131.62 199.929Z" fill="#564D60"/>
<path d="M143.292 168.636C143.507 163.624 145.512 161.261 145.512 161.261C144.509 164.483 144.438 168.923 146.228 175.01L143.292 168.636Z" fill="#342E3D"/>
<path d="M145.44 150.949C145.584 149.016 145.87 147.083 146.3 145.221C146.586 140.137 146.371 135.84 145.297 132.546V132.403C147.445 141.139 149.307 149.446 150.167 156.535C149.236 153.885 147.302 151.88 145.011 151.021L145.44 150.949Z" fill="#342E3D"/>
<path d="M140.213 143.359L138.28 143.073C138.28 143.073 134.986 122.951 143.722 118.44C145.584 117.509 150.238 120.946 151.241 125.385C151.384 128.321 140.213 143.359 140.213 143.359Z" fill="#564D60"/>
<path d="M143.722 118.44C145.584 117.509 150.238 120.946 151.241 125.385C151.312 126.818 148.806 130.971 146.157 134.909C146.157 134.838 146.157 134.694 146.157 134.623C146.801 128.751 147.087 124.884 145.512 125.958C142.863 127.749 139.927 127.892 139.139 133.692C138.566 137.487 138.781 140.996 139.425 143.216L138.28 143.073C138.28 143.001 135.057 122.951 143.722 118.44Z" fill="#443C4F"/>
<path d="M146.013 135.196C149.236 130.112 149.737 122.521 148.949 120.874C150.883 122.736 152.243 125.314 152.816 128.25C153.46 132.833 146.013 135.196 146.013 135.196Z" fill="#342E3D"/>
<path d="M148.305 122.306C148.305 120.015 147.875 117.795 146.944 115.718C146.944 115.718 146.3 118.869 146.013 120.301C145.727 121.733 148.305 122.306 148.305 122.306Z" fill="#342E3D"/>
<path d="M142.648 126.818C143.077 125.744 143.579 124.741 144.223 123.81C144.223 123.81 145.154 124.813 145.154 125.027C144.366 125.744 143.507 126.316 142.648 126.818Z" fill="#FFCB48"/>
<path d="M139.784 124.025L139.927 125.744L139.067 125.529L139.784 124.025Z" fill="#FFCB48"/>
<path d="M140.213 143.359L137.42 145.507L136.561 141.927L137.778 135.267L138.924 135.053L140.213 143.359Z" fill="#342E3D"/>
<path d="M140.213 143.359C140.141 143.431 145.44 129.825 145.44 129.825L149.021 130.398C149.092 130.398 143.435 139.779 140.213 143.359Z" fill="#443C4F"/>
<path d="M176.232 137.559L177.592 138.704L177.879 147.297L174.728 144.791L176.232 137.559Z" fill="#342E3D"/>
<path d="M165.849 132.188L171.004 130.04L174.943 143.144L165.849 132.188Z" fill="#443C4F"/>
<path d="M175.086 129.825C174.8 128.25 174.441 126.746 174.012 125.242L172.007 125.6L175.086 129.825Z" fill="#FFCB48"/>
<path d="M153.389 125.099L162.268 124.598C162.913 135.625 162.197 140.351 162.197 140.351C162.197 140.351 159.977 152.024 156.468 151.451C153.031 150.949 152.171 138.132 153.389 125.099Z" fill="#564D60"/>
<path d="M161.982 151.594C161.266 146.008 159.332 145.364 158.473 145.364C155.752 145.364 154.033 148.443 154.105 153.599C152.172 148.515 152.53 134.551 153.389 125.099L162.268 124.598C163.557 133.907 164.417 144.791 161.982 151.594Z" fill="#443C4F"/>
<path d="M152.888 145.364C152.172 139.277 152.601 128.823 153.389 125.171L162.268 124.669C163.271 127.39 164.202 134.838 163.486 140.638C162.197 138.418 153.819 137.702 152.888 145.364Z" fill="#342E3D"/>
<path d="M152.53 121.161C153.747 117.079 162.053 117.437 163.056 120.731C165.92 129.897 159.117 143.932 159.117 143.932L157.112 143.86C157.112 143.86 150.023 127.677 152.53 121.161Z" fill="#443C4F"/>
<path d="M154.033 122.45C155.108 118.583 161.982 118.941 162.77 122.02C164.918 130.613 158.903 143.932 158.903 143.932L157.256 143.86C157.256 143.86 151.742 128.608 154.033 122.45Z" fill="#564D60"/>
<path d="M163.199 123.524L159.261 128.107H157.542L153.532 123.166L153.246 127.176L153.317 128.608L153.246 130.398L156.396 141.497L157.399 137.917L158.115 129.324H158.974L163.271 127.104L163.199 123.524Z" fill="#443C4F"/>
<path d="M162.197 112.21C162.197 112.21 164.416 118.583 162.984 123.739L159.404 120.445C161.266 118.296 162.268 115.289 162.197 112.21Z" fill="#564D60"/>
<path d="M153.031 111.923C153.031 111.923 151.026 117.58 152.171 122.808L156.11 119.299C154.606 117.151 153.604 114.573 153.031 111.923Z" fill="#443C4F"/>
<path d="M152.816 114.501C152.315 116.936 152.172 119.514 152.458 122.02L154.033 121.017C153.461 118.869 153.031 116.721 152.816 114.501Z" fill="#342E3D"/>
<path d="M162.411 115.289C162.411 115.289 163.629 119.084 162.626 122.163L160.979 120.516C162.125 119.227 162.698 117.222 162.411 115.289Z" fill="#443C4F"/>
<path d="M160.048 128.178L162.34 124.956L162.411 127.176L160.048 128.178Z" fill="#FFCB48"/>
<path d="M156.182 128.321L153.747 124.956L154.105 127.749L156.182 128.321Z" fill="#FFCB48"/>
<path d="M160.12 141.855L159.117 138.633H157.399L156.11 141.64L158.115 145.221L160.12 141.855Z" fill="#342E3D"/>
<path d="M7.5243 37.6662C7.5243 36.1624 8.5268 35.0167 9.81574 35.0167C11.0331 35.0167 12.1072 36.234 12.1072 37.6662C12.1072 39.0983 11.1047 40.3157 9.81574 40.3157C8.5268 40.3157 7.5243 39.0983 7.5243 37.6662Z" fill="#E3FFEF"/>
<path d="M8.2404 39.0267C8.2404 39.0983 8.31201 39.1699 8.31201 39.2415C8.31201 39.1699 8.31201 39.0983 8.2404 39.0267Z" fill="#E3FFEF"/>
<path d="M7.30929 37.4513L8.09698 38.0242L7.88215 37.3797C7.66733 36.8785 7.59573 36.234 7.59573 35.6612C7.66733 35.2315 7.81054 34.8019 8.02537 34.3722C8.3118 33.6561 8.66984 32.9401 9.02788 32.224C9.52913 31.3647 10.0304 30.5054 10.3884 29.5029C10.5316 28.93 10.6032 28.3572 10.5316 27.7843C10.46 27.2831 10.3884 26.7818 10.2452 26.2806C10.102 25.6361 9.95878 25.0632 9.74395 24.4904C10.0304 25.6361 10.5316 26.6386 10.8181 27.7843C11.1045 28.6436 11.1761 29.6461 11.0329 30.577C10.7465 31.9376 9.88716 33.0833 9.81556 34.3722C9.81556 34.8735 9.88717 35.5179 9.52913 35.876C9.38591 36.0192 9.17109 36.0908 9.02788 36.234C8.59823 36.5204 8.38341 37.0217 8.3118 37.523C8.24019 37.9526 8.3118 38.4539 8.3834 38.8835C8.02537 38.3822 7.73893 37.8094 7.30929 37.4513Z" fill="#E3FFEF"/>
<path d="M12.68 29.0733C12.7516 28.8584 12.8948 28.6436 13.0381 28.4288C13.3245 28.0708 13.4677 27.6411 13.5393 27.2115C13.5393 27.7843 13.3245 28.2856 13.0381 28.7152C12.8948 29.0017 12.7516 29.2881 12.68 29.5745C12.6084 29.3597 12.6084 29.2165 12.68 29.0733Z" fill="#E3FFEF"/>
<path d="M8.7416 36.234C9.31446 35.3747 10.2454 35.0167 11.1047 35.3031C11.3911 35.4463 11.6775 35.518 11.9639 35.518C12.2504 35.518 12.4652 35.3031 12.5368 35.0167C12.5368 34.8019 12.5368 34.6587 12.4652 34.4438C12.1072 32.7969 12.1788 31.0783 12.68 29.4313C12.68 29.5029 12.68 29.5745 12.68 29.6461C12.7516 30.7202 12.9664 31.866 13.3961 32.8685C13.6109 33.3697 13.8257 33.9426 14.0406 34.4438C14.1838 35.1599 14.1838 35.9476 13.969 36.5921C13.4677 38.4539 12.2504 39.9576 10.675 40.6737L11.3195 39.6712C10.8182 40.1724 10.1021 40.2441 9.60089 39.7428C8.95642 39.1699 8.59838 38.3823 8.52678 37.4514C8.38356 37.0933 8.52678 36.5921 8.7416 36.234Z" fill="#E3FFEF"/>
<path d="M14.4701 37.2365L14.5417 37.3797C14.4701 37.3797 14.4701 37.2365 14.4701 37.2365Z" fill="#B9F9D4"/>
<path d="M11.8923 46.6887C11.6775 46.2591 11.6058 45.6862 11.6058 45.185C11.6775 44.9701 11.7491 44.6837 11.8923 44.5405C12.1787 44.1109 12.4651 43.6812 12.7516 43.2516C12.8948 43.0367 13.038 42.8935 13.1812 42.7503C13.396 42.6787 13.6109 42.5355 13.8257 42.4639C14.2553 42.1775 14.685 41.8194 14.8998 41.3182C15.1146 41.0317 15.2578 40.7453 15.3294 40.3157C15.3294 40.0292 15.3294 39.7428 15.2578 39.4564C15.043 38.6687 14.7566 37.9526 14.3986 37.3081C14.4702 37.3081 14.4702 37.2365 14.4702 37.1649C14.6134 36.6637 14.6134 36.1624 14.7566 35.6612C14.9714 34.8735 15.2578 34.1574 15.5443 33.3697C15.8307 32.6536 15.9023 31.7944 15.7591 31.0067C16.0455 31.3647 15.9739 31.9376 15.9023 32.4388C15.7591 33.2981 15.6875 34.1574 15.6875 35.0883C15.6159 36.0908 15.9023 37.0933 16.4036 37.881C16.6184 38.1674 16.9048 38.3823 17.1912 38.6687C17.7641 39.3848 18.0505 40.3157 17.9789 41.3182C17.9073 41.9626 17.7641 42.5355 17.5493 43.1084C17.4777 43.3948 17.3345 43.6812 17.1912 43.896C16.8332 44.3973 16.1887 44.3973 15.6875 44.7553C15.4727 45.0418 15.1862 45.2566 14.8998 45.3998C14.7566 45.4714 14.5418 45.4714 14.3986 45.543C13.9689 45.7578 13.8973 46.3307 13.7541 46.8319C13.5393 47.548 12.9664 48.1209 12.8948 48.9086C12.8948 49.3382 12.9664 49.6963 12.9664 50.0543C12.9664 50.2691 12.8232 50.9852 12.5368 50.9136C12.2503 50.842 12.3935 49.8395 12.3935 49.6246C12.3935 48.6221 12.1787 47.6196 11.8923 46.6887Z" fill="#B9F9D4"/>
<path d="M5.16114 13.8208C5.01792 12.8899 4.94632 11.959 4.8031 11.0998C4.8031 10.9565 4.7315 10.8133 4.7315 10.6701C4.65989 10.5985 4.65988 10.4553 4.58828 10.3837C3.72898 9.23796 3.22774 7.66259 3.22774 6.15883C3.01291 7.44777 3.22773 8.7367 3.72899 9.88242C3.8722 10.0972 4.01542 10.3837 4.08702 10.6701C4.15863 10.9565 4.15864 11.1714 4.15864 11.4578C4.23024 13.0332 4.08703 14.6085 3.65739 16.1123C3.37095 16.9716 2.94131 15.1098 2.58327 15.9691C2.22523 16.8284 1.86719 18.0457 2.15362 18.905C2.22523 18.5469 2.36844 18.1889 2.51166 17.8309C2.79809 17.4012 3.08452 19.7643 3.37095 19.3346C3.65738 18.905 3.72899 18.4753 3.94381 18.0457C4.37346 17.1864 4.94632 16.6135 5.16114 15.6826C5.23275 14.9666 5.23275 14.3937 5.16114 13.8208Z" fill="#A4EDC5"/>
<path d="M78.559 1.86238V1.50434C78.559 1.50434 80.4208 6.66009 83.0703 6.08723C85.7198 5.51436 87.152 0.000579834 87.152 0.000579834C87.152 0.000579834 87.868 6.37366 90.2311 6.8033C90.6607 6.87491 91.0904 6.87491 91.52 6.8033C90.8756 8.09224 89.9446 9.23796 88.8705 10.0973L83.2851 10.4553C80.8505 9.02314 79.0603 5.8008 78.559 1.86238Z" fill="#BACEDD"/>
<path d="M87.1519 9.23796L86.7222 5.29955L85.6481 9.52439L87.1519 9.23796Z" fill="#8FA7BC"/>
</svg>
