<svg width="227" height="200" viewBox="0 0 227 200" fill="none" xmlns="http://www.w3.org/2000/svg">
<path d="M210.6 118.319C210.112 117.476 203.612 119.772 204.532 122.179C205.453 124.586 207.538 127.182 207.716 128.435C207.893 129.689 201.937 130.975 202.17 132.495L204.244 138.706C208.267 136.812 211.414 133.451 213.04 129.312C213.927 126.705 211.099 119.173 210.6 118.319Z" fill="#FFB882"/>
<path d="M197.577 132.384C194.993 132.195 194.438 128.313 195.692 127.847C196.945 127.382 199.374 126.86 199.895 126.128C200.417 125.396 200.616 120.416 200.616 120.416L204.809 119.784L205.43 129.056C205.43 129.056 199.951 132.573 197.577 132.384Z" fill="#FF9566"/>
<path d="M202.136 137.176C199.507 136.843 197.921 133.926 198.897 132.95C199.873 131.974 201.914 130.432 202.114 129.533C202.314 128.635 200.572 124.087 200.572 124.087L204.199 121.647L208.381 129.7L202.136 137.176Z" fill="#FF9566"/>
<path d="M206.982 121.825C206.561 121.092 201.913 121.581 202.712 123.677C203.511 125.773 205.33 128.036 205.485 129.123C205.64 130.21 200.46 131.341 200.682 132.661L202.901 137.187C207.182 135.224 208.846 132.983 209.556 130.709C210.266 128.435 207.415 122.568 206.982 121.825Z" fill="#FF9566"/>
<path d="M199.23 109.49C204.51 112.396 209.934 116.678 210.699 118.286C211.465 119.895 208.791 124.864 205.73 123.488C202.669 122.113 197.089 111.476 197.089 111.476L199.23 109.49Z" fill="#FFB882"/>
<path d="M70.9519 109.512C69.3214 107.039 66.6815 103.123 65.1841 104.066C63.6867 105.009 63.8974 110.455 65.5279 112.94C67.1584 115.424 71.1848 116.412 72.6822 115.469C74.1796 114.526 72.5713 111.997 70.9519 109.512Z" fill="#FF9566"/>
<path d="M26.6731 104.554L23.7781 104.211L20.6169 191.393L22.0922 191.571L26.6731 104.554Z" fill="#A33D2F"/>
<path d="M21.6248 101.571L25.0078 107.261L29.4002 102.48L26.3721 85.7092L21.6248 101.571Z" fill="#F2E1C2"/>
<path d="M27.2938 105.131L23.2341 104.654L22.979 109.568L27.0387 110.045L27.2938 105.131Z" fill="#DDC699"/>
<path d="M105.137 152.583C152.744 183.551 163.292 146.959 163.292 146.959L153.088 138.707L105.137 152.583Z" fill="#4D2B82"/>
<path d="M37.7636 129.5L32.7944 129.034L23.9763 183.329L27.4814 190.728L32.7611 184.139L37.7636 129.5Z" fill="#97C9C0"/>
<path d="M34.7691 135.312L34.2589 135.257L27.8366 184.372L27.4817 190.728L28.7351 184.461L34.7691 135.312Z" fill="#789B94"/>
<path d="M37.1325 136.466L37.7648 129.545L32.7956 129.079L31.7529 135.457C33.5949 135.437 35.4227 135.78 37.1325 136.466Z" fill="#789B94"/>
<path d="M39.2399 114.326L35.158 113.949L33.228 129.19L37.2988 129.567L39.2399 114.326Z" fill="#843C43"/>
<path d="M35.5009 127.493L29.6887 126.949C29.3688 126.912 29.045 126.966 28.7546 127.106C28.4642 127.245 28.219 127.463 28.0474 127.736C27.8758 128.008 27.7847 128.324 27.7847 128.646C27.7846 128.968 27.8756 129.283 28.0471 129.556C28.3301 129.941 28.6968 130.256 29.1194 130.479C29.5421 130.702 30.0098 130.826 30.4873 130.842L39.261 131.652C40.1615 131.735 41.0629 131.504 41.8122 130.998C42.0989 130.812 42.3201 130.541 42.4445 130.223C42.569 129.905 42.5905 129.556 42.5059 129.225C42.4213 128.894 42.235 128.598 41.9732 128.379C41.7114 128.16 41.3874 128.028 41.0468 128.003L35.5009 127.493Z" fill="#FFD15F"/>
<path d="M42.1673 129.489C41.418 129.995 40.5166 130.227 39.6161 130.144L30.8424 129.334C30.3645 129.319 29.8963 129.196 29.4734 128.973C29.0504 128.75 28.6841 128.433 28.4022 128.047C28.3074 127.908 28.2362 127.755 28.1914 127.592C27.9516 127.857 27.807 128.193 27.7809 128.549C27.7548 128.905 27.8485 129.259 28.0472 129.556C28.3303 129.941 28.6969 130.256 29.1196 130.479C29.5422 130.702 30.0099 130.826 30.4874 130.842L39.2612 131.652C40.1616 131.735 41.063 131.504 41.8123 130.998C42.1033 130.811 42.3263 130.535 42.4482 130.211C42.5701 129.888 42.5844 129.533 42.4889 129.201C42.3922 129.308 42.2844 129.405 42.1673 129.489Z" fill="#F4B545"/>
<path d="M39.2401 114.282L35.1583 113.905L34.0491 122.878C35.5798 121.403 36.9552 121.414 38.1198 123.255L39.2401 114.282Z" fill="#662A33"/>
<path d="M33.8595 114.471C33.8056 114.89 33.8374 115.317 33.953 115.724C34.0687 116.131 34.2657 116.51 34.5322 116.839C34.7987 117.168 35.1291 117.439 35.5034 117.636C35.8778 117.833 36.2883 117.953 36.7101 117.987C37.578 118.063 38.4421 117.803 39.1235 117.26C39.8049 116.717 40.2514 115.933 40.3704 115.07C40.426 114.653 40.3968 114.23 40.2845 113.825C40.1722 113.42 39.9792 113.042 39.7171 112.713C39.4549 112.385 39.1291 112.113 38.7591 111.913C38.3891 111.714 37.9827 111.592 37.5642 111.553C36.689 111.465 35.8136 111.719 35.1225 112.264C34.4314 112.808 33.9786 113.599 33.8595 114.471Z" fill="#FFD15F"/>
<path d="M37.7084 115.269C36.989 115.207 36.3132 114.898 35.7957 114.395C35.2781 113.892 34.9507 113.225 34.8688 112.507C34.3188 113.028 33.9627 113.72 33.8595 114.471C33.8056 114.89 33.8374 115.317 33.953 115.724C34.0687 116.131 34.2657 116.51 34.5322 116.839C34.7987 117.167 35.1291 117.439 35.5034 117.636C35.8778 117.833 36.2883 117.953 36.7101 117.987C37.578 118.063 38.4421 117.803 39.1235 117.26C39.8049 116.717 40.2514 115.933 40.3704 115.07C40.3982 114.819 40.3982 114.566 40.3704 114.315C40.024 114.66 39.6059 114.924 39.1458 115.089C38.6857 115.254 38.1949 115.315 37.7084 115.269Z" fill="#F4B545"/>
<path d="M35.4459 114.615C35.4197 114.83 35.4372 115.049 35.4972 115.257C35.5571 115.466 35.6584 115.66 35.795 115.829C35.9316 115.998 36.1007 116.137 36.2922 116.239C36.4837 116.341 36.6938 116.404 36.91 116.423C37.3554 116.464 37.7994 116.331 38.1489 116.052C38.4984 115.773 38.7262 115.369 38.7845 114.925C38.8059 114.715 38.7851 114.502 38.7234 114.299C38.6617 114.096 38.5602 113.908 38.425 113.745C38.2898 113.582 38.1235 113.447 37.9357 113.349C37.748 113.251 37.5426 113.191 37.3315 113.173C36.8931 113.13 36.4548 113.255 36.1049 113.523C35.755 113.79 35.5195 114.181 35.4459 114.615Z" fill="#843C43"/>
<path d="M6.50692 83.0582H3.60083L18.0647 196.961H19.54L6.50692 83.0582Z" fill="#A33D2F"/>
<path d="M0.961182 79.9414L5.42014 86.8295L8.75882 79.9414L2.41423 58.5783L0.961182 79.9414Z" fill="#F2E1C2"/>
<path d="M7.22822 83.7127H3.15747L3.90063 90.1349H7.97138L7.22822 83.7127Z" fill="#DDC699"/>
<path d="M15.8138 109.779H12.9077L20.2617 196.961H21.7369L15.8138 109.779Z" fill="#A33D2F"/>
<path d="M17.167 129.655L15.8138 109.779H12.9077L15.836 144.485C15.9136 137.697 16.3684 132.44 17.167 129.655Z" fill="#7C271E"/>
<path d="M19.8171 191.138L20.3052 196.961H21.1149C20.6269 195.253 20.1943 193.334 19.8171 191.138Z" fill="#7C271E"/>
<path d="M10.4553 107.394L14.4928 112.663L18.2641 107.394L13.2505 91.0443L10.4553 107.394Z" fill="#F2E1C2"/>
<path d="M16.5014 110.278H12.4307L12.7634 115.192H16.8342L16.5014 110.278Z" fill="#DDC699"/>
<path d="M10.4553 107.394L14.4928 112.662L18.2641 107.394L14.4928 109.113L10.4553 107.394Z" fill="#DDC699"/>
<path d="M37.2756 163.93L10.8435 164.994L15.0806 199.989H35.2125L37.2756 163.93Z" fill="#A33D2F"/>
<path d="M27.7591 194.144C20.4052 194.089 13.8498 181.732 13.2287 165.815C13.2287 165.516 13.2287 165.205 13.2287 164.906L10.8772 164.994L15.1032 200.001H35.2129L35.8785 188.443C33.6601 192.025 30.9093 194.144 27.7591 194.144Z" fill="#872E25"/>
<path d="M36.6004 175.865L36.789 172.459L11.8765 173.502L12.298 176.996L36.6004 175.865Z" fill="#F4B545"/>
<path d="M147.918 144.485L150.669 136.521H26.8049C32.3509 163.564 74.6112 168 79.1922 175.044C88.0658 188.654 48.5895 196.396 48.5895 196.396L140.353 194.466C140.353 194.466 110.405 194.699 109.152 178.272C108.009 163.785 147.918 144.485 147.918 144.485Z" fill="#4F5859"/>
<path d="M55.1675 141.413C55.1675 154.335 67.2244 164.817 82.0876 164.817C96.9508 164.817 108.997 154.335 108.997 141.413C108.999 139.765 108.801 138.122 108.409 136.521H55.7664C55.3703 138.122 55.1692 139.764 55.1675 141.413Z" fill="#5B6768"/>
<path d="M27.8032 140.16C32.8279 140.57 38.5735 140.803 44.6962 140.803C61.8222 140.803 76.1087 138.962 79.3919 136.521H26.8049C27.0523 137.756 27.3859 138.972 27.8032 140.16Z" fill="#6A7777"/>
<path d="M105.259 136.521H61.1021L81.2894 140.77L87.3678 163.708L105.37 162.787L106.734 150.409L115.231 155.91L128.652 151.895L105.259 136.521Z" fill="#3C4242"/>
<path d="M79.1926 175.044C83.1857 181.167 77.3846 186.136 69.7977 189.685C77.8283 188.398 85.3265 183.474 94.9321 183.474C101.798 183.474 109.884 188.055 116.007 188.742C112.269 186.369 109.496 183.019 109.119 178.272C108.01 163.785 147.941 144.485 147.941 144.485L148.595 142.6C137.425 150.364 113.456 155.788 85.6592 155.788C63.797 155.788 44.2863 152.461 31.5305 147.225C44.131 164.95 75.2772 169.054 79.1926 175.044Z" fill="#3C4242"/>
<path d="M202.746 121.614H201.259L205.618 183.207H209.634L202.746 121.614Z" fill="#72675D"/>
<path d="M204.886 172.936L205.618 183.207H209.622L207.848 167.324C207.016 170.363 205.995 172.37 204.886 172.936Z" fill="#5B5046"/>
<path d="M221.436 179.791L194.605 180.335L192.309 182.864L192.408 196.851L193.34 199.379H225.119L226.183 196.618L224.076 182.974L221.436 179.791Z" fill="#72675D"/>
<path d="M197.166 199.379H207.848C209.977 191.249 212.417 184.705 215.179 179.924L205.851 180.113C204.409 185.747 201.259 192.314 197.166 199.379Z" fill="#7F736A"/>
<path d="M197.466 197.083L196.945 180.29L194.605 180.334L192.309 182.863L192.408 196.85L193.34 199.379H225.119L225.995 197.083H197.466Z" fill="#5B5046"/>
<path d="M91.6489 31.0924C87.8998 27.2767 87.2898 20.7769 88.3213 19.0132C89.3529 17.2496 93.4458 16.573 93.4458 16.573C93.4458 16.573 91.305 14.5765 92.9134 12.9792C94.5217 11.382 99.0361 12.0475 99.0361 12.0475C99.0361 12.0475 102.43 19.4902 100.789 23.328C99.1471 27.1658 91.6489 31.0924 91.6489 31.0924Z" fill="#512A28"/>
<path d="M84.1504 43.1827C80.8229 39.0232 80.8229 32.5011 82.0097 30.8484C83.1965 29.1957 87.3006 28.8741 87.3006 28.8741C87.3006 28.8741 85.3484 26.6557 87.1009 25.247C88.8534 23.8383 93.2791 24.9031 93.2791 24.9031C93.2791 24.9031 95.919 32.6675 93.9668 36.3389C92.0146 40.0104 84.1504 43.1827 84.1504 43.1827Z" fill="#512A28"/>
<path d="M113.434 15.4417C118.447 13.2233 120.344 13.7447 121.653 14.8317C122.477 15.4635 123.061 16.3563 123.311 17.3639C123.561 18.3715 123.461 19.4341 123.028 20.3776C123.543 20.2349 124.093 20.2973 124.562 20.5518C125.032 20.8062 125.385 21.2329 125.546 21.7419C126.09 23.5943 123.328 27.2879 123.328 27.2879C123.328 27.2879 115.475 28.0755 113.112 25.5909C110.749 23.1063 113.434 15.4417 113.434 15.4417Z" fill="#512A28"/>
<path d="M131.635 83.9123C150.902 97.866 189.668 117.709 189.668 117.709L199.762 109.413C179.463 90.6451 158.821 47.1758 141.729 37.1154C133.964 32.5455 131.635 83.9123 131.635 83.9123Z" fill="#FFB882"/>
<path d="M138.168 46.2551C136.615 58.5339 131.291 85.1435 131.291 85.1435C150.558 99.0972 189.668 117.709 189.668 117.709L193.861 114.981C185.087 107.25 148.262 72.1326 138.168 46.2551Z" fill="#FF9566"/>
<path d="M140.043 106.518C140.043 99.7849 143.259 86.4856 143.259 86.4856L121.863 67.2522L86.3689 85.443L90.0403 113.583L140.043 106.518Z" fill="#FF9566"/>
<path d="M121.088 90.8004C112.658 90.8004 102.42 97.8438 99.2587 104.965C98.3047 107.183 139.123 103.412 138.946 102.746C137.57 97.0008 130.849 90.8004 121.088 90.8004Z" fill="#FFB882"/>
<path d="M122.518 103.057C122.518 102.724 121.719 102.536 120.732 102.635C119.745 102.735 118.935 103.079 118.935 103.412C118.935 103.745 119.745 103.933 120.732 103.833C121.719 103.733 122.518 103.39 122.518 103.057Z" fill="#FF9566"/>
<path d="M121.541 88.6042C120.92 91.6101 121.319 95.5921 115.529 95.9693C115.529 95.9693 119.023 96.4129 120.809 95.2261C121.863 94.5162 121.541 88.6042 121.541 88.6042Z" fill="#FF9566"/>
<path d="M121.486 88.1494C121.874 91.122 121.253 95.4257 127.032 95.8028C127.032 95.8028 123.527 96.2354 121.852 95.0596C120.754 94.3165 121.486 88.1494 121.486 88.1494Z" fill="#FF9566"/>
<path d="M121.431 92.7636C120.877 96.5792 121.431 101.205 115.641 101.637C115.641 101.637 119.146 102.192 120.899 100.683C121.942 99.8624 121.431 92.7636 121.431 92.7636Z" fill="#FF9566"/>
<path d="M121.431 92.9079C121.896 96.6902 121.353 100.994 127.076 101.471C127.076 101.471 123.594 102.014 121.885 100.517C120.876 99.6407 121.431 92.9079 121.431 92.9079Z" fill="#FF9566"/>
<path d="M142.417 199.379H43.5547L43.0889 195.475L145.856 193.645L142.417 199.379Z" fill="#6A7777"/>
<path d="M171.477 197.272L171.854 196.429C171.854 196.429 173.474 134.957 172.309 132.284C171.144 129.611 152.343 121.847 152.343 121.847C152.343 121.847 150.868 135.601 151.234 137.287C151.6 138.973 171.477 197.272 171.477 197.272Z" fill="#FFB882"/>
<path d="M165.343 164.972C163.546 146.726 165.976 135.179 169.958 130.332C163.657 126.716 152.377 121.847 152.377 121.847C152.377 121.847 150.902 135.601 151.268 137.287C151.634 138.973 172.032 198.991 172.032 198.991L172.298 198.78C168.836 187.777 166.506 176.449 165.343 164.972Z" fill="#FF9566"/>
<path d="M95.5094 131.94C111.338 148.911 135.074 166.414 155.949 147.303C161.34 142.378 168.45 127.925 168.151 126.317C167.851 124.708 148.307 113.927 147.741 113.006C147.176 112.086 143.493 103.944 142.007 104.066C140.521 104.188 92.2706 106.972 89.6972 110.6C70.8409 136.754 60.9802 127.692 61.1022 136.754H90.4626L95.5094 131.94Z" fill="#8E61C1"/>
<path d="M108.92 144.43C132.778 158.772 148.152 146.793 153.032 142.3C153.032 142.3 121.121 160.136 107.123 127.537C105.038 122.679 108.92 144.43 108.92 144.43Z" fill="#6F46AA"/>
<path d="M156.981 144.441C136.106 163.541 112.369 146.038 96.5408 129.068L91.494 133.882H62.1336C62.1336 133.626 62.1336 133.371 62.1336 133.138C61.7302 133.643 61.4304 134.222 61.2515 134.842C61.0726 135.463 61.018 136.113 61.0909 136.754H90.4624L95.5093 131.94C111.337 148.911 135.995 168.866 155.949 147.303C160.53 142.367 167.352 130.132 168.051 126.927C165.899 131.94 160.974 140.792 156.981 144.441Z" fill="#6F46AA"/>
<path d="M122.23 116.334C134.797 116.889 149.272 118.674 162.948 127.426C163.989 128.121 164.76 129.152 165.133 130.347C165.507 131.542 165.46 132.828 165 133.992C166.964 130.199 168.261 126.993 168.106 126.228C167.762 124.62 148.729 113.65 148.141 112.729C149.971 111.742 145.545 103.856 142.207 104.022C149.771 120.66 92.2927 106.884 89.6418 110.511C70.8409 136.754 60.9802 127.692 61.1022 136.754H98.8148L109.663 144.951C106.391 122.756 104.793 115.569 122.23 116.334Z" fill="#6F46AA"/>
<path d="M81.1225 121.78C69.2098 133.515 62.6101 130.254 61.7671 135.623C62.9428 135.689 64.163 135.723 65.4163 135.723C75.3658 135.723 83.6848 124.675 81.1225 121.78Z" fill="#8E61C1"/>
<g style="mix-blend-mode:overlay" opacity="0.65">
<path d="M162.538 122.191C160.054 126.971 156.538 132.639 153.543 135.379C132.657 154.479 119.479 134.569 102.731 117.488C98.6709 113.339 83.8742 118.741 76.7754 124.819C74.4038 126.783 71.7953 128.441 69.011 129.755C79.2267 126.661 94.9994 113.284 101.022 119.895C116.851 136.865 134.165 159.415 155.04 140.304C158.701 136.976 163.137 129.212 165.522 124.132C164.657 123.544 163.636 122.889 162.538 122.191Z" fill="#FFE05C"/>
</g>
<path d="M99.6789 122.313C98.5032 121.203 89.3745 120.782 87.7662 121.88C85.1485 123.71 83.041 129.9 83.163 133.138C83.285 136.377 90.9274 156.975 97.8266 186.38L98.5032 186.269C98.5032 186.269 103.062 142.311 103.306 138.185C103.55 134.059 101.753 124.265 99.6789 122.313Z" fill="#FFB882"/>
<path d="M96.7617 126.738C99.3351 126.738 101.687 131.33 103.284 138.507C103.276 138.389 103.276 138.27 103.284 138.152C103.528 134.07 101.731 124.287 99.7011 122.313C98.5253 121.203 89.3967 120.782 87.7883 121.88C85.1485 123.71 83.041 129.9 83.163 133.138C83.2628 134.958 85.7474 142.378 89.1305 153.814C89.441 138.507 92.6577 126.738 96.7617 126.738Z" fill="#FF9566"/>
<path d="M85.9814 39.0343C78.3945 44.9352 84.2843 87.6946 85.8926 88.8371C87.501 89.9796 113.512 92.2534 119.679 87.8832C122.13 86.1529 123.716 64.3794 122.685 56.8258C122.03 51.9453 116.407 39.4336 105.825 35.9507C99.9572 33.9985 89.0871 36.6384 85.9814 39.0343Z" fill="#FFB882"/>
<path d="M72.4719 111.221C62.2562 94.139 62.3227 52.6884 85.638 46.9761C89.7753 45.9667 97.462 80.2519 92.2932 94.7713C86.3701 111.631 72.4719 111.221 72.4719 111.221Z" fill="#FF9566"/>
<path d="M138.401 38.5684C151.822 48.3182 149.327 84.3005 148.384 85.7091C146.543 88.471 127.853 91.2551 123.837 87.3175C122.728 86.2859 121.076 64.1464 121.885 56.5817C122.407 51.7123 135.639 36.5607 138.401 38.5684Z" fill="#FFB882"/>
<path d="M67.5122 110.666C59.3707 91.5102 62.3212 45.2235 86.3685 38.7902C90.6167 37.681 97.039 72.8647 87.633 91.0998C78.227 109.335 67.5122 110.666 67.5122 110.666Z" fill="#FFB882"/>
<path d="M72.3601 49.3941C60.9686 65.9655 59.9704 96.4239 66.1597 110.954C68.7822 110.385 71.3737 109.682 73.924 108.847C67.8345 94.3719 63.0761 66.7419 72.3601 49.3941Z" fill="#FF9566"/>
<path d="M66.1594 110.954C71.9383 121.758 111.703 118.885 119.678 122.146L125.568 109.845C125.568 109.845 98.681 88.7706 86.369 89.669C74.0569 90.5675 66.1594 110.954 66.1594 110.954Z" fill="#FFB882"/>
<path d="M70.5637 100.018C69.2327 102.647 66.127 110.988 66.127 110.988C71.9059 121.791 111.67 118.919 119.646 122.18C114.333 116.212 74.9894 110.533 70.5637 100.018Z" fill="#FF9566"/>
<path d="M118.791 121.192L124.936 108.037L108.83 98.2653L96.0747 117.754L118.791 121.192Z" fill="#FF9566"/>
<path d="M112.136 32.6675C102.781 32.9929 93.5876 35.1997 85.1045 39.1563C85.6042 40.8089 86.7147 42.209 88.2102 43.0718C88.3323 53.6202 98.315 66.6532 107.943 68.3392C107.943 68.3392 113.788 74.229 126.2 70.5576C138.612 66.8862 138.501 60.3197 138.501 60.3197C138.501 60.3197 144.968 56.1159 145.156 49.128C145.434 39.966 141.008 36.6384 141.008 36.6384C141.008 36.6384 123.294 32.3791 112.136 32.6675Z" fill="#FF9566"/>
<path d="M90.9174 40.4096C91.0284 50.958 100.434 63.9245 109.496 65.5218C109.496 65.5218 115.042 71.3783 126.7 67.596C138.358 63.8136 138.291 57.2694 138.291 57.2694C140.066 56.2203 141.538 54.7283 142.562 52.9395C143.587 51.1506 144.13 49.1263 144.137 47.0648C144.026 40.0658 140.809 36.3943 140.809 36.3943C140.809 36.3943 140.72 32.8338 138.979 31.0924C131.292 23.328 123.816 23.4167 123.816 23.4167C123.816 23.4167 122.163 18.4143 118.425 18.3588C118.425 18.3588 119.18 16.8614 117.316 14.9647C116.179 13.8297 114.704 13.0942 113.112 12.8683L98.2603 14.7207C98.2603 14.7207 94.1341 16.7838 93.6683 18.8912C93.2024 20.9987 95.2433 24.2375 95.2433 24.2375C95.2433 24.2375 89.9635 25.8459 90.6512 30.5489C89.9949 31.0135 89.442 31.6092 89.0277 32.2985C88.6134 32.9877 88.3467 33.7554 88.2443 34.5531C88.1666 37.7475 90.9174 40.4096 90.9174 40.4096Z" fill="#683A36"/>
<path d="M109.296 20.0005C109.807 21.5645 110.406 22.5738 112.191 22.3742C113.644 22.2189 113.034 19.7565 113.034 19.7565L109.296 20.0005Z" fill="#592F2D"/>
<path d="M129.817 25.5465C130.858 25.7421 131.881 26.0203 132.878 26.3784C130.144 24.6765 127.03 23.6781 123.816 23.4723C123.682 23.0923 123.523 22.7218 123.339 22.3631C123.279 23.2242 123.049 24.0649 122.663 24.8366C122.518 25.1139 122.352 25.369 122.186 25.6241C124.696 25.0619 127.296 25.0355 129.817 25.5465Z" fill="#592F2D"/>
<path d="M140.808 36.3944C140.769 35.7145 140.673 35.0391 140.519 34.3756C140.53 34.5159 140.53 34.6568 140.519 34.7971C140.411 35.349 140.192 35.8733 139.876 36.3389C142.272 39.8772 141.662 45.8336 138.146 50.6475C137.206 51.9144 136.085 53.0357 134.818 53.9751C135.196 54.2258 135.517 54.5526 135.762 54.9346C136.006 55.3166 136.168 55.7453 136.238 56.1935C136.548 59.2327 131.147 62.2608 124.181 62.9707C118.934 63.5031 114.298 62.5603 112.191 60.7523C103.539 59.6985 97.0278 55.2063 97.0278 49.9154C97.0278 47.1535 98.7804 44.6357 101.675 42.6946C96.7727 41.5854 93.4784 39.6665 93.4784 37.4148C93.5551 36.7818 93.7878 36.1778 94.1556 35.657C94.5235 35.1362 95.0149 34.7149 95.5859 34.4311C94.9615 33.945 94.4498 33.3294 94.086 32.6267C93.7222 31.924 93.5149 31.1508 93.4784 30.3603C93.4784 28.1419 95.242 26.0567 98.0372 24.6923C96.3443 23.4844 94.8827 21.9815 93.7224 20.2556C94.009 21.6567 94.5222 23.0018 95.242 24.2376C95.242 24.2376 89.9623 25.8459 90.65 30.5489C89.9936 31.0135 89.4408 31.6093 89.0264 32.2985C88.6121 32.9877 88.3454 33.7555 88.243 34.5531C88.1321 37.7698 90.8829 40.4096 90.8829 40.4096C90.9938 50.9581 100.4 63.9246 109.462 65.5218C109.462 65.5218 115.008 71.3784 126.666 67.596C138.323 63.8137 138.257 57.2694 138.257 57.2694C140.031 56.2204 141.503 54.7284 142.528 52.9395C143.552 51.1507 144.095 49.1264 144.102 47.0648C144.047 40.0658 140.808 36.3944 140.808 36.3944Z" fill="#592F2D"/>
<path d="M142.416 45.7227C142.391 46.1639 142.309 46.6001 142.172 47.0204C140.83 50.947 135.051 52.5664 129.272 50.5588C126.878 49.7803 124.729 48.3883 123.039 46.5213C124.381 49.093 126.495 51.1798 129.084 52.4888C134.475 55.3616 140.431 54.7071 142.394 51.0579C142.793 50.2259 143.002 49.3155 143.006 48.3928C143.01 47.47 142.809 46.558 142.416 45.7227Z" fill="#592F2D"/>
<path d="M101.976 57.1918C102.227 57.5249 102.509 57.8332 102.819 58.1124C105.847 60.7412 111.249 60.3308 114.887 57.0919C116.393 55.8243 117.435 54.0918 117.849 52.1671C118.089 54.4398 117.423 56.7154 115.996 58.5006C113.123 62.2719 108.043 63.5031 104.671 61.2625C103.975 60.7965 103.378 60.1967 102.915 59.4978C102.452 58.799 102.133 58.0151 101.976 57.1918Z" fill="#592F2D"/>
<path d="M93.401 27.4321C93.3024 27.7941 93.2466 28.1663 93.2346 28.5413C93.2346 32.3126 97.3054 35.4294 102.108 35.1965C103.94 35.1582 105.705 34.5059 107.122 33.3441C105.916 35.2065 104.049 36.5424 101.897 37.0821C97.0503 38.391 92.3473 36.0284 91.9147 31.9909C91.8391 31.1699 91.9319 30.342 92.1875 29.5581C92.443 28.7742 92.856 28.0508 93.401 27.4321Z" fill="#592F2D"/>
<path d="M97.0833 13.2677C94.277 11.7813 94.8649 10.1508 95.2864 9.14145C95.7079 8.13208 97.5048 8.03226 97.5048 8.03226C97.328 7.56306 97.3035 7.05007 97.4349 6.5662C97.5664 6.08233 97.847 5.65218 98.2368 5.33691C98.7084 5.0435 99.243 4.86634 99.7964 4.82006C100.35 4.77378 100.906 4.85969 101.42 5.0707C101.368 4.47987 101.517 3.88873 101.843 3.39335C102.17 2.89798 102.654 2.52748 103.217 2.34209C104.026 2.11572 104.891 2.20373 105.638 2.58845C106.384 2.97318 106.958 3.62614 107.244 4.41628C107.244 4.41628 109.662 -0.453086 113.4 0.0349601C117.138 0.523006 115.463 5.02634 115.463 5.02634C115.463 5.02634 117.581 3.2849 118.213 6.4572C118.846 9.6295 116.683 13.0347 113.777 12.9904C110.871 12.946 97.0833 13.2677 97.0833 13.2677Z" fill="#683A36"/>
<path d="M111.936 10.0177C111.936 10.0177 107.499 13.2566 104.46 11.1269C101.421 8.99725 104.837 5.73622 104.837 5.73622C104.837 5.73622 102.175 6.33519 103.018 3.22944C103.102 2.91573 103.218 2.61108 103.362 2.3199H103.173C102.61 2.5053 102.126 2.87579 101.799 3.37117C101.473 3.86654 101.324 4.45768 101.376 5.04852C100.863 4.8375 100.306 4.75159 99.7525 4.79788C99.199 4.84416 98.6645 5.02131 98.1929 5.31473C97.8007 5.63074 97.5186 6.06281 97.3871 6.549C97.2556 7.03519 97.2814 7.55054 97.4608 8.02116C97.4608 8.02116 95.7083 8.13208 95.2424 9.13036C94.7766 10.1286 94.2331 11.7702 97.0393 13.2566C97.0393 13.2566 109.407 13.0014 113.178 13.0125C112.733 12.6607 112.385 12.2008 112.168 11.6767C111.95 11.1525 111.87 10.5814 111.936 10.0177Z" fill="#592F2D"/>
<path d="M116.627 14.3436L116.305 12.347L96.0515 12.6022L96.3954 15.8299L116.627 14.3436Z" fill="#FFEBC0"/>
<path d="M115.009 13.5672C114.993 13.9082 114.86 14.2333 114.632 14.4878L116.629 14.3436L116.318 12.347H114.377C114.565 12.4921 114.719 12.6765 114.828 12.8872C114.937 13.098 114.999 13.33 115.009 13.5672Z" fill="#F7CDA9"/>
<path d="M101.542 13.5672C101.562 13.1715 101.733 12.7985 102.019 12.5245L96.0515 12.6022L96.351 15.8299L103.006 15.3419C102.108 14.8538 101.542 14.2438 101.542 13.5672Z" fill="#F7CDA9"/>
<path d="M104.66 19.3904L111.737 20.3554L115.686 18.8913C115.686 18.8913 115.508 16.3401 114.577 16.6174C111.483 17.2494 108.309 17.3953 105.171 17.05C104.35 16.9613 104.66 19.3904 104.66 19.3904Z" fill="#FFB882"/>
<path d="M104.904 17.9818C106.59 18.1814 110.317 18.6916 111.371 17.3162C111.943 17.6303 112.578 17.814 113.23 17.8542C113.882 17.8945 114.535 17.7903 115.142 17.5492C115.24 17.5211 115.344 17.5211 115.441 17.5492C115.275 16.9946 114.998 16.4954 114.554 16.6285C111.46 17.2605 108.287 17.4064 105.148 17.0611C104.782 17.0611 104.649 17.527 104.616 18.0705C104.655 18.0361 104.701 18.0103 104.75 17.995C104.8 17.9797 104.853 17.9752 104.904 17.9818Z" fill="#FF9566"/>
<path d="M100.223 18.1814C99.8571 16.196 97.2726 16.4067 96.9953 17.5048C96.718 18.6029 98.038 21.4092 99.2137 20.5218C99.5944 20.2751 99.8933 19.9211 100.073 19.5045C100.253 19.088 100.305 18.6276 100.223 18.1814Z" fill="#FFB882"/>
<path d="M146.421 84.4447C146.321 84.0121 145.401 83.8679 144.358 84.123C143.315 84.3781 142.572 84.9327 142.672 85.3653C142.772 85.7979 143.704 85.931 144.746 85.687C145.789 85.443 146.532 84.8773 146.421 84.4447Z" fill="#FF9566"/>
<path d="M99.9683 87.6613C99.9683 87.2177 99.1253 86.8405 98.0604 86.8073C96.9956 86.774 96.1194 87.1178 96.1083 87.5615C96.0972 88.0052 96.9513 88.3823 98.0161 88.4156C99.0809 88.4489 99.9572 88.0939 99.9683 87.6613Z" fill="#FF9566"/>
<path d="M99.68 18.492C99.4249 17.2386 97.6502 17.3828 97.4616 18.0594C97.2731 18.736 98.1826 20.5218 98.9923 19.9561C99.2481 19.8173 99.4528 19.6004 99.5766 19.337C99.7003 19.0735 99.7365 18.7775 99.68 18.492Z" fill="#EA7B59"/>
<path d="M99.6791 19.0799C99.5017 18.2036 98.2594 18.3034 98.1152 18.7804C97.971 19.2573 98.6254 20.4996 99.2244 20.1114C99.3987 20.0088 99.5364 19.8541 99.6181 19.669C99.6997 19.4838 99.721 19.2778 99.6791 19.0799Z" fill="#FFB882"/>
<path d="M67.9792 199.379H106.213L112.103 194.244L73.0705 194.943L67.9792 199.379Z" fill="#869392"/>
<path d="M195.481 180.323L196.324 199.379H198.853L198.01 180.268L195.481 180.323Z" fill="#FFC152"/>
<path d="M218.086 179.858L218.952 199.379H221.469L220.604 179.813L218.086 179.858Z" fill="#FFC152"/>
<path d="M201.548 120.76C201.217 120.852 200.928 121.054 200.726 121.332C200.525 121.61 200.423 121.948 200.438 122.29L201.004 136.178C201.014 136.393 201.069 136.604 201.166 136.796C201.264 136.989 201.401 137.158 201.569 137.294C201.736 137.429 201.931 137.527 202.14 137.581C202.349 137.636 202.566 137.645 202.779 137.608L204.132 137.387C204.521 137.318 204.869 137.103 205.102 136.784C205.336 136.466 205.437 136.07 205.386 135.678L203.444 122.046C203.418 121.831 203.346 121.623 203.233 121.438C203.12 121.252 202.969 121.093 202.789 120.971C202.609 120.849 202.405 120.767 202.191 120.731C201.977 120.694 201.758 120.704 201.548 120.76Z" fill="#FFE05C"/>
<path d="M128.353 40.4873C132.479 32.7229 141.419 38.879 141.419 38.879L140.509 35.5514C139.378 34.8029 138.103 34.2996 136.766 34.0742C135.428 33.8488 134.059 33.9061 132.745 34.2425C129.806 35.0522 128.353 40.4873 128.353 40.4873Z" fill="#592F2D"/>
<path d="M111.326 17.2829C111.067 18.2806 110.914 19.3032 110.872 20.3332C110.872 20.3332 111.482 21.9637 112.591 21.9415C114.177 21.9415 113.933 19.5457 113.068 18.7249C112.527 18.1983 111.945 17.7161 111.326 17.2829Z" fill="#FFB882"/>
<path d="M113.068 18.7249C112.527 18.1983 111.945 17.7161 111.326 17.2829C111.326 17.416 111.326 17.527 111.249 17.6379C111.537 17.8708 111.903 18.1814 112.358 18.5807C113.19 19.3682 113.467 21.5977 112.047 21.7863C112.222 21.8898 112.421 21.9435 112.624 21.9415C114.177 21.9194 113.933 19.5457 113.068 18.7249Z" fill="#EA7B59"/>
<path d="M96.4413 14.4545L96.2083 13.7668C90.3074 16.2625 92.426 25.5243 92.7698 29.0182C93.1137 32.5122 87.6121 35.7843 87.6121 35.7843L92.6589 39.9105C92.6589 39.9105 96.2083 35.0966 95.7535 29.595C95.2988 24.0934 90.8065 17.2386 96.4413 14.4545Z" fill="#F7CDA9"/>
<path d="M95.5096 15.1755C96.1222 15.1755 96.6188 14.7037 96.6188 14.1217C96.6188 13.5398 96.1222 13.068 95.5096 13.068C94.897 13.068 94.4004 13.5398 94.4004 14.1217C94.4004 14.7037 94.897 15.1755 95.5096 15.1755Z" fill="#F7CDA9"/>
<path d="M87.6121 35.7621L92.6589 39.8883C92.6589 39.8883 96.2083 35.0744 95.7535 29.5728C95.5193 27.6914 95.1147 25.8351 94.5445 24.0269C94.0004 22.9911 93.1632 22.1385 92.1376 21.5755C92.1831 24.0456 92.3944 26.5099 92.7698 28.9517C93.1137 32.49 87.6121 35.7621 87.6121 35.7621Z" fill="#FFEBC0"/>
<path d="M95.1537 14.3879L95.2424 13.8444C88.8202 12.9349 86.7792 19.7121 85.5924 22.0747C84.4056 24.4372 78.0166 24.1821 78.0166 24.1821L80.8229 28.9517C80.8229 28.9517 86.1026 27.3988 88.0548 23.7052C90.007 20.0116 88.8645 13.7779 95.1537 14.3879Z" fill="#F7CDA9"/>
<path d="M78.0166 24.1822L80.8229 28.9517C80.8229 28.9517 86.1026 27.3988 88.0548 23.7052C88.6275 22.424 89.0482 21.0801 89.3082 19.701C89.2285 18.7421 88.8392 17.835 88.199 17.1166C87.1922 18.6894 86.3273 20.3486 85.6146 22.0747C84.4056 24.4373 78.0166 24.1822 78.0166 24.1822Z" fill="#FFEBC0"/>
<path d="M183.48 199.379H170.557C170.557 199.379 169.947 194.943 172.088 194.333C174.229 193.723 183.48 199.379 183.48 199.379Z" fill="#FFB882"/>
<path d="M100.134 197.117C102.574 196.973 100.056 193.301 100.056 184.805C100.056 184.139 99.3909 182.464 98.3371 182.531C97.2834 182.597 97.2279 183.019 96.7621 184.05C96.2962 185.082 95.2979 190.506 96.2297 193.301C96.7621 194.887 99.1468 197.039 100.134 197.117Z" fill="#FFB882"/>
<path d="M195.481 180.323L195.903 189.707C196.713 189.996 197.567 190.262 198.454 190.506L198.01 180.268L195.481 180.323Z" fill="#FFE05C"/>
<path d="M218.086 179.858L218.586 191.105C219.44 190.938 220.272 190.75 221.081 190.528L220.604 179.813L218.086 179.858Z" fill="#FFE05C"/>
<path d="M196.934 196.24C196.932 196.349 196.962 196.455 197.021 196.546C197.08 196.637 197.165 196.709 197.265 196.751C197.364 196.794 197.474 196.806 197.581 196.785C197.687 196.764 197.785 196.712 197.862 196.636C197.939 196.559 197.991 196.461 198.011 196.355C198.032 196.248 198.02 196.138 197.978 196.038C197.935 195.938 197.864 195.854 197.773 195.795C197.682 195.736 197.575 195.706 197.467 195.708C197.325 195.708 197.19 195.764 197.09 195.864C196.99 195.964 196.934 196.099 196.934 196.24Z" fill="#5B5046"/>
<path d="M196.179 182.054C196.177 182.162 196.207 182.269 196.266 182.36C196.325 182.451 196.41 182.522 196.51 182.565C196.609 182.607 196.72 182.619 196.826 182.598C196.933 182.578 197.03 182.526 197.107 182.449C197.184 182.372 197.236 182.275 197.256 182.168C197.277 182.062 197.265 181.951 197.223 181.852C197.18 181.752 197.109 181.667 197.018 181.608C196.927 181.549 196.82 181.519 196.712 181.521C196.571 181.524 196.438 181.581 196.338 181.68C196.239 181.78 196.182 181.913 196.179 182.054Z" fill="#5B5046"/>
<path d="M219.572 196.007C219.572 196.113 219.603 196.216 219.662 196.303C219.721 196.391 219.804 196.459 219.901 196.499C219.998 196.54 220.105 196.55 220.209 196.53C220.312 196.509 220.407 196.458 220.481 196.384C220.556 196.309 220.606 196.215 220.627 196.111C220.647 196.008 220.637 195.901 220.597 195.804C220.556 195.706 220.488 195.623 220.4 195.565C220.313 195.506 220.21 195.475 220.105 195.475C219.963 195.475 219.828 195.531 219.728 195.631C219.628 195.731 219.572 195.866 219.572 196.007Z" fill="#5B5046"/>
<path d="M218.808 181.832C218.81 181.937 218.843 182.039 218.903 182.125C218.963 182.211 219.047 182.277 219.144 182.316C219.241 182.354 219.348 182.363 219.451 182.342C219.553 182.32 219.647 182.268 219.72 182.193C219.794 182.119 219.843 182.024 219.863 181.921C219.883 181.818 219.871 181.711 219.831 181.615C219.79 181.518 219.722 181.435 219.635 181.377C219.547 181.319 219.445 181.288 219.34 181.288C219.269 181.288 219.199 181.303 219.134 181.33C219.068 181.357 219.009 181.398 218.96 181.448C218.91 181.499 218.871 181.559 218.845 181.625C218.819 181.691 218.806 181.761 218.808 181.832Z" fill="#5B5046"/>
<path d="M19.3515 196.285L16.2568 167.257L20.0836 185.725L19.3515 196.285Z" fill="#872E25"/>
<path d="M30.355 196.784L32.8839 167.29L33.1391 186.169L30.355 196.784Z" fill="#872E25"/>
<path d="M23.8219 196.784L23.7109 177.04L26.8056 196.972L23.8219 196.784Z" fill="#872E25"/>
<path d="M124.083 112.596C124.959 114.16 134.209 116.667 138.68 116.6C142.761 116.6 142.429 110.644 138.003 108.592C136.051 107.693 129.129 106.584 126.689 107.083C124.249 107.582 124.083 112.596 124.083 112.596Z" fill="#FF9566"/>
<path d="M129.628 116.645C130.448 118.275 135.063 120.46 139.255 120.738C143.082 120.982 144.18 115.192 142.683 113.672C141.185 112.152 134.408 111.01 132.079 111.332C129.75 111.653 129.628 116.645 129.628 116.645Z" fill="#FF9566"/>
<path d="M126.666 121.569C127.276 123.1 131.635 125.019 135.761 125.396C139.887 125.773 142.183 120.815 140.885 119.362C139.588 117.909 132.167 116.301 129.793 116.6C127.42 116.9 126.666 121.569 126.666 121.569Z" fill="#FF9566"/>
<path d="M123.682 125.929C124.292 127.459 128.651 129.378 132.777 129.755C136.903 130.132 139.2 125.163 137.902 123.71C136.604 122.257 129.183 120.66 126.81 120.959C124.436 121.259 123.682 125.929 123.682 125.929Z" fill="#FF9566"/>
<path d="M125.447 107.815C129.34 107.815 140.443 110.566 142.085 112.707C143.726 114.848 137.57 127.77 133.134 128.69C130.915 129.145 121.021 125.496 119.302 123.71C117.583 121.924 125.447 107.815 125.447 107.815Z" fill="#FFB882"/>
<path d="M121.22 121.492L126.434 110.633C126.784 109.917 126.85 109.095 126.62 108.332C126.389 107.568 125.879 106.921 125.191 106.518L111.548 98.2319L99.6799 121.813L116.318 124.032C117.299 124.186 118.304 124.023 119.186 123.566C120.068 123.109 120.781 122.383 121.22 121.492Z" fill="#72675D"/>
<path d="M116.728 114.382C112.557 114.425 108.408 113.757 104.461 112.408L99.6799 121.814L117.56 124.265C118.197 124.352 118.845 124.234 119.411 123.929C119.977 123.624 120.432 123.147 120.71 122.568L125.047 113.55C122.312 114.121 119.523 114.4 116.728 114.382Z" fill="#5B5046"/>
<path d="M101.908 122.113L104.626 122.49L115.596 100.706L113.366 99.3523L101.908 122.113Z" fill="#FFE05C"/>
<path d="M106.334 113.306L101.908 122.113L104.626 122.49L109.041 113.716L106.334 113.306Z" fill="#FFC152"/>
<path d="M117.027 122.113C117.027 122.332 117.092 122.547 117.214 122.729C117.336 122.912 117.509 123.054 117.712 123.138C117.915 123.222 118.138 123.244 118.353 123.201C118.568 123.158 118.765 123.052 118.921 122.897C119.076 122.742 119.181 122.544 119.224 122.329C119.267 122.114 119.245 121.891 119.161 121.688C119.077 121.486 118.935 121.313 118.753 121.191C118.57 121.069 118.356 121.004 118.136 121.004C117.842 121.004 117.56 121.121 117.352 121.329C117.144 121.537 117.027 121.819 117.027 122.113Z" fill="#FFE05C"/>
<path d="M123.306 109.335C123.306 109.554 123.371 109.769 123.493 109.951C123.615 110.134 123.788 110.276 123.991 110.36C124.193 110.444 124.416 110.466 124.631 110.423C124.847 110.38 125.044 110.275 125.199 110.119C125.355 109.964 125.46 109.767 125.503 109.551C125.546 109.336 125.524 109.113 125.44 108.911C125.356 108.708 125.214 108.535 125.031 108.413C124.849 108.291 124.634 108.226 124.415 108.226C124.121 108.226 123.839 108.343 123.631 108.551C123.423 108.759 123.306 109.041 123.306 109.335Z" fill="#FFE05C"/>
<path d="M190.633 119.506C197.665 124.941 198.286 124.098 200.494 124.864C202.701 125.629 202.024 132.972 204.243 134.192C206.461 135.412 208.524 134.425 208.602 132.817C208.679 131.208 207.603 122.335 205.463 119.662C203.322 116.988 201.791 112.097 198.741 111.897C195.691 111.697 190.633 119.506 190.633 119.506Z" fill="#FFB882"/>
<path d="M191.076 118.985L199.551 110.333L189.601 98.1876L174.172 109.978L191.076 118.985Z" fill="#FF9566"/>
<path d="M192.908 119.894L200.029 112.796C200.491 112.33 200.764 111.71 200.797 111.055C200.829 110.4 200.619 109.756 200.206 109.246L191.743 98.9529L175.893 114.193L188.416 120.593C189.142 120.965 189.968 121.098 190.775 120.973C191.582 120.847 192.328 120.47 192.908 119.894Z" fill="#72675D"/>
<path d="M191.343 113.051C188.052 111.933 184.975 110.26 182.248 108.104L175.915 114.193L189.225 121.037C189.701 121.284 190.244 121.373 190.774 121.291C191.305 121.21 191.795 120.961 192.175 120.582L198.087 114.681C195.788 114.38 193.527 113.833 191.343 113.051Z" fill="#5B5046"/>
<path d="M177.544 115.025L179.585 116.079L194.249 101.981L192.862 100.295L177.544 115.025Z" fill="#FFE05C"/>
<path d="M183.467 109.335L177.544 115.025L179.585 116.079L185.486 110.4L183.467 109.335Z" fill="#FFC152"/>
<path d="M189.446 119.218C189.385 119.396 189.377 119.588 189.425 119.77C189.473 119.953 189.573 120.117 189.714 120.242C189.855 120.367 190.029 120.448 190.216 120.474C190.402 120.5 190.592 120.47 190.762 120.389C190.932 120.307 191.073 120.177 191.169 120.014C191.265 119.852 191.311 119.665 191.3 119.477C191.29 119.289 191.225 119.108 191.112 118.958C190.999 118.807 190.844 118.693 190.666 118.63C190.548 118.588 190.422 118.57 190.296 118.577C190.17 118.584 190.047 118.615 189.934 118.67C189.82 118.724 189.719 118.801 189.635 118.895C189.552 118.989 189.487 119.099 189.446 119.218Z" fill="#FFE05C"/>
<path d="M197.909 110.954C197.848 111.132 197.84 111.325 197.888 111.507C197.936 111.689 198.036 111.853 198.177 111.978C198.317 112.104 198.492 112.184 198.679 112.21C198.865 112.237 199.055 112.207 199.225 112.125C199.395 112.043 199.536 111.913 199.632 111.751C199.728 111.589 199.774 111.402 199.763 111.214C199.753 111.026 199.687 110.845 199.575 110.694C199.462 110.543 199.307 110.429 199.129 110.367C198.889 110.285 198.627 110.301 198.399 110.411C198.17 110.521 197.995 110.716 197.909 110.954Z" fill="#FFE05C"/>
<path d="M108.786 18.1813C108.786 17.9151 108.353 18.0704 107.754 18.0704C107.155 18.0704 106.645 17.9151 106.645 18.1813C106.645 18.4475 107.133 18.6694 107.754 18.6694C108.375 18.6694 108.786 18.4586 108.786 18.1813Z" fill="#512A28"/>
<path d="M114.808 17.7821C114.808 17.5159 114.409 17.6934 113.855 17.7821C113.3 17.8708 112.745 17.7045 112.745 17.9707C112.745 18.2369 113.189 18.4254 113.744 18.3922C114.298 18.3589 114.808 18.0483 114.808 17.7821Z" fill="#512A28"/>
</svg>
