<svg width="132" height="200" viewBox="0 0 132 200" fill="none" xmlns="http://www.w3.org/2000/svg">
<path d="M117.495 35.4103C118.143 34.1245 118.943 33.5625 120.029 33.5911C121.115 33.6197 123.21 33.0577 123.61 33.3244C124.01 33.5911 121.505 33.8864 120.676 34.4769C119.733 35.0998 118.625 35.425 117.495 35.4103Z" fill="#FF9566"/>
<path d="M41.7335 112.382C41.5334 112.134 41.0477 112.201 40.6381 112.524C40.2286 112.848 40.0762 113.334 40.2762 113.582C40.4762 113.829 40.962 113.763 41.3715 113.429C41.7811 113.096 41.9049 112.667 41.7335 112.382Z" fill="#FF9566"/>
<path d="M42.1239 113.648C41.9238 113.401 41.4381 113.467 41.038 113.801C40.638 114.134 40.4666 114.601 40.6666 114.848C40.8666 115.096 41.3619 115.029 41.7619 114.696C42.1619 114.363 42.3239 113.896 42.1239 113.648Z" fill="#FF9566"/>
<path d="M41.3904 111.172C41.1904 110.924 40.6951 110.991 40.2951 111.315C39.895 111.639 39.7331 112.125 39.9331 112.372C40.1332 112.62 40.6189 112.553 41.0189 112.22C41.419 111.886 41.5904 111.429 41.3904 111.172Z" fill="#FF9566"/>
<path d="M10.6381 192.105C7.39048 192.505 0 200.001 0 200.001H25.8C25.8 200.001 13.8857 191.715 10.6381 192.105Z" fill="#EABF7A"/>
<path d="M69.0857 37.6197C70.1333 77.0863 65.9333 93.153 63.5904 99.753C61.4571 105.782 57.9333 115.886 57.9333 115.886C57.9333 115.886 56.1904 78.0197 55.8666 64.6768C55.4476 48.8292 69.0857 37.6197 69.0857 37.6197Z" fill="#F48938"/>
<path d="M113.581 38.6958C118.505 65.9816 117.59 89.9816 103.009 90.372C88.4284 90.7625 78.4855 78.3625 75.9236 63.8101C73.3617 49.2578 88.5712 42.1244 88.5712 42.1244C88.5712 42.1244 88.8664 65.9339 102.543 71.2768C110.876 74.5149 110.79 60.0482 110.238 49.6101C109.638 39.0482 113.581 38.6958 113.581 38.6958Z" fill="#F9C553"/>
<path d="M108.171 69.6482C111.648 66.4673 111.495 56.3625 111.086 48.5244C110.819 43.4292 111.59 40.7244 112.457 39.2673C111.343 40.2197 109.838 42.7816 110.2 49.6101C110.571 56.7054 110.733 65.6578 108.171 69.6482Z" fill="#F48938"/>
<path d="M103.895 89.2958C89.3237 89.6863 79.3713 77.2768 76.819 62.7054C76.3576 60.2053 76.4403 57.6352 77.0616 55.17C77.6828 52.7049 78.8279 50.4025 80.419 48.4197C78.5319 50.4636 77.1441 52.9168 76.3641 55.587C75.5842 58.2573 75.4335 61.0719 75.9237 63.8101C78.4856 78.3816 88.438 90.7911 103.009 90.3911C104.694 90.3797 106.352 89.9647 107.843 89.181C109.334 88.3972 110.616 87.2674 111.581 85.8863C110.605 86.9546 109.418 87.8091 108.095 88.396C106.772 88.9828 105.342 89.2892 103.895 89.2958Z" fill="#F48938"/>
<path d="M102.857 72.2578C111.19 75.4958 111.105 61.0292 110.552 50.5911C110.076 41.4863 112.905 39.972 113.724 39.7339C113.657 39.3816 113.6 39.0482 113.543 38.6958C113.543 38.6958 109.6 39.0006 110.162 49.6101C110.714 60.0863 110.514 74.153 102.181 70.9054C97.1428 68.9435 94.2095 64.7625 92.1523 59.8863C94.1809 65.1625 97.4952 70.153 102.857 72.2578Z" fill="#F48938"/>
<path d="M76.3238 64.7625C73.9904 51.5054 86.3428 44.4387 88.5714 43.2768C88.5714 42.5435 88.5238 42.1244 88.5238 42.1244C88.5238 42.1244 73.3333 49.2101 75.9238 63.8101C76.4479 66.748 77.2844 69.6214 78.419 72.3816C77.479 69.9146 76.7774 67.3632 76.3238 64.7625Z" fill="#F48938"/>
<path d="M109.848 64.6863C110.783 64.088 111.898 63.8353 113 63.972C113.661 64.1066 114.288 64.3713 114.846 64.7506C115.403 65.1299 115.88 65.6163 116.248 66.1816C116.228 56.9561 115.335 47.7532 113.581 38.6958C113.581 38.6958 109.638 39.0006 110.2 49.6101C110.476 54.4958 110.61 60.2577 109.848 64.6863Z" fill="#F48938"/>
<path d="M99.7808 86.1339C100.496 81.1247 101.977 76.2551 104.171 71.6958C103.6 71.6274 103.04 71.4866 102.505 71.2768C88.8284 65.953 88.5713 42.1244 88.5713 42.1244C88.5713 42.1244 73.3332 49.2101 75.9237 63.8101C78.2665 77.1435 86.7522 88.572 99.2856 90.2101C99.3998 88.8578 99.5618 87.5054 99.7808 86.1339Z" fill="#F48938"/>
<path d="M61.3427 40.8387C52.4284 61.2958 45.057 104.277 42.6475 110.162L43.2284 110.858C43.2284 110.858 66.0856 64.2958 67.9903 53.7816C69.8951 43.2673 61.3427 40.8387 61.3427 40.8387Z" fill="#FFB882"/>
<path d="M42.857 109.639C42.7903 109.829 42.7237 110.02 42.657 110.163L43.238 110.858L43.3999 110.525C43.2094 110.239 43.0284 109.944 42.857 109.639Z" fill="#FF9566"/>
<path d="M61.3429 40.8387C59.1873 45.9966 57.3427 51.2791 55.8191 56.6577C58.6762 58.8577 61.0858 63.0577 62.7334 68.5149C65.4381 62.0673 67.4953 56.6197 68.0191 53.7816C70.0096 43.2673 61.3429 40.8387 61.3429 40.8387Z" fill="#FF9566"/>
<path d="M61.3429 40.8387C61.2381 41.0958 61.1238 41.3625 61.0095 41.6197C63.4286 42.9816 64.9524 47.0197 63.5524 54.4292C62.0286 62.5149 43.3619 109.562 42.9619 110.543L43.2286 110.858C43.2286 110.858 66.6667 64.7625 68.6762 54.2863C70.6857 43.8101 61.3429 40.8387 61.3429 40.8387Z" fill="#FF9566"/>
<path d="M120.286 32.6958C110.533 39.8101 101.238 54.6006 101.238 54.6006C101.238 54.6006 102.962 63.0006 105.4 63.0006C107.838 63.0006 114.571 39.1911 121.029 33.4006L120.286 32.6958Z" fill="#FFB882"/>
<path d="M120.286 32.6958C117.835 34.5331 115.552 36.5857 113.467 38.8292C109.143 47.8006 105.352 59.0482 103.648 59.0482C103.374 59.0761 103.098 59.0298 102.848 58.9142C102.598 58.7985 102.384 58.6179 102.229 58.3911C102.962 60.6292 104.067 63.0387 105.371 63.0387C107.809 63.0387 114.543 39.2292 121 33.4387L120.286 32.6958Z" fill="#FF9566"/>
<path d="M111.067 50.2396L113.619 43.0675C113.067 41.3435 112.486 40.2768 111.972 40.6768C109.219 42.8389 108.866 45.0772 108.99 50.2015C109.676 50.0581 110.386 50.0712 111.067 50.2396Z" fill="#FF9566"/>
<path d="M82.5238 35.9054C95.2285 43.7816 102.324 52.8578 103.6 54.953C104.876 57.0482 107.543 63.6197 104.886 62.9244C102.229 62.2292 83.9619 52.2959 82.6857 50.4768C81.4095 48.6578 82.5238 35.9054 82.5238 35.9054Z" fill="#FFB882"/>
<path d="M104.762 57.953C102.048 57.0006 87.8096 41.5435 83.6762 38.1816C83.6762 41.0387 82.1239 49.6101 82.6572 50.4292C83.9334 52.3339 102.191 62.2101 104.857 62.8958C106.638 63.3625 106.819 60.8006 105.81 58.2673C105.781 58.2577 104.895 57.9816 104.762 57.953Z" fill="#FF9566"/>
<path d="M64.7048 38.8673C68.9334 33.9435 72.381 32.0768 73.6667 31.7816C74.9524 31.4863 81.2191 35.7435 82.4953 37.1149C83.7715 38.4863 91.2953 47.0482 91.4858 49.1149C91.6763 51.1816 73.0763 50.7911 69.8191 48.2292C66.562 45.6673 64.7048 38.8673 64.7048 38.8673Z" fill="#FFB882"/>
<path d="M87.0952 38.9435L85.2857 37.5625L74.1238 47.6197L79.1143 49.9244C79.1143 49.9244 85.0381 43.6197 87.0952 38.9435Z" fill="#FF9566"/>
<path d="M95.2382 180.877C106.267 177.267 107.057 174.667 105.248 165.972C103.248 156.324 94.181 144.439 94.181 144.439C83.9715 145.715 31.5811 200.001 31.5811 200.001H112.067C110.629 191.315 92.0763 181.905 95.2382 180.877Z" fill="#E5A457"/>
<path d="M97.0572 183.696C95.2572 182.201 94.3334 181.182 95.2668 180.839C106.295 177.229 107.086 174.629 105.276 165.934C103.276 156.286 94.2096 144.401 94.2096 144.401C83.9715 145.715 31.5811 200.001 31.5811 200.001H81.1525C112.381 200.001 110.105 197.029 97.0572 183.696Z" fill="#AF5528"/>
<path d="M83.5142 99.4673C78.1903 124.229 63.1618 166.439 53.038 199.982H52.5427L67.5522 107.82L83.5142 99.4673Z" fill="#FFB882"/>
<path d="M77.9333 84.4958C79.6953 110.477 84.2191 163.001 87.9143 200.001H88.4381C90.9905 159.677 92.5524 117.363 93.7524 93.2578L77.9333 84.4958Z" fill="#FFB882"/>
<path d="M90.6381 160.648C91.9714 133.982 92.9429 109.496 93.7524 93.2387L77.9333 84.4958C79.3429 105.239 82.5048 142.867 85.5524 176.029C86.781 168.867 88.6476 163.21 90.6381 160.648Z" fill="#FF9566"/>
<path d="M8.4668 200.001H39.6573C52.8573 195.353 58.4382 178.734 68.343 175.972C68.343 175.972 81.8287 153.81 93.5525 147.401C93.5525 147.401 104.981 161.82 105.372 167.163C105.372 167.163 101.143 115.334 95.2382 104.182C89.5239 93.3435 70.7811 90.9339 50.5716 127.039C50.4763 133.991 37.9144 141.905 33.4192 183.81C15.6097 191.163 17.6668 197.143 8.4668 200.001Z" fill="#FFDC9F"/>
<path d="M34.8665 172.115C41.6474 160.401 59.5522 155.41 59.5522 155.41L56.7712 147.62C56.7712 147.62 39.3903 153.791 36.9331 160.782C34.476 167.772 34.8665 172.115 34.8665 172.115Z" fill="#EFAC41"/>
<path d="M101.114 129.524C87.5239 130.524 67.3144 149.524 63.0667 165.982C62.4197 168.482 61.9739 171.029 61.7334 173.601C62.981 173.705 64.2763 173.867 65.6001 174.086C66.9239 174.305 67.981 174.543 69.1048 174.82C72.1048 170.362 83.4763 154.096 93.5525 148.601C93.5525 148.601 104.981 161.839 105.371 167.182C105.371 167.162 105.248 147.134 101.114 129.524Z" fill="#FFEFAE"/>
<path d="M95.2379 129.524C95.2379 129.524 95.4951 141.401 93.6951 149.934L96.2951 152.791C97.0199 145.024 96.6641 137.194 95.2379 129.524Z" fill="#FFDC9F"/>
<path d="M66.3714 175.239C59.0857 172.382 47.1048 176.705 36.8476 184.42C31.4165 188.397 26.9908 193.589 23.9238 199.582H39.3524C51.6286 195.239 57.4095 178.553 66.3714 175.239Z" fill="#FFEFAE"/>
<path d="M83.6096 16.6387C83.6096 16.6387 85.962 14.1339 82.3144 12.1149C82.0858 11.9911 81.8668 11.8863 81.6477 11.7911V11.6958C81.5029 10.5977 80.9484 9.59487 80.0953 8.88838C79.2422 8.18189 78.1536 7.82396 77.0477 7.88632C77.0477 7.88632 77.5525 5.21966 74.0954 5.36251C73.2415 5.39855 72.4045 5.61265 71.6382 5.99108C71.4996 5.94061 71.3559 5.90548 71.2096 5.88632C70.6018 5.7843 69.979 5.8167 69.385 5.98124C68.791 6.14578 68.2403 6.43846 67.7715 6.8387C67.2473 6.6715 66.6865 6.65611 66.1539 6.79431C65.6214 6.93251 65.1388 7.21866 64.762 7.61966C63.8979 8.54281 63.371 9.73087 63.2668 10.9911C63.2668 10.9911 60.9525 10.8863 60.8573 14.4197C60.8293 15.1547 60.9865 15.885 61.3144 16.5435C60.8448 16.8899 60.4925 17.3718 60.3049 17.9244C59.9006 19.3016 59.9406 20.7712 60.4192 22.1244C60.4192 22.1244 58.1049 22.9435 59.6858 26.6006C60.0178 27.5698 60.6709 28.3965 61.5369 28.9438C62.4029 29.4911 63.4299 29.7262 64.4477 29.6101C64.4477 29.6101 64.362 31.8768 67.362 31.5149C67.9177 31.4575 68.4609 31.3129 68.9715 31.0863C70.4072 31.5499 71.9649 31.4546 73.3334 30.8197C73.9392 31.2012 74.6367 31.4123 75.3524 31.4307C76.0681 31.4491 76.7755 31.2742 77.4001 30.9244C78.9131 30.0443 80.1122 28.712 80.8287 27.1149C80.8287 27.1149 83.8858 27.972 85.6954 23.3054C87.6192 18.4958 83.6096 16.6387 83.6096 16.6387Z" fill="#843D44"/>
<path d="M85.0001 19.6292C84.726 20.1224 84.3757 20.5692 83.962 20.953C81.743 23.0101 80.4668 21.1435 80.4668 21.1435C79.7163 21.8303 78.7559 22.2435 77.7411 22.3161C76.7264 22.3888 75.7169 22.1165 74.8763 21.5435C71.4192 19.5435 72.8001 17.5149 72.8001 17.5149C71.6049 16.7211 70.6941 15.5667 70.2001 14.2197C70.0183 13.6627 70.0183 13.0623 70.2001 12.5054C69.3144 12.9244 67.8573 13.0292 67.343 12.3054C65.2858 9.44824 68.3811 6.72443 68.2954 6.59109C68.115 6.70562 67.9432 6.83293 67.7811 6.97205C67.2677 6.78639 66.7125 6.74866 66.1787 6.86316C65.645 6.97766 65.1541 7.23979 64.762 7.61967C63.8979 8.54282 63.371 9.73088 63.2668 10.9911C63.2668 10.9911 60.9525 10.8863 60.8573 14.4197C60.8293 15.1547 60.9865 15.885 61.3144 16.5435C60.8448 16.8899 60.4925 17.3718 60.3049 17.9244C59.9006 19.3016 59.9406 20.7712 60.4192 22.1244C60.4192 22.1244 58.1049 22.9435 59.6858 26.6006C60.0178 27.5698 60.6709 28.3965 61.5369 28.9438C62.4029 29.4911 63.4299 29.7262 64.4477 29.6101C64.4477 29.6101 64.362 31.8768 67.362 31.5149C67.9177 31.4575 68.4609 31.3129 68.9715 31.0863C70.4072 31.5499 71.9649 31.4546 73.3334 30.8197C73.9392 31.2012 74.6367 31.4123 75.3524 31.4307C76.0681 31.4492 76.7755 31.2742 77.4001 30.9244C78.9131 30.0443 80.1122 28.712 80.8287 27.1149C80.8287 27.1149 83.8858 27.972 85.6954 23.3054C86.2861 22.0115 86.3677 20.5425 85.9239 19.1911C85.6299 19.3649 85.3207 19.5115 85.0001 19.6292Z" fill="#662932"/>
<path d="M73.9238 20.4197L70.9714 15.7435C68.2381 23.7244 72.7523 31.1244 67.1619 36.372L83.2 36.572C80 33.2577 72.0571 31.5816 73.9238 20.4197Z" fill="#EA7B59"/>
<path d="M103.01 121.001C101.829 128.686 81.4763 130.191 59.5525 155.41C59.5525 155.41 49.8287 148.743 54.9525 118.839C60.0763 88.9339 71.4953 68.9816 76.4191 61.6958C83.9048 50.6863 97.8858 91.8578 103.01 121.001Z" fill="#FFEFAE"/>
<path d="M81.7429 64.9435C81.7429 64.9435 93.8953 90.8101 94.7334 126.591L91.6477 128.496C93.3334 107.191 81.7429 64.9435 81.7429 64.9435Z" fill="#F9DCA0"/>
<path d="M80 66.4197C80 66.4197 73.1143 102.229 78.6381 138.077L81.4952 132.791C76.0571 112.172 80 66.4197 80 66.4197Z" fill="#F9DCA0"/>
<path d="M75.8857 70.6197C75.8857 70.6197 64.4096 108.924 65.3238 147.267L68.8667 141.62C66.1143 119.563 75.8857 70.6197 75.8857 70.6197Z" fill="#F9DCA0"/>
<path d="M55.0571 148.286C56.7238 153.696 59.5524 155.41 59.5524 155.41C81.4571 130.191 102.029 129.277 103.21 121.591C103.105 121.02 102.8 119.848 102.695 119.258C96.7428 124.762 76.5428 128.229 55.0571 148.286Z" fill="#F9C553"/>
<path d="M80.162 66.8387C83.8096 65.7149 85.7143 67.4292 87.9715 70.3054C84.0001 60.4387 79.2286 56.2673 76.1239 60.8292C71.2001 68.0959 60.0762 88.8959 54.9524 118.839C54.3905 122.124 54.0001 125.124 53.781 127.867C59.9429 102.41 72.8286 69.0197 80.162 66.8387Z" fill="#F9DCA0"/>
<path d="M67.8191 54.4292C73.4 62.572 72.6572 66.5339 72.6572 66.5339C76.7905 62.8101 81.0667 60.8197 84.4 63.2673L87.381 50.6197L67.8191 54.4292Z" fill="#F2C37E"/>
<path d="M60.4666 41.5625C66.1142 51.6768 67.8189 58.1054 69.7904 59.9435C71.7618 61.7816 93.0285 53.2768 93.0285 53.2768C93.0285 53.2768 92.8666 48.3244 92.0761 47.2673C91.2856 46.2101 83.5808 46.4482 77.2761 43.0387C72.7808 40.6006 68.4761 35.0292 66.2475 35.8101C64.0189 36.5911 60.4666 41.5625 60.4666 41.5625Z" fill="#FFEFAE"/>
<path d="M83.0667 45.2482L80 44.153L66.9048 52.0006L71.7715 55.0101C71.7715 55.0101 79.8381 49.1149 83.0667 45.2482Z" fill="#F9DCA0"/>
<path d="M73.857 55.4197C71.7713 53.6958 69.9427 48.6387 63.0951 38.3244C62.1596 39.3542 61.2821 40.4353 60.4666 41.5625C65.0666 51.3435 67.6189 58.7625 69.5904 60.6101C71.5618 62.4577 93.0285 53.2577 93.0285 53.2577C93.0285 53.2577 93.0285 52.8958 93.0285 52.3625C86.7237 54.2863 75.3713 56.6577 73.857 55.4197Z" fill="#F9DCA0"/>
<path d="M107.705 31.0959C108 32.1911 117.057 33.953 119.486 33.953C121.914 33.953 130.981 32.2006 131.276 31.0959H107.705Z" fill="#FFE05C"/>
<path d="M109.333 32.0006H129.638C130.591 31.6863 131.2 31.3625 131.276 31.0482H107.705C107.772 31.3625 108.4 31.6863 109.333 32.0006Z" fill="#FFEDA1"/>
<path d="M110.372 47.6673C110.295 40.5149 111.429 38.0959 113.524 37.9149C115.619 37.7339 117.333 51.0197 117.514 52.9244C117.695 54.8292 115.781 49.2482 113.829 48.2578C112.776 47.6754 111.558 47.4672 110.372 47.6673Z" fill="#FFE05C"/>
<path d="M92.7053 200.001H87.781C87.781 200.001 87.9144 198.629 88.5335 198.401C89.1526 198.172 92.7053 200.001 92.7053 200.001Z" fill="#FFB882"/>
<path d="M48.3713 200.001H53.6195C53.6195 200.001 53.6195 198.458 52.9813 198.229C52.3431 198.001 48.3713 200.001 48.3713 200.001Z" fill="#FFB882"/>
<path d="M57.1428 52.4863C74.8666 57.353 86.2857 39.4101 86.9143 37.8768C87.5428 36.3435 81.7047 31.4768 79.4095 31.9244C77.1142 32.372 70.4762 36.0387 65.1619 35.0768C59.7047 34.0768 57.1428 52.4863 57.1428 52.4863Z" fill="#FFE05C"/>
<path d="M61.0573 50.4768C59.8763 34.8482 72.8763 43.8101 78.3239 32.2673C75.6382 33.0863 67.9049 35.2006 65.0477 34.6863C59.5811 33.7339 56.5239 52.8578 56.5239 52.8578C59.9899 53.8662 63.6485 54.0213 67.1874 53.3099C70.7263 52.5984 74.0407 51.0416 76.8477 48.772C71.6382 51.6101 61.2382 52.772 61.0573 50.4768Z" fill="#F9C553"/>
<path d="M94.7428 144.143C82.5047 150.543 66.2475 172.715 66.2475 172.715C57.0761 175.153 48.8856 192.039 35.3428 199.953H39.6571C52.8571 195.305 58.438 178.686 68.3428 175.924C68.3428 175.924 81.9332 156.324 93.6571 149.924C93.6571 149.924 104.952 161.791 105.371 167.134C105.371 167.134 105.057 163.324 104.486 157.496C101.688 152.734 98.424 148.261 94.7428 144.143Z" fill="#F9C553"/>
<g style="mix-blend-mode:overlay" opacity="0.6">
<path d="M84.5524 34.4482C83.9193 33.9038 83.2441 33.4102 82.5333 32.972C78.7238 37.8958 70.2667 46.1625 58.6571 44.9054C58.419 45.8577 58.2 46.7244 58.019 47.5625C71.7048 50.0673 81.2952 39.153 84.5524 34.4482Z" fill="#FFEFAE"/>
</g>
<path d="M114.667 41.4295C114.967 41.4349 115.263 41.493 115.543 41.601C114.953 39.4388 114.267 37.8577 113.524 37.9149C111.505 38.0768 110.39 40.3437 110.371 46.8967C111.105 43.6773 112.743 41.4295 114.667 41.4295Z" fill="#F9C553"/>
<path d="M92.857 50.7339L80.7046 51.4768L92.6855 49.3149L92.857 50.7339Z" fill="#F9DCA0"/>
<path d="M96.5906 146.306C95.4857 144.972 94.7428 144.143 94.7428 144.143L94.5428 144.258C94.3237 146.21 94.038 148.163 93.657 149.973C93.657 149.973 94.7428 151.116 96.2572 152.83C96.4668 150.563 96.562 148.372 96.5906 146.306Z" fill="#EFAC41"/>
<path d="M71.3617 146.61C71.3617 146.61 63.8093 162.677 65.6474 177.086C66.4379 175.896 67.3141 175.439 68.3046 175.972C67.2284 166.896 71.3617 146.61 71.3617 146.61Z" fill="#FFDC9F"/>
<path d="M68.2002 170.162C66.9619 171.763 66.2952 172.744 66.2952 172.744C66.0095 172.82 65.7237 172.906 65.438 173.01C65.4649 174.367 65.5635 175.722 65.7333 177.068C66.5716 176.601 67.4598 176.231 68.3811 175.963C68.1702 174.037 68.1097 172.098 68.2002 170.162Z" fill="#EFAC41"/>
<path d="M69.9434 11.0769C67.1718 13.5819 64.5429 12.2294 65.0287 9.57204C65.0287 9.57204 62.0189 13.6105 65.8097 15.2869C66.5659 15.5972 67.3866 15.7177 68.2001 15.638C69.0136 15.5584 69.7952 15.2808 70.4768 14.8297L69.9434 11.0769Z" fill="#843D44"/>
<path d="M85.2099 20.5532C85.189 19.979 84.9728 19.4291 84.597 18.9944C84.2211 18.5597 83.7083 18.2662 83.1431 18.1625C84.0289 18.8578 85.048 20.2865 83.705 23.0201L85.2099 20.5532Z" fill="#662932"/>
<path d="M36.1048 4.73394H33.8762L34.6667 18.1911H36.8953L36.1048 4.73394Z" fill="#FFE05C"/>
<path d="M32.8857 2.10557C32.8857 2.52189 33.0092 2.92887 33.2405 3.27503C33.4718 3.62119 33.8005 3.89098 34.1852 4.0503C34.5698 4.20962 34.993 4.25131 35.4014 4.17009C35.8097 4.08887 36.1848 3.88839 36.4791 3.59401C36.7735 3.29962 36.974 2.92455 37.0552 2.51623C37.1364 2.10791 37.0948 1.68467 36.9354 1.30004C36.7761 0.915407 36.5063 0.586657 36.1602 0.35536C35.814 0.124064 35.407 0.000610352 34.9907 0.000610352C34.4324 0.000610352 33.897 0.222383 33.5023 0.61714C33.1075 1.0119 32.8857 1.5473 32.8857 2.10557Z" fill="#FFE05C"/>
<path d="M37.4195 16.6768H34.2192L34.2859 18.7818H37.4862L37.4195 16.6768Z" fill="#FFE05C"/>
<path d="M36.5716 4.50537H33.3713L33.438 6.60081H36.6383L36.5716 4.50537Z" fill="#FFE05C"/>
<path d="M76.0094 27.2673C74.3928 26.7821 72.9292 25.8869 71.7609 24.6686C70.5927 23.4503 69.7597 21.9505 69.3428 20.3149C68.9237 18.0387 69.7142 11.7435 74.1047 11.2197C78.4951 10.6958 78.7428 15.7149 79.0285 18.8387C79.3904 23.3339 76.0094 27.2673 76.0094 27.2673Z" fill="#FFB882"/>
<path d="M68.8193 20.3149C68.105 19.2101 66.7334 19.5339 66.8382 21.2674C66.943 23.0009 68.9051 23.7629 69.2003 23.2771C69.648 22.5056 69.1813 20.8674 68.8193 20.3149Z" fill="#FFB882"/>
<path d="M68.686 21.0768C68.2764 20.4482 67.4954 20.6292 67.5525 21.6102C67.6097 22.5913 68.7336 23.0389 68.905 22.7627C68.9872 22.4818 69.0101 22.187 68.9724 21.8968C68.9347 21.6066 68.8372 21.3274 68.686 21.0768Z" fill="#EA7B59"/>
<path d="M68.8094 21.9054C68.5427 21.4958 68.0379 21.6101 68.076 22.2483C68.1141 22.8865 68.8475 23.2008 68.9523 22.9912C69.0061 22.8104 69.0212 22.6202 68.9966 22.4331C68.9719 22.246 68.9082 22.0662 68.8094 21.9054Z" fill="#FFB882"/>
<path d="M77.5333 17.8293C77.419 17.0673 76.9904 16.4863 76.5808 16.5244C76.1713 16.5625 75.9331 17.2102 76.057 17.9722C76.1808 18.7342 76.5999 19.3056 77.0094 19.2675C77.419 19.2294 77.6571 18.5818 77.5333 17.8293Z" fill="#66423B"/>
<path d="M73.524 18.1912C73.4097 17.315 72.9621 16.6197 72.5144 16.6292C72.0667 16.6387 71.8 17.3626 71.9048 18.2389C72.0096 19.1151 72.4668 19.8104 72.9144 19.8009C73.3621 19.7914 73.6288 19.0485 73.524 18.1912Z" fill="#66423B"/>
<path d="M71.1619 18.0389C71.48 17.6972 71.8626 17.422 72.2876 17.2291C72.7127 17.0362 73.1717 16.9294 73.6383 16.9149C73.5033 16.7173 73.3073 16.5694 73.0802 16.4937C72.8532 16.418 72.6076 16.4188 72.381 16.4959C71.4286 16.753 71.1619 18.0389 71.1619 18.0389Z" fill="#66423B"/>
<path d="M77.9718 17.1436C77.2384 16.7159 76.3677 16.5895 75.543 16.7912C75.6024 16.5869 75.7284 16.4084 75.901 16.2841C76.0736 16.1598 76.2829 16.0969 76.4954 16.1054C77.3527 16.0959 77.9718 17.1436 77.9718 17.1436Z" fill="#66423B"/>
<path d="M70.6189 16.458L70.5522 16.277C70.6823 15.7777 70.9287 15.3163 71.2714 14.9305C71.6141 14.5448 72.0433 14.2457 72.5239 14.0578L72.6763 14.7054C72.2192 14.8141 71.7945 15.0297 71.4368 15.3343C71.0792 15.6389 70.7989 16.024 70.6189 16.458Z" fill="#843D44"/>
<path d="M77.8766 15.4579C77.5591 15.0903 77.1609 14.8011 76.7132 14.6127C76.2655 14.4244 75.7802 14.342 75.2954 14.3721L75.2383 13.7149C75.7743 13.7455 76.2961 13.8989 76.7634 14.1631C77.2308 14.4273 77.6312 14.7954 77.9338 15.2389L77.8766 15.4579Z" fill="#843D44"/>
<path d="M76.1241 20.4673C76.1288 20.4925 76.1288 20.5183 76.1241 20.5435C76.1186 20.6547 76.0872 20.7632 76.0324 20.8601C75.9775 20.9571 75.9008 21.0399 75.8082 21.1019C75.7157 21.1639 75.6099 21.2034 75.4994 21.2172C75.3888 21.2311 75.2766 21.2189 75.1716 21.1816C75.036 21.1364 74.9116 21.063 74.8065 20.9661C74.7014 20.8692 74.6181 20.7511 74.562 20.6197C74.5508 20.8531 74.6152 21.0839 74.7456 21.2778C74.876 21.4717 75.0655 21.6183 75.2859 21.696C75.3917 21.7313 75.5041 21.7418 75.6145 21.7265C75.725 21.7113 75.8304 21.6708 75.9226 21.6081C76.0148 21.5454 76.0913 21.4622 76.146 21.3651C76.2008 21.268 76.2324 21.1596 76.2384 21.0483C76.2581 20.8476 76.2183 20.6456 76.1241 20.4673Z" fill="#EA7B59"/>
<path d="M73.9524 23.2673L76.8098 23.0959C76.8098 23.0959 76.6574 24.7627 75.5049 24.7627C74.3524 24.7627 73.9524 23.2673 73.9524 23.2673Z" fill="#491D2E"/>
<path d="M74.1524 23.3244L76.5526 23.172C76.5526 23.172 76.8098 23.8769 75.4477 23.9912C74.0857 24.1055 74.1524 23.3244 74.1524 23.3244Z" fill="#FFEBEB"/>
<path d="M76.1906 25.2482C76.1906 25.0482 75.9429 25.2482 75.6381 25.2482C75.3334 25.2482 75.0762 25.0768 75.0952 25.2482C75.1143 25.4197 75.3714 25.5911 75.6667 25.5721C75.962 25.553 76.1906 25.4483 76.1906 25.2482Z" fill="#EF8F6F"/>
<path d="M75.505 9.93394C75.8841 10.0502 76.2215 10.2736 76.4767 10.5771C76.7318 10.8807 76.8938 11.2516 76.9431 11.645C76.9924 12.0385 76.927 12.4379 76.7546 12.795C76.5823 13.1522 76.3104 13.4519 75.9717 13.6581C74.2286 14.7344 73.1143 12.6294 73.1143 12.6294C73.1143 12.6294 75.1716 14.02 75.2383 12.3818C75.324 10.9245 73.2286 11.296 73.2286 11.296L75.505 9.93394Z" fill="#843D44"/>
<path d="M44.7622 107.715C43.9049 109.439 43.1906 113.125 42.2857 114.039C41.5714 114.763 40.657 112.001 40.457 111.353C40.257 110.706 43.6478 107.467 43.6478 107.467L44.7622 107.715Z" fill="#FF9566"/>
<path d="M35.8475 10.6387H34.6665L46.4856 199.982H48.3236L35.8475 10.6387Z" fill="#FFE05C"/>
<path d="M42.0953 112.001C41.1428 110.096 41.0476 109.572 41.3143 109.048C42.0691 108.232 42.9053 107.495 43.8097 106.848C43.8097 106.848 44.5241 108.753 43.6383 109.506C42.7525 110.258 42.2286 109.639 42.2286 109.639C42.2286 109.639 42.8573 113.544 42.0953 112.001Z" fill="#FFB882"/>
<path d="M39.876 111.544C40.5999 110.677 41.1714 110.229 41.2285 110.858C41.2857 111.486 40.4856 112.696 40.0761 112.487C39.9843 112.455 39.9022 112.4 39.8379 112.327C39.7735 112.255 39.7292 112.167 39.709 112.072C39.6889 111.977 39.6937 111.878 39.7229 111.786C39.7522 111.693 39.805 111.61 39.876 111.544Z" fill="#FFB882"/>
<path d="M40.3143 112.648C41.2668 112.02 41.9145 111.696 41.8097 112.363C41.7049 113.029 40.581 113.934 40.2572 113.62C40.1772 113.564 40.113 113.488 40.0705 113.401C40.028 113.313 40.0087 113.215 40.0144 113.118C40.0201 113.021 40.0507 112.926 40.1032 112.844C40.1557 112.762 40.2284 112.694 40.3143 112.648Z" fill="#FFB882"/>
<path d="M40.638 113.867C41.5143 113.172 42.1715 112.848 42.1048 113.477C42.0381 114.105 40.9999 115.125 40.6475 114.839C40.562 114.79 40.4908 114.72 40.4409 114.635C40.391 114.551 40.3643 114.454 40.3633 114.356C40.3623 114.257 40.3872 114.161 40.4354 114.075C40.4836 113.989 40.5535 113.918 40.638 113.867Z" fill="#FFB882"/>
<path d="M119.238 34.677C120.191 33.5816 121.953 32.8387 122.219 32.972C122.486 33.1054 121 34.0959 121 34.0959L119.238 34.677Z" fill="#FF9566"/>
</svg>
