<svg width="193" height="200" viewBox="0 0 193 200" fill="none" xmlns="http://www.w3.org/2000/svg">
<path d="M132.811 24.3506C134.791 25.7519 132.811 27.4787 132.811 27.4787C132.97 27.906 133.03 28.3635 132.988 28.8174C132.946 29.2712 132.802 29.7097 132.567 30.1004C131.961 30.7688 131.172 31.2437 130.298 31.4655L125.777 30.1456C125.756 28.4142 126.291 26.7217 127.305 25.318C130.162 21.747 132.811 24.3506 132.811 24.3506Z" fill="#683A36"/>
<path d="M108.546 66.7327C98.6013 82.2282 97.7786 91.0427 90.5552 100.445L101.937 104.061L108.546 66.7327Z" fill="#EAC68C"/>
<path d="M31.2676 173.89C32.3163 173.827 46.3744 173.104 47.0343 173.501C47.6943 173.899 48.2186 174.749 49.2673 181.114L48.8063 181.448C48.6074 180.652 46.5371 178.835 44.964 178.736C39.6482 178.293 41.4653 177.262 41.4653 177.262C35.0646 176.819 37.4785 175.59 37.4785 175.59C33.5368 175.291 30.2189 173.953 31.2676 173.89Z" fill="#FFEBC0"/>
<path d="M112.877 150.737C113.925 150.674 127.983 149.951 128.643 150.349C129.303 150.746 129.818 151.596 130.876 157.961L130.415 158.295C130.216 157.509 128.146 155.683 126.573 155.583C121.248 155.14 123.074 154.109 123.074 154.109C116.674 153.666 119.087 152.437 119.087 152.437C115.146 152.139 111.828 150.81 112.877 150.737Z" fill="#FFEBC0"/>
<path d="M134.42 70.81C151.895 51.7616 178.719 15.7712 178.719 15.7712L176.088 9.72306L131.925 38.3635L134.42 70.81Z" fill="#FFB882"/>
<path d="M178.095 14.397L178.691 15.7712C178.691 15.7712 151.895 52.5481 134.393 71.5965L133.489 59.5545C150.494 43.824 170.763 22.2894 178.095 14.397Z" fill="#FF9566"/>
<path d="M95.0122 109.296C99.876 94.7131 98.2939 88.0141 95.41 82.1016C93.7013 78.621 95.6179 65.5845 104.866 53.9946C111.294 45.9304 122.206 42.9561 132.711 37.4413C132.711 37.4413 142.565 60.6936 131.663 80.6551C120.76 100.617 95.0122 109.296 95.0122 109.296Z" fill="#FFB882"/>
<path d="M101.304 106.683L96.6757 103.645C99.3879 92.8689 97.4351 87.5892 94.949 82.4994C94.506 81.5953 94.7682 79.6426 94.8766 77.6446L104.604 72.6994C104.604 72.6994 104.993 81.2789 105.798 104.423C104.179 105.291 102.651 106.05 101.304 106.683Z" fill="#FF9566"/>
<path d="M100.952 84.2713C105.409 86.6309 115.417 85.1754 123.119 72.157C130.623 59.5002 132.874 44.9631 129.249 39.1681C130.406 38.6166 131.563 38.0471 132.711 37.4413C132.711 37.4413 142.565 60.6936 131.663 80.6551C120.76 100.617 95.0122 109.296 95.0122 109.296C97.8147 100.888 101.449 88.8006 100.952 84.2713Z" fill="#FF9566"/>
<path d="M131.599 158.096C144.337 136.399 157.473 104.965 156.162 101.023C155.915 100.338 155.494 99.7279 154.941 99.2527C154.388 98.7775 153.722 98.4532 153.007 98.3113C145.458 97.3168 122.17 100.119 108.935 103.555L104.93 122.992C117.017 121.817 139.718 114.928 139.736 115.841C139.808 118.598 136.327 144.147 131.599 155.899V158.096Z" fill="#FFB882"/>
<path d="M139.582 118.092C139.691 117.007 139.745 116.23 139.736 115.859C139.736 114.955 117.017 121.844 104.93 123.019L108.935 103.582C122.17 100.137 145.458 97.3439 153.007 98.3384C153.049 98.3341 153.092 98.3341 153.134 98.3384C149.129 101.258 144.229 108.491 139.582 118.092Z" fill="#FF9566"/>
<path d="M104.143 128.082C94.0267 143.451 85.4924 156.189 83.3498 157.916C81.2072 159.642 49.9993 181.719 46.9978 184.431L46.4735 183.78C46.4735 183.78 72.7453 154.354 73.9296 153.043C75.1139 151.732 88.3945 122.034 88.3945 122.034L104.143 128.082Z" fill="#FFB882"/>
<path d="M83.386 157.897C83.2775 157.988 83.0786 158.142 82.8255 158.322C77.0126 159.072 71.2849 160.377 65.7208 162.219C70.0512 157.373 73.5137 153.495 73.9296 153.043C75.1139 151.723 88.3944 122.034 88.3944 122.034L104.161 128.082C94.0267 143.451 85.4924 156.189 83.386 157.897Z" fill="#FF9566"/>
<path d="M143.75 96.2952C137.964 111.791 117.722 131.083 114.449 133.47C104.731 140.558 69.4004 156.189 69.4004 156.189C69.4004 156.189 74.3908 141.724 80.3033 132.023C80.3033 132.023 76.1175 131.933 83.585 123.218C87.5267 118.625 89.0997 118.625 88.711 116.89C88.3223 115.154 84.7693 117.152 87.1289 111.899C88.1324 109.675 88.937 107.732 89.597 106.122C90.501 103.907 86.7492 105.706 90.5553 100.418C90.5553 100.418 139.917 80.1579 131.238 38.6528C131.184 38.4095 131.199 38.1558 131.282 37.9208C131.365 37.6858 131.513 37.479 131.708 37.3238L132.268 36.9712C132.616 36.74 133.042 36.6558 133.452 36.7371C133.862 36.8184 134.223 37.0586 134.456 37.4052C138.172 42.9109 150.783 65.6026 127.621 91.9558L128.245 94.0261C128.245 94.0261 132.449 90.7353 131.789 96.1235C131.789 96.1596 145.169 92.4711 143.75 96.2952Z" fill="#FFEBC0"/>
<path d="M83.585 123.218C87.5267 118.625 89.0997 118.625 88.711 116.89C88.6771 116.741 88.6088 116.602 88.5114 116.484C88.4141 116.366 88.2905 116.273 88.1505 116.212C117.306 102.47 117.614 93.8543 129.249 89.994C128.715 90.6539 128.164 91.3048 127.585 91.9648L128.245 94.026C128.245 94.026 132.449 90.7353 131.789 96.1234C131.789 96.1234 145.169 92.4349 143.75 96.259C138.099 111.402 118.644 130.161 114.712 133.235C129.104 118.689 137.25 104.875 133.389 100.562C128.95 95.6624 118.861 110.869 100.364 127.621C134.646 86.7303 81.795 131.752 77.8533 136.39C78.6398 134.88 79.4625 133.398 80.3033 132.023C80.3033 131.996 76.1175 131.933 83.585 123.218Z" fill="#F4D8A2"/>
<path d="M136.128 60.5761C136.899 52.7796 135.205 44.9377 131.283 38.1555C131.342 37.8413 131.508 37.5572 131.753 37.3509L132.268 36.9712C132.591 36.7599 132.98 36.6731 133.362 36.7271C137.276 45.4513 137.114 54.4285 136.128 60.5761Z" fill="#F4D8A2"/>
<path d="M80.3036 131.996C80.3036 131.996 90.9262 123.598 98.3846 114.883C102.326 110.29 89.091 118.598 88.7022 116.89C88.3135 115.181 84.7605 117.152 87.1201 111.899L87.8795 110.2C97.5891 112.342 115.408 101.412 126.329 88.5023C141.056 71.1716 140.694 55.5676 137.801 43.6341C142.014 53.3436 146.01 71.5694 128.101 91.9558L128.444 93.5831C128.444 93.5831 132.847 90.3646 132.187 95.7528C132.187 95.7528 140.459 93.7729 143.099 94.8488C135.071 95.3731 118.889 102.271 107.163 112.369C95.4374 122.468 78.2333 138.867 71.1726 155.42L69.3645 156.207C69.3645 156.207 74.4091 141.742 80.3036 131.996Z" fill="#F4D8A2"/>
<path d="M112.379 47.3588C118.029 42.9561 119.141 38.1013 119.015 34.4218C118.888 30.7423 132.268 40.6869 132.268 40.6869C132.268 40.6869 127.142 42.269 127.468 46.5452C121.221 50.8394 115.091 49.5918 112.379 47.3588Z" fill="#FFB882"/>
<path d="M111.764 47.9193L104.08 81.2247C85.9446 89.3611 74.3547 97.6423 66.1097 105.39L59.483 98.5373C59.483 98.5373 89.0455 59.1748 111.764 47.9193Z" fill="#FFB882"/>
<path d="M104.785 78.0966L104.242 81.6586C86.1072 89.7951 74.3364 97.6061 66.0553 105.354C66.0733 105.354 74.4087 91.6936 104.785 78.0966Z" fill="#FF9566"/>
<path d="M112.207 79.6606C111.9 79.1996 112.307 78.395 113.112 77.8525C113.916 77.3101 114.793 77.292 115.091 77.7531C115.39 78.2141 115.001 79.0097 114.187 79.5612C113.374 80.1127 112.515 80.1217 112.207 79.6606Z" fill="#EF7443"/>
<path d="M101.747 80.628C106.864 77.3734 108.835 66.1631 108.835 66.1631C108.835 66.1631 108.763 79.6426 100.952 87.6977L101.747 80.628Z" fill="#FF9566"/>
<path d="M127.161 159.642C128.725 157.753 129.728 158.657 133.57 152.057L133.173 154.815C127.947 163.584 128.245 176.982 126.962 177.271C126.302 177.425 125.741 173.99 126.374 169.587C126.718 167.173 125.036 162.201 127.161 159.642Z" fill="#FFB882"/>
<path d="M43.59 183.473C45.6964 182.226 46.3021 183.41 52.1875 178.501L50.8766 180.96C42.9933 187.442 38.7352 200.153 37.4334 199.999C36.7463 199.918 37.4333 196.492 39.4765 192.568C40.6156 190.407 40.7241 185.164 43.59 183.473Z" fill="#FFB882"/>
<path d="M132.729 156.903L130.759 155.402L128.688 157.717L131.156 159.932L132.729 156.903Z" fill="#FFEBC0"/>
<path d="M48.4085 183.482L47.2332 181.71L49.6561 179.839L50.1533 182.171L48.4085 183.482Z" fill="#FFEBC0"/>
<path d="M95.0757 130.704C86.7403 142.266 72.9445 150.276 72.9445 150.276L71.0369 154.417C79.0559 148.441 89.8864 139.446 95.0757 130.704Z" fill="#F4D8A2"/>
<path d="M132.874 72.6452C124.801 89.9849 105.292 109.097 90.7092 112.424L87.771 110.462C106.277 102.714 122.08 91.1602 132.874 72.6452Z" fill="#F4D8A2"/>
<g style="mix-blend-mode:multiply" opacity="0.6">
<path d="M99.017 56.4807C102.946 53.1775 107.22 50.3071 111.764 47.9193L112.469 47.4673L112.352 47.3859C116.962 43.7697 118.554 39.9004 118.906 36.5915C121.601 36.2985 124.326 36.4543 126.97 37.0526C127.992 37.7035 128.968 38.3635 129.8 38.933L130.433 38.6076C131.195 39.1523 131.822 39.8634 132.268 40.6869C130.778 41.2087 129.42 42.0512 128.29 43.155C127.458 49.4924 118.59 61.4801 99.017 56.4807Z" fill="#C94343"/>
</g>
<path d="M124.304 22.7505C119.684 18.8359 118.554 14.614 117.84 14.3518C117.125 14.0896 103.917 22.3436 97.6883 23.1121C91.4594 23.8805 101.305 25.9327 107.027 22.8861C107.027 22.8861 96.8023 29.5942 114.133 22.8861C114.133 22.8861 101.901 28.446 118.156 23.6817C120.407 23.0217 122.839 23.0036 123.815 23.6817C124.792 24.3597 125.334 23.6274 124.304 22.7505Z" fill="#FFEBC0"/>
<path d="M123.291 22.9584C118.662 19.0439 117.695 16.3136 116.962 16.0605C116.23 15.8073 103.899 22.3888 97.6699 23.1121C91.441 23.8353 101.286 25.9327 107.009 22.8861C107.009 22.8861 96.784 29.5942 114.115 22.8861C114.115 22.8861 101.883 28.446 118.138 23.6816C120.389 23.0217 122.821 23.0036 123.797 23.6816C124.773 24.3597 124.321 23.8353 123.291 22.9584Z" fill="#F4D8A2"/>
<path d="M132.268 40.6869C129.71 41.4101 122.803 43.5166 120.633 40.4338C118.463 37.3509 118.472 33.1471 118.4 32.4238C118.328 31.7006 129.719 24.2874 130.424 25.1281C131.662 26.5385 132.268 40.6869 132.268 40.6869Z" fill="#FFB882"/>
<path d="M129.303 30.7875L131.111 30.0371C131.081 29.9498 131.032 29.8702 130.968 29.8044C130.903 29.7386 130.824 29.6881 130.737 29.6569C130.651 29.6256 130.558 29.6143 130.466 29.6238C130.374 29.6333 130.286 29.6633 130.207 29.7117C129.857 30.0262 129.552 30.3883 129.303 30.7875Z" fill="#664239"/>
<path d="M128.914 34.9823L131.22 33.5087C131.22 33.5087 129.131 30.1456 128.652 30.0191C128.173 29.8925 128.914 34.9823 128.914 34.9823Z" fill="#FF9566"/>
<path d="M128.318 34.8286L130.65 33.355C130.65 33.355 128.526 29.9648 128.019 29.8292C127.513 29.6936 128.318 34.8286 128.318 34.8286Z" fill="#FFB882"/>
<path d="M126.193 32.903L127.92 31.9176C127.879 31.84 127.821 31.7722 127.751 31.7187C127.681 31.6653 127.601 31.6274 127.515 31.6077C127.43 31.588 127.341 31.5869 127.254 31.6045C127.168 31.6221 127.087 31.6579 127.016 31.7096C126.685 32.0651 126.408 32.4672 126.193 32.903Z" fill="#664239"/>
<path d="M125.334 31.8995L128.146 30.5977L128.056 30.0462L125.19 30.9412L125.334 31.8995Z" fill="#683A36"/>
<path d="M128.86 29.8292L131.138 28.7443L131.066 28.1929L128.742 28.8528L128.86 29.8292Z" fill="#683A36"/>
<path d="M117.867 43.164C115.435 44.2127 115.571 41.5909 115.571 41.5909C115.571 41.5909 113.925 41.2564 113.762 39.9456C113.71 38.9629 113.936 37.9854 114.413 37.1249L118.708 33.9698C119.926 34.9819 120.727 36.408 120.959 37.9747C121.158 39.0673 120.954 40.1951 120.386 41.1492C119.818 42.1033 118.923 42.8191 117.867 43.164Z" fill="#512927"/>
<path d="M122.694 30.6881C124.774 32.1617 122.495 33.6533 122.495 33.6533C122.646 34.0759 122.682 34.5306 122.601 34.9717C122.52 35.4128 122.325 35.8249 122.034 36.1666C121.28 36.769 120.378 37.1564 119.422 37.2876L114.495 35.7056C114.623 34.0275 115.352 32.4518 116.547 31.2666C119.955 28.0301 122.694 30.6881 122.694 30.6881Z" fill="#683A36"/>
<path d="M121.826 37.4775C121.555 35.0998 119.828 33.807 119.114 35.4976C118.047 38.1375 121.826 37.4775 121.826 37.4775Z" fill="#FFB882"/>
<path d="M121.221 36.8899C121.076 35.588 120.127 34.8829 119.747 35.805C119.15 37.2515 121.221 36.8899 121.221 36.8899Z" fill="#EA7B59"/>
<path d="M121.419 37.0074C121.32 36.1938 120.732 35.7508 120.515 36.3294C120.136 37.2334 121.419 37.0074 121.419 37.0074Z" fill="#FFB882"/>
<g style="mix-blend-mode:multiply" opacity="0.6">
<path d="M118.527 34.1144C118.436 33.2646 118.418 32.6227 118.391 32.3877C118.391 31.9266 122.911 28.7715 126.482 26.7374C126.694 26.2305 126.971 25.7534 127.305 25.318C130.162 21.7018 132.811 24.3235 132.811 24.3235C133.212 24.5687 133.511 24.9509 133.652 25.3994C129.421 30.0643 121.302 38.6347 115.643 42.2871C115.588 42.05 115.564 41.807 115.571 41.5638C115.571 41.5638 113.925 41.2293 113.762 39.9185C113.71 38.9358 113.936 37.9583 114.413 37.0978L118.527 34.1144Z" fill="#C94343"/>
</g>
<path d="M133.173 23.2387C121.483 31.2305 121.103 36.7995 113.012 40.1987C109.965 41.4825 114.585 37.9747 113.283 30.8237C111.982 23.6726 117.406 18.7907 121.872 18.8811C126.745 18.9896 129.104 22.9765 131.871 22.1267C134.013 21.4667 134.077 22.6058 133.173 23.2387Z" fill="#FFE05C"/>
<path d="M125.425 20.0745C126.98 20.7616 128.227 21.6927 129.394 22.1809C129.062 22.3311 128.771 22.5572 128.544 22.8409C127.64 22.3527 126.609 21.6837 125.425 21.1413V20.0745Z" fill="#FFEB99"/>
<path d="M121.908 19.2608C122.517 19.2759 123.123 19.3547 123.716 19.4959V20.5355C123.078 20.3677 122.422 20.2766 121.763 20.2643C118.364 20.192 114.386 23.1121 113.482 27.7408C113.97 22.5335 118.273 19.1885 121.908 19.2608Z" fill="#FFEB99"/>
<path d="M113.283 30.8237C112.732 28.1554 113.248 25.3772 114.721 23.085C114.651 23.3823 114.651 23.6917 114.721 23.989C115.299 26.3938 120.398 27.2436 126.112 25.8695C128.89 25.2889 131.499 24.0831 133.742 22.3436C133.734 22.5298 133.678 22.7107 133.58 22.8691C133.482 23.0274 133.345 23.1578 133.181 23.2477C121.492 31.2395 121.112 36.8085 113.021 40.2077C109.965 41.4825 114.585 37.9747 113.283 30.8237Z" fill="#FFC550"/>
<path d="M113.283 30.8237C113.197 30.3637 113.139 29.8987 113.112 29.4314C113.112 29.6122 113.112 29.793 113.184 29.9829C113.265 30.462 113.329 30.8869 113.365 31.3661L113.283 30.8237Z" fill="#FFE05C"/>
<path d="M112.912 39.367C121.049 35.9497 121.049 30.3264 132.702 22.2984C132.874 22.19 133.371 22.1538 133.471 22.0182C133.941 22.2442 133.76 22.8409 133.172 23.2387C121.483 31.2305 121.103 36.7995 113.012 40.1987C111.837 40.6959 111.8 40.479 112.108 39.6201C112.386 39.5715 112.656 39.4864 112.912 39.367Z" fill="#FFE05C"/>
<path d="M118.301 27.0266C118.394 26.6708 118.602 26.3559 118.894 26.1312C119.185 25.9064 119.542 25.7845 119.91 25.7845C120.278 25.7845 120.635 25.9064 120.926 26.1312C121.218 26.3559 121.426 26.6708 121.519 27.0266C121.426 27.3825 121.218 27.6974 120.926 27.9221C120.635 28.1469 120.278 28.2688 119.91 28.2688C119.542 28.2688 119.185 28.1469 118.894 27.9221C118.602 27.6974 118.394 27.3825 118.301 27.0266Z" fill="#FFE05C"/>
<path d="M118.12 28.8619C118.431 28.0743 118.981 27.404 119.693 26.9453C120.027 26.7645 120.281 26.7735 120.371 26.9453C120.462 27.2395 120.487 27.5503 120.443 27.8552C120.399 28.1601 120.288 28.4514 120.118 28.7082C119.132 30.1366 117.578 30.4259 118.12 28.8619Z" fill="#FFC550"/>
<path d="M119.611 26.3396C113.744 23.9981 112.026 19.6948 111.24 19.6948C110.453 19.6948 99.1164 33.4364 93.1587 36.5192C87.201 39.602 97.679 38.1013 102.425 32.8397C102.425 32.8397 94.343 43.5527 109.513 30.218C109.513 30.218 99.0712 40.479 113.789 29.558C115.769 28.0301 118.201 27.1261 119.376 27.4606C120.552 27.7951 120.886 26.8639 119.611 26.3396Z" fill="#FFEBC0"/>
<path d="M113.337 106.818C122.866 103.419 130.514 96.3495 127.92 95.6534C125.325 94.9572 113.337 106.818 113.337 106.818Z" fill="#FFEBC0"/>
<path d="M91.3597 37.7487C93.8277 37.8934 99.0803 35.0366 104.351 30.5163C105.137 29.8383 105.879 29.1602 106.584 28.4731C106.523 28.5672 106.456 28.6578 106.385 28.7443C103.79 32.3606 101.865 34.4128 103.212 34.1687C104.559 33.9246 108.139 31.0858 111.222 27.8403C112.623 26.3757 113.807 25.2005 113.138 26.1497C110.544 29.7659 108.618 31.8091 109.965 31.574C111.312 31.339 116.104 26.6921 118.563 26.9362C119.973 27.0809 120.561 27.8403 119.376 27.5148C118.192 27.1894 115.76 28.1025 113.735 29.6122C99.017 40.5332 109.459 30.2722 109.459 30.2722C94.2888 43.607 102.371 32.894 102.371 32.894C98.4927 37.152 90.7359 38.9421 91.3597 37.7487Z" fill="#FFDCAE"/>
<path d="M130.234 35.4705L129.583 36.0762C128.48 36.3022 126.075 36.7543 126.075 36.7543C127.484 36.4024 128.872 35.9739 130.234 35.4705Z" fill="#FF9566"/>
<path d="M124.891 60.3953L124.602 71.8225L126.962 67.4921L124.891 60.3953Z" fill="#FF9566"/>
<path d="M61.3815 94.5866C57.8467 98.3022 53.4077 101.349 53.6247 103.934C53.8417 106.52 62.0686 111.501 64.1027 110.742C66.1368 109.983 70.2141 101.258 70.2141 101.258C63.7953 101.964 62.1952 98.6006 61.3815 94.5866Z" fill="#FF9566"/>
<path d="M41.4831 84.7053C42.3882 83.6924 42.9772 82.4369 43.1775 81.0934C43.3779 79.75 43.1808 78.3772 42.6105 77.1444C42.0403 75.9116 41.1218 74.8725 39.9683 74.1552C38.8148 73.438 37.4767 73.0738 36.1188 73.1077C34.7609 73.1416 33.4425 73.572 32.3263 74.3459C31.21 75.1199 30.3445 76.2034 29.8365 77.4632C29.3284 78.7229 29.2 80.1038 29.4671 81.4356C29.7342 82.7674 30.3851 83.992 31.3396 84.9584C32.7187 86.2691 34.5618 86.9787 36.4637 86.9312C38.3657 86.8837 40.1711 86.0831 41.4831 84.7053ZM32.759 75.8907C33.5587 75.2026 34.5418 74.7627 35.5878 74.6247C36.6337 74.4868 37.6972 74.6569 38.648 75.1142C39.5988 75.5715 40.3956 76.2961 40.9408 77.1994C41.486 78.1026 41.756 79.1453 41.7176 80.1996C41.6793 81.2539 41.3343 82.2742 40.7249 83.1355C40.1156 83.9967 39.2682 84.6616 38.2868 85.0486C37.3053 85.4357 36.2322 85.5281 35.199 85.3145C34.1658 85.101 33.2173 84.5908 32.4697 83.8464C31.4538 82.7527 30.9137 81.3004 30.9679 79.8087C31.0221 78.317 31.6663 76.9078 32.759 75.8907Z" fill="#FFC648"/>
<path d="M50.1715 93.5017C51.2102 92.5749 51.9473 91.358 52.2873 90.0081C52.6274 88.6582 52.555 87.2373 52.0794 85.929C51.6038 84.6207 50.7468 83.485 49.6192 82.6687C48.4916 81.8524 47.1451 81.3929 45.7537 81.3496C44.3623 81.3062 42.9898 81.6811 41.8136 82.4257C40.6374 83.1703 39.7115 84.2505 39.1554 85.5267C38.5993 86.8029 38.4386 88.2165 38.6941 89.5849C38.9496 90.9533 39.6094 92.2138 40.5885 93.2034C41.8223 94.5091 43.5228 95.2735 45.3185 95.3294C47.1141 95.3853 48.8588 94.7282 50.1715 93.5017ZM41.4474 84.6781C42.1633 83.8384 43.1162 83.2344 44.1812 82.9453C45.2462 82.6562 46.3737 82.6954 47.416 83.0579C48.4583 83.4204 49.3668 84.0892 50.0226 84.9767C50.6785 85.8642 51.051 86.9291 51.0914 88.0319C51.1318 89.1347 50.8382 90.224 50.249 91.1572C49.6599 92.0903 48.8027 92.8238 47.7897 93.2616C46.7767 93.6993 45.6552 93.821 44.5719 93.6105C43.4886 93.4001 42.4941 92.8675 41.7186 92.0823C40.704 91.1346 40.1059 89.8237 40.0551 88.4362C40.0043 87.0487 40.5048 85.6976 41.4474 84.6781Z" fill="#FFC648"/>
<path d="M24.9935 69.915L26.8649 68.0616L70.6482 113.626L70.0696 114.195L24.9935 69.915Z" fill="#FFC648"/>
<path d="M56.9244 100.354C58.8501 98.4469 58.6602 95.138 56.5086 92.9593C54.3569 90.7805 51.0842 90.5635 49.1224 92.462C47.1606 94.3606 47.3867 97.6784 49.5383 99.8572C51.69 102.036 54.9988 102.226 56.9244 100.354ZM50.1712 93.5288C51.473 92.236 53.7874 92.4892 55.3785 94.0713C56.9696 95.6534 57.1866 98.0039 55.8757 99.2877C54.5648 100.571 52.2595 100.327 50.6593 98.7362C49.0592 97.145 48.8693 94.7855 50.1712 93.5017V93.5288Z" fill="#FFE05C"/>
<path d="M31.7014 74.824C32.0016 74.5364 32.3218 74.2705 32.6597 74.0284C31.8603 75.347 31.3747 76.8317 31.2403 78.3678C30.926 79.3063 30.8744 80.3129 31.0911 81.2786C31.3078 82.2443 31.7846 83.1323 32.4699 83.8464C33.553 84.8715 34.9979 85.4261 36.4887 85.3889C37.9796 85.3516 39.395 84.7255 40.4255 83.6475C40.6446 83.4278 40.8471 83.1921 41.0312 82.9424C41.7462 82.7728 42.4497 82.5585 43.1377 82.3005C42.7459 83.201 42.1842 84.0175 41.4833 84.7053C40.8472 85.403 40.0758 85.9641 39.216 86.3544C38.3562 86.7446 37.426 86.9559 36.4821 86.9753C35.5381 86.9947 34.6 86.8219 33.7249 86.4673C32.8498 86.1128 32.056 85.5839 31.3917 84.9129C30.7274 84.2419 30.2066 83.4428 29.8609 82.5641C29.5153 81.6855 29.3519 80.7457 29.3809 79.802C29.4099 78.8582 29.6305 77.9302 30.0295 77.0744C30.4284 76.2186 30.9972 75.453 31.7014 74.824Z" fill="#FFE05C"/>
<path d="M28.5913 66.5428C29.0979 67.0482 29.4432 67.6925 29.5834 68.3943C29.7237 69.096 29.6526 69.8235 29.3791 70.4848C29.1057 71.1461 28.6422 71.7114 28.0473 72.1091C27.4524 72.5069 26.7529 72.7192 26.0373 72.7192C25.3218 72.7192 24.6223 72.5069 24.0274 72.1091C23.4325 71.7114 22.969 71.1461 22.6956 70.4848C22.4221 69.8235 22.351 69.096 22.4913 68.3943C22.6315 67.6925 22.9768 67.0482 23.4834 66.5428C24.1613 65.8665 25.0798 65.4868 26.0373 65.4868C26.9949 65.4868 27.9134 65.8665 28.5913 66.5428Z" fill="#FFE05C"/>
<path d="M26.3944 69.924C26.9481 69.3692 27.3065 68.6496 27.4158 67.8735C27.525 67.0973 27.3791 66.3067 27.0001 65.6207C27.601 65.7763 28.15 66.0883 28.5913 66.5247C28.9524 66.8556 29.2425 67.2564 29.444 67.7028C29.6456 68.1492 29.7544 68.6319 29.7637 69.1216C29.7731 69.6113 29.6829 70.0978 29.4986 70.5516C29.3144 71.0054 29.0398 71.417 28.6916 71.7615C28.3435 72.106 27.929 72.3761 27.4732 72.5556C27.0175 72.7351 26.5301 72.8201 26.0405 72.8055C25.5509 72.7909 25.0694 72.677 24.6252 72.4708C24.181 72.2645 23.7833 71.9701 23.4562 71.6055C23.2235 71.3629 23.0257 71.0891 22.8686 70.7919C23.4806 70.9709 24.1291 70.985 24.7483 70.8325C25.3675 70.6801 25.9354 70.3667 26.3944 69.924Z" fill="#FFC648"/>
<path d="M49.457 92.0643C50.2212 90.9743 50.5639 89.6441 50.4214 88.3206C50.279 86.9971 49.6611 85.7703 48.6825 84.8679C47.7039 83.9655 46.4311 83.4489 45.1005 83.414C43.7698 83.3791 42.4717 83.8283 41.4471 84.6781C41.1284 84.9905 40.8601 85.3504 40.6515 85.7449C39.9443 86.0071 39.2754 86.3628 38.6626 86.8027C38.9209 85.5936 39.5237 84.4852 40.3984 83.6114C41.0947 82.9013 41.9352 82.3489 42.8632 81.9914C43.7912 81.6339 44.7851 81.4797 45.7778 81.5391C46.7706 81.5986 47.739 81.8703 48.6177 82.336C49.4964 82.8017 50.265 83.4504 50.8716 84.2385C51.4781 85.0266 51.9086 85.9356 52.1338 86.9043C52.359 87.8729 52.3738 88.8786 52.1772 89.8535C51.9806 90.8283 51.5771 91.7496 50.994 92.5552C50.4109 93.3608 49.6617 94.032 48.7971 94.5233C49.1447 93.7433 49.3674 92.9135 49.457 92.0643Z" fill="#FFE05C"/>
<path d="M55.3784 94.026C54.8362 93.4243 54.1253 92.9999 53.3383 92.808C52.5514 92.6161 51.725 92.6657 50.9666 92.9502C51.0717 92.3155 51.2858 91.7038 51.5994 91.1421C52.4959 91.0222 53.408 91.1162 54.2612 91.4163C55.1144 91.7164 55.8845 92.2141 56.5085 92.8689C57.2527 93.5824 57.7858 94.4874 58.0489 95.4842C58.3121 96.4811 58.2952 97.5313 58.0001 98.5192C57.3898 98.7666 56.7415 98.9072 56.0835 98.9351C57.1232 97.6423 56.852 95.5358 55.3784 94.026Z" fill="#FFC648"/>
<path d="M31.6473 74.0374L31.2857 73.5583C38.7261 66.1993 29.1521 58.5329 25.5269 57.2853C24.9392 57.0864 25.0387 56.3813 25.4093 55.3235C26.0964 51.9604 28.0311 42.9651 28.9623 43.4533C29.6403 43.8059 29.9115 44.9269 29.5499 47.8651L29.6584 47.9464C30.2189 46.5452 30.7252 45.6049 31.0145 45.8129C31.5298 46.1835 31.6925 47.0785 31.2857 49.2483L31.4575 49.3929C31.9637 48.4889 32.3615 47.9826 32.6327 48.2086C33.0667 48.6335 33.2113 49.3568 32.9492 50.7852C33.0215 50.8575 33.1028 50.9298 33.1752 51.0112C33.6634 50.0438 34.0792 49.4472 34.3504 49.6461C34.8748 50.0438 35.0466 50.8575 34.6759 52.6656C34.7482 52.747 34.8115 52.8374 34.8748 52.9187C35.3811 52.2226 35.7788 51.8429 36.032 52.078C36.5292 52.5571 36.6648 53.3436 36.267 54.8444L36.3846 55.0433C37.0355 54.2839 37.5417 53.8409 37.6773 54.1392C37.9305 54.5912 37.8672 55.2874 37.2253 56.6073L37.37 56.8966C37.822 56.5259 38.1565 56.3813 38.274 56.6163C38.371 56.9263 38.3985 57.2538 38.3548 57.5757C38.311 57.8975 38.1971 58.2058 38.0209 58.4787C38.0209 58.6052 38.0932 58.7318 38.1384 58.8584C38.6357 58.3792 39.0425 58.1532 39.1419 58.3883C39.4222 58.9217 39.3408 59.6539 38.5814 61.01V61.2179C39.16 60.8021 39.5939 60.6213 39.7205 60.9196C40.0098 61.6248 39.7205 62.3571 38.5452 63.7855C39.2504 63.1978 39.7928 62.8814 39.8923 63.1345C40.1273 63.7855 39.7024 64.563 37.8762 66.4976C38.6176 65.9733 39.1871 65.684 39.151 66.0908C39.0515 67.1214 38.3283 67.8989 35.5347 70.2494C34.3772 71.6466 33.074 72.9164 31.6473 74.0374Z" fill="#FFE05C"/>
<path d="M31.2856 73.5583C38.3372 66.579 29.7578 59.1929 25.789 57.3938C26.8056 55.3861 27.6261 53.285 28.2389 51.1197C28.8984 49.2175 29.3855 47.2599 29.6945 45.2704C29.7202 46.1439 29.6718 47.0179 29.5498 47.8832L29.6583 47.9645C29.4052 49.5737 27.0637 55.9202 27.7869 56.101C28.5102 56.2818 30.4991 50.8213 31.2856 49.2573L31.4574 49.402C29.803 53.9222 28.6006 56.544 29.1068 56.8333C29.9386 57.2853 31.1862 54.4014 32.9491 50.7942C33.0214 50.8665 33.1028 50.9389 33.1751 51.0202C32.2168 52.8735 29.7126 57.2401 30.4629 57.7645C31.2133 58.2888 32.705 55.3597 34.6849 52.6746C34.7572 52.756 34.8205 52.8464 34.8837 52.9278C33.2564 55.4139 31.1862 59.3466 31.4303 59.5816C31.9185 60.0698 34.5312 56.8695 36.276 54.8534L36.3935 55.0523C33.4282 58.8041 32.6507 60.5218 32.7773 60.775C33.0395 61.236 34.3684 59.8076 37.2252 56.5711L37.3699 56.8604C34.1515 60.3862 33.5367 61.5886 33.6361 61.8237C33.817 62.2757 34.7933 61.6881 37.9937 58.4425C37.9937 58.5691 38.066 58.6956 38.1112 58.8222C35.3267 61.5796 34.1515 63.4058 34.278 63.6408C34.5583 64.1742 36.2308 62.7368 38.5542 60.9287V61.1366C35.2906 63.903 34.7481 65.0421 34.8657 65.3404C35.155 66.0546 36.9811 64.7257 38.4819 63.7041C35.1911 66.4976 34.947 67.1576 35.0465 67.4288C35.2815 68.0888 36.5382 67.3022 37.8129 66.4163C35.5889 68.1611 34.4498 69.49 34.3956 69.8969C34.2961 70.5478 35.2544 70.159 35.4804 70.1681C34.3224 71.5621 33.0192 72.8289 31.593 73.947L31.2856 73.5583Z" fill="#FFC648"/>
<path d="M30.8242 74.8511L30.3451 74.4895C22.9047 81.8485 15.3468 72.1841 14.1535 68.5498C13.9636 67.9532 13.2494 68.0436 12.2007 68.4142C8.8286 69.0561 -0.184811 70.8913 0.294338 71.8315C0.637878 72.5096 1.74986 72.7898 4.69707 72.4644L4.77844 72.5729C3.36811 73.1243 2.41887 73.6125 2.6268 73.9018C2.99746 74.4262 3.89246 74.5979 6.06219 74.2182L6.20684 74.39C5.30279 74.8872 4.77844 75.2941 5.00445 75.5472C5.42031 75.9812 6.15261 76.1439 7.57197 75.8908L7.79799 76.1258C6.82161 76.5959 6.22493 77.0299 6.42382 77.292C6.81256 77.8164 7.63525 77.9972 9.44336 77.6446L9.68745 77.8525C8.98229 78.3407 8.60259 78.7566 8.83764 78.9917C9.31679 79.4889 10.0943 79.6426 11.604 79.2538L11.8029 79.3804C11.0345 80.0223 10.5825 80.5195 10.8356 80.6642C11.2876 80.9263 11.9747 80.863 13.3037 80.2302L13.593 80.3839C13.2223 80.8359 13.0686 81.1614 13.3037 81.288C13.614 81.3865 13.9421 81.4164 14.2652 81.3759C14.5883 81.3353 14.8987 81.2251 15.1751 81.0529L15.5457 81.1704C15.0666 81.6677 14.8315 82.0745 15.0666 82.1739C15.6 82.4632 16.3322 82.3819 17.6883 81.6405H17.9053C17.4804 82.2101 17.2905 82.6531 17.5889 82.7796C18.294 83.0689 19.0263 82.8339 20.4728 81.6315C19.8761 82.3367 19.5688 82.8791 19.8038 82.9785C20.4547 83.2226 21.2322 82.7977 23.194 80.9987C22.6606 81.74 22.3532 82.3095 22.7691 82.2734C23.7997 82.183 24.6224 81.4688 26.9639 78.7114C28.3867 77.5682 29.681 76.2738 30.8242 74.8511Z" fill="#FFE05C"/>
<path d="M30.3454 74.4895C23.2938 81.4597 15.9981 72.7989 14.2532 68.812C12.2244 69.8045 10.1053 70.6007 7.92486 71.1897C6.01035 71.8239 4.04409 72.2898 2.04851 72.5819C2.92418 72.6194 3.80145 72.5801 4.67026 72.4644L4.75162 72.5729C6.36084 72.3378 12.7344 70.0686 12.8881 70.7647C13.0418 71.4609 7.58131 73.4769 6.00826 74.1911L6.15291 74.3629C10.6732 72.7537 13.3221 71.5874 13.6023 72.0937C14.0543 72.9345 11.1523 74.1459 7.51802 75.8636L7.74404 76.0987C9.61543 75.1946 14.0001 72.6994 14.5244 73.4498C15.0488 74.2002 12.0925 75.6647 9.38942 77.6175L9.63352 77.8254C12.1377 76.2252 16.0975 74.2092 16.3325 74.4352C16.8117 74.9324 13.5481 77.509 11.5501 79.2267L11.749 79.3533C15.5279 76.4241 17.2547 75.6647 17.5078 75.8094C17.9598 76.0715 16.5224 77.3824 13.2497 80.2031L13.539 80.3568C17.101 77.1745 18.3124 76.5778 18.5475 76.6773C18.9905 76.8671 18.4028 77.8344 15.1211 80.9986L15.4918 81.1162C18.2763 78.404 20.1205 77.2107 20.3556 77.3372C20.8799 77.6265 19.4515 79.2809 17.6434 81.5863H17.8604C20.6539 78.3588 21.8021 77.8254 22.1004 77.9701C22.8056 78.2684 21.4585 80.0855 20.4279 81.5863C23.2576 78.3317 23.9176 78.0966 24.1888 78.1961C24.8397 78.4402 24.0441 79.6787 23.1491 80.9082C24.9572 78.7114 26.2591 77.5904 26.6659 77.5361C27.3168 77.4457 26.919 78.4402 26.919 78.621C28.3282 77.4814 29.6103 76.1932 30.7432 74.7787L30.3454 74.4895Z" fill="#FFC648"/>
<path d="M25.2465 66.2987C25.7528 66.6332 25.7437 67.6729 25.2465 68.6221C24.7493 69.5714 23.8904 70.0777 23.3751 69.7432C22.8598 69.4087 22.8779 68.3781 23.3751 67.4198C23.8723 66.4615 24.686 66.0004 25.2465 66.2987Z" fill="#FFF48D"/>
<path d="M64.2653 92.3716C59.2387 95.8613 57.503 97.9496 57.4397 99.5408C57.3764 101.132 62.1769 104.649 62.638 105.119C63.099 105.589 65.7298 104.649 65.097 103.311C64.4098 102.187 63.5173 101.203 62.4662 100.409C62.4662 100.409 66.2813 98.7904 65.3953 95.8884C64.7263 93.6825 64.2653 92.3716 64.2653 92.3716Z" fill="#FFB882"/>
<path d="M58.1357 102.262C57.0056 102.569 54.3658 104.251 54.1669 104.974C53.968 105.697 55.5863 107.099 56.6079 106.782C57.6294 106.466 59.7359 104.848 59.8896 104.151C60.0433 103.455 58.7143 102.163 58.1357 102.262Z" fill="#FFB882"/>
<path d="M61.4808 104.875C60.396 105.182 57.7923 106.9 57.5753 107.65C57.3584 108.401 58.8229 109.838 59.7993 109.549C60.7757 109.259 62.8731 107.578 63.0539 106.836C63.2347 106.095 61.9962 104.685 61.4808 104.875Z" fill="#FFB882"/>
<path d="M64.6449 106.493C63.5691 106.864 61.0739 108.726 60.9021 109.494C60.7304 110.263 62.2673 111.601 63.2256 111.303C64.1839 111.004 66.1818 109.16 66.3265 108.428C66.4711 107.695 65.1422 106.321 64.6449 106.493Z" fill="#FFB882"/>
<path d="M176.052 18.2031C177.063 17.5827 178.277 17.3847 179.433 17.6516C180.337 17.9047 184.478 16.7928 184.948 16.3498C185.727 15.7115 186.275 14.8348 186.507 13.8546C186.739 12.8745 186.642 11.8453 186.232 10.9255C185.138 8.14097 183.212 7.46293 181.621 7.99632C180.03 8.52971 176.432 5.88083 175.763 5.86275C174.153 5.81755 174.235 8.36698 172.047 10.7085C166.252 16.9012 170.121 21.4125 176.052 18.2031Z" fill="#FFB882"/>
<path d="M172.535 11.0882C172.49 10.0395 175.491 4.67844 176.585 3.95519C177.679 3.23195 179.514 0.682521 180.03 0.122008C180.545 -0.438506 182.443 1.08935 182.136 1.7041C181.829 2.31886 179.198 5.04006 178.972 5.88987C178.511 7.57141 180.5 7.89687 181.078 8.18617C180.545 9.3524 172.652 14.0083 172.535 11.0882Z" fill="#FFB882"/>
<path d="M178.33 8.14096C180.201 7.74318 182.733 7.481 183.239 7.16458C184.333 6.50462 185.924 2.44542 186.511 2.35502C187.099 2.26461 189.025 2.56295 188.681 3.53029C188.338 4.49763 186.466 8.7286 185.607 9.23487C184.156 9.95513 182.643 10.5451 181.087 10.9978C180.78 11.0159 177.697 8.28561 178.33 8.14096Z" fill="#FFB882"/>
<path d="M181.621 9.80442C183.655 9.6869 186.756 9.92195 187.235 9.46088C187.714 8.99982 190.182 5.61865 190.544 5.37456C190.905 5.13047 192.84 6.47751 192.451 7.23691C192.062 7.99632 189.649 11.6668 188.735 12.1278C187.234 12.6715 185.675 13.0386 184.089 13.2217C183.736 13.1946 180.915 9.84059 181.621 9.80442Z" fill="#FFB882"/>
<path d="M182.552 12.824C184.622 13.2218 187.072 13.8184 187.633 13.5201C188.193 13.2218 190.86 11.3323 191.249 11.2057C191.638 11.0791 193.274 12.6612 192.713 13.3212C192.153 13.9812 188.69 16.3317 187.687 16.5306C186.683 16.7295 184.351 16.7204 182.895 17.1182C182.534 17.1815 181.829 12.6612 182.552 12.824Z" fill="#FFB882"/>
</svg>
