<svg width="221" height="200" viewBox="0 0 221 200" fill="none" xmlns="http://www.w3.org/2000/svg">
<path d="M46.7006 96.7429C40.8922 99.1276 34.4024 100.294 33.3463 103.292C32.2902 106.29 38.9844 115.974 41.6246 116.153C44.2648 116.332 52.458 108.837 52.458 108.837L46.7006 96.7429Z" fill="#FF9566"/>
<path d="M132.814 15.0157C129.876 12.8865 132.865 11.609 132.865 11.609C132.865 11.609 130.923 12.9972 133.291 14.2151C134.926 15.0668 138.128 17.1534 134.645 20.7816L130.071 20.0832C133.316 19.9981 135.454 16.9235 132.814 15.0157Z" fill="#495D6D"/>
<path d="M150.733 27.5354C151.764 26.6837 153.373 29.7668 151.312 30.0904C148.119 30.644 148.706 26.3005 142.361 24.6312L146.407 32.0749C146.407 32.0749 150.461 38.4369 153.484 34.0337C156.746 29.2814 151.943 25.7724 150.733 27.5354Z" fill="#232D35"/>
<path d="M127.721 24.035C121.614 23.8306 120.993 28.1571 118.293 26.7263C116.589 25.798 118.804 23.3196 119.494 24.4097C118.881 22.3742 113.643 24.3672 115.312 29.886C116.845 34.9961 122.125 30.0223 122.125 30.0223L127.721 24.035Z" fill="#232D35"/>
<path d="M139.21 20.7135C134.406 17.426 131.817 21.6333 130.344 18.7802C129.39 16.9405 132.405 15.4501 132.422 16.9746C132.908 14.5388 127.746 13.9852 126.46 20.5772C125.242 26.6412 131.886 24.1543 131.886 24.1543L139.21 20.7135Z" fill="#495D6D"/>
<path d="M130.123 19.5893C134.5 17.162 136.936 20.1428 138.282 18.0818C139.133 16.7446 137.532 16.0803 136.331 16.8128C136.893 14.13 144.303 15.3905 142.293 22.0847C141.007 26.4112 136.97 21.9569 136.97 21.9569L130.123 19.5893Z" fill="#495D6D"/>
<path d="M120.703 29.4091C111.837 31.6746 111.215 39.0331 107.928 36.7847C104.64 34.5363 107.494 32.2452 109.044 33.1821C107.153 31.2147 100.919 35.5498 105.714 39.4164C111.19 43.8366 115.627 38.2155 115.627 38.2155L120.703 29.4091Z" fill="#232D35"/>
<path d="M60.5572 199.728H194.05C194.05 199.728 177.518 171.861 149.158 175.498C120.797 179.134 60.5572 199.728 60.5572 199.728Z" fill="#84CBF7"/>
<path d="M60.5572 199.728H184.051C184.051 199.728 168.976 177.584 142.71 180.497C116.444 183.41 60.5572 199.728 60.5572 199.728Z" fill="#69A2CC"/>
<path d="M111.104 199.728H32.7499C32.7499 199.728 53.0966 196.083 62.3884 181.843C94.105 133.101 111.104 199.728 111.104 199.728Z" fill="#69A2CC"/>
<path d="M41.122 101.972C65.6163 72.8533 98.2612 47.3625 109.052 41.6307L104.053 83.9933L49.2641 110.523L41.122 101.972Z" fill="#FFB882"/>
<path d="M106.165 69.4551L105.594 85.0834L49.2981 110.523L44.1795 106.461L106.165 69.4551Z" fill="#FF9566"/>
<path d="M103.499 56.8503C109.137 44.8756 119.434 25.4573 127.883 21.1819C136.331 16.9065 125.327 51.7657 125.327 51.7657L103.499 56.8503Z" fill="#232D35"/>
<path d="M161.567 57.1909C155.792 45.2163 148.459 25.9428 139.806 21.6674C131.153 17.3919 142.012 51.7657 142.012 51.7657L161.567 57.1909Z" fill="#232D35"/>
<path d="M170.961 94.3242C171.301 73.9946 165.101 53.6565 152.692 45.046L148.553 90.3639C148.553 90.3639 158.032 110.523 165.961 112.252C173.89 113.981 170.867 99.5024 170.961 94.3242Z" fill="#FFB882"/>
<path d="M152.692 45.046C155.298 46.843 157.862 62.7609 157.862 69.1741C157.862 85.8244 162.41 99.3235 168.031 99.3235C169.211 99.2682 170.323 98.7549 171.131 97.8927C171.599 104.195 172.459 113.657 165.961 112.252C158.032 110.549 148.553 90.3639 148.553 90.3639L152.692 45.046Z" fill="#FF9566"/>
<path d="M103.584 120.522C105.965 114.086 106.839 107.189 106.139 100.363C106.139 100.363 97.5288 69.915 95.4592 60.0355C95.4592 60.0355 99.8198 40.5065 124.416 35.2261C149.013 29.9457 160.715 55.6664 160.715 55.6664C160.715 55.6664 163.951 71.9846 149.933 96.3427C135.914 120.701 103.584 120.522 103.584 120.522Z" fill="#FFB882"/>
<path d="M126.784 84.9216C142.114 82.852 155.741 58.8857 149.303 42.3376C146.356 34.7491 144.261 29.4432 141.637 25.9854C140.735 20.9945 135.045 20.3813 131.681 20.3813C129.586 20.3813 124.323 22.2805 124.987 25.4914C120.618 31.5979 116.785 42.0225 116.632 50.2923C116.402 62.7864 132.371 72.5978 127.431 78.2019C122.492 83.8059 117.901 78.2018 119.971 73.4154C115.866 78.6192 118.174 86.0969 126.784 84.9216Z" fill="#FF9566"/>
<path d="M115.227 38.0877C115.397 38.4795 116.078 38.2325 116.615 38.4965C119.085 39.6804 118.702 33.1991 124.876 28.5319L121.827 38.2496C121.827 38.2496 119.902 43.5896 115.695 41.0005C115.255 40.7899 114.871 40.4778 114.575 40.0899C114.279 39.702 114.079 39.2493 113.992 38.7691L115.227 38.0877Z" fill="#FF9566"/>
<path d="M123.965 29.5369C114.043 42.5846 118.31 55.6664 112.544 55.2065C106.778 54.7466 108.848 47.9502 111.505 47.9502C107.698 46.5705 103.661 57.506 112.544 59.1157C122.679 60.9553 123.531 49.6791 123.531 49.6791L123.965 29.5369Z" fill="#FF9566"/>
<path d="M106.267 100.363C106.267 100.363 98.0058 78.9939 97.2052 67.0448C100.305 78.3041 106.574 85.1686 108.677 86.4035C111.599 88.1069 128.266 84.5043 132.925 82.2644C137.583 80.0244 134.815 54.5081 134.602 36.0863C134.602 36.0863 133.649 35.4305 132.133 34.5362C146.253 35.1154 149.43 77.9719 153.109 83.8144C161.354 70.9796 152.769 89.674 149.916 96.3426C148.613 99.3831 146.364 101.734 144.286 103.957C143.06 95.0992 137.796 85.3475 129.808 86.5739C120.337 88.0217 110.994 102.679 110.159 114.356C110.018 116.235 110.096 118.124 110.389 119.985C108.16 120.302 105.913 120.481 103.661 120.522C106.054 114.088 106.945 107.193 106.267 100.363Z" fill="#FF9566"/>
<path d="M159.472 74.5141C161.107 61.3216 155.946 47.6947 155.946 47.6947L151.917 44.058L154.992 88.686L159.472 74.5141Z" fill="#FF9566"/>
<path d="M164.871 199.728C124.893 177.21 95.9446 199.728 95.9446 199.728H50.2861C50.2861 199.728 82.8543 196.969 96.4131 160.44C109.972 123.912 164.871 199.728 164.871 199.728Z" fill="#2D5268"/>
<path d="M112.237 142.546C97.9802 178.853 82.7862 199.558 82.7862 199.558H81.9345L99.3855 129.456L112.237 142.546Z" fill="#FFB882"/>
<path d="M84.6769 188.511L99.3855 129.456L112.237 142.58C106.36 157.672 99.3388 172.292 91.2349 186.314C88.99 186.857 86.796 187.593 84.6769 188.511Z" fill="#FF9566"/>
<path d="M132.499 136.755C136.851 175.992 146.185 198.442 146.185 198.442H147.037L148.383 122.557L132.499 136.755Z" fill="#FF9566"/>
<path d="M105.594 115.872C118.421 103.463 156.142 67.1556 150.623 40.7365L153.34 43.4959C164.181 71.5417 143.307 139.208 158.381 183.963C166.481 207.972 189.11 188.069 189.11 188.069C189.11 188.069 181.7 199.992 163.611 199.992C151.687 199.992 147.667 180.685 103.269 177.695C73.3157 175.685 85.5799 199.984 46.7518 199.984C81.0064 199.498 92.7255 128.272 105.594 115.872Z" fill="#557999"/>
<path d="M145.453 87.4937C135.233 102.654 130.864 110.932 130.864 128.161C130.864 145.391 124.433 169.17 124.433 169.17C124.433 169.17 133.333 146.932 133.964 128.604C134.798 104.519 145.453 87.4937 145.453 87.4937Z" fill="#436E8E"/>
<path d="M105.594 115.872C118.421 103.463 156.142 67.1556 150.623 40.7365L152.769 42.8827L153.212 54.8744C153.212 54.8744 154.063 61.015 156.448 76.0982C155.137 108.615 147.65 152.094 158.381 183.929C166.481 207.972 189.11 188.069 189.11 188.069C189.11 188.069 181.7 199.992 163.611 199.992C156.354 199.992 152.028 192.889 139.84 186.629C140.377 185.624 140.897 184.56 141.408 183.444C154.268 155.177 153.263 74.9485 151.083 73.935C148.902 72.9215 111.335 108.471 98.4999 136.712C91.2691 152.63 87.8539 168.224 88.3564 179.765C76.2795 185.42 76.8076 199.958 46.7774 199.958C81.0064 199.498 92.7255 128.272 105.594 115.872Z" fill="#436E8E"/>
<path d="M167.682 111.128C178.609 109.714 191.145 91.6499 192.21 76.2089C192.44 72.8788 182.39 68.0157 180.286 71.2947C176.812 76.8306 161.958 76.7795 159.31 92.9785C156.661 109.177 163.185 111.715 167.682 111.128Z" fill="#FFB882"/>
<path d="M158.637 93.464C158.96 91.7072 159.422 89.9787 160.016 88.2943C161.592 93.8898 165.978 95.6698 168.882 95.2866C176.428 94.3071 183.736 89.41 186.146 76.9584C186.299 76.1068 190.404 75.1955 192.21 76.2345C191.145 91.6499 178.77 110.932 167.843 112.346C163.347 112.925 155.997 109.663 158.637 93.464Z" fill="#FF9566"/>
<path d="M123.624 27.808C113.702 40.8217 117.969 53.9375 112.203 53.4776C106.437 53.0177 108.507 46.2298 111.164 46.2298C107.357 44.8501 103.312 55.7857 112.203 57.3953C122.33 59.235 123.164 47.9587 123.164 47.9587L123.624 27.808Z" fill="#3C4956"/>
<path d="M125.191 25.551C118.557 30.4993 118.812 37.4745 116.07 36.444C113.328 35.4135 115.286 32.407 116.572 32.7733C114.92 31.5809 111.462 36.3333 115.525 38.3432C120.201 40.6428 122.168 35.2772 122.168 35.2772L125.191 25.551Z" fill="#3C4956"/>
<path d="M145.146 28.5575C152.045 35.0047 150.784 42.8316 154.063 42.0396C157.342 41.2475 155.537 37.5938 154.004 37.8323C156.073 36.6995 159.395 42.5165 154.421 44.2539C148.749 46.2383 147.25 39.9274 147.25 39.9274L145.146 28.5575Z" fill="#3C4956"/>
<path d="M127.789 82.2048C143.119 80.1692 156.371 56.4159 149.933 40.1062C146.994 32.637 145.24 27.595 142.659 24.1968C141.748 19.2826 136.067 18.6779 132.703 18.6779C130.608 18.6779 125.336 20.5516 126.009 23.6943C121.64 29.6561 117.807 39.9529 117.654 48.0865C117.424 60.3847 133.393 70.0342 128.453 75.5446C123.514 81.055 118.914 75.5446 120.984 70.8348C116.853 76.0045 119.144 83.3545 127.789 82.2048Z" fill="#495D6D"/>
<path d="M137.881 32.0749C136.374 33.0969 134.475 33.148 132.039 32.0153L133.427 29.0855H136.527L137.881 32.0749Z" fill="#3C4956"/>
<path d="M141.143 29.077C141.143 29.077 137.737 29.3154 134.688 29.324C132.544 29.3226 130.406 29.0971 128.308 28.6511C128.308 28.6511 129.322 32.2708 134.883 30.4908C140.854 32.6966 141.143 29.077 141.143 29.077Z" fill="#3C4956"/>
<path d="M123.684 27.3821C124.381 26.1055 125.158 24.8738 126.009 23.6944C135.377 25.8321 142.523 23.4729 142.659 24.1968C143.41 25.2072 144.085 26.2718 144.678 27.3821H123.684Z" fill="#3C4956"/>
<path d="M128.453 75.5446C133.393 70.0342 116.794 60.6147 117.024 48.2909C117.109 43.5896 118.727 36.9806 121.01 33.0543C120.608 35.3948 120.408 37.7656 120.413 40.1403C120.413 53.8438 126.818 64.9497 134.713 64.9497C142.608 64.9497 149.013 53.8779 149.013 40.1403C149.013 38.982 149.013 37.8407 148.877 36.7336C149.328 37.8493 149.788 39.0246 150.282 40.2595C156.746 56.5947 143.119 80.1692 127.789 82.2048C119.17 83.3545 116.879 76.0045 120.976 70.8348C118.914 75.5446 123.531 81.0635 128.453 75.5446Z" fill="#3C4956"/>
<path d="M141.169 28.8726C141.169 28.8726 137.703 28.7874 134.671 28.8726C132.538 28.9956 130.398 28.9072 128.283 28.6086C128.283 28.6086 129.382 31.6661 134.96 29.7754C140.939 31.896 141.169 28.8726 141.169 28.8726Z" fill="#FFB882"/>
<path d="M134.952 29.324C132.988 29.9635 130.877 29.9932 128.896 29.4091C128.631 29.1745 128.421 28.8835 128.283 28.5575C130.398 28.8561 132.538 28.9445 134.671 28.8215C137.703 28.7789 141.169 28.8215 141.169 28.8215C141.126 29.0931 141.018 29.3502 140.854 29.571C140.002 29.9542 137.072 29.8094 134.952 29.324Z" fill="#FF9566"/>
<path d="M136.8 31.7172C135.846 32.5689 134.636 32.5689 133.12 31.6661L133.972 29.2814H135.948L136.8 31.7172Z" fill="#FF9566"/>
<path d="M136.263 31.5128C135.616 32.143 134.781 32.1771 133.708 31.5128L134.313 29.6902C134.514 29.5631 134.748 29.4956 134.986 29.4956C135.224 29.4956 135.457 29.5631 135.658 29.6902L136.263 31.5128Z" fill="#FFB882"/>
<path d="M149.984 40.3362C155.843 55.6664 147.88 66.9597 153.612 68.2202C159.344 69.4806 159.301 62.3947 156.746 61.6111C160.851 61.4152 161.592 73.0492 152.488 71.959C142.097 70.69 144.576 59.7034 144.576 59.7034L149.984 40.3362Z" fill="#3C4956"/>
<path d="M122.509 56.978C125.191 48.1546 120.235 42.261 123.428 41.2816C126.622 40.3021 126.886 44.2539 125.455 44.816C127.78 44.7309 127.729 38.2155 122.636 39.2546C116.819 40.4384 118.668 46.4513 118.668 46.4513L122.509 56.978Z" fill="#3C4956"/>
<path d="M146.722 52.5663C149.805 43.2404 148.315 37.7471 145.163 37.2361C142.012 36.725 142.268 40.7194 143.673 41.0516C141.459 41.3156 140.692 34.8939 145.657 35.1409C151.329 35.4305 150.333 41.6392 150.333 41.6392C150.163 44.4838 148.485 48.4953 146.722 52.5663Z" fill="#3C4956"/>
<path d="M74.2354 199.668H84.2256C84.2256 199.668 84.9155 196.338 83.425 195.878C81.9346 195.419 74.2354 199.668 74.2354 199.668Z" fill="#FFB882"/>
<path d="M154.949 199.668H145.01C145.01 199.668 144.329 196.338 145.81 195.878C147.292 195.419 154.949 199.668 154.949 199.668Z" fill="#FFB882"/>
<path d="M125.191 15.6034C125.191 15.6034 125.132 22.8427 126.741 23.3111C127.287 23.4199 127.839 23.4911 128.394 23.524C128.517 20.5052 128.985 17.5104 129.79 14.5984C129.922 17.6332 130.221 20.6583 130.685 23.6603L132.72 23.7199C133.248 21.7014 133.921 19.1975 133.921 19.1975C134.271 20.6953 134.521 22.2146 134.671 23.7455C135.65 23.7455 136.612 23.7455 137.507 23.7029C138.571 19.1719 139.099 14.7602 139.099 14.7602C139.569 17.6823 139.695 20.6493 139.474 23.6007C140.263 23.6051 141.046 23.4606 141.782 23.1748C142.957 22.3231 142.872 14.2492 142.872 14.2492C144.217 17.9812 144.58 21.9959 143.928 25.9087L123.948 26.5134C123.863 22.6383 123.837 19.0442 125.191 15.6034Z" fill="#9DC6C0"/>
<path d="M143.213 83.8145C119.877 107.38 109.265 128.272 109.265 128.272C121.997 114.59 133.367 99.7003 143.213 83.8145Z" fill="#436E8E"/>
<path d="M99.8964 177.559C118.284 149.368 127.014 132.931 127.014 132.931C127.014 132.931 121.12 159.452 110.151 178.3C107.982 178.044 105.711 177.834 103.337 177.67C102.094 177.593 100.97 177.559 99.8964 177.559Z" fill="#436E8E"/>
<g style="mix-blend-mode:overlay">
<path d="M61.0941 195.163C83.4677 190.053 78.1277 172.5 103.814 174.229C148.212 177.21 152.19 196.526 164.156 196.526C166.638 196.531 169.115 196.289 171.548 195.802C180.202 195.887 189.11 188.069 189.11 188.069C189.11 188.069 181.7 199.992 163.611 199.992C151.687 199.992 148.127 180.685 103.729 177.695C73.7756 175.685 85.5799 199.984 46.7518 199.984C51.9112 199.871 56.9139 198.189 61.0941 195.163Z" fill="#C7F3FF"/>
</g>
<path d="M162.478 199.967H196.204C211.151 199.967 219.004 195.955 220.452 183.682C222.155 169.459 210.666 162.254 210.666 162.254C210.666 162.254 202.865 151.123 191.239 154.589C179.614 158.055 178.285 167.211 178.285 167.211C178.285 167.211 176.326 165.056 173.49 167.381C167.614 172.219 178.14 193.988 162.478 199.967Z" fill="#84CBF7"/>
<path d="M171.071 189.568C177.033 195.691 188.045 199.14 200.233 197.863C206.302 197.289 212.184 195.456 217.505 192.48C213.792 197.991 206.774 200.001 196.213 200.001H162.486C167.818 197.914 170.143 194.013 171.071 189.568Z" fill="#63BAE5"/>
<path d="M173.49 167.407C174.083 166.881 174.807 166.525 175.585 166.376C180.261 168.003 182.058 177.763 179.571 188.648C178.575 193 175.866 199.967 170.271 199.967H162.478C178.14 193.988 167.613 172.219 173.49 167.407Z" fill="#63BAE5"/>
<path d="M196.315 185.394C195.617 188.222 195.08 191.245 193.189 193.46C192.887 193.893 192.48 194.242 192.007 194.476C191.533 194.71 191.009 194.82 190.481 194.797C189.442 194.635 188.718 193.17 189.51 192.472C188.925 192.203 188.461 191.727 188.206 191.135C187.951 190.544 187.924 189.879 188.13 189.269C187.279 190.436 186.146 191.731 184.724 191.552C185.85 187.974 186.349 184.228 186.197 180.48C186.061 177.389 185.09 173.803 182.203 172.687C182.039 172.604 181.858 172.56 181.675 172.56C181.491 172.56 181.31 172.604 181.147 172.687C180.905 172.89 180.747 173.175 180.704 173.488C179.12 179.628 180.337 186.57 177.084 192.02C176.712 192.743 176.114 193.323 175.381 193.673C175.018 193.838 174.605 193.857 174.228 193.727C173.851 193.597 173.538 193.328 173.354 192.974C173.251 192.607 173.251 192.218 173.354 191.85C173.577 190.611 174.034 189.426 174.699 188.358C173.592 189.389 173.286 191.007 172.63 192.37C172.138 193.356 171.45 194.231 170.608 194.941C169.766 195.651 168.787 196.182 167.733 196.5C175.398 188.06 168.44 171.537 173.473 167.415C176.309 165.09 178.268 167.245 178.268 167.245C178.268 167.245 179.597 158.106 191.222 154.623C202.847 151.14 210.649 162.288 210.649 162.288C210.649 162.288 222.138 169.485 220.452 183.682C220.218 186.143 219.558 188.543 218.501 190.777C217.999 191.279 217.505 191.79 216.985 192.276C216.821 192.489 216.609 192.66 216.367 192.776C216.124 192.891 215.857 192.948 215.589 192.94C214.958 192.821 214.677 192.089 214.515 191.475C214.02 189.853 213.694 188.183 213.544 186.493C213.516 187.141 213.234 187.753 212.761 188.196C212.063 188.758 210.674 188.196 210.913 187.345C210.518 188.524 209.867 189.6 209.005 190.496C208.84 188.912 208.795 187.317 208.869 185.726C206.753 188.805 204.166 191.533 201.204 193.809C200.241 194.541 199.091 195.265 197.899 195.035C200.382 190.958 201.694 186.276 201.689 181.502C201.753 180.894 201.693 180.279 201.515 179.693C201.336 179.108 201.042 178.565 200.65 178.095C198.129 179.56 197.013 182.567 196.315 185.394ZM215.512 179.407C215.818 178.095 215.41 176.452 214.149 176L213.715 184.091C213.777 183.76 213.859 183.433 213.962 183.112C214.405 181.851 215.197 180.71 215.512 179.407Z" fill="#C7F3FF"/>
<path d="M196.315 185.394C195.617 188.222 195.08 191.245 193.189 193.46C192.887 193.893 192.48 194.242 192.007 194.476C191.533 194.71 191.009 194.82 190.481 194.797C189.442 194.635 188.718 193.17 189.51 192.472C188.925 192.203 188.461 191.727 188.206 191.135C187.951 190.544 187.924 189.879 188.13 189.269C187.279 190.436 186.146 191.731 184.724 191.552C185.85 187.974 186.349 184.228 186.197 180.48C186.061 177.389 185.09 173.803 182.203 172.687C182.039 172.604 181.858 172.56 181.675 172.56C181.491 172.56 181.31 172.604 181.147 172.687C180.905 172.89 180.747 173.175 180.704 173.488C179.12 179.628 180.337 186.57 177.084 192.02C176.712 192.743 176.114 193.323 175.381 193.673C175.018 193.838 174.605 193.857 174.228 193.727C173.851 193.597 173.538 193.328 173.354 192.974C173.251 192.607 173.251 192.218 173.354 191.85C173.577 190.611 174.034 189.426 174.699 188.358C173.592 189.389 173.286 191.007 172.63 192.37C172.138 193.356 171.45 194.231 170.608 194.941C169.766 195.651 168.787 196.182 167.733 196.5C175.398 188.06 168.44 171.537 173.473 167.415C176.309 165.09 178.268 167.245 178.268 167.245C178.268 167.245 179.597 158.106 191.222 154.623C202.847 151.14 210.649 162.288 210.649 162.288C210.649 162.288 222.138 169.485 220.452 183.682C220.218 186.143 219.558 188.543 218.501 190.777C217.999 191.279 217.505 191.79 216.985 192.276C216.821 192.489 216.609 192.66 216.367 192.776C216.124 192.891 215.857 192.948 215.589 192.94C214.958 192.821 214.677 192.089 214.515 191.475C214.02 189.853 213.694 188.183 213.544 186.493C213.516 187.141 213.234 187.753 212.761 188.196C212.063 188.758 210.674 188.196 210.913 187.345C210.518 188.524 209.867 189.6 209.005 190.496C208.84 188.912 208.795 187.317 208.869 185.726C206.753 188.805 204.166 191.533 201.204 193.809C200.241 194.541 199.091 195.265 197.899 195.035C200.382 190.958 201.694 186.276 201.689 181.502C201.753 180.894 201.693 180.279 201.515 179.693C201.336 179.108 201.042 178.565 200.65 178.095C198.129 179.56 197.013 182.567 196.315 185.394ZM215.512 179.407C215.818 178.095 215.41 176.452 214.149 176L213.715 184.091C213.777 183.76 213.859 183.433 213.962 183.112C214.405 181.851 215.197 180.71 215.512 179.407Z" fill="#C7F3FF"/>
<path d="M173.49 167.407C174.022 166.947 174.651 166.612 175.33 166.427C175.57 166.506 175.806 166.597 176.037 166.7C178.498 167.892 179.954 170.831 180.406 174.808C179.273 180.608 180.099 186.953 177.084 192.012C176.712 192.734 176.114 193.315 175.381 193.664C175.018 193.829 174.605 193.849 174.228 193.719C173.851 193.589 173.538 193.319 173.354 192.966C173.251 192.598 173.251 192.209 173.354 191.842C173.577 190.603 174.034 189.418 174.7 188.35C173.592 189.38 173.286 190.998 172.63 192.361C172.138 193.347 171.45 194.222 170.608 194.932C169.766 195.643 168.787 196.173 167.733 196.492C175.44 188.052 168.457 171.529 173.49 167.407Z" fill="#A3E1EF"/>
<g style="mix-blend-mode:overlay" opacity="0.47">
<path d="M181.845 160.355C182.255 159.899 182.69 159.467 183.148 159.06C184.229 160.074 185.367 161.027 186.555 161.913C186.725 162.069 186.946 162.157 187.176 162.16C187.466 162.118 187.653 161.828 187.875 161.641C188.727 160.9 190.047 161.76 190.864 162.578L195.123 166.879C195.727 167.644 196.585 168.166 197.541 168.352C198.921 168.446 199.96 167.168 200.718 166.01C202.422 163.455 216.415 170.575 205.428 158.106C205.258 157.911 205.666 157.655 205.769 157.417C207.65 158.773 209.318 160.404 210.717 162.254C215.708 165.759 219.141 171.067 220.29 177.056C217.973 175.302 216.636 172.219 214.183 170.532C213.963 170.352 213.692 170.245 213.408 170.226C212.718 170.226 212.429 171.078 211.96 171.589C211.614 171.886 211.2 172.094 210.755 172.195C210.309 172.296 209.846 172.287 209.405 172.168C208.554 172.014 204.397 167.56 203.503 167.56C201.425 167.56 202.652 173.428 200.727 172.73C200.187 172.415 199.591 172.209 198.972 172.125C198.596 172.196 198.248 172.376 197.972 172.642C197.697 172.909 197.506 173.25 197.422 173.624C197.267 174.37 197.067 175.107 196.826 175.83C196.695 176.177 196.45 176.469 196.131 176.659C195.813 176.85 195.439 176.927 195.072 176.878C194.611 176.662 194.239 176.295 194.015 175.838C190.464 170.277 186.776 164.673 181.845 160.355Z" fill="#E1F9FF"/>
</g>
<path d="M52.3813 199.967H34.4535C21.9082 199.967 13.2977 184.372 16.3723 175.574C21.2099 161.718 44.0093 153.72 49.9285 161.607C55.4644 168.974 43.0214 175.958 43.0214 175.958C43.0214 175.958 47.9867 176.571 47.9611 180.625C47.9611 187.225 39.2229 190.513 41.1477 193.894C44.0093 198.893 52.3813 199.967 52.3813 199.967Z" fill="#84CBF7"/>
<path d="M32.7075 183.427C33.1078 172.858 40.9092 163.617 50.1329 162.791H50.6439C54.1784 169.715 43.0214 175.992 43.0214 175.992C43.0214 175.992 47.9867 176.605 47.9611 180.659C47.9611 187.259 39.2229 190.547 41.1477 193.928C44.0008 198.928 52.3728 200.001 52.3728 200.001H41.8631C36.1994 197.48 32.4009 191.177 32.7075 183.427Z" fill="#63BAE5"/>
<path d="M22.3511 177.44C22.1637 176.997 21.4994 177.218 21.1758 177.61C20.8521 178.002 20.6733 178.53 20.1963 178.606C19.4213 178.734 19.1403 177.619 19.1999 176.835C18.5512 177.861 17.8461 178.851 17.0877 179.799C16.8721 177.123 17.2292 174.431 18.1353 171.904C25.2638 160.38 44.5374 154.444 49.9285 161.607C55.4644 168.974 43.0214 175.958 43.0214 175.958C43.0214 175.958 47.9867 176.571 47.9611 180.625C47.9611 180.795 47.9611 180.957 47.9611 181.127C47.1378 182.212 46.2861 183.274 45.4061 184.313C44.7406 185.161 43.9408 185.895 43.0384 186.484C42.5881 186.779 42.0791 186.972 41.5466 187.05C41.0142 187.128 40.4712 187.089 39.9553 186.936C39.5191 186.784 39.1351 186.512 38.8485 186.15C38.5619 185.787 38.3845 185.351 38.3371 184.892C38.2882 185.061 38.1883 185.21 38.0511 185.32C37.9139 185.43 37.746 185.494 37.5706 185.505C37.4429 185.508 37.3162 185.481 37.1999 185.428C37.0837 185.375 36.9809 185.297 36.8991 185.199C36.8173 185.101 36.7586 184.985 36.7275 184.861C36.6963 184.738 36.6934 184.608 36.7189 184.483C36.012 184.926 35.0156 185.335 34.462 184.67C34.322 184.464 34.2316 184.228 34.198 183.981C33.7848 181.891 33.7848 179.742 34.198 177.653C34.4167 176.886 34.506 176.089 34.462 175.293C34.232 173.59 32.0602 172.406 30.6465 173.36C30.1558 173.742 29.7594 174.231 29.4882 174.791C28.2362 177.039 27.359 179.62 25.3831 181.272C24.7102 181.834 23.6797 182.26 23.0069 181.698C22.7627 181.466 22.5861 181.171 22.4959 180.846C22.1094 179.751 22.059 178.564 22.3511 177.44Z" fill="#C7F3FF"/>
<path d="M34.1808 177.653C34.3912 176.902 34.4803 176.123 34.4449 175.344C38.4903 167.466 44.8098 162.305 50.2435 162.075C54.9193 169.263 43.0213 175.958 43.0213 175.958C43.0213 175.958 47.9866 176.571 47.961 180.625C47.961 180.795 47.961 180.957 47.961 181.127C47.1377 182.212 46.2861 183.274 45.406 184.313C44.7406 185.161 43.9408 185.895 43.0383 186.484C42.588 186.779 42.079 186.972 41.5465 187.05C41.0141 187.128 40.4711 187.089 39.9552 186.936C39.519 186.784 39.1351 186.512 38.8484 186.149C38.5618 185.787 38.3844 185.351 38.337 184.892C38.2882 185.061 38.1882 185.21 38.051 185.32C37.9138 185.43 37.746 185.494 37.5705 185.505C37.4428 185.508 37.3161 185.481 37.1999 185.428C37.0836 185.375 36.9808 185.297 36.899 185.199C36.8172 185.101 36.7586 184.985 36.7274 184.861C36.6962 184.737 36.6933 184.608 36.7189 184.483C36.012 184.926 35.0155 185.335 34.4619 184.67C34.3219 184.464 34.2315 184.228 34.1979 183.98C33.7791 181.893 33.7733 179.743 34.1808 177.653Z" fill="#A3E1EF"/>
<path d="M17.7093 24.1457L18.595 23.9413L68.9548 199.106L66.4935 199.668L17.7093 24.1457Z" fill="#5F7A7A"/>
<path d="M0.828838 17.3664L5.41088 36.197C7.81262 42.7464 12.8375 47.618 17.6921 48.9126C20.4771 49.6621 23.5091 46.6897 22.6233 43.6748L17.9221 25.6702L16.602 28.2934L11.2279 0.000610352L21.7802 27.1011L19.2251 25.3977L24.5907 43.053C25.4424 46.0935 29.6071 47.3114 31.7278 45.5229C34.8194 42.9253 37.4596 37.5938 35.7903 29.2643L29.8285 10.7488L39.4951 28.8555L36.5568 27.1522C38.8819 38.3518 36.3865 47.6436 30.7143 48.9381L20.3579 51.3143C14.6857 52.6089 7.58267 45.5229 3.65642 34.6895L1.95306 37.4234L0.828838 17.3664Z" fill="#81AAA2"/>
<g style="mix-blend-mode:overlay">
<path d="M131.622 120.828C127.866 109.45 112.084 117.422 99.0448 126.594C99.9476 124.635 100.833 122.855 101.719 121.28C113.447 112.84 128.394 104.74 131.843 115.182C131.843 115.182 144.976 113.683 153.271 122.31C153.195 123.665 153.135 125.027 153.075 126.39C143.784 119.449 131.622 120.828 131.622 120.828Z" fill="#C7F3FF"/>
</g>
<path d="M132.448 53.4861C129.041 47.371 134.688 44.6968 134.688 44.6968C134.688 44.6968 130.583 47.9161 133.734 51.7657C136.144 54.6955 141.092 62.3776 132.098 67.2748L126.324 62.4458C130.548 64.6005 135.803 59.6182 132.448 53.4861Z" fill="#3C4956"/>
<path d="M139.772 65.0349C146.892 57.225 143.272 52.8559 142.523 52.2597C141.773 51.6635 139.116 52.3704 139.116 52.3704C139.116 52.3704 144.627 47.4562 146.866 54.6103C147.982 58.2555 139.772 65.0349 139.772 65.0349Z" fill="#3C4956"/>
<path d="M130.489 29.4943C130.608 29.336 130.764 29.2095 130.944 29.1263C131.124 29.0431 131.322 29.0057 131.519 29.0174C131.721 29.0073 131.921 29.0453 132.105 29.1283C132.289 29.2112 132.45 29.3367 132.575 29.4943C132.575 29.605 132.073 29.5624 131.494 29.5624C130.915 29.5624 130.489 29.605 130.489 29.4943Z" fill="#232D35"/>
<path d="M137.66 29.4943C137.779 29.336 137.935 29.2095 138.115 29.1263C138.295 29.0431 138.493 29.0057 138.691 29.0174C138.892 29.0073 139.093 29.0453 139.276 29.1283C139.46 29.2112 139.621 29.3367 139.747 29.4943C139.747 29.605 139.244 29.5624 138.673 29.5624C138.103 29.5624 137.66 29.605 137.66 29.4943Z" fill="#232D35"/>
<path d="M108.354 83.9933C108.354 83.2609 109.742 82.6647 111.454 82.6647C113.166 82.6647 114.554 83.2609 114.554 83.9933C114.554 84.7257 113.166 85.3134 111.454 85.3134C109.742 85.3134 108.354 84.7172 108.354 83.9933Z" fill="#E87446"/>
<g style="mix-blend-mode:overlay" opacity="0.47">
<path d="M40.6621 158.549C40.6366 158.864 40.6366 159.18 40.6621 159.495C40.8835 162.05 42.9361 164.051 44.8438 165.806C45.8999 166.785 47.0497 168.08 46.6835 169.476C46.3657 170.212 45.9347 170.893 45.406 171.495C44.9801 172.168 44.8013 173.198 45.406 173.684C45.5653 173.803 45.7482 173.887 45.9425 173.931C45.0093 174.675 44.0246 175.353 42.9957 175.958C42.9957 175.958 47.961 176.571 47.9354 180.625C47.9354 180.795 47.9354 180.957 47.9354 181.127L47.6629 181.468C47.5353 180.977 47.291 180.524 46.9508 180.147C46.6105 179.771 46.1843 179.482 45.7085 179.306C45.2327 179.129 44.7214 179.07 44.2179 179.134C43.7145 179.198 43.2338 179.382 42.8168 179.671C41.9904 180.185 41.1994 180.754 40.4492 181.374C40.1282 181.651 39.7407 181.839 39.325 181.919C38.2433 182.039 37.4683 180.846 37.2809 179.773C37.0936 178.7 37.1702 177.525 36.574 176.614C36.3201 176.311 36.0949 175.986 35.9012 175.643C35.7519 175.134 35.7519 174.593 35.9012 174.084C36.1141 173.002 36.3611 171.912 36.6422 170.839C37.1617 168.795 37.7579 166.504 36.6422 164.69C35.5265 162.876 32.7755 162.263 30.6123 162.918C28.449 163.574 26.686 165.107 24.9231 166.504C22.9744 168.032 20.9444 169.454 18.8421 170.762C23.884 163.787 33.2525 159.094 40.6621 158.549Z" fill="#E1F9FF"/>
</g>
<path d="M142.634 25.9513L133.197 26.2323C132.729 25.3807 132.277 24.529 131.852 23.6773H132.703C133.231 21.6588 133.904 19.1549 133.904 19.1549C134.254 20.6527 134.504 22.172 134.654 23.7029C135.633 23.7029 136.595 23.7029 137.49 23.6603C137.933 21.7781 138.282 19.9214 138.537 18.3884C138.886 18.9505 139.227 19.5296 139.576 20.0917C139.607 21.2287 139.567 22.3665 139.457 23.4985C140.088 23.4646 140.714 23.3792 141.331 23.243C141.799 24.2224 142.268 25.0911 142.634 25.9513Z" fill="#BDE0DA"/>
<path d="M130.233 20.2621C129.813 19.3082 129.438 18.3884 129.109 17.5026C129.45 15.7993 129.79 14.5984 129.79 14.5984C129.79 14.5984 129.875 17.0853 130.233 20.2621Z" fill="#BDE0DA"/>
<path d="M182.68 60.9639C184.443 59.5501 187.96 59.4308 191.367 59.9078C194.774 60.3847 197.712 70.2387 196.537 73.0577C195.361 75.8768 191.776 80.9102 191.776 80.9102C191.776 80.9102 187.517 81.5319 185.141 80.8336C182.765 80.1352 179.861 73.1684 179.179 71.3799C178.498 69.5914 180.917 62.3691 182.68 60.9639Z" fill="#FF9566"/>
<path d="M182.68 60.9639C184.443 59.5501 188.139 58.9369 191.546 59.4053C194.671 59.8397 197.218 68.6716 196.741 72.1805C194.944 72.4956 188.113 73.8839 187.202 72.0698C184.119 65.9121 183.063 63.7063 181.794 62.02C182.031 61.6229 182.33 61.2663 182.68 60.9639Z" fill="#FFB882"/>
<path d="M184.162 69.9406C183.812 68.6545 181.871 62.6672 180.874 62.9568C179.878 63.2464 177.919 66.2784 179.273 69.387C180.627 72.4956 184.162 69.9406 184.162 69.9406Z" fill="#FFB882"/>
<path d="M191.554 68.0669C189.41 68.1845 187.394 69.124 185.925 70.69L184.911 68.3139C187.04 67.5119 189.372 67.4252 191.554 68.0669Z" fill="#FF9566"/>
<path d="M189.485 63.9703C187.338 64.0924 185.321 65.0382 183.855 66.6105L182.842 64.2343C184.969 63.431 187.3 63.3384 189.485 63.9703Z" fill="#FF9566"/>
<path d="M48.7956 95.6017C42.0843 98.5059 40.6791 98.557 39.8104 100.294C38.9416 102.032 42.5357 108.377 42.8168 109.126C43.1745 110.08 46.5046 110.157 46.4875 108.317C46.4705 106.478 44.9971 103.761 44.9971 103.761C44.9971 103.761 50.1072 103.871 50.5415 100.184C50.6194 99.3374 50.5025 98.4845 50.1999 97.6902C49.8973 96.896 49.4169 96.1816 48.7956 95.6017Z" fill="#FFB882"/>
<path d="M39.274 103.71C37.8602 103.488 34.0617 104.042 33.4741 104.757C32.8864 105.473 34.0021 107.84 35.2711 108.028C36.5401 108.215 39.7425 107.44 40.2705 106.733C40.7985 106.026 39.9383 103.812 39.274 103.71Z" fill="#FFB882"/>
<path d="M41.6671 108.232C40.2959 108.036 36.557 108.649 35.9098 109.373C35.2625 110.097 36.2078 112.431 37.4428 112.601C38.6777 112.772 41.863 111.945 42.4336 111.23C43.0042 110.515 42.3144 108.326 41.6671 108.232Z" fill="#FFB882"/>
<path d="M44.3243 111.673C42.9446 111.554 39.2142 112.38 38.6436 113.138C38.073 113.896 39.112 116.178 40.3469 116.28C41.5819 116.383 44.7246 115.369 45.2526 114.628C45.7807 113.887 45.0141 111.733 44.3243 111.673Z" fill="#FFB882"/>
</svg>
