<svg width="206" height="200" viewBox="0 0 206 200" fill="none" xmlns="http://www.w3.org/2000/svg">
<path d="M41.7013 97.0788C42.1609 96.7049 36.6301 94.1576 32.6027 94.4536C31.8237 94.5159 29.1362 94.2745 29.2141 95.4507C29.2109 95.9779 29.3336 96.4982 29.5721 96.9684C29.8106 97.4386 30.1579 97.845 30.5851 98.1538C31.9561 99.4392 38.6944 99.4703 41.7013 97.0788Z" fill="#FF9566"/>
<path d="M31.9951 94.3913C32.556 93.9161 31.9951 88.9383 31.2161 88.284C30.4371 87.6296 27.1264 87.7387 26.5421 89.1486C26.2759 89.6656 26.1596 90.2467 26.2064 90.8262C26.2532 91.4058 26.4612 91.9607 26.807 92.4282C27.6094 93.4253 31.6445 94.6873 31.9951 94.3913Z" fill="#FF9566"/>
<path d="M30.1019 89.1564C30.6628 88.6813 30.1019 83.7035 29.3229 83.0491C28.5439 82.3948 24.7736 81.016 24.1893 82.4104C23.8165 84.0407 24.0812 85.752 24.9294 87.1934C25.7162 88.1827 29.7513 89.4525 30.1019 89.1564Z" fill="#FF9566"/>
<path d="M167.329 103.981C171.427 110.493 174.582 112.09 175.213 120.441C172.097 120.9 161.783 127.904 159.025 126.198C156.268 124.492 153.456 111.194 153.456 111.194L167.329 103.981Z" fill="#FF9566"/>
<path d="M163.355 127.691C165.12 127.366 166.384 126.204 166.18 125.095C165.976 123.987 164.38 123.352 162.616 123.677C160.851 124.002 159.586 125.164 159.791 126.273C159.995 127.381 161.591 128.016 163.355 127.691Z" fill="#FF9566"/>
<path d="M168.665 125.495C170.429 125.17 171.694 124.008 171.49 122.899C171.285 121.791 169.689 121.156 167.925 121.481C166.161 121.806 164.896 122.968 165.1 124.076C165.305 125.185 166.9 125.82 168.665 125.495Z" fill="#FF9566"/>
<path d="M176.007 120.308C175.805 119.202 173.67 111.739 171.925 112.09C170.181 112.441 169.417 120.379 169.588 121.485C169.76 122.591 171.388 123.23 173.156 122.902C174.925 122.575 176.218 121.415 176.007 120.308Z" fill="#FF9566"/>
<path d="M165.686 101.768C170.905 104.627 172.549 109.356 172.175 111.701C171.801 114.045 163.692 117.816 162.881 118.353C161.845 119.046 158.472 116.748 159.804 114.926C161.137 113.103 164.533 111.459 164.533 111.459C164.533 111.459 159.399 107.938 161.565 103.942C163.193 100.935 165.686 101.768 165.686 101.768Z" fill="#FFB882"/>
<path d="M170.266 115.486C171.824 116.265 175.221 119.529 175.291 120.667C175.361 121.804 172.572 123.354 171.17 122.638C169.768 121.921 167.143 118.867 167.119 117.784C167.096 116.702 169.526 115.113 170.266 115.486Z" fill="#FFB882"/>
<path d="M165.304 118.065C166.815 118.844 170.118 122.139 170.219 123.308C170.321 124.476 167.742 126.143 166.395 125.426C165.047 124.71 162.5 121.625 162.406 120.503C162.313 119.381 164.595 117.691 165.304 118.065Z" fill="#FFB882"/>
<path d="M159.54 119.786C160.996 120.651 164.112 124.125 164.151 125.302C164.19 126.478 161.518 127.997 160.21 127.203C158.901 126.408 156.502 123.183 156.509 122.061C156.517 120.939 158.838 119.381 159.54 119.786Z" fill="#FFB882"/>
<path d="M146.702 156.041C146.65 155.639 146.477 155.262 146.208 154.96C145.938 154.658 145.583 154.444 145.189 154.347C144.796 154.25 144.382 154.275 144.003 154.417C143.624 154.559 143.296 154.813 143.063 155.144C142.831 155.476 142.704 155.87 142.699 156.275C142.694 156.681 142.812 157.078 143.037 157.415C143.262 157.752 143.583 158.013 143.959 158.164C144.335 158.315 144.748 158.349 145.144 158.261C145.642 158.168 146.084 157.883 146.375 157.468C146.666 157.054 146.784 156.541 146.702 156.041Z" fill="#EACFA9"/>
<path d="M126.105 176.832C126.053 176.43 125.881 176.054 125.611 175.751C125.341 175.449 124.986 175.236 124.593 175.139C124.199 175.042 123.786 175.066 123.406 175.208C123.027 175.351 122.699 175.604 122.467 175.936C122.234 176.267 122.107 176.662 122.102 177.067C122.097 177.472 122.215 177.869 122.44 178.206C122.665 178.543 122.987 178.804 123.363 178.955C123.739 179.106 124.151 179.14 124.547 179.052C125.045 178.959 125.487 178.675 125.779 178.26C126.07 177.845 126.187 177.332 126.105 176.832Z" fill="#EACFA9"/>
<path d="M127.965 197.269C132.424 196.331 135.337 192.24 134.473 188.131C133.608 184.021 129.293 181.451 124.835 182.389C120.376 183.327 117.463 187.418 118.327 191.527C119.192 195.636 123.507 198.207 127.965 197.269Z" fill="#EACFA9"/>
<path d="M15.3104 160.863C17.9721 159.549 19.2589 156.72 18.1846 154.544C17.1103 152.368 14.0816 151.67 11.4198 152.985C8.7581 154.299 7.47127 157.128 8.54561 159.304C9.61995 161.48 12.6486 162.178 15.3104 160.863Z" fill="#FCF0D9"/>
<path d="M146.576 187.211C151.034 186.273 153.948 182.182 153.083 178.073C152.219 173.963 147.904 171.393 143.445 172.331C138.987 173.269 136.073 177.36 136.938 181.469C137.802 185.578 142.117 188.149 146.576 187.211Z" fill="#EACFA9"/>
<path d="M107.713 198.862C116.103 198.862 122.904 193.732 122.904 187.403C122.904 181.075 116.103 175.944 107.713 175.944C99.3239 175.944 92.5229 181.075 92.5229 187.403C92.5229 193.732 99.3239 198.862 107.713 198.862Z" fill="#EACFA9"/>
<path d="M62.1653 183.547C109.006 194.453 140.742 171.192 138.686 139.363C119.203 123.128 62.1653 183.547 62.1653 183.547Z" fill="#EACFA9"/>
<path d="M122.576 29.4778L118.144 65.6075C134.752 86.282 157.506 112.238 157.506 112.238L168.654 108.281C168.654 108.281 143.103 50.2457 122.576 29.4778Z" fill="#FFB882"/>
<path d="M128.98 47.2232C127.172 42.6895 117.84 66.293 117.84 66.293C134.44 87.0064 155.442 113.913 155.442 113.913L162.453 111.576C147.38 89.1487 133.319 58.1058 128.98 47.2232Z" fill="#FF9566"/>
<path d="M18.9234 199.999H193.745C193.745 199.999 203.093 200.225 204.378 194.367C205.664 188.509 202.891 186.476 202.891 186.476C202.891 186.476 209.232 179.045 201.956 169.128C194.68 159.211 184.974 173.856 184.974 173.856C184.974 173.856 186.469 157.856 172.658 160.785C158.846 163.714 159.602 180.392 159.602 180.392C159.602 180.392 156.618 173.381 150.83 175.438C145.043 177.494 145.424 185.565 145.424 185.565C145.424 185.565 142.059 177.907 135.905 181.062C129.751 184.217 113.314 197.289 99.892 183.765C86.47 170.242 71.1939 173.786 67.4625 181.896C67.4625 181.896 74.2242 145.524 39.7381 146.958C22.8184 147.667 21.4863 165.186 21.4863 165.186C8.4148 155.27 -16.7155 199.999 18.9234 199.999Z" fill="#F4E1C1"/>
<path d="M160.763 186.242C160.965 185.923 161.16 185.58 161.355 185.222C161.355 185.222 161.098 185.604 160.763 186.242Z" fill="#EACFA9"/>
<path d="M160.763 186.242C156.486 193.098 150.192 191.088 144.934 186.648L142.745 187.785C151.314 188.26 159.548 198.418 159.548 198.418C156.377 195.17 159.4 188.735 160.763 186.242Z" fill="#EACFA9"/>
<path d="M146.998 199.999C131.418 197.086 137.338 183.415 141.319 180.945C140.475 180.499 139.531 180.276 138.576 180.298C137.622 180.32 136.689 180.585 135.866 181.07C129.712 184.225 113.275 197.296 99.8531 183.773C86.4311 170.25 71.1939 173.786 67.4626 181.896C67.4626 181.896 69.41 171.395 65.9046 161.899C55.5595 171.379 45.6897 198.644 22.8418 199.999H146.998Z" fill="#EACFA9"/>
<path d="M173.141 178.741C177.675 178.741 181.616 175.71 183.681 171.231C183.47 167.336 181.905 159.866 172.705 161.813C166.839 163.06 163.926 167.095 162.484 170.974C164.51 175.594 168.522 178.741 173.141 178.741Z" fill="#FCF0D9"/>
<path d="M93.325 134.681C82.1854 170.312 55.5672 199.999 55.5672 199.999H54.5779L63.5363 131.074L93.325 134.681Z" fill="#FFB882"/>
<path d="M61.9471 188.354C63.1546 187.972 64.3542 187.645 65.5383 187.364C74.2786 175.399 86.5711 156.119 93.286 134.681L63.5363 131.074L55.7463 190.706C57.7613 189.791 59.8324 189.005 61.9471 188.354Z" fill="#FF9566"/>
<path d="M106.958 137.532C122.537 172.914 150.059 199.999 150.059 199.999H151.01L132.018 131.58L106.958 137.532Z" fill="#FFB882"/>
<path d="M138.507 154.958L132.018 131.588L106.958 137.54C114.366 154.389 124.493 169.346 133.062 180.384C133.513 170.211 135.531 161.206 138.507 154.958Z" fill="#FF9566"/>
<path d="M108.905 14.9962C111.242 14.6145 110.704 11.5453 109.427 11.2259C109.427 11.2259 110.206 8.34362 107.3 8.44489C107.3 8.44489 107.923 5.81189 105.033 6.59089C102.143 7.36988 105.01 15.5805 108.905 14.9962Z" fill="#F4D5B0"/>
<path d="M114.599 24.1962C117.863 23.6431 117.116 19.7481 115.378 19.3742C115.378 19.3742 116.477 15.6817 112.481 15.8921C112.481 15.8921 113.369 12.5112 109.365 13.6018C105.361 14.6924 109.271 25.0998 114.599 24.1962Z" fill="#F4D5B0"/>
<path d="M79.5369 23.7521C76.2729 23.199 77.0208 19.3041 78.7579 18.9302C78.7579 18.9302 77.6673 15.2377 81.6558 15.4559C81.6558 15.4559 80.7755 12.075 84.7717 13.1578C88.768 14.2406 84.8652 24.6558 79.5369 23.7521Z" fill="#F4D5B0"/>
<path d="M86.0881 14.4899C83.7512 14.599 83.681 11.6076 84.8417 11.0545C84.8417 11.0545 83.5252 8.49944 86.314 8.02425C86.314 8.02425 85.1923 5.68727 88.1135 5.83528C91.0347 5.98329 89.913 14.3029 86.0881 14.4899Z" fill="#F4D5B0"/>
<path d="M105.509 12.0205C107.3 11.7089 107.55 9.68351 106.88 9.09147C106.21 8.49943 105.08 8.23458 104.73 8.9902C104.379 9.74582 104.917 12.1295 105.509 12.0205Z" fill="#FF9566"/>
<path d="M105.213 11.2493C106.389 11.0545 106.576 9.95614 106.147 9.62118C105.719 9.28621 104.979 9.16936 104.745 9.62118C104.512 10.073 104.823 11.3116 105.213 11.2493Z" fill="#DB5B3E"/>
<path d="M88.0202 12.8696C86.3765 12.519 85.948 10.5326 86.4622 9.88603C86.9763 9.23947 88.0202 9.0603 88.3863 9.8315C88.7524 10.6027 88.5577 12.9864 88.0202 12.8696Z" fill="#FF9566"/>
<path d="M88.1837 12.1763C87.9982 12.1357 87.824 12.0544 87.6737 11.9385C87.5233 11.8225 87.4005 11.6747 87.3141 11.5056C87.2277 11.3365 87.1799 11.1504 87.174 10.9606C87.1681 10.7708 87.2043 10.5821 87.28 10.408C87.5916 10.0418 88.1837 9.9172 88.4174 10.408C88.6511 10.8987 88.5031 12.2386 88.1837 12.1763Z" fill="#DB5B3E"/>
<path d="M51.7969 71.9563C52.8174 55.6909 63.4117 30.9501 74.6759 26.3929C85.9402 21.8358 80.9546 86.9052 60.249 95.5676C46.3205 101.394 51.3451 79.2632 51.7969 71.9563Z" fill="#FFB882"/>
<path d="M73.64 28.7377C55.7232 50.1055 70.5241 79.3723 59.0573 85.6042C57.3513 86.5312 49.7093 80.7589 48.4006 80.6265C48.4006 89.5927 50.6909 99.5716 60.2491 95.5754C80.9548 86.9052 74.0919 28.4884 73.64 28.7377Z" fill="#FF9566"/>
<path d="M75.8133 101.394C76.0704 95.5676 74.972 82.3247 73.6321 77.0898C58.9481 51.1338 68.3505 33.8713 69.9553 31.7991C76.382 23.3704 89.2977 18.9847 97.8432 18.2291C106.389 17.4734 122.483 24.7181 128.123 36.4497C131.589 43.6632 132.836 63.325 125.373 76.2641C122.257 82.9089 121.891 92.1478 123.41 101.644L75.8133 101.394Z" fill="#FFB882"/>
<path d="M96.5735 92.2413C96.5735 89.3824 97.8433 79.2087 97.8433 79.2087L99.3389 94.3445L96.5735 92.2413Z" fill="#FF9566"/>
<path d="M97.999 85.986C99.9543 86.3365 107.682 86.8273 107.682 86.8273L98.0769 84.2332L97.999 85.986Z" fill="#FF9566"/>
<path d="M97.999 90.3639C99.9543 90.7144 107.682 91.2052 107.682 91.2052L98.0769 88.619L97.999 90.3639Z" fill="#FF9566"/>
<path d="M97.6485 85.986C95.7945 86.3365 88.4875 86.8273 88.4875 86.8273L97.5784 84.2332L97.6485 85.986Z" fill="#FF9566"/>
<path d="M97.6485 90.3639C95.7945 90.7144 88.4875 91.2052 88.4875 91.2052L97.5784 88.619L97.6485 90.3639Z" fill="#FF9566"/>
<path d="M72.0041 27.8185C71.7073 28.3184 71.447 28.839 71.2251 29.3765C69.6126 32.4924 72.8688 35.5461 72.8688 35.5461C70.4461 39.815 75.6654 42.4558 75.6654 42.4558C73.7647 46.6156 79.1631 48.5864 79.1631 48.5864C78.9216 52.2321 84.2811 52.5281 84.2811 52.5281C84.4758 56.4231 91.0817 56.1349 91.0817 56.1349C91.0817 56.1349 91.5958 59.8507 96.7294 59.6871C99.7363 59.5936 100.554 55.7064 100.554 55.7064C105.143 57.428 106.381 53.1591 106.381 53.1591C110.72 53.572 112.613 51.8972 112.714 48.6721C117.458 47.9866 119.164 45.6886 118.666 42.2065C121.93 41.2249 123.581 36.6367 121.712 34.1517C122.257 33.7628 122.693 33.2398 122.977 32.6331C123.262 32.0265 123.385 31.3569 123.335 30.6888C123.285 30.0208 123.063 29.3769 122.691 28.8195C122.32 28.2621 121.811 27.81 121.213 27.5069C115.651 23.4483 106.623 21.2749 97.0644 21.3684C86.9608 21.4463 78.0725 23.6119 72.0041 27.8185Z" fill="#FF9566"/>
<path d="M73.1959 77.3547C74.5202 82.5818 76.5767 95.5676 76.3118 101.394L123.394 101.644C123.098 99.7742 122.88 97.9228 122.74 96.0895C114.358 95.1158 70.8822 107.424 83.8837 22.0306C83.8837 21.8982 83.8837 21.7657 83.9226 21.6411C83.3539 21.8592 82.7775 22.0773 82.2088 22.311L81.3052 22.7239C76.3274 41.8949 71.2795 55.7922 70.2668 73.8493C70.4538 74.1842 73.0011 77.012 73.1959 77.3547Z" fill="#FF9566"/>
<path d="M129.673 67.0798C123.706 77.8455 108.687 75.6954 99.2299 75.6954C84.9276 75.6954 73.2816 76.5835 65.9045 63.1536C67.6073 68.1218 69.7151 72.9418 72.2066 77.565C73.5465 82.7921 76.1016 95.5676 75.8133 101.394H80.2848C80.1789 100.482 80.1243 99.5636 80.1212 98.6446C80.1212 86.9597 88.8147 77.4404 99.5493 77.4404C110.284 77.4404 118.977 86.9363 118.977 98.6446C118.978 99.6317 118.916 100.618 118.79 101.597H123.41C121.852 92.1011 122.561 83.2127 125.653 76.5679C127.336 73.6934 128.497 70.2269 129.673 67.0798Z" fill="#FF9566"/>
<path d="M98.0925 62.7797C98.0925 62.7797 97.0798 73.3506 95.8179 76.342C97.2533 75.7075 98.871 75.6189 100.367 76.0927C98.2795 70.7566 98.0925 62.7797 98.0925 62.7797Z" fill="#FF9566"/>
<path d="M122.927 98.3486C119.032 95.0846 68.5143 114.707 82.4817 23.8924C82.8556 21.4463 81.3677 20.6206 80.7913 24.1728C70.2437 89.1097 63.4898 106.271 54.7417 183.415C94.0419 159.998 116.531 171.59 138.663 139.363C138.663 139.363 126.503 101.371 122.927 98.3486Z" fill="#FCF0D9"/>
<path d="M81.1338 67.6251C79.4279 57.0697 79.5135 42.9076 82.4426 23.8924C82.8165 21.4463 80.6665 20.7764 80.1056 24.3052C76.3119 47.6205 73.6867 64.6571 70.6174 80.6343C75.8133 65.7866 75.8367 51.8115 77.7764 49.9341C79.3032 48.493 78.1893 58.8614 81.1338 67.6251Z" fill="#F4E1C1"/>
<path d="M123.402 98.9328C125.786 125.839 125.42 145.891 120.372 157.42C126.705 153.525 132.696 148.072 138.663 139.37C138.663 139.363 127.523 104.565 123.402 98.9328Z" fill="#F4E1C1"/>
<path d="M96.3321 56.4076C91.5335 56.4543 91.2063 54.1329 91.2063 54.1329C91.2063 54.1329 85.0367 54.2965 84.8342 50.3314C84.8342 50.3314 79.8174 49.9107 80.0122 46.2339C80.0122 46.2339 74.9565 44.115 76.7093 39.9474C76.7093 39.9474 72.3235 37.2599 74.5592 32.991C74.5592 32.991 72.2223 29.3375 73.6868 26.206C74.067 25.3264 74.6317 24.5388 75.3426 23.8964C76.0536 23.254 76.8942 22.7718 77.8076 22.4824C77.8076 22.4824 78.5087 19.5534 80.1446 18.4082C81.3559 17.6515 82.7116 17.1554 84.1253 16.9515C84.1253 16.9515 84.5304 13.7031 88.4876 11.335C88.4876 11.335 86.9297 10.2522 87.7087 9.11484C88.1455 8.43736 88.7352 7.87173 89.4302 7.46337C89.4302 7.46337 87.3269 7.01155 89.4302 5.38346C89.2909 5.26833 89.1772 5.12528 89.0966 4.96352C89.0159 4.80175 88.9701 4.62488 88.962 4.44432C88.9539 4.26375 88.9838 4.08349 89.0497 3.91518C89.1156 3.74686 89.216 3.59423 89.3445 3.46713C89.6655 3.1726 90.0603 2.97068 90.4869 2.88288C90.9136 2.79508 91.3561 2.8247 91.7672 2.96858C91.6887 2.81947 91.6437 2.65496 91.6356 2.48662C91.6275 2.31828 91.6564 2.15021 91.7203 1.99424C91.7842 1.83828 91.8815 1.69822 92.0053 1.58392C92.1292 1.46962 92.2766 1.38386 92.4371 1.33269C92.7597 1.19817 93.1097 1.14283 93.458 1.17129C93.8063 1.19975 94.1427 1.31118 94.4392 1.49628C94.4392 1.49628 94.8832 0.000610352 96.1218 0.000610352C96.5173 0.0187279 96.9005 0.143394 97.231 0.361423C97.5615 0.579452 97.8269 0.88274 97.9992 1.23921C97.9992 1.23921 98.8327 0.000610352 99.8687 0.779604C100.905 1.5586 100.648 2.15842 100.648 2.15842C100.648 2.15842 102.151 1.03667 102.86 1.90915C103.29 2.49907 103.5 3.22143 103.452 3.95011C103.452 3.95011 104.878 3.62293 105.174 4.84595C105.262 5.18536 105.233 5.54456 105.091 5.86546C104.95 6.18636 104.705 6.45019 104.395 6.61427C104.552 6.59139 104.713 6.60076 104.867 6.6418C105.021 6.68284 105.165 6.75471 105.29 6.85304C105.415 6.95138 105.519 7.07413 105.596 7.21385C105.672 7.35358 105.719 7.50737 105.735 7.66591C105.749 8.07506 105.659 8.48114 105.474 8.84623C105.289 9.21131 105.014 9.52349 104.675 9.75361C105.306 9.85199 105.906 10.0961 106.427 10.4666C106.947 10.8371 107.375 11.3238 107.674 11.8881C108.245 12.9703 108.537 14.1778 108.523 15.4013C111.234 15.3156 114.046 17.3878 115.69 20.5816C117.17 20.1921 119.32 22.6927 119.235 26.167C122.436 28.3404 121.151 31.5576 119.671 32.5781C121.439 35.141 119.928 39.7449 116.882 40.6563C117.373 44.1929 115.791 46.4832 111.367 47.0674C111.297 50.3314 109.536 51.9829 105.478 51.4687C105.478 51.4687 104.348 55.761 100.025 53.9148C99.7192 54.6451 99.207 55.2702 98.5509 55.7131C97.8949 56.156 97.1236 56.3974 96.3321 56.4076Z" fill="#FCF0D9"/>
<path d="M105.618 38.9503C105.509 39.0827 105.376 39.2074 105.251 39.3398C105.745 39.2833 106.242 39.2547 106.739 39.2541C106.358 39.1373 105.976 39.036 105.618 38.9503Z" fill="#FCE7CA"/>
<path d="M119.242 26.167C119.328 22.6927 117.178 20.1921 115.698 20.5816C114.054 17.3877 111.242 15.3156 108.531 15.4013C108.545 14.1778 108.253 12.9703 107.682 11.888C107.589 11.7023 107.479 11.525 107.355 11.3583C107.568 11.8967 107.679 12.4699 107.682 13.0487C107.666 14.1274 107.306 15.1727 106.654 16.0323C106.851 16.0323 107.046 16.0323 107.238 16.0323C111.133 16.0323 114.358 18.0421 114.358 20.5271C114.31 21.197 114.09 21.8431 113.719 22.4027C113.347 22.9623 112.838 23.4164 112.239 23.721C116.734 24.8817 119.858 27.6627 119.429 30.3658C119.291 31.0007 119.008 31.5952 118.603 32.1032C118.198 32.6111 117.681 33.0189 117.092 33.2948C117.189 33.6184 117.239 33.9542 117.24 34.2919C117.24 37.1197 113.805 39.4177 109.521 39.5034C111.951 40.0019 113.649 41.1548 113.649 42.4869C113.649 44.2864 110.533 47.1609 106.794 47.1609C103.055 47.1609 100.009 44.2864 100.009 42.4869C100.011 42.2649 100.056 42.0453 100.141 41.8404C99.228 42.0205 98.2993 42.1118 97.3683 42.113C95.4385 42.1279 93.5281 41.7267 91.7673 40.9367C91.7754 41.004 91.7754 41.072 91.7673 41.1393C91.7339 41.4747 91.6126 41.7953 91.4156 42.0689C91.2187 42.3424 90.953 42.5592 90.6456 42.6973C91.6583 42.2405 92.7598 42.0143 93.8706 42.0351C96.4023 42.0351 98.4589 43.0556 98.4589 44.3176C98.4589 45.5795 96.3712 48.0489 93.8394 48.0489C91.3077 48.0489 89.2823 45.5717 89.2823 44.3176C89.3246 43.9934 89.4522 43.6864 89.652 43.4277C89.8518 43.169 90.1167 42.968 90.4197 42.8453C89.6407 43.2192 88.6358 44.4032 87.5374 44.4032C85.2004 44.4032 83.362 42.4168 83.362 41.1626C83.362 39.9085 85.2471 38.8802 87.5685 38.8802C88.0921 38.8815 88.6141 38.9363 89.1265 39.0438C88.8466 38.7223 88.6132 38.363 88.4332 37.9765C87.478 38.4149 86.4383 38.6383 85.3874 38.6309C82.5362 38.6309 80.2304 37.1274 80.2304 35.2734C80.2512 34.6976 80.4715 34.1468 80.8536 33.7155C77.1144 32.7807 74.4737 30.5372 74.4737 27.9119C74.4737 25.6607 76.4056 23.6976 79.3034 22.5914C79.1682 22.2707 79.0968 21.9267 79.0931 21.5787C79.0931 19.2417 82.1623 17.4033 85.956 17.4033C88.0609 17.2911 90.1323 17.9658 91.7673 19.2963C91.8655 19.1917 91.9695 19.0929 92.0789 19.0003C88.9629 17.8006 86.9142 15.5883 86.9142 13.0487C86.9178 12.8403 86.9334 12.6322 86.9609 12.4256C85.517 13.5588 84.5119 15.1588 84.1176 16.9515C82.7039 17.1554 81.3483 17.6515 80.1369 18.4082C78.501 19.5533 77.8 22.4824 77.8 22.4824C76.8865 22.7718 76.0459 23.254 75.335 23.8964C74.624 24.5388 74.0593 25.3264 73.6791 26.206C72.199 29.3219 74.5516 32.991 74.5516 32.991C72.3158 37.2599 76.7016 39.9474 76.7016 39.9474C74.9488 44.115 79.7474 46.4676 79.7474 46.4676C79.5527 50.1522 84.8265 50.3625 84.8265 50.3625C85.029 54.3276 91.1986 54.164 91.1986 54.164C91.1986 54.164 91.5258 56.501 96.3244 56.4387C97.1213 56.4346 97.8993 56.1961 98.5614 55.7528C99.2236 55.3095 99.7406 54.6811 100.048 53.9459C104.348 55.7921 105.501 51.4999 105.501 51.4999C109.56 52.014 111.32 50.3625 111.39 47.0986C115.815 46.5143 117.396 44.2241 116.905 40.6874C119.951 39.776 121.463 35.1722 119.694 32.6093C121.159 31.5576 122.444 28.3404 119.242 26.167Z" fill="#FCE7CA"/>
<path d="M104.403 6.61427C104.712 6.45019 104.958 6.18636 105.099 5.86546C105.241 5.54456 105.27 5.18536 105.182 4.84595C104.878 3.62293 103.452 3.95011 103.452 3.95011C103.474 3.41335 103.367 2.87913 103.141 2.39212L103.032 2.33759C103.091 2.49731 103.115 2.66818 103.102 2.83818C103.089 3.00819 103.038 3.17322 102.954 3.32168C102.871 3.47015 102.755 3.59846 102.616 3.6976C102.478 3.79675 102.319 3.86432 102.151 3.89558C101.813 3.98481 101.459 3.99249 101.118 3.918C100.777 3.84351 100.458 3.68898 100.188 3.46713C100.188 3.46713 99.5494 4.87711 98.2874 4.72131C97.9004 4.65095 97.5393 4.47791 97.2419 4.22029C96.9445 3.96267 96.7218 3.62992 96.597 3.2568C96.597 3.2568 95.5999 4.33182 94.6729 3.45934C93.7459 2.58687 94.1042 1.99483 94.1042 1.99483C94.1042 1.99483 92.4606 2.89847 91.8763 1.9403C91.8763 1.87798 91.814 1.81566 91.7828 1.75335C91.684 1.94015 91.6311 2.14778 91.6284 2.35908C91.6257 2.57039 91.6733 2.7793 91.7673 2.96858C91.3583 2.82772 90.9189 2.79969 90.4953 2.88742C90.0717 2.97515 89.6796 3.17541 89.3602 3.46713C89.2307 3.59318 89.1291 3.74495 89.062 3.91266C88.9948 4.08037 88.9635 4.2603 88.9701 4.44085C88.9767 4.6214 89.021 4.79856 89.1003 4.96091C89.1796 5.12327 89.292 5.26721 89.4303 5.38346C87.327 7.01155 89.4303 7.46337 89.4303 7.46337C88.7239 7.86782 88.1233 8.43373 87.6775 9.11484C87.5481 9.31431 87.4792 9.54699 87.4792 9.78477C87.4792 10.0225 87.5481 10.2552 87.6775 10.4547C89.2355 7.93856 92.9435 6.17024 97.2903 6.17024C100.25 6.08007 103.148 7.025 105.485 8.84219C105.699 8.48978 105.785 8.07413 105.727 7.66591C105.711 7.50888 105.665 7.35655 105.589 7.21798C105.514 7.07941 105.411 6.95744 105.288 6.85932C105.164 6.7612 105.022 6.68894 104.87 6.64684C104.718 6.60474 104.559 6.59366 104.403 6.61427Z" fill="#FCE7CA"/>
<path d="M96.5269 10.3924C96.0749 10.4119 95.6435 10.5869 95.3057 10.8878C94.9678 11.1887 94.7443 11.5971 94.6729 12.0439L94.4937 13.041C94.4725 13.1451 94.4728 13.2525 94.4946 13.3565C94.5164 13.4606 94.5593 13.559 94.6206 13.6459C94.6819 13.7327 94.7603 13.8061 94.851 13.8615C94.9418 13.9169 95.0428 13.9531 95.1481 13.968C96.1157 14.0847 97.0939 14.0847 98.0615 13.968C98.1741 13.952 98.2818 13.9115 98.3771 13.8494C98.4724 13.7874 98.5529 13.7052 98.613 13.6087C98.6732 13.5122 98.7114 13.4037 98.7252 13.2908C98.7389 13.1779 98.7278 13.0634 98.6925 12.9553L98.3731 11.8491C98.2698 11.4363 98.0325 11.0694 97.6985 10.8059C97.3644 10.5423 96.9524 10.3969 96.5269 10.3924Z" fill="#F4E1C1"/>
<path d="M89.9834 10.3534C91.3622 9.42643 94.0887 10.408 96.784 10.3534C99.4793 10.2989 102.19 9.15378 103.304 10.1898C103.304 10.1898 101.832 12.0127 96.6048 11.631C91.0506 12.5969 89.9834 10.3534 89.9834 10.3534Z" fill="#FFB882"/>
<path d="M90.4663 10.9065C91.9308 10.3456 94.26 11.4129 96.6983 11.3427C98.9885 11.2726 101.372 10.2054 102.728 10.5638C102.92 10.4454 103.105 10.3153 103.281 10.1743C102.167 9.13819 99.4793 10.2599 96.7606 10.3378C94.0419 10.4157 91.3076 9.442 89.96 10.3378C90.084 10.563 90.257 10.7573 90.4663 10.9065Z" fill="#FF9566"/>
<path d="M96.5111 10.6105C96.1295 10.6162 95.7626 10.7585 95.4768 11.0114C95.191 11.2643 95.0052 11.6112 94.9531 11.9893L94.7973 12.8228C94.7805 12.9094 94.7811 12.9984 94.7991 13.0847C94.8172 13.171 94.8522 13.2528 94.9023 13.3254C94.9524 13.3979 95.0164 13.4597 95.0907 13.5072C95.165 13.5547 95.248 13.5869 95.3349 13.6018C96.1291 13.6991 96.9322 13.6991 97.7264 13.6018C97.8191 13.5871 97.9076 13.5526 97.9859 13.5006C98.0641 13.4486 98.1302 13.3804 98.1797 13.3005C98.2293 13.2207 98.261 13.1312 98.2728 13.038C98.2847 12.9448 98.2763 12.8502 98.2483 12.7605L97.9834 11.8257C97.9076 11.4886 97.7217 11.1862 97.4552 10.9662C97.1887 10.7462 96.8566 10.6211 96.5111 10.6105Z" fill="#FF9566"/>
<path d="M96.5112 10.5326C96.207 10.574 95.9268 10.7205 95.7191 10.9467C95.5114 11.1728 95.3893 11.4645 95.3739 11.7712L95.2649 12.5112C95.2411 12.5854 95.2326 12.6636 95.2398 12.7411C95.2471 12.8186 95.2699 12.8938 95.3071 12.9622C95.3442 13.0307 95.3948 13.0909 95.4558 13.1392C95.5169 13.1875 95.587 13.223 95.6621 13.2435C96.2537 13.329 96.8545 13.329 97.446 13.2435C97.524 13.2198 97.5964 13.1805 97.6587 13.1279C97.721 13.0754 97.7719 13.0107 97.8083 12.9378C97.8448 12.8649 97.866 12.7853 97.8707 12.7039C97.8754 12.6226 97.8634 12.5411 97.8355 12.4645L97.6408 11.631C97.605 11.3469 97.4737 11.0835 97.2685 10.8839C97.0632 10.6843 96.7962 10.5604 96.5112 10.5326Z" fill="#FFB882"/>
<path d="M10.113 192.412C38.3048 198.309 65.4216 177.822 97.2513 166.433C79.3344 163.745 67.9066 155.207 59.8596 143.554C47.7774 164.711 41.3974 188.579 10.113 192.412Z" fill="#FCF0D9"/>
<path d="M15.9087 193.479C23.7216 193.479 30.0553 186.835 30.0553 178.639C30.0553 170.444 23.7216 163.8 15.9087 163.8C8.09582 163.8 1.76221 170.444 1.76221 178.639C1.76221 186.835 8.09582 193.479 15.9087 193.479Z" fill="#FCF0D9"/>
<path d="M43.2513 163.714C46.4452 156.485 42.4723 150.144 35.5081 150.557C29.7903 150.892 24.8281 155.831 23.6596 161.081C22.6158 165.802 25.537 163.278 30.0396 164.057C35.3913 164.968 40.4937 169.961 43.2513 163.714Z" fill="#FCF0D9"/>
<path d="M156.463 199.999H148.392C148.392 199.999 148.276 197.421 149.351 196.712C150.426 196.003 156.463 199.999 156.463 199.999Z" fill="#FFB882"/>
<path d="M48.3694 199.999H57.1097C57.1097 199.999 57.2343 197.421 56.0658 196.712C54.8974 196.003 48.3694 199.999 48.3694 199.999Z" fill="#FFB882"/>
<path d="M41.826 95.4118C52.0775 96.4244 58.4964 95.661 61.1918 93.9862C69.7919 88.6501 65.2815 70.2113 52.8176 71.1383C49.3978 71.3876 36.3496 78.9282 35.2201 80.4862C33.2804 83.166 37.783 95.0378 41.826 95.4118Z" fill="#FFB882"/>
<path d="M63.7234 75.0566C63.4741 79.0451 61.7525 83.9372 58.4184 86.0093C55.7153 87.6841 49.2107 89.616 38.9436 88.6033C37.5414 88.4709 36.0925 86.8195 34.885 84.6149C35.664 89.4135 38.78 96.2998 41.7246 96.5802C51.9761 97.5929 58.7845 96.627 61.4799 94.9521C67.0341 91.5324 67.7585 81.0159 63.7234 75.0566Z" fill="#FF9566"/>
<path d="M43.5398 95.4118C38.4529 95.5598 36.3652 99.0263 31.1927 95.0301C27.6872 92.3192 26.176 84.8564 26.8459 82.1767C31.2706 81.8183 33.7556 76.7705 40.7821 79.5515C47.8086 82.3325 51.0025 95.1859 43.5398 95.4118Z" fill="#FFB882"/>
<path d="M39.8316 77.3235C36.1625 76.7471 34.9005 79.0295 34.6123 80.5174C34.3241 82.0053 37.1362 92.3815 39.1227 92.919C40.5093 93.2929 48.2681 91.1974 48.307 89.4291C48.346 87.8633 40.6651 77.456 39.8316 77.3235Z" fill="#FF9566"/>
<path d="M45.8609 89.4213C39.442 89.7875 37.4712 86.095 30.7485 82.3403C29.7903 81.8028 25.2332 81.5145 26.5029 86.4222C27.3754 90.0212 29.4242 94.3913 31.4807 95.9805C36.6532 99.9767 39.2706 96.8997 44.3185 96.7594C48.0889 96.6426 48.938 92.9735 47.9564 88.9695C47.2852 89.2266 46.5785 89.379 45.8609 89.4213Z" fill="#FF9566"/>
<path d="M58.364 140.43L54.952 127.164L54.0094 130.264L41.2105 99.8053L34.3554 79.0217L31.9483 68.4586L14.7637 26.3929L17.1084 41.1938L15.2544 41.4353L30.0008 74.8308L27.4924 73.5376L38.3049 96.923L40.2679 105.149L53.2148 130.124L50.8233 128.994L58.364 140.43Z" fill="#FFDD71"/>
<path d="M86.8518 170.476C90.5676 169.331 93.5044 167.461 96.9008 166.503C109.217 143.335 120.201 121.921 121.369 103.669C119.811 116.071 110.214 144.94 86.8518 170.476Z" fill="#F4E1C1"/>
<path d="M120.785 72.1588C120.699 71.4577 119.188 71.076 117.419 71.3097C115.651 71.5434 114.303 72.2913 114.389 73.0001C114.475 73.709 115.986 74.0829 117.754 73.8492C119.523 73.6155 120.878 72.8599 120.785 72.1588Z" fill="#EF8054"/>
<path d="M33.623 86.7883L32.509 70.9358L31.9481 68.4586L23.2234 47.0908V59.4768L30.0006 74.8308L27.4923 73.5376L33.623 86.7883Z" fill="#FFF297"/>
<path d="M50.7531 122.505L41.2104 99.8053L39.8472 95.6688L42.153 108.795L50.7531 125.372V122.505Z" fill="#FFF297"/>
<path d="M201.878 168.996C197.874 163.582 192.912 165.778 189.375 168.692C186.104 172.904 184.291 178.066 184.21 183.399C184.006 188.936 185.767 194.366 189.18 198.73H192.982C192.982 198.73 202.33 198.948 203.747 193.277C205.165 187.606 201.512 186.266 201.512 186.266C201.512 186.266 208.936 178.546 201.878 168.996Z" fill="#FCF0D9"/>
<path d="M172.931 182.534C167.61 182.059 163.637 185.573 164.058 190.371C164.479 195.17 167.727 197.117 173.04 197.592C178.352 198.068 183.735 196.899 183.315 192.093C182.894 187.286 178.236 183.01 172.931 182.534Z" fill="#FCF0D9"/>
<path d="M155.209 176.373C153.3 175.594 151.898 176.793 152.342 179.294C152.786 181.794 154.266 183.025 156.237 183.352C157.951 183.641 159.353 183.181 158.885 181.14C158.653 180.127 158.203 179.177 157.569 178.354C156.934 177.531 156.129 176.855 155.209 176.373Z" fill="#FCF0D9"/>
<path d="M156.712 168.598C157.584 168.201 158.394 168.918 158.41 170.296C158.426 171.675 157.795 172.322 156.852 172.462C155.909 172.602 155.294 172.291 155.294 171.169C155.292 170.655 155.421 170.149 155.669 169.699C155.917 169.249 156.276 168.87 156.712 168.598Z" fill="#F4E1C1"/>
<path d="M28.3882 144.185C30.1332 144.613 30.4915 146.599 28.8946 148.633C27.2976 150.666 25.6462 150.892 24.1038 149.988C22.7561 149.209 22.0238 147.932 23.3871 146.327C24.7503 144.722 26.8614 143.811 28.3882 144.185Z" fill="#F4E1C1"/>
<path d="M66.9017 100.234C65.3982 108.366 63.9181 116.733 62.438 126.003C61.3864 154.553 56.8137 165.926 56.5488 168.069C59.6025 159.796 66.5122 137.026 66.9017 100.234Z" fill="#F4E1C1"/>
<path d="M78.2203 64.4312C80.7286 88.9383 94.8284 100.031 109.645 100.031C109.645 100.031 88.8847 102.205 81.087 81.7404C78.9556 76.228 77.9799 70.3364 78.2203 64.4312Z" fill="#F4E1C1"/>
<path d="M130.592 118.478C131.138 126.486 133.708 145.828 133.708 145.828L138.632 139.363C138.632 139.363 130.312 114.302 130.592 118.478Z" fill="#FCF0D9"/>
<path d="M92.9745 7.37767C94.319 7.55771 95.6082 8.0282 96.7526 8.75649C96.7526 8.75649 101.232 6.41951 104.854 6.5831L100.811 5.14975L88.5654 6.23255C88.5654 6.23255 88.0668 6.48183 88.059 6.87912C88.05 6.99979 88.0668 7.12102 88.1084 7.23467C88.1499 7.34831 88.2154 7.45176 88.3002 7.53807C88.385 7.62437 88.4873 7.69155 88.6002 7.73509C88.7131 7.77864 88.8341 7.79754 88.9549 7.79054C88.9549 7.79054 89.913 7.01155 92.9745 7.37767Z" fill="#FCE7CA"/>
<path d="M105.228 2.44664C105.158 2.2441 104.075 3.55281 103.249 4.58108H101.543C101.411 3.56839 101.201 2.57907 100.998 2.48559C100.796 2.39211 100.219 3.56839 99.814 4.54213H97.477C97.3435 3.75182 97.0406 2.99975 96.5889 2.33758C96.3085 2.22073 95.8956 3.52944 95.6464 4.45644H94.0027C93.4574 3.31911 92.7407 2.04935 92.4447 1.94808C92.1487 1.84682 92.0007 3.38922 91.9695 4.4175H90.1155C89.3365 3.31911 88.2459 1.75334 88.168 1.97924C87.7396 3.20226 88.059 4.92384 88.4718 6.36498L104.776 6.66879H104.831C105.283 5.21207 105.625 3.59176 105.228 2.44664Z" fill="#F7B42F"/>
<path d="M98.217 27.8496C99.284 27.0435 100.535 26.5165 101.858 26.3165C103.18 26.1165 104.531 26.2499 105.789 26.7045C105.789 26.7045 102.564 23.3548 104.145 19.3664C102.252 23.2068 102.587 24.0637 98.217 27.8496Z" fill="#FCE7CA"/>
<path d="M99.8142 4.51097H97.4772C97.3395 3.73151 97.0367 2.99049 96.5892 2.33758C96.3087 2.22073 95.8959 3.52944 95.6466 4.45644H94.0029C93.8705 4.17601 93.7303 3.89557 93.5822 3.62292C92.7331 4.57329 91.8996 5.49251 91.1284 6.37277L99.1832 6.52857C99.3468 6.33382 99.5026 6.13128 99.6662 5.94432C100.234 5.28883 100.835 4.66225 101.466 4.06695C101.439 3.51737 101.278 2.98264 100.998 2.50896C100.765 2.33758 100.211 3.53723 99.8142 4.51097Z" fill="#FFCB48"/>
<path d="M191.136 190.504C198.225 182.215 203.21 187.73 203.21 187.73L202.587 184.871C199.167 183.734 194.548 184.684 191.136 190.504Z" fill="#F4E1C1"/>
<path d="M50.948 151.203C50.3793 150.043 48.7668 149.645 47.3568 150.37C45.9468 151.094 45.2613 152.574 45.7988 153.727C46.3363 154.88 47.98 155.285 49.39 154.553C50.8 153.821 51.5166 152.356 50.948 151.203Z" fill="#FCF0D9"/>
<path d="M82.0142 149.49C114.849 121.446 113.524 103.973 113.524 103.973C113.524 103.973 105.509 119.046 99.8999 127.537C93.3251 137.524 82.0142 149.49 82.0142 149.49Z" fill="#F4E1C1"/>
<path d="M100.687 10.7118C100.542 10.5758 100.366 10.477 100.175 10.4241C99.9837 10.3712 99.7824 10.3656 99.5884 10.408C98.9963 10.4781 98.5134 10.8754 98.5289 10.9844C98.5445 11.0935 99.0275 10.9844 99.6195 10.8909C100.212 10.7975 100.695 10.8208 100.687 10.7118Z" fill="#603642"/>
<path d="M94.3768 11.1091C94.3768 11 93.9951 10.6105 93.4031 10.5248C93.1973 10.4802 92.9841 10.4822 92.7792 10.5307C92.5743 10.5793 92.3829 10.6731 92.219 10.8053C92.219 10.9143 92.7098 10.9143 93.3018 11C93.8938 11.0857 94.3612 11.2181 94.3768 11.1091Z" fill="#603642"/>
<path d="M39.6525 77.121C36.2405 75.6409 33.9736 76.8639 33.8879 78.3752C33.8022 79.8864 35.7965 88.0658 37.5881 89.0863C38.8345 89.7952 41.3117 89.2811 41.8025 87.5829C42.2309 86.0794 40.4237 77.4637 39.6525 77.121Z" fill="#FFB882"/>
<path d="M33.8645 86.2586C34.7681 85.5342 33.8256 80.8057 32.5558 80.533C31.286 80.2604 25.1943 80.533 24.314 82.1923C23.6986 83.3374 24.1115 85.8925 25.5448 86.617C26.8146 87.2479 33.3426 86.7104 33.8645 86.2586Z" fill="#FFB882"/>
<path d="M35.6796 92.0387C36.5131 91.3532 35.2433 87.3648 33.9736 87.1778C32.7038 86.9909 26.7367 87.6374 25.9889 89.1175C25.7468 89.8235 25.7716 90.5937 26.0586 91.2826C26.3457 91.9715 26.8751 92.5315 27.5469 92.8567C28.84 93.3319 35.1966 92.4594 35.6796 92.0387Z" fill="#FFB882"/>
<path d="M37.8218 97.7643C38.6008 97.219 37.9231 93.5578 36.8092 93.2929C35.6952 93.0281 30.3201 93.1137 29.5022 94.3679C29.2108 94.9633 29.149 95.6452 29.3286 96.2832C29.5083 96.9213 29.9167 97.4708 30.4759 97.8267C31.5821 98.3564 37.3233 98.0915 37.8218 97.7643Z" fill="#FFB882"/>
</svg>
